<?xml version="1.0" encoding="UTF-8" standalone="no"?>
<!DOCTYPE svg PUBLIC "-//W3C//DTD SVG 1.1//EN"
 "http://www.w3.org/Graphics/SVG/1.1/DTD/svg11.dtd">
<!-- Generated by graphviz version 5.0.0 (20220707.1540)
 -->
<!-- Title: graphname Pages: 1 -->
<svg width="640pt" height="298pt"
 viewBox="0.00 0.00 640.00 298.00" xmlns="http://www.w3.org/2000/svg" xmlns:xlink="http://www.w3.org/1999/xlink">
<g id="graph0" class="graph" transform="scale(1 1) rotate(0) translate(4 294)">
<title>graphname</title>
<polygon fill="white" stroke="transparent" points="-4,4 -4,-294 636,-294 636,4 -4,4"/>
<!-- REG -->
<g id="node1" class="node">
<title>REG</title>
<polygon fill="none" stroke="black" points="54,-190 0,-190 0,-154 54,-154 54,-190"/>
<text text-anchor="middle" x="27" y="-168.3" font-family="Times New Roman,serif" font-size="14.00">REG</text>
</g>
<!-- RV32IMC -->
<g id="node2" class="node">
<title>RV32IMC</title>
<polygon fill="none" stroke="black" points="166,-236 90,-236 90,-200 166,-200 166,-236"/>
<text text-anchor="middle" x="128" y="-214.3" font-family="Times New Roman,serif" font-size="14.00">RV32IMC</text>
</g>
<!-- REG&#45;&gt;RV32IMC -->
<g id="edge1" class="edge">
<title>REG&#45;&gt;RV32IMC</title>
<path fill="none" stroke="black" d="M54.27,-178C73.56,-178 96,-178 96,-178 96,-178 96,-189.87 96,-189.87"/>
<polygon fill="black" stroke="black" points="92.5,-189.87 96,-199.87 99.5,-189.87 92.5,-189.87"/>
</g>
<!-- GPIO -->
<g id="node6" class="node">
<title>GPIO</title>
<polygon fill="none" stroke="black" points="155,-113 101,-113 101,-77 155,-77 155,-113"/>
<text text-anchor="middle" x="128" y="-91.3" font-family="Times New Roman,serif" font-size="14.00">GPIO</text>
</g>
<!-- REG&#45;&gt;GPIO -->
<g id="edge4" class="edge">
<title>REG&#45;&gt;GPIO</title>
<path fill="none" stroke="black" d="M54.07,-166C83.98,-166 128,-166 128,-166 128,-166 128,-123.28 128,-123.28"/>
<polygon fill="black" stroke="black" points="131.5,-123.28 128,-113.28 124.5,-123.28 131.5,-123.28"/>
</g>
<!-- CORE -->
<g id="node3" class="node">
<title>CORE</title>
<polygon fill="none" stroke="black" points="275.5,-290 220.5,-290 220.5,-254 275.5,-254 275.5,-290"/>
<text text-anchor="middle" x="248" y="-268.3" font-family="Times New Roman,serif" font-size="14.00">CORE</text>
</g>
<!-- RV32IMC&#45;&gt;CORE -->
<g id="edge2" class="edge">
<title>RV32IMC&#45;&gt;CORE</title>
<path fill="none" stroke="black" d="M128,-236.28C128,-251.95 128,-272 128,-272 128,-272 210.47,-272 210.47,-272"/>
<polygon fill="black" stroke="black" points="210.47,-275.5 220.47,-272 210.47,-268.5 210.47,-275.5"/>
</g>
<!-- K1948BK018 -->
<g id="node4" class="node">
<title>K1948BK018</title>
<polygon fill="none" stroke="black" points="294,-236 202,-236 202,-200 294,-200 294,-236"/>
<text text-anchor="middle" x="248" y="-214.3" font-family="Times New Roman,serif" font-size="14.00">K1948BK018</text>
</g>
<!-- RV32IMC&#45;&gt;K1948BK018 -->
<g id="edge3" class="edge">
<title>RV32IMC&#45;&gt;K1948BK018</title>
<path fill="none" stroke="black" d="M166.3,-218C166.3,-218 191.67,-218 191.67,-218"/>
<polygon fill="black" stroke="black" points="191.67,-221.5 201.67,-218 191.67,-214.5 191.67,-221.5"/>
</g>
<!-- SPIFI -->
<g id="node5" class="node">
<title>SPIFI</title>
<polygon fill="aquamarine" stroke="black" points="269,-90 221,-90 221,-54 275,-54 275,-84 269,-90"/>
<polyline fill="none" stroke="black" points="269,-90 269,-84 "/>
<polyline fill="none" stroke="black" points="275,-84 269,-84 "/>
<text text-anchor="middle" x="248" y="-68.3" font-family="Times New Roman,serif" font-size="14.00">SPIFI</text>
</g>
<!-- W25Q32JV -->
<g id="node8" class="node">
<title>W25Q32JV</title>
<polygon fill="none" stroke="black" points="418,-144 335,-144 335,-108 418,-108 418,-144"/>
<text text-anchor="middle" x="376.5" y="-122.3" font-family="Times New Roman,serif" font-size="14.00">W25Q32JV</text>
</g>
<!-- SPIFI&#45;&gt;W25Q32JV -->
<g id="edge16" class="edge">
<title>SPIFI&#45;&gt;W25Q32JV</title>
<path fill="none" stroke="black" d="M275.23,-78C316.72,-78 391,-78 391,-78 391,-78 391,-97.85 391,-97.85"/>
<polygon fill="black" stroke="black" points="387.5,-97.85 391,-107.85 394.5,-97.85 387.5,-97.85"/>
</g>
<!-- MBR -->
<g id="node12" class="node">
<title>MBR</title>
<polygon fill="none" stroke="black" points="632,-90 578,-90 578,-54 632,-54 632,-90"/>
<text text-anchor="middle" x="605" y="-68.3" font-family="Times New Roman,serif" font-size="14.00">MBR</text>
</g>
<!-- SPIFI&#45;&gt;MBR -->
<g id="edge11" class="edge">
<title>SPIFI&#45;&gt;MBR</title>
<path fill="none" stroke="black" d="M275.13,-66C275.13,-66 567.92,-66 567.92,-66"/>
<polygon fill="black" stroke="black" points="567.92,-69.5 577.92,-66 567.92,-62.5 567.92,-69.5"/>
</g>
<!-- GPIO&#45;&gt;SPIFI -->
<g id="edge6" class="edge">
<title>GPIO&#45;&gt;SPIFI</title>
<path fill="none" stroke="black" d="M155.23,-83.5C155.23,-83.5 210.88,-83.5 210.88,-83.5"/>
<polygon fill="black" stroke="black" points="210.88,-87 220.88,-83.5 210.88,-80 210.88,-87"/>
</g>
<!-- GPIO&#45;&gt;W25Q32JV -->
<g id="edge13" class="edge">
<title>GPIO&#45;&gt;W25Q32JV</title>
<path fill="none" stroke="black" d="M155.42,-104C217.41,-104 363,-104 363,-104 363,-104 363,-104.38 363,-104.38"/>
<polygon fill="black" stroke="black" points="359.5,-97.83 363,-107.83 366.5,-97.83 359.5,-97.83"/>
</g>
<!-- LED -->
<g id="node10" class="node">
<title>LED</title>
<polygon fill="none" stroke="black" points="275,-36 221,-36 221,0 275,0 275,-36"/>
<text text-anchor="middle" x="248" y="-14.3" font-family="Times New Roman,serif" font-size="14.00">LED</text>
</g>
<!-- GPIO&#45;&gt;LED -->
<g id="edge8" class="edge">
<title>GPIO&#45;&gt;LED</title>
<path fill="none" stroke="black" d="M128,-76.75C128,-53.98 128,-18 128,-18 128,-18 210.77,-18 210.77,-18"/>
<polygon fill="black" stroke="black" points="210.77,-21.5 220.77,-18 210.77,-14.5 210.77,-21.5"/>
</g>
<!-- MCU -->
<g id="node7" class="node">
<title>MCU</title>
<polygon fill="none" stroke="black" points="54,-113 0,-113 0,-77 54,-77 54,-113"/>
<text text-anchor="middle" x="27" y="-91.3" font-family="Times New Roman,serif" font-size="14.00">MCU</text>
</g>
<!-- MCU&#45;&gt;GPIO -->
<g id="edge5" class="edge">
<title>MCU&#45;&gt;GPIO</title>
<path fill="none" stroke="black" d="M54.07,-95C54.07,-95 90.86,-95 90.86,-95"/>
<polygon fill="black" stroke="black" points="90.86,-98.5 100.86,-95 90.86,-91.5 90.86,-98.5"/>
</g>
<!-- BOOT -->
<g id="node9" class="node">
<title>BOOT</title>
<polygon fill="none" stroke="black" points="528.5,-190 472.5,-190 472.5,-154 528.5,-154 528.5,-190"/>
<text text-anchor="middle" x="500.5" y="-168.3" font-family="Times New Roman,serif" font-size="14.00">BOOT</text>
</g>
<!-- W25Q32JV&#45;&gt;BOOT -->
<g id="edge7" class="edge">
<title>W25Q32JV&#45;&gt;BOOT</title>
<path fill="none" stroke="black" d="M418.3,-140C454.47,-140 501,-140 501,-140 501,-140 501,-143.76 501,-143.76"/>
<polygon fill="black" stroke="black" points="497.5,-143.76 501,-153.76 504.5,-143.76 497.5,-143.76"/>
</g>
<!-- STORAGE -->
<g id="node14" class="node">
<title>STORAGE</title>
<polygon fill="none" stroke="black" points="542,-136 459,-136 459,-100 542,-100 542,-136"/>
<text text-anchor="middle" x="500.5" y="-114.3" font-family="Times New Roman,serif" font-size="14.00">STORAGE</text>
</g>
<!-- W25Q32JV&#45;&gt;STORAGE -->
<g id="edge15" class="edge">
<title>W25Q32JV&#45;&gt;STORAGE</title>
<path fill="none" stroke="black" d="M418.14,-122C418.14,-122 448.76,-122 448.76,-122"/>
<polygon fill="black" stroke="black" points="448.76,-125.5 458.76,-122 448.76,-118.5 448.76,-125.5"/>
</g>
<!-- BOOT&#45;&gt;MBR -->
<g id="edge10" class="edge">
<title>BOOT&#45;&gt;MBR</title>
<path fill="none" stroke="black" d="M528.5,-172C559.46,-172 605,-172 605,-172 605,-172 605,-100.34 605,-100.34"/>
<polygon fill="black" stroke="black" points="608.5,-100.34 605,-90.34 601.5,-100.34 608.5,-100.34"/>
</g>
<!-- LED_MONO -->
<g id="node11" class="node">
<title>LED_MONO</title>
<polygon fill="none" stroke="black" points="423,-44 330,-44 330,-8 423,-8 423,-44"/>
<text text-anchor="middle" x="376.5" y="-22.3" font-family="Times New Roman,serif" font-size="14.00">LED_MONO</text>
</g>
<!-- LED&#45;&gt;LED_MONO -->
<g id="edge9" class="edge">
<title>LED&#45;&gt;LED_MONO</title>
<path fill="none" stroke="black" d="M275.25,-22C275.25,-22 319.81,-22 319.81,-22"/>
<polygon fill="black" stroke="black" points="319.81,-25.5 329.81,-22 319.81,-18.5 319.81,-25.5"/>
</g>
<!-- LED&#45;&gt;MBR -->
<g id="edge12" class="edge">
<title>LED&#45;&gt;MBR</title>
<path fill="none" stroke="black" d="M275.13,-4C358.44,-4 605,-4 605,-4 605,-4 605,-43.78 605,-43.78"/>
<polygon fill="black" stroke="black" points="601.5,-43.78 605,-53.78 608.5,-43.78 601.5,-43.78"/>
</g>
<!-- TIME -->
<g id="node13" class="node">
<title>TIME</title>
<polygon fill="none" stroke="black" points="275,-144 221,-144 221,-108 275,-108 275,-144"/>
<text text-anchor="middle" x="248" y="-122.3" font-family="Times New Roman,serif" font-size="14.00">TIME</text>
</g>
<!-- TIME&#45;&gt;W25Q32JV -->
<g id="edge14" class="edge">
<title>TIME&#45;&gt;W25Q32JV</title>
<path fill="none" stroke="black" d="M275.25,-126C275.25,-126 324.61,-126 324.61,-126"/>
<polygon fill="black" stroke="black" points="324.61,-129.5 334.61,-126 324.61,-122.5 324.61,-129.5"/>
</g>
</g>
</svg>
