<?xml version="1.0" encoding="UTF-8" standalone="no"?>
<!DOCTYPE svg PUBLIC "-//W3C//DTD SVG 1.1//EN"
 "http://www.w3.org/Graphics/SVG/1.1/DTD/svg11.dtd">
<!-- Generated by graphviz version 5.0.0 (20220707.1540)
 -->
<!-- Title: graphname Pages: 1 -->
<svg width="715pt" height="583pt"
 viewBox="0.00 0.00 715.00 583.00" xmlns="http://www.w3.org/2000/svg" xmlns:xlink="http://www.w3.org/1999/xlink">
<g id="graph0" class="graph" transform="scale(1 1) rotate(0) translate(4 579)">
<title>graphname</title>
<polygon fill="white" stroke="transparent" points="-4,4 -4,-579 711,-579 711,4 -4,4"/>
<!-- REG -->
<g id="node1" class="node">
<title>REG</title>
<polygon fill="none" stroke="black" points="172,-467 118,-467 118,-431 172,-431 172,-467"/>
<text text-anchor="middle" x="145" y="-445.3" font-family="Times New Roman,serif" font-size="14.00">REG</text>
</g>
<!-- RV32IMC -->
<g id="node2" class="node">
<title>RV32IMC</title>
<polygon fill="none" stroke="black" points="300,-501 224,-501 224,-465 300,-465 300,-501"/>
<text text-anchor="middle" x="262" y="-479.3" font-family="Times New Roman,serif" font-size="14.00">RV32IMC</text>
</g>
<!-- REG&#45;&gt;RV32IMC -->
<g id="edge1" class="edge">
<title>REG&#45;&gt;RV32IMC</title>
<path fill="none" stroke="black" d="M172.04,-456C196.6,-456 229,-456 229,-456 229,-456 229,-456.88 229,-456.88"/>
<polygon fill="black" stroke="black" points="225.5,-454.84 229,-464.84 232.5,-454.84 225.5,-454.84"/>
</g>
<!-- FLASH -->
<g id="node6" class="node">
<title>FLASH</title>
<polygon fill="none" stroke="black" points="292.5,-409 231.5,-409 231.5,-373 292.5,-373 292.5,-409"/>
<text text-anchor="middle" x="262" y="-387.3" font-family="Times New Roman,serif" font-size="14.00">FLASH</text>
</g>
<!-- REG&#45;&gt;FLASH -->
<g id="edge5" class="edge">
<title>REG&#45;&gt;FLASH</title>
<path fill="none" stroke="black" d="M172.14,-441.67C206.7,-441.67 262,-441.67 262,-441.67 262,-441.67 262,-419.01 262,-419.01"/>
<polygon fill="black" stroke="black" points="265.5,-419.01 262,-409.01 258.5,-419.01 265.5,-419.01"/>
</g>
<!-- GPIO -->
<g id="node8" class="node">
<title>GPIO</title>
<polygon fill="none" stroke="black" points="289,-339 235,-339 235,-303 289,-303 289,-339"/>
<text text-anchor="middle" x="262" y="-317.3" font-family="Times New Roman,serif" font-size="14.00">GPIO</text>
</g>
<!-- REG&#45;&gt;GPIO -->
<g id="edge7" class="edge">
<title>REG&#45;&gt;GPIO</title>
<path fill="none" stroke="black" d="M172.3,-436.33C196.16,-436.33 227,-436.33 227,-436.33 227,-436.33 227,-331 227,-331 227,-331 227.78,-331 227.78,-331"/>
<polygon fill="black" stroke="black" points="224.77,-334.5 234.77,-331 224.77,-327.5 224.77,-334.5"/>
</g>
<!-- CORE -->
<g id="node3" class="node">
<title>CORE</title>
<polygon fill="none" stroke="black" points="409.5,-555 354.5,-555 354.5,-519 409.5,-519 409.5,-555"/>
<text text-anchor="middle" x="382" y="-533.3" font-family="Times New Roman,serif" font-size="14.00">CORE</text>
</g>
<!-- RV32IMC&#45;&gt;CORE -->
<g id="edge2" class="edge">
<title>RV32IMC&#45;&gt;CORE</title>
<path fill="none" stroke="black" d="M262,-501.04C262,-514.29 262,-530 262,-530 262,-530 344.47,-530 344.47,-530"/>
<polygon fill="black" stroke="black" points="344.47,-533.5 354.47,-530 344.47,-526.5 344.47,-533.5"/>
</g>
<!-- K1948BK018 -->
<g id="node4" class="node">
<title>K1948BK018</title>
<polygon fill="none" stroke="black" points="428,-501 336,-501 336,-465 428,-465 428,-501"/>
<text text-anchor="middle" x="382" y="-479.3" font-family="Times New Roman,serif" font-size="14.00">K1948BK018</text>
</g>
<!-- RV32IMC&#45;&gt;K1948BK018 -->
<g id="edge3" class="edge">
<title>RV32IMC&#45;&gt;K1948BK018</title>
<path fill="none" stroke="black" d="M300.3,-483C300.3,-483 325.67,-483 325.67,-483"/>
<polygon fill="black" stroke="black" points="325.67,-486.5 335.67,-483 325.67,-479.5 325.67,-486.5"/>
</g>
<!-- ARRAY -->
<g id="node5" class="node">
<title>ARRAY</title>
<polygon fill="aqua" stroke="black" points="171.5,-413 112.5,-413 112.5,-377 177.5,-377 177.5,-407 171.5,-413"/>
<polyline fill="none" stroke="black" points="171.5,-413 171.5,-407 "/>
<polyline fill="none" stroke="black" points="177.5,-407 171.5,-407 "/>
<text text-anchor="middle" x="145" y="-391.3" font-family="Times New Roman,serif" font-size="14.00">ARRAY</text>
</g>
<!-- ARRAY&#45;&gt;FLASH -->
<g id="edge4" class="edge">
<title>ARRAY&#45;&gt;FLASH</title>
<path fill="none" stroke="black" d="M177.59,-398.33C177.59,-398.33 221.19,-398.33 221.19,-398.33"/>
<polygon fill="black" stroke="black" points="221.19,-401.83 231.19,-398.33 221.19,-394.83 221.19,-401.83"/>
</g>
<!-- DEBUGGER -->
<g id="node18" class="node">
<title>DEBUGGER</title>
<polygon fill="none" stroke="black" points="428,-447 336,-447 336,-411 428,-411 428,-447"/>
<text text-anchor="middle" x="382" y="-425.3" font-family="Times New Roman,serif" font-size="14.00">DEBUGGER</text>
</g>
<!-- FLASH&#45;&gt;DEBUGGER -->
<g id="edge17" class="edge">
<title>FLASH&#45;&gt;DEBUGGER</title>
<path fill="none" stroke="black" d="M292.77,-397C314.95,-397 341,-397 341,-397 341,-397 341,-400.76 341,-400.76"/>
<polygon fill="black" stroke="black" points="337.5,-400.76 341,-410.76 344.5,-400.76 337.5,-400.76"/>
</g>
<!-- TASK -->
<g id="node22" class="node">
<title>TASK</title>
<polygon fill="none" stroke="black" points="546.5,-355 474.5,-355 474.5,-319 546.5,-319 546.5,-355"/>
<text text-anchor="middle" x="510.5" y="-333.3" font-family="Times New Roman,serif" font-size="14.00">Scheduler</text>
</g>
<!-- FLASH&#45;&gt;TASK -->
<g id="edge25" class="edge">
<title>FLASH&#45;&gt;TASK</title>
<path fill="none" stroke="blue" d="M292.53,-385C359.02,-385 511,-385 511,-385 511,-385 511,-365.15 511,-365.15"/>
<polygon fill="blue" stroke="blue" points="514.5,-365.15 511,-355.15 507.5,-365.15 514.5,-365.15"/>
</g>
<!-- LIMITER -->
<g id="node24" class="node">
<title>LIMITER</title>
<polygon fill="none" stroke="black" points="418.5,-355 345.5,-355 345.5,-319 418.5,-319 418.5,-355"/>
<text text-anchor="middle" x="382" y="-333.3" font-family="Times New Roman,serif" font-size="14.00">LIMITER</text>
</g>
<!-- FLASH&#45;&gt;LIMITER -->
<g id="edge27" class="edge">
<title>FLASH&#45;&gt;LIMITER</title>
<path fill="none" stroke="black" d="M262,-372.85C262,-360.73 262,-347 262,-347 262,-347 335.34,-347 335.34,-347"/>
<polygon fill="black" stroke="black" points="335.34,-350.5 345.34,-347 335.34,-343.5 335.34,-350.5"/>
</g>
<!-- INTERVAL -->
<g id="node7" class="node">
<title>INTERVAL</title>
<polygon fill="none" stroke="black" points="188,-359 102,-359 102,-323 188,-323 188,-359"/>
<text text-anchor="middle" x="145" y="-337.3" font-family="Times New Roman,serif" font-size="14.00">INTERVAL</text>
</g>
<!-- INTERVAL&#45;&gt;FLASH -->
<g id="edge6" class="edge">
<title>INTERVAL&#45;&gt;FLASH</title>
<path fill="none" stroke="black" d="M183,-359.18C183,-372.28 183,-387.67 183,-387.67 183,-387.67 221.23,-387.67 221.23,-387.67"/>
<polygon fill="black" stroke="black" points="221.23,-391.17 231.23,-387.67 221.23,-384.17 221.23,-391.17"/>
</g>
<!-- LED -->
<g id="node19" class="node">
<title>LED</title>
<polygon fill="none" stroke="black" points="409,-301 355,-301 355,-265 409,-265 409,-301"/>
<text text-anchor="middle" x="382" y="-279.3" font-family="Times New Roman,serif" font-size="14.00">LED</text>
</g>
<!-- GPIO&#45;&gt;LED -->
<g id="edge18" class="edge">
<title>GPIO&#45;&gt;LED</title>
<path fill="none" stroke="black" d="M289.23,-311C324.63,-311 382,-311 382,-311 382,-311 382,-310.02 382,-310.02"/>
<polygon fill="black" stroke="black" points="385.5,-311.21 382,-301.21 378.5,-311.21 385.5,-311.21"/>
</g>
<!-- MCU -->
<g id="node9" class="node">
<title>MCU</title>
<polygon fill="none" stroke="black" points="172,-305 118,-305 118,-269 172,-269 172,-305"/>
<text text-anchor="middle" x="145" y="-283.3" font-family="Times New Roman,serif" font-size="14.00">MCU</text>
</g>
<!-- MCU&#45;&gt;GPIO -->
<g id="edge8" class="edge">
<title>MCU&#45;&gt;GPIO</title>
<path fill="none" stroke="black" d="M145,-305.16C145,-310.04 145,-314 145,-314 145,-314 224.86,-314 224.86,-314"/>
<polygon fill="black" stroke="black" points="224.86,-317.5 234.86,-314 224.86,-310.5 224.86,-317.5"/>
</g>
<!-- TIME -->
<g id="node10" class="node">
<title>TIME</title>
<polygon fill="none" stroke="black" points="172,-251 118,-251 118,-215 172,-215 172,-251"/>
<text text-anchor="middle" x="145" y="-229.3" font-family="Times New Roman,serif" font-size="14.00">TIME</text>
</g>
<!-- TIME&#45;&gt;GPIO -->
<g id="edge9" class="edge">
<title>TIME&#45;&gt;GPIO</title>
<path fill="none" stroke="black" d="M172.14,-245.33C206.7,-245.33 262,-245.33 262,-245.33 262,-245.33 262,-292.68 262,-292.68"/>
<polygon fill="black" stroke="black" points="258.5,-292.68 262,-302.68 265.5,-292.68 258.5,-292.68"/>
</g>
<!-- LOG -->
<g id="node13" class="node">
<title>LOG</title>
<polygon fill="none" stroke="black" points="289,-63 235,-63 235,-27 289,-27 289,-63"/>
<text text-anchor="middle" x="262" y="-41.3" font-family="Times New Roman,serif" font-size="14.00">LOG</text>
</g>
<!-- TIME&#45;&gt;LOG -->
<g id="edge12" class="edge">
<title>TIME&#45;&gt;LOG</title>
<path fill="none" stroke="black" d="M172.25,-222.67C190.8,-222.67 212,-222.67 212,-222.67 212,-222.67 212,-60.75 212,-60.75 212,-60.75 224.95,-60.75 224.95,-60.75"/>
<polygon fill="black" stroke="black" points="224.95,-64.25 234.95,-60.75 224.95,-57.25 224.95,-64.25"/>
</g>
<!-- LED_MONO -->
<g id="node20" class="node">
<title>LED_MONO</title>
<polygon fill="none" stroke="black" points="557,-217 464,-217 464,-181 557,-181 557,-217"/>
<text text-anchor="middle" x="510.5" y="-195.3" font-family="Times New Roman,serif" font-size="14.00">LED_MONO</text>
</g>
<!-- TIME&#45;&gt;LED_MONO -->
<g id="edge21" class="edge">
<title>TIME&#45;&gt;LED_MONO</title>
<path fill="none" stroke="black" d="M172.26,-228.33C250.13,-228.33 468,-228.33 468,-228.33 468,-228.33 468,-227.08 468,-227.08"/>
<polygon fill="black" stroke="black" points="471.5,-227.08 468,-217.08 464.5,-227.08 471.5,-227.08"/>
</g>
<!-- TIME&#45;&gt;TASK -->
<g id="edge24" class="edge">
<title>TIME&#45;&gt;TASK</title>
<path fill="none" stroke="red" d="M172.21,-234C257.03,-234 511,-234 511,-234 511,-234 511,-308.59 511,-308.59"/>
<polygon fill="red" stroke="red" points="507.5,-308.59 511,-318.59 514.5,-308.59 507.5,-308.59"/>
</g>
<!-- TIME&#45;&gt;LIMITER -->
<g id="edge26" class="edge">
<title>TIME&#45;&gt;LIMITER</title>
<path fill="none" stroke="black" d="M172.22,-239.67C227.99,-239.67 350,-239.67 350,-239.67 350,-239.67 350,-308.69 350,-308.69"/>
<polygon fill="black" stroke="black" points="346.5,-308.69 350,-318.69 353.5,-308.69 346.5,-308.69"/>
</g>
<!-- FIFO -->
<g id="node11" class="node">
<title>FIFO</title>
<polygon fill="aqua" stroke="black" points="166,-173 118,-173 118,-137 172,-137 172,-167 166,-173"/>
<polyline fill="none" stroke="black" points="166,-173 166,-167 "/>
<polyline fill="none" stroke="black" points="172,-167 166,-167 "/>
<text text-anchor="middle" x="145" y="-151.3" font-family="Times New Roman,serif" font-size="14.00">FIFO</text>
</g>
<!-- FIFO&#45;&gt;LOG -->
<g id="edge14" class="edge">
<title>FIFO&#45;&gt;LOG</title>
<path fill="none" stroke="black" d="M172.18,-154C186.03,-154 200,-154 200,-154 200,-154 200,-58.5 200,-58.5 200,-58.5 224.99,-58.5 224.99,-58.5"/>
<polygon fill="black" stroke="black" points="224.99,-62 234.99,-58.5 224.99,-55 224.99,-62"/>
</g>
<!-- RAM -->
<g id="node12" class="node">
<title>RAM</title>
<polygon fill="none" stroke="black" points="60,-359 6,-359 6,-323 60,-323 60,-359"/>
<text text-anchor="middle" x="33" y="-337.3" font-family="Times New Roman,serif" font-size="14.00">RAM</text>
</g>
<!-- RAM&#45;&gt;ARRAY -->
<g id="edge10" class="edge">
<title>RAM&#45;&gt;ARRAY</title>
<path fill="none" stroke="blue" d="M33,-359.28C33,-374.95 33,-395 33,-395 33,-395 102.3,-395 102.3,-395"/>
<polygon fill="blue" stroke="blue" points="102.3,-398.5 112.3,-395 102.3,-391.5 102.3,-398.5"/>
</g>
<!-- RAM&#45;&gt;INTERVAL -->
<g id="edge28" class="edge">
<title>RAM&#45;&gt;INTERVAL</title>
<path fill="none" stroke="black" d="M60.11,-341C60.11,-341 91.97,-341 91.97,-341"/>
<polygon fill="black" stroke="black" points="91.97,-344.5 101.97,-341 91.97,-337.5 91.97,-344.5"/>
</g>
<!-- RAM&#45;&gt;FIFO -->
<g id="edge11" class="edge">
<title>RAM&#45;&gt;FIFO</title>
<path fill="none" stroke="black" d="M33,-322.83C33,-276.02 33,-155 33,-155 33,-155 107.89,-155 107.89,-155"/>
<polygon fill="black" stroke="black" points="107.89,-158.5 117.89,-155 107.89,-151.5 107.89,-158.5"/>
</g>
<!-- STREAM -->
<g id="node14" class="node">
<title>STREAM</title>
<polygon fill="none" stroke="black" points="182,-90 108,-90 108,-54 182,-54 182,-90"/>
<text text-anchor="middle" x="145" y="-68.3" font-family="Times New Roman,serif" font-size="14.00">STREAM</text>
</g>
<!-- STREAM&#45;&gt;LOG -->
<g id="edge13" class="edge">
<title>STREAM&#45;&gt;LOG</title>
<path fill="none" stroke="black" d="M182.02,-56.25C182.02,-56.25 224.86,-56.25 224.86,-56.25"/>
<polygon fill="black" stroke="black" points="224.86,-59.75 234.86,-56.25 224.86,-52.75 224.86,-59.75"/>
</g>
<!-- UART -->
<g id="node15" class="node">
<title>UART</title>
<polygon fill="none" stroke="black" points="172.5,-36 117.5,-36 117.5,0 172.5,0 172.5,-36"/>
<text text-anchor="middle" x="145" y="-14.3" font-family="Times New Roman,serif" font-size="14.00">UART</text>
</g>
<!-- UART&#45;&gt;LOG -->
<g id="edge15" class="edge">
<title>UART&#45;&gt;LOG</title>
<path fill="none" stroke="black" d="M172.73,-31.5C172.73,-31.5 224.88,-31.5 224.88,-31.5"/>
<polygon fill="black" stroke="black" points="224.88,-35 234.88,-31.5 224.88,-28 224.88,-35"/>
</g>
<!-- PARAM -->
<g id="node16" class="node">
<title>PARAM</title>
<polygon fill="none" stroke="black" points="66,-521 0,-521 0,-485 66,-485 66,-521"/>
<text text-anchor="middle" x="33" y="-499.3" font-family="Times New Roman,serif" font-size="14.00">PARAM</text>
</g>
<!-- BOOT -->
<g id="node17" class="node">
<title>BOOT</title>
<polygon fill="none" stroke="black" points="173,-521 117,-521 117,-485 173,-485 173,-521"/>
<text text-anchor="middle" x="145" y="-499.3" font-family="Times New Roman,serif" font-size="14.00">BOOT</text>
</g>
<!-- PARAM&#45;&gt;BOOT -->
<g id="edge16" class="edge">
<title>PARAM&#45;&gt;BOOT</title>
<path fill="none" stroke="black" d="M66.3,-503C66.3,-503 106.93,-503 106.93,-503"/>
<polygon fill="black" stroke="black" points="106.93,-506.5 116.93,-503 106.93,-499.5 106.93,-506.5"/>
</g>
<!-- LED&#45;&gt;LED_MONO -->
<g id="edge19" class="edge">
<title>LED&#45;&gt;LED_MONO</title>
<path fill="none" stroke="black" d="M409.19,-283C435.36,-283 471,-283 471,-283 471,-283 471,-227.23 471,-227.23"/>
<polygon fill="black" stroke="black" points="474.5,-227.23 471,-217.23 467.5,-227.23 474.5,-227.23"/>
</g>
<!-- MATH -->
<g id="node21" class="node">
<title>MATH</title>
<polygon fill="none" stroke="black" points="410.5,-171 353.5,-171 353.5,-135 410.5,-135 410.5,-171"/>
<text text-anchor="middle" x="382" y="-149.3" font-family="Times New Roman,serif" font-size="14.00">MATH</text>
</g>
<!-- MATH&#45;&gt;LED_MONO -->
<g id="edge20" class="edge">
<title>MATH&#45;&gt;LED_MONO</title>
<path fill="none" stroke="black" d="M382,-171.04C382,-183.56 382,-198 382,-198 382,-198 453.75,-198 453.75,-198"/>
<polygon fill="black" stroke="black" points="453.75,-201.5 463.75,-198 453.75,-194.5 453.75,-201.5"/>
</g>
<!-- SUPER_CYCLE -->
<g id="node23" class="node">
<title>SUPER_CYCLE</title>
<polygon fill="none" stroke="black" points="707,-355 593,-355 593,-319 707,-319 707,-355"/>
<text text-anchor="middle" x="650" y="-333.3" font-family="Times New Roman,serif" font-size="14.00">SUPER_CYCLE</text>
</g>
<!-- TASK&#45;&gt;SUPER_CYCLE -->
<g id="edge22" class="edge">
<title>TASK&#45;&gt;SUPER_CYCLE</title>
<path fill="none" stroke="black" d="M546.79,-337C546.79,-337 582.81,-337 582.81,-337"/>
<polygon fill="black" stroke="black" points="582.81,-340.5 592.81,-337 582.81,-333.5 582.81,-340.5"/>
</g>
<!-- LIMITER&#45;&gt;TASK -->
<g id="edge23" class="edge">
<title>LIMITER&#45;&gt;TASK</title>
<path fill="none" stroke="green" d="M418.82,-337C418.82,-337 464.12,-337 464.12,-337"/>
<polygon fill="green" stroke="green" points="464.12,-340.5 474.12,-337 464.12,-333.5 464.12,-340.5"/>
</g>
<!-- CRC16 -->
<g id="node25" class="node">
<title>CRC16</title>
<polygon fill="none" stroke="black" points="62.5,-575 3.5,-575 3.5,-539 62.5,-539 62.5,-575"/>
<text text-anchor="middle" x="33" y="-553.3" font-family="Times New Roman,serif" font-size="14.00">CRC16</text>
</g>
<!-- ASM -->
<g id="node26" class="node">
<title>ASM</title>
<polygon fill="none" stroke="black" points="289,-171 235,-171 235,-135 289,-135 289,-171"/>
<text text-anchor="middle" x="262" y="-149.3" font-family="Times New Roman,serif" font-size="14.00">ASM</text>
</g>
<!-- ASM&#45;&gt;MATH -->
<g id="edge29" class="edge">
<title>ASM&#45;&gt;MATH</title>
<path fill="none" stroke="black" d="M289.23,-153C289.23,-153 343.2,-153 343.2,-153"/>
<polygon fill="black" stroke="black" points="343.2,-156.5 353.2,-153 343.2,-149.5 343.2,-156.5"/>
</g>
<!-- FLOAT -->
<g id="node27" class="node">
<title>FLOAT</title>
<polygon fill="none" stroke="black" points="293,-117 231,-117 231,-81 293,-81 293,-117"/>
<text text-anchor="middle" x="262" y="-95.3" font-family="Times New Roman,serif" font-size="14.00">FLOAT</text>
</g>
<!-- FLOAT&#45;&gt;MATH -->
<g id="edge30" class="edge">
<title>FLOAT&#45;&gt;MATH</title>
<path fill="none" stroke="black" d="M293.22,-99C328.77,-99 382,-99 382,-99 382,-99 382,-124.72 382,-124.72"/>
<polygon fill="black" stroke="black" points="378.5,-124.72 382,-134.72 385.5,-124.72 378.5,-124.72"/>
</g>
</g>
</svg>
