<?xml version="1.0" encoding="UTF-8" standalone="no"?>
<!DOCTYPE svg PUBLIC "-//W3C//DTD SVG 1.1//EN"
 "http://www.w3.org/Graphics/SVG/1.1/DTD/svg11.dtd">
<!-- Generated by graphviz version 8.0.5 (20230508.1809)
 -->
<!-- Title: graphname Pages: 1 -->
<svg width="1110pt" height="1228pt"
 viewBox="0.00 0.00 1110.25 1228.00" xmlns="http://www.w3.org/2000/svg" xmlns:xlink="http://www.w3.org/1999/xlink">
<g id="graph0" class="graph" transform="scale(1 1) rotate(0) translate(4 1224)">
<title>graphname</title>
<polygon fill="white" stroke="none" points="-4,4 -4,-1224 1106.25,-1224 1106.25,4 -4,4"/>
<!-- XXX -->
<g id="node1" class="node">
<title>XXX</title>
<polygon fill="none" stroke="black" points="102.12,-36 48.12,-36 48.12,0 102.12,0 102.12,-36"/>
<text text-anchor="middle" x="75.12" y="-12.95" font-family="Times,serif" font-size="14.00">XXX</text>
</g>
<!-- I2S_ECHO -->
<g id="node2" class="node">
<title>I2S_ECHO</title>
<polygon fill="none" stroke="black" points="264.5,-36 186.25,-36 186.25,0 264.5,0 264.5,-36"/>
<text text-anchor="middle" x="225.38" y="-12.95" font-family="Times,serif" font-size="14.00">I2S_ECHO</text>
</g>
<!-- XXX&#45;&gt;I2S_ECHO -->
<g id="edge1" class="edge">
<title>XXX&#45;&gt;I2S_ECHO</title>
<path fill="none" stroke="black" d="M102.33,-18C102.33,-18 174.93,-18 174.93,-18"/>
<polygon fill="black" stroke="black" points="174.93,-21.5 184.93,-18 174.93,-14.5 174.93,-21.5"/>
</g>
<!-- DEBUGGER -->
<g id="node3" class="node">
<title>DEBUGGER</title>
<polygon fill="none" stroke="black" points="521.5,-1182 432,-1182 432,-1146 521.5,-1146 521.5,-1182"/>
<text text-anchor="middle" x="476.75" y="-1158.95" font-family="Times,serif" font-size="14.00">DEBUGGER</text>
</g>
<!-- CORE -->
<g id="node4" class="node">
<title>CORE</title>
<polygon fill="none" stroke="black" points="613.88,-1205 559.88,-1205 559.88,-1169 613.88,-1169 613.88,-1205"/>
<text text-anchor="middle" x="586.88" y="-1181.95" font-family="Times,serif" font-size="14.00">CORE</text>
</g>
<!-- DEBUGGER&#45;&gt;CORE -->
<g id="edge2" class="edge">
<title>DEBUGGER&#45;&gt;CORE</title>
<path fill="none" stroke="black" d="M521.86,-1175.5C521.86,-1175.5 548.68,-1175.5 548.68,-1175.5"/>
<polygon fill="black" stroke="black" points="548.68,-1179 558.68,-1175.5 548.68,-1172 548.68,-1179"/>
</g>
<!-- FLASH -->
<g id="node19" class="node">
<title>FLASH</title>
<polygon fill="none" stroke="black" points="616.25,-994 557.5,-994 557.5,-958 616.25,-958 616.25,-994"/>
<text text-anchor="middle" x="586.88" y="-970.95" font-family="Times,serif" font-size="14.00">FLASH</text>
</g>
<!-- DEBUGGER&#45;&gt;FLASH -->
<g id="edge28" class="edge">
<title>DEBUGGER&#45;&gt;FLASH</title>
<path fill="none" stroke="black" d="M507.25,-1145.62C507.25,-1100.14 507.25,-986 507.25,-986 507.25,-986 546.23,-986 546.23,-986"/>
<polygon fill="black" stroke="black" points="546.23,-989.5 556.23,-986 546.23,-982.5 546.23,-989.5"/>
</g>
<!-- BOOT -->
<g id="node38" class="node">
<title>BOOT</title>
<polygon fill="none" stroke="black" points="724.75,-1205 670.75,-1205 670.75,-1169 724.75,-1169 724.75,-1205"/>
<text text-anchor="middle" x="697.75" y="-1181.95" font-family="Times,serif" font-size="14.00">BOOT</text>
</g>
<!-- CORE&#45;&gt;BOOT -->
<g id="edge70" class="edge">
<title>CORE&#45;&gt;BOOT</title>
<path fill="none" stroke="black" d="M614.28,-1187C614.28,-1187 659.27,-1187 659.27,-1187"/>
<polygon fill="black" stroke="black" points="659.27,-1190.5 669.27,-1187 659.27,-1183.5 659.27,-1190.5"/>
</g>
<!-- CLOCK -->
<g id="node5" class="node">
<title>CLOCK</title>
<polygon fill="none" stroke="black" points="106,-1220 44.25,-1220 44.25,-1184 106,-1184 106,-1220"/>
<text text-anchor="middle" x="75.12" y="-1196.95" font-family="Times,serif" font-size="14.00">CLOCK</text>
</g>
<!-- CLOCK&#45;&gt;CORE -->
<g id="edge3" class="edge">
<title>CLOCK&#45;&gt;CORE</title>
<path fill="none" stroke="black" d="M106.37,-1198C106.37,-1198 548.51,-1198 548.51,-1198"/>
<polygon fill="black" stroke="black" points="548.51,-1201.5 558.51,-1198 548.51,-1194.5 548.51,-1201.5"/>
</g>
<!-- SYSTICK -->
<g id="node12" class="node">
<title>SYSTICK</title>
<polygon fill="none" stroke="black" points="261.5,-1144 189.25,-1144 189.25,-1108 261.5,-1108 261.5,-1144"/>
<text text-anchor="middle" x="225.38" y="-1120.95" font-family="Times,serif" font-size="14.00">SYSTICK</text>
</g>
<!-- CLOCK&#45;&gt;SYSTICK -->
<g id="edge11" class="edge">
<title>CLOCK&#45;&gt;SYSTICK</title>
<path fill="none" stroke="black" d="M106.44,-1191C150.7,-1191 226.25,-1191 226.25,-1191 226.25,-1191 226.25,-1155.45 226.25,-1155.45"/>
<polygon fill="black" stroke="black" points="229.75,-1155.45 226.25,-1145.45 222.75,-1155.45 229.75,-1155.45"/>
</g>
<!-- REG -->
<g id="node6" class="node">
<title>REG</title>
<polygon fill="none" stroke="black" points="102.12,-876 48.12,-876 48.12,-840 102.12,-840 102.12,-876"/>
<text text-anchor="middle" x="75.12" y="-852.95" font-family="Times,serif" font-size="14.00">REG</text>
</g>
<!-- NVIC -->
<g id="node7" class="node">
<title>NVIC</title>
<polygon fill="none" stroke="black" points="503.75,-1128 449.75,-1128 449.75,-1092 503.75,-1092 503.75,-1128"/>
<text text-anchor="middle" x="476.75" y="-1104.95" font-family="Times,serif" font-size="14.00">NVIC</text>
</g>
<!-- REG&#45;&gt;NVIC -->
<g id="edge4" class="edge">
<title>REG&#45;&gt;NVIC</title>
<path fill="none" stroke="black" d="M75.25,-876.41C75.25,-933.39 75.25,-1103 75.25,-1103 75.25,-1103 438.47,-1103 438.47,-1103"/>
<polygon fill="black" stroke="black" points="438.47,-1106.5 448.47,-1103 438.47,-1099.5 438.47,-1106.5"/>
</g>
<!-- REG&#45;&gt;SYSTICK -->
<g id="edge9" class="edge">
<title>REG&#45;&gt;SYSTICK</title>
<path fill="none" stroke="black" d="M62.25,-876.28C62.25,-935.46 62.25,-1118 62.25,-1118 62.25,-1118 177.77,-1118 177.77,-1118"/>
<polygon fill="black" stroke="black" points="177.77,-1121.5 187.77,-1118 177.77,-1114.5 177.77,-1121.5"/>
</g>
<!-- CORTEX_M4 -->
<g id="node14" class="node">
<title>CORTEX_M4</title>
<polygon fill="none" stroke="black" points="396,-1098 300.5,-1098 300.5,-1062 396,-1062 396,-1098"/>
<text text-anchor="middle" x="348.25" y="-1074.95" font-family="Times,serif" font-size="14.00">CORTEX_M4</text>
</g>
<!-- REG&#45;&gt;CORTEX_M4 -->
<g id="edge19" class="edge">
<title>REG&#45;&gt;CORTEX_M4</title>
<path fill="none" stroke="black" d="M102.2,-874C165,-874 315.25,-874 315.25,-874 315.25,-874 315.25,-1050.72 315.25,-1050.72"/>
<polygon fill="black" stroke="black" points="311.75,-1050.72 315.25,-1060.72 318.75,-1050.72 311.75,-1050.72"/>
</g>
<!-- FPU -->
<g id="node15" class="node">
<title>FPU</title>
<polygon fill="none" stroke="black" points="252.38,-1090 198.38,-1090 198.38,-1054 252.38,-1054 252.38,-1090"/>
<text text-anchor="middle" x="225.38" y="-1066.95" font-family="Times,serif" font-size="14.00">FPU</text>
</g>
<!-- REG&#45;&gt;FPU -->
<g id="edge16" class="edge">
<title>REG&#45;&gt;FPU</title>
<path fill="none" stroke="black" d="M89.25,-876.25C89.25,-928 89.25,-1072 89.25,-1072 89.25,-1072 187.16,-1072 187.16,-1072"/>
<polygon fill="black" stroke="black" points="187.16,-1075.5 197.16,-1072 187.16,-1068.5 187.16,-1075.5"/>
</g>
<!-- DMA -->
<g id="node17" class="node">
<title>DMA</title>
<polygon fill="none" stroke="black" points="503.75,-500 449.75,-500 449.75,-464 503.75,-464 503.75,-500"/>
<text text-anchor="middle" x="476.75" y="-476.95" font-family="Times,serif" font-size="14.00">DMA</text>
</g>
<!-- REG&#45;&gt;DMA -->
<g id="edge22" class="edge">
<title>REG&#45;&gt;DMA</title>
<path fill="none" stroke="black" d="M102.55,-849.33C163.77,-849.33 306.25,-849.33 306.25,-849.33 306.25,-849.33 306.25,-482 306.25,-482 306.25,-482 438.36,-482 438.36,-482"/>
<polygon fill="black" stroke="black" points="438.36,-485.5 448.36,-482 438.36,-478.5 438.36,-485.5"/>
</g>
<!-- REG&#45;&gt;FLASH -->
<g id="edge26" class="edge">
<title>REG&#45;&gt;FLASH</title>
<path fill="none" stroke="black" d="M102.3,-872C208.17,-872 587.25,-872 587.25,-872 587.25,-872 587.25,-946.88 587.25,-946.88"/>
<polygon fill="black" stroke="black" points="583.75,-946.88 587.25,-956.88 590.75,-946.88 583.75,-946.88"/>
</g>
<!-- GPIO -->
<g id="node22" class="node">
<title>GPIO</title>
<polygon fill="none" stroke="black" points="503.75,-630 449.75,-630 449.75,-594 503.75,-594 503.75,-630"/>
<text text-anchor="middle" x="476.75" y="-606.95" font-family="Times,serif" font-size="14.00">GPIO</text>
</g>
<!-- REG&#45;&gt;GPIO -->
<g id="edge31" class="edge">
<title>REG&#45;&gt;GPIO</title>
<path fill="none" stroke="black" d="M102.35,-858.67C179.03,-858.67 391.25,-858.67 391.25,-858.67 391.25,-858.67 391.25,-618 391.25,-618 391.25,-618 438.7,-618 438.7,-618"/>
<polygon fill="black" stroke="black" points="438.7,-621.5 448.7,-618 438.7,-614.5 438.7,-621.5"/>
</g>
<!-- I2C -->
<g id="node24" class="node">
<title>I2C</title>
<polygon fill="none" stroke="black" points="613.88,-592 559.88,-592 559.88,-556 613.88,-556 613.88,-592"/>
<text text-anchor="middle" x="586.88" y="-568.95" font-family="Times,serif" font-size="14.00">I2C</text>
</g>
<!-- REG&#45;&gt;I2C -->
<g id="edge34" class="edge">
<title>REG&#45;&gt;I2C</title>
<path fill="none" stroke="black" d="M75.25,-839.67C75.25,-775.53 75.25,-565 75.25,-565 75.25,-565 548.73,-565 548.73,-565"/>
<polygon fill="black" stroke="black" points="548.73,-568.5 558.73,-565 548.73,-561.5 548.73,-568.5"/>
</g>
<!-- UART -->
<g id="node27" class="node">
<title>UART</title>
<polygon fill="none" stroke="black" points="613.88,-275 559.88,-275 559.88,-239 613.88,-239 613.88,-275"/>
<text text-anchor="middle" x="586.88" y="-251.95" font-family="Times,serif" font-size="14.00">UART</text>
</g>
<!-- REG&#45;&gt;UART -->
<g id="edge43" class="edge">
<title>REG&#45;&gt;UART</title>
<path fill="none" stroke="darkorange" d="M102.53,-870C198.45,-870 513.25,-870 513.25,-870 513.25,-870 513.25,-261.8 513.25,-261.8 513.25,-261.8 548.46,-261.8 548.46,-261.8"/>
<polygon fill="darkorange" stroke="darkorange" points="548.46,-265.3 558.46,-261.8 548.46,-258.3 548.46,-265.3"/>
</g>
<!-- ARM -->
<g id="node8" class="node">
<title>ARM</title>
<polygon fill="none" stroke="black" points="613.88,-1128 559.88,-1128 559.88,-1092 613.88,-1092 613.88,-1128"/>
<text text-anchor="middle" x="586.88" y="-1104.95" font-family="Times,serif" font-size="14.00">ARM</text>
</g>
<!-- NVIC&#45;&gt;ARM -->
<g id="edge5" class="edge">
<title>NVIC&#45;&gt;ARM</title>
<path fill="none" stroke="black" d="M503.97,-1116C503.97,-1116 548.58,-1116 548.58,-1116"/>
<polygon fill="black" stroke="black" points="548.58,-1119.5 558.58,-1116 548.58,-1112.5 548.58,-1119.5"/>
</g>
<!-- NVIC&#45;&gt;SYSTICK -->
<g id="edge10" class="edge">
<title>NVIC&#45;&gt;SYSTICK</title>
<path fill="none" stroke="black" d="M449.37,-1121.33C449.37,-1121.33 272.61,-1121.33 272.61,-1121.33"/>
<polygon fill="black" stroke="black" points="272.61,-1117.83 262.61,-1121.33 272.61,-1124.83 272.61,-1117.83"/>
</g>
<!-- NVIC&#45;&gt;CORTEX_M4 -->
<g id="edge20" class="edge">
<title>NVIC&#45;&gt;CORTEX_M4</title>
<path fill="none" stroke="black" d="M461.25,-1091.79C461.25,-1086.45 461.25,-1082 461.25,-1082 461.25,-1082 407.5,-1082 407.5,-1082"/>
<polygon fill="black" stroke="black" points="407.5,-1078.5 397.5,-1082 407.5,-1085.5 407.5,-1078.5"/>
</g>
<!-- NVIC&#45;&gt;FLASH -->
<g id="edge30" class="edge">
<title>NVIC&#45;&gt;FLASH</title>
<path fill="none" stroke="black" d="M482.25,-1091.66C482.25,-1056.27 482.25,-982 482.25,-982 482.25,-982 546.17,-982 546.17,-982"/>
<polygon fill="black" stroke="black" points="546.17,-985.5 556.17,-982 546.17,-978.5 546.17,-985.5"/>
</g>
<!-- NVIC&#45;&gt;I2C -->
<g id="edge36" class="edge">
<title>NVIC&#45;&gt;I2C</title>
<path fill="none" stroke="black" d="M504.06,-1104C519.7,-1104 536.25,-1104 536.25,-1104 536.25,-1104 536.25,-583 536.25,-583 536.25,-583 548.49,-583 548.49,-583"/>
<polygon fill="black" stroke="black" points="548.49,-586.5 558.49,-583 548.49,-579.5 548.49,-586.5"/>
</g>
<!-- MICROCONTROLLER -->
<g id="node9" class="node">
<title>MICROCONTROLLER</title>
<polygon fill="none" stroke="black" points="150.25,-1159 0,-1159 0,-1123 150.25,-1123 150.25,-1159"/>
<text text-anchor="middle" x="75.12" y="-1135.95" font-family="Times,serif" font-size="14.00">MICROCONTROLLER</text>
</g>
<!-- MICROCONTROLLER&#45;&gt;NVIC -->
<g id="edge6" class="edge">
<title>MICROCONTROLLER&#45;&gt;NVIC</title>
<path fill="none" stroke="black" d="M135.25,-1122.83C135.25,-1114.1 135.25,-1105.5 135.25,-1105.5 135.25,-1105.5 438.38,-1105.5 438.38,-1105.5"/>
<polygon fill="black" stroke="black" points="438.38,-1109 448.38,-1105.5 438.38,-1102 438.38,-1109"/>
</g>
<!-- MICROCONTROLLER&#45;&gt;SYSTICK -->
<g id="edge13" class="edge">
<title>MICROCONTROLLER&#45;&gt;SYSTICK</title>
<path fill="none" stroke="black" d="M150.69,-1133.5C150.69,-1133.5 177.87,-1133.5 177.87,-1133.5"/>
<polygon fill="black" stroke="black" points="177.87,-1137 187.87,-1133.5 177.87,-1130 177.87,-1137"/>
</g>
<!-- INTERRUPT -->
<g id="node10" class="node">
<title>INTERRUPT</title>
<polygon fill="none" stroke="black" points="120.25,-538 30,-538 30,-502 120.25,-502 120.25,-538"/>
<text text-anchor="middle" x="75.12" y="-514.95" font-family="Times,serif" font-size="14.00">INTERRUPT</text>
</g>
<!-- INTERRUPT&#45;&gt;NVIC -->
<g id="edge7" class="edge">
<title>INTERRUPT&#45;&gt;NVIC</title>
<path fill="none" stroke="black" d="M114.25,-538.33C114.25,-637.01 114.25,-1100.5 114.25,-1100.5 114.25,-1100.5 438.5,-1100.5 438.5,-1100.5"/>
<polygon fill="black" stroke="black" points="438.5,-1104 448.5,-1100.5 438.5,-1097 438.5,-1104"/>
</g>
<!-- INTERRUPT&#45;&gt;SYSTICK -->
<g id="edge12" class="edge">
<title>INTERRUPT&#45;&gt;SYSTICK</title>
<path fill="none" stroke="black" d="M108.25,-538.4C108.25,-638.49 108.25,-1113 108.25,-1113 108.25,-1113 177.96,-1113 177.96,-1113"/>
<polygon fill="black" stroke="black" points="177.96,-1116.5 187.96,-1113 177.96,-1109.5 177.96,-1116.5"/>
</g>
<!-- INTERRUPT&#45;&gt;DMA -->
<g id="edge24" class="edge">
<title>INTERRUPT&#45;&gt;DMA</title>
<path fill="none" stroke="blue" d="M114.25,-501.69C114.25,-488.5 114.25,-473 114.25,-473 114.25,-473 438.5,-473 438.5,-473"/>
<polygon fill="blue" stroke="blue" points="438.5,-476.5 448.5,-473 438.5,-469.5 438.5,-476.5"/>
</g>
<!-- INTERRUPT&#45;&gt;UART -->
<g id="edge44" class="edge">
<title>INTERRUPT&#45;&gt;UART</title>
<path fill="none" stroke="blue" d="M120.46,-520C231.91,-520 510.25,-520 510.25,-520 510.25,-520 510.25,-248.6 510.25,-248.6 510.25,-248.6 548.64,-248.6 548.64,-248.6"/>
<polygon fill="blue" stroke="blue" points="548.64,-252.1 558.64,-248.6 548.64,-245.1 548.64,-252.1"/>
</g>
<!-- FIFO -->
<g id="node28" class="node">
<title>FIFO</title>
<polygon fill="none" stroke="black" points="503.75,-78 449.75,-78 449.75,-42 503.75,-42 503.75,-78"/>
<text text-anchor="middle" x="476.75" y="-54.95" font-family="Times,serif" font-size="14.00">FIFO</text>
</g>
<!-- INTERRUPT&#45;&gt;FIFO -->
<g id="edge48" class="edge">
<title>INTERRUPT&#45;&gt;FIFO</title>
<path fill="none" stroke="black" d="M108.25,-501.73C108.25,-415.58 108.25,-54 108.25,-54 108.25,-54 438.35,-54 438.35,-54"/>
<polygon fill="black" stroke="black" points="438.35,-57.5 448.35,-54 438.35,-50.5 438.35,-57.5"/>
</g>
<!-- CMSIS -->
<g id="node11" class="node">
<title>CMSIS</title>
<polygon fill="none" stroke="black" points="376.88,-1044 319.62,-1044 319.62,-1008 376.88,-1008 376.88,-1044"/>
<text text-anchor="middle" x="348.25" y="-1020.95" font-family="Times,serif" font-size="14.00">CMSIS</text>
</g>
<!-- CMSIS&#45;&gt;NVIC -->
<g id="edge8" class="edge">
<title>CMSIS&#45;&gt;NVIC</title>
<path fill="none" stroke="black" d="M377.32,-1040C413.97,-1040 472.25,-1040 472.25,-1040 472.25,-1040 472.25,-1080.61 472.25,-1080.61"/>
<polygon fill="black" stroke="black" points="468.75,-1080.61 472.25,-1090.61 475.75,-1080.61 468.75,-1080.61"/>
</g>
<!-- TIME -->
<g id="node13" class="node">
<title>TIME</title>
<polygon fill="none" stroke="black" points="375.25,-722 321.25,-722 321.25,-686 375.25,-686 375.25,-722"/>
<text text-anchor="middle" x="348.25" y="-698.95" font-family="Times,serif" font-size="14.00">TIME</text>
</g>
<!-- SYSTICK&#45;&gt;TIME -->
<g id="edge14" class="edge">
<title>SYSTICK&#45;&gt;TIME</title>
<path fill="none" stroke="black" d="M261.7,-1114.67C273.33,-1114.67 283.25,-1114.67 283.25,-1114.67 283.25,-1114.67 283.25,-710 283.25,-710 283.25,-710 310.06,-710 310.06,-710"/>
<polygon fill="black" stroke="black" points="310.06,-713.5 320.06,-710 310.06,-706.5 310.06,-713.5"/>
</g>
<!-- SYSTICK&#45;&gt;CORTEX_M4 -->
<g id="edge21" class="edge">
<title>SYSTICK&#45;&gt;CORTEX_M4</title>
<path fill="none" stroke="black" d="M226.25,-1107.76C226.25,-1100.57 226.25,-1094 226.25,-1094 226.25,-1094 289.03,-1094 289.03,-1094"/>
<polygon fill="black" stroke="black" points="289.03,-1097.5 299.03,-1094 289.03,-1090.5 289.03,-1097.5"/>
</g>
<!-- TIME&#45;&gt;DMA -->
<g id="edge23" class="edge">
<title>TIME&#45;&gt;DMA</title>
<path fill="none" stroke="black" d="M375.34,-689C381.99,-689 387.25,-689 387.25,-689 387.25,-689 387.25,-491 387.25,-491 387.25,-491 438.41,-491 438.41,-491"/>
<polygon fill="black" stroke="black" points="438.41,-494.5 448.41,-491 438.41,-487.5 438.41,-494.5"/>
</g>
<!-- TIME&#45;&gt;GPIO -->
<g id="edge33" class="edge">
<title>TIME&#45;&gt;GPIO</title>
<path fill="none" stroke="black" d="M375.48,-692C410.88,-692 468.25,-692 468.25,-692 468.25,-692 468.25,-641.15 468.25,-641.15"/>
<polygon fill="black" stroke="black" points="471.75,-641.15 468.25,-631.15 464.75,-641.15 471.75,-641.15"/>
</g>
<!-- DDS -->
<g id="node26" class="node">
<title>DDS</title>
<polygon fill="none" stroke="black" points="724.75,-822 670.75,-822 670.75,-786 724.75,-786 724.75,-822"/>
<text text-anchor="middle" x="697.75" y="-798.95" font-family="Times,serif" font-size="14.00">DDS</text>
</g>
<!-- TIME&#45;&gt;DDS -->
<g id="edge89" class="edge">
<title>TIME&#45;&gt;DDS</title>
<path fill="none" stroke="black" d="M375.71,-716C458.22,-716 698.25,-716 698.25,-716 698.25,-716 698.25,-774.77 698.25,-774.77"/>
<polygon fill="black" stroke="black" points="694.75,-774.77 698.25,-784.77 701.75,-774.77 694.75,-774.77"/>
</g>
<!-- TIME&#45;&gt;UART -->
<g id="edge39" class="edge">
<title>TIME&#45;&gt;UART</title>
<path fill="none" stroke="black" d="M375.74,-698C426.37,-698 529.25,-698 529.25,-698 529.25,-698 529.25,-268.4 529.25,-268.4 529.25,-268.4 548.41,-268.4 548.41,-268.4"/>
<polygon fill="black" stroke="black" points="548.41,-271.9 558.41,-268.4 548.41,-264.9 548.41,-271.9"/>
</g>
<!-- LOG -->
<g id="node36" class="node">
<title>LOG</title>
<polygon fill="none" stroke="black" points="976.5,-122 922.5,-122 922.5,-86 976.5,-86 976.5,-122"/>
<text text-anchor="middle" x="949.5" y="-98.95" font-family="Times,serif" font-size="14.00">LOG</text>
</g>
<!-- TIME&#45;&gt;LOG -->
<g id="edge62" class="edge">
<title>TIME&#45;&gt;LOG</title>
<path fill="none" stroke="black" d="M375.53,-710C482.73,-710 869.25,-710 869.25,-710 869.25,-710 869.25,-119.75 869.25,-119.75 869.25,-119.75 911.33,-119.75 911.33,-119.75"/>
<polygon fill="black" stroke="black" points="911.33,-123.25 921.33,-119.75 911.33,-116.25 911.33,-123.25"/>
</g>
<!-- LED -->
<g id="node39" class="node">
<title>LED</title>
<polygon fill="none" stroke="black" points="613.88,-684 559.88,-684 559.88,-648 613.88,-648 613.88,-684"/>
<text text-anchor="middle" x="586.88" y="-660.95" font-family="Times,serif" font-size="14.00">LED</text>
</g>
<!-- TIME&#45;&gt;LED -->
<g id="edge73" class="edge">
<title>TIME&#45;&gt;LED</title>
<path fill="none" stroke="black" d="M375.67,-701C438.44,-701 587.25,-701 587.25,-701 587.25,-701 587.25,-695.32 587.25,-695.32"/>
<polygon fill="black" stroke="black" points="590.75,-695.32 587.25,-685.32 583.75,-695.32 590.75,-695.32"/>
</g>
<!-- LED_MONO -->
<g id="node40" class="node">
<title>LED_MONO</title>
<polygon fill="none" stroke="black" points="743.25,-707 652.25,-707 652.25,-671 743.25,-671 743.25,-707"/>
<text text-anchor="middle" x="697.75" y="-683.95" font-family="Times,serif" font-size="14.00">LED_MONO</text>
</g>
<!-- TIME&#45;&gt;LED_MONO -->
<g id="edge75" class="edge">
<title>TIME&#45;&gt;LED_MONO</title>
<path fill="none" stroke="black" d="M375.67,-704C375.67,-704 640.81,-704 640.81,-704"/>
<polygon fill="black" stroke="black" points="640.81,-707.5 650.81,-704 640.81,-700.5 640.81,-707.5"/>
</g>
<!-- SCHEDULER -->
<g id="node42" class="node">
<title>SCHEDULER</title>
<polygon fill="none" stroke="black" points="850,-1036 780,-1036 780,-1000 850,-1000 850,-1036"/>
<text text-anchor="middle" x="815" y="-1012.95" font-family="Times,serif" font-size="14.00">Scheduler</text>
</g>
<!-- TIME&#45;&gt;SCHEDULER -->
<g id="edge80" class="edge">
<title>TIME&#45;&gt;SCHEDULER</title>
<path fill="none" stroke="red" d="M375.67,-713C477.24,-713 826.25,-713 826.25,-713 826.25,-713 826.25,-988.83 826.25,-988.83"/>
<polygon fill="red" stroke="red" points="822.75,-988.83 826.25,-998.83 829.75,-988.83 822.75,-988.83"/>
</g>
<!-- LIMITER -->
<g id="node44" class="node">
<title>LIMITER</title>
<polygon fill="none" stroke="black" points="733.5,-1036 662,-1036 662,-1000 733.5,-1000 733.5,-1036"/>
<text text-anchor="middle" x="697.75" y="-1012.95" font-family="Times,serif" font-size="14.00">LIMITER</text>
</g>
<!-- TIME&#45;&gt;LIMITER -->
<g id="edge85" class="edge">
<title>TIME&#45;&gt;LIMITER</title>
<path fill="none" stroke="black" d="M375.53,-719C452.92,-719 668.25,-719 668.25,-719 668.25,-719 668.25,-988.75 668.25,-988.75"/>
<polygon fill="black" stroke="black" points="664.75,-988.75 668.25,-998.75 671.75,-988.75 664.75,-988.75"/>
</g>
<!-- BUTTON -->
<g id="node51" class="node">
<title>BUTTON</title>
<polygon fill="none" stroke="black" points="733.12,-492 662.38,-492 662.38,-456 733.12,-456 733.12,-492"/>
<text text-anchor="middle" x="697.75" y="-468.95" font-family="Times,serif" font-size="14.00">BUTTON</text>
</g>
<!-- TIME&#45;&gt;BUTTON -->
<g id="edge98" class="edge">
<title>TIME&#45;&gt;BUTTON</title>
<path fill="none" stroke="red" d="M375.62,-695C423.22,-695 516.25,-695 516.25,-695 516.25,-695 516.25,-480.8 516.25,-480.8 516.25,-480.8 650.89,-480.8 650.89,-480.8"/>
<polygon fill="red" stroke="red" points="650.89,-484.3 660.89,-480.8 650.89,-477.3 650.89,-484.3"/>
</g>
<!-- CORTEX_M4&#45;&gt;NVIC -->
<g id="edge15" class="edge">
<title>CORTEX_M4&#45;&gt;NVIC</title>
<path fill="none" stroke="black" d="M396.13,-1072C438.37,-1072 493.25,-1072 493.25,-1072 493.25,-1072 493.25,-1080.89 493.25,-1080.89"/>
<polygon fill="black" stroke="black" points="489.75,-1080.89 493.25,-1090.89 496.75,-1080.89 489.75,-1080.89"/>
</g>
<!-- FPU&#45;&gt;CORTEX_M4 -->
<g id="edge17" class="edge">
<title>FPU&#45;&gt;CORTEX_M4</title>
<path fill="none" stroke="black" d="M252.64,-1076C252.64,-1076 289.28,-1076 289.28,-1076"/>
<polygon fill="black" stroke="black" points="289.28,-1079.5 299.28,-1076 289.28,-1072.5 289.28,-1079.5"/>
</g>
<!-- THUMB -->
<g id="node16" class="node">
<title>THUMB</title>
<polygon fill="none" stroke="black" points="258.12,-998 192.62,-998 192.62,-962 258.12,-962 258.12,-998"/>
<text text-anchor="middle" x="225.38" y="-974.95" font-family="Times,serif" font-size="14.00">THUMB</text>
</g>
<!-- THUMB&#45;&gt;CORTEX_M4 -->
<g id="edge18" class="edge">
<title>THUMB&#45;&gt;CORTEX_M4</title>
<path fill="none" stroke="black" d="M258.43,-974C282.26,-974 310.25,-974 310.25,-974 310.25,-974 310.25,-1050.54 310.25,-1050.54"/>
<polygon fill="black" stroke="black" points="306.75,-1050.54 310.25,-1060.54 313.75,-1050.54 306.75,-1050.54"/>
</g>
<!-- I2S -->
<g id="node25" class="node">
<title>I2S</title>
<polygon fill="none" stroke="black" points="613.88,-538 559.88,-538 559.88,-502 613.88,-502 613.88,-538"/>
<text text-anchor="middle" x="586.88" y="-514.95" font-family="Times,serif" font-size="14.00">I2S</text>
</g>
<!-- DMA&#45;&gt;I2S -->
<g id="edge38" class="edge">
<title>DMA&#45;&gt;I2S</title>
<path fill="none" stroke="black" d="M504.17,-496C539.45,-496 596.25,-496 596.25,-496 596.25,-496 596.25,-496.56 596.25,-496.56"/>
<polygon fill="black" stroke="black" points="592.75,-490.57 596.25,-500.57 599.75,-490.57 592.75,-490.57"/>
</g>
<!-- DMA&#45;&gt;UART -->
<g id="edge41" class="edge">
<title>DMA&#45;&gt;UART</title>
<path fill="none" stroke="green" d="M504.22,-469.6C534.28,-469.6 578.25,-469.6 578.25,-469.6 578.25,-469.6 578.25,-286.49 578.25,-286.49"/>
<polygon fill="green" stroke="green" points="581.75,-286.49 578.25,-276.49 574.75,-286.49 581.75,-286.49"/>
</g>
<!-- ARRAY -->
<g id="node18" class="node">
<title>ARRAY</title>
<polygon fill="none" stroke="black" points="508,-868 445.5,-868 445.5,-832 508,-832 508,-868"/>
<text text-anchor="middle" x="476.75" y="-844.95" font-family="Times,serif" font-size="14.00">ARRAY</text>
</g>
<!-- ARRAY&#45;&gt;FLASH -->
<g id="edge25" class="edge">
<title>ARRAY&#45;&gt;FLASH</title>
<path fill="none" stroke="black" d="M508.44,-850C525.57,-850 543.25,-850 543.25,-850 543.25,-850 543.25,-970 543.25,-970 543.25,-970 546.05,-970 546.05,-970"/>
<polygon fill="black" stroke="black" points="546.05,-973.5 556.05,-970 546.05,-966.5 546.05,-973.5"/>
</g>
<!-- ARRAY&#45;&gt;DDS -->
<g id="edge87" class="edge">
<title>ARRAY&#45;&gt;DDS</title>
<path fill="none" stroke="black" d="M477.25,-831.77C477.25,-823.99 477.25,-816.67 477.25,-816.67 477.25,-816.67 659.27,-816.67 659.27,-816.67"/>
<polygon fill="black" stroke="black" points="659.27,-820.17 669.27,-816.67 659.27,-813.17 659.27,-820.17"/>
</g>
<!-- FLASH&#45;&gt;DEBUGGER -->
<g id="edge71" class="edge">
<title>FLASH&#45;&gt;DEBUGGER</title>
<path fill="none" stroke="black" d="M557.42,-990C536.19,-990 511.25,-990 511.25,-990 511.25,-990 511.25,-1134.71 511.25,-1134.71"/>
<polygon fill="black" stroke="black" points="507.75,-1134.71 511.25,-1144.71 514.75,-1134.71 507.75,-1134.71"/>
</g>
<!-- FLASH&#45;&gt;SCHEDULER -->
<g id="edge81" class="edge">
<title>FLASH&#45;&gt;SCHEDULER</title>
<path fill="none" stroke="blue" d="M616.64,-976C676.18,-976 804.25,-976 804.25,-976 804.25,-976 804.25,-988.94 804.25,-988.94"/>
<polygon fill="blue" stroke="blue" points="800.75,-988.94 804.25,-998.94 807.75,-988.94 800.75,-988.94"/>
</g>
<!-- FLASH&#45;&gt;LIMITER -->
<g id="edge86" class="edge">
<title>FLASH&#45;&gt;LIMITER</title>
<path fill="none" stroke="black" d="M616.51,-985C638.7,-985 665.25,-985 665.25,-985 665.25,-985 665.25,-988.57 665.25,-988.57"/>
<polygon fill="black" stroke="black" points="661.75,-988.57 665.25,-998.57 668.75,-988.57 661.75,-988.57"/>
</g>
<!-- FLASH&#45;&gt;BUTTON -->
<g id="edge97" class="edge">
<title>FLASH&#45;&gt;BUTTON</title>
<path fill="none" stroke="green" d="M616.5,-967C623.14,-967 628.25,-967 628.25,-967 628.25,-967 628.25,-486.4 628.25,-486.4 628.25,-486.4 651.19,-486.4 651.19,-486.4"/>
<polygon fill="green" stroke="green" points="651.19,-489.9 661.19,-486.4 651.19,-482.9 651.19,-489.9"/>
</g>
<!-- INTERVAL -->
<g id="node20" class="node">
<title>INTERVAL</title>
<polygon fill="none" stroke="black" points="517.38,-960 436.12,-960 436.12,-924 517.38,-924 517.38,-960"/>
<text text-anchor="middle" x="476.75" y="-936.95" font-family="Times,serif" font-size="14.00">INTERVAL</text>
</g>
<!-- INTERVAL&#45;&gt;FLASH -->
<g id="edge27" class="edge">
<title>INTERVAL&#45;&gt;FLASH</title>
<path fill="none" stroke="black" d="M514.25,-960.42C514.25,-969.28 514.25,-978 514.25,-978 514.25,-978 546.34,-978 546.34,-978"/>
<polygon fill="black" stroke="black" points="546.34,-981.5 556.34,-978 546.34,-974.5 546.34,-981.5"/>
</g>
<!-- FLOAT -->
<g id="node21" class="node">
<title>FLOAT</title>
<polygon fill="none" stroke="black" points="505.75,-814 447.75,-814 447.75,-778 505.75,-778 505.75,-814"/>
<text text-anchor="middle" x="476.75" y="-790.95" font-family="Times,serif" font-size="14.00">FLOAT</text>
</g>
<!-- FLOAT&#45;&gt;FLASH -->
<g id="edge29" class="edge">
<title>FLOAT&#45;&gt;FLASH</title>
<path fill="none" stroke="black" d="M506.19,-800C527.02,-800 551.25,-800 551.25,-800 551.25,-800 551.25,-966 551.25,-966 551.25,-966 551.84,-966 551.84,-966"/>
<polygon fill="black" stroke="black" points="546.13,-969.5 556.13,-966 546.13,-962.5 546.13,-969.5"/>
</g>
<!-- MATH -->
<g id="node41" class="node">
<title>MATH</title>
<polygon fill="none" stroke="black" points="614.38,-776 559.38,-776 559.38,-740 614.38,-740 614.38,-776"/>
<text text-anchor="middle" x="586.88" y="-752.95" font-family="Times,serif" font-size="14.00">MATH</text>
</g>
<!-- FLOAT&#45;&gt;MATH -->
<g id="edge93" class="edge">
<title>FLOAT&#45;&gt;MATH</title>
<path fill="none" stroke="black" d="M506.07,-782C538.81,-782 587.25,-782 587.25,-782 587.25,-782 587.25,-781.44 587.25,-781.44"/>
<polygon fill="black" stroke="black" points="590.75,-787.43 587.25,-777.43 583.75,-787.43 590.75,-787.43"/>
</g>
<!-- GPIO&#45;&gt;I2C -->
<g id="edge35" class="edge">
<title>GPIO&#45;&gt;I2C</title>
<path fill="none" stroke="black" d="M477.25,-593.89C477.25,-584.1 477.25,-574 477.25,-574 477.25,-574 548.49,-574 548.49,-574"/>
<polygon fill="black" stroke="black" points="548.49,-577.5 558.49,-574 548.49,-570.5 548.49,-577.5"/>
</g>
<!-- GPIO&#45;&gt;UART -->
<g id="edge42" class="edge">
<title>GPIO&#45;&gt;UART</title>
<path fill="none" stroke="fuchsia" d="M503.93,-603C508.21,-603 511.25,-603 511.25,-603 511.25,-603 511.25,-255.2 511.25,-255.2 511.25,-255.2 548.57,-255.2 548.57,-255.2"/>
<polygon fill="fuchsia" stroke="fuchsia" points="548.57,-258.7 558.57,-255.2 548.57,-251.7 548.57,-258.7"/>
</g>
<!-- GPIO&#45;&gt;LED -->
<g id="edge72" class="edge">
<title>GPIO&#45;&gt;LED</title>
<path fill="none" stroke="black" d="M486.25,-630.28C486.25,-645.95 486.25,-666 486.25,-666 486.25,-666 548.38,-666 548.38,-666"/>
<polygon fill="black" stroke="black" points="548.38,-669.5 558.38,-666 548.38,-662.5 548.38,-669.5"/>
</g>
<!-- GPIO&#45;&gt;LED_MONO -->
<g id="edge74" class="edge">
<title>GPIO&#45;&gt;LED_MONO</title>
<path fill="none" stroke="black" d="M503.92,-621C554.55,-621 658.25,-621 658.25,-621 658.25,-621 658.25,-659.78 658.25,-659.78"/>
<polygon fill="black" stroke="black" points="654.75,-659.78 658.25,-669.78 661.75,-659.78 654.75,-659.78"/>
</g>
<!-- GPIO&#45;&gt;BUTTON -->
<g id="edge96" class="edge">
<title>GPIO&#45;&gt;BUTTON</title>
<path fill="none" stroke="blue" d="M504,-612C509.82,-612 514.25,-612 514.25,-612 514.25,-612 514.25,-475.2 514.25,-475.2 514.25,-475.2 650.93,-475.2 650.93,-475.2"/>
<polygon fill="blue" stroke="blue" points="650.93,-478.7 660.93,-475.2 650.93,-471.7 650.93,-478.7"/>
</g>
<!-- MCU -->
<g id="node23" class="node">
<title>MCU</title>
<polygon fill="none" stroke="black" points="375.25,-630 321.25,-630 321.25,-594 375.25,-594 375.25,-630"/>
<text text-anchor="middle" x="348.25" y="-606.95" font-family="Times,serif" font-size="14.00">MCU</text>
</g>
<!-- MCU&#45;&gt;GPIO -->
<g id="edge32" class="edge">
<title>MCU&#45;&gt;GPIO</title>
<path fill="none" stroke="black" d="M375.5,-606C375.5,-606 438.54,-606 438.54,-606"/>
<polygon fill="black" stroke="black" points="438.54,-609.5 448.54,-606 438.54,-602.5 438.54,-609.5"/>
</g>
<!-- WM8731 -->
<g id="node50" class="node">
<title>WM8731</title>
<polygon fill="none" stroke="black" points="732.38,-569 663.12,-569 663.12,-533 732.38,-533 732.38,-569"/>
<text text-anchor="middle" x="697.75" y="-545.95" font-family="Times,serif" font-size="14.00">WM8731</text>
</g>
<!-- I2C&#45;&gt;WM8731 -->
<g id="edge94" class="edge">
<title>I2C&#45;&gt;WM8731</title>
<path fill="none" stroke="black" d="M614.28,-562.5C614.28,-562.5 651.69,-562.5 651.69,-562.5"/>
<polygon fill="black" stroke="black" points="651.69,-566 661.69,-562.5 651.69,-559 651.69,-566"/>
</g>
<!-- I2S&#45;&gt;DDS -->
<g id="edge37" class="edge">
<title>I2S&#45;&gt;DDS</title>
<path fill="none" stroke="black" d="M614.19,-517.5C627.32,-517.5 640.25,-517.5 640.25,-517.5 640.25,-517.5 640.25,-793 640.25,-793 640.25,-793 659.35,-793 659.35,-793"/>
<polygon fill="black" stroke="black" points="659.35,-796.5 669.35,-793 659.35,-789.5 659.35,-796.5"/>
</g>
<!-- I2S&#45;&gt;WM8731 -->
<g id="edge95" class="edge">
<title>I2S&#45;&gt;WM8731</title>
<path fill="none" stroke="black" d="M587.25,-538.46C587.25,-543.2 587.25,-547 587.25,-547 587.25,-547 651.79,-547 651.79,-547"/>
<polygon fill="black" stroke="black" points="651.79,-550.5 661.79,-547 651.79,-543.5 651.79,-550.5"/>
</g>
<!-- STRING_READER -->
<g id="node32" class="node">
<title>STRING_READER</title>
<polygon fill="none" stroke="black" points="1012.25,-255 886.75,-255 886.75,-219 1012.25,-219 1012.25,-255"/>
<text text-anchor="middle" x="949.5" y="-231.95" font-family="Times,serif" font-size="14.00">STRING_READER</text>
</g>
<!-- UART&#45;&gt;STRING_READER -->
<g id="edge52" class="edge">
<title>UART&#45;&gt;STRING_READER</title>
<path fill="none" stroke="chartreuse" d="M614.13,-247C614.13,-247 875.3,-247 875.3,-247"/>
<polygon fill="chartreuse" stroke="chartreuse" points="875.3,-250.5 885.3,-247 875.3,-243.5 875.3,-250.5"/>
</g>
<!-- STREAM -->
<g id="node33" class="node">
<title>STREAM</title>
<polygon fill="none" stroke="black" points="850.75,-187 779.25,-187 779.25,-151 850.75,-151 850.75,-187"/>
<text text-anchor="middle" x="815" y="-163.95" font-family="Times,serif" font-size="14.00">STREAM</text>
</g>
<!-- UART&#45;&gt;STREAM -->
<g id="edge51" class="edge">
<title>UART&#45;&gt;STREAM</title>
<path fill="none" stroke="chartreuse" d="M605.25,-238.79C605.25,-215.6 605.25,-178.5 605.25,-178.5 605.25,-178.5 767.94,-178.5 767.94,-178.5"/>
<polygon fill="chartreuse" stroke="chartreuse" points="767.94,-182 777.94,-178.5 767.94,-175 767.94,-182"/>
</g>
<!-- WRITER -->
<g id="node34" class="node">
<title>WRITER</title>
<polygon fill="none" stroke="black" points="732,-149 663.5,-149 663.5,-113 732,-113 732,-149"/>
<text text-anchor="middle" x="697.75" y="-125.95" font-family="Times,serif" font-size="14.00">WRITER</text>
</g>
<!-- UART&#45;&gt;WRITER -->
<g id="edge69" class="edge">
<title>UART&#45;&gt;WRITER</title>
<path fill="none" stroke="black" d="M596.25,-238.7C596.25,-206.13 596.25,-141.5 596.25,-141.5 596.25,-141.5 652.1,-141.5 652.1,-141.5"/>
<polygon fill="black" stroke="black" points="652.1,-145 662.1,-141.5 652.1,-138 652.1,-145"/>
</g>
<!-- UART&#45;&gt;LOG -->
<g id="edge65" class="edge">
<title>UART&#45;&gt;LOG</title>
<path fill="none" stroke="black" d="M587.25,-238.54C587.25,-197.85 587.25,-104 587.25,-104 587.25,-104 911.27,-104 911.27,-104"/>
<polygon fill="black" stroke="black" points="911.27,-107.5 921.27,-104 911.27,-100.5 911.27,-107.5"/>
</g>
<!-- FIFO&#45;&gt;UART -->
<g id="edge40" class="edge">
<title>FIFO&#45;&gt;UART</title>
<path fill="none" stroke="black" d="M504.22,-66C534.28,-66 578.25,-66 578.25,-66 578.25,-66 578.25,-227.69 578.25,-227.69"/>
<polygon fill="black" stroke="black" points="574.75,-227.69 578.25,-237.69 581.75,-227.69 574.75,-227.69"/>
</g>
<!-- FIFO&#45;&gt;STRING_READER -->
<g id="edge53" class="edge">
<title>FIFO&#45;&gt;STRING_READER</title>
<path fill="none" stroke="aqua" d="M503.93,-54C599.05,-54 911.25,-54 911.25,-54 911.25,-54 911.25,-207.78 911.25,-207.78"/>
<polygon fill="aqua" stroke="aqua" points="907.75,-207.78 911.25,-217.78 914.75,-207.78 907.75,-207.78"/>
</g>
<!-- FIFO&#45;&gt;WRITER -->
<g id="edge68" class="edge">
<title>FIFO&#45;&gt;WRITER</title>
<path fill="none" stroke="black" d="M468.25,-78.37C468.25,-97.12 468.25,-123.5 468.25,-123.5 468.25,-123.5 652.39,-123.5 652.39,-123.5"/>
<polygon fill="black" stroke="black" points="652.39,-127 662.39,-123.5 652.39,-120 652.39,-127"/>
</g>
<!-- FIFO&#45;&gt;LOG -->
<g id="edge64" class="edge">
<title>FIFO&#45;&gt;LOG</title>
<path fill="none" stroke="black" d="M486.25,-78.32C486.25,-86.79 486.25,-95 486.25,-95 486.25,-95 911.25,-95 911.25,-95"/>
<polygon fill="black" stroke="black" points="911.25,-98.5 921.25,-95 911.25,-91.5 911.25,-98.5"/>
</g>
<!-- UART2 -->
<g id="node29" class="node">
<title>UART2</title>
<polygon fill="none" stroke="black" points="506.12,-170 447.38,-170 447.38,-134 506.12,-134 506.12,-170"/>
<text text-anchor="middle" x="476.75" y="-146.95" font-family="Times,serif" font-size="14.00">UART2</text>
</g>
<!-- UART2&#45;&gt;UART -->
<g id="edge45" class="edge">
<title>UART2&#45;&gt;UART</title>
<path fill="none" stroke="black" d="M506.53,-157.33C533.57,-157.33 569.25,-157.33 569.25,-157.33 569.25,-157.33 569.25,-227.72 569.25,-227.72"/>
<polygon fill="black" stroke="black" points="565.75,-227.72 569.25,-237.72 572.75,-227.72 565.75,-227.72"/>
</g>
<!-- RAM -->
<g id="node30" class="node">
<title>RAM</title>
<polygon fill="none" stroke="black" points="375.25,-332 321.25,-332 321.25,-296 375.25,-296 375.25,-332"/>
<text text-anchor="middle" x="348.25" y="-308.95" font-family="Times,serif" font-size="14.00">RAM</text>
</g>
<!-- RAM&#45;&gt;ARRAY -->
<g id="edge46" class="edge">
<title>RAM&#45;&gt;ARRAY</title>
<path fill="none" stroke="blue" d="M375.69,-323C379.56,-323 382.25,-323 382.25,-323 382.25,-323 382.25,-836 382.25,-836 382.25,-836 434.02,-836 434.02,-836"/>
<polygon fill="blue" stroke="blue" points="434.02,-839.5 444.02,-836 434.02,-832.5 434.02,-839.5"/>
</g>
<!-- RAM&#45;&gt;INTERVAL -->
<g id="edge91" class="edge">
<title>RAM&#45;&gt;INTERVAL</title>
<path fill="none" stroke="black" d="M375.65,-314C403.08,-314 441.25,-314 441.25,-314 441.25,-314 441.25,-912.55 441.25,-912.55"/>
<polygon fill="black" stroke="black" points="437.75,-912.55 441.25,-922.55 444.75,-912.55 437.75,-912.55"/>
</g>
<!-- RAM&#45;&gt;FIFO -->
<g id="edge47" class="edge">
<title>RAM&#45;&gt;FIFO</title>
<path fill="none" stroke="black" d="M343.25,-295.76C343.25,-238.49 343.25,-66 343.25,-66 343.25,-66 438.41,-66 438.41,-66"/>
<polygon fill="black" stroke="black" points="438.41,-69.5 448.41,-66 438.41,-62.5 438.41,-69.5"/>
</g>
<!-- CSV -->
<g id="node37" class="node">
<title>CSV</title>
<polygon fill="none" stroke="black" points="976.5,-309 922.5,-309 922.5,-273 976.5,-273 976.5,-309"/>
<text text-anchor="middle" x="949.5" y="-285.95" font-family="Times,serif" font-size="14.00">CSV</text>
</g>
<!-- RAM&#45;&gt;CSV -->
<g id="edge60" class="edge">
<title>RAM&#45;&gt;CSV</title>
<path fill="none" stroke="black" d="M332.25,-295.54C332.25,-290.8 332.25,-287 332.25,-287 332.25,-287 911.18,-287 911.18,-287"/>
<polygon fill="black" stroke="black" points="911.18,-290.5 921.18,-287 911.18,-283.5 911.18,-290.5"/>
</g>
<!-- CRC8 -->
<g id="node45" class="node">
<title>CRC8</title>
<polygon fill="none" stroke="black" points="503.75,-278 449.75,-278 449.75,-242 503.75,-242 503.75,-278"/>
<text text-anchor="middle" x="476.75" y="-254.95" font-family="Times,serif" font-size="14.00">CRC8</text>
</g>
<!-- RAM&#45;&gt;CRC8 -->
<g id="edge82" class="edge">
<title>RAM&#45;&gt;CRC8</title>
<path fill="none" stroke="black" d="M365.25,-295.72C365.25,-280.05 365.25,-260 365.25,-260 365.25,-260 438.47,-260 438.47,-260"/>
<polygon fill="black" stroke="black" points="438.47,-263.5 448.47,-260 438.47,-256.5 438.47,-263.5"/>
</g>
<!-- CRC16 -->
<g id="node46" class="node">
<title>CRC16</title>
<polygon fill="none" stroke="black" points="505,-224 448.5,-224 448.5,-188 505,-188 505,-224"/>
<text text-anchor="middle" x="476.75" y="-200.95" font-family="Times,serif" font-size="14.00">CRC16</text>
</g>
<!-- RAM&#45;&gt;CRC16 -->
<g id="edge83" class="edge">
<title>RAM&#45;&gt;CRC16</title>
<path fill="none" stroke="black" d="M354.25,-295.68C354.25,-264.87 354.25,-206 354.25,-206 354.25,-206 437.03,-206 437.03,-206"/>
<polygon fill="black" stroke="black" points="437.03,-209.5 447.03,-206 437.03,-202.5 437.03,-209.5"/>
</g>
<!-- CRC32 -->
<g id="node47" class="node">
<title>CRC32</title>
<polygon fill="none" stroke="black" points="505,-332 448.5,-332 448.5,-296 505,-296 505,-332"/>
<text text-anchor="middle" x="476.75" y="-308.95" font-family="Times,serif" font-size="14.00">CRC32</text>
</g>
<!-- RAM&#45;&gt;CRC32 -->
<g id="edge84" class="edge">
<title>RAM&#45;&gt;CRC32</title>
<path fill="none" stroke="black" d="M375.5,-305C375.5,-305 437.2,-305 437.2,-305"/>
<polygon fill="black" stroke="black" points="437.2,-308.5 447.2,-305 437.2,-301.5 437.2,-308.5"/>
</g>
<!-- STRING -->
<g id="node31" class="node">
<title>STRING</title>
<polygon fill="none" stroke="black" points="847.38,-355 782.62,-355 782.62,-319 847.38,-319 847.38,-355"/>
<text text-anchor="middle" x="815" y="-331.95" font-family="Times,serif" font-size="14.00">STRING</text>
</g>
<!-- STRING&#45;&gt;STRING_READER -->
<g id="edge49" class="edge">
<title>STRING&#45;&gt;STRING_READER</title>
<path fill="none" stroke="aqua" d="M847.78,-331C868.45,-331 891.25,-331 891.25,-331 891.25,-331 891.25,-266.12 891.25,-266.12"/>
<polygon fill="aqua" stroke="aqua" points="894.75,-266.12 891.25,-256.12 887.75,-266.12 894.75,-266.12"/>
</g>
<!-- CLI -->
<g id="node35" class="node">
<title>CLI</title>
<polygon fill="none" stroke="black" points="1102.25,-282 1048.25,-282 1048.25,-246 1102.25,-246 1102.25,-282"/>
<text text-anchor="middle" x="1075.25" y="-258.95" font-family="Times,serif" font-size="14.00">CLI</text>
</g>
<!-- STRING&#45;&gt;CLI -->
<g id="edge55" class="edge">
<title>STRING&#45;&gt;CLI</title>
<path fill="none" stroke="aqua" d="M847.7,-343C917.6,-343 1075.25,-343 1075.25,-343 1075.25,-343 1075.25,-293.32 1075.25,-293.32"/>
<polygon fill="aqua" stroke="aqua" points="1078.75,-293.32 1075.25,-283.32 1071.75,-293.32 1078.75,-293.32"/>
</g>
<!-- STRING&#45;&gt;CSV -->
<g id="edge61" class="edge">
<title>STRING&#45;&gt;CSV</title>
<path fill="none" stroke="black" d="M815.25,-318.54C815.25,-310.34 815.25,-302.5 815.25,-302.5 815.25,-302.5 911.01,-302.5 911.01,-302.5"/>
<polygon fill="black" stroke="black" points="911.01,-306 921.01,-302.5 911.01,-299 911.01,-306"/>
</g>
<!-- STRING_READER&#45;&gt;CLI -->
<g id="edge56" class="edge">
<title>STRING_READER&#45;&gt;CLI</title>
<path fill="none" stroke="aqua" d="M1012.74,-250.5C1012.74,-250.5 1036.84,-250.5 1036.84,-250.5"/>
<polygon fill="aqua" stroke="aqua" points="1036.84,-254 1046.84,-250.5 1036.84,-247 1036.84,-254"/>
</g>
<!-- STREAM&#45;&gt;STRING_READER -->
<g id="edge50" class="edge">
<title>STREAM&#45;&gt;STRING_READER</title>
<path fill="none" stroke="black" d="M851.22,-175C874.05,-175 899.25,-175 899.25,-175 899.25,-175 899.25,-207.73 899.25,-207.73"/>
<polygon fill="black" stroke="black" points="895.75,-207.73 899.25,-217.73 902.75,-207.73 895.75,-207.73"/>
</g>
<!-- STREAM&#45;&gt;CLI -->
<g id="edge57" class="edge">
<title>STREAM&#45;&gt;CLI</title>
<path fill="none" stroke="aqua" d="M851.22,-163C919.89,-163 1062.25,-163 1062.25,-163 1062.25,-163 1062.25,-234.94 1062.25,-234.94"/>
<polygon fill="aqua" stroke="aqua" points="1058.75,-234.94 1062.25,-244.94 1065.75,-234.94 1058.75,-234.94"/>
</g>
<!-- STREAM&#45;&gt;LOG -->
<g id="edge63" class="edge">
<title>STREAM&#45;&gt;LOG</title>
<path fill="none" stroke="black" d="M815.25,-150.7C815.25,-135.9 815.25,-117.5 815.25,-117.5 815.25,-117.5 911.01,-117.5 911.01,-117.5"/>
<polygon fill="black" stroke="black" points="911.01,-121 921.01,-117.5 911.01,-114 911.01,-121"/>
</g>
<!-- WRITER&#45;&gt;STREAM -->
<g id="edge67" class="edge">
<title>WRITER&#45;&gt;STREAM</title>
<path fill="none" stroke="black" d="M698.25,-149.24C698.25,-156.73 698.25,-163.67 698.25,-163.67 698.25,-163.67 768.02,-163.67 768.02,-163.67"/>
<polygon fill="black" stroke="black" points="768.02,-167.17 778.02,-163.67 768.02,-160.17 768.02,-167.17"/>
</g>
<!-- WRITER&#45;&gt;CLI -->
<g id="edge54" class="edge">
<title>WRITER&#45;&gt;CLI</title>
<path fill="none" stroke="aqua" d="M732.25,-135.5C825.44,-135.5 1075.25,-135.5 1075.25,-135.5 1075.25,-135.5 1075.25,-234.59 1075.25,-234.59"/>
<polygon fill="aqua" stroke="aqua" points="1071.75,-234.59 1075.25,-244.59 1078.75,-234.59 1071.75,-234.59"/>
</g>
<!-- WRITER&#45;&gt;LOG -->
<g id="edge66" class="edge">
<title>WRITER&#45;&gt;LOG</title>
<path fill="none" stroke="black" d="M732.49,-115.25C732.49,-115.25 911.07,-115.25 911.07,-115.25"/>
<polygon fill="black" stroke="black" points="911.07,-118.75 921.07,-115.25 911.07,-111.75 911.07,-118.75"/>
</g>
<!-- LOG&#45;&gt;CLI -->
<g id="edge58" class="edge">
<title>LOG&#45;&gt;CLI</title>
<path fill="none" stroke="aqua" d="M976.78,-104C1017.45,-104 1089.25,-104 1089.25,-104 1089.25,-104 1089.25,-234.65 1089.25,-234.65"/>
<polygon fill="aqua" stroke="aqua" points="1085.75,-234.65 1089.25,-244.65 1092.75,-234.65 1085.75,-234.65"/>
</g>
<!-- CSV&#45;&gt;CLI -->
<g id="edge59" class="edge">
<title>CSV&#45;&gt;CLI</title>
<path fill="none" stroke="aqua" d="M976.79,-277.5C976.79,-277.5 1037.02,-277.5 1037.02,-277.5"/>
<polygon fill="aqua" stroke="aqua" points="1037.02,-281 1047.02,-277.5 1037.02,-274 1037.02,-281"/>
</g>
<!-- LED&#45;&gt;LED_MONO -->
<g id="edge77" class="edge">
<title>LED&#45;&gt;LED_MONO</title>
<path fill="none" stroke="black" d="M614.28,-677.5C614.28,-677.5 641.11,-677.5 641.11,-677.5"/>
<polygon fill="black" stroke="black" points="641.11,-681 651.11,-677.5 641.11,-674 641.11,-681"/>
</g>
<!-- MATH&#45;&gt;DDS -->
<g id="edge88" class="edge">
<title>MATH&#45;&gt;DDS</title>
<path fill="none" stroke="black" d="M601.25,-776.25C601.25,-790.18 601.25,-807 601.25,-807 601.25,-807 659.36,-807 659.36,-807"/>
<polygon fill="black" stroke="black" points="659.36,-810.5 669.36,-807 659.36,-803.5 659.36,-810.5"/>
</g>
<!-- MATH&#45;&gt;LED_MONO -->
<g id="edge76" class="edge">
<title>MATH&#45;&gt;LED_MONO</title>
<path fill="none" stroke="black" d="M614.69,-758C634.36,-758 657.25,-758 657.25,-758 657.25,-758 657.25,-718.49 657.25,-718.49"/>
<polygon fill="black" stroke="black" points="660.75,-718.49 657.25,-708.49 653.75,-718.49 660.75,-718.49"/>
</g>
<!-- SUPER_CYCLE -->
<g id="node43" class="node">
<title>SUPER_CYCLE</title>
<polygon fill="none" stroke="black" points="1004,-1036 895,-1036 895,-1000 1004,-1000 1004,-1036"/>
<text text-anchor="middle" x="949.5" y="-1012.95" font-family="Times,serif" font-size="14.00">SUPER_CYCLE</text>
</g>
<!-- SCHEDULER&#45;&gt;SUPER_CYCLE -->
<g id="edge78" class="edge">
<title>SCHEDULER&#45;&gt;SUPER_CYCLE</title>
<path fill="none" stroke="black" d="M850.34,-1018C850.34,-1018 883.62,-1018 883.62,-1018"/>
<polygon fill="black" stroke="black" points="883.62,-1021.5 893.62,-1018 883.62,-1014.5 883.62,-1021.5"/>
</g>
<!-- LIMITER&#45;&gt;SCHEDULER -->
<g id="edge79" class="edge">
<title>LIMITER&#45;&gt;SCHEDULER</title>
<path fill="none" stroke="green" d="M733.89,-1018C733.89,-1018 768.59,-1018 768.59,-1018"/>
<polygon fill="green" stroke="green" points="768.59,-1021.5 778.59,-1018 768.59,-1014.5 768.59,-1021.5"/>
</g>
<!-- HEAP -->
<g id="node48" class="node">
<title>HEAP</title>
<polygon fill="none" stroke="black" points="613.88,-868 559.88,-868 559.88,-832 613.88,-832 613.88,-868"/>
<text text-anchor="middle" x="586.88" y="-844.95" font-family="Times,serif" font-size="14.00">HEAP</text>
</g>
<!-- HEAP&#45;&gt;DDS -->
<g id="edge90" class="edge">
<title>HEAP&#45;&gt;DDS</title>
<path fill="none" stroke="black" d="M574.25,-831.81C574.25,-825.2 574.25,-819.33 574.25,-819.33 574.25,-819.33 659.34,-819.33 659.34,-819.33"/>
<polygon fill="black" stroke="black" points="659.34,-822.83 669.34,-819.33 659.34,-815.83 659.34,-822.83"/>
</g>
<!-- ASM -->
<g id="node49" class="node">
<title>ASM</title>
<polygon fill="none" stroke="black" points="503.75,-760 449.75,-760 449.75,-724 503.75,-724 503.75,-760"/>
<text text-anchor="middle" x="476.75" y="-736.95" font-family="Times,serif" font-size="14.00">ASM</text>
</g>
<!-- ASM&#45;&gt;MATH -->
<g id="edge92" class="edge">
<title>ASM&#45;&gt;MATH</title>
<path fill="none" stroke="black" d="M503.97,-750C503.97,-750 548.2,-750 548.2,-750"/>
<polygon fill="black" stroke="black" points="548.2,-753.5 558.2,-750 548.2,-746.5 548.2,-753.5"/>
</g>
<!-- DWT -->
<g id="node52" class="node">
<title>DWT</title>
<polygon fill="none" stroke="black" points="252.38,-722 198.38,-722 198.38,-686 252.38,-686 252.38,-722"/>
<text text-anchor="middle" x="225.38" y="-698.95" font-family="Times,serif" font-size="14.00">DWT</text>
</g>
<!-- DWT&#45;&gt;TIME -->
<g id="edge99" class="edge">
<title>DWT&#45;&gt;TIME</title>
<path fill="none" stroke="black" d="M252.64,-698C252.64,-698 310.06,-698 310.06,-698"/>
<polygon fill="black" stroke="black" points="310.06,-701.5 320.06,-698 310.06,-694.5 310.06,-701.5"/>
</g>
</g>
</svg>
