<?xml version="1.0" encoding="UTF-8" standalone="no"?>
<!DOCTYPE svg PUBLIC "-//W3C//DTD SVG 1.1//EN"
 "http://www.w3.org/Graphics/SVG/1.1/DTD/svg11.dtd">
<!-- Generated by graphviz version 5.0.0 (20220707.1540)
 -->
<!-- Title: graphname Pages: 1 -->
<svg width="642pt" height="745pt"
 viewBox="0.00 0.00 642.00 745.00" xmlns="http://www.w3.org/2000/svg" xmlns:xlink="http://www.w3.org/1999/xlink">
<g id="graph0" class="graph" transform="scale(1 1) rotate(0) translate(4 741)">
<title>graphname</title>
<polygon fill="white" stroke="transparent" points="-4,4 -4,-741 638,-741 638,4 -4,4"/>
<g id="clust3" class="cluster">
<title>cluster_Connectivity</title>
<polygon fill="oldlace" stroke="oldlace" points="20,-600 20,-729 232.5,-729 232.5,-600 20,-600"/>
<text text-anchor="middle" x="126.25" y="-713.8" font-family="Times New Roman,serif" font-size="14.00">Connectivity</text>
</g>
<g id="clust5" class="cluster">
<title>cluster_protocols</title>
<polygon fill="oldlace" stroke="oldlace" points="153.5,-608 153.5,-683 224.5,-683 224.5,-608 153.5,-608"/>
<text text-anchor="middle" x="189" y="-667.8" font-family="Times New Roman,serif" font-size="14.00">Protocols</text>
</g>
<g id="clust1" class="cluster">
<title>cluster_mcal</title>
<polygon fill="oldlace" stroke="oldlace" points="153.5,-350 153.5,-425 338,-425 338,-350 153.5,-350"/>
<text text-anchor="middle" x="245.75" y="-409.8" font-family="Times New Roman,serif" font-size="14.00">MCAL</text>
</g>
<g id="clust2" class="cluster">
<title>cluster_adc</title>
<polygon fill="oldlace" stroke="oldlace" points="153.5,-517 153.5,-592 223.5,-592 223.5,-517 153.5,-517"/>
<text text-anchor="middle" x="188.5" y="-576.8" font-family="Times New Roman,serif" font-size="14.00">ADT</text>
</g>
<g id="clust6" class="cluster">
<title>cluster_control</title>
<polygon fill="oldlace" stroke="oldlace" points="382.5,-18 382.5,-255 626,-255 626,-18 382.5,-18"/>
<text text-anchor="middle" x="504.25" y="-239.8" font-family="Times New Roman,serif" font-size="14.00">Control</text>
</g>
<g id="clust8" class="cluster">
<title>cluster_storage</title>
<polygon fill="oldlace" stroke="oldlace" points="8,-409 8,-592 122,-592 122,-409 8,-409"/>
<text text-anchor="middle" x="65" y="-576.8" font-family="Times New Roman,serif" font-size="14.00">Storage</text>
</g>
<g id="clust7" class="cluster">
<title>cluster_Computing</title>
<polygon fill="oldlace" stroke="oldlace" points="258,-15 258,-90 347,-90 347,-15 258,-15"/>
<text text-anchor="middle" x="302.5" y="-74.8" font-family="Times New Roman,serif" font-size="14.00">Computing</text>
</g>
<!-- GPIO -->
<g id="node1" class="node">
<title>GPIO</title>
<polygon fill="aquamarine" stroke="black" points="209.5,-394 161.5,-394 161.5,-358 215.5,-358 215.5,-388 209.5,-394"/>
<polyline fill="none" stroke="black" points="209.5,-394 209.5,-388 "/>
<polyline fill="none" stroke="black" points="215.5,-388 209.5,-388 "/>
<text text-anchor="middle" x="188.5" y="-372.3" font-family="Times New Roman,serif" font-size="14.00">GPIO</text>
</g>
<!-- UART -->
<g id="node2" class="node">
<title>UART</title>
<polygon fill="aquamarine" stroke="black" points="324,-394 275,-394 275,-358 330,-358 330,-388 324,-394"/>
<polyline fill="none" stroke="black" points="324,-394 324,-388 "/>
<polyline fill="none" stroke="black" points="330,-388 324,-388 "/>
<text text-anchor="middle" x="302.5" y="-372.3" font-family="Times New Roman,serif" font-size="14.00">UART</text>
</g>
<!-- GPIO&#45;&gt;UART -->
<g id="edge7" class="edge">
<title>GPIO&#45;&gt;UART</title>
<path fill="none" stroke="fuchsia" d="M215.52,-386.8C215.52,-386.8 264.89,-386.8 264.89,-386.8"/>
<polygon fill="fuchsia" stroke="fuchsia" points="264.89,-390.3 274.89,-386.8 264.89,-383.3 264.89,-390.3"/>
</g>
<!-- SPIFI -->
<g id="node5" class="node">
<title>SPIFI</title>
<polygon fill="none" stroke="black" points="329.5,-302 275.5,-302 275.5,-266 329.5,-266 329.5,-302"/>
<text text-anchor="middle" x="302.5" y="-280.3" font-family="Times New Roman,serif" font-size="14.00">SPIFI</text>
</g>
<!-- GPIO&#45;&gt;SPIFI -->
<g id="edge3" class="edge">
<title>GPIO&#45;&gt;SPIFI</title>
<path fill="none" stroke="black" d="M198,-357.82C198,-331.01 198,-284 198,-284 198,-284 265.32,-284 265.32,-284"/>
<polygon fill="black" stroke="black" points="265.32,-287.5 275.32,-284 265.32,-280.5 265.32,-287.5"/>
</g>
<!-- LED -->
<g id="node14" class="node">
<title>LED</title>
<polygon fill="none" stroke="black" points="453.5,-170 399.5,-170 399.5,-134 453.5,-134 453.5,-170"/>
<text text-anchor="middle" x="426.5" y="-148.3" font-family="Times New Roman,serif" font-size="14.00">LED</text>
</g>
<!-- GPIO&#45;&gt;LED -->
<g id="edge11" class="edge">
<title>GPIO&#45;&gt;LED</title>
<path fill="none" stroke="black" d="M215.8,-365.2C224.54,-365.2 232,-365.2 232,-365.2 232,-365.2 232,-165 232,-165 232,-165 389.46,-165 389.46,-165"/>
<polygon fill="black" stroke="black" points="389.46,-168.5 399.46,-165 389.46,-161.5 389.46,-168.5"/>
</g>
<!-- LED_MONO -->
<g id="node18" class="node">
<title>LED_MONO</title>
<polygon fill="none" stroke="black" points="349,-210 256,-210 256,-174 349,-174 349,-210"/>
<text text-anchor="middle" x="302.5" y="-188.3" font-family="Times New Roman,serif" font-size="14.00">LED_MONO</text>
</g>
<!-- GPIO&#45;&gt;LED_MONO -->
<g id="edge12" class="edge">
<title>GPIO&#45;&gt;LED_MONO</title>
<path fill="none" stroke="black" d="M215.61,-379.6C237.95,-379.6 266,-379.6 266,-379.6 266,-379.6 266,-220.33 266,-220.33"/>
<polygon fill="black" stroke="black" points="269.5,-220.33 266,-210.33 262.5,-220.33 269.5,-220.33"/>
</g>
<!-- W25Q32JV -->
<g id="node23" class="node">
<title>W25Q32JV</title>
<polygon fill="none" stroke="black" points="468,-302 385,-302 385,-266 468,-266 468,-302"/>
<text text-anchor="middle" x="426.5" y="-280.3" font-family="Times New Roman,serif" font-size="14.00">W25Q32JV</text>
</g>
<!-- GPIO&#45;&gt;W25Q32JV -->
<g id="edge21" class="edge">
<title>GPIO&#45;&gt;W25Q32JV</title>
<path fill="none" stroke="black" d="M180,-357.82C180,-344.96 180,-330 180,-330 180,-330 427,-330 427,-330 427,-330 427,-312.18 427,-312.18"/>
<polygon fill="black" stroke="black" points="430.5,-312.18 427,-302.18 423.5,-312.18 430.5,-312.18"/>
</g>
<!-- REG -->
<g id="node3" class="node">
<title>REG</title>
<polygon fill="none" stroke="black" points="92,-507 38,-507 38,-471 92,-471 92,-507"/>
<text text-anchor="middle" x="65" y="-485.3" font-family="Times New Roman,serif" font-size="14.00">REG</text>
</g>
<!-- REG&#45;&gt;GPIO -->
<g id="edge1" class="edge">
<title>REG&#45;&gt;GPIO</title>
<path fill="none" stroke="black" d="M92.25,-483C112.27,-483 136,-483 136,-483 136,-483 136,-382 136,-382 136,-382 151.33,-382 151.33,-382"/>
<polygon fill="black" stroke="black" points="151.33,-385.5 161.33,-382 151.33,-378.5 151.33,-385.5"/>
</g>
<!-- REG&#45;&gt;UART -->
<g id="edge8" class="edge">
<title>REG&#45;&gt;UART</title>
<path fill="none" stroke="darkorange" d="M92.3,-495C154.82,-495 303,-495 303,-495 303,-495 303,-404.07 303,-404.07"/>
<polygon fill="darkorange" stroke="darkorange" points="306.5,-404.07 303,-394.07 299.5,-404.07 306.5,-404.07"/>
</g>
<!-- MCU -->
<g id="node4" class="node">
<title>MCU</title>
<polygon fill="none" stroke="black" points="92,-394 38,-394 38,-358 92,-358 92,-394"/>
<text text-anchor="middle" x="65" y="-372.3" font-family="Times New Roman,serif" font-size="14.00">MCU</text>
</g>
<!-- MCU&#45;&gt;GPIO -->
<g id="edge2" class="edge">
<title>MCU&#45;&gt;GPIO</title>
<path fill="none" stroke="black" d="M92.1,-370C92.1,-370 151.46,-370 151.46,-370"/>
<polygon fill="black" stroke="black" points="151.46,-373.5 161.46,-370 151.46,-366.5 151.46,-373.5"/>
</g>
<!-- SPIFI&#45;&gt;W25Q32JV -->
<g id="edge23" class="edge">
<title>SPIFI&#45;&gt;W25Q32JV</title>
<path fill="none" stroke="black" d="M329.71,-284C329.71,-284 374.72,-284 374.72,-284"/>
<polygon fill="black" stroke="black" points="374.72,-287.5 384.72,-284 374.72,-280.5 374.72,-287.5"/>
</g>
<!-- TIME -->
<g id="node6" class="node">
<title>TIME</title>
<polygon fill="none" stroke="black" points="215.5,-160 161.5,-160 161.5,-124 215.5,-124 215.5,-160"/>
<text text-anchor="middle" x="188.5" y="-138.3" font-family="Times New Roman,serif" font-size="14.00">TIME</text>
</g>
<!-- TIME&#45;&gt;UART -->
<g id="edge4" class="edge">
<title>TIME&#45;&gt;UART</title>
<path fill="none" stroke="black" d="M215.6,-153.5C229.69,-153.5 244,-153.5 244,-153.5 244,-153.5 244,-372.4 244,-372.4 244,-372.4 264.96,-372.4 264.96,-372.4"/>
<polygon fill="black" stroke="black" points="264.96,-375.9 274.96,-372.4 264.96,-368.9 264.96,-375.9"/>
</g>
<!-- TASK -->
<g id="node17" class="node">
<title>TASK</title>
<polygon fill="none" stroke="black" points="462.5,-62 390.5,-62 390.5,-26 462.5,-26 462.5,-62"/>
<text text-anchor="middle" x="426.5" y="-40.3" font-family="Times New Roman,serif" font-size="14.00">Scheduler</text>
</g>
<!-- TIME&#45;&gt;TASK -->
<g id="edge17" class="edge">
<title>TIME&#45;&gt;TASK</title>
<path fill="none" stroke="red" d="M215.59,-129C260.14,-129 344,-129 344,-129 344,-129 344,-48 344,-48 344,-48 380.07,-48 380.07,-48"/>
<polygon fill="red" stroke="red" points="380.07,-51.5 390.07,-48 380.07,-44.5 380.07,-51.5"/>
</g>
<!-- TIME&#45;&gt;LED_MONO -->
<g id="edge13" class="edge">
<title>TIME&#45;&gt;LED_MONO</title>
<path fill="none" stroke="black" d="M215.91,-147C236.44,-147 261,-147 261,-147 261,-147 261,-163.96 261,-163.96"/>
<polygon fill="black" stroke="black" points="257.5,-163.96 261,-173.96 264.5,-163.96 257.5,-163.96"/>
</g>
<!-- LIMITER -->
<g id="node20" class="node">
<title>LIMITER</title>
<polygon fill="none" stroke="black" points="339,-59 266,-59 266,-23 339,-23 339,-59"/>
<text text-anchor="middle" x="302.5" y="-37.3" font-family="Times New Roman,serif" font-size="14.00">LIMITER</text>
</g>
<!-- TIME&#45;&gt;LIMITER -->
<g id="edge19" class="edge">
<title>TIME&#45;&gt;LIMITER</title>
<path fill="none" stroke="black" d="M189,-123.78C189,-96.32 189,-47.5 189,-47.5 189,-47.5 255.96,-47.5 255.96,-47.5"/>
<polygon fill="black" stroke="black" points="255.96,-51 265.96,-47.5 255.96,-44 255.96,-51"/>
</g>
<!-- TIME&#45;&gt;W25Q32JV -->
<g id="edge22" class="edge">
<title>TIME&#45;&gt;W25Q32JV</title>
<path fill="none" stroke="black" d="M215.92,-140.5C272.09,-140.5 395,-140.5 395,-140.5 395,-140.5 395,-255.83 395,-255.83"/>
<polygon fill="black" stroke="black" points="391.5,-255.83 395,-265.83 398.5,-255.83 391.5,-255.83"/>
</g>
<!-- FIFO -->
<g id="node7" class="node">
<title>FIFO</title>
<polygon fill="aqua" stroke="black" points="209.5,-561 161.5,-561 161.5,-525 215.5,-525 215.5,-555 209.5,-561"/>
<polyline fill="none" stroke="black" points="209.5,-561 209.5,-555 "/>
<polyline fill="none" stroke="black" points="215.5,-555 209.5,-555 "/>
<text text-anchor="middle" x="188.5" y="-539.3" font-family="Times New Roman,serif" font-size="14.00">FIFO</text>
</g>
<!-- FIFO&#45;&gt;UART -->
<g id="edge5" class="edge">
<title>FIFO&#45;&gt;UART</title>
<path fill="none" stroke="black" d="M215.75,-543C253.47,-543 317,-543 317,-543 317,-543 317,-404.19 317,-404.19"/>
<polygon fill="black" stroke="black" points="320.5,-404.19 317,-394.19 313.5,-404.19 320.5,-404.19"/>
</g>
<!-- DMA -->
<g id="node8" class="node">
<title>DMA</title>
<polygon fill="none" stroke="black" points="215.5,-469 161.5,-469 161.5,-433 215.5,-433 215.5,-469"/>
<text text-anchor="middle" x="188.5" y="-447.3" font-family="Times New Roman,serif" font-size="14.00">DMA</text>
</g>
<!-- DMA&#45;&gt;UART -->
<g id="edge6" class="edge">
<title>DMA&#45;&gt;UART</title>
<path fill="none" stroke="green" d="M215.7,-451C245.46,-451 289,-451 289,-451 289,-451 289,-404.16 289,-404.16"/>
<polygon fill="green" stroke="green" points="292.5,-404.16 289,-394.16 285.5,-404.16 292.5,-404.16"/>
</g>
<!-- RAM -->
<g id="node9" class="node">
<title>RAM</title>
<polygon fill="none" stroke="black" points="92,-561 38,-561 38,-525 92,-525 92,-561"/>
<text text-anchor="middle" x="65" y="-539.3" font-family="Times New Roman,serif" font-size="14.00">RAM</text>
</g>
<!-- RAM&#45;&gt;FIFO -->
<g id="edge9" class="edge">
<title>RAM&#45;&gt;FIFO</title>
<path fill="none" stroke="black" d="M92.1,-543C92.1,-543 151.46,-543 151.46,-543"/>
<polygon fill="black" stroke="black" points="151.46,-546.5 161.46,-543 151.46,-539.5 151.46,-546.5"/>
</g>
<!-- STREAM -->
<g id="node10" class="node">
<title>STREAM</title>
<polygon fill="none" stroke="black" points="102,-698 28,-698 28,-662 102,-662 102,-698"/>
<text text-anchor="middle" x="65" y="-676.3" font-family="Times New Roman,serif" font-size="14.00">STREAM</text>
</g>
<!-- TBFP -->
<g id="node11" class="node">
<title>TBFP</title>
<polygon fill="none" stroke="black" points="215.5,-652 161.5,-652 161.5,-616 215.5,-616 215.5,-652"/>
<text text-anchor="middle" x="188.5" y="-630.3" font-family="Times New Roman,serif" font-size="14.00">TBFP</text>
</g>
<!-- CRC8 -->
<g id="node12" class="node">
<title>CRC8</title>
<polygon fill="none" stroke="black" points="92,-644 38,-644 38,-608 92,-608 92,-644"/>
<text text-anchor="middle" x="65" y="-622.3" font-family="Times New Roman,serif" font-size="14.00">CRC8</text>
</g>
<!-- CRC8&#45;&gt;TBFP -->
<g id="edge10" class="edge">
<title>CRC8&#45;&gt;TBFP</title>
<path fill="none" stroke="black" d="M92.1,-630C92.1,-630 151.46,-630 151.46,-630"/>
<polygon fill="black" stroke="black" points="151.46,-633.5 161.46,-630 151.46,-626.5 151.46,-633.5"/>
</g>
<!-- BOOT -->
<g id="node13" class="node">
<title>BOOT</title>
<polygon fill="none" stroke="black" points="454.5,-224 398.5,-224 398.5,-188 454.5,-188 454.5,-224"/>
<text text-anchor="middle" x="426.5" y="-202.3" font-family="Times New Roman,serif" font-size="14.00">BOOT</text>
</g>
<!-- SUPER_CYCLE -->
<g id="node15" class="node">
<title>SUPER_CYCLE</title>
<polygon fill="none" stroke="black" points="618,-62 504,-62 504,-26 618,-26 618,-62"/>
<text text-anchor="middle" x="561" y="-40.3" font-family="Times New Roman,serif" font-size="14.00">SUPER_CYCLE</text>
</g>
<!-- SYSTEM -->
<g id="node16" class="node">
<title>SYSTEM</title>
<polygon fill="none" stroke="black" points="462.5,-116 390.5,-116 390.5,-80 462.5,-80 462.5,-116"/>
<text text-anchor="middle" x="426.5" y="-94.3" font-family="Times New Roman,serif" font-size="14.00">SYSTEM</text>
</g>
<!-- TASK&#45;&gt;SUPER_CYCLE -->
<g id="edge15" class="edge">
<title>TASK&#45;&gt;SUPER_CYCLE</title>
<path fill="none" stroke="black" d="M462.54,-44C462.54,-44 493.81,-44 493.81,-44"/>
<polygon fill="black" stroke="black" points="493.81,-47.5 503.81,-44 493.81,-40.5 493.81,-47.5"/>
</g>
<!-- MATH -->
<g id="node19" class="node">
<title>MATH</title>
<polygon fill="none" stroke="black" points="217,-214 160,-214 160,-178 217,-178 217,-214"/>
<text text-anchor="middle" x="188.5" y="-192.3" font-family="Times New Roman,serif" font-size="14.00">MATH</text>
</g>
<!-- MATH&#45;&gt;LED_MONO -->
<g id="edge14" class="edge">
<title>MATH&#45;&gt;LED_MONO</title>
<path fill="none" stroke="black" d="M217.27,-194C217.27,-194 246,-194 246,-194"/>
<polygon fill="black" stroke="black" points="246,-197.5 256,-194 246,-190.5 246,-197.5"/>
</g>
<!-- LIMITER&#45;&gt;TASK -->
<g id="edge16" class="edge">
<title>LIMITER&#45;&gt;TASK</title>
<path fill="none" stroke="green" d="M339.03,-37C339.03,-37 380.23,-37 380.23,-37"/>
<polygon fill="green" stroke="green" points="380.23,-40.5 390.23,-37 380.23,-33.5 380.23,-40.5"/>
</g>
<!-- FLASH -->
<g id="node21" class="node">
<title>FLASH</title>
<polygon fill="none" stroke="black" points="219,-36 158,-36 158,0 219,0 219,-36"/>
<text text-anchor="middle" x="188.5" y="-14.3" font-family="Times New Roman,serif" font-size="14.00">FLASH</text>
</g>
<!-- FLASH&#45;&gt;TASK -->
<g id="edge18" class="edge">
<title>FLASH&#45;&gt;TASK</title>
<path fill="none" stroke="blue" d="M219.19,-11.5C283.61,-11.5 427,-11.5 427,-11.5 427,-11.5 427,-15.85 427,-15.85"/>
<polygon fill="blue" stroke="blue" points="423.5,-15.85 427,-25.85 430.5,-15.85 423.5,-15.85"/>
</g>
<!-- FLASH&#45;&gt;LIMITER -->
<g id="edge20" class="edge">
<title>FLASH&#45;&gt;LIMITER</title>
<path fill="none" stroke="black" d="M219.05,-29.5C219.05,-29.5 255.78,-29.5 255.78,-29.5"/>
<polygon fill="black" stroke="black" points="255.78,-33 265.78,-29.5 255.78,-26 255.78,-33"/>
</g>
<!-- NOR_FLASH -->
<g id="node22" class="node">
<title>NOR_FLASH</title>
<polygon fill="none" stroke="black" points="114,-453 16,-453 16,-417 114,-417 114,-453"/>
<text text-anchor="middle" x="65" y="-431.3" font-family="Times New Roman,serif" font-size="14.00">NOR_FLASH</text>
</g>
</g>
</svg>
