<?xml version="1.0" encoding="UTF-8" standalone="no"?>
<!DOCTYPE svg PUBLIC "-//W3C//DTD SVG 1.1//EN"
 "http://www.w3.org/Graphics/SVG/1.1/DTD/svg11.dtd">
<!-- Generated by graphviz version 8.0.5 (20230508.1809)
 -->
<!-- Title: graphname Pages: 1 -->
<svg width="1115pt" height="1109pt"
 viewBox="0.00 0.00 1114.50 1109.00" xmlns="http://www.w3.org/2000/svg" xmlns:xlink="http://www.w3.org/1999/xlink">
<g id="graph0" class="graph" transform="scale(1 1) rotate(0) translate(4 1105)">
<title>graphname</title>
<polygon fill="white" stroke="none" points="-4,4 -4,-1105 1110.5,-1105 1110.5,4 -4,4"/>
<g id="clust1" class="cluster">
<title>cluster_Interfaces</title>
<polygon fill="none" stroke="red" points="134.12,-852 134.12,-1003 480.25,-1003 480.25,-852 134.12,-852"/>
<text text-anchor="middle" x="307.19" y="-985.7" font-family="Times,serif" font-size="14.00">Interfaces</text>
</g>
<!-- XXX -->
<g id="node1" class="node">
<title>XXX</title>
<polygon fill="none" stroke="black" points="56,-36 2,-36 2,0 56,0 56,-36"/>
<text text-anchor="middle" x="29" y="-12.95" font-family="Times,serif" font-size="14.00">XXX</text>
</g>
<!-- CAN_RX_HIST -->
<g id="node2" class="node">
<title>CAN_RX_HIST</title>
<polygon fill="none" stroke="black" points="222.5,-36 115.75,-36 115.75,0 222.5,0 222.5,-36"/>
<text text-anchor="middle" x="169.12" y="-12.95" font-family="Times,serif" font-size="14.00">CAN_RX_HIST</text>
</g>
<!-- XXX&#45;&gt;CAN_RX_HIST -->
<g id="edge1" class="edge">
<title>XXX&#45;&gt;CAN_RX_HIST</title>
<path fill="none" stroke="black" d="M56.35,-18C56.35,-18 104.45,-18 104.45,-18"/>
<polygon fill="black" stroke="black" points="104.45,-21.5 114.45,-18 104.45,-14.5 104.45,-21.5"/>
</g>
<!-- CLOCK -->
<g id="node3" class="node">
<title>CLOCK</title>
<polygon fill="none" stroke="black" points="200,-474 138.25,-474 138.25,-438 200,-438 200,-474"/>
<text text-anchor="middle" x="169.12" y="-450.95" font-family="Times,serif" font-size="14.00">CLOCK</text>
</g>
<!-- CORE -->
<g id="node4" class="node">
<title>CORE</title>
<polygon fill="none" stroke="black" points="347.88,-436 293.88,-436 293.88,-400 347.88,-400 347.88,-436"/>
<text text-anchor="middle" x="320.88" y="-412.95" font-family="Times,serif" font-size="14.00">CORE</text>
</g>
<!-- CLOCK&#45;&gt;CORE -->
<g id="edge2" class="edge">
<title>CLOCK&#45;&gt;CORE</title>
<path fill="none" stroke="black" d="M200.33,-449C244.91,-449 321.5,-449 321.5,-449 321.5,-449 321.5,-447.39 321.5,-447.39"/>
<polygon fill="black" stroke="black" points="325,-447.39 321.5,-437.39 318,-447.39 325,-447.39"/>
</g>
<!-- SYSTICK -->
<g id="node11" class="node">
<title>SYSTICK</title>
<polygon fill="none" stroke="black" points="357,-582 284.75,-582 284.75,-546 357,-546 357,-582"/>
<text text-anchor="middle" x="320.88" y="-558.95" font-family="Times,serif" font-size="14.00">SYSTICK</text>
</g>
<!-- CLOCK&#45;&gt;SYSTICK -->
<g id="edge10" class="edge">
<title>CLOCK&#45;&gt;SYSTICK</title>
<path fill="none" stroke="black" d="M200.11,-469C218.2,-469 237.5,-469 237.5,-469 237.5,-469 237.5,-551.14 237.5,-551.14 237.5,-551.14 273.55,-551.14 273.55,-551.14"/>
<polygon fill="black" stroke="black" points="273.55,-554.64 283.55,-551.14 273.55,-547.64 273.55,-554.64"/>
</g>
<!-- TIMER -->
<g id="node23" class="node">
<title>TIMER</title>
<polygon fill="none" stroke="black" points="350.25,-490 291.5,-490 291.5,-454 350.25,-454 350.25,-490"/>
<text text-anchor="middle" x="320.88" y="-466.95" font-family="Times,serif" font-size="14.00">TIMER</text>
</g>
<!-- CLOCK&#45;&gt;TIMER -->
<g id="edge31" class="edge">
<title>CLOCK&#45;&gt;TIMER</title>
<path fill="none" stroke="black" d="M200.2,-459C200.2,-459 280.13,-459 280.13,-459"/>
<polygon fill="black" stroke="black" points="280.13,-462.5 290.13,-459 280.13,-455.5 280.13,-462.5"/>
</g>
<!-- BOOT -->
<g id="node37" class="node">
<title>BOOT</title>
<polygon fill="none" stroke="black" points="472.25,-444 418.25,-444 418.25,-408 472.25,-408 472.25,-444"/>
<text text-anchor="middle" x="445.25" y="-420.95" font-family="Times,serif" font-size="14.00">BOOT</text>
</g>
<!-- CORE&#45;&gt;BOOT -->
<g id="edge66" class="edge">
<title>CORE&#45;&gt;BOOT</title>
<path fill="none" stroke="black" d="M348.17,-422C348.17,-422 407.02,-422 407.02,-422"/>
<polygon fill="black" stroke="black" points="407.02,-425.5 417.02,-422 407.02,-418.5 407.02,-425.5"/>
</g>
<!-- REG -->
<g id="node5" class="node">
<title>REG</title>
<polygon fill="none" stroke="black" points="196.12,-896 142.12,-896 142.12,-860 196.12,-860 196.12,-896"/>
<text text-anchor="middle" x="169.12" y="-872.95" font-family="Times,serif" font-size="14.00">REG</text>
</g>
<!-- REG&#45;&gt;CLOCK -->
<g id="edge30" class="edge">
<title>REG&#45;&gt;CLOCK</title>
<path fill="none" stroke="black" d="M196.34,-863.27C219.65,-863.27 249.5,-863.27 249.5,-863.27 249.5,-863.27 249.5,-464 249.5,-464 249.5,-464 211.43,-464 211.43,-464"/>
<polygon fill="black" stroke="black" points="211.43,-460.5 201.43,-464 211.43,-467.5 211.43,-460.5"/>
</g>
<!-- NVIC -->
<g id="node6" class="node">
<title>NVIC</title>
<polygon fill="none" stroke="black" points="347.88,-896 293.88,-896 293.88,-860 347.88,-860 347.88,-896"/>
<text text-anchor="middle" x="320.88" y="-872.95" font-family="Times,serif" font-size="14.00">NVIC</text>
</g>
<!-- REG&#45;&gt;NVIC -->
<g id="edge3" class="edge">
<title>REG&#45;&gt;NVIC</title>
<path fill="none" stroke="black" d="M196.61,-889.45C196.61,-889.45 282.6,-889.45 282.6,-889.45"/>
<polygon fill="black" stroke="black" points="282.6,-892.95 292.6,-889.45 282.6,-885.95 282.6,-892.95"/>
</g>
<!-- REG&#45;&gt;SYSTICK -->
<g id="edge8" class="edge">
<title>REG&#45;&gt;SYSTICK</title>
<path fill="none" stroke="black" d="M196.56,-879.64C226.88,-879.64 271.5,-879.64 271.5,-879.64 271.5,-879.64 271.5,-576.86 271.5,-576.86 271.5,-576.86 273.47,-576.86 273.47,-576.86"/>
<polygon fill="black" stroke="black" points="273.47,-580.36 283.47,-576.86 273.47,-573.36 273.47,-580.36"/>
</g>
<!-- CORTEX_M4 -->
<g id="node13" class="node">
<title>CORTEX_M4</title>
<polygon fill="none" stroke="black" points="493,-711 397.5,-711 397.5,-675 493,-675 493,-711"/>
<text text-anchor="middle" x="445.25" y="-687.95" font-family="Times,serif" font-size="14.00">CORTEX_M4</text>
</g>
<!-- REG&#45;&gt;CORTEX_M4 -->
<g id="edge18" class="edge">
<title>REG&#45;&gt;CORTEX_M4</title>
<path fill="none" stroke="black" d="M183.5,-859.77C183.5,-842.23 183.5,-818.33 183.5,-818.33 183.5,-818.33 406.5,-818.33 406.5,-818.33 406.5,-818.33 406.5,-722.49 406.5,-722.49"/>
<polygon fill="black" stroke="black" points="410,-722.49 406.5,-712.49 403,-722.49 410,-722.49"/>
</g>
<!-- FPU -->
<g id="node14" class="node">
<title>FPU</title>
<polygon fill="none" stroke="black" points="347.88,-766 293.88,-766 293.88,-730 347.88,-730 347.88,-766"/>
<text text-anchor="middle" x="320.88" y="-742.95" font-family="Times,serif" font-size="14.00">FPU</text>
</g>
<!-- REG&#45;&gt;FPU -->
<g id="edge15" class="edge">
<title>REG&#45;&gt;FPU</title>
<path fill="none" stroke="black" d="M156.5,-859.75C156.5,-824.94 156.5,-752.5 156.5,-752.5 156.5,-752.5 282.73,-752.5 282.73,-752.5"/>
<polygon fill="black" stroke="black" points="282.73,-756 292.73,-752.5 282.73,-749 282.73,-756"/>
</g>
<!-- FLASH -->
<g id="node17" class="node">
<title>FLASH</title>
<polygon fill="none" stroke="black" points="474.62,-290 415.88,-290 415.88,-254 474.62,-254 474.62,-290"/>
<text text-anchor="middle" x="445.25" y="-266.95" font-family="Times,serif" font-size="14.00">FLASH</text>
</g>
<!-- REG&#45;&gt;FLASH -->
<g id="edge22" class="edge">
<title>REG&#45;&gt;FLASH</title>
<path fill="none" stroke="black" d="M169.5,-859.6C169.5,-839.66 169.5,-810.67 169.5,-810.67 169.5,-810.67 367.5,-810.67 367.5,-810.67 367.5,-810.67 367.5,-272 367.5,-272 367.5,-272 404.41,-272 404.41,-272"/>
<polygon fill="black" stroke="black" points="404.41,-275.5 414.41,-272 404.41,-268.5 404.41,-275.5"/>
</g>
<!-- GPIO -->
<g id="node21" class="node">
<title>GPIO</title>
<polygon fill="none" stroke="black" points="347.88,-970 293.88,-970 293.88,-934 347.88,-934 347.88,-970"/>
<text text-anchor="middle" x="320.88" y="-946.95" font-family="Times,serif" font-size="14.00">GPIO</text>
</g>
<!-- REG&#45;&gt;GPIO -->
<g id="edge27" class="edge">
<title>REG&#45;&gt;GPIO</title>
<path fill="none" stroke="black" d="M160.5,-896.29C160.5,-918.21 160.5,-952 160.5,-952 160.5,-952 282.67,-952 282.67,-952"/>
<polygon fill="black" stroke="black" points="282.67,-955.5 292.67,-952 282.67,-948.5 282.67,-955.5"/>
</g>
<!-- REG&#45;&gt;TIMER -->
<g id="edge33" class="edge">
<title>REG&#45;&gt;TIMER</title>
<path fill="none" stroke="black" d="M196.29,-866.55C220.95,-866.55 253.5,-866.55 253.5,-866.55 253.5,-866.55 253.5,-483.6 253.5,-483.6 253.5,-483.6 280.13,-483.6 280.13,-483.6"/>
<polygon fill="black" stroke="black" points="280.13,-487.1 290.13,-483.6 280.13,-480.1 280.13,-487.1"/>
</g>
<!-- UART -->
<g id="node25" class="node">
<title>UART</title>
<polygon fill="none" stroke="black" points="618.75,-658 564.75,-658 564.75,-622 618.75,-622 618.75,-658"/>
<text text-anchor="middle" x="591.75" y="-634.95" font-family="Times,serif" font-size="14.00">UART</text>
</g>
<!-- REG&#45;&gt;UART -->
<g id="edge42" class="edge">
<title>REG&#45;&gt;UART</title>
<path fill="none" stroke="darkorange" d="M196.5,-882.91C228.31,-882.91 276.5,-882.91 276.5,-882.91 276.5,-882.91 276.5,-642.57 276.5,-642.57 276.5,-642.57 553.33,-642.57 553.33,-642.57"/>
<polygon fill="darkorange" stroke="darkorange" points="553.33,-646.07 563.33,-642.57 553.33,-639.07 553.33,-646.07"/>
</g>
<!-- CAN -->
<g id="node29" class="node">
<title>CAN</title>
<polygon fill="none" stroke="black" points="472.25,-933 418.25,-933 418.25,-897 472.25,-897 472.25,-933"/>
<text text-anchor="middle" x="445.25" y="-909.95" font-family="Times,serif" font-size="14.00">CAN</text>
</g>
<!-- REG&#45;&gt;CAN -->
<g id="edge47" class="edge">
<title>REG&#45;&gt;CAN</title>
<path fill="none" stroke="black" d="M178.5,-896.5C178.5,-905.75 178.5,-915 178.5,-915 178.5,-915 407.2,-915 407.2,-915"/>
<polygon fill="black" stroke="black" points="407.2,-918.5 417.2,-915 407.2,-911.5 407.2,-918.5"/>
</g>
<!-- ARM -->
<g id="node7" class="node">
<title>ARM</title>
<polygon fill="none" stroke="black" points="472.25,-1047 418.25,-1047 418.25,-1011 472.25,-1011 472.25,-1047"/>
<text text-anchor="middle" x="445.25" y="-1023.95" font-family="Times,serif" font-size="14.00">ARM</text>
</g>
<!-- NVIC&#45;&gt;ARM -->
<g id="edge4" class="edge">
<title>NVIC&#45;&gt;ARM</title>
<path fill="none" stroke="black" d="M347.98,-890C367.9,-890 391.5,-890 391.5,-890 391.5,-890 391.5,-1035 391.5,-1035 391.5,-1035 407.06,-1035 407.06,-1035"/>
<polygon fill="black" stroke="black" points="407.06,-1038.5 417.06,-1035 407.06,-1031.5 407.06,-1038.5"/>
</g>
<!-- INTERRUPT -->
<g id="node9" class="node">
<title>INTERRUPT</title>
<polygon fill="none" stroke="black" points="214.25,-582 124,-582 124,-546 214.25,-546 214.25,-582"/>
<text text-anchor="middle" x="169.12" y="-558.95" font-family="Times,serif" font-size="14.00">INTERRUPT</text>
</g>
<!-- NVIC&#45;&gt;INTERRUPT -->
<g id="edge36" class="edge">
<title>NVIC&#45;&gt;INTERRUPT</title>
<path fill="none" stroke="black" d="M293.7,-876.36C276.89,-876.36 258.5,-876.36 258.5,-876.36 258.5,-876.36 258.5,-566.57 258.5,-566.57 258.5,-566.57 225.6,-566.57 225.6,-566.57"/>
<polygon fill="black" stroke="black" points="225.6,-563.07 215.6,-566.57 225.6,-570.07 225.6,-563.07"/>
</g>
<!-- NVIC&#45;&gt;SYSTICK -->
<g id="edge9" class="edge">
<title>NVIC&#45;&gt;SYSTICK</title>
<path fill="none" stroke="black" d="M348.11,-866C360.95,-866 373.5,-866 373.5,-866 373.5,-866 373.5,-576.4 373.5,-576.4 373.5,-576.4 368.42,-576.4 368.42,-576.4"/>
<polygon fill="black" stroke="black" points="368.42,-572.9 358.42,-576.4 368.42,-579.9 368.42,-572.9"/>
</g>
<!-- NVIC&#45;&gt;CORTEX_M4 -->
<g id="edge19" class="edge">
<title>NVIC&#45;&gt;CORTEX_M4</title>
<path fill="none" stroke="black" d="M348.21,-884C375.84,-884 414.5,-884 414.5,-884 414.5,-884 414.5,-722.31 414.5,-722.31"/>
<polygon fill="black" stroke="black" points="418,-722.31 414.5,-712.31 411,-722.31 418,-722.31"/>
</g>
<!-- NVIC&#45;&gt;FLASH -->
<g id="edge26" class="edge">
<title>NVIC&#45;&gt;FLASH</title>
<path fill="none" stroke="black" d="M348.13,-872C363.44,-872 379.5,-872 379.5,-872 379.5,-872 379.5,-281 379.5,-281 379.5,-281 404.45,-281 404.45,-281"/>
<polygon fill="black" stroke="black" points="404.45,-284.5 414.45,-281 404.45,-277.5 404.45,-284.5"/>
</g>
<!-- NVIC&#45;&gt;TIMER -->
<g id="edge32" class="edge">
<title>NVIC&#45;&gt;TIMER</title>
<path fill="none" stroke="black" d="M293.56,-869.82C280.43,-869.82 267.5,-869.82 267.5,-869.82 267.5,-869.82 267.5,-486.8 267.5,-486.8 267.5,-486.8 280.07,-486.8 280.07,-486.8"/>
<polygon fill="black" stroke="black" points="280.07,-490.3 290.07,-486.8 280.07,-483.3 280.07,-490.3"/>
</g>
<!-- NVIC&#45;&gt;CAN -->
<g id="edge48" class="edge">
<title>NVIC&#45;&gt;CAN</title>
<path fill="none" stroke="black" d="M312.5,-896.21C312.5,-901.55 312.5,-906 312.5,-906 312.5,-906 407.07,-906 407.07,-906"/>
<polygon fill="black" stroke="black" points="407.07,-909.5 417.07,-906 407.07,-902.5 407.07,-909.5"/>
</g>
<!-- MICROCONTROLLER -->
<g id="node8" class="node">
<title>MICROCONTROLLER</title>
<polygon fill="none" stroke="black" points="244.25,-739 94,-739 94,-703 244.25,-703 244.25,-739"/>
<text text-anchor="middle" x="169.12" y="-715.95" font-family="Times,serif" font-size="14.00">MICROCONTROLLER</text>
</g>
<!-- MICROCONTROLLER&#45;&gt;NVIC -->
<g id="edge5" class="edge">
<title>MICROCONTROLLER&#45;&gt;NVIC</title>
<path fill="none" stroke="black" d="M213.5,-739.31C213.5,-782.32 213.5,-886.18 213.5,-886.18 213.5,-886.18 282.5,-886.18 282.5,-886.18"/>
<polygon fill="black" stroke="black" points="282.5,-889.68 292.5,-886.18 282.5,-882.68 282.5,-889.68"/>
</g>
<!-- MICROCONTROLLER&#45;&gt;SYSTICK -->
<g id="edge12" class="edge">
<title>MICROCONTROLLER&#45;&gt;SYSTICK</title>
<path fill="none" stroke="black" d="M230.5,-702.69C230.5,-662.83 230.5,-571.71 230.5,-571.71 230.5,-571.71 273.38,-571.71 273.38,-571.71"/>
<polygon fill="black" stroke="black" points="273.38,-575.21 283.38,-571.71 273.38,-568.21 273.38,-575.21"/>
</g>
<!-- INTERRUPT&#45;&gt;NVIC -->
<g id="edge6" class="edge">
<title>INTERRUPT&#45;&gt;NVIC</title>
<path fill="none" stroke="black" d="M214.72,-561.43C238.42,-561.43 262.5,-561.43 262.5,-561.43 262.5,-561.43 262.5,-873.09 262.5,-873.09 262.5,-873.09 282.4,-873.09 282.4,-873.09"/>
<polygon fill="black" stroke="black" points="282.4,-876.59 292.4,-873.09 282.4,-869.59 282.4,-876.59"/>
</g>
<!-- INTERRUPT&#45;&gt;SYSTICK -->
<g id="edge11" class="edge">
<title>INTERRUPT&#45;&gt;SYSTICK</title>
<path fill="none" stroke="black" d="M214.66,-556.29C214.66,-556.29 273.53,-556.29 273.53,-556.29"/>
<polygon fill="black" stroke="black" points="273.53,-559.79 283.53,-556.29 273.53,-552.79 273.53,-559.79"/>
</g>
<!-- INTERRUPT&#45;&gt;TIMER -->
<g id="edge37" class="edge">
<title>INTERRUPT&#45;&gt;TIMER</title>
<path fill="none" stroke="blue" d="M207.5,-545.86C207.5,-521.27 207.5,-480.4 207.5,-480.4 207.5,-480.4 280.09,-480.4 280.09,-480.4"/>
<polygon fill="blue" stroke="blue" points="280.09,-483.9 290.09,-480.4 280.09,-476.9 280.09,-483.9"/>
</g>
<!-- INTERRUPT&#45;&gt;UART -->
<g id="edge43" class="edge">
<title>INTERRUPT&#45;&gt;UART</title>
<path fill="none" stroke="blue" d="M169.5,-582.15C169.5,-603.9 169.5,-637.43 169.5,-637.43 169.5,-637.43 553.37,-637.43 553.37,-637.43"/>
<polygon fill="blue" stroke="blue" points="553.37,-640.93 563.37,-637.43 553.37,-633.93 553.37,-640.93"/>
</g>
<!-- CMSIS -->
<g id="node10" class="node">
<title>CMSIS</title>
<polygon fill="none" stroke="black" points="197.75,-1047 140.5,-1047 140.5,-1011 197.75,-1011 197.75,-1047"/>
<text text-anchor="middle" x="169.12" y="-1023.95" font-family="Times,serif" font-size="14.00">CMSIS</text>
</g>
<!-- CMSIS&#45;&gt;NVIC -->
<g id="edge7" class="edge">
<title>CMSIS&#45;&gt;NVIC</title>
<path fill="none" stroke="black" d="M197.9,-1023C213.45,-1023 229.5,-1023 229.5,-1023 229.5,-1023 229.5,-892.73 229.5,-892.73 229.5,-892.73 282.46,-892.73 282.46,-892.73"/>
<polygon fill="black" stroke="black" points="282.46,-896.23 292.46,-892.73 282.46,-889.23 282.46,-896.23"/>
</g>
<!-- TIME -->
<g id="node12" class="node">
<title>TIME</title>
<polygon fill="none" stroke="black" points="472.25,-558 418.25,-558 418.25,-522 472.25,-522 472.25,-558"/>
<text text-anchor="middle" x="445.25" y="-534.95" font-family="Times,serif" font-size="14.00">TIME</text>
</g>
<!-- SYSTICK&#45;&gt;TIME -->
<g id="edge13" class="edge">
<title>SYSTICK&#45;&gt;TIME</title>
<path fill="none" stroke="black" d="M357.18,-550C357.18,-550 406.8,-550 406.8,-550"/>
<polygon fill="black" stroke="black" points="406.8,-553.5 416.8,-550 406.8,-546.5 406.8,-553.5"/>
</g>
<!-- SYSTICK&#45;&gt;CORTEX_M4 -->
<g id="edge20" class="edge">
<title>SYSTICK&#45;&gt;CORTEX_M4</title>
<path fill="none" stroke="black" d="M357.36,-573.6C381.03,-573.6 407.5,-573.6 407.5,-573.6 407.5,-573.6 407.5,-663.61 407.5,-663.61"/>
<polygon fill="black" stroke="black" points="404,-663.61 407.5,-673.61 411,-663.61 404,-663.61"/>
</g>
<!-- TIME&#45;&gt;GPIO -->
<g id="edge29" class="edge">
<title>TIME&#45;&gt;GPIO</title>
<path fill="none" stroke="black" d="M417.82,-554C402.12,-554 385.5,-554 385.5,-554 385.5,-554 385.5,-940 385.5,-940 385.5,-940 359.28,-940 359.28,-940"/>
<polygon fill="black" stroke="black" points="359.28,-936.5 349.28,-940 359.28,-943.5 359.28,-936.5"/>
</g>
<!-- TIME&#45;&gt;UART -->
<g id="edge38" class="edge">
<title>TIME&#45;&gt;UART</title>
<path fill="none" stroke="black" d="M436.5,-558.23C436.5,-585.13 436.5,-632.29 436.5,-632.29 436.5,-632.29 553.35,-632.29 553.35,-632.29"/>
<polygon fill="black" stroke="black" points="553.35,-635.79 563.35,-632.29 553.35,-628.79 553.35,-635.79"/>
</g>
<!-- LOG -->
<g id="node34" class="node">
<title>LOG</title>
<polygon fill="none" stroke="black" points="1016.5,-567 962.5,-567 962.5,-531 1016.5,-531 1016.5,-567"/>
<text text-anchor="middle" x="989.5" y="-543.95" font-family="Times,serif" font-size="14.00">LOG</text>
</g>
<!-- TIME&#45;&gt;LOG -->
<g id="edge58" class="edge">
<title>TIME&#45;&gt;LOG</title>
<path fill="none" stroke="black" d="M472.61,-537.75C472.61,-537.75 951.08,-537.75 951.08,-537.75"/>
<polygon fill="black" stroke="black" points="951.08,-541.25 961.08,-537.75 951.08,-534.25 951.08,-541.25"/>
</g>
<!-- LED -->
<g id="node38" class="node">
<title>LED</title>
<polygon fill="none" stroke="black" points="618.75,-803 564.75,-803 564.75,-767 618.75,-767 618.75,-803"/>
<text text-anchor="middle" x="591.75" y="-779.95" font-family="Times,serif" font-size="14.00">LED</text>
</g>
<!-- TIME&#45;&gt;LED -->
<g id="edge69" class="edge">
<title>TIME&#45;&gt;LED</title>
<path fill="none" stroke="black" d="M472.58,-551.25C490.83,-551.25 511.5,-551.25 511.5,-551.25 511.5,-551.25 511.5,-779 511.5,-779 511.5,-779 553.58,-779 553.58,-779"/>
<polygon fill="black" stroke="black" points="553.58,-782.5 563.58,-779 553.58,-775.5 553.58,-782.5"/>
</g>
<!-- LED_MONO -->
<g id="node39" class="node">
<title>LED_MONO</title>
<polygon fill="none" stroke="black" points="781.5,-826 690.5,-826 690.5,-790 781.5,-790 781.5,-826"/>
<text text-anchor="middle" x="736" y="-802.95" font-family="Times,serif" font-size="14.00">LED_MONO</text>
</g>
<!-- TIME&#45;&gt;LED_MONO -->
<g id="edge71" class="edge">
<title>TIME&#45;&gt;LED_MONO</title>
<path fill="none" stroke="black" d="M472.4,-544.5C537,-544.5 694.5,-544.5 694.5,-544.5 694.5,-544.5 694.5,-778.89 694.5,-778.89"/>
<polygon fill="black" stroke="black" points="691,-778.89 694.5,-788.89 698,-778.89 691,-778.89"/>
</g>
<!-- SCHEDULER -->
<g id="node40" class="node">
<title>SCHEDULER</title>
<polygon fill="none" stroke="black" points="771,-436 701,-436 701,-400 771,-400 771,-436"/>
<text text-anchor="middle" x="736" y="-412.95" font-family="Times,serif" font-size="14.00">Scheduler</text>
</g>
<!-- TIME&#45;&gt;SCHEDULER -->
<g id="edge76" class="edge">
<title>TIME&#45;&gt;SCHEDULER</title>
<path fill="none" stroke="red" d="M472.63,-528C543.15,-528 725.5,-528 725.5,-528 725.5,-528 725.5,-447.16 725.5,-447.16"/>
<polygon fill="red" stroke="red" points="729,-447.16 725.5,-437.16 722,-447.16 729,-447.16"/>
</g>
<!-- LIMITER -->
<g id="node42" class="node">
<title>LIMITER</title>
<polygon fill="none" stroke="black" points="627.5,-436 556,-436 556,-400 627.5,-400 627.5,-436"/>
<text text-anchor="middle" x="591.75" y="-412.95" font-family="Times,serif" font-size="14.00">LIMITER</text>
</g>
<!-- TIME&#45;&gt;LIMITER -->
<g id="edge81" class="edge">
<title>TIME&#45;&gt;LIMITER</title>
<path fill="none" stroke="black" d="M472.6,-525C515.19,-525 592.5,-525 592.5,-525 592.5,-525 592.5,-447.15 592.5,-447.15"/>
<polygon fill="black" stroke="black" points="596,-447.15 592.5,-437.15 589,-447.15 596,-447.15"/>
</g>
<!-- BUTTON -->
<g id="node47" class="node">
<title>BUTTON</title>
<polygon fill="none" stroke="black" points="627.12,-604 556.38,-604 556.38,-568 627.12,-568 627.12,-604"/>
<text text-anchor="middle" x="591.75" y="-580.95" font-family="Times,serif" font-size="14.00">BUTTON</text>
</g>
<!-- TIME&#45;&gt;BUTTON -->
<g id="edge88" class="edge">
<title>TIME&#45;&gt;BUTTON</title>
<path fill="none" stroke="red" d="M454.5,-558.22C454.5,-568.46 454.5,-579.2 454.5,-579.2 454.5,-579.2 545.05,-579.2 545.05,-579.2"/>
<polygon fill="red" stroke="red" points="545.05,-582.7 555.05,-579.2 545.05,-575.7 545.05,-582.7"/>
</g>
<!-- CORTEX_M4&#45;&gt;NVIC -->
<g id="edge14" class="edge">
<title>CORTEX_M4&#45;&gt;NVIC</title>
<path fill="none" stroke="black" d="M410.5,-711.41C410.5,-758.21 410.5,-878 410.5,-878 410.5,-878 359.25,-878 359.25,-878"/>
<polygon fill="black" stroke="black" points="359.25,-874.5 349.25,-878 359.25,-881.5 359.25,-874.5"/>
</g>
<!-- FPU&#45;&gt;CORTEX_M4 -->
<g id="edge16" class="edge">
<title>FPU&#45;&gt;CORTEX_M4</title>
<path fill="none" stroke="black" d="M348.05,-748C371.8,-748 402.5,-748 402.5,-748 402.5,-748 402.5,-722.31 402.5,-722.31"/>
<polygon fill="black" stroke="black" points="406,-722.31 402.5,-712.31 399,-722.31 406,-722.31"/>
</g>
<!-- THUMB -->
<g id="node15" class="node">
<title>THUMB</title>
<polygon fill="none" stroke="black" points="353.62,-712 288.12,-712 288.12,-676 353.62,-676 353.62,-712"/>
<text text-anchor="middle" x="320.88" y="-688.95" font-family="Times,serif" font-size="14.00">THUMB</text>
</g>
<!-- THUMB&#45;&gt;CORTEX_M4 -->
<g id="edge17" class="edge">
<title>THUMB&#45;&gt;CORTEX_M4</title>
<path fill="none" stroke="black" d="M353.88,-693.5C353.88,-693.5 386.1,-693.5 386.1,-693.5"/>
<polygon fill="black" stroke="black" points="386.1,-697 396.1,-693.5 386.1,-690 386.1,-697"/>
</g>
<!-- ARRAY -->
<g id="node16" class="node">
<title>ARRAY</title>
<polygon fill="none" stroke="black" points="352.12,-290 289.62,-290 289.62,-254 352.12,-254 352.12,-290"/>
<text text-anchor="middle" x="320.88" y="-266.95" font-family="Times,serif" font-size="14.00">ARRAY</text>
</g>
<!-- ARRAY&#45;&gt;FLASH -->
<g id="edge21" class="edge">
<title>ARRAY&#45;&gt;FLASH</title>
<path fill="none" stroke="black" d="M352.58,-263C352.58,-263 404.74,-263 404.74,-263"/>
<polygon fill="black" stroke="black" points="404.74,-266.5 414.74,-263 404.74,-259.5 404.74,-266.5"/>
</g>
<!-- DEBUGGER -->
<g id="node19" class="node">
<title>DEBUGGER</title>
<polygon fill="none" stroke="black" points="636.5,-290 547,-290 547,-254 636.5,-254 636.5,-290"/>
<text text-anchor="middle" x="591.75" y="-266.95" font-family="Times,serif" font-size="14.00">DEBUGGER</text>
</g>
<!-- FLASH&#45;&gt;DEBUGGER -->
<g id="edge67" class="edge">
<title>FLASH&#45;&gt;DEBUGGER</title>
<path fill="none" stroke="black" d="M474.9,-275.6C474.9,-275.6 535.56,-275.6 535.56,-275.6"/>
<polygon fill="black" stroke="black" points="535.56,-279.1 545.56,-275.6 535.56,-272.1 535.56,-279.1"/>
</g>
<!-- FLASH&#45;&gt;SCHEDULER -->
<g id="edge77" class="edge">
<title>FLASH&#45;&gt;SCHEDULER</title>
<path fill="none" stroke="blue" d="M445.5,-290.46C445.5,-295.2 445.5,-299 445.5,-299 445.5,-299 736.5,-299 736.5,-299 736.5,-299 736.5,-388.67 736.5,-388.67"/>
<polygon fill="blue" stroke="blue" points="733,-388.67 736.5,-398.67 740,-388.67 733,-388.67"/>
</g>
<!-- FLASH&#45;&gt;LIMITER -->
<g id="edge82" class="edge">
<title>FLASH&#45;&gt;LIMITER</title>
<path fill="none" stroke="black" d="M475.05,-261.2C482.04,-261.2 487.5,-261.2 487.5,-261.2 487.5,-261.2 487.5,-404 487.5,-404 487.5,-404 544.58,-404 544.58,-404"/>
<polygon fill="black" stroke="black" points="544.58,-407.5 554.58,-404 544.58,-400.5 544.58,-407.5"/>
</g>
<!-- FLASH&#45;&gt;BUTTON -->
<g id="edge87" class="edge">
<title>FLASH&#45;&gt;BUTTON</title>
<path fill="none" stroke="green" d="M474.85,-268.4C478.79,-268.4 481.5,-268.4 481.5,-268.4 481.5,-268.4 481.5,-570.8 481.5,-570.8 481.5,-570.8 544.95,-570.8 544.95,-570.8"/>
<polygon fill="green" stroke="green" points="544.96,-574.3 554.95,-570.8 544.95,-567.3 544.96,-574.3"/>
</g>
<!-- INTERVAL -->
<g id="node18" class="node">
<title>INTERVAL</title>
<polygon fill="none" stroke="black" points="361.5,-236 280.25,-236 280.25,-200 361.5,-200 361.5,-236"/>
<text text-anchor="middle" x="320.88" y="-212.95" font-family="Times,serif" font-size="14.00">INTERVAL</text>
</g>
<!-- INTERVAL&#45;&gt;FLASH -->
<g id="edge23" class="edge">
<title>INTERVAL&#45;&gt;FLASH</title>
<path fill="none" stroke="black" d="M362,-232C401.59,-232 455.5,-232 455.5,-232 455.5,-232 455.5,-242.87 455.5,-242.87"/>
<polygon fill="black" stroke="black" points="452,-242.87 455.5,-252.87 459,-242.87 452,-242.87"/>
</g>
<!-- DEBUGGER&#45;&gt;FLASH -->
<g id="edge24" class="edge">
<title>DEBUGGER&#45;&gt;FLASH</title>
<path fill="none" stroke="black" d="M546.6,-282.8C546.6,-282.8 485.76,-282.8 485.76,-282.8"/>
<polygon fill="black" stroke="black" points="485.76,-279.3 475.76,-282.8 485.76,-286.3 485.76,-279.3"/>
</g>
<!-- FLOAT -->
<g id="node20" class="node">
<title>FLOAT</title>
<polygon fill="none" stroke="black" points="58,-282 0,-282 0,-246 58,-246 58,-282"/>
<text text-anchor="middle" x="29" y="-258.95" font-family="Times,serif" font-size="14.00">FLOAT</text>
</g>
<!-- FLOAT&#45;&gt;FLASH -->
<g id="edge25" class="edge">
<title>FLOAT&#45;&gt;FLASH</title>
<path fill="none" stroke="black" d="M58.23,-250.5C151.44,-250.5 435.5,-250.5 435.5,-250.5 435.5,-250.5 435.5,-250.84 435.5,-250.84"/>
<polygon fill="black" stroke="black" points="432,-242.86 435.5,-252.86 439,-242.86 432,-242.86"/>
</g>
<!-- MATH -->
<g id="node24" class="node">
<title>MATH</title>
<polygon fill="none" stroke="black" points="196.62,-528 141.62,-528 141.62,-492 196.62,-492 196.62,-528"/>
<text text-anchor="middle" x="169.12" y="-504.95" font-family="Times,serif" font-size="14.00">MATH</text>
</g>
<!-- FLOAT&#45;&gt;MATH -->
<g id="edge85" class="edge">
<title>FLOAT&#45;&gt;MATH</title>
<path fill="none" stroke="black" d="M58.36,-263.33C79.93,-263.33 105.5,-263.33 105.5,-263.33 105.5,-263.33 105.5,-504 105.5,-504 105.5,-504 130.4,-504 130.4,-504"/>
<polygon fill="black" stroke="black" points="130.4,-507.5 140.4,-504 130.4,-500.5 130.4,-507.5"/>
</g>
<!-- GPIO&#45;&gt;UART -->
<g id="edge41" class="edge">
<title>GPIO&#45;&gt;UART</title>
<path fill="none" stroke="fuchsia" d="M347.97,-946C407.71,-946 545.5,-946 545.5,-946 545.5,-946 545.5,-652.86 545.5,-652.86 545.5,-652.86 553.31,-652.86 553.31,-652.86"/>
<polygon fill="fuchsia" stroke="fuchsia" points="553.31,-656.36 563.31,-652.86 553.31,-649.36 553.31,-656.36"/>
</g>
<!-- GPIO&#45;&gt;CAN -->
<g id="edge46" class="edge">
<title>GPIO&#45;&gt;CAN</title>
<path fill="none" stroke="black" d="M330.5,-933.79C330.5,-928.45 330.5,-924 330.5,-924 330.5,-924 406.76,-924 406.76,-924"/>
<polygon fill="black" stroke="black" points="406.76,-927.5 416.76,-924 406.76,-920.5 406.76,-927.5"/>
</g>
<!-- GPIO&#45;&gt;LED -->
<g id="edge68" class="edge">
<title>GPIO&#45;&gt;LED</title>
<path fill="none" stroke="black" d="M348.16,-958C417.04,-958 592.5,-958 592.5,-958 592.5,-958 592.5,-814.19 592.5,-814.19"/>
<polygon fill="black" stroke="black" points="596,-814.19 592.5,-804.19 589,-814.19 596,-814.19"/>
</g>
<!-- GPIO&#45;&gt;LED_MONO -->
<g id="edge70" class="edge">
<title>GPIO&#45;&gt;LED_MONO</title>
<path fill="none" stroke="black" d="M348.15,-964C440.61,-964 736.5,-964 736.5,-964 736.5,-964 736.5,-837.2 736.5,-837.2"/>
<polygon fill="black" stroke="black" points="740,-837.2 736.5,-827.2 733,-837.2 740,-837.2"/>
</g>
<!-- GPIO&#45;&gt;BUTTON -->
<g id="edge86" class="edge">
<title>GPIO&#45;&gt;BUTTON</title>
<path fill="none" stroke="blue" d="M348.01,-952C410.94,-952 561.5,-952 561.5,-952 561.5,-952 561.5,-615.4 561.5,-615.4"/>
<polygon fill="blue" stroke="blue" points="565,-615.4 561.5,-605.4 558,-615.4 565,-615.4"/>
</g>
<!-- MCU -->
<g id="node22" class="node">
<title>MCU</title>
<polygon fill="none" stroke="black" points="196.12,-1101 142.12,-1101 142.12,-1065 196.12,-1065 196.12,-1101"/>
<text text-anchor="middle" x="169.12" y="-1077.95" font-family="Times,serif" font-size="14.00">MCU</text>
</g>
<!-- MCU&#45;&gt;GPIO -->
<g id="edge28" class="edge">
<title>MCU&#45;&gt;GPIO</title>
<path fill="none" stroke="black" d="M196.37,-1083C240.2,-1083 321.5,-1083 321.5,-1083 321.5,-1083 321.5,-981.49 321.5,-981.49"/>
<polygon fill="black" stroke="black" points="325,-981.49 321.5,-971.49 318,-981.49 325,-981.49"/>
</g>
<!-- TIMER&#45;&gt;TIME -->
<g id="edge35" class="edge">
<title>TIMER&#45;&gt;TIME</title>
<path fill="none" stroke="black" d="M321.5,-490.45C321.5,-509.67 321.5,-537 321.5,-537 321.5,-537 406.79,-537 406.79,-537"/>
<polygon fill="black" stroke="black" points="406.79,-540.5 416.79,-537 406.79,-533.5 406.79,-540.5"/>
</g>
<!-- MATH&#45;&gt;TIMER -->
<g id="edge34" class="edge">
<title>MATH&#45;&gt;TIMER</title>
<path fill="none" stroke="black" d="M169.5,-491.68C169.5,-484.17 169.5,-477.2 169.5,-477.2 169.5,-477.2 280.33,-477.2 280.33,-477.2"/>
<polygon fill="black" stroke="black" points="280.33,-480.7 290.33,-477.2 280.33,-473.7 280.33,-480.7"/>
</g>
<!-- MATH&#45;&gt;LED_MONO -->
<g id="edge72" class="edge">
<title>MATH&#45;&gt;LED_MONO</title>
<path fill="none" stroke="black" d="M196.79,-507C305.51,-507 697.5,-507 697.5,-507 697.5,-507 697.5,-778.62 697.5,-778.62"/>
<polygon fill="black" stroke="black" points="694,-778.62 697.5,-788.62 701,-778.62 694,-778.62"/>
</g>
<!-- STREAM -->
<g id="node30" class="node">
<title>STREAM</title>
<polygon fill="none" stroke="black" points="907.75,-642 836.25,-642 836.25,-606 907.75,-606 907.75,-642"/>
<text text-anchor="middle" x="872" y="-618.95" font-family="Times,serif" font-size="14.00">STREAM</text>
</g>
<!-- UART&#45;&gt;STREAM -->
<g id="edge49" class="edge">
<title>UART&#45;&gt;STREAM</title>
<path fill="none" stroke="chartreuse" d="M619.13,-635.33C619.13,-635.33 825.2,-635.33 825.2,-635.33"/>
<polygon fill="chartreuse" stroke="chartreuse" points="825.2,-638.83 835.2,-635.33 825.2,-631.83 825.2,-638.83"/>
</g>
<!-- UART&#45;&gt;LOG -->
<g id="edge61" class="edge">
<title>UART&#45;&gt;LOG</title>
<path fill="none" stroke="black" d="M619.09,-650C708.95,-650 989.5,-650 989.5,-650 989.5,-650 989.5,-578.06 989.5,-578.06"/>
<polygon fill="black" stroke="black" points="993,-578.06 989.5,-568.06 986,-578.06 993,-578.06"/>
</g>
<!-- WRITER -->
<g id="node36" class="node">
<title>WRITER</title>
<polygon fill="none" stroke="black" points="770.25,-604 701.75,-604 701.75,-568 770.25,-568 770.25,-604"/>
<text text-anchor="middle" x="736" y="-580.95" font-family="Times,serif" font-size="14.00">WRITER</text>
</g>
<!-- UART&#45;&gt;WRITER -->
<g id="edge65" class="edge">
<title>UART&#45;&gt;WRITER</title>
<path fill="none" stroke="black" d="M619.14,-628.67C658.27,-628.67 725.5,-628.67 725.5,-628.67 725.5,-628.67 725.5,-615.34 725.5,-615.34"/>
<polygon fill="black" stroke="black" points="729,-615.34 725.5,-605.34 722,-615.34 729,-615.34"/>
</g>
<!-- FIFO -->
<g id="node26" class="node">
<title>FIFO</title>
<polygon fill="none" stroke="black" points="472.25,-390 418.25,-390 418.25,-354 472.25,-354 472.25,-390"/>
<text text-anchor="middle" x="445.25" y="-366.95" font-family="Times,serif" font-size="14.00">FIFO</text>
</g>
<!-- FIFO&#45;&gt;UART -->
<g id="edge39" class="edge">
<title>FIFO&#45;&gt;UART</title>
<path fill="none" stroke="black" d="M472.51,-382.8C498.76,-382.8 534.5,-382.8 534.5,-382.8 534.5,-382.8 534.5,-627.14 534.5,-627.14 534.5,-627.14 553.47,-627.14 553.47,-627.14"/>
<polygon fill="black" stroke="black" points="553.47,-630.64 563.47,-627.14 553.47,-623.64 553.47,-630.64"/>
</g>
<!-- STRING_READER -->
<g id="node31" class="node">
<title>STRING_READER</title>
<polygon fill="none" stroke="black" points="654.5,-344 529,-344 529,-308 654.5,-308 654.5,-344"/>
<text text-anchor="middle" x="591.75" y="-320.95" font-family="Times,serif" font-size="14.00">STRING_READER</text>
</g>
<!-- FIFO&#45;&gt;STRING_READER -->
<g id="edge50" class="edge">
<title>FIFO&#45;&gt;STRING_READER</title>
<path fill="none" stroke="aqua" d="M472.61,-361.2C504.09,-361.2 551.5,-361.2 551.5,-361.2 551.5,-361.2 551.5,-355.42 551.5,-355.42"/>
<polygon fill="aqua" stroke="aqua" points="555,-355.42 551.5,-345.42 548,-355.42 555,-355.42"/>
</g>
<!-- FIFO&#45;&gt;LOG -->
<g id="edge60" class="edge">
<title>FIFO&#45;&gt;LOG</title>
<path fill="none" stroke="black" d="M472.53,-368.4C581.6,-368.4 980.5,-368.4 980.5,-368.4 980.5,-368.4 980.5,-519.69 980.5,-519.69"/>
<polygon fill="black" stroke="black" points="977,-519.69 980.5,-529.69 984,-519.69 977,-519.69"/>
</g>
<!-- FIFO&#45;&gt;WRITER -->
<g id="edge64" class="edge">
<title>FIFO&#45;&gt;WRITER</title>
<path fill="none" stroke="black" d="M472.54,-375.6C526.46,-375.6 641.5,-375.6 641.5,-375.6 641.5,-375.6 641.5,-586 641.5,-586 641.5,-586 690.35,-586 690.35,-586"/>
<polygon fill="black" stroke="black" points="690.35,-589.5 700.35,-586 690.35,-582.5 690.35,-589.5"/>
</g>
<!-- DMA -->
<g id="node27" class="node">
<title>DMA</title>
<polygon fill="none" stroke="black" points="472.25,-803 418.25,-803 418.25,-767 472.25,-767 472.25,-803"/>
<text text-anchor="middle" x="445.25" y="-779.95" font-family="Times,serif" font-size="14.00">DMA</text>
</g>
<!-- DMA&#45;&gt;UART -->
<g id="edge40" class="edge">
<title>DMA&#45;&gt;UART</title>
<path fill="none" stroke="green" d="M472.54,-791C500.69,-791 540.5,-791 540.5,-791 540.5,-791 540.5,-647.71 540.5,-647.71 540.5,-647.71 553.32,-647.71 553.32,-647.71"/>
<polygon fill="green" stroke="green" points="553.32,-651.21 563.32,-647.71 553.32,-644.21 553.32,-651.21"/>
</g>
<!-- RAM -->
<g id="node28" class="node">
<title>RAM</title>
<polygon fill="none" stroke="black" points="196.12,-236 142.12,-236 142.12,-200 196.12,-200 196.12,-236"/>
<text text-anchor="middle" x="169.12" y="-212.95" font-family="Times,serif" font-size="14.00">RAM</text>
</g>
<!-- RAM&#45;&gt;ARRAY -->
<g id="edge44" class="edge">
<title>RAM&#45;&gt;ARRAY</title>
<path fill="none" stroke="blue" d="M185.5,-236.2C185.5,-252.11 185.5,-272.67 185.5,-272.67 185.5,-272.67 278.14,-272.67 278.14,-272.67"/>
<polygon fill="blue" stroke="blue" points="278.14,-276.17 288.14,-272.67 278.14,-269.17 278.14,-276.17"/>
</g>
<!-- RAM&#45;&gt;INTERVAL -->
<g id="edge83" class="edge">
<title>RAM&#45;&gt;INTERVAL</title>
<path fill="none" stroke="black" d="M196.61,-218C196.61,-218 268.87,-218 268.87,-218"/>
<polygon fill="black" stroke="black" points="268.87,-221.5 278.87,-218 268.87,-214.5 268.87,-221.5"/>
</g>
<!-- RAM&#45;&gt;FIFO -->
<g id="edge45" class="edge">
<title>RAM&#45;&gt;FIFO</title>
<path fill="none" stroke="black" d="M164.5,-236.27C164.5,-277.06 164.5,-372 164.5,-372 164.5,-372 406.82,-372 406.82,-372"/>
<polygon fill="black" stroke="black" points="406.82,-375.5 416.82,-372 406.82,-368.5 406.82,-375.5"/>
</g>
<!-- CSV -->
<g id="node35" class="node">
<title>CSV</title>
<polygon fill="none" stroke="black" points="1016.5,-264 962.5,-264 962.5,-228 1016.5,-228 1016.5,-264"/>
<text text-anchor="middle" x="989.5" y="-240.95" font-family="Times,serif" font-size="14.00">CSV</text>
</g>
<!-- RAM&#45;&gt;CSV -->
<g id="edge56" class="edge">
<title>RAM&#45;&gt;CSV</title>
<path fill="none" stroke="black" d="M153.5,-236.12C153.5,-238.97 153.5,-241 153.5,-241 153.5,-241 951.16,-241 951.16,-241"/>
<polygon fill="black" stroke="black" points="951.16,-244.5 961.16,-241 951.16,-237.5 951.16,-244.5"/>
</g>
<!-- CRC8 -->
<g id="node43" class="node">
<title>CRC8</title>
<polygon fill="none" stroke="black" points="347.88,-182 293.88,-182 293.88,-146 347.88,-146 347.88,-182"/>
<text text-anchor="middle" x="320.88" y="-158.95" font-family="Times,serif" font-size="14.00">CRC8</text>
</g>
<!-- RAM&#45;&gt;CRC8 -->
<g id="edge78" class="edge">
<title>RAM&#45;&gt;CRC8</title>
<path fill="none" stroke="black" d="M178.5,-199.72C178.5,-184.05 178.5,-164 178.5,-164 178.5,-164 282.42,-164 282.42,-164"/>
<polygon fill="black" stroke="black" points="282.42,-167.5 292.42,-164 282.42,-160.5 282.42,-167.5"/>
</g>
<!-- CRC16 -->
<g id="node44" class="node">
<title>CRC16</title>
<polygon fill="none" stroke="black" points="349.12,-128 292.62,-128 292.62,-92 349.12,-92 349.12,-128"/>
<text text-anchor="middle" x="320.88" y="-104.95" font-family="Times,serif" font-size="14.00">CRC16</text>
</g>
<!-- RAM&#45;&gt;CRC16 -->
<g id="edge79" class="edge">
<title>RAM&#45;&gt;CRC16</title>
<path fill="none" stroke="black" d="M160.5,-199.68C160.5,-168.87 160.5,-110 160.5,-110 160.5,-110 281.2,-110 281.2,-110"/>
<polygon fill="black" stroke="black" points="281.2,-113.5 291.2,-110 281.2,-106.5 281.2,-113.5"/>
</g>
<!-- CRC32 -->
<g id="node45" class="node">
<title>CRC32</title>
<polygon fill="none" stroke="black" points="349.12,-344 292.62,-344 292.62,-308 349.12,-308 349.12,-344"/>
<text text-anchor="middle" x="320.88" y="-320.95" font-family="Times,serif" font-size="14.00">CRC32</text>
</g>
<!-- RAM&#45;&gt;CRC32 -->
<g id="edge80" class="edge">
<title>RAM&#45;&gt;CRC32</title>
<path fill="none" stroke="black" d="M175.5,-236.32C175.5,-267.13 175.5,-326 175.5,-326 175.5,-326 281.15,-326 281.15,-326"/>
<polygon fill="black" stroke="black" points="281.15,-329.5 291.15,-326 281.15,-322.5 281.15,-329.5"/>
</g>
<!-- CLI -->
<g id="node33" class="node">
<title>CLI</title>
<polygon fill="none" stroke="black" points="1106.5,-348 1052.5,-348 1052.5,-312 1106.5,-312 1106.5,-348"/>
<text text-anchor="middle" x="1079.5" y="-324.95" font-family="Times,serif" font-size="14.00">CLI</text>
</g>
<!-- STREAM&#45;&gt;CLI -->
<g id="edge53" class="edge">
<title>STREAM&#45;&gt;CLI</title>
<path fill="none" stroke="aqua" d="M908.24,-624C969.87,-624 1088.5,-624 1088.5,-624 1088.5,-624 1088.5,-359.39 1088.5,-359.39"/>
<polygon fill="aqua" stroke="aqua" points="1092,-359.39 1088.5,-349.39 1085,-359.39 1092,-359.39"/>
</g>
<!-- STREAM&#45;&gt;LOG -->
<g id="edge59" class="edge">
<title>STREAM&#45;&gt;LOG</title>
<path fill="none" stroke="black" d="M872.5,-605.67C872.5,-588.03 872.5,-564 872.5,-564 872.5,-564 951.07,-564 951.07,-564"/>
<polygon fill="black" stroke="black" points="951.07,-567.5 961.07,-564 951.07,-560.5 951.07,-567.5"/>
</g>
<!-- STRING_READER&#45;&gt;CLI -->
<g id="edge52" class="edge">
<title>STRING_READER&#45;&gt;CLI</title>
<path fill="none" stroke="aqua" d="M654.52,-333.33C654.52,-333.33 1041.12,-333.33 1041.12,-333.33"/>
<polygon fill="aqua" stroke="aqua" points="1041.12,-336.83 1051.12,-333.33 1041.12,-329.83 1041.12,-336.83"/>
</g>
<!-- STRING -->
<g id="node32" class="node">
<title>STRING</title>
<polygon fill="none" stroke="black" points="904.38,-283 839.62,-283 839.62,-247 904.38,-247 904.38,-283"/>
<text text-anchor="middle" x="872" y="-259.95" font-family="Times,serif" font-size="14.00">STRING</text>
</g>
<!-- STRING&#45;&gt;CLI -->
<g id="edge51" class="edge">
<title>STRING&#45;&gt;CLI</title>
<path fill="none" stroke="aqua" d="M904.42,-273.5C962.78,-273.5 1079.5,-273.5 1079.5,-273.5 1079.5,-273.5 1079.5,-300.81 1079.5,-300.81"/>
<polygon fill="aqua" stroke="aqua" points="1076,-300.81 1079.5,-310.81 1083,-300.81 1076,-300.81"/>
</g>
<!-- STRING&#45;&gt;CSV -->
<g id="edge57" class="edge">
<title>STRING&#45;&gt;CSV</title>
<path fill="none" stroke="black" d="M904.73,-255.5C904.73,-255.5 951.11,-255.5 951.11,-255.5"/>
<polygon fill="black" stroke="black" points="951.11,-259 961.11,-255.5 951.11,-252 951.11,-259"/>
</g>
<!-- LOG&#45;&gt;CLI -->
<g id="edge54" class="edge">
<title>LOG&#45;&gt;CLI</title>
<path fill="none" stroke="aqua" d="M1016.92,-549C1040.42,-549 1070.5,-549 1070.5,-549 1070.5,-549 1070.5,-359.3 1070.5,-359.3"/>
<polygon fill="aqua" stroke="aqua" points="1074,-359.3 1070.5,-349.3 1067,-359.3 1074,-359.3"/>
</g>
<!-- CSV&#45;&gt;CLI -->
<g id="edge55" class="edge">
<title>CSV&#45;&gt;CLI</title>
<path fill="none" stroke="aqua" d="M998.5,-264.17C998.5,-286.84 998.5,-322.67 998.5,-322.67 998.5,-322.67 1041.08,-322.67 1041.08,-322.67"/>
<polygon fill="aqua" stroke="aqua" points="1041.08,-326.17 1051.08,-322.67 1041.08,-319.17 1041.08,-326.17"/>
</g>
<!-- WRITER&#45;&gt;STREAM -->
<g id="edge63" class="edge">
<title>WRITER&#45;&gt;STREAM</title>
<path fill="none" stroke="black" d="M747.5,-604.21C747.5,-609.55 747.5,-614 747.5,-614 747.5,-614 824.99,-614 824.99,-614"/>
<polygon fill="black" stroke="black" points="824.99,-617.5 834.99,-614 824.99,-610.5 824.99,-617.5"/>
</g>
<!-- WRITER&#45;&gt;LOG -->
<g id="edge62" class="edge">
<title>WRITER&#45;&gt;LOG</title>
<path fill="none" stroke="black" d="M747.5,-567.57C747.5,-563.82 747.5,-561 747.5,-561 747.5,-561 951.21,-561 951.21,-561"/>
<polygon fill="black" stroke="black" points="951.21,-564.5 961.21,-561 951.21,-557.5 951.21,-564.5"/>
</g>
<!-- LED&#45;&gt;LED_MONO -->
<g id="edge73" class="edge">
<title>LED&#45;&gt;LED_MONO</title>
<path fill="none" stroke="black" d="M619.22,-796.5C619.22,-796.5 679.19,-796.5 679.19,-796.5"/>
<polygon fill="black" stroke="black" points="679.19,-800 689.19,-796.5 679.19,-793 679.19,-800"/>
</g>
<!-- SUPER_CYCLE -->
<g id="node41" class="node">
<title>SUPER_CYCLE</title>
<polygon fill="none" stroke="black" points="926.5,-436 817.5,-436 817.5,-400 926.5,-400 926.5,-436"/>
<text text-anchor="middle" x="872" y="-412.95" font-family="Times,serif" font-size="14.00">SUPER_CYCLE</text>
</g>
<!-- SCHEDULER&#45;&gt;SUPER_CYCLE -->
<g id="edge74" class="edge">
<title>SCHEDULER&#45;&gt;SUPER_CYCLE</title>
<path fill="none" stroke="black" d="M771.38,-418C771.38,-418 806.03,-418 806.03,-418"/>
<polygon fill="black" stroke="black" points="806.03,-421.5 816.03,-418 806.03,-414.5 806.03,-421.5"/>
</g>
<!-- LIMITER&#45;&gt;SCHEDULER -->
<g id="edge75" class="edge">
<title>LIMITER&#45;&gt;SCHEDULER</title>
<path fill="none" stroke="green" d="M627.78,-418C627.78,-418 689.93,-418 689.93,-418"/>
<polygon fill="green" stroke="green" points="689.93,-421.5 699.93,-418 689.93,-414.5 689.93,-421.5"/>
</g>
<!-- ASM -->
<g id="node46" class="node">
<title>ASM</title>
<polygon fill="none" stroke="black" points="56,-528 2,-528 2,-492 56,-492 56,-528"/>
<text text-anchor="middle" x="29" y="-504.95" font-family="Times,serif" font-size="14.00">ASM</text>
</g>
<!-- ASM&#45;&gt;MATH -->
<g id="edge84" class="edge">
<title>ASM&#45;&gt;MATH</title>
<path fill="none" stroke="black" d="M56.35,-516C56.35,-516 130.36,-516 130.36,-516"/>
<polygon fill="black" stroke="black" points="130.36,-519.5 140.36,-516 130.36,-512.5 130.36,-519.5"/>
</g>
</g>
</svg>
