<?xml version="1.0" encoding="UTF-8" standalone="no"?>
<!DOCTYPE svg PUBLIC "-//W3C//DTD SVG 1.1//EN"
 "http://www.w3.org/Graphics/SVG/1.1/DTD/svg11.dtd">
<!-- Generated by graphviz version 8.0.5 (20230508.1809)
 -->
<!-- Title: graphname Pages: 1 -->
<svg width="1161pt" height="1029pt"
 viewBox="0.00 0.00 1160.50 1029.00" xmlns="http://www.w3.org/2000/svg" xmlns:xlink="http://www.w3.org/1999/xlink">
<g id="graph0" class="graph" transform="scale(1 1) rotate(0) translate(4 1025)">
<title>graphname</title>
<polygon fill="white" stroke="none" points="-4,4 -4,-1025 1156.5,-1025 1156.5,4 -4,4"/>
<!-- XXX -->
<g id="node1" class="node">
<title>XXX</title>
<polygon fill="none" stroke="black" points="102.12,-110 48.12,-110 48.12,-74 102.12,-74 102.12,-110"/>
<text text-anchor="middle" x="75.12" y="-86.95" font-family="Times,serif" font-size="14.00">XXX</text>
</g>
<!-- I2S_ECHO -->
<g id="node2" class="node">
<title>I2S_ECHO</title>
<polygon fill="none" stroke="black" points="264.5,-110 186.25,-110 186.25,-74 264.5,-74 264.5,-110"/>
<text text-anchor="middle" x="225.38" y="-86.95" font-family="Times,serif" font-size="14.00">I2S_ECHO</text>
</g>
<!-- XXX&#45;&gt;I2S_ECHO -->
<g id="edge1" class="edge">
<title>XXX&#45;&gt;I2S_ECHO</title>
<path fill="none" stroke="black" d="M102.33,-92C102.33,-92 174.93,-92 174.93,-92"/>
<polygon fill="black" stroke="black" points="174.93,-95.5 184.93,-92 174.93,-88.5 174.93,-95.5"/>
</g>
<!-- DEBUGGER -->
<g id="node3" class="node">
<title>DEBUGGER</title>
<polygon fill="none" stroke="black" points="521.5,-868 432,-868 432,-832 521.5,-832 521.5,-868"/>
<text text-anchor="middle" x="476.75" y="-844.95" font-family="Times,serif" font-size="14.00">DEBUGGER</text>
</g>
<!-- CORE -->
<g id="node4" class="node">
<title>CORE</title>
<polygon fill="none" stroke="black" points="620.25,-1021 566.25,-1021 566.25,-985 620.25,-985 620.25,-1021"/>
<text text-anchor="middle" x="593.25" y="-997.95" font-family="Times,serif" font-size="14.00">CORE</text>
</g>
<!-- DEBUGGER&#45;&gt;CORE -->
<g id="edge2" class="edge">
<title>DEBUGGER&#45;&gt;CORE</title>
<path fill="none" stroke="black" d="M513.5,-868.5C513.5,-907.32 513.5,-993.75 513.5,-993.75 513.5,-993.75 554.8,-993.75 554.8,-993.75"/>
<polygon fill="black" stroke="black" points="554.8,-997.25 564.8,-993.75 554.8,-990.25 554.8,-997.25"/>
</g>
<!-- FLASH -->
<g id="node19" class="node">
<title>FLASH</title>
<polygon fill="none" stroke="black" points="622.62,-814 563.88,-814 563.88,-778 622.62,-778 622.62,-814"/>
<text text-anchor="middle" x="593.25" y="-790.95" font-family="Times,serif" font-size="14.00">FLASH</text>
</g>
<!-- DEBUGGER&#45;&gt;FLASH -->
<g id="edge28" class="edge">
<title>DEBUGGER&#45;&gt;FLASH</title>
<path fill="none" stroke="black" d="M521.84,-844C534.8,-844 545.5,-844 545.5,-844 545.5,-844 545.5,-802 545.5,-802 545.5,-802 552.55,-802 552.55,-802"/>
<polygon fill="black" stroke="black" points="552.55,-805.5 562.55,-802 552.55,-798.5 552.55,-805.5"/>
</g>
<!-- BOOT -->
<g id="node38" class="node">
<title>BOOT</title>
<polygon fill="none" stroke="black" points="737.5,-1021 683.5,-1021 683.5,-985 737.5,-985 737.5,-1021"/>
<text text-anchor="middle" x="710.5" y="-997.95" font-family="Times,serif" font-size="14.00">BOOT</text>
</g>
<!-- CORE&#45;&gt;BOOT -->
<g id="edge70" class="edge">
<title>CORE&#45;&gt;BOOT</title>
<path fill="none" stroke="black" d="M620.74,-1003C620.74,-1003 672.18,-1003 672.18,-1003"/>
<polygon fill="black" stroke="black" points="672.18,-1006.5 682.18,-1003 672.18,-999.5 672.18,-1006.5"/>
</g>
<!-- CLOCK -->
<g id="node5" class="node">
<title>CLOCK</title>
<polygon fill="none" stroke="black" points="106,-1020 44.25,-1020 44.25,-984 106,-984 106,-1020"/>
<text text-anchor="middle" x="75.12" y="-996.95" font-family="Times,serif" font-size="14.00">CLOCK</text>
</g>
<!-- CLOCK&#45;&gt;CORE -->
<g id="edge3" class="edge">
<title>CLOCK&#45;&gt;CORE</title>
<path fill="none" stroke="black" d="M106.37,-1011.25C106.37,-1011.25 554.8,-1011.25 554.8,-1011.25"/>
<polygon fill="black" stroke="black" points="554.8,-1014.75 564.8,-1011.25 554.8,-1007.75 554.8,-1014.75"/>
</g>
<!-- SYSTICK -->
<g id="node12" class="node">
<title>SYSTICK</title>
<polygon fill="none" stroke="black" points="261.5,-944 189.25,-944 189.25,-908 261.5,-908 261.5,-944"/>
<text text-anchor="middle" x="225.38" y="-920.95" font-family="Times,serif" font-size="14.00">SYSTICK</text>
</g>
<!-- CLOCK&#45;&gt;SYSTICK -->
<g id="edge11" class="edge">
<title>CLOCK&#45;&gt;SYSTICK</title>
<path fill="none" stroke="black" d="M106.28,-1002.5C150.33,-1002.5 225.5,-1002.5 225.5,-1002.5 225.5,-1002.5 225.5,-955.13 225.5,-955.13"/>
<polygon fill="black" stroke="black" points="229,-955.13 225.5,-945.13 222,-955.13 229,-955.13"/>
</g>
<!-- REG -->
<g id="node6" class="node">
<title>REG</title>
<polygon fill="none" stroke="black" points="102.12,-714 48.12,-714 48.12,-678 102.12,-678 102.12,-714"/>
<text text-anchor="middle" x="75.12" y="-690.95" font-family="Times,serif" font-size="14.00">REG</text>
</g>
<!-- NVIC -->
<g id="node7" class="node">
<title>NVIC</title>
<polygon fill="none" stroke="black" points="503.75,-960 449.75,-960 449.75,-924 503.75,-924 503.75,-960"/>
<text text-anchor="middle" x="476.75" y="-936.95" font-family="Times,serif" font-size="14.00">NVIC</text>
</g>
<!-- REG&#45;&gt;NVIC -->
<g id="edge4" class="edge">
<title>REG&#45;&gt;NVIC</title>
<path fill="none" stroke="black" d="M102.41,-704C182.03,-704 408.5,-704 408.5,-704 408.5,-704 408.5,-929.71 408.5,-929.71 408.5,-929.71 438.38,-929.71 438.38,-929.71"/>
<polygon fill="black" stroke="black" points="438.38,-933.21 448.38,-929.71 438.38,-926.21 438.38,-933.21"/>
</g>
<!-- REG&#45;&gt;SYSTICK -->
<g id="edge9" class="edge">
<title>REG&#45;&gt;SYSTICK</title>
<path fill="none" stroke="black" d="M66.5,-714.17C66.5,-767.19 66.5,-918 66.5,-918 66.5,-918 177.93,-918 177.93,-918"/>
<polygon fill="black" stroke="black" points="177.93,-921.5 187.93,-918 177.93,-914.5 177.93,-921.5"/>
</g>
<!-- CORTEX_M4 -->
<g id="node14" class="node">
<title>CORTEX_M4</title>
<polygon fill="none" stroke="black" points="396,-852 300.5,-852 300.5,-816 396,-816 396,-852"/>
<text text-anchor="middle" x="348.25" y="-828.95" font-family="Times,serif" font-size="14.00">CORTEX_M4</text>
</g>
<!-- REG&#45;&gt;CORTEX_M4 -->
<g id="edge19" class="edge">
<title>REG&#45;&gt;CORTEX_M4</title>
<path fill="none" stroke="black" d="M102.58,-709C165.46,-709 314.5,-709 314.5,-709 314.5,-709 314.5,-804.56 314.5,-804.56"/>
<polygon fill="black" stroke="black" points="311,-804.56 314.5,-814.56 318,-804.56 311,-804.56"/>
</g>
<!-- FPU -->
<g id="node15" class="node">
<title>FPU</title>
<polygon fill="none" stroke="black" points="252.38,-890 198.38,-890 198.38,-854 252.38,-854 252.38,-890"/>
<text text-anchor="middle" x="225.38" y="-866.95" font-family="Times,serif" font-size="14.00">FPU</text>
</g>
<!-- REG&#45;&gt;FPU -->
<g id="edge16" class="edge">
<title>REG&#45;&gt;FPU</title>
<path fill="none" stroke="black" d="M84.5,-714.17C84.5,-759.14 84.5,-872 84.5,-872 84.5,-872 186.88,-872 186.88,-872"/>
<polygon fill="black" stroke="black" points="186.88,-875.5 196.88,-872 186.88,-868.5 186.88,-875.5"/>
</g>
<!-- DMA -->
<g id="node17" class="node">
<title>DMA</title>
<polygon fill="none" stroke="black" points="503.75,-386 449.75,-386 449.75,-350 503.75,-350 503.75,-386"/>
<text text-anchor="middle" x="476.75" y="-362.95" font-family="Times,serif" font-size="14.00">DMA</text>
</g>
<!-- REG&#45;&gt;DMA -->
<g id="edge22" class="edge">
<title>REG&#45;&gt;DMA</title>
<path fill="none" stroke="black" d="M66.5,-677.68C66.5,-610.38 66.5,-380.67 66.5,-380.67 66.5,-380.67 438.51,-380.67 438.51,-380.67"/>
<polygon fill="black" stroke="black" points="438.51,-384.17 448.51,-380.67 438.51,-377.17 438.51,-384.17"/>
</g>
<!-- REG&#45;&gt;FLASH -->
<g id="edge26" class="edge">
<title>REG&#45;&gt;FLASH</title>
<path fill="none" stroke="black" d="M102.27,-699C208.92,-699 593.5,-699 593.5,-699 593.5,-699 593.5,-766.76 593.5,-766.76"/>
<polygon fill="black" stroke="black" points="590,-766.76 593.5,-776.76 597,-766.76 590,-766.76"/>
</g>
<!-- GPIO -->
<g id="node22" class="node">
<title>GPIO</title>
<polygon fill="none" stroke="black" points="503.75,-516 449.75,-516 449.75,-480 503.75,-480 503.75,-516"/>
<text text-anchor="middle" x="476.75" y="-492.95" font-family="Times,serif" font-size="14.00">GPIO</text>
</g>
<!-- REG&#45;&gt;GPIO -->
<g id="edge31" class="edge">
<title>REG&#45;&gt;GPIO</title>
<path fill="none" stroke="black" d="M84.5,-677.73C84.5,-628.71 84.5,-498 84.5,-498 84.5,-498 438.48,-498 438.48,-498"/>
<polygon fill="black" stroke="black" points="438.48,-501.5 448.48,-498 438.48,-494.5 438.48,-501.5"/>
</g>
<!-- I2C -->
<g id="node24" class="node">
<title>I2C</title>
<polygon fill="none" stroke="black" points="620.25,-370 566.25,-370 566.25,-334 620.25,-334 620.25,-370"/>
<text text-anchor="middle" x="593.25" y="-346.95" font-family="Times,serif" font-size="14.00">I2C</text>
</g>
<!-- REG&#45;&gt;I2C -->
<g id="edge34" class="edge">
<title>REG&#45;&gt;I2C</title>
<path fill="none" stroke="black" d="M102.34,-694C198.35,-694 515.5,-694 515.5,-694 515.5,-694 515.5,-362 515.5,-362 515.5,-362 555.06,-362 555.06,-362"/>
<polygon fill="black" stroke="black" points="555.06,-365.5 565.06,-362 555.06,-358.5 555.06,-365.5"/>
</g>
<!-- UART -->
<g id="node27" class="node">
<title>UART</title>
<polygon fill="none" stroke="black" points="620.25,-262 566.25,-262 566.25,-226 620.25,-226 620.25,-262"/>
<text text-anchor="middle" x="593.25" y="-238.95" font-family="Times,serif" font-size="14.00">UART</text>
</g>
<!-- REG&#45;&gt;UART -->
<g id="edge43" class="edge">
<title>REG&#45;&gt;UART</title>
<path fill="none" stroke="darkorange" d="M102.44,-689C186.94,-689 438.5,-689 438.5,-689 438.5,-689 438.5,-249 438.5,-249 438.5,-249 554.94,-249 554.94,-249"/>
<polygon fill="darkorange" stroke="darkorange" points="554.94,-252.5 564.94,-249 554.94,-245.5 554.94,-252.5"/>
</g>
<!-- ARM -->
<g id="node8" class="node">
<title>ARM</title>
<polygon fill="none" stroke="black" points="620.25,-960 566.25,-960 566.25,-924 620.25,-924 620.25,-960"/>
<text text-anchor="middle" x="593.25" y="-936.95" font-family="Times,serif" font-size="14.00">ARM</text>
</g>
<!-- NVIC&#45;&gt;ARM -->
<g id="edge5" class="edge">
<title>NVIC&#45;&gt;ARM</title>
<path fill="none" stroke="black" d="M504.06,-951C504.06,-951 555.11,-951 555.11,-951"/>
<polygon fill="black" stroke="black" points="555.11,-954.5 565.11,-951 555.11,-947.5 555.11,-954.5"/>
</g>
<!-- NVIC&#45;&gt;SYSTICK -->
<g id="edge10" class="edge">
<title>NVIC&#45;&gt;SYSTICK</title>
<path fill="none" stroke="black" d="M449.37,-941.14C449.37,-941.14 272.61,-941.14 272.61,-941.14"/>
<polygon fill="black" stroke="black" points="272.61,-937.64 262.61,-941.14 272.61,-944.64 272.61,-937.64"/>
</g>
<!-- NVIC&#45;&gt;CORTEX_M4 -->
<g id="edge20" class="edge">
<title>NVIC&#45;&gt;CORTEX_M4</title>
<path fill="none" stroke="black" d="M449.46,-932.57C424.19,-932.57 390.5,-932.57 390.5,-932.57 390.5,-932.57 390.5,-863.08 390.5,-863.08"/>
<polygon fill="black" stroke="black" points="394,-863.08 390.5,-853.08 387,-863.08 394,-863.08"/>
</g>
<!-- NVIC&#45;&gt;FLASH -->
<g id="edge30" class="edge">
<title>NVIC&#45;&gt;FLASH</title>
<path fill="none" stroke="black" d="M504.16,-942C525.49,-942 551.5,-942 551.5,-942 551.5,-942 551.5,-808 551.5,-808 551.5,-808 552.8,-808 552.8,-808"/>
<polygon fill="black" stroke="black" points="552.8,-811.5 562.8,-808 552.8,-804.5 552.8,-811.5"/>
</g>
<!-- NVIC&#45;&gt;I2C -->
<g id="edge36" class="edge">
<title>NVIC&#45;&gt;I2C</title>
<path fill="none" stroke="black" d="M504.2,-933C516.16,-933 527.5,-933 527.5,-933 527.5,-933 527.5,-366 527.5,-366 527.5,-366 555.13,-366 555.13,-366"/>
<polygon fill="black" stroke="black" points="555.13,-369.5 565.13,-366 555.13,-362.5 555.13,-369.5"/>
</g>
<!-- MICROCONTROLLER -->
<g id="node9" class="node">
<title>MICROCONTROLLER</title>
<polygon fill="none" stroke="black" points="150.25,-959 0,-959 0,-923 150.25,-923 150.25,-959"/>
<text text-anchor="middle" x="75.12" y="-935.95" font-family="Times,serif" font-size="14.00">MICROCONTROLLER</text>
</g>
<!-- MICROCONTROLLER&#45;&gt;NVIC -->
<g id="edge6" class="edge">
<title>MICROCONTROLLER&#45;&gt;NVIC</title>
<path fill="none" stroke="black" d="M150.67,-951.5C150.67,-951.5 438.36,-951.5 438.36,-951.5"/>
<polygon fill="black" stroke="black" points="438.36,-955 448.36,-951.5 438.36,-948 438.36,-955"/>
</g>
<!-- MICROCONTROLLER&#45;&gt;SYSTICK -->
<g id="edge13" class="edge">
<title>MICROCONTROLLER&#45;&gt;SYSTICK</title>
<path fill="none" stroke="black" d="M150.69,-933.5C150.69,-933.5 177.87,-933.5 177.87,-933.5"/>
<polygon fill="black" stroke="black" points="177.87,-937 187.87,-933.5 177.87,-930 177.87,-937"/>
</g>
<!-- INTERRUPT -->
<g id="node10" class="node">
<title>INTERRUPT</title>
<polygon fill="none" stroke="black" points="120.25,-378 30,-378 30,-342 120.25,-342 120.25,-378"/>
<text text-anchor="middle" x="75.12" y="-354.95" font-family="Times,serif" font-size="14.00">INTERRUPT</text>
</g>
<!-- INTERRUPT&#45;&gt;NVIC -->
<g id="edge7" class="edge">
<title>INTERRUPT&#45;&gt;NVIC</title>
<path fill="none" stroke="black" d="M120.63,-368.67C214.42,-368.67 420.5,-368.67 420.5,-368.67 420.5,-368.67 420.5,-926.86 420.5,-926.86 420.5,-926.86 438.28,-926.86 438.28,-926.86"/>
<polygon fill="black" stroke="black" points="438.28,-930.36 448.28,-926.86 438.28,-923.36 438.28,-930.36"/>
</g>
<!-- INTERRUPT&#45;&gt;SYSTICK -->
<g id="edge12" class="edge">
<title>INTERRUPT&#45;&gt;SYSTICK</title>
<path fill="none" stroke="black" d="M111.5,-378.4C111.5,-474.35 111.5,-913 111.5,-913 111.5,-913 178.03,-913 178.03,-913"/>
<polygon fill="black" stroke="black" points="178.03,-916.5 188.03,-913 178.03,-909.5 178.03,-916.5"/>
</g>
<!-- INTERRUPT&#45;&gt;DMA -->
<g id="edge24" class="edge">
<title>INTERRUPT&#45;&gt;DMA</title>
<path fill="none" stroke="blue" d="M120.42,-359.33C120.42,-359.33 438.48,-359.33 438.48,-359.33"/>
<polygon fill="blue" stroke="blue" points="438.48,-362.83 448.48,-359.33 438.48,-355.83 438.48,-362.83"/>
</g>
<!-- INTERRUPT&#45;&gt;UART -->
<g id="edge44" class="edge">
<title>INTERRUPT&#45;&gt;UART</title>
<path fill="none" stroke="blue" d="M114.5,-341.72C114.5,-308.81 114.5,-243 114.5,-243 114.5,-243 554.79,-243 554.79,-243"/>
<polygon fill="blue" stroke="blue" points="554.79,-246.5 564.79,-243 554.79,-239.5 554.79,-246.5"/>
</g>
<!-- FIFO -->
<g id="node28" class="node">
<title>FIFO</title>
<polygon fill="none" stroke="black" points="503.75,-140 449.75,-140 449.75,-104 503.75,-104 503.75,-140"/>
<text text-anchor="middle" x="476.75" y="-116.95" font-family="Times,serif" font-size="14.00">FIFO</text>
</g>
<!-- INTERRUPT&#45;&gt;FIFO -->
<g id="edge48" class="edge">
<title>INTERRUPT&#45;&gt;FIFO</title>
<path fill="none" stroke="black" d="M108.5,-341.56C108.5,-286.16 108.5,-125 108.5,-125 108.5,-125 438.37,-125 438.37,-125"/>
<polygon fill="black" stroke="black" points="438.37,-128.5 448.37,-125 438.37,-121.5 438.37,-128.5"/>
</g>
<!-- CMSIS -->
<g id="node11" class="node">
<title>CMSIS</title>
<polygon fill="none" stroke="black" points="376.88,-906 319.62,-906 319.62,-870 376.88,-870 376.88,-906"/>
<text text-anchor="middle" x="348.25" y="-882.95" font-family="Times,serif" font-size="14.00">CMSIS</text>
</g>
<!-- CMSIS&#45;&gt;NVIC -->
<g id="edge8" class="edge">
<title>CMSIS&#45;&gt;NVIC</title>
<path fill="none" stroke="black" d="M348.5,-906.44C348.5,-920.79 348.5,-938.29 348.5,-938.29 348.5,-938.29 438.55,-938.29 438.55,-938.29"/>
<polygon fill="black" stroke="black" points="438.55,-941.79 448.55,-938.29 438.55,-934.79 438.55,-941.79"/>
</g>
<!-- TIME -->
<g id="node13" class="node">
<title>TIME</title>
<polygon fill="none" stroke="black" points="375.25,-608 321.25,-608 321.25,-572 375.25,-572 375.25,-608"/>
<text text-anchor="middle" x="348.25" y="-584.95" font-family="Times,serif" font-size="14.00">TIME</text>
</g>
<!-- SYSTICK&#45;&gt;TIME -->
<g id="edge14" class="edge">
<title>SYSTICK&#45;&gt;TIME</title>
<path fill="none" stroke="black" d="M261.88,-913.33C273.07,-913.33 282.5,-913.33 282.5,-913.33 282.5,-913.33 282.5,-596 282.5,-596 282.5,-596 310.13,-596 310.13,-596"/>
<polygon fill="black" stroke="black" points="310.13,-599.5 320.13,-596 310.13,-592.5 310.13,-599.5"/>
</g>
<!-- SYSTICK&#45;&gt;CORTEX_M4 -->
<g id="edge21" class="edge">
<title>SYSTICK&#45;&gt;CORTEX_M4</title>
<path fill="none" stroke="black" d="M261.98,-918.67C286.19,-918.67 313.5,-918.67 313.5,-918.67 313.5,-918.67 313.5,-863.37 313.5,-863.37"/>
<polygon fill="black" stroke="black" points="317,-863.37 313.5,-853.37 310,-863.37 317,-863.37"/>
</g>
<!-- TIME&#45;&gt;DMA -->
<g id="edge23" class="edge">
<title>TIME&#45;&gt;DMA</title>
<path fill="none" stroke="black" d="M375.72,-581C403.23,-581 441.5,-581 441.5,-581 441.5,-581 441.5,-383.33 441.5,-383.33 441.5,-383.33 442.28,-383.33 442.28,-383.33"/>
<polygon fill="black" stroke="black" points="438.32,-386.83 448.32,-383.33 438.32,-379.83 438.32,-386.83"/>
</g>
<!-- TIME&#45;&gt;GPIO -->
<g id="edge33" class="edge">
<title>TIME&#45;&gt;GPIO</title>
<path fill="none" stroke="black" d="M375.66,-590C413.6,-590 477.5,-590 477.5,-590 477.5,-590 477.5,-527.18 477.5,-527.18"/>
<polygon fill="black" stroke="black" points="481,-527.18 477.5,-517.18 474,-527.18 481,-527.18"/>
</g>
<!-- TIME&#45;&gt;UART -->
<g id="edge39" class="edge">
<title>TIME&#45;&gt;UART</title>
<path fill="none" stroke="black" d="M375.64,-576.5C381.77,-576.5 386.5,-576.5 386.5,-576.5 386.5,-576.5 386.5,-246 386.5,-246 386.5,-246 554.8,-246 554.8,-246"/>
<polygon fill="black" stroke="black" points="554.8,-249.5 564.8,-246 554.8,-242.5 554.8,-249.5"/>
</g>
<!-- LOG -->
<g id="node36" class="node">
<title>LOG</title>
<polygon fill="none" stroke="black" points="1026.75,-268 972.75,-268 972.75,-232 1026.75,-232 1026.75,-268"/>
<text text-anchor="middle" x="999.75" y="-244.95" font-family="Times,serif" font-size="14.00">LOG</text>
</g>
<!-- TIME&#45;&gt;LOG -->
<g id="edge62" class="edge">
<title>TIME&#45;&gt;LOG</title>
<path fill="none" stroke="black" d="M375.45,-599C498.89,-599 1000.5,-599 1000.5,-599 1000.5,-599 1000.5,-279.27 1000.5,-279.27"/>
<polygon fill="black" stroke="black" points="1004,-279.27 1000.5,-269.27 997,-279.27 1004,-279.27"/>
</g>
<!-- LED -->
<g id="node39" class="node">
<title>LED</title>
<polygon fill="none" stroke="black" points="620.25,-462 566.25,-462 566.25,-426 620.25,-426 620.25,-462"/>
<text text-anchor="middle" x="593.25" y="-438.95" font-family="Times,serif" font-size="14.00">LED</text>
</g>
<!-- TIME&#45;&gt;LED -->
<g id="edge73" class="edge">
<title>TIME&#45;&gt;LED</title>
<path fill="none" stroke="black" d="M375.54,-585.5C403.69,-585.5 443.5,-585.5 443.5,-585.5 443.5,-585.5 443.5,-438 443.5,-438 443.5,-438 554.78,-438 554.78,-438"/>
<polygon fill="black" stroke="black" points="554.78,-441.5 564.78,-438 554.78,-434.5 554.78,-441.5"/>
</g>
<!-- LED_MONO -->
<g id="node40" class="node">
<title>LED_MONO</title>
<polygon fill="none" stroke="black" points="756,-497 665,-497 665,-461 756,-461 756,-497"/>
<text text-anchor="middle" x="710.5" y="-473.95" font-family="Times,serif" font-size="14.00">LED_MONO</text>
</g>
<!-- TIME&#45;&gt;LED_MONO -->
<g id="edge75" class="edge">
<title>TIME&#45;&gt;LED_MONO</title>
<path fill="none" stroke="black" d="M375.72,-594.5C453.65,-594.5 670.5,-594.5 670.5,-594.5 670.5,-594.5 670.5,-508.3 670.5,-508.3"/>
<polygon fill="black" stroke="black" points="674,-508.3 670.5,-498.3 667,-508.3 674,-508.3"/>
</g>
<!-- SCHEDULER -->
<g id="node42" class="node">
<title>SCHEDULER</title>
<polygon fill="none" stroke="black" points="745.5,-868 675.5,-868 675.5,-832 745.5,-832 745.5,-868"/>
<text text-anchor="middle" x="710.5" y="-844.95" font-family="Times,serif" font-size="14.00">Scheduler</text>
</g>
<!-- TIME&#45;&gt;SCHEDULER -->
<g id="edge80" class="edge">
<title>TIME&#45;&gt;SCHEDULER</title>
<path fill="none" stroke="red" d="M375.6,-603.5C449.47,-603.5 647.5,-603.5 647.5,-603.5 647.5,-603.5 647.5,-844 647.5,-844 647.5,-844 664.32,-844 664.32,-844"/>
<polygon fill="red" stroke="red" points="664.32,-847.5 674.32,-844 664.32,-840.5 664.32,-847.5"/>
</g>
<!-- BUTTON -->
<g id="node46" class="node">
<title>BUTTON</title>
<polygon fill="none" stroke="black" points="745.88,-684 675.12,-684 675.12,-648 745.88,-648 745.88,-684"/>
<text text-anchor="middle" x="710.5" y="-660.95" font-family="Times,serif" font-size="14.00">BUTTON</text>
</g>
<!-- TIME&#45;&gt;BUTTON -->
<g id="edge86" class="edge">
<title>TIME&#45;&gt;BUTTON</title>
<path fill="none" stroke="red" d="M348.5,-608.42C348.5,-630.05 348.5,-663 348.5,-663 348.5,-663 663.8,-663 663.8,-663"/>
<polygon fill="red" stroke="red" points="663.8,-666.5 673.8,-663 663.8,-659.5 663.8,-666.5"/>
</g>
<!-- CORTEX_M4&#45;&gt;NVIC -->
<g id="edge15" class="edge">
<title>CORTEX_M4&#45;&gt;NVIC</title>
<path fill="none" stroke="black" d="M383.5,-852.13C383.5,-881.31 383.5,-935.43 383.5,-935.43 383.5,-935.43 438.28,-935.43 438.28,-935.43"/>
<polygon fill="black" stroke="black" points="438.28,-938.93 448.28,-935.43 438.28,-931.93 438.28,-938.93"/>
</g>
<!-- FPU&#45;&gt;CORTEX_M4 -->
<g id="edge17" class="edge">
<title>FPU&#45;&gt;CORTEX_M4</title>
<path fill="none" stroke="black" d="M252.72,-861C276.61,-861 307.5,-861 307.5,-861 307.5,-861 307.5,-860.15 307.5,-860.15"/>
<polygon fill="black" stroke="black" points="311,-863.46 307.5,-853.46 304,-863.46 311,-863.46"/>
</g>
<!-- THUMB -->
<g id="node16" class="node">
<title>THUMB</title>
<polygon fill="none" stroke="black" points="258.12,-798 192.62,-798 192.62,-762 258.12,-762 258.12,-798"/>
<text text-anchor="middle" x="225.38" y="-774.95" font-family="Times,serif" font-size="14.00">THUMB</text>
</g>
<!-- THUMB&#45;&gt;CORTEX_M4 -->
<g id="edge18" class="edge">
<title>THUMB&#45;&gt;CORTEX_M4</title>
<path fill="none" stroke="black" d="M258.31,-788C281.15,-788 307.5,-788 307.5,-788 307.5,-788 307.5,-804.56 307.5,-804.56"/>
<polygon fill="black" stroke="black" points="304,-804.56 307.5,-814.56 311,-804.56 304,-804.56"/>
</g>
<!-- I2S -->
<g id="node25" class="node">
<title>I2S</title>
<polygon fill="none" stroke="black" points="620.25,-316 566.25,-316 566.25,-280 620.25,-280 620.25,-316"/>
<text text-anchor="middle" x="593.25" y="-292.95" font-family="Times,serif" font-size="14.00">I2S</text>
</g>
<!-- DMA&#45;&gt;I2S -->
<g id="edge38" class="edge">
<title>DMA&#45;&gt;I2S</title>
<path fill="none" stroke="black" d="M477.5,-349.78C477.5,-331.17 477.5,-305 477.5,-305 477.5,-305 554.82,-305 554.82,-305"/>
<polygon fill="black" stroke="black" points="554.82,-308.5 564.82,-305 554.82,-301.5 554.82,-308.5"/>
</g>
<!-- DMA&#45;&gt;UART -->
<g id="edge41" class="edge">
<title>DMA&#45;&gt;UART</title>
<path fill="none" stroke="green" d="M503.99,-354C507.83,-354 510.5,-354 510.5,-354 510.5,-354 510.5,-252 510.5,-252 510.5,-252 555.15,-252 555.15,-252"/>
<polygon fill="green" stroke="green" points="555.15,-255.5 565.15,-252 555.15,-248.5 555.15,-255.5"/>
</g>
<!-- ARRAY -->
<g id="node18" class="node">
<title>ARRAY</title>
<polygon fill="none" stroke="black" points="508,-294 445.5,-294 445.5,-258 508,-258 508,-294"/>
<text text-anchor="middle" x="476.75" y="-270.95" font-family="Times,serif" font-size="14.00">ARRAY</text>
</g>
<!-- ARRAY&#45;&gt;FLASH -->
<g id="edge25" class="edge">
<title>ARRAY&#45;&gt;FLASH</title>
<path fill="none" stroke="black" d="M508.44,-287C521.44,-287 533.5,-287 533.5,-287 533.5,-287 533.5,-784 533.5,-784 533.5,-784 552.38,-784 552.38,-784"/>
<polygon fill="black" stroke="black" points="552.38,-787.5 562.38,-784 552.37,-780.5 552.38,-787.5"/>
</g>
<!-- FLASH&#45;&gt;DEBUGGER -->
<g id="edge71" class="edge">
<title>FLASH&#45;&gt;DEBUGGER</title>
<path fill="none" stroke="black" d="M563.55,-796C551.11,-796 539.5,-796 539.5,-796 539.5,-796 539.5,-856 539.5,-856 539.5,-856 532.69,-856 532.69,-856"/>
<polygon fill="black" stroke="black" points="532.69,-852.5 522.69,-856 532.69,-859.5 532.69,-852.5"/>
</g>
<!-- FLASH&#45;&gt;SCHEDULER -->
<g id="edge81" class="edge">
<title>FLASH&#45;&gt;SCHEDULER</title>
<path fill="none" stroke="blue" d="M622.84,-796C657.57,-796 710.5,-796 710.5,-796 710.5,-796 710.5,-820.72 710.5,-820.72"/>
<polygon fill="blue" stroke="blue" points="707,-820.72 710.5,-830.72 714,-820.72 707,-820.72"/>
</g>
<!-- FLASH&#45;&gt;BUTTON -->
<g id="edge85" class="edge">
<title>FLASH&#45;&gt;BUTTON</title>
<path fill="none" stroke="green" d="M607.5,-777.75C607.5,-742.94 607.5,-670.5 607.5,-670.5 607.5,-670.5 663.76,-670.5 663.76,-670.5"/>
<polygon fill="green" stroke="green" points="663.76,-674 673.76,-670.5 663.76,-667 663.76,-674"/>
</g>
<!-- INTERVAL -->
<g id="node20" class="node">
<title>INTERVAL</title>
<polygon fill="none" stroke="black" points="517.38,-814 436.12,-814 436.12,-778 517.38,-778 517.38,-814"/>
<text text-anchor="middle" x="476.75" y="-790.95" font-family="Times,serif" font-size="14.00">INTERVAL</text>
</g>
<!-- INTERVAL&#45;&gt;FLASH -->
<g id="edge27" class="edge">
<title>INTERVAL&#45;&gt;FLASH</title>
<path fill="none" stroke="black" d="M517.82,-790C517.82,-790 552.52,-790 552.52,-790"/>
<polygon fill="black" stroke="black" points="552.52,-793.5 562.52,-790 552.52,-786.5 552.52,-793.5"/>
</g>
<!-- FLOAT -->
<g id="node21" class="node">
<title>FLOAT</title>
<polygon fill="none" stroke="black" points="505.75,-760 447.75,-760 447.75,-724 505.75,-724 505.75,-760"/>
<text text-anchor="middle" x="476.75" y="-736.95" font-family="Times,serif" font-size="14.00">FLOAT</text>
</g>
<!-- FLOAT&#45;&gt;FLASH -->
<g id="edge29" class="edge">
<title>FLOAT&#45;&gt;FLASH</title>
<path fill="none" stroke="black" d="M506.19,-742C536.56,-742 579.5,-742 579.5,-742 579.5,-742 579.5,-766.72 579.5,-766.72"/>
<polygon fill="black" stroke="black" points="576,-766.72 579.5,-776.72 583,-766.72 576,-766.72"/>
</g>
<!-- GPIO&#45;&gt;I2C -->
<g id="edge35" class="edge">
<title>GPIO&#45;&gt;I2C</title>
<path fill="none" stroke="black" d="M504.18,-504C510.04,-504 514.5,-504 514.5,-504 514.5,-504 514.5,-358 514.5,-358 514.5,-358 555.15,-358 555.15,-358"/>
<polygon fill="black" stroke="black" points="555.15,-361.5 565.15,-358 555.15,-354.5 555.15,-361.5"/>
</g>
<!-- GPIO&#45;&gt;UART -->
<g id="edge42" class="edge">
<title>GPIO&#45;&gt;UART</title>
<path fill="none" stroke="fuchsia" d="M504.21,-492C509.01,-492 512.5,-492 512.5,-492 512.5,-492 512.5,-255 512.5,-255 512.5,-255 554.91,-255 554.91,-255"/>
<polygon fill="fuchsia" stroke="fuchsia" points="554.91,-258.5 564.91,-255 554.91,-251.5 554.91,-258.5"/>
</g>
<!-- GPIO&#45;&gt;LED -->
<g id="edge72" class="edge">
<title>GPIO&#45;&gt;LED</title>
<path fill="none" stroke="black" d="M486.5,-479.58C486.5,-466.04 486.5,-450 486.5,-450 486.5,-450 554.76,-450 554.76,-450"/>
<polygon fill="black" stroke="black" points="554.76,-453.5 564.76,-450 554.76,-446.5 554.76,-453.5"/>
</g>
<!-- GPIO&#45;&gt;LED_MONO -->
<g id="edge74" class="edge">
<title>GPIO&#45;&gt;LED_MONO</title>
<path fill="none" stroke="black" d="M468.5,-479.54C468.5,-474.8 468.5,-471 468.5,-471 468.5,-471 653.7,-471 653.7,-471"/>
<polygon fill="black" stroke="black" points="653.7,-474.5 663.7,-471 653.7,-467.5 653.7,-474.5"/>
</g>
<!-- GPIO&#45;&gt;BUTTON -->
<g id="edge84" class="edge">
<title>GPIO&#45;&gt;BUTTON</title>
<path fill="none" stroke="blue" d="M490.5,-516.38C490.5,-557.92 490.5,-655.5 490.5,-655.5 490.5,-655.5 663.66,-655.5 663.66,-655.5"/>
<polygon fill="blue" stroke="blue" points="663.66,-659 673.66,-655.5 663.66,-652 663.66,-659"/>
</g>
<!-- MCU -->
<g id="node23" class="node">
<title>MCU</title>
<polygon fill="none" stroke="black" points="375.25,-554 321.25,-554 321.25,-518 375.25,-518 375.25,-554"/>
<text text-anchor="middle" x="348.25" y="-530.95" font-family="Times,serif" font-size="14.00">MCU</text>
</g>
<!-- MCU&#45;&gt;GPIO -->
<g id="edge32" class="edge">
<title>MCU&#45;&gt;GPIO</title>
<path fill="none" stroke="black" d="M375.56,-536C409.64,-536 463.5,-536 463.5,-536 463.5,-536 463.5,-527.11 463.5,-527.11"/>
<polygon fill="black" stroke="black" points="467,-527.11 463.5,-517.11 460,-527.11 467,-527.11"/>
</g>
<!-- WM8731 -->
<g id="node45" class="node">
<title>WM8731</title>
<polygon fill="none" stroke="black" points="745.12,-423 675.88,-423 675.88,-387 745.12,-387 745.12,-423"/>
<text text-anchor="middle" x="710.5" y="-399.95" font-family="Times,serif" font-size="14.00">WM8731</text>
</g>
<!-- I2C&#45;&gt;WM8731 -->
<g id="edge82" class="edge">
<title>I2C&#45;&gt;WM8731</title>
<path fill="none" stroke="black" d="M620.69,-351.5C645.61,-351.5 678.5,-351.5 678.5,-351.5 678.5,-351.5 678.5,-375.59 678.5,-375.59"/>
<polygon fill="black" stroke="black" points="675,-375.59 678.5,-385.59 682,-375.59 675,-375.59"/>
</g>
<!-- DDS -->
<g id="node26" class="node">
<title>DDS</title>
<polygon fill="none" stroke="black" points="737.5,-369 683.5,-369 683.5,-333 737.5,-333 737.5,-369"/>
<text text-anchor="middle" x="710.5" y="-345.95" font-family="Times,serif" font-size="14.00">DDS</text>
</g>
<!-- I2S&#45;&gt;DDS -->
<g id="edge37" class="edge">
<title>I2S&#45;&gt;DDS</title>
<path fill="none" stroke="black" d="M620.74,-292C655.4,-292 710.5,-292 710.5,-292 710.5,-292 710.5,-321.66 710.5,-321.66"/>
<polygon fill="black" stroke="black" points="707,-321.66 710.5,-331.66 714,-321.66 707,-321.66"/>
</g>
<!-- I2S&#45;&gt;WM8731 -->
<g id="edge83" class="edge">
<title>I2S&#45;&gt;WM8731</title>
<path fill="none" stroke="black" d="M620.38,-304C645.99,-304 680.5,-304 680.5,-304 680.5,-304 680.5,-375.94 680.5,-375.94"/>
<polygon fill="black" stroke="black" points="677,-375.94 680.5,-385.94 684,-375.94 677,-375.94"/>
</g>
<!-- STRING_READER -->
<g id="node32" class="node">
<title>STRING_READER</title>
<polygon fill="none" stroke="black" points="1062.5,-128 937,-128 937,-92 1062.5,-92 1062.5,-128"/>
<text text-anchor="middle" x="999.75" y="-104.95" font-family="Times,serif" font-size="14.00">STRING_READER</text>
</g>
<!-- UART&#45;&gt;STRING_READER -->
<g id="edge52" class="edge">
<title>UART&#45;&gt;STRING_READER</title>
<path fill="none" stroke="chartreuse" d="M602.5,-225.7C602.5,-191.21 602.5,-120 602.5,-120 602.5,-120 925.8,-120 925.8,-120"/>
<polygon fill="chartreuse" stroke="chartreuse" points="925.8,-123.5 935.8,-120 925.8,-116.5 925.8,-123.5"/>
</g>
<!-- STREAM -->
<g id="node33" class="node">
<title>STREAM</title>
<polygon fill="none" stroke="black" points="882.25,-220 810.75,-220 810.75,-184 882.25,-184 882.25,-220"/>
<text text-anchor="middle" x="846.5" y="-196.95" font-family="Times,serif" font-size="14.00">STREAM</text>
</g>
<!-- UART&#45;&gt;STREAM -->
<g id="edge51" class="edge">
<title>UART&#45;&gt;STREAM</title>
<path fill="none" stroke="chartreuse" d="M620.35,-250C685.68,-250 846.5,-250 846.5,-250 846.5,-250 846.5,-231.42 846.5,-231.42"/>
<polygon fill="chartreuse" stroke="chartreuse" points="850,-231.42 846.5,-221.42 843,-231.42 850,-231.42"/>
</g>
<!-- WRITER -->
<g id="node34" class="node">
<title>WRITER</title>
<polygon fill="none" stroke="black" points="744.75,-220 676.25,-220 676.25,-184 744.75,-184 744.75,-220"/>
<text text-anchor="middle" x="710.5" y="-196.95" font-family="Times,serif" font-size="14.00">WRITER</text>
</g>
<!-- UART&#45;&gt;WRITER -->
<g id="edge69" class="edge">
<title>UART&#45;&gt;WRITER</title>
<path fill="none" stroke="black" d="M620.51,-244C646.76,-244 682.5,-244 682.5,-244 682.5,-244 682.5,-231.06 682.5,-231.06"/>
<polygon fill="black" stroke="black" points="686,-231.06 682.5,-221.06 679,-231.06 686,-231.06"/>
</g>
<!-- UART&#45;&gt;LOG -->
<g id="edge65" class="edge">
<title>UART&#45;&gt;LOG</title>
<path fill="none" stroke="black" d="M620.55,-256C620.55,-256 961.3,-256 961.3,-256"/>
<polygon fill="black" stroke="black" points="961.3,-259.5 971.3,-256 961.3,-252.5 961.3,-259.5"/>
</g>
<!-- FIFO&#45;&gt;UART -->
<g id="edge40" class="edge">
<title>FIFO&#45;&gt;UART</title>
<path fill="none" stroke="black" d="M504.22,-136C536.14,-136 584.5,-136 584.5,-136 584.5,-136 584.5,-214.68 584.5,-214.68"/>
<polygon fill="black" stroke="black" points="581,-214.68 584.5,-224.68 588,-214.68 581,-214.68"/>
</g>
<!-- FIFO&#45;&gt;STRING_READER -->
<g id="edge53" class="edge">
<title>FIFO&#45;&gt;STRING_READER</title>
<path fill="none" stroke="aqua" d="M504.13,-112C504.13,-112 925.55,-112 925.55,-112"/>
<polygon fill="aqua" stroke="aqua" points="925.55,-115.5 935.55,-112 925.55,-108.5 925.55,-115.5"/>
</g>
<!-- FIFO&#45;&gt;WRITER -->
<g id="edge68" class="edge">
<title>FIFO&#45;&gt;WRITER</title>
<path fill="none" stroke="black" d="M477.5,-140.17C477.5,-161.5 477.5,-194 477.5,-194 477.5,-194 664.87,-194 664.87,-194"/>
<polygon fill="black" stroke="black" points="664.87,-197.5 674.87,-194 664.87,-190.5 664.87,-197.5"/>
</g>
<!-- FIFO&#45;&gt;LOG -->
<g id="edge64" class="edge">
<title>FIFO&#45;&gt;LOG</title>
<path fill="none" stroke="black" d="M504.17,-132C611.94,-132 1000.5,-132 1000.5,-132 1000.5,-132 1000.5,-220.56 1000.5,-220.56"/>
<polygon fill="black" stroke="black" points="997,-220.56 1000.5,-230.56 1004,-220.56 997,-220.56"/>
</g>
<!-- UART2 -->
<g id="node29" class="node">
<title>UART2</title>
<polygon fill="none" stroke="black" points="506.12,-240 447.38,-240 447.38,-204 506.12,-204 506.12,-240"/>
<text text-anchor="middle" x="476.75" y="-216.95" font-family="Times,serif" font-size="14.00">UART2</text>
</g>
<!-- UART2&#45;&gt;UART -->
<g id="edge45" class="edge">
<title>UART2&#45;&gt;UART</title>
<path fill="none" stroke="black" d="M506.45,-233C506.45,-233 555,-233 555,-233"/>
<polygon fill="black" stroke="black" points="555,-236.5 565,-233 555,-229.5 555,-236.5"/>
</g>
<!-- RAM -->
<g id="node30" class="node">
<title>RAM</title>
<polygon fill="none" stroke="black" points="375.25,-110 321.25,-110 321.25,-74 375.25,-74 375.25,-110"/>
<text text-anchor="middle" x="348.25" y="-86.95" font-family="Times,serif" font-size="14.00">RAM</text>
</g>
<!-- RAM&#45;&gt;ARRAY -->
<g id="edge46" class="edge">
<title>RAM&#45;&gt;ARRAY</title>
<path fill="none" stroke="blue" d="M348.5,-110.32C348.5,-156.86 348.5,-276 348.5,-276 348.5,-276 434.05,-276 434.05,-276"/>
<polygon fill="blue" stroke="blue" points="434.05,-279.5 444.05,-276 434.05,-272.5 434.05,-279.5"/>
</g>
<!-- RAM&#45;&gt;FIFO -->
<g id="edge47" class="edge">
<title>RAM&#45;&gt;FIFO</title>
<path fill="none" stroke="black" d="M375.66,-98C413.6,-98 477.5,-98 477.5,-98 477.5,-98 477.5,-98.56 477.5,-98.56"/>
<polygon fill="black" stroke="black" points="474,-92.57 477.5,-102.57 481,-92.57 474,-92.57"/>
</g>
<!-- CSV -->
<g id="node37" class="node">
<title>CSV</title>
<polygon fill="none" stroke="black" points="1026.75,-36 972.75,-36 972.75,0 1026.75,0 1026.75,-36"/>
<text text-anchor="middle" x="999.75" y="-12.95" font-family="Times,serif" font-size="14.00">CSV</text>
</g>
<!-- RAM&#45;&gt;CSV -->
<g id="edge60" class="edge">
<title>RAM&#45;&gt;CSV</title>
<path fill="none" stroke="black" d="M375.45,-83C498.89,-83 1000.5,-83 1000.5,-83 1000.5,-83 1000.5,-47.45 1000.5,-47.45"/>
<polygon fill="black" stroke="black" points="1004,-47.45 1000.5,-37.45 997,-47.45 1004,-47.45"/>
</g>
<!-- STRING -->
<g id="node31" class="node">
<title>STRING</title>
<polygon fill="none" stroke="black" points="878.88,-52 814.12,-52 814.12,-16 878.88,-16 878.88,-52"/>
<text text-anchor="middle" x="846.5" y="-28.95" font-family="Times,serif" font-size="14.00">STRING</text>
</g>
<!-- STRING&#45;&gt;STRING_READER -->
<g id="edge49" class="edge">
<title>STRING&#45;&gt;STRING_READER</title>
<path fill="none" stroke="aqua" d="M879.2,-46.67C911.31,-46.67 955.5,-46.67 955.5,-46.67 955.5,-46.67 955.5,-80.68 955.5,-80.68"/>
<polygon fill="aqua" stroke="aqua" points="952,-80.68 955.5,-90.68 959,-80.68 952,-80.68"/>
</g>
<!-- CLI -->
<g id="node35" class="node">
<title>CLI</title>
<polygon fill="none" stroke="black" points="1152.5,-151 1098.5,-151 1098.5,-115 1152.5,-115 1152.5,-151"/>
<text text-anchor="middle" x="1125.5" y="-127.95" font-family="Times,serif" font-size="14.00">CLI</text>
</g>
<!-- STRING&#45;&gt;CLI -->
<g id="edge55" class="edge">
<title>STRING&#45;&gt;CLI</title>
<path fill="none" stroke="aqua" d="M879.34,-41.33C951.29,-41.33 1116.5,-41.33 1116.5,-41.33 1116.5,-41.33 1116.5,-103.89 1116.5,-103.89"/>
<polygon fill="aqua" stroke="aqua" points="1113,-103.89 1116.5,-113.89 1120,-103.89 1113,-103.89"/>
</g>
<!-- STRING&#45;&gt;CSV -->
<g id="edge61" class="edge">
<title>STRING&#45;&gt;CSV</title>
<path fill="none" stroke="black" d="M879,-26C879,-26 961.42,-26 961.42,-26"/>
<polygon fill="black" stroke="black" points="961.42,-29.5 971.42,-26 961.42,-22.5 961.42,-29.5"/>
</g>
<!-- STRING_READER&#45;&gt;CLI -->
<g id="edge56" class="edge">
<title>STRING_READER&#45;&gt;CLI</title>
<path fill="none" stroke="aqua" d="M1062.99,-121.5C1062.99,-121.5 1087.09,-121.5 1087.09,-121.5"/>
<polygon fill="aqua" stroke="aqua" points="1087.09,-125 1097.09,-121.5 1087.09,-118 1087.09,-125"/>
</g>
<!-- STREAM&#45;&gt;STRING_READER -->
<g id="edge50" class="edge">
<title>STREAM&#45;&gt;STRING_READER</title>
<path fill="none" stroke="black" d="M882.49,-196C914.24,-196 955.5,-196 955.5,-196 955.5,-196 955.5,-139.24 955.5,-139.24"/>
<polygon fill="black" stroke="black" points="959,-139.24 955.5,-129.24 952,-139.24 959,-139.24"/>
</g>
<!-- STREAM&#45;&gt;CLI -->
<g id="edge57" class="edge">
<title>STREAM&#45;&gt;CLI</title>
<path fill="none" stroke="aqua" d="M846.5,-183.81C846.5,-167.3 846.5,-145.5 846.5,-145.5 846.5,-145.5 1087.24,-145.5 1087.24,-145.5"/>
<polygon fill="aqua" stroke="aqua" points="1087.24,-149 1097.24,-145.5 1087.24,-142 1087.24,-149"/>
</g>
<!-- STREAM&#45;&gt;LOG -->
<g id="edge63" class="edge">
<title>STREAM&#45;&gt;LOG</title>
<path fill="none" stroke="black" d="M882.55,-208C924.03,-208 986.5,-208 986.5,-208 986.5,-208 986.5,-220.94 986.5,-220.94"/>
<polygon fill="black" stroke="black" points="983,-220.94 986.5,-230.94 990,-220.94 983,-220.94"/>
</g>
<!-- WRITER&#45;&gt;STREAM -->
<g id="edge67" class="edge">
<title>WRITER&#45;&gt;STREAM</title>
<path fill="none" stroke="black" d="M745.17,-202C745.17,-202 799.47,-202 799.47,-202"/>
<polygon fill="black" stroke="black" points="799.47,-205.5 809.47,-202 799.47,-198.5 799.47,-205.5"/>
</g>
<!-- WRITER&#45;&gt;CLI -->
<g id="edge54" class="edge">
<title>WRITER&#45;&gt;CLI</title>
<path fill="none" stroke="aqua" d="M710.5,-183.58C710.5,-166.18 710.5,-142.75 710.5,-142.75 710.5,-142.75 1087.27,-142.75 1087.27,-142.75"/>
<polygon fill="aqua" stroke="aqua" points="1087.27,-146.25 1097.27,-142.75 1087.27,-139.25 1087.27,-146.25"/>
</g>
<!-- WRITER&#45;&gt;LOG -->
<g id="edge66" class="edge">
<title>WRITER&#45;&gt;LOG</title>
<path fill="none" stroke="black" d="M741.5,-220.42C741.5,-229.28 741.5,-238 741.5,-238 741.5,-238 961.6,-238 961.6,-238"/>
<polygon fill="black" stroke="black" points="961.6,-241.5 971.6,-238 961.6,-234.5 961.6,-241.5"/>
</g>
<!-- LOG&#45;&gt;CLI -->
<g id="edge58" class="edge">
<title>LOG&#45;&gt;CLI</title>
<path fill="none" stroke="aqua" d="M1013.5,-231.81C1013.5,-202.54 1013.5,-148.25 1013.5,-148.25 1013.5,-148.25 1087.1,-148.25 1087.1,-148.25"/>
<polygon fill="aqua" stroke="aqua" points="1087.1,-151.75 1097.1,-148.25 1087.1,-144.75 1087.1,-151.75"/>
</g>
<!-- CSV&#45;&gt;CLI -->
<g id="edge59" class="edge">
<title>CSV&#45;&gt;CLI</title>
<path fill="none" stroke="aqua" d="M1027.02,-18C1066.39,-18 1134.5,-18 1134.5,-18 1134.5,-18 1134.5,-103.52 1134.5,-103.52"/>
<polygon fill="aqua" stroke="aqua" points="1131,-103.52 1134.5,-113.52 1138,-103.52 1131,-103.52"/>
</g>
<!-- LED&#45;&gt;LED_MONO -->
<g id="edge77" class="edge">
<title>LED&#45;&gt;LED_MONO</title>
<path fill="none" stroke="black" d="M620.7,-443.5C642.91,-443.5 670.5,-443.5 670.5,-443.5 670.5,-443.5 670.5,-449.83 670.5,-449.83"/>
<polygon fill="black" stroke="black" points="667,-449.83 670.5,-459.83 674,-449.83 667,-449.83"/>
</g>
<!-- MATH -->
<g id="node41" class="node">
<title>MATH</title>
<polygon fill="none" stroke="black" points="620.75,-516 565.75,-516 565.75,-480 620.75,-480 620.75,-516"/>
<text text-anchor="middle" x="593.25" y="-492.95" font-family="Times,serif" font-size="14.00">MATH</text>
</g>
<!-- MATH&#45;&gt;LED_MONO -->
<g id="edge76" class="edge">
<title>MATH&#45;&gt;LED_MONO</title>
<path fill="none" stroke="black" d="M621.04,-488.5C621.04,-488.5 653.58,-488.5 653.58,-488.5"/>
<polygon fill="black" stroke="black" points="653.58,-492 663.58,-488.5 653.58,-485 653.58,-492"/>
</g>
<!-- SUPER_CYCLE -->
<g id="node43" class="node">
<title>SUPER_CYCLE</title>
<polygon fill="none" stroke="black" points="901,-868 792,-868 792,-832 901,-832 901,-868"/>
<text text-anchor="middle" x="846.5" y="-844.95" font-family="Times,serif" font-size="14.00">SUPER_CYCLE</text>
</g>
<!-- SCHEDULER&#45;&gt;SUPER_CYCLE -->
<g id="edge78" class="edge">
<title>SCHEDULER&#45;&gt;SUPER_CYCLE</title>
<path fill="none" stroke="black" d="M745.88,-850C745.88,-850 780.53,-850 780.53,-850"/>
<polygon fill="black" stroke="black" points="780.53,-853.5 790.53,-850 780.53,-846.5 780.53,-853.5"/>
</g>
<!-- LIMITER -->
<g id="node44" class="node">
<title>LIMITER</title>
<polygon fill="none" stroke="black" points="629,-868 557.5,-868 557.5,-832 629,-832 629,-868"/>
<text text-anchor="middle" x="593.25" y="-844.95" font-family="Times,serif" font-size="14.00">LIMITER</text>
</g>
<!-- LIMITER&#45;&gt;SCHEDULER -->
<g id="edge79" class="edge">
<title>LIMITER&#45;&gt;SCHEDULER</title>
<path fill="none" stroke="green" d="M629.39,-856C629.39,-856 664.09,-856 664.09,-856"/>
<polygon fill="green" stroke="green" points="664.09,-859.5 674.09,-856 664.09,-852.5 664.09,-859.5"/>
</g>
<!-- DWT -->
<g id="node47" class="node">
<title>DWT</title>
<polygon fill="none" stroke="black" points="252.38,-608 198.38,-608 198.38,-572 252.38,-572 252.38,-608"/>
<text text-anchor="middle" x="225.38" y="-584.95" font-family="Times,serif" font-size="14.00">DWT</text>
</g>
<!-- DWT&#45;&gt;TIME -->
<g id="edge87" class="edge">
<title>DWT&#45;&gt;TIME</title>
<path fill="none" stroke="black" d="M252.64,-584C252.64,-584 310.06,-584 310.06,-584"/>
<polygon fill="black" stroke="black" points="310.06,-587.5 320.06,-584 310.06,-580.5 310.06,-587.5"/>
</g>
</g>
</svg>
