<?xml version="1.0" encoding="UTF-8" standalone="no"?>
<!DOCTYPE svg PUBLIC "-//W3C//DTD SVG 1.1//EN"
 "http://www.w3.org/Graphics/SVG/1.1/DTD/svg11.dtd">
<!-- Generated by graphviz version 8.0.5 (20230508.1809)
 -->
<!-- Title: graphname Pages: 1 -->
<svg width="811pt" height="376pt"
 viewBox="0.00 0.00 810.75 376.00" xmlns="http://www.w3.org/2000/svg" xmlns:xlink="http://www.w3.org/1999/xlink">
<g id="graph0" class="graph" transform="scale(1 1) rotate(0) translate(4 372)">
<title>graphname</title>
<polygon fill="white" stroke="none" points="-4,4 -4,-372 806.75,-372 806.75,4 -4,4"/>
<!-- SERIAL_PORT -->
<g id="node1" class="node">
<title>SERIAL_PORT</title>
<polygon fill="none" stroke="black" points="103.75,-179 0,-179 0,-143 103.75,-143 103.75,-179"/>
<text text-anchor="middle" x="51.88" y="-155.95" font-family="Times,serif" font-size="14.00">SERIAL_PORT</text>
</g>
<!-- AKIP1160 -->
<g id="node2" class="node">
<title>AKIP1160</title>
<polygon fill="none" stroke="black" points="214.25,-159 139.75,-159 139.75,-123 214.25,-123 214.25,-159"/>
<text text-anchor="middle" x="177" y="-135.95" font-family="Times,serif" font-size="14.00">AKIP1160</text>
</g>
<!-- SERIAL_PORT&#45;&gt;AKIP1160 -->
<g id="edge1" class="edge">
<title>SERIAL_PORT&#45;&gt;AKIP1160</title>
<path fill="none" stroke="black" d="M104.21,-151C104.21,-151 128.33,-151 128.33,-151"/>
<polygon fill="black" stroke="black" points="128.33,-154.5 138.33,-151 128.33,-147.5 128.33,-154.5"/>
</g>
<!-- SCPI -->
<g id="node3" class="node">
<title>SCPI</title>
<polygon fill="none" stroke="black" points="78.88,-125 24.88,-125 24.88,-89 78.88,-89 78.88,-125"/>
<text text-anchor="middle" x="51.88" y="-101.95" font-family="Times,serif" font-size="14.00">SCPI</text>
</g>
<!-- SCPI&#45;&gt;AKIP1160 -->
<g id="edge2" class="edge">
<title>SCPI&#45;&gt;AKIP1160</title>
<path fill="none" stroke="black" d="M52.75,-125.46C52.75,-130.2 52.75,-134 52.75,-134 52.75,-134 128.38,-134 128.38,-134"/>
<polygon fill="black" stroke="black" points="128.38,-137.5 138.38,-134 128.38,-130.5 128.38,-137.5"/>
</g>
<!-- RAM -->
<g id="node4" class="node">
<title>RAM</title>
<polygon fill="none" stroke="black" points="78.88,-260 24.88,-260 24.88,-224 78.88,-224 78.88,-260"/>
<text text-anchor="middle" x="51.88" y="-236.95" font-family="Times,serif" font-size="14.00">RAM</text>
</g>
<!-- ARRAY -->
<g id="node5" class="node">
<title>ARRAY</title>
<polygon fill="none" stroke="black" points="208.25,-280 145.75,-280 145.75,-244 208.25,-244 208.25,-280"/>
<text text-anchor="middle" x="177" y="-256.95" font-family="Times,serif" font-size="14.00">ARRAY</text>
</g>
<!-- RAM&#45;&gt;ARRAY -->
<g id="edge3" class="edge">
<title>RAM&#45;&gt;ARRAY</title>
<path fill="none" stroke="blue" d="M79.33,-252C79.33,-252 134.64,-252 134.64,-252"/>
<polygon fill="blue" stroke="blue" points="134.64,-255.5 144.64,-252 134.64,-248.5 134.64,-255.5"/>
</g>
<!-- FIFO -->
<g id="node6" class="node">
<title>FIFO</title>
<polygon fill="none" stroke="black" points="204,-226 150,-226 150,-190 204,-190 204,-226"/>
<text text-anchor="middle" x="177" y="-202.95" font-family="Times,serif" font-size="14.00">FIFO</text>
</g>
<!-- RAM&#45;&gt;FIFO -->
<g id="edge4" class="edge">
<title>RAM&#45;&gt;FIFO</title>
<path fill="none" stroke="black" d="M79.19,-235C116.21,-235 177.75,-235 177.75,-235 177.75,-235 177.75,-234.15 177.75,-234.15"/>
<polygon fill="black" stroke="black" points="181.25,-237.46 177.75,-227.46 174.25,-237.46 181.25,-237.46"/>
</g>
<!-- LOG -->
<g id="node8" class="node">
<title>LOG</title>
<polygon fill="none" stroke="black" points="534,-186 480,-186 480,-150 534,-150 534,-186"/>
<text text-anchor="middle" x="507" y="-162.95" font-family="Times,serif" font-size="14.00">LOG</text>
</g>
<!-- FIFO&#45;&gt;LOG -->
<g id="edge7" class="edge">
<title>FIFO&#45;&gt;LOG</title>
<path fill="none" stroke="black" d="M204.35,-214.5C283.59,-214.5 507.75,-214.5 507.75,-214.5 507.75,-214.5 507.75,-197.38 507.75,-197.38"/>
<polygon fill="black" stroke="black" points="511.25,-197.38 507.75,-187.38 504.25,-197.38 511.25,-197.38"/>
</g>
<!-- WRITER -->
<g id="node10" class="node">
<title>WRITER</title>
<polygon fill="none" stroke="black" points="318.75,-203 250.25,-203 250.25,-167 318.75,-167 318.75,-203"/>
<text text-anchor="middle" x="284.5" y="-179.95" font-family="Times,serif" font-size="14.00">WRITER</text>
</g>
<!-- FIFO&#45;&gt;WRITER -->
<g id="edge10" class="edge">
<title>FIFO&#45;&gt;WRITER</title>
<path fill="none" stroke="black" d="M204.4,-196.5C204.4,-196.5 238.81,-196.5 238.81,-196.5"/>
<polygon fill="black" stroke="black" points="238.81,-200 248.81,-196.5 238.81,-193 238.81,-200"/>
</g>
<!-- TIME -->
<g id="node7" class="node">
<title>TIME</title>
<polygon fill="none" stroke="black" points="417.5,-111 363.5,-111 363.5,-75 417.5,-75 417.5,-111"/>
<text text-anchor="middle" x="390.5" y="-87.95" font-family="Times,serif" font-size="14.00">TIME</text>
</g>
<!-- TIME&#45;&gt;LOG -->
<g id="edge5" class="edge">
<title>TIME&#45;&gt;LOG</title>
<path fill="none" stroke="black" d="M417.99,-104C452.65,-104 507.75,-104 507.75,-104 507.75,-104 507.75,-138.83 507.75,-138.83"/>
<polygon fill="black" stroke="black" points="504.25,-138.83 507.75,-148.83 511.25,-138.83 504.25,-138.83"/>
</g>
<!-- SCHEDULER -->
<g id="node13" class="node">
<title>SCHEDULER</title>
<polygon fill="none" stroke="black" points="657.75,-90 587.75,-90 587.75,-54 657.75,-54 657.75,-90"/>
<text text-anchor="middle" x="622.75" y="-66.95" font-family="Times,serif" font-size="14.00">Scheduler</text>
</g>
<!-- TIME&#45;&gt;SCHEDULER -->
<g id="edge14" class="edge">
<title>TIME&#45;&gt;SCHEDULER</title>
<path fill="none" stroke="red" d="M417.6,-97C478.86,-97 622.75,-97 622.75,-97 622.75,-97 622.75,-96.34 622.75,-96.34"/>
<polygon fill="red" stroke="red" points="626.25,-101.43 622.75,-91.43 619.25,-101.43 626.25,-101.43"/>
</g>
<!-- LIMITER -->
<g id="node15" class="node">
<title>LIMITER</title>
<polygon fill="none" stroke="black" points="542.75,-90 471.25,-90 471.25,-54 542.75,-54 542.75,-90"/>
<text text-anchor="middle" x="507" y="-66.95" font-family="Times,serif" font-size="14.00">LIMITER</text>
</g>
<!-- TIME&#45;&gt;LIMITER -->
<g id="edge16" class="edge">
<title>TIME&#45;&gt;LIMITER</title>
<path fill="none" stroke="black" d="M417.81,-82.5C417.81,-82.5 460.03,-82.5 460.03,-82.5"/>
<polygon fill="black" stroke="black" points="460.03,-86 470.03,-82.5 460.03,-79 460.03,-86"/>
</g>
<!-- STREAM -->
<g id="node9" class="node">
<title>STREAM</title>
<polygon fill="none" stroke="black" points="426.25,-165 354.75,-165 354.75,-129 426.25,-129 426.25,-165"/>
<text text-anchor="middle" x="390.5" y="-141.95" font-family="Times,serif" font-size="14.00">STREAM</text>
</g>
<!-- STREAM&#45;&gt;LOG -->
<g id="edge6" class="edge">
<title>STREAM&#45;&gt;LOG</title>
<path fill="none" stroke="black" d="M426.72,-157.5C426.72,-157.5 468.69,-157.5 468.69,-157.5"/>
<polygon fill="black" stroke="black" points="468.69,-161 478.69,-157.5 468.69,-154 468.69,-161"/>
</g>
<!-- WRITER&#45;&gt;LOG -->
<g id="edge8" class="edge">
<title>WRITER&#45;&gt;LOG</title>
<path fill="none" stroke="black" d="M318.78,-179.67C318.78,-179.67 468.7,-179.67 468.7,-179.67"/>
<polygon fill="black" stroke="black" points="468.7,-183.17 478.7,-179.67 468.7,-176.17 468.7,-183.17"/>
</g>
<!-- WRITER&#45;&gt;STREAM -->
<g id="edge9" class="edge">
<title>WRITER&#45;&gt;STREAM</title>
<path fill="none" stroke="black" d="M319,-173.33C350.02,-173.33 390.75,-173.33 390.75,-173.33 390.75,-173.33 390.75,-172.53 390.75,-172.53"/>
<polygon fill="black" stroke="black" points="394.25,-176.29 390.75,-166.29 387.25,-176.29 394.25,-176.29"/>
</g>
<!-- FLASH -->
<g id="node11" class="node">
<title>FLASH</title>
<polygon fill="none" stroke="black" points="419.88,-36 361.12,-36 361.12,0 419.88,0 419.88,-36"/>
<text text-anchor="middle" x="390.5" y="-12.95" font-family="Times,serif" font-size="14.00">FLASH</text>
</g>
<!-- DEBUGGER -->
<g id="node12" class="node">
<title>DEBUGGER</title>
<polygon fill="none" stroke="black" points="551.75,-36 462.25,-36 462.25,0 551.75,0 551.75,-36"/>
<text text-anchor="middle" x="507" y="-12.95" font-family="Times,serif" font-size="14.00">DEBUGGER</text>
</g>
<!-- FLASH&#45;&gt;DEBUGGER -->
<g id="edge11" class="edge">
<title>FLASH&#45;&gt;DEBUGGER</title>
<path fill="none" stroke="black" d="M420.2,-18C420.2,-18 450.94,-18 450.94,-18"/>
<polygon fill="black" stroke="black" points="450.94,-21.5 460.94,-18 450.94,-14.5 450.94,-21.5"/>
</g>
<!-- FLASH&#45;&gt;SCHEDULER -->
<g id="edge15" class="edge">
<title>FLASH&#45;&gt;SCHEDULER</title>
<path fill="none" stroke="blue" d="M381.75,-36.46C381.75,-41.2 381.75,-45 381.75,-45 381.75,-45 622.75,-45 622.75,-45 622.75,-45 622.75,-45.85 622.75,-45.85"/>
<polygon fill="blue" stroke="blue" points="619.25,-42.54 622.75,-52.54 626.25,-42.54 619.25,-42.54"/>
</g>
<!-- FLASH&#45;&gt;LIMITER -->
<g id="edge17" class="edge">
<title>FLASH&#45;&gt;LIMITER</title>
<path fill="none" stroke="black" d="M399.75,-36.38C399.75,-49.38 399.75,-64.5 399.75,-64.5 399.75,-64.5 459.99,-64.5 459.99,-64.5"/>
<polygon fill="black" stroke="black" points="459.99,-68 469.99,-64.5 459.99,-61 459.99,-68"/>
</g>
<!-- SUPER_CYCLE -->
<g id="node14" class="node">
<title>SUPER_CYCLE</title>
<polygon fill="none" stroke="black" points="802.75,-90 693.75,-90 693.75,-54 802.75,-54 802.75,-90"/>
<text text-anchor="middle" x="748.25" y="-66.95" font-family="Times,serif" font-size="14.00">SUPER_CYCLE</text>
</g>
<!-- SCHEDULER&#45;&gt;SUPER_CYCLE -->
<g id="edge12" class="edge">
<title>SCHEDULER&#45;&gt;SUPER_CYCLE</title>
<path fill="none" stroke="black" d="M658.04,-72C658.04,-72 682.52,-72 682.52,-72"/>
<polygon fill="black" stroke="black" points="682.52,-75.5 692.52,-72 682.52,-68.5 682.52,-75.5"/>
</g>
<!-- LIMITER&#45;&gt;SCHEDULER -->
<g id="edge13" class="edge">
<title>LIMITER&#45;&gt;SCHEDULER</title>
<path fill="none" stroke="green" d="M542.99,-72C542.99,-72 576.58,-72 576.58,-72"/>
<polygon fill="green" stroke="green" points="576.58,-75.5 586.58,-72 576.58,-68.5 576.58,-75.5"/>
</g>
<!-- ASM -->
<g id="node16" class="node">
<title>ASM</title>
<polygon fill="none" stroke="black" points="78.88,-368 24.88,-368 24.88,-332 78.88,-332 78.88,-368"/>
<text text-anchor="middle" x="51.88" y="-344.95" font-family="Times,serif" font-size="14.00">ASM</text>
</g>
<!-- MATH -->
<g id="node17" class="node">
<title>MATH</title>
<polygon fill="none" stroke="black" points="204.5,-351 149.5,-351 149.5,-315 204.5,-315 204.5,-351"/>
<text text-anchor="middle" x="177" y="-327.95" font-family="Times,serif" font-size="14.00">MATH</text>
</g>
<!-- ASM&#45;&gt;MATH -->
<g id="edge18" class="edge">
<title>ASM&#45;&gt;MATH</title>
<path fill="none" stroke="black" d="M79.33,-341.5C79.33,-341.5 138.17,-341.5 138.17,-341.5"/>
<polygon fill="black" stroke="black" points="138.17,-345 148.17,-341.5 138.17,-338 138.17,-345"/>
</g>
<!-- FLOAT -->
<g id="node18" class="node">
<title>FLOAT</title>
<polygon fill="none" stroke="black" points="80.88,-314 22.88,-314 22.88,-278 80.88,-278 80.88,-314"/>
<text text-anchor="middle" x="51.88" y="-290.95" font-family="Times,serif" font-size="14.00">FLOAT</text>
</g>
<!-- FLOAT&#45;&gt;MATH -->
<g id="edge19" class="edge">
<title>FLOAT&#45;&gt;MATH</title>
<path fill="none" stroke="black" d="M52.75,-314.5C52.75,-319.47 52.75,-323.5 52.75,-323.5 52.75,-323.5 138.12,-323.5 138.12,-323.5"/>
<polygon fill="black" stroke="black" points="138.12,-327 148.12,-323.5 138.12,-320 138.12,-327"/>
</g>
</g>
</svg>
