<?xml version="1.0" encoding="UTF-8" standalone="no"?>
<!DOCTYPE svg PUBLIC "-//W3C//DTD SVG 1.1//EN"
 "http://www.w3.org/Graphics/SVG/1.1/DTD/svg11.dtd">
<!-- Generated by graphviz version 8.0.5 (20230508.1809)
 -->
<!-- Title: graphname Pages: 1 -->
<svg width="1770pt" height="1021pt"
 viewBox="0.00 0.00 1769.75 1021.00" xmlns="http://www.w3.org/2000/svg" xmlns:xlink="http://www.w3.org/1999/xlink">
<g id="graph0" class="graph" transform="scale(1 1) rotate(0) translate(4 1017)">
<title>graphname</title>
<polygon fill="white" stroke="none" points="-4,4 -4,-1017 1765.75,-1017 1765.75,4 -4,4"/>
<!-- DEBUGGER -->
<g id="node1" class="node">
<title>DEBUGGER</title>
<polygon fill="none" stroke="black" points="733.25,-829 643.75,-829 643.75,-793 733.25,-793 733.25,-829"/>
<text text-anchor="middle" x="688.5" y="-805.95" font-family="Times,serif" font-size="14.00">DEBUGGER</text>
</g>
<!-- CORE -->
<g id="node2" class="node">
<title>CORE</title>
<polygon fill="none" stroke="black" points="841.38,-848 787.38,-848 787.38,-812 841.38,-812 841.38,-848"/>
<text text-anchor="middle" x="814.38" y="-824.95" font-family="Times,serif" font-size="14.00">CORE</text>
</g>
<!-- DEBUGGER&#45;&gt;CORE -->
<g id="edge1" class="edge">
<title>DEBUGGER&#45;&gt;CORE</title>
<path fill="none" stroke="black" d="M733.59,-823.33C733.59,-823.33 776.16,-823.33 776.16,-823.33"/>
<polygon fill="black" stroke="black" points="776.16,-826.83 786.16,-823.33 776.16,-819.83 776.16,-826.83"/>
</g>
<!-- FLASH -->
<g id="node16" class="node">
<title>FLASH</title>
<polygon fill="none" stroke="black" points="843.75,-729 785,-729 785,-693 843.75,-693 843.75,-729"/>
<text text-anchor="middle" x="814.38" y="-705.95" font-family="Times,serif" font-size="14.00">FLASH</text>
</g>
<!-- DEBUGGER&#45;&gt;FLASH -->
<g id="edge24" class="edge">
<title>DEBUGGER&#45;&gt;FLASH</title>
<path fill="none" stroke="black" d="M728.75,-792.94C728.75,-765.13 728.75,-715 728.75,-715 728.75,-715 773.91,-715 773.91,-715"/>
<polygon fill="black" stroke="black" points="773.91,-718.5 783.91,-715 773.91,-711.5 773.91,-718.5"/>
</g>
<!-- BOOT -->
<g id="node42" class="node">
<title>BOOT</title>
<polygon fill="none" stroke="black" points="951.88,-848 897.88,-848 897.88,-812 951.88,-812 951.88,-848"/>
<text text-anchor="middle" x="924.88" y="-824.95" font-family="Times,serif" font-size="14.00">BOOT</text>
</g>
<!-- CORE&#45;&gt;BOOT -->
<g id="edge75" class="edge">
<title>CORE&#45;&gt;BOOT</title>
<path fill="none" stroke="black" d="M841.69,-830C841.69,-830 886.49,-830 886.49,-830"/>
<polygon fill="black" stroke="black" points="886.49,-833.5 896.49,-830 886.49,-826.5 886.49,-833.5"/>
</g>
<!-- CLOCK -->
<g id="node3" class="node">
<title>CLOCK</title>
<polygon fill="none" stroke="black" points="314.75,-546 253,-546 253,-510 314.75,-510 314.75,-546"/>
<text text-anchor="middle" x="283.88" y="-522.95" font-family="Times,serif" font-size="14.00">CLOCK</text>
</g>
<!-- CLOCK&#45;&gt;CORE -->
<g id="edge2" class="edge">
<title>CLOCK&#45;&gt;CORE</title>
<path fill="none" stroke="black" d="M314.94,-541C419.43,-541 751.75,-541 751.75,-541 751.75,-541 751.75,-817.67 751.75,-817.67 751.75,-817.67 776.09,-817.67 776.09,-817.67"/>
<polygon fill="black" stroke="black" points="776.09,-821.17 786.09,-817.67 776.09,-814.17 776.09,-821.17"/>
</g>
<!-- SYSTICK -->
<g id="node10" class="node">
<title>SYSTICK</title>
<polygon fill="none" stroke="black" points="471.75,-363 399.5,-363 399.5,-327 471.75,-327 471.75,-363"/>
<text text-anchor="middle" x="435.62" y="-339.95" font-family="Times,serif" font-size="14.00">SYSTICK</text>
</g>
<!-- CLOCK&#45;&gt;SYSTICK -->
<g id="edge10" class="edge">
<title>CLOCK&#45;&gt;SYSTICK</title>
<path fill="none" stroke="black" d="M314.98,-517C359.41,-517 435.75,-517 435.75,-517 435.75,-517 435.75,-374.41 435.75,-374.41"/>
<polygon fill="black" stroke="black" points="439.25,-374.41 435.75,-364.41 432.25,-374.41 439.25,-374.41"/>
</g>
<!-- TIMER -->
<g id="node21" class="node">
<title>TIMER</title>
<polygon fill="none" stroke="black" points="954.25,-417 895.5,-417 895.5,-381 954.25,-381 954.25,-417"/>
<text text-anchor="middle" x="924.88" y="-393.95" font-family="Times,serif" font-size="14.00">TIMER</text>
</g>
<!-- CLOCK&#45;&gt;TIMER -->
<g id="edge33" class="edge">
<title>CLOCK&#45;&gt;TIMER</title>
<path fill="none" stroke="black" d="M315.14,-536C434.89,-536 857.75,-536 857.75,-536 857.75,-536 857.75,-412 857.75,-412 857.75,-412 884.24,-412 884.24,-412"/>
<polygon fill="black" stroke="black" points="884.24,-415.5 894.24,-412 884.24,-408.5 884.24,-415.5"/>
</g>
<!-- REG -->
<g id="node4" class="node">
<title>REG</title>
<polygon fill="none" stroke="black" points="158.38,-363 104.38,-363 104.38,-327 158.38,-327 158.38,-363"/>
<text text-anchor="middle" x="131.38" y="-339.95" font-family="Times,serif" font-size="14.00">REG</text>
</g>
<!-- REG&#45;&gt;CLOCK -->
<g id="edge32" class="edge">
<title>REG&#45;&gt;CLOCK</title>
<path fill="none" stroke="black" d="M158.8,-348.6C202.91,-348.6 284.75,-348.6 284.75,-348.6 284.75,-348.6 284.75,-498.81 284.75,-498.81"/>
<polygon fill="black" stroke="black" points="281.25,-498.81 284.75,-508.81 288.25,-498.81 281.25,-498.81"/>
</g>
<!-- NVIC -->
<g id="node5" class="node">
<title>NVIC</title>
<polygon fill="none" stroke="black" points="715.5,-217 661.5,-217 661.5,-181 715.5,-181 715.5,-217"/>
<text text-anchor="middle" x="688.5" y="-193.95" font-family="Times,serif" font-size="14.00">NVIC</text>
</g>
<!-- REG&#45;&gt;NVIC -->
<g id="edge3" class="edge">
<title>REG&#45;&gt;NVIC</title>
<path fill="none" stroke="black" d="M126.75,-326.6C126.75,-324 126.75,-322.2 126.75,-322.2 126.75,-322.2 684.75,-322.2 684.75,-322.2 684.75,-322.2 684.75,-228.44 684.75,-228.44"/>
<polygon fill="black" stroke="black" points="688.25,-228.44 684.75,-218.44 681.25,-228.44 688.25,-228.44"/>
</g>
<!-- REG&#45;&gt;SYSTICK -->
<g id="edge8" class="edge">
<title>REG&#45;&gt;SYSTICK</title>
<path fill="none" stroke="black" d="M158.64,-341.4C158.64,-341.4 388.48,-341.4 388.48,-341.4"/>
<polygon fill="black" stroke="black" points="388.48,-344.9 398.48,-341.4 388.48,-337.9 388.48,-344.9"/>
</g>
<!-- CORTEX_M4 -->
<g id="node12" class="node">
<title>CORTEX_M4</title>
<polygon fill="none" stroke="black" points="607.75,-217 512.25,-217 512.25,-181 607.75,-181 607.75,-217"/>
<text text-anchor="middle" x="560" y="-193.95" font-family="Times,serif" font-size="14.00">CORTEX_M4</text>
</g>
<!-- REG&#45;&gt;CORTEX_M4 -->
<g id="edge18" class="edge">
<title>REG&#45;&gt;CORTEX_M4</title>
<path fill="none" stroke="black" d="M115.75,-326.74C115.75,-321.61 115.75,-317.4 115.75,-317.4 115.75,-317.4 522.75,-317.4 522.75,-317.4 522.75,-317.4 522.75,-228.5 522.75,-228.5"/>
<polygon fill="black" stroke="black" points="526.25,-228.5 522.75,-218.5 519.25,-228.5 526.25,-228.5"/>
</g>
<!-- FPU -->
<g id="node13" class="node">
<title>FPU</title>
<polygon fill="none" stroke="black" points="462.62,-217 408.62,-217 408.62,-181 462.62,-181 462.62,-217"/>
<text text-anchor="middle" x="435.62" y="-193.95" font-family="Times,serif" font-size="14.00">FPU</text>
</g>
<!-- REG&#45;&gt;FPU -->
<g id="edge15" class="edge">
<title>REG&#45;&gt;FPU</title>
<path fill="none" stroke="black" d="M147.75,-326.51C147.75,-287.22 147.75,-199 147.75,-199 147.75,-199 397.28,-199 397.28,-199"/>
<polygon fill="black" stroke="black" points="397.28,-202.5 407.28,-199 397.28,-195.5 397.28,-202.5"/>
</g>
<!-- REG&#45;&gt;FLASH -->
<g id="edge22" class="edge">
<title>REG&#45;&gt;FLASH</title>
<path fill="none" stroke="black" d="M158.57,-355.8C163.83,-355.8 167.75,-355.8 167.75,-355.8 167.75,-355.8 167.75,-697.8 167.75,-697.8 167.75,-697.8 773.91,-697.8 773.91,-697.8"/>
<polygon fill="black" stroke="black" points="773.91,-701.3 783.91,-697.8 773.91,-694.3 773.91,-701.3"/>
</g>
<!-- GPIO -->
<g id="node19" class="node">
<title>GPIO</title>
<polygon fill="none" stroke="black" points="1143,-508 1089,-508 1089,-472 1143,-472 1143,-508"/>
<text text-anchor="middle" x="1116" y="-484.95" font-family="Times,serif" font-size="14.00">GPIO</text>
</g>
<!-- REG&#45;&gt;GPIO -->
<g id="edge27" class="edge">
<title>REG&#45;&gt;GPIO</title>
<path fill="none" stroke="black" d="M140.75,-363.21C140.75,-368.55 140.75,-373 140.75,-373 140.75,-373 1104.75,-373 1104.75,-373 1104.75,-373 1104.75,-460.72 1104.75,-460.72"/>
<polygon fill="black" stroke="black" points="1101.25,-460.72 1104.75,-470.72 1108.25,-460.72 1101.25,-460.72"/>
</g>
<!-- REG&#45;&gt;TIMER -->
<g id="edge35" class="edge">
<title>REG&#45;&gt;TIMER</title>
<path fill="none" stroke="black" d="M122.75,-363.24C122.75,-370.43 122.75,-377 122.75,-377 122.75,-377 907.75,-377 907.75,-377 907.75,-377 907.75,-377.38 907.75,-377.38"/>
<polygon fill="black" stroke="black" points="904.25,-369.83 907.75,-379.83 911.25,-369.83 904.25,-369.83"/>
</g>
<!-- UART -->
<g id="node24" class="node">
<title>UART</title>
<polygon fill="none" stroke="black" points="1249.75,-228 1195.75,-228 1195.75,-192 1249.75,-192 1249.75,-228"/>
<text text-anchor="middle" x="1222.75" y="-204.95" font-family="Times,serif" font-size="14.00">UART</text>
</g>
<!-- REG&#45;&gt;UART -->
<g id="edge44" class="edge">
<title>REG&#45;&gt;UART</title>
<path fill="none" stroke="darkorange" d="M137.75,-326.78C137.75,-325.44 137.75,-324.6 137.75,-324.6 137.75,-324.6 1204.75,-324.6 1204.75,-324.6 1204.75,-324.6 1204.75,-239.41 1204.75,-239.41"/>
<polygon fill="darkorange" stroke="darkorange" points="1208.25,-239.41 1204.75,-229.41 1201.25,-239.41 1208.25,-239.41"/>
</g>
<!-- ARM -->
<g id="node6" class="node">
<title>ARM</title>
<polygon fill="none" stroke="black" points="841.38,-131 787.38,-131 787.38,-95 841.38,-95 841.38,-131"/>
<text text-anchor="middle" x="814.38" y="-107.95" font-family="Times,serif" font-size="14.00">ARM</text>
</g>
<!-- NVIC&#45;&gt;ARM -->
<g id="edge4" class="edge">
<title>NVIC&#45;&gt;ARM</title>
<path fill="none" stroke="black" d="M688.75,-180.76C688.75,-155.52 688.75,-113 688.75,-113 688.75,-113 776.12,-113 776.12,-113"/>
<polygon fill="black" stroke="black" points="776.12,-116.5 786.12,-113 776.12,-109.5 776.12,-116.5"/>
</g>
<!-- INTERRUPT -->
<g id="node8" class="node">
<title>INTERRUPT</title>
<polygon fill="none" stroke="black" points="859.5,-223 769.25,-223 769.25,-187 859.5,-187 859.5,-223"/>
<text text-anchor="middle" x="814.38" y="-199.95" font-family="Times,serif" font-size="14.00">INTERRUPT</text>
</g>
<!-- NVIC&#45;&gt;INTERRUPT -->
<g id="edge38" class="edge">
<title>NVIC&#45;&gt;INTERRUPT</title>
<path fill="none" stroke="black" d="M715.81,-194.5C715.81,-194.5 757.8,-194.5 757.8,-194.5"/>
<polygon fill="black" stroke="black" points="757.8,-198 767.8,-194.5 757.8,-191 757.8,-198"/>
</g>
<!-- NVIC&#45;&gt;SYSTICK -->
<g id="edge9" class="edge">
<title>NVIC&#45;&gt;SYSTICK</title>
<path fill="none" stroke="black" d="M692.75,-217.27C692.75,-257.06 692.75,-348 692.75,-348 692.75,-348 483.19,-348 483.19,-348"/>
<polygon fill="black" stroke="black" points="483.19,-344.5 473.19,-348 483.19,-351.5 483.19,-344.5"/>
</g>
<!-- NVIC&#45;&gt;CORTEX_M4 -->
<g id="edge19" class="edge">
<title>NVIC&#45;&gt;CORTEX_M4</title>
<path fill="none" stroke="black" d="M661.25,-193C661.25,-193 619.23,-193 619.23,-193"/>
<polygon fill="black" stroke="black" points="619.23,-189.5 609.23,-193 619.23,-196.5 619.23,-189.5"/>
</g>
<!-- NVIC&#45;&gt;FLASH -->
<g id="edge26" class="edge">
<title>NVIC&#45;&gt;FLASH</title>
<path fill="none" stroke="black" d="M715.82,-209.5C719.89,-209.5 722.75,-209.5 722.75,-209.5 722.75,-209.5 722.75,-694.6 722.75,-694.6 722.75,-694.6 773.63,-694.6 773.63,-694.6"/>
<polygon fill="black" stroke="black" points="773.63,-698.1 783.63,-694.6 773.63,-691.1 773.63,-698.1"/>
</g>
<!-- NVIC&#45;&gt;TIMER -->
<g id="edge34" class="edge">
<title>NVIC&#45;&gt;TIMER</title>
<path fill="none" stroke="black" d="M700.75,-217.38C700.75,-230.38 700.75,-245.5 700.75,-245.5 700.75,-245.5 942.75,-245.5 942.75,-245.5 942.75,-245.5 942.75,-369.79 942.75,-369.79"/>
<polygon fill="black" stroke="black" points="939.25,-369.79 942.75,-379.79 946.25,-369.79 939.25,-369.79"/>
</g>
<!-- MICROCONTROLLER -->
<g id="node7" class="node">
<title>MICROCONTROLLER</title>
<polygon fill="none" stroke="black" points="359,-313 208.75,-313 208.75,-277 359,-277 359,-313"/>
<text text-anchor="middle" x="283.88" y="-289.95" font-family="Times,serif" font-size="14.00">MICROCONTROLLER</text>
</g>
<!-- MICROCONTROLLER&#45;&gt;NVIC -->
<g id="edge5" class="edge">
<title>MICROCONTROLLER&#45;&gt;NVIC</title>
<path fill="none" stroke="black" d="M351.75,-313.28C351.75,-317 351.75,-319.8 351.75,-319.8 351.75,-319.8 677.75,-319.8 677.75,-319.8 677.75,-319.8 677.75,-228.35 677.75,-228.35"/>
<polygon fill="black" stroke="black" points="681.25,-228.35 677.75,-218.35 674.25,-228.35 681.25,-228.35"/>
</g>
<!-- MICROCONTROLLER&#45;&gt;SYSTICK -->
<g id="edge12" class="edge">
<title>MICROCONTROLLER&#45;&gt;SYSTICK</title>
<path fill="none" stroke="black" d="M343.75,-313.22C343.75,-323.46 343.75,-334.2 343.75,-334.2 343.75,-334.2 388.05,-334.2 388.05,-334.2"/>
<polygon fill="black" stroke="black" points="388.05,-337.7 398.05,-334.2 388.05,-330.7 388.05,-337.7"/>
</g>
<!-- INTERRUPT&#45;&gt;CLOCK -->
<g id="edge49" class="edge">
<title>INTERRUPT&#45;&gt;CLOCK</title>
<path fill="none" stroke="black" d="M777.75,-223.06C777.75,-290.55 777.75,-524 777.75,-524 777.75,-524 326.14,-524 326.14,-524"/>
<polygon fill="black" stroke="black" points="326.14,-520.5 316.14,-524 326.14,-527.5 326.14,-520.5"/>
</g>
<!-- INTERRUPT&#45;&gt;NVIC -->
<g id="edge6" class="edge">
<title>INTERRUPT&#45;&gt;NVIC</title>
<path fill="none" stroke="black" d="M768.93,-202C768.93,-202 726.93,-202 726.93,-202"/>
<polygon fill="black" stroke="black" points="726.93,-198.5 716.93,-202 726.93,-205.5 726.93,-198.5"/>
</g>
<!-- INTERRUPT&#45;&gt;SYSTICK -->
<g id="edge11" class="edge">
<title>INTERRUPT&#45;&gt;SYSTICK</title>
<path fill="none" stroke="black" d="M773.75,-223.45C773.75,-263.64 773.75,-355.5 773.75,-355.5 773.75,-355.5 483.13,-355.5 483.13,-355.5"/>
<polygon fill="black" stroke="black" points="483.13,-352 473.13,-355.5 483.13,-359 483.13,-352"/>
</g>
<!-- INTERRUPT&#45;&gt;TIMER -->
<g id="edge39" class="edge">
<title>INTERRUPT&#45;&gt;TIMER</title>
<path fill="none" stroke="blue" d="M849.75,-223.27C849.75,-270.32 849.75,-392 849.75,-392 849.75,-392 884.18,-392 884.18,-392"/>
<polygon fill="blue" stroke="blue" points="884.18,-395.5 894.18,-392 884.18,-388.5 884.18,-395.5"/>
</g>
<!-- INTERRUPT&#45;&gt;UART -->
<g id="edge45" class="edge">
<title>INTERRUPT&#45;&gt;UART</title>
<path fill="none" stroke="blue" d="M859.64,-207.5C859.64,-207.5 1184.4,-207.5 1184.4,-207.5"/>
<polygon fill="blue" stroke="blue" points="1184.4,-211 1194.4,-207.5 1184.4,-204 1184.4,-211"/>
</g>
<!-- CMSIS -->
<g id="node9" class="node">
<title>CMSIS</title>
<polygon fill="none" stroke="black" points="588.62,-309 531.38,-309 531.38,-273 588.62,-273 588.62,-309"/>
<text text-anchor="middle" x="560" y="-285.95" font-family="Times,serif" font-size="14.00">CMSIS</text>
</g>
<!-- CMSIS&#45;&gt;NVIC -->
<g id="edge7" class="edge">
<title>CMSIS&#45;&gt;NVIC</title>
<path fill="none" stroke="black" d="M589.12,-286.5C621.64,-286.5 669.75,-286.5 669.75,-286.5 669.75,-286.5 669.75,-228.13 669.75,-228.13"/>
<polygon fill="black" stroke="black" points="673.25,-228.13 669.75,-218.13 666.25,-228.13 673.25,-228.13"/>
</g>
<!-- TIME -->
<g id="node11" class="node">
<title>TIME</title>
<polygon fill="none" stroke="black" points="1044.25,-437 990.25,-437 990.25,-401 1044.25,-401 1044.25,-437"/>
<text text-anchor="middle" x="1017.25" y="-413.95" font-family="Times,serif" font-size="14.00">TIME</text>
</g>
<!-- SYSTICK&#45;&gt;TIME -->
<g id="edge13" class="edge">
<title>SYSTICK&#45;&gt;TIME</title>
<path fill="none" stroke="black" d="M453.75,-363.2C453.75,-387.36 453.75,-427 453.75,-427 453.75,-427 979.07,-427 979.07,-427"/>
<polygon fill="black" stroke="black" points="979.07,-430.5 989.07,-427 979.07,-423.5 979.07,-430.5"/>
</g>
<!-- SYSTICK&#45;&gt;CORTEX_M4 -->
<g id="edge20" class="edge">
<title>SYSTICK&#45;&gt;CORTEX_M4</title>
<path fill="none" stroke="black" d="M472.16,-340.5C497.52,-340.5 526.75,-340.5 526.75,-340.5 526.75,-340.5 526.75,-228.5 526.75,-228.5"/>
<polygon fill="black" stroke="black" points="530.25,-228.5 526.75,-218.5 523.25,-228.5 530.25,-228.5"/>
</g>
<!-- TIME&#45;&gt;GPIO -->
<g id="edge29" class="edge">
<title>TIME&#45;&gt;GPIO</title>
<path fill="none" stroke="black" d="M1044.61,-433.6C1067.61,-433.6 1096.75,-433.6 1096.75,-433.6 1096.75,-433.6 1096.75,-460.53 1096.75,-460.53"/>
<polygon fill="black" stroke="black" points="1093.25,-460.53 1096.75,-470.53 1100.25,-460.53 1093.25,-460.53"/>
</g>
<!-- TIME&#45;&gt;UART -->
<g id="edge40" class="edge">
<title>TIME&#45;&gt;UART</title>
<path fill="none" stroke="black" d="M1044.54,-405.75C1100.44,-405.75 1222.75,-405.75 1222.75,-405.75 1222.75,-405.75 1222.75,-239.42 1222.75,-239.42"/>
<polygon fill="black" stroke="black" points="1226.25,-239.42 1222.75,-229.42 1219.25,-239.42 1226.25,-239.42"/>
</g>
<!-- LOG -->
<g id="node39" class="node">
<title>LOG</title>
<polygon fill="none" stroke="black" points="1636,-231 1582,-231 1582,-195 1636,-195 1636,-231"/>
<text text-anchor="middle" x="1609" y="-207.95" font-family="Times,serif" font-size="14.00">LOG</text>
</g>
<!-- TIME&#45;&gt;LOG -->
<g id="edge67" class="edge">
<title>TIME&#45;&gt;LOG</title>
<path fill="none" stroke="black" d="M1044.38,-410.5C1106.5,-410.5 1253.75,-410.5 1253.75,-410.5 1253.75,-410.5 1253.75,-217 1253.75,-217 1253.75,-217 1570.71,-217 1570.71,-217"/>
<polygon fill="black" stroke="black" points="1570.71,-220.5 1580.71,-217 1570.71,-213.5 1570.71,-220.5"/>
</g>
<!-- LED -->
<g id="node43" class="node">
<title>LED</title>
<polygon fill="none" stroke="black" points="1249.75,-510 1195.75,-510 1195.75,-474 1249.75,-474 1249.75,-510"/>
<text text-anchor="middle" x="1222.75" y="-486.95" font-family="Times,serif" font-size="14.00">LED</text>
</g>
<!-- TIME&#45;&gt;LED -->
<g id="edge78" class="edge">
<title>TIME&#45;&gt;LED</title>
<path fill="none" stroke="black" d="M1044.51,-430.2C1088.38,-430.2 1169.75,-430.2 1169.75,-430.2 1169.75,-430.2 1169.75,-485.33 1169.75,-485.33 1169.75,-485.33 1184.32,-485.33 1184.32,-485.33"/>
<polygon fill="black" stroke="black" points="1184.32,-488.83 1194.32,-485.33 1184.32,-481.83 1184.32,-488.83"/>
</g>
<!-- LED_MONO -->
<g id="node44" class="node">
<title>LED_MONO</title>
<polygon fill="none" stroke="black" points="1393.75,-468 1302.75,-468 1302.75,-432 1393.75,-432 1393.75,-468"/>
<text text-anchor="middle" x="1348.25" y="-444.95" font-family="Times,serif" font-size="14.00">LED_MONO</text>
</g>
<!-- TIME&#45;&gt;LED_MONO -->
<g id="edge80" class="edge">
<title>TIME&#45;&gt;LED_MONO</title>
<path fill="none" stroke="black" d="M1044.75,-415.25C1117.01,-415.25 1306.75,-415.25 1306.75,-415.25 1306.75,-415.25 1306.75,-420.81 1306.75,-420.81"/>
<polygon fill="black" stroke="black" points="1303.25,-420.81 1306.75,-430.81 1310.25,-420.81 1303.25,-420.81"/>
</g>
<!-- SCHEDULER -->
<g id="node45" class="node">
<title>SCHEDULER</title>
<polygon fill="none" stroke="black" points="1257.75,-643 1187.75,-643 1187.75,-607 1257.75,-607 1257.75,-643"/>
<text text-anchor="middle" x="1222.75" y="-619.95" font-family="Times,serif" font-size="14.00">Scheduler</text>
</g>
<!-- TIME&#45;&gt;SCHEDULER -->
<g id="edge85" class="edge">
<title>TIME&#45;&gt;SCHEDULER</title>
<path fill="none" stroke="red" d="M1044.52,-423.4C1093.59,-423.4 1191.75,-423.4 1191.75,-423.4 1191.75,-423.4 1191.75,-595.75 1191.75,-595.75"/>
<polygon fill="red" stroke="red" points="1188.25,-595.75 1191.75,-605.75 1195.25,-595.75 1188.25,-595.75"/>
</g>
<!-- LIMITER -->
<g id="node47" class="node">
<title>LIMITER</title>
<polygon fill="none" stroke="black" points="1151.75,-643 1080.25,-643 1080.25,-607 1151.75,-607 1151.75,-643"/>
<text text-anchor="middle" x="1116" y="-619.95" font-family="Times,serif" font-size="14.00">LIMITER</text>
</g>
<!-- TIME&#45;&gt;LIMITER -->
<g id="edge92" class="edge">
<title>TIME&#45;&gt;LIMITER</title>
<path fill="none" stroke="black" d="M1044.51,-426.8C1054.2,-426.8 1062.75,-426.8 1062.75,-426.8 1062.75,-426.8 1062.75,-619 1062.75,-619 1062.75,-619 1068.89,-619 1068.89,-619"/>
<polygon fill="black" stroke="black" points="1068.89,-622.5 1078.89,-619 1068.89,-615.5 1068.89,-622.5"/>
</g>
<!-- CORTEX_M4&#45;&gt;NVIC -->
<g id="edge14" class="edge">
<title>CORTEX_M4&#45;&gt;NVIC</title>
<path fill="none" stroke="black" d="M608.21,-205C608.21,-205 650.3,-205 650.3,-205"/>
<polygon fill="black" stroke="black" points="650.3,-208.5 660.3,-205 650.3,-201.5 650.3,-208.5"/>
</g>
<!-- FPU&#45;&gt;CORTEX_M4 -->
<g id="edge16" class="edge">
<title>FPU&#45;&gt;CORTEX_M4</title>
<path fill="none" stroke="black" d="M462.92,-199C462.92,-199 501.21,-199 501.21,-199"/>
<polygon fill="black" stroke="black" points="501.21,-202.5 511.21,-199 501.21,-195.5 501.21,-202.5"/>
</g>
<!-- THUMB -->
<g id="node14" class="node">
<title>THUMB</title>
<polygon fill="none" stroke="black" points="468.38,-309 402.88,-309 402.88,-273 468.38,-273 468.38,-309"/>
<text text-anchor="middle" x="435.62" y="-285.95" font-family="Times,serif" font-size="14.00">THUMB</text>
</g>
<!-- THUMB&#45;&gt;CORTEX_M4 -->
<g id="edge17" class="edge">
<title>THUMB&#45;&gt;CORTEX_M4</title>
<path fill="none" stroke="black" d="M468.56,-291C491.4,-291 517.75,-291 517.75,-291 517.75,-291 517.75,-228.18 517.75,-228.18"/>
<polygon fill="black" stroke="black" points="521.25,-228.18 517.75,-218.18 514.25,-228.18 521.25,-228.18"/>
</g>
<!-- ARRAY -->
<g id="node15" class="node">
<title>ARRAY</title>
<polygon fill="none" stroke="black" points="719.75,-737 657.25,-737 657.25,-701 719.75,-701 719.75,-737"/>
<text text-anchor="middle" x="688.5" y="-713.95" font-family="Times,serif" font-size="14.00">ARRAY</text>
</g>
<!-- ARRAY&#45;&gt;FLASH -->
<g id="edge21" class="edge">
<title>ARRAY&#45;&gt;FLASH</title>
<path fill="none" stroke="black" d="M719.94,-708C719.94,-708 773.63,-708 773.63,-708"/>
<polygon fill="black" stroke="black" points="773.63,-711.5 783.63,-708 773.63,-704.5 773.63,-711.5"/>
</g>
<!-- FLASH&#45;&gt;DEBUGGER -->
<g id="edge76" class="edge">
<title>FLASH&#45;&gt;DEBUGGER</title>
<path fill="none" stroke="black" d="M784.66,-722C760.62,-722 730.75,-722 730.75,-722 730.75,-722 730.75,-781.56 730.75,-781.56"/>
<polygon fill="black" stroke="black" points="727.25,-781.56 730.75,-791.56 734.25,-781.56 727.25,-781.56"/>
</g>
<!-- FLASH&#45;&gt;SCHEDULER -->
<g id="edge86" class="edge">
<title>FLASH&#45;&gt;SCHEDULER</title>
<path fill="none" stroke="blue" d="M844.07,-711C938.05,-711 1222.75,-711 1222.75,-711 1222.75,-711 1222.75,-654.24 1222.75,-654.24"/>
<polygon fill="blue" stroke="blue" points="1226.25,-654.24 1222.75,-644.24 1219.25,-654.24 1226.25,-654.24"/>
</g>
<!-- FLASH&#45;&gt;LIMITER -->
<g id="edge93" class="edge">
<title>FLASH&#45;&gt;LIMITER</title>
<path fill="none" stroke="black" d="M814.75,-692.85C814.75,-669.24 814.75,-631 814.75,-631 814.75,-631 1068.96,-631 1068.96,-631"/>
<polygon fill="black" stroke="black" points="1068.96,-634.5 1078.96,-631 1068.96,-627.5 1068.96,-634.5"/>
</g>
<!-- INTERVAL -->
<g id="node17" class="node">
<title>INTERVAL</title>
<polygon fill="none" stroke="black" points="476.25,-848 395,-848 395,-812 476.25,-812 476.25,-848"/>
<text text-anchor="middle" x="435.62" y="-824.95" font-family="Times,serif" font-size="14.00">INTERVAL</text>
</g>
<!-- INTERVAL&#45;&gt;FLASH -->
<g id="edge23" class="edge">
<title>INTERVAL&#45;&gt;FLASH</title>
<path fill="none" stroke="black" d="M417.75,-811.57C417.75,-775.57 417.75,-699.4 417.75,-699.4 417.75,-699.4 773.56,-699.4 773.56,-699.4"/>
<polygon fill="black" stroke="black" points="773.56,-702.9 783.56,-699.4 773.56,-695.9 773.56,-702.9"/>
</g>
<!-- FLOAT -->
<g id="node18" class="node">
<title>FLOAT</title>
<polygon fill="none" stroke="black" points="717.5,-607 659.5,-607 659.5,-571 717.5,-571 717.5,-607"/>
<text text-anchor="middle" x="688.5" y="-583.95" font-family="Times,serif" font-size="14.00">FLOAT</text>
</g>
<!-- FLOAT&#45;&gt;FLASH -->
<g id="edge25" class="edge">
<title>FLOAT&#45;&gt;FLASH</title>
<path fill="none" stroke="black" d="M688.75,-607.19C688.75,-637.77 688.75,-696.2 688.75,-696.2 688.75,-696.2 773.6,-696.2 773.6,-696.2"/>
<polygon fill="black" stroke="black" points="773.6,-699.7 783.6,-696.2 773.6,-692.7 773.6,-699.7"/>
</g>
<!-- MATH -->
<g id="node23" class="node">
<title>MATH</title>
<polygon fill="none" stroke="black" points="841.88,-315 786.88,-315 786.88,-279 841.88,-279 841.88,-315"/>
<text text-anchor="middle" x="814.38" y="-291.95" font-family="Times,serif" font-size="14.00">MATH</text>
</g>
<!-- FLOAT&#45;&gt;MATH -->
<g id="edge96" class="edge">
<title>FLOAT&#45;&gt;MATH</title>
<path fill="none" stroke="black" d="M717.85,-589C722.47,-589 725.75,-589 725.75,-589 725.75,-589 725.75,-301.5 725.75,-301.5 725.75,-301.5 775.82,-301.5 775.82,-301.5"/>
<polygon fill="black" stroke="black" points="775.82,-305 785.82,-301.5 775.82,-298 775.82,-305"/>
</g>
<!-- PWM -->
<g id="node22" class="node">
<title>PWM</title>
<polygon fill="none" stroke="black" points="1249.75,-456 1195.75,-456 1195.75,-420 1249.75,-420 1249.75,-456"/>
<text text-anchor="middle" x="1222.75" y="-432.95" font-family="Times,serif" font-size="14.00">PWM</text>
</g>
<!-- GPIO&#45;&gt;PWM -->
<g id="edge31" class="edge">
<title>GPIO&#45;&gt;PWM</title>
<path fill="none" stroke="black" d="M1120.75,-471.55C1120.75,-459.7 1120.75,-446.5 1120.75,-446.5 1120.75,-446.5 1184.42,-446.5 1184.42,-446.5"/>
<polygon fill="black" stroke="black" points="1184.42,-450 1194.42,-446.5 1184.42,-443 1184.42,-450"/>
</g>
<!-- GPIO&#45;&gt;UART -->
<g id="edge43" class="edge">
<title>GPIO&#45;&gt;UART</title>
<path fill="none" stroke="fuchsia" d="M1112.75,-471.55C1112.75,-409.94 1112.75,-215.25 1112.75,-215.25 1112.75,-215.25 1184.28,-215.25 1184.28,-215.25"/>
<polygon fill="fuchsia" stroke="fuchsia" points="1184.28,-218.75 1194.28,-215.25 1184.28,-211.75 1184.28,-218.75"/>
</g>
<!-- GPIO&#45;&gt;LED -->
<g id="edge77" class="edge">
<title>GPIO&#45;&gt;LED</title>
<path fill="none" stroke="black" d="M1143.49,-496.67C1143.49,-496.67 1184.35,-496.67 1184.35,-496.67"/>
<polygon fill="black" stroke="black" points="1184.35,-500.17 1194.35,-496.67 1184.35,-493.17 1184.35,-500.17"/>
</g>
<!-- GPIO&#45;&gt;LED_MONO -->
<g id="edge79" class="edge">
<title>GPIO&#45;&gt;LED_MONO</title>
<path fill="none" stroke="black" d="M1127.75,-471.51C1127.75,-465.34 1127.75,-460 1127.75,-460 1127.75,-460 1291.29,-460 1291.29,-460"/>
<polygon fill="black" stroke="black" points="1291.29,-463.5 1301.29,-460 1291.29,-456.5 1291.29,-463.5"/>
</g>
<!-- MCU -->
<g id="node20" class="node">
<title>MCU</title>
<polygon fill="none" stroke="black" points="1044.25,-508 990.25,-508 990.25,-472 1044.25,-472 1044.25,-508"/>
<text text-anchor="middle" x="1017.25" y="-484.95" font-family="Times,serif" font-size="14.00">MCU</text>
</g>
<!-- MCU&#45;&gt;GPIO -->
<g id="edge28" class="edge">
<title>MCU&#45;&gt;GPIO</title>
<path fill="none" stroke="black" d="M1044.5,-490C1044.5,-490 1077.5,-490 1077.5,-490"/>
<polygon fill="black" stroke="black" points="1077.5,-493.5 1087.5,-490 1077.5,-486.5 1077.5,-493.5"/>
</g>
<!-- TIMER&#45;&gt;TIME -->
<g id="edge37" class="edge">
<title>TIMER&#45;&gt;TIME</title>
<path fill="none" stroke="black" d="M954.61,-409C954.61,-409 978.76,-409 978.76,-409"/>
<polygon fill="black" stroke="black" points="978.76,-412.5 988.76,-409 978.76,-405.5 978.76,-412.5"/>
</g>
<!-- TIMER&#45;&gt;PWM -->
<g id="edge30" class="edge">
<title>TIMER&#45;&gt;PWM</title>
<path fill="none" stroke="black" d="M954.7,-395.5C1028.51,-395.5 1213.75,-395.5 1213.75,-395.5 1213.75,-395.5 1213.75,-408.73 1213.75,-408.73"/>
<polygon fill="black" stroke="black" points="1210.25,-408.73 1213.75,-418.73 1217.25,-408.73 1210.25,-408.73"/>
</g>
<!-- MATH&#45;&gt;TIMER -->
<g id="edge36" class="edge">
<title>MATH&#45;&gt;TIMER</title>
<path fill="none" stroke="black" d="M842.25,-312.75C876.68,-312.75 930.75,-312.75 930.75,-312.75 930.75,-312.75 930.75,-369.71 930.75,-369.71"/>
<polygon fill="black" stroke="black" points="927.25,-369.71 930.75,-379.71 934.25,-369.71 927.25,-369.71"/>
</g>
<!-- MATH&#45;&gt;LED_MONO -->
<g id="edge81" class="edge">
<title>MATH&#45;&gt;LED_MONO</title>
<path fill="none" stroke="black" d="M842.13,-310.5C946.66,-310.5 1310.75,-310.5 1310.75,-310.5 1310.75,-310.5 1310.75,-420.76 1310.75,-420.76"/>
<polygon fill="black" stroke="black" points="1307.25,-420.76 1310.75,-430.76 1314.25,-420.76 1307.25,-420.76"/>
</g>
<!-- STRING_READER -->
<g id="node35" class="node">
<title>STRING_READER</title>
<polygon fill="none" stroke="black" points="1671.75,-342 1546.25,-342 1546.25,-306 1671.75,-306 1671.75,-342"/>
<text text-anchor="middle" x="1609" y="-318.95" font-family="Times,serif" font-size="14.00">STRING_READER</text>
</g>
<!-- UART&#45;&gt;STRING_READER -->
<g id="edge57" class="edge">
<title>UART&#45;&gt;STRING_READER</title>
<path fill="none" stroke="chartreuse" d="M1231.75,-228.48C1231.75,-256.94 1231.75,-308.25 1231.75,-308.25 1231.75,-308.25 1534.86,-308.25 1534.86,-308.25"/>
<polygon fill="chartreuse" stroke="chartreuse" points="1534.86,-311.75 1544.86,-308.25 1534.86,-304.75 1534.86,-311.75"/>
</g>
<!-- STREAM -->
<g id="node36" class="node">
<title>STREAM</title>
<polygon fill="none" stroke="black" points="1510.25,-296 1438.75,-296 1438.75,-260 1510.25,-260 1510.25,-296"/>
<text text-anchor="middle" x="1474.5" y="-272.95" font-family="Times,serif" font-size="14.00">STREAM</text>
</g>
<!-- UART&#45;&gt;STREAM -->
<g id="edge56" class="edge">
<title>UART&#45;&gt;STREAM</title>
<path fill="none" stroke="chartreuse" d="M1240.75,-228.24C1240.75,-245.46 1240.75,-268.67 1240.75,-268.67 1240.75,-268.67 1427.49,-268.67 1427.49,-268.67"/>
<polygon fill="chartreuse" stroke="chartreuse" points="1427.49,-272.17 1437.49,-268.67 1427.49,-265.17 1427.49,-272.17"/>
</g>
<!-- WRITER -->
<g id="node37" class="node">
<title>WRITER</title>
<polygon fill="none" stroke="black" points="1382.5,-136 1314,-136 1314,-100 1382.5,-100 1382.5,-136"/>
<text text-anchor="middle" x="1348.25" y="-112.95" font-family="Times,serif" font-size="14.00">WRITER</text>
</g>
<!-- UART&#45;&gt;WRITER -->
<g id="edge74" class="edge">
<title>UART&#45;&gt;WRITER</title>
<path fill="none" stroke="black" d="M1236.75,-191.54C1236.75,-162.47 1236.75,-109.33 1236.75,-109.33 1236.75,-109.33 1302.58,-109.33 1302.58,-109.33"/>
<polygon fill="black" stroke="black" points="1302.58,-112.83 1312.58,-109.33 1302.58,-105.83 1302.58,-112.83"/>
</g>
<!-- UART&#45;&gt;LOG -->
<g id="edge70" class="edge">
<title>UART&#45;&gt;LOG</title>
<path fill="none" stroke="black" d="M1250.22,-206C1250.22,-206 1570.67,-206 1570.67,-206"/>
<polygon fill="black" stroke="black" points="1570.67,-209.5 1580.67,-206 1570.67,-202.5 1570.67,-209.5"/>
</g>
<!-- FIFO -->
<g id="node25" class="node">
<title>FIFO</title>
<polygon fill="none" stroke="black" points="1143,-36 1089,-36 1089,0 1143,0 1143,-36"/>
<text text-anchor="middle" x="1116" y="-12.95" font-family="Times,serif" font-size="14.00">FIFO</text>
</g>
<!-- FIFO&#45;&gt;UART -->
<g id="edge41" class="edge">
<title>FIFO&#45;&gt;UART</title>
<path fill="none" stroke="black" d="M1143.49,-28.8C1175.12,-28.8 1222.75,-28.8 1222.75,-28.8 1222.75,-28.8 1222.75,-180.63 1222.75,-180.63"/>
<polygon fill="black" stroke="black" points="1219.25,-180.63 1222.75,-190.63 1226.25,-180.63 1219.25,-180.63"/>
</g>
<!-- FIFO&#45;&gt;STRING_READER -->
<g id="edge58" class="edge">
<title>FIFO&#45;&gt;STRING_READER</title>
<path fill="none" stroke="aqua" d="M1143.42,-14.4C1241.74,-14.4 1570.75,-14.4 1570.75,-14.4 1570.75,-14.4 1570.75,-294.56 1570.75,-294.56"/>
<polygon fill="aqua" stroke="aqua" points="1567.25,-294.56 1570.75,-304.56 1574.25,-294.56 1567.25,-294.56"/>
</g>
<!-- FIFO&#45;&gt;WRITER -->
<g id="edge73" class="edge">
<title>FIFO&#45;&gt;WRITER</title>
<path fill="none" stroke="black" d="M1143.15,-21.6C1204.55,-21.6 1348.75,-21.6 1348.75,-21.6 1348.75,-21.6 1348.75,-88.87 1348.75,-88.87"/>
<polygon fill="black" stroke="black" points="1345.25,-88.87 1348.75,-98.87 1352.25,-88.87 1345.25,-88.87"/>
</g>
<!-- FIFO&#45;&gt;LOG -->
<g id="edge69" class="edge">
<title>FIFO&#45;&gt;LOG</title>
<path fill="none" stroke="black" d="M1143.39,-7.2C1248.3,-7.2 1618.75,-7.2 1618.75,-7.2 1618.75,-7.2 1618.75,-183.74 1618.75,-183.74"/>
<polygon fill="black" stroke="black" points="1615.25,-183.74 1618.75,-193.74 1622.25,-183.74 1615.25,-183.74"/>
</g>
<!-- DMA -->
<g id="node26" class="node">
<title>DMA</title>
<polygon fill="none" stroke="black" points="1143,-128 1089,-128 1089,-92 1143,-92 1143,-128"/>
<text text-anchor="middle" x="1116" y="-104.95" font-family="Times,serif" font-size="14.00">DMA</text>
</g>
<!-- DMA&#45;&gt;UART -->
<g id="edge42" class="edge">
<title>DMA&#45;&gt;UART</title>
<path fill="none" stroke="green" d="M1143.37,-118.67C1171.04,-118.67 1209.75,-118.67 1209.75,-118.67 1209.75,-118.67 1209.75,-180.52 1209.75,-180.52"/>
<polygon fill="green" stroke="green" points="1206.25,-180.52 1209.75,-190.52 1213.25,-180.52 1206.25,-180.52"/>
</g>
<!-- UART1 -->
<g id="node27" class="node">
<title>UART1</title>
<polygon fill="none" stroke="black" points="1145.38,-182 1086.62,-182 1086.62,-146 1145.38,-146 1145.38,-182"/>
<text text-anchor="middle" x="1116" y="-158.95" font-family="Times,serif" font-size="14.00">UART1</text>
</g>
<!-- UART1&#45;&gt;UART -->
<g id="edge46" class="edge">
<title>UART1&#45;&gt;UART</title>
<path fill="none" stroke="black" d="M1135.75,-182.29C1135.75,-191.09 1135.75,-199.75 1135.75,-199.75 1135.75,-199.75 1184.7,-199.75 1184.7,-199.75"/>
<polygon fill="black" stroke="black" points="1184.7,-203.25 1194.7,-199.75 1184.7,-196.25 1184.7,-203.25"/>
</g>
<!-- PLL_CALC -->
<g id="node28" class="node">
<title>PLL_CALC</title>
<polygon fill="none" stroke="black" points="172.75,-829 90,-829 90,-793 172.75,-793 172.75,-829"/>
<text text-anchor="middle" x="131.38" y="-805.95" font-family="Times,serif" font-size="14.00">PLL_CALC</text>
</g>
<!-- PLL_CALC&#45;&gt;CLOCK -->
<g id="edge47" class="edge">
<title>PLL_CALC&#45;&gt;CLOCK</title>
<path fill="none" stroke="black" d="M170.75,-792.83C170.75,-731.2 170.75,-534 170.75,-534 170.75,-534 241.66,-534 241.66,-534"/>
<polygon fill="black" stroke="black" points="241.66,-537.5 251.66,-534 241.66,-530.5 241.66,-537.5"/>
</g>
<!-- APPLICATION -->
<g id="node51" class="node">
<title>APPLICATION</title>
<polygon fill="none" stroke="black" points="335.38,-829 232.38,-829 232.38,-793 335.38,-793 335.38,-829"/>
<text text-anchor="middle" x="283.88" y="-805.95" font-family="Times,serif" font-size="14.00">APPLICATION</text>
</g>
<!-- PLL_CALC&#45;&gt;APPLICATION -->
<g id="edge91" class="edge">
<title>PLL_CALC&#45;&gt;APPLICATION</title>
<path fill="none" stroke="black" d="M173.05,-811C173.05,-811 220.9,-811 220.9,-811"/>
<polygon fill="black" stroke="black" points="220.9,-814.5 230.9,-811 220.9,-807.5 220.9,-814.5"/>
</g>
<!-- NVRAM -->
<g id="node29" class="node">
<title>NVRAM</title>
<polygon fill="none" stroke="black" points="164.88,-546 97.88,-546 97.88,-510 164.88,-510 164.88,-546"/>
<text text-anchor="middle" x="131.38" y="-522.95" font-family="Times,serif" font-size="14.00">NVRAM</text>
</g>
<!-- NVRAM&#45;&gt;CLOCK -->
<g id="edge48" class="edge">
<title>NVRAM&#45;&gt;CLOCK</title>
<path fill="none" stroke="black" d="M165.22,-522C165.22,-522 241.72,-522 241.72,-522"/>
<polygon fill="black" stroke="black" points="241.72,-525.5 251.72,-522 241.72,-518.5 241.72,-525.5"/>
</g>
<!-- TIMER5 -->
<g id="node30" class="node">
<title>TIMER5</title>
<polygon fill="none" stroke="black" points="847.12,-423 781.62,-423 781.62,-387 847.12,-387 847.12,-423"/>
<text text-anchor="middle" x="814.38" y="-399.95" font-family="Times,serif" font-size="14.00">TIMER5</text>
</g>
<!-- TIMER5&#45;&gt;TIMER -->
<g id="edge50" class="edge">
<title>TIMER5&#45;&gt;TIMER</title>
<path fill="none" stroke="black" d="M847.53,-397C847.53,-397 884.13,-397 884.13,-397"/>
<polygon fill="black" stroke="black" points="884.13,-400.5 894.13,-397 884.13,-393.5 884.13,-400.5"/>
</g>
<!-- TIMER2 -->
<g id="node31" class="node">
<title>TIMER2</title>
<polygon fill="none" stroke="black" points="847.12,-369 781.62,-369 781.62,-333 847.12,-333 847.12,-369"/>
<text text-anchor="middle" x="814.38" y="-345.95" font-family="Times,serif" font-size="14.00">TIMER2</text>
</g>
<!-- TIMER2&#45;&gt;TIMER -->
<g id="edge51" class="edge">
<title>TIMER2&#45;&gt;TIMER</title>
<path fill="none" stroke="black" d="M847.43,-355.5C878.33,-355.5 919.75,-355.5 919.75,-355.5 919.75,-355.5 919.75,-369.55 919.75,-369.55"/>
<polygon fill="black" stroke="black" points="916.25,-369.55 919.75,-379.55 923.25,-369.55 916.25,-369.55"/>
</g>
<!-- TIMER3 -->
<g id="node32" class="node">
<title>TIMER3</title>
<polygon fill="none" stroke="black" points="847.12,-531 781.62,-531 781.62,-495 847.12,-495 847.12,-531"/>
<text text-anchor="middle" x="814.38" y="-507.95" font-family="Times,serif" font-size="14.00">TIMER3</text>
</g>
<!-- TIMER3&#45;&gt;TIMER -->
<g id="edge52" class="edge">
<title>TIMER3&#45;&gt;TIMER</title>
<path fill="none" stroke="black" d="M847.34,-501.5C851.73,-501.5 854.75,-501.5 854.75,-501.5 854.75,-501.5 854.75,-407 854.75,-407 854.75,-407 884.14,-407 884.14,-407"/>
<polygon fill="black" stroke="black" points="884.14,-410.5 894.14,-407 884.14,-403.5 884.14,-410.5"/>
</g>
<!-- TIMER9 -->
<g id="node33" class="node">
<title>TIMER9</title>
<polygon fill="none" stroke="black" points="847.12,-477 781.62,-477 781.62,-441 847.12,-441 847.12,-477"/>
<text text-anchor="middle" x="814.38" y="-453.95" font-family="Times,serif" font-size="14.00">TIMER9</text>
</g>
<!-- TIMER9&#45;&gt;TIMER -->
<g id="edge53" class="edge">
<title>TIMER9&#45;&gt;TIMER</title>
<path fill="none" stroke="black" d="M847.41,-456C850.64,-456 852.75,-456 852.75,-456 852.75,-456 852.75,-402 852.75,-402 852.75,-402 884.12,-402 884.12,-402"/>
<polygon fill="black" stroke="black" points="884.12,-405.5 894.12,-402 884.12,-398.5 884.12,-405.5"/>
</g>
<!-- STRING -->
<g id="node34" class="node">
<title>STRING</title>
<polygon fill="none" stroke="black" points="1506.88,-426 1442.12,-426 1442.12,-390 1506.88,-390 1506.88,-426"/>
<text text-anchor="middle" x="1474.5" y="-402.95" font-family="Times,serif" font-size="14.00">STRING</text>
</g>
<!-- STRING&#45;&gt;STRING_READER -->
<g id="edge54" class="edge">
<title>STRING&#45;&gt;STRING_READER</title>
<path fill="none" stroke="aqua" d="M1507.34,-392.67C1533.14,-392.67 1564.75,-392.67 1564.75,-392.67 1564.75,-392.67 1564.75,-353.4 1564.75,-353.4"/>
<polygon fill="aqua" stroke="aqua" points="1568.25,-353.4 1564.75,-343.4 1561.25,-353.4 1568.25,-353.4"/>
</g>
<!-- CLI -->
<g id="node38" class="node">
<title>CLI</title>
<polygon fill="none" stroke="black" points="1761.75,-319 1707.75,-319 1707.75,-283 1761.75,-283 1761.75,-319"/>
<text text-anchor="middle" x="1734.75" y="-295.95" font-family="Times,serif" font-size="14.00">CLI</text>
</g>
<!-- STRING&#45;&gt;CLI -->
<g id="edge60" class="edge">
<title>STRING&#45;&gt;CLI</title>
<path fill="none" stroke="aqua" d="M1507.35,-395.33C1575.45,-395.33 1725.75,-395.33 1725.75,-395.33 1725.75,-395.33 1725.75,-330.19 1725.75,-330.19"/>
<polygon fill="aqua" stroke="aqua" points="1729.25,-330.19 1725.75,-320.19 1722.25,-330.19 1729.25,-330.19"/>
</g>
<!-- CSV -->
<g id="node40" class="node">
<title>CSV</title>
<polygon fill="none" stroke="black" points="1636,-434 1582,-434 1582,-398 1636,-398 1636,-434"/>
<text text-anchor="middle" x="1609" y="-410.95" font-family="Times,serif" font-size="14.00">CSV</text>
</g>
<!-- STRING&#45;&gt;CSV -->
<g id="edge66" class="edge">
<title>STRING&#45;&gt;CSV</title>
<path fill="none" stroke="black" d="M1507.06,-412C1507.06,-412 1570.73,-412 1570.73,-412"/>
<polygon fill="black" stroke="black" points="1570.73,-415.5 1580.73,-412 1570.73,-408.5 1570.73,-415.5"/>
</g>
<!-- STRING_READER&#45;&gt;CLI -->
<g id="edge61" class="edge">
<title>STRING_READER&#45;&gt;CLI</title>
<path fill="none" stroke="aqua" d="M1672.24,-312.5C1672.24,-312.5 1696.34,-312.5 1696.34,-312.5"/>
<polygon fill="aqua" stroke="aqua" points="1696.34,-316 1706.34,-312.5 1696.34,-309 1696.34,-316"/>
</g>
<!-- STREAM&#45;&gt;STRING_READER -->
<g id="edge55" class="edge">
<title>STREAM&#45;&gt;STRING_READER</title>
<path fill="none" stroke="black" d="M1510.72,-292.75C1533.55,-292.75 1558.75,-292.75 1558.75,-292.75 1558.75,-292.75 1558.75,-294.82 1558.75,-294.82"/>
<polygon fill="black" stroke="black" points="1555.25,-294.82 1558.75,-304.82 1562.25,-294.82 1555.25,-294.82"/>
</g>
<!-- STREAM&#45;&gt;CLI -->
<g id="edge62" class="edge">
<title>STREAM&#45;&gt;CLI</title>
<path fill="none" stroke="aqua" d="M1510.69,-289.5C1510.69,-289.5 1696.59,-289.5 1696.59,-289.5"/>
<polygon fill="aqua" stroke="aqua" points="1696.59,-293 1706.59,-289.5 1696.59,-286 1696.59,-293"/>
</g>
<!-- STREAM&#45;&gt;LOG -->
<g id="edge68" class="edge">
<title>STREAM&#45;&gt;LOG</title>
<path fill="none" stroke="black" d="M1510.68,-271.5C1547.98,-271.5 1600.75,-271.5 1600.75,-271.5 1600.75,-271.5 1600.75,-242.19 1600.75,-242.19"/>
<polygon fill="black" stroke="black" points="1604.25,-242.19 1600.75,-232.19 1597.25,-242.19 1604.25,-242.19"/>
</g>
<!-- WRITER&#45;&gt;STREAM -->
<g id="edge72" class="edge">
<title>WRITER&#45;&gt;STREAM</title>
<path fill="none" stroke="black" d="M1348.75,-136.24C1348.75,-175.46 1348.75,-264.33 1348.75,-264.33 1348.75,-264.33 1427.47,-264.33 1427.47,-264.33"/>
<polygon fill="black" stroke="black" points="1427.47,-267.83 1437.47,-264.33 1427.47,-260.83 1427.47,-267.83"/>
</g>
<!-- WRITER&#45;&gt;CLI -->
<g id="edge59" class="edge">
<title>WRITER&#45;&gt;CLI</title>
<path fill="none" stroke="aqua" d="M1382.89,-112C1477.76,-112 1734.75,-112 1734.75,-112 1734.75,-112 1734.75,-271.53 1734.75,-271.53"/>
<polygon fill="aqua" stroke="aqua" points="1731.25,-271.53 1734.75,-281.53 1738.25,-271.53 1731.25,-271.53"/>
</g>
<!-- WRITER&#45;&gt;LOG -->
<g id="edge71" class="edge">
<title>WRITER&#45;&gt;LOG</title>
<path fill="none" stroke="black" d="M1382.83,-124C1451.98,-124 1600.75,-124 1600.75,-124 1600.75,-124 1600.75,-183.56 1600.75,-183.56"/>
<polygon fill="black" stroke="black" points="1597.25,-183.56 1600.75,-193.56 1604.25,-183.56 1597.25,-183.56"/>
</g>
<!-- LOG&#45;&gt;CLI -->
<g id="edge63" class="edge">
<title>LOG&#45;&gt;CLI</title>
<path fill="none" stroke="aqua" d="M1618.75,-231.48C1618.75,-253.18 1618.75,-286.25 1618.75,-286.25 1618.75,-286.25 1696.26,-286.25 1696.26,-286.25"/>
<polygon fill="aqua" stroke="aqua" points="1696.26,-289.75 1706.26,-286.25 1696.26,-282.75 1696.26,-289.75"/>
</g>
<!-- CSV&#45;&gt;CLI -->
<g id="edge64" class="edge">
<title>CSV&#45;&gt;CLI</title>
<path fill="none" stroke="aqua" d="M1636.27,-416C1675.64,-416 1743.75,-416 1743.75,-416 1743.75,-416 1743.75,-330.48 1743.75,-330.48"/>
<polygon fill="aqua" stroke="aqua" points="1747.25,-330.48 1743.75,-320.48 1740.25,-330.48 1747.25,-330.48"/>
</g>
<!-- RAM -->
<g id="node41" class="node">
<title>RAM</title>
<polygon fill="none" stroke="black" points="54,-894 0,-894 0,-858 54,-858 54,-894"/>
<text text-anchor="middle" x="27" y="-870.95" font-family="Times,serif" font-size="14.00">RAM</text>
</g>
<!-- RAM&#45;&gt;INTERVAL -->
<g id="edge94" class="edge">
<title>RAM&#45;&gt;INTERVAL</title>
<path fill="none" stroke="black" d="M36.75,-857.69C36.75,-848.17 36.75,-838.5 36.75,-838.5 36.75,-838.5 383.81,-838.5 383.81,-838.5"/>
<polygon fill="black" stroke="black" points="383.81,-842 393.81,-838.5 383.81,-835 383.81,-842"/>
</g>
<!-- RAM&#45;&gt;PLL_CALC -->
<g id="edge90" class="edge">
<title>RAM&#45;&gt;PLL_CALC</title>
<path fill="none" stroke="black" d="M54.17,-870C73.75,-870 96.75,-870 96.75,-870 96.75,-870 96.75,-840.34 96.75,-840.34"/>
<polygon fill="black" stroke="black" points="100.25,-840.34 96.75,-830.34 93.25,-840.34 100.25,-840.34"/>
</g>
<!-- RAM&#45;&gt;CSV -->
<g id="edge65" class="edge">
<title>RAM&#45;&gt;CSV</title>
<path fill="none" stroke="black" d="M54.47,-882C264.64,-882 1609.75,-882 1609.75,-882 1609.75,-882 1609.75,-445.27 1609.75,-445.27"/>
<polygon fill="black" stroke="black" points="1613.25,-445.27 1609.75,-435.27 1606.25,-445.27 1613.25,-445.27"/>
</g>
<!-- CRC8 -->
<g id="node48" class="node">
<title>CRC8</title>
<polygon fill="none" stroke="black" points="158.38,-775 104.38,-775 104.38,-739 158.38,-739 158.38,-775"/>
<text text-anchor="middle" x="131.38" y="-751.95" font-family="Times,serif" font-size="14.00">CRC8</text>
</g>
<!-- RAM&#45;&gt;CRC8 -->
<g id="edge87" class="edge">
<title>RAM&#45;&gt;CRC8</title>
<path fill="none" stroke="black" d="M18.75,-857.67C18.75,-824.29 18.75,-757 18.75,-757 18.75,-757 93.11,-757 93.11,-757"/>
<polygon fill="black" stroke="black" points="93.11,-760.5 103.11,-757 93.11,-753.5 93.11,-760.5"/>
</g>
<!-- CRC16 -->
<g id="node49" class="node">
<title>CRC16</title>
<polygon fill="none" stroke="black" points="159.62,-1013 103.12,-1013 103.12,-977 159.62,-977 159.62,-1013"/>
<text text-anchor="middle" x="131.38" y="-989.95" font-family="Times,serif" font-size="14.00">CRC16</text>
</g>
<!-- RAM&#45;&gt;CRC16 -->
<g id="edge88" class="edge">
<title>RAM&#45;&gt;CRC16</title>
<path fill="none" stroke="black" d="M18.75,-894.33C18.75,-927.71 18.75,-995 18.75,-995 18.75,-995 91.66,-995 91.66,-995"/>
<polygon fill="black" stroke="black" points="91.66,-998.5 101.66,-995 91.66,-991.5 91.66,-998.5"/>
</g>
<!-- CRC32 -->
<g id="node50" class="node">
<title>CRC32</title>
<polygon fill="none" stroke="black" points="159.62,-959 103.12,-959 103.12,-923 159.62,-923 159.62,-959"/>
<text text-anchor="middle" x="131.38" y="-935.95" font-family="Times,serif" font-size="14.00">CRC32</text>
</g>
<!-- RAM&#45;&gt;CRC32 -->
<g id="edge89" class="edge">
<title>RAM&#45;&gt;CRC32</title>
<path fill="none" stroke="black" d="M36.75,-894.45C36.75,-913.67 36.75,-941 36.75,-941 36.75,-941 91.73,-941 91.73,-941"/>
<polygon fill="black" stroke="black" points="91.73,-944.5 101.73,-941 91.73,-937.5 91.73,-944.5"/>
</g>
<!-- LED&#45;&gt;LED_MONO -->
<g id="edge82" class="edge">
<title>LED&#45;&gt;LED_MONO</title>
<path fill="none" stroke="black" d="M1222.75,-473.79C1222.75,-468.45 1222.75,-464 1222.75,-464 1222.75,-464 1291.59,-464 1291.59,-464"/>
<polygon fill="black" stroke="black" points="1291.59,-467.5 1301.59,-464 1291.59,-460.5 1291.59,-467.5"/>
</g>
<!-- SUPER_CYCLE -->
<g id="node46" class="node">
<title>SUPER_CYCLE</title>
<polygon fill="none" stroke="black" points="1402.75,-643 1293.75,-643 1293.75,-607 1402.75,-607 1402.75,-643"/>
<text text-anchor="middle" x="1348.25" y="-619.95" font-family="Times,serif" font-size="14.00">SUPER_CYCLE</text>
</g>
<!-- SCHEDULER&#45;&gt;SUPER_CYCLE -->
<g id="edge83" class="edge">
<title>SCHEDULER&#45;&gt;SUPER_CYCLE</title>
<path fill="none" stroke="black" d="M1258.04,-625C1258.04,-625 1282.52,-625 1282.52,-625"/>
<polygon fill="black" stroke="black" points="1282.52,-628.5 1292.52,-625 1282.52,-621.5 1282.52,-628.5"/>
</g>
<!-- LIMITER&#45;&gt;SCHEDULER -->
<g id="edge84" class="edge">
<title>LIMITER&#45;&gt;SCHEDULER</title>
<path fill="none" stroke="green" d="M1152.14,-625C1152.14,-625 1176.37,-625 1176.37,-625"/>
<polygon fill="green" stroke="green" points="1176.37,-628.5 1186.37,-625 1176.37,-621.5 1176.37,-628.5"/>
</g>
<!-- ASM -->
<g id="node52" class="node">
<title>ASM</title>
<polygon fill="none" stroke="black" points="715.5,-477 661.5,-477 661.5,-441 715.5,-441 715.5,-477"/>
<text text-anchor="middle" x="688.5" y="-453.95" font-family="Times,serif" font-size="14.00">ASM</text>
</g>
<!-- ASM&#45;&gt;MATH -->
<g id="edge95" class="edge">
<title>ASM&#45;&gt;MATH</title>
<path fill="none" stroke="black" d="M708.75,-440.71C708.75,-397.75 708.75,-294 708.75,-294 708.75,-294 775.62,-294 775.62,-294"/>
<polygon fill="black" stroke="black" points="775.62,-297.5 785.62,-294 775.62,-290.5 775.62,-297.5"/>
</g>
<!-- DWT -->
<g id="node53" class="node">
<title>DWT</title>
<polygon fill="none" stroke="black" points="951.88,-471 897.88,-471 897.88,-435 951.88,-435 951.88,-471"/>
<text text-anchor="middle" x="924.88" y="-447.95" font-family="Times,serif" font-size="14.00">DWT</text>
</g>
<!-- DWT&#45;&gt;TIME -->
<g id="edge97" class="edge">
<title>DWT&#45;&gt;TIME</title>
<path fill="none" stroke="black" d="M925.75,-434.83C925.75,-432.55 925.75,-431 925.75,-431 925.75,-431 978.8,-431 978.8,-431"/>
<polygon fill="black" stroke="black" points="978.8,-434.5 988.8,-431 978.8,-427.5 978.8,-434.5"/>
</g>
</g>
</svg>
