<?xml version="1.0" encoding="UTF-8" standalone="no"?>
<!DOCTYPE svg PUBLIC "-//W3C//DTD SVG 1.1//EN"
 "http://www.w3.org/Graphics/SVG/1.1/DTD/svg11.dtd">
<!-- Generated by graphviz version 8.0.5 (20230508.1809)
 -->
<!-- Title: graphname Pages: 1 -->
<svg width="874pt" height="548pt"
 viewBox="0.00 0.00 873.75 548.00" xmlns="http://www.w3.org/2000/svg" xmlns:xlink="http://www.w3.org/1999/xlink">
<g id="graph0" class="graph" transform="scale(1 1) rotate(0) translate(4 544)">
<title>graphname</title>
<polygon fill="white" stroke="none" points="-4,4 -4,-544 869.75,-544 869.75,4 -4,4"/>
<!-- RAM -->
<g id="node1" class="node">
<title>RAM</title>
<polygon fill="none" stroke="black" points="59.38,-216 5.38,-216 5.38,-180 59.38,-180 59.38,-216"/>
<text text-anchor="middle" x="32.38" y="-192.95" font-family="Times,serif" font-size="14.00">RAM</text>
</g>
<!-- ARRAY -->
<g id="node2" class="node">
<title>ARRAY</title>
<polygon fill="none" stroke="black" points="203,-378 140.5,-378 140.5,-342 203,-342 203,-378"/>
<text text-anchor="middle" x="171.75" y="-354.95" font-family="Times,serif" font-size="14.00">ARRAY</text>
</g>
<!-- RAM&#45;&gt;ARRAY -->
<g id="edge1" class="edge">
<title>RAM&#45;&gt;ARRAY</title>
<path fill="none" stroke="blue" d="M23.75,-216.38C23.75,-257.92 23.75,-355.5 23.75,-355.5 23.75,-355.5 129,-355.5 129,-355.5"/>
<polygon fill="blue" stroke="blue" points="129,-359 139,-355.5 129,-352 129,-359"/>
</g>
<!-- CIRCULAR_BUFFER -->
<g id="node3" class="node">
<title>CIRCULAR_BUFFER</title>
<polygon fill="none" stroke="black" points="242.75,-324 100.75,-324 100.75,-288 242.75,-288 242.75,-324"/>
<text text-anchor="middle" x="171.75" y="-300.95" font-family="Times,serif" font-size="14.00">CIRCULAR_BUFFER</text>
</g>
<!-- RAM&#45;&gt;CIRCULAR_BUFFER -->
<g id="edge2" class="edge">
<title>RAM&#45;&gt;CIRCULAR_BUFFER</title>
<path fill="none" stroke="black" d="M59.68,-207C83.99,-207 115.75,-207 115.75,-207 115.75,-207 115.75,-276.84 115.75,-276.84"/>
<polygon fill="black" stroke="black" points="112.25,-276.84 115.75,-286.84 119.25,-276.84 112.25,-276.84"/>
</g>
<!-- FIFO -->
<g id="node4" class="node">
<title>FIFO</title>
<polygon fill="none" stroke="black" points="198.75,-270 144.75,-270 144.75,-234 198.75,-234 198.75,-270"/>
<text text-anchor="middle" x="171.75" y="-246.95" font-family="Times,serif" font-size="14.00">FIFO</text>
</g>
<!-- RAM&#45;&gt;FIFO -->
<g id="edge3" class="edge">
<title>RAM&#45;&gt;FIFO</title>
<path fill="none" stroke="black" d="M41.75,-216.28C41.75,-231.95 41.75,-252 41.75,-252 41.75,-252 133.5,-252 133.5,-252"/>
<polygon fill="black" stroke="black" points="133.5,-255.5 143.5,-252 133.5,-248.5 133.5,-255.5"/>
</g>
<!-- CRC8 -->
<g id="node17" class="node">
<title>CRC8</title>
<polygon fill="none" stroke="black" points="198.75,-216 144.75,-216 144.75,-180 198.75,-180 198.75,-216"/>
<text text-anchor="middle" x="171.75" y="-192.95" font-family="Times,serif" font-size="14.00">CRC8</text>
</g>
<!-- RAM&#45;&gt;CRC8 -->
<g id="edge17" class="edge">
<title>RAM&#45;&gt;CRC8</title>
<path fill="none" stroke="black" d="M59.58,-198C59.58,-198 133.61,-198 133.61,-198"/>
<polygon fill="black" stroke="black" points="133.61,-201.5 143.61,-198 133.61,-194.5 133.61,-201.5"/>
</g>
<!-- CRC16 -->
<g id="node18" class="node">
<title>CRC16</title>
<polygon fill="none" stroke="black" points="200,-162 143.5,-162 143.5,-126 200,-126 200,-162"/>
<text text-anchor="middle" x="171.75" y="-138.95" font-family="Times,serif" font-size="14.00">CRC16</text>
</g>
<!-- RAM&#45;&gt;CRC16 -->
<g id="edge18" class="edge">
<title>RAM&#45;&gt;CRC16</title>
<path fill="none" stroke="black" d="M41.75,-179.72C41.75,-164.05 41.75,-144 41.75,-144 41.75,-144 132.22,-144 132.22,-144"/>
<polygon fill="black" stroke="black" points="132.22,-147.5 142.22,-144 132.22,-140.5 132.22,-147.5"/>
</g>
<!-- CRC32 -->
<g id="node19" class="node">
<title>CRC32</title>
<polygon fill="none" stroke="black" points="200,-108 143.5,-108 143.5,-72 200,-72 200,-108"/>
<text text-anchor="middle" x="171.75" y="-84.95" font-family="Times,serif" font-size="14.00">CRC32</text>
</g>
<!-- RAM&#45;&gt;CRC32 -->
<g id="edge19" class="edge">
<title>RAM&#45;&gt;CRC32</title>
<path fill="none" stroke="black" d="M23.75,-179.68C23.75,-148.87 23.75,-90 23.75,-90 23.75,-90 132.21,-90 132.21,-90"/>
<polygon fill="black" stroke="black" points="132.21,-93.5 142.21,-90 132.21,-86.5 132.21,-93.5"/>
</g>
<!-- PLL_CALC -->
<g id="node20" class="node">
<title>PLL_CALC</title>
<polygon fill="none" stroke="black" points="213.12,-54 130.38,-54 130.38,-18 213.12,-18 213.12,-54"/>
<text text-anchor="middle" x="171.75" y="-30.95" font-family="Times,serif" font-size="14.00">PLL_CALC</text>
</g>
<!-- RAM&#45;&gt;PLL_CALC -->
<g id="edge20" class="edge">
<title>RAM&#45;&gt;PLL_CALC</title>
<path fill="none" stroke="black" d="M59.79,-189C91.01,-189 137.75,-189 137.75,-189 137.75,-189 137.75,-65.46 137.75,-65.46"/>
<polygon fill="black" stroke="black" points="141.25,-65.46 137.75,-55.46 134.25,-65.46 141.25,-65.46"/>
</g>
<!-- FIR -->
<g id="node22" class="node">
<title>FIR</title>
<polygon fill="none" stroke="black" points="357.25,-324 303.25,-324 303.25,-288 357.25,-288 357.25,-324"/>
<text text-anchor="middle" x="330.25" y="-300.95" font-family="Times,serif" font-size="14.00">FIR</text>
</g>
<!-- CIRCULAR_BUFFER&#45;&gt;FIR -->
<g id="edge24" class="edge">
<title>CIRCULAR_BUFFER&#45;&gt;FIR</title>
<path fill="none" stroke="black" d="M243.12,-306C243.12,-306 291.85,-306 291.85,-306"/>
<polygon fill="black" stroke="black" points="291.85,-309.5 301.85,-306 291.85,-302.5 291.85,-309.5"/>
</g>
<!-- LOG -->
<g id="node6" class="node">
<title>LOG</title>
<polygon fill="none" stroke="black" points="597,-236 543,-236 543,-200 597,-200 597,-236"/>
<text text-anchor="middle" x="570" y="-212.95" font-family="Times,serif" font-size="14.00">LOG</text>
</g>
<!-- FIFO&#45;&gt;LOG -->
<g id="edge6" class="edge">
<title>FIFO&#45;&gt;LOG</title>
<path fill="none" stroke="black" d="M199.17,-258.67C289.32,-258.67 570.75,-258.67 570.75,-258.67 570.75,-258.67 570.75,-247.43 570.75,-247.43"/>
<polygon fill="black" stroke="black" points="574.25,-247.43 570.75,-237.43 567.25,-247.43 574.25,-247.43"/>
</g>
<!-- WRITER -->
<g id="node8" class="node">
<title>WRITER</title>
<polygon fill="none" stroke="black" points="364.5,-228 296,-228 296,-192 364.5,-192 364.5,-228"/>
<text text-anchor="middle" x="330.25" y="-204.95" font-family="Times,serif" font-size="14.00">WRITER</text>
</g>
<!-- FIFO&#45;&gt;WRITER -->
<g id="edge9" class="edge">
<title>FIFO&#45;&gt;WRITER</title>
<path fill="none" stroke="black" d="M199.21,-247.33C236.82,-247.33 299.75,-247.33 299.75,-247.33 299.75,-247.33 299.75,-239.23 299.75,-239.23"/>
<polygon fill="black" stroke="black" points="303.25,-239.23 299.75,-229.23 296.25,-239.23 303.25,-239.23"/>
</g>
<!-- TIME -->
<g id="node5" class="node">
<title>TIME</title>
<polygon fill="none" stroke="black" points="480.5,-136 426.5,-136 426.5,-100 480.5,-100 480.5,-136"/>
<text text-anchor="middle" x="453.5" y="-112.95" font-family="Times,serif" font-size="14.00">TIME</text>
</g>
<!-- TIME&#45;&gt;LOG -->
<g id="edge4" class="edge">
<title>TIME&#45;&gt;LOG</title>
<path fill="none" stroke="black" d="M480.6,-127C502.51,-127 529.75,-127 529.75,-127 529.75,-127 529.75,-209.33 529.75,-209.33 529.75,-209.33 531.93,-209.33 531.93,-209.33"/>
<polygon fill="black" stroke="black" points="531.93,-212.83 541.93,-209.33 531.93,-205.83 531.93,-212.83"/>
</g>
<!-- PID -->
<g id="node11" class="node">
<title>PID</title>
<polygon fill="none" stroke="black" points="597,-182 543,-182 543,-146 597,-146 597,-182"/>
<text text-anchor="middle" x="570" y="-158.95" font-family="Times,serif" font-size="14.00">PID</text>
</g>
<!-- TIME&#45;&gt;PID -->
<g id="edge11" class="edge">
<title>TIME&#45;&gt;PID</title>
<path fill="none" stroke="black" d="M453.75,-136.24C453.75,-143.43 453.75,-150 453.75,-150 453.75,-150 531.74,-150 531.74,-150"/>
<polygon fill="black" stroke="black" points="531.74,-153.5 541.74,-150 531.74,-146.5 531.74,-153.5"/>
</g>
<!-- SCHEDULER -->
<g id="node12" class="node">
<title>SCHEDULER</title>
<polygon fill="none" stroke="black" points="720.75,-90 650.75,-90 650.75,-54 720.75,-54 720.75,-90"/>
<text text-anchor="middle" x="685.75" y="-66.95" font-family="Times,serif" font-size="14.00">Scheduler</text>
</g>
<!-- TIME&#45;&gt;SCHEDULER -->
<g id="edge14" class="edge">
<title>TIME&#45;&gt;SCHEDULER</title>
<path fill="none" stroke="red" d="M480.6,-118C541.86,-118 685.75,-118 685.75,-118 685.75,-118 685.75,-101.44 685.75,-101.44"/>
<polygon fill="red" stroke="red" points="689.25,-101.44 685.75,-91.44 682.25,-101.44 689.25,-101.44"/>
</g>
<!-- LIMITER -->
<g id="node14" class="node">
<title>LIMITER</title>
<polygon fill="none" stroke="black" points="605.75,-90 534.25,-90 534.25,-54 605.75,-54 605.75,-90"/>
<text text-anchor="middle" x="570" y="-66.95" font-family="Times,serif" font-size="14.00">LIMITER</text>
</g>
<!-- TIME&#45;&gt;LIMITER -->
<g id="edge22" class="edge">
<title>TIME&#45;&gt;LIMITER</title>
<path fill="none" stroke="black" d="M480.94,-109C505.86,-109 538.75,-109 538.75,-109 538.75,-109 538.75,-101.5 538.75,-101.5"/>
<polygon fill="black" stroke="black" points="542.25,-101.5 538.75,-91.5 535.25,-101.5 542.25,-101.5"/>
</g>
<!-- STREAM -->
<g id="node7" class="node">
<title>STREAM</title>
<polygon fill="none" stroke="black" points="489.25,-190 417.75,-190 417.75,-154 489.25,-154 489.25,-190"/>
<text text-anchor="middle" x="453.5" y="-166.95" font-family="Times,serif" font-size="14.00">STREAM</text>
</g>
<!-- STREAM&#45;&gt;LOG -->
<g id="edge5" class="edge">
<title>STREAM&#45;&gt;LOG</title>
<path fill="none" stroke="black" d="M489.64,-186C524.09,-186 570.75,-186 570.75,-186 570.75,-186 570.75,-188.76 570.75,-188.76"/>
<polygon fill="black" stroke="black" points="567.25,-188.76 570.75,-198.76 574.25,-188.76 567.25,-188.76"/>
</g>
<!-- WRITER&#45;&gt;LOG -->
<g id="edge7" class="edge">
<title>WRITER&#45;&gt;LOG</title>
<path fill="none" stroke="black" d="M364.86,-218.67C364.86,-218.67 531.84,-218.67 531.84,-218.67"/>
<polygon fill="black" stroke="black" points="531.84,-222.17 541.84,-218.67 531.84,-215.17 531.84,-222.17"/>
</g>
<!-- WRITER&#45;&gt;STREAM -->
<g id="edge8" class="edge">
<title>WRITER&#45;&gt;STREAM</title>
<path fill="none" stroke="black" d="M330.75,-191.57C330.75,-187.82 330.75,-185 330.75,-185 330.75,-185 406.33,-185 406.33,-185"/>
<polygon fill="black" stroke="black" points="406.33,-188.5 416.33,-185 406.33,-181.5 406.33,-188.5"/>
</g>
<!-- FLASH -->
<g id="node9" class="node">
<title>FLASH</title>
<polygon fill="none" stroke="black" points="482.88,-36 424.12,-36 424.12,0 482.88,0 482.88,-36"/>
<text text-anchor="middle" x="453.5" y="-12.95" font-family="Times,serif" font-size="14.00">FLASH</text>
</g>
<!-- DEBUGGER -->
<g id="node10" class="node">
<title>DEBUGGER</title>
<polygon fill="none" stroke="black" points="614.75,-36 525.25,-36 525.25,0 614.75,0 614.75,-36"/>
<text text-anchor="middle" x="570" y="-12.95" font-family="Times,serif" font-size="14.00">DEBUGGER</text>
</g>
<!-- FLASH&#45;&gt;DEBUGGER -->
<g id="edge10" class="edge">
<title>FLASH&#45;&gt;DEBUGGER</title>
<path fill="none" stroke="black" d="M483.2,-18C483.2,-18 513.94,-18 513.94,-18"/>
<polygon fill="black" stroke="black" points="513.94,-21.5 523.94,-18 513.94,-14.5 513.94,-21.5"/>
</g>
<!-- FLASH&#45;&gt;SCHEDULER -->
<g id="edge15" class="edge">
<title>FLASH&#45;&gt;SCHEDULER</title>
<path fill="none" stroke="blue" d="M444.75,-36.46C444.75,-41.2 444.75,-45 444.75,-45 444.75,-45 685.75,-45 685.75,-45 685.75,-45 685.75,-45.85 685.75,-45.85"/>
<polygon fill="blue" stroke="blue" points="682.25,-42.54 685.75,-52.54 689.25,-42.54 682.25,-42.54"/>
</g>
<!-- FLASH&#45;&gt;LIMITER -->
<g id="edge23" class="edge">
<title>FLASH&#45;&gt;LIMITER</title>
<path fill="none" stroke="black" d="M462.75,-36.3C462.75,-48.76 462.75,-63 462.75,-63 462.75,-63 522.99,-63 522.99,-63"/>
<polygon fill="black" stroke="black" points="522.99,-66.5 532.99,-63 522.99,-59.5 522.99,-66.5"/>
</g>
<!-- SUPER_CYCLE -->
<g id="node13" class="node">
<title>SUPER_CYCLE</title>
<polygon fill="none" stroke="black" points="865.75,-90 756.75,-90 756.75,-54 865.75,-54 865.75,-90"/>
<text text-anchor="middle" x="811.25" y="-66.95" font-family="Times,serif" font-size="14.00">SUPER_CYCLE</text>
</g>
<!-- SCHEDULER&#45;&gt;SUPER_CYCLE -->
<g id="edge12" class="edge">
<title>SCHEDULER&#45;&gt;SUPER_CYCLE</title>
<path fill="none" stroke="black" d="M721.04,-72C721.04,-72 745.52,-72 745.52,-72"/>
<polygon fill="black" stroke="black" points="745.52,-75.5 755.52,-72 745.52,-68.5 745.52,-75.5"/>
</g>
<!-- LIMITER&#45;&gt;SCHEDULER -->
<g id="edge13" class="edge">
<title>LIMITER&#45;&gt;SCHEDULER</title>
<path fill="none" stroke="green" d="M605.99,-72C605.99,-72 639.58,-72 639.58,-72"/>
<polygon fill="green" stroke="green" points="639.58,-75.5 649.58,-72 639.58,-68.5 639.58,-75.5"/>
</g>
<!-- STRING -->
<g id="node15" class="node">
<title>STRING</title>
<polygon fill="none" stroke="black" points="64.75,-540 0,-540 0,-504 64.75,-504 64.75,-540"/>
<text text-anchor="middle" x="32.38" y="-516.95" font-family="Times,serif" font-size="14.00">STRING</text>
</g>
<!-- BASE16 -->
<g id="node16" class="node">
<title>BASE16</title>
<polygon fill="none" stroke="black" points="203.75,-540 139.75,-540 139.75,-504 203.75,-504 203.75,-540"/>
<text text-anchor="middle" x="171.75" y="-516.95" font-family="Times,serif" font-size="14.00">BASE16</text>
</g>
<!-- STRING&#45;&gt;BASE16 -->
<g id="edge16" class="edge">
<title>STRING&#45;&gt;BASE16</title>
<path fill="none" stroke="black" d="M65.05,-522C65.05,-522 128.28,-522 128.28,-522"/>
<polygon fill="black" stroke="black" points="128.28,-525.5 138.28,-522 128.28,-518.5 128.28,-525.5"/>
</g>
<!-- MODULATOR -->
<g id="node27" class="node">
<title>MODULATOR</title>
<polygon fill="none" stroke="black" points="381,-486 279.5,-486 279.5,-450 381,-450 381,-486"/>
<text text-anchor="middle" x="330.25" y="-462.95" font-family="Times,serif" font-size="14.00">MODULATOR</text>
</g>
<!-- BASE16&#45;&gt;MODULATOR -->
<g id="edge30" class="edge">
<title>BASE16&#45;&gt;MODULATOR</title>
<path fill="none" stroke="black" d="M203.93,-522C250.39,-522 330.75,-522 330.75,-522 330.75,-522 330.75,-497.28 330.75,-497.28"/>
<polygon fill="black" stroke="black" points="334.25,-497.28 330.75,-487.28 327.25,-497.28 334.25,-497.28"/>
</g>
<!-- APPLICATION -->
<g id="node21" class="node">
<title>APPLICATION</title>
<polygon fill="none" stroke="black" points="381.75,-54 278.75,-54 278.75,-18 381.75,-18 381.75,-54"/>
<text text-anchor="middle" x="330.25" y="-30.95" font-family="Times,serif" font-size="14.00">APPLICATION</text>
</g>
<!-- PLL_CALC&#45;&gt;APPLICATION -->
<g id="edge21" class="edge">
<title>PLL_CALC&#45;&gt;APPLICATION</title>
<path fill="none" stroke="black" d="M213.39,-36C213.39,-36 267.4,-36 267.4,-36"/>
<polygon fill="black" stroke="black" points="267.4,-39.5 277.4,-36 267.4,-32.5 267.4,-39.5"/>
</g>
<!-- ASM -->
<g id="node23" class="node">
<title>ASM</title>
<polygon fill="none" stroke="black" points="59.38,-459 5.38,-459 5.38,-423 59.38,-423 59.38,-459"/>
<text text-anchor="middle" x="32.38" y="-435.95" font-family="Times,serif" font-size="14.00">ASM</text>
</g>
<!-- MATH -->
<g id="node24" class="node">
<title>MATH</title>
<polygon fill="none" stroke="black" points="199.25,-432 144.25,-432 144.25,-396 199.25,-396 199.25,-432"/>
<text text-anchor="middle" x="171.75" y="-408.95" font-family="Times,serif" font-size="14.00">MATH</text>
</g>
<!-- ASM&#45;&gt;MATH -->
<g id="edge25" class="edge">
<title>ASM&#45;&gt;MATH</title>
<path fill="none" stroke="black" d="M59.58,-427.5C59.58,-427.5 133.14,-427.5 133.14,-427.5"/>
<polygon fill="black" stroke="black" points="133.14,-431 143.14,-427.5 133.14,-424 133.14,-431"/>
</g>
<!-- VECTOR -->
<g id="node26" class="node">
<title>VECTOR</title>
<polygon fill="none" stroke="black" points="365.25,-432 295.25,-432 295.25,-396 365.25,-396 365.25,-432"/>
<text text-anchor="middle" x="330.25" y="-408.95" font-family="Times,serif" font-size="14.00">VECTOR</text>
</g>
<!-- MATH&#45;&gt;VECTOR -->
<g id="edge27" class="edge">
<title>MATH&#45;&gt;VECTOR</title>
<path fill="none" stroke="black" d="M199.72,-408C199.72,-408 283.78,-408 283.78,-408"/>
<polygon fill="black" stroke="black" points="283.78,-411.5 293.78,-408 283.78,-404.5 283.78,-411.5"/>
</g>
<!-- MATH&#45;&gt;MODULATOR -->
<g id="edge28" class="edge">
<title>MATH&#45;&gt;MODULATOR</title>
<path fill="none" stroke="black" d="M199.53,-420C233.85,-420 287.75,-420 287.75,-420 287.75,-420 287.75,-438.58 287.75,-438.58"/>
<polygon fill="black" stroke="black" points="284.25,-438.58 287.75,-448.58 291.25,-438.58 284.25,-438.58"/>
</g>
<!-- FLOAT -->
<g id="node25" class="node">
<title>FLOAT</title>
<polygon fill="none" stroke="black" points="61.38,-405 3.38,-405 3.38,-369 61.38,-369 61.38,-405"/>
<text text-anchor="middle" x="32.38" y="-381.95" font-family="Times,serif" font-size="14.00">FLOAT</text>
</g>
<!-- FLOAT&#45;&gt;MATH -->
<g id="edge26" class="edge">
<title>FLOAT&#45;&gt;MATH</title>
<path fill="none" stroke="black" d="M61.59,-400.5C61.59,-400.5 133,-400.5 133,-400.5"/>
<polygon fill="black" stroke="black" points="133,-404 143,-400.5 133,-397 133,-404"/>
</g>
<!-- SW_DAC -->
<g id="node28" class="node">
<title>SW_DAC</title>
<polygon fill="none" stroke="black" points="207.88,-486 135.62,-486 135.62,-450 207.88,-450 207.88,-486"/>
<text text-anchor="middle" x="171.75" y="-462.95" font-family="Times,serif" font-size="14.00">SW_DAC</text>
</g>
<!-- SW_DAC&#45;&gt;MODULATOR -->
<g id="edge29" class="edge">
<title>SW_DAC&#45;&gt;MODULATOR</title>
<path fill="none" stroke="black" d="M208.11,-468C208.11,-468 268.04,-468 268.04,-468"/>
<polygon fill="black" stroke="black" points="268.04,-471.5 278.04,-468 268.04,-464.5 268.04,-471.5"/>
</g>
</g>
</svg>
