<?xml version="1.0" encoding="UTF-8" standalone="no"?>
<!DOCTYPE svg PUBLIC "-//W3C//DTD SVG 1.1//EN"
 "http://www.w3.org/Graphics/SVG/1.1/DTD/svg11.dtd">
<!-- Generated by graphviz version 5.0.0 (20220707.1540)
 -->
<!-- Title: graphname Pages: 1 -->
<svg width="894pt" height="978pt"
 viewBox="0.00 0.00 894.00 978.00" xmlns="http://www.w3.org/2000/svg" xmlns:xlink="http://www.w3.org/1999/xlink">
<g id="graph0" class="graph" transform="scale(1 1) rotate(0) translate(4 974)">
<title>graphname</title>
<polygon fill="white" stroke="transparent" points="-4,4 -4,-974 890,-974 890,4 -4,4"/>
<g id="clust1" class="cluster">
<title>cluster_mcal</title>
<polygon fill="oldlace" stroke="oldlace" points="252.5,-221 252.5,-350 452,-350 452,-221 252.5,-221"/>
<text text-anchor="middle" x="352.25" y="-334.8" font-family="Times New Roman,serif" font-size="14.00">MCAL</text>
</g>
<g id="clust2" class="cluster">
<title>cluster_adc</title>
<polygon fill="oldlace" stroke="oldlace" points="250.5,-84 250.5,-213 331.5,-213 331.5,-84 250.5,-84"/>
<text text-anchor="middle" x="291" y="-197.8" font-family="Times New Roman,serif" font-size="14.00">ADT</text>
</g>
<g id="clust3" class="cluster">
<title>cluster_Connectivity</title>
<polygon fill="oldlace" stroke="oldlace" points="503,-35 503,-292 879,-292 879,-35 503,-35"/>
<text text-anchor="middle" x="691" y="-276.8" font-family="Times New Roman,serif" font-size="14.00">Connectivity</text>
</g>
<g id="clust5" class="cluster">
<title>cluster_protocols</title>
<polygon fill="oldlace" stroke="oldlace" points="800,-126 800,-201 871,-201 871,-126 800,-126"/>
<text text-anchor="middle" x="835.5" y="-185.8" font-family="Times New Roman,serif" font-size="14.00">Protocols</text>
</g>
<g id="clust7" class="cluster">
<title>cluster_Computing</title>
<polygon fill="oldlace" stroke="oldlace" points="240,-426 240,-771 342,-771 342,-426 240,-426"/>
<text text-anchor="middle" x="291" y="-755.8" font-family="Times New Roman,serif" font-size="14.00">Computing</text>
</g>
<g id="clust6" class="cluster">
<title>cluster_control</title>
<polygon fill="oldlace" stroke="oldlace" points="491,-300 491,-645 763.5,-645 763.5,-300 491,-300"/>
<text text-anchor="middle" x="627.25" y="-629.8" font-family="Times New Roman,serif" font-size="14.00">Control</text>
</g>
<g id="clust8" class="cluster">
<title>cluster_storage</title>
<polygon fill="oldlace" stroke="oldlace" points="127,-779 127,-962 457.5,-962 457.5,-779 127,-779"/>
<text text-anchor="middle" x="292.25" y="-946.8" font-family="Times New Roman,serif" font-size="14.00">Storage</text>
</g>
<!-- FPU -->
<g id="node1" class="node">
<title>FPU</title>
<polygon fill="none" stroke="black" points="65,-157 11,-157 11,-121 65,-121 65,-157"/>
<text text-anchor="middle" x="38" y="-135.3" font-family="Times New Roman,serif" font-size="14.00">FPU</text>
</g>
<!-- CORTEX_M4 -->
<g id="node2" class="node">
<title>CORTEX_M4</title>
<polygon fill="none" stroke="black" points="212,-211 112,-211 112,-175 212,-175 212,-211"/>
<text text-anchor="middle" x="162" y="-189.3" font-family="Times New Roman,serif" font-size="14.00">CORTEX_M4</text>
</g>
<!-- FPU&#45;&gt;CORTEX_M4 -->
<g id="edge1" class="edge">
<title>FPU&#45;&gt;CORTEX_M4</title>
<path fill="none" stroke="black" d="M65.21,-151.5C101.71,-151.5 162,-151.5 162,-151.5 162,-151.5 162,-164.68 162,-164.68"/>
<polygon fill="black" stroke="black" points="158.5,-164.68 162,-174.68 165.5,-164.68 158.5,-164.68"/>
</g>
<!-- THUMB -->
<g id="node3" class="node">
<title>THUMB</title>
<polygon fill="none" stroke="black" points="71,-265 5,-265 5,-229 71,-229 71,-265"/>
<text text-anchor="middle" x="38" y="-243.3" font-family="Times New Roman,serif" font-size="14.00">THUMB</text>
</g>
<!-- THUMB&#45;&gt;CORTEX_M4 -->
<g id="edge2" class="edge">
<title>THUMB&#45;&gt;CORTEX_M4</title>
<path fill="none" stroke="black" d="M71.2,-247C94.68,-247 122,-247 122,-247 122,-247 122,-221.28 122,-221.28"/>
<polygon fill="black" stroke="black" points="125.5,-221.28 122,-211.28 118.5,-221.28 125.5,-221.28"/>
</g>
<!-- SYSTICK -->
<g id="node4" class="node">
<title>SYSTICK</title>
<polygon fill="none" stroke="black" points="76,-211 0,-211 0,-175 76,-175 76,-211"/>
<text text-anchor="middle" x="38" y="-189.3" font-family="Times New Roman,serif" font-size="14.00">SYSTICK</text>
</g>
<!-- SYSTICK&#45;&gt;CORTEX_M4 -->
<g id="edge3" class="edge">
<title>SYSTICK&#45;&gt;CORTEX_M4</title>
<path fill="none" stroke="black" d="M76.22,-193C76.22,-193 101.81,-193 101.81,-193"/>
<polygon fill="black" stroke="black" points="101.81,-196.5 111.81,-193 101.81,-189.5 101.81,-196.5"/>
</g>
<!-- FLASH -->
<g id="node5" class="node">
<title>FLASH</title>
<polygon fill="aquamarine" stroke="black" points="315.5,-319 260.5,-319 260.5,-283 321.5,-283 321.5,-313 315.5,-319"/>
<polyline fill="none" stroke="black" points="315.5,-319 315.5,-313 "/>
<polyline fill="none" stroke="black" points="321.5,-313 315.5,-313 "/>
<text text-anchor="middle" x="291" y="-297.3" font-family="Times New Roman,serif" font-size="14.00">FLASH</text>
</g>
<!-- NVS -->
<g id="node14" class="node">
<title>NVS</title>
<polygon fill="none" stroke="black" points="189,-931 135,-931 135,-895 189,-895 189,-931"/>
<text text-anchor="middle" x="162" y="-909.3" font-family="Times New Roman,serif" font-size="14.00">NVS</text>
</g>
<!-- FLASH&#45;&gt;NVS -->
<g id="edge11" class="edge">
<title>FLASH&#45;&gt;NVS</title>
<path fill="none" stroke="black" d="M260.28,-305.67C234.21,-305.67 201,-305.67 201,-305.67 201,-305.67 201,-904 201,-904 201,-904 199.09,-904 199.09,-904"/>
<polygon fill="black" stroke="black" points="199.09,-900.5 189.09,-904 199.09,-907.5 199.09,-900.5"/>
</g>
<!-- BOOT -->
<g id="node24" class="node">
<title>BOOT</title>
<polygon fill="none" stroke="black" points="576,-614 520,-614 520,-578 576,-578 576,-614"/>
<text text-anchor="middle" x="548" y="-592.3" font-family="Times New Roman,serif" font-size="14.00">BOOT</text>
</g>
<!-- FLASH&#45;&gt;BOOT -->
<g id="edge31" class="edge">
<title>FLASH&#45;&gt;BOOT</title>
<path fill="none" stroke="black" d="M321.7,-314.6C335.61,-314.6 349,-314.6 349,-314.6 349,-314.6 349,-587 349,-587 349,-587 509.91,-587 509.91,-587"/>
<polygon fill="black" stroke="black" points="509.91,-590.5 519.91,-587 509.91,-583.5 509.91,-590.5"/>
</g>
<!-- DEBUGGER -->
<g id="node25" class="node">
<title>DEBUGGER</title>
<polygon fill="none" stroke="black" points="594,-344 502,-344 502,-308 594,-308 594,-344"/>
<text text-anchor="middle" x="548" y="-322.3" font-family="Times New Roman,serif" font-size="14.00">DEBUGGER</text>
</g>
<!-- FLASH&#45;&gt;DEBUGGER -->
<g id="edge32" class="edge">
<title>FLASH&#45;&gt;DEBUGGER</title>
<path fill="none" stroke="black" d="M321.74,-310.2C321.74,-310.2 491.58,-310.2 491.58,-310.2"/>
<polygon fill="black" stroke="black" points="491.58,-313.7 501.58,-310.2 491.58,-306.7 491.58,-313.7"/>
</g>
<!-- TASK -->
<g id="node30" class="node">
<title>TASK</title>
<polygon fill="none" stroke="black" points="584,-506 512,-506 512,-470 584,-470 584,-506"/>
<text text-anchor="middle" x="548" y="-484.3" font-family="Times New Roman,serif" font-size="14.00">Scheduler</text>
</g>
<!-- FLASH&#45;&gt;TASK -->
<g id="edge41" class="edge">
<title>FLASH&#45;&gt;TASK</title>
<path fill="none" stroke="blue" d="M321.62,-312.4C376.75,-312.4 487,-312.4 487,-312.4 487,-312.4 487,-484 487,-484 487,-484 501.81,-484 501.81,-484"/>
<polygon fill="blue" stroke="blue" points="501.81,-487.5 511.81,-484 501.81,-480.5 501.81,-487.5"/>
</g>
<!-- LIMITER -->
<g id="node34" class="node">
<title>LIMITER</title>
<polygon fill="none" stroke="black" points="327.5,-470 254.5,-470 254.5,-434 327.5,-434 327.5,-470"/>
<text text-anchor="middle" x="291" y="-448.3" font-family="Times New Roman,serif" font-size="14.00">LIMITER</text>
</g>
<!-- FLASH&#45;&gt;LIMITER -->
<g id="edge46" class="edge">
<title>FLASH&#45;&gt;LIMITER</title>
<path fill="none" stroke="black" d="M291,-319.21C291,-319.21 291,-423.72 291,-423.72"/>
<polygon fill="black" stroke="black" points="287.5,-423.72 291,-433.72 294.5,-423.72 287.5,-423.72"/>
</g>
<!-- GPIO -->
<g id="node6" class="node">
<title>GPIO</title>
<polygon fill="aquamarine" stroke="black" points="312,-265 264,-265 264,-229 318,-229 318,-259 312,-265"/>
<polyline fill="none" stroke="black" points="312,-265 312,-259 "/>
<polyline fill="none" stroke="black" points="318,-259 312,-259 "/>
<text text-anchor="middle" x="291" y="-243.3" font-family="Times New Roman,serif" font-size="14.00">GPIO</text>
</g>
<!-- UART -->
<g id="node7" class="node">
<title>UART</title>
<polygon fill="aquamarine" stroke="black" points="438,-265 389,-265 389,-229 444,-229 444,-259 438,-265"/>
<polyline fill="none" stroke="black" points="438,-265 438,-259 "/>
<polyline fill="none" stroke="black" points="444,-259 438,-259 "/>
<text text-anchor="middle" x="416.5" y="-243.3" font-family="Times New Roman,serif" font-size="14.00">UART</text>
</g>
<!-- GPIO&#45;&gt;UART -->
<g id="edge14" class="edge">
<title>GPIO&#45;&gt;UART</title>
<path fill="none" stroke="black" d="M318.23,-238C318.23,-238 378.89,-238 378.89,-238"/>
<polygon fill="black" stroke="black" points="378.89,-241.5 388.89,-238 378.89,-234.5 378.89,-241.5"/>
</g>
<!-- LED -->
<g id="node27" class="node">
<title>LED</title>
<polygon fill="none" stroke="black" points="575,-452 521,-452 521,-416 575,-416 575,-452"/>
<text text-anchor="middle" x="548" y="-430.3" font-family="Times New Roman,serif" font-size="14.00">LED</text>
</g>
<!-- GPIO&#45;&gt;LED -->
<g id="edge34" class="edge">
<title>GPIO&#45;&gt;LED</title>
<path fill="none" stroke="black" d="M318.19,-247C345.95,-247 385,-247 385,-247 385,-247 385,-425 385,-425 385,-425 510.72,-425 510.72,-425"/>
<polygon fill="black" stroke="black" points="510.72,-428.5 520.72,-425 510.72,-421.5 510.72,-428.5"/>
</g>
<!-- LED_MONO -->
<g id="node32" class="node">
<title>LED_MONO</title>
<polygon fill="none" stroke="black" points="463,-509 370,-509 370,-473 463,-473 463,-509"/>
<text text-anchor="middle" x="416.5" y="-487.3" font-family="Times New Roman,serif" font-size="14.00">LED_MONO</text>
</g>
<!-- GPIO&#45;&gt;LED_MONO -->
<g id="edge35" class="edge">
<title>GPIO&#45;&gt;LED_MONO</title>
<path fill="none" stroke="black" d="M318.19,-256C344.36,-256 380,-256 380,-256 380,-256 380,-462.95 380,-462.95"/>
<polygon fill="black" stroke="black" points="376.5,-462.95 380,-472.95 383.5,-462.95 376.5,-462.95"/>
</g>
<!-- STREAM -->
<g id="node18" class="node">
<title>STREAM</title>
<polygon fill="none" stroke="black" points="585,-174 511,-174 511,-138 585,-138 585,-174"/>
<text text-anchor="middle" x="548" y="-152.3" font-family="Times New Roman,serif" font-size="14.00">STREAM</text>
</g>
<!-- UART&#45;&gt;STREAM -->
<g id="edge19" class="edge">
<title>UART&#45;&gt;STREAM</title>
<path fill="none" stroke="chartreuse" d="M433,-228.97C433,-203.49 433,-160 433,-160 433,-160 500.98,-160 500.98,-160"/>
<polygon fill="chartreuse" stroke="chartreuse" points="500.98,-163.5 510.98,-160 500.98,-156.5 500.98,-163.5"/>
</g>
<!-- LOG -->
<g id="node19" class="node">
<title>LOG</title>
<polygon fill="none" stroke="black" points="725.5,-133 671.5,-133 671.5,-97 725.5,-97 725.5,-133"/>
<text text-anchor="middle" x="698.5" y="-111.3" font-family="Times New Roman,serif" font-size="14.00">LOG</text>
</g>
<!-- UART&#45;&gt;LOG -->
<g id="edge29" class="edge">
<title>UART&#45;&gt;LOG</title>
<path fill="none" stroke="black" d="M422,-228.74C422,-193.09 422,-117.67 422,-117.67 422,-117.67 661.48,-117.67 661.48,-117.67"/>
<polygon fill="black" stroke="black" points="661.48,-121.17 671.48,-117.67 661.48,-114.17 661.48,-121.17"/>
</g>
<!-- ARRAY -->
<g id="node8" class="node">
<title>ARRAY</title>
<polygon fill="aqua" stroke="black" points="317.5,-182 258.5,-182 258.5,-146 323.5,-146 323.5,-176 317.5,-182"/>
<polyline fill="none" stroke="black" points="317.5,-182 317.5,-176 "/>
<polyline fill="none" stroke="black" points="323.5,-176 317.5,-176 "/>
<text text-anchor="middle" x="291" y="-160.3" font-family="Times New Roman,serif" font-size="14.00">ARRAY</text>
</g>
<!-- ARRAY&#45;&gt;FLASH -->
<g id="edge4" class="edge">
<title>ARRAY&#45;&gt;FLASH</title>
<path fill="none" stroke="black" d="M323.88,-178C340,-178 356,-178 356,-178 356,-178 356,-295.5 356,-295.5 356,-295.5 331.6,-295.5 331.6,-295.5"/>
<polygon fill="black" stroke="black" points="331.6,-292 321.6,-295.5 331.6,-299 331.6,-292"/>
</g>
<!-- REG -->
<g id="node9" class="node">
<title>REG</title>
<polygon fill="none" stroke="black" points="189,-823 135,-823 135,-787 189,-787 189,-823"/>
<text text-anchor="middle" x="162" y="-801.3" font-family="Times New Roman,serif" font-size="14.00">REG</text>
</g>
<!-- REG&#45;&gt;FLASH -->
<g id="edge5" class="edge">
<title>REG&#45;&gt;FLASH</title>
<path fill="none" stroke="black" d="M189.28,-805C194.82,-805 199,-805 199,-805 199,-805 199,-294.33 199,-294.33 199,-294.33 250.37,-294.33 250.37,-294.33"/>
<polygon fill="black" stroke="black" points="250.37,-297.83 260.37,-294.33 250.37,-290.83 250.37,-297.83"/>
</g>
<!-- REG&#45;&gt;GPIO -->
<g id="edge8" class="edge">
<title>REG&#45;&gt;GPIO</title>
<path fill="none" stroke="black" d="M189.23,-796C193.75,-796 197,-796 197,-796 197,-796 197,-256 197,-256 197,-256 253.81,-256 253.81,-256"/>
<polygon fill="black" stroke="black" points="253.81,-259.5 263.81,-256 253.81,-252.5 253.81,-259.5"/>
</g>
<!-- INTERVAL -->
<g id="node10" class="node">
<title>INTERVAL</title>
<polygon fill="none" stroke="black" points="334,-740 248,-740 248,-704 334,-704 334,-740"/>
<text text-anchor="middle" x="291" y="-718.3" font-family="Times New Roman,serif" font-size="14.00">INTERVAL</text>
</g>
<!-- INTERVAL&#45;&gt;FLASH -->
<g id="edge6" class="edge">
<title>INTERVAL&#45;&gt;FLASH</title>
<path fill="none" stroke="black" d="M334.03,-722C338.81,-722 342,-722 342,-722 342,-722 342,-316.8 342,-316.8 342,-316.8 331.55,-316.8 331.55,-316.8"/>
<polygon fill="black" stroke="black" points="331.55,-313.3 321.55,-316.8 331.55,-320.3 331.55,-313.3"/>
</g>
<!-- INTERVAL&#45;&gt;NVS -->
<g id="edge12" class="edge">
<title>INTERVAL&#45;&gt;NVS</title>
<path fill="none" stroke="black" d="M247.72,-728C228.87,-728 211,-728 211,-728 211,-728 211,-913 211,-913 211,-913 199.08,-913 199.08,-913"/>
<polygon fill="black" stroke="black" points="199.08,-909.5 189.08,-913 199.08,-916.5 199.08,-909.5"/>
</g>
<!-- TIME -->
<g id="node11" class="node">
<title>TIME</title>
<polygon fill="none" stroke="black" points="189,-353 135,-353 135,-317 189,-317 189,-353"/>
<text text-anchor="middle" x="162" y="-331.3" font-family="Times New Roman,serif" font-size="14.00">TIME</text>
</g>
<!-- TIME&#45;&gt;GPIO -->
<g id="edge7" class="edge">
<title>TIME&#45;&gt;GPIO</title>
<path fill="none" stroke="black" d="M189.25,-325.25C192.67,-325.25 195,-325.25 195,-325.25 195,-325.25 195,-247 195,-247 195,-247 253.75,-247 253.75,-247"/>
<polygon fill="black" stroke="black" points="253.75,-250.5 263.75,-247 253.75,-243.5 253.75,-250.5"/>
</g>
<!-- TIME&#45;&gt;UART -->
<g id="edge13" class="edge">
<title>TIME&#45;&gt;UART</title>
<path fill="none" stroke="black" d="M189.29,-337.75C255.07,-337.75 417,-337.75 417,-337.75 417,-337.75 417,-275.36 417,-275.36"/>
<polygon fill="black" stroke="black" points="420.5,-275.36 417,-265.36 413.5,-275.36 420.5,-275.36"/>
</g>
<!-- TIME&#45;&gt;LOG -->
<g id="edge26" class="edge">
<title>TIME&#45;&gt;LOG</title>
<path fill="none" stroke="black" d="M189.11,-331.5C243.97,-331.5 363,-331.5 363,-331.5 363,-331.5 363,-112.5 363,-112.5 363,-112.5 661.33,-112.5 661.33,-112.5"/>
<polygon fill="black" stroke="black" points="661.33,-116 671.33,-112.5 661.33,-109 661.33,-116"/>
</g>
<!-- TIME&#45;&gt;TASK -->
<g id="edge40" class="edge">
<title>TIME&#45;&gt;TASK</title>
<path fill="none" stroke="red" d="M189.23,-347C265.38,-347 475,-347 475,-347 475,-347 475,-495 475,-495 475,-495 501.93,-495 501.93,-495"/>
<polygon fill="red" stroke="red" points="501.93,-498.5 511.93,-495 501.93,-491.5 501.93,-498.5"/>
</g>
<!-- TIME&#45;&gt;LED_MONO -->
<g id="edge36" class="edge">
<title>TIME&#45;&gt;LED_MONO</title>
<path fill="none" stroke="black" d="M189.41,-350C246.94,-350 375,-350 375,-350 375,-350 375,-462.86 375,-462.86"/>
<polygon fill="black" stroke="black" points="371.5,-462.86 375,-472.86 378.5,-462.86 371.5,-462.86"/>
</g>
<!-- TIME&#45;&gt;LIMITER -->
<g id="edge45" class="edge">
<title>TIME&#45;&gt;LIMITER</title>
<path fill="none" stroke="black" d="M162,-353.08C162,-384.88 162,-447.5 162,-447.5 162,-447.5 244.38,-447.5 244.38,-447.5"/>
<polygon fill="black" stroke="black" points="244.38,-451 254.38,-447.5 244.38,-444 244.38,-451"/>
</g>
<!-- MCU -->
<g id="node12" class="node">
<title>MCU</title>
<polygon fill="none" stroke="black" points="189,-265 135,-265 135,-229 189,-229 189,-265"/>
<text text-anchor="middle" x="162" y="-243.3" font-family="Times New Roman,serif" font-size="14.00">MCU</text>
</g>
<!-- MCU&#45;&gt;GPIO -->
<g id="edge9" class="edge">
<title>MCU&#45;&gt;GPIO</title>
<path fill="none" stroke="black" d="M189.04,-238C189.04,-238 253.99,-238 253.99,-238"/>
<polygon fill="black" stroke="black" points="253.99,-241.5 263.99,-238 253.99,-234.5 253.99,-241.5"/>
</g>
<!-- CRC -->
<g id="node13" class="node">
<title>CRC</title>
<polygon fill="none" stroke="black" points="65,-931 11,-931 11,-895 65,-895 65,-931"/>
<text text-anchor="middle" x="38" y="-909.3" font-family="Times New Roman,serif" font-size="14.00">CRC</text>
</g>
<!-- CRC&#45;&gt;NVS -->
<g id="edge10" class="edge">
<title>CRC&#45;&gt;NVS</title>
<path fill="none" stroke="black" d="M65.21,-913C65.21,-913 124.85,-913 124.85,-913"/>
<polygon fill="black" stroke="black" points="124.85,-916.5 134.85,-913 124.85,-909.5 124.85,-916.5"/>
</g>
<!-- FLASH_FS -->
<g id="node40" class="node">
<title>FLASH_FS</title>
<polygon fill="none" stroke="black" points="333.5,-823 248.5,-823 248.5,-787 333.5,-787 333.5,-823"/>
<text text-anchor="middle" x="291" y="-801.3" font-family="Times New Roman,serif" font-size="14.00">FLASH_FS</text>
</g>
<!-- NVS&#45;&gt;FLASH_FS -->
<g id="edge52" class="edge">
<title>NVS&#45;&gt;FLASH_FS</title>
<path fill="none" stroke="black" d="M189.04,-922C226.87,-922 291,-922 291,-922 291,-922 291,-833.02 291,-833.02"/>
<polygon fill="black" stroke="black" points="294.5,-833.02 291,-823.02 287.5,-833.02 294.5,-833.02"/>
</g>
<!-- NVIC -->
<g id="node15" class="node">
<title>NVIC</title>
<polygon fill="none" stroke="black" points="318,-36 264,-36 264,0 318,0 318,-36"/>
<text text-anchor="middle" x="291" y="-14.3" font-family="Times New Roman,serif" font-size="14.00">NVIC</text>
</g>
<!-- NVIC&#45;&gt;UART -->
<g id="edge15" class="edge">
<title>NVIC&#45;&gt;UART</title>
<path fill="none" stroke="black" d="M318.23,-18C353.63,-18 411,-18 411,-18 411,-18 411,-218.65 411,-218.65"/>
<polygon fill="black" stroke="black" points="407.5,-218.65 411,-228.65 414.5,-218.65 407.5,-218.65"/>
</g>
<!-- FIFO -->
<g id="node16" class="node">
<title>FIFO</title>
<polygon fill="aqua" stroke="black" points="312,-128 264,-128 264,-92 318,-92 318,-122 312,-128"/>
<polyline fill="none" stroke="black" points="312,-128 312,-122 "/>
<polyline fill="none" stroke="black" points="318,-122 312,-122 "/>
<text text-anchor="middle" x="291" y="-106.3" font-family="Times New Roman,serif" font-size="14.00">FIFO</text>
</g>
<!-- FIFO&#45;&gt;UART -->
<g id="edge16" class="edge">
<title>FIFO&#45;&gt;UART</title>
<path fill="none" stroke="black" d="M318.22,-122.83C350.51,-122.83 400,-122.83 400,-122.83 400,-122.83 400,-218.95 400,-218.95"/>
<polygon fill="black" stroke="black" points="396.5,-218.95 400,-228.95 403.5,-218.95 396.5,-218.95"/>
</g>
<!-- FIFO&#45;&gt;LOG -->
<g id="edge28" class="edge">
<title>FIFO&#45;&gt;LOG</title>
<path fill="none" stroke="black" d="M318.05,-107.33C318.05,-107.33 661.46,-107.33 661.46,-107.33"/>
<polygon fill="black" stroke="black" points="661.46,-110.83 671.46,-107.33 661.46,-103.83 661.46,-110.83"/>
</g>
<!-- STRING_READER -->
<g id="node21" class="node">
<title>STRING_READER</title>
<polygon fill="none" stroke="black" points="764,-79 633,-79 633,-43 764,-43 764,-79"/>
<text text-anchor="middle" x="698.5" y="-57.3" font-family="Times New Roman,serif" font-size="14.00">STRING_READER</text>
</g>
<!-- FIFO&#45;&gt;STRING_READER -->
<g id="edge20" class="edge">
<title>FIFO&#45;&gt;STRING_READER</title>
<path fill="none" stroke="aqua" d="M318.23,-102.17C400.03,-102.17 638,-102.17 638,-102.17 638,-102.17 638,-89.18 638,-89.18"/>
<polygon fill="aqua" stroke="aqua" points="641.5,-89.18 638,-79.18 634.5,-89.18 641.5,-89.18"/>
</g>
<!-- RAM -->
<g id="node17" class="node">
<title>RAM</title>
<polygon fill="none" stroke="black" points="189,-877 135,-877 135,-841 189,-841 189,-877"/>
<text text-anchor="middle" x="162" y="-855.3" font-family="Times New Roman,serif" font-size="14.00">RAM</text>
</g>
<!-- RAM&#45;&gt;ARRAY -->
<g id="edge17" class="edge">
<title>RAM&#45;&gt;ARRAY</title>
<path fill="none" stroke="blue" d="M189.27,-871.86C208.18,-871.86 230,-871.86 230,-871.86 230,-871.86 230,-178.5 230,-178.5 230,-178.5 248.36,-178.5 248.36,-178.5"/>
<polygon fill="blue" stroke="blue" points="248.36,-182 258.36,-178.5 248.36,-175 248.36,-182"/>
</g>
<!-- RAM&#45;&gt;INTERVAL -->
<g id="edge47" class="edge">
<title>RAM&#45;&gt;INTERVAL</title>
<path fill="none" stroke="black" d="M189.07,-861.57C199.52,-861.57 209,-861.57 209,-861.57 209,-861.57 209,-716 209,-716 209,-716 237.6,-716 237.6,-716"/>
<polygon fill="black" stroke="black" points="237.6,-719.5 247.6,-716 237.6,-712.5 237.6,-719.5"/>
</g>
<!-- RAM&#45;&gt;FIFO -->
<g id="edge18" class="edge">
<title>RAM&#45;&gt;FIFO</title>
<path fill="none" stroke="black" d="M189.08,-866.71C204.59,-866.71 221,-866.71 221,-866.71 221,-866.71 221,-124.5 221,-124.5 221,-124.5 253.74,-124.5 253.74,-124.5"/>
<polygon fill="black" stroke="black" points="253.74,-128 263.74,-124.5 253.74,-121 253.74,-128"/>
</g>
<!-- CRC32 -->
<g id="node35" class="node">
<title>CRC32</title>
<polygon fill="none" stroke="black" points="320.5,-578 261.5,-578 261.5,-542 320.5,-542 320.5,-578"/>
<text text-anchor="middle" x="291" y="-556.3" font-family="Times New Roman,serif" font-size="14.00">CRC32</text>
</g>
<!-- RAM&#45;&gt;CRC32 -->
<g id="edge44" class="edge">
<title>RAM&#45;&gt;CRC32</title>
<path fill="none" stroke="black" d="M189.12,-846.14C196.74,-846.14 203,-846.14 203,-846.14 203,-846.14 203,-564.5 203,-564.5 203,-564.5 251.21,-564.5 251.21,-564.5"/>
<polygon fill="black" stroke="black" points="251.21,-568 261.21,-564.5 251.21,-561 251.21,-568"/>
</g>
<!-- CRC8 -->
<g id="node36" class="node">
<title>CRC8</title>
<polygon fill="none" stroke="black" points="318,-686 264,-686 264,-650 318,-650 318,-686"/>
<text text-anchor="middle" x="291" y="-664.3" font-family="Times New Roman,serif" font-size="14.00">CRC8</text>
</g>
<!-- RAM&#45;&gt;CRC8 -->
<g id="edge42" class="edge">
<title>RAM&#45;&gt;CRC8</title>
<path fill="none" stroke="black" d="M189.21,-856.43C198.69,-856.43 207,-856.43 207,-856.43 207,-856.43 207,-662 207,-662 207,-662 253.96,-662 253.96,-662"/>
<polygon fill="black" stroke="black" points="253.96,-665.5 263.96,-662 253.96,-658.5 253.96,-665.5"/>
</g>
<!-- CRC16 -->
<g id="node37" class="node">
<title>CRC16</title>
<polygon fill="none" stroke="black" points="320.5,-632 261.5,-632 261.5,-596 320.5,-596 320.5,-632"/>
<text text-anchor="middle" x="291" y="-610.3" font-family="Times New Roman,serif" font-size="14.00">CRC16</text>
</g>
<!-- RAM&#45;&gt;CRC16 -->
<g id="edge43" class="edge">
<title>RAM&#45;&gt;CRC16</title>
<path fill="none" stroke="black" d="M189.48,-851.29C197.9,-851.29 205,-851.29 205,-851.29 205,-851.29 205,-614 205,-614 205,-614 251.4,-614 251.4,-614"/>
<polygon fill="black" stroke="black" points="251.4,-617.5 261.4,-614 251.4,-610.5 251.4,-617.5"/>
</g>
<!-- STREAM&#45;&gt;LOG -->
<g id="edge27" class="edge">
<title>STREAM&#45;&gt;LOG</title>
<path fill="none" stroke="black" d="M585.31,-148.67C627.38,-148.67 690,-148.67 690,-148.67 690,-148.67 690,-143.02 690,-143.02"/>
<polygon fill="black" stroke="black" points="693.5,-143.02 690,-133.02 686.5,-143.02 693.5,-143.02"/>
</g>
<!-- CLI -->
<g id="node20" class="node">
<title>CLI</title>
<polygon fill="none" stroke="black" points="862,-170 808,-170 808,-134 862,-134 862,-170"/>
<text text-anchor="middle" x="835" y="-148.3" font-family="Times New Roman,serif" font-size="14.00">CLI</text>
</g>
<!-- STREAM&#45;&gt;CLI -->
<g id="edge23" class="edge">
<title>STREAM&#45;&gt;CLI</title>
<path fill="none" stroke="aqua" d="M585.23,-154C585.23,-154 797.7,-154 797.7,-154"/>
<polygon fill="aqua" stroke="aqua" points="797.7,-157.5 807.7,-154 797.7,-150.5 797.7,-157.5"/>
</g>
<!-- LOG&#45;&gt;CLI -->
<g id="edge24" class="edge">
<title>LOG&#45;&gt;CLI</title>
<path fill="none" stroke="aqua" d="M725.79,-115C765.63,-115 835,-115 835,-115 835,-115 835,-123.93 835,-123.93"/>
<polygon fill="aqua" stroke="aqua" points="831.5,-123.93 835,-133.93 838.5,-123.93 831.5,-123.93"/>
</g>
<!-- STRING_READER&#45;&gt;CLI -->
<g id="edge22" class="edge">
<title>STRING_READER&#45;&gt;CLI</title>
<path fill="none" stroke="aqua" d="M760,-79.27C760,-103.53 760,-143.33 760,-143.33 760,-143.33 797.92,-143.33 797.92,-143.33"/>
<polygon fill="aqua" stroke="aqua" points="797.92,-146.83 807.92,-143.33 797.92,-139.83 797.92,-146.83"/>
</g>
<!-- STRING -->
<g id="node22" class="node">
<title>STRING</title>
<polygon fill="none" stroke="black" points="732.5,-261 664.5,-261 664.5,-225 732.5,-225 732.5,-261"/>
<text text-anchor="middle" x="698.5" y="-239.3" font-family="Times New Roman,serif" font-size="14.00">STRING</text>
</g>
<!-- STRING&#45;&gt;CLI -->
<g id="edge21" class="edge">
<title>STRING&#45;&gt;CLI</title>
<path fill="none" stroke="aqua" d="M729,-224.83C729,-201.69 729,-164.67 729,-164.67 729,-164.67 797.98,-164.67 797.98,-164.67"/>
<polygon fill="aqua" stroke="aqua" points="797.98,-168.17 807.98,-164.67 797.98,-161.17 797.98,-168.17"/>
</g>
<!-- CSV -->
<g id="node23" class="node">
<title>CSV</title>
<polygon fill="none" stroke="black" points="725.5,-207 671.5,-207 671.5,-171 725.5,-171 725.5,-207"/>
<text text-anchor="middle" x="698.5" y="-185.3" font-family="Times New Roman,serif" font-size="14.00">CSV</text>
</g>
<!-- CSV&#45;&gt;CLI -->
<g id="edge25" class="edge">
<title>CSV&#45;&gt;CLI</title>
<path fill="none" stroke="aqua" d="M708,-170.72C708,-164.61 708,-159.33 708,-159.33 708,-159.33 797.76,-159.33 797.76,-159.33"/>
<polygon fill="aqua" stroke="aqua" points="797.76,-162.83 807.76,-159.33 797.76,-155.83 797.76,-162.83"/>
</g>
<!-- INDICATION -->
<g id="node26" class="node">
<title>INDICATION</title>
<polygon fill="none" stroke="black" points="597,-560 499,-560 499,-524 597,-524 597,-560"/>
<text text-anchor="middle" x="548" y="-538.3" font-family="Times New Roman,serif" font-size="14.00">INDICATION</text>
</g>
<!-- SUPER_CYCLE -->
<g id="node28" class="node">
<title>SUPER_CYCLE</title>
<polygon fill="none" stroke="black" points="755.5,-506 641.5,-506 641.5,-470 755.5,-470 755.5,-506"/>
<text text-anchor="middle" x="698.5" y="-484.3" font-family="Times New Roman,serif" font-size="14.00">SUPER_CYCLE</text>
</g>
<!-- SYSTEM -->
<g id="node29" class="node">
<title>SYSTEM</title>
<polygon fill="none" stroke="black" points="584,-398 512,-398 512,-362 584,-362 584,-398"/>
<text text-anchor="middle" x="548" y="-376.3" font-family="Times New Roman,serif" font-size="14.00">SYSTEM</text>
</g>
<!-- TASK&#45;&gt;SUPER_CYCLE -->
<g id="edge38" class="edge">
<title>TASK&#45;&gt;SUPER_CYCLE</title>
<path fill="none" stroke="black" d="M584.05,-488C584.05,-488 631.29,-488 631.29,-488"/>
<polygon fill="black" stroke="black" points="631.29,-491.5 641.29,-488 631.29,-484.5 631.29,-491.5"/>
</g>
<!-- PARAM -->
<g id="node31" class="node">
<title>PARAM</title>
<polygon fill="none" stroke="black" points="449.5,-823 383.5,-823 383.5,-787 449.5,-787 449.5,-823"/>
<text text-anchor="middle" x="416.5" y="-801.3" font-family="Times New Roman,serif" font-size="14.00">PARAM</text>
</g>
<!-- PARAM&#45;&gt;BOOT -->
<g id="edge30" class="edge">
<title>PARAM&#45;&gt;BOOT</title>
<path fill="none" stroke="black" d="M417,-786.9C417,-737.67 417,-605 417,-605 417,-605 509.9,-605 509.9,-605"/>
<polygon fill="black" stroke="black" points="509.9,-608.5 519.9,-605 509.9,-601.5 509.9,-608.5"/>
</g>
<!-- NVRAM -->
<g id="node41" class="node">
<title>NVRAM</title>
<polygon fill="none" stroke="black" points="582,-823 514,-823 514,-787 582,-787 582,-823"/>
<text text-anchor="middle" x="548" y="-801.3" font-family="Times New Roman,serif" font-size="14.00">NVRAM</text>
</g>
<!-- PARAM&#45;&gt;NVRAM -->
<g id="edge51" class="edge">
<title>PARAM&#45;&gt;NVRAM</title>
<path fill="none" stroke="black" d="M449.68,-805C449.68,-805 503.91,-805 503.91,-805"/>
<polygon fill="black" stroke="black" points="503.91,-808.5 513.91,-805 503.91,-801.5 503.91,-808.5"/>
</g>
<!-- LED_MONO&#45;&gt;INDICATION -->
<g id="edge33" class="edge">
<title>LED_MONO&#45;&gt;INDICATION</title>
<path fill="none" stroke="black" d="M457,-509.06C457,-520.44 457,-533 457,-533 457,-533 488.77,-533 488.77,-533"/>
<polygon fill="black" stroke="black" points="488.77,-536.5 498.77,-533 488.77,-529.5 488.77,-536.5"/>
</g>
<!-- MATH -->
<g id="node33" class="node">
<title>MATH</title>
<polygon fill="none" stroke="black" points="319.5,-524 262.5,-524 262.5,-488 319.5,-488 319.5,-524"/>
<text text-anchor="middle" x="291" y="-502.3" font-family="Times New Roman,serif" font-size="14.00">MATH</text>
</g>
<!-- MATH&#45;&gt;LED_MONO -->
<g id="edge37" class="edge">
<title>MATH&#45;&gt;LED_MONO</title>
<path fill="none" stroke="black" d="M319.79,-498.5C319.79,-498.5 359.64,-498.5 359.64,-498.5"/>
<polygon fill="black" stroke="black" points="359.64,-502 369.64,-498.5 359.64,-495 359.64,-502"/>
</g>
<!-- LIMITER&#45;&gt;TASK -->
<g id="edge39" class="edge">
<title>LIMITER&#45;&gt;TASK</title>
<path fill="none" stroke="green" d="M327.56,-461C391.52,-461 517,-461 517,-461 517,-461 517,-461.88 517,-461.88"/>
<polygon fill="green" stroke="green" points="513.5,-459.84 517,-469.84 520.5,-459.84 513.5,-459.84"/>
</g>
<!-- CRC8&#45;&gt;FLASH_FS -->
<g id="edge53" class="edge">
<title>CRC8&#45;&gt;FLASH_FS</title>
<path fill="none" stroke="black" d="M263.78,-674C251.2,-674 239,-674 239,-674 239,-674 239,-814 239,-814 239,-814 239.91,-814 239.91,-814"/>
<polygon fill="black" stroke="black" points="238.06,-817.5 248.06,-814 238.06,-810.5 238.06,-817.5"/>
</g>
<!-- ASM -->
<g id="node38" class="node">
<title>ASM</title>
<polygon fill="none" stroke="black" points="189,-497 135,-497 135,-461 189,-461 189,-497"/>
<text text-anchor="middle" x="162" y="-475.3" font-family="Times New Roman,serif" font-size="14.00">ASM</text>
</g>
<!-- ASM&#45;&gt;MATH -->
<g id="edge48" class="edge">
<title>ASM&#45;&gt;MATH</title>
<path fill="none" stroke="black" d="M189.04,-492.5C189.04,-492.5 252.2,-492.5 252.2,-492.5"/>
<polygon fill="black" stroke="black" points="252.2,-496 262.2,-492.5 252.2,-489 252.2,-496"/>
</g>
<!-- FLOAT -->
<g id="node39" class="node">
<title>FLOAT</title>
<polygon fill="none" stroke="black" points="193,-551 131,-551 131,-515 193,-515 193,-551"/>
<text text-anchor="middle" x="162" y="-529.3" font-family="Times New Roman,serif" font-size="14.00">FLOAT</text>
</g>
<!-- FLOAT&#45;&gt;MATH -->
<g id="edge49" class="edge">
<title>FLOAT&#45;&gt;MATH</title>
<path fill="none" stroke="black" d="M193.23,-519.5C193.23,-519.5 252.27,-519.5 252.27,-519.5"/>
<polygon fill="black" stroke="black" points="252.27,-523 262.27,-519.5 252.27,-516 252.27,-523"/>
</g>
<!-- FLASH_FS&#45;&gt;PARAM -->
<g id="edge50" class="edge">
<title>FLASH_FS&#45;&gt;PARAM</title>
<path fill="none" stroke="black" d="M333.84,-805C333.84,-805 373.36,-805 373.36,-805"/>
<polygon fill="black" stroke="black" points="373.36,-808.5 383.36,-805 373.36,-801.5 373.36,-808.5"/>
</g>
</g>
</svg>
