<?xml version="1.0" encoding="UTF-8" standalone="no"?>
<!DOCTYPE svg PUBLIC "-//W3C//DTD SVG 1.1//EN"
 "http://www.w3.org/Graphics/SVG/1.1/DTD/svg11.dtd">
<!-- Generated by graphviz version 5.0.0 (20220707.1540)
 -->
<!-- Title: graphname Pages: 1 -->
<svg width="642pt" height="841pt"
 viewBox="0.00 0.00 642.00 841.00" xmlns="http://www.w3.org/2000/svg" xmlns:xlink="http://www.w3.org/1999/xlink">
<g id="graph0" class="graph" transform="scale(1 1) rotate(0) translate(4 837)">
<title>graphname</title>
<polygon fill="white" stroke="transparent" points="-4,4 -4,-837 638,-837 638,4 -4,4"/>
<g id="clust3" class="cluster">
<title>cluster_Connectivity</title>
<polygon fill="oldlace" stroke="oldlace" points="122,-100 122,-175 331,-175 331,-100 122,-100"/>
<text text-anchor="middle" x="226.5" y="-159.8" font-family="Times New Roman,serif" font-size="14.00">Connectivity</text>
</g>
<g id="clust2" class="cluster">
<title>cluster_adc</title>
<polygon fill="oldlace" stroke="oldlace" points="126.5,-413 126.5,-488 207.5,-488 207.5,-413 126.5,-413"/>
<text text-anchor="middle" x="167" y="-472.8" font-family="Times New Roman,serif" font-size="14.00">ADT</text>
</g>
<g id="clust1" class="cluster">
<title>cluster_mcal</title>
<polygon fill="oldlace" stroke="oldlace" points="257.5,-275 257.5,-404 334.5,-404 334.5,-275 257.5,-275"/>
<text text-anchor="middle" x="296" y="-388.8" font-family="Times New Roman,serif" font-size="14.00">MCAL</text>
</g>
<g id="clust4" class="cluster">
<title>cluster_control</title>
<polygon fill="oldlace" stroke="oldlace" points="367.5,-227 367.5,-518 626,-518 626,-227 367.5,-227"/>
<text text-anchor="middle" x="496.75" y="-502.8" font-family="Times New Roman,serif" font-size="14.00">Control</text>
</g>
<g id="clust5" class="cluster">
<title>cluster_Computing</title>
<polygon fill="oldlace" stroke="oldlace" points="245,-534 245,-825 347,-825 347,-534 245,-534"/>
<text text-anchor="middle" x="296" y="-809.8" font-family="Times New Roman,serif" font-size="14.00">Computing</text>
</g>
<g id="clust6" class="cluster">
<title>cluster_storage</title>
<polygon fill="oldlace" stroke="oldlace" points="8,-421 8,-550 78,-550 78,-421 8,-421"/>
<text text-anchor="middle" x="43" y="-534.8" font-family="Times New Roman,serif" font-size="14.00">Storage</text>
</g>
<!-- FPU -->
<g id="node1" class="node">
<title>FPU</title>
<polygon fill="none" stroke="black" points="70,-144 16,-144 16,-108 70,-108 70,-144"/>
<text text-anchor="middle" x="43" y="-122.3" font-family="Times New Roman,serif" font-size="14.00">FPU</text>
</g>
<!-- CORTEX_M4 -->
<g id="node2" class="node">
<title>CORTEX_M4</title>
<polygon fill="none" stroke="black" points="217,-90 117,-90 117,-54 217,-54 217,-90"/>
<text text-anchor="middle" x="167" y="-68.3" font-family="Times New Roman,serif" font-size="14.00">CORTEX_M4</text>
</g>
<!-- FPU&#45;&gt;CORTEX_M4 -->
<g id="edge1" class="edge">
<title>FPU&#45;&gt;CORTEX_M4</title>
<path fill="none" stroke="black" d="M70.42,-126C93.92,-126 124,-126 124,-126 124,-126 124,-100.28 124,-100.28"/>
<polygon fill="black" stroke="black" points="127.5,-100.28 124,-90.28 120.5,-100.28 127.5,-100.28"/>
</g>
<!-- THUMB -->
<g id="node3" class="node">
<title>THUMB</title>
<polygon fill="none" stroke="black" points="76,-90 10,-90 10,-54 76,-54 76,-90"/>
<text text-anchor="middle" x="43" y="-68.3" font-family="Times New Roman,serif" font-size="14.00">THUMB</text>
</g>
<!-- THUMB&#45;&gt;CORTEX_M4 -->
<g id="edge2" class="edge">
<title>THUMB&#45;&gt;CORTEX_M4</title>
<path fill="none" stroke="black" d="M76.23,-72C76.23,-72 106.87,-72 106.87,-72"/>
<polygon fill="black" stroke="black" points="106.87,-75.5 116.87,-72 106.87,-68.5 106.87,-75.5"/>
</g>
<!-- SYSTICK -->
<g id="node4" class="node">
<title>SYSTICK</title>
<polygon fill="none" stroke="black" points="81,-36 5,-36 5,0 81,0 81,-36"/>
<text text-anchor="middle" x="43" y="-14.3" font-family="Times New Roman,serif" font-size="14.00">SYSTICK</text>
</g>
<!-- SYSTICK&#45;&gt;CORTEX_M4 -->
<g id="edge3" class="edge">
<title>SYSTICK&#45;&gt;CORTEX_M4</title>
<path fill="none" stroke="black" d="M81.22,-18C117.65,-18 167,-18 167,-18 167,-18 167,-43.72 167,-43.72"/>
<polygon fill="black" stroke="black" points="163.5,-43.72 167,-53.72 170.5,-43.72 163.5,-43.72"/>
</g>
<!-- FLASH -->
<g id="node5" class="node">
<title>FLASH</title>
<polygon fill="aquamarine" stroke="black" points="320.5,-319 265.5,-319 265.5,-283 326.5,-283 326.5,-313 320.5,-319"/>
<polyline fill="none" stroke="black" points="320.5,-319 320.5,-313 "/>
<polyline fill="none" stroke="black" points="326.5,-313 320.5,-313 "/>
<text text-anchor="middle" x="296" y="-297.3" font-family="Times New Roman,serif" font-size="14.00">FLASH</text>
</g>
<!-- BOOT -->
<g id="node17" class="node">
<title>BOOT</title>
<polygon fill="none" stroke="black" points="449.5,-433 393.5,-433 393.5,-397 449.5,-397 449.5,-433"/>
<text text-anchor="middle" x="421.5" y="-411.3" font-family="Times New Roman,serif" font-size="14.00">BOOT</text>
</g>
<!-- FLASH&#45;&gt;BOOT -->
<g id="edge16" class="edge">
<title>FLASH&#45;&gt;BOOT</title>
<path fill="none" stroke="black" d="M326.53,-299C346.16,-299 368,-299 368,-299 368,-299 368,-407.5 368,-407.5 368,-407.5 383.5,-407.5 383.5,-407.5"/>
<polygon fill="black" stroke="black" points="383.5,-411 393.5,-407.5 383.5,-404 383.5,-411"/>
</g>
<!-- DEBUGGER -->
<g id="node18" class="node">
<title>DEBUGGER</title>
<polygon fill="none" stroke="black" points="467.5,-271 375.5,-271 375.5,-235 467.5,-235 467.5,-271"/>
<text text-anchor="middle" x="421.5" y="-249.3" font-family="Times New Roman,serif" font-size="14.00">DEBUGGER</text>
</g>
<!-- FLASH&#45;&gt;DEBUGGER -->
<g id="edge17" class="edge">
<title>FLASH&#45;&gt;DEBUGGER</title>
<path fill="none" stroke="black" d="M326.92,-294C351.92,-294 383,-294 383,-294 383,-294 383,-281.1 383,-281.1"/>
<polygon fill="black" stroke="black" points="386.5,-281.1 383,-271.1 379.5,-281.1 386.5,-281.1"/>
</g>
<!-- TASK -->
<g id="node22" class="node">
<title>TASK</title>
<polygon fill="none" stroke="black" points="457.5,-487 385.5,-487 385.5,-451 457.5,-451 457.5,-487"/>
<text text-anchor="middle" x="421.5" y="-465.3" font-family="Times New Roman,serif" font-size="14.00">Scheduler</text>
</g>
<!-- FLASH&#45;&gt;TASK -->
<g id="edge25" class="edge">
<title>FLASH&#45;&gt;TASK</title>
<path fill="none" stroke="blue" d="M326.6,-304C343.46,-304 361,-304 361,-304 361,-304 361,-461 361,-461 361,-461 375.26,-461 375.26,-461"/>
<polygon fill="blue" stroke="blue" points="375.26,-464.5 385.26,-461 375.26,-457.5 375.26,-464.5"/>
</g>
<!-- LIMITER -->
<g id="node26" class="node">
<title>LIMITER</title>
<polygon fill="none" stroke="black" points="332.5,-578 259.5,-578 259.5,-542 332.5,-542 332.5,-578"/>
<text text-anchor="middle" x="296" y="-556.3" font-family="Times New Roman,serif" font-size="14.00">LIMITER</text>
</g>
<!-- FLASH&#45;&gt;LIMITER -->
<g id="edge29" class="edge">
<title>FLASH&#45;&gt;LIMITER</title>
<path fill="none" stroke="black" d="M326.55,-314C337.41,-314 347,-314 347,-314 347,-314 347,-552 347,-552 347,-552 342.52,-552 342.52,-552"/>
<polygon fill="black" stroke="black" points="342.52,-548.5 332.52,-552 342.52,-555.5 342.52,-548.5"/>
</g>
<!-- GPIO -->
<g id="node6" class="node">
<title>GPIO</title>
<polygon fill="aquamarine" stroke="black" points="317,-373 269,-373 269,-337 323,-337 323,-367 317,-373"/>
<polyline fill="none" stroke="black" points="317,-373 317,-367 "/>
<polyline fill="none" stroke="black" points="323,-367 317,-367 "/>
<text text-anchor="middle" x="296" y="-351.3" font-family="Times New Roman,serif" font-size="14.00">GPIO</text>
</g>
<!-- LED -->
<g id="node19" class="node">
<title>LED</title>
<polygon fill="none" stroke="black" points="448.5,-379 394.5,-379 394.5,-343 448.5,-343 448.5,-379"/>
<text text-anchor="middle" x="421.5" y="-357.3" font-family="Times New Roman,serif" font-size="14.00">LED</text>
</g>
<!-- GPIO&#45;&gt;LED -->
<g id="edge18" class="edge">
<title>GPIO&#45;&gt;LED</title>
<path fill="none" stroke="black" d="M323.23,-353C323.23,-353 384.32,-353 384.32,-353"/>
<polygon fill="black" stroke="black" points="384.32,-356.5 394.32,-353 384.32,-349.5 384.32,-356.5"/>
</g>
<!-- LED_MONO -->
<g id="node24" class="node">
<title>LED_MONO</title>
<polygon fill="none" stroke="black" points="468,-562 375,-562 375,-526 468,-526 468,-562"/>
<text text-anchor="middle" x="421.5" y="-540.3" font-family="Times New Roman,serif" font-size="14.00">LED_MONO</text>
</g>
<!-- GPIO&#45;&gt;LED_MONO -->
<g id="edge19" class="edge">
<title>GPIO&#45;&gt;LED_MONO</title>
<path fill="none" stroke="black" d="M323.36,-363C348.21,-363 381,-363 381,-363 381,-363 381,-515.98 381,-515.98"/>
<polygon fill="black" stroke="black" points="377.5,-515.98 381,-525.98 384.5,-515.98 377.5,-515.98"/>
</g>
<!-- ARRAY -->
<g id="node7" class="node">
<title>ARRAY</title>
<polygon fill="aqua" stroke="black" points="193.5,-457 134.5,-457 134.5,-421 199.5,-421 199.5,-451 193.5,-457"/>
<polyline fill="none" stroke="black" points="193.5,-457 193.5,-451 "/>
<polyline fill="none" stroke="black" points="199.5,-451 193.5,-451 "/>
<text text-anchor="middle" x="167" y="-435.3" font-family="Times New Roman,serif" font-size="14.00">ARRAY</text>
</g>
<!-- ARRAY&#45;&gt;FLASH -->
<g id="edge4" class="edge">
<title>ARRAY&#45;&gt;FLASH</title>
<path fill="none" stroke="black" d="M199.68,-434.5C205.1,-434.5 209,-434.5 209,-434.5 209,-434.5 209,-307 209,-307 209,-307 255.08,-307 255.08,-307"/>
<polygon fill="black" stroke="black" points="255.08,-310.5 265.08,-307 255.08,-303.5 255.08,-310.5"/>
</g>
<!-- REG -->
<g id="node8" class="node">
<title>REG</title>
<polygon fill="none" stroke="black" points="70,-465 16,-465 16,-429 70,-429 70,-465"/>
<text text-anchor="middle" x="43" y="-443.3" font-family="Times New Roman,serif" font-size="14.00">REG</text>
</g>
<!-- REG&#45;&gt;FLASH -->
<g id="edge5" class="edge">
<title>REG&#45;&gt;FLASH</title>
<path fill="none" stroke="black" d="M34,-428.97C34,-388.7 34,-295 34,-295 34,-295 255.43,-295 255.43,-295"/>
<polygon fill="black" stroke="black" points="255.43,-298.5 265.43,-295 255.43,-291.5 255.43,-298.5"/>
</g>
<!-- REG&#45;&gt;GPIO -->
<g id="edge8" class="edge">
<title>REG&#45;&gt;GPIO</title>
<path fill="none" stroke="black" d="M52,-428.68C52,-399.19 52,-344.5 52,-344.5 52,-344.5 258.96,-344.5 258.96,-344.5"/>
<polygon fill="black" stroke="black" points="258.96,-348 268.96,-344.5 258.96,-341 258.96,-348"/>
</g>
<!-- INTERVAL -->
<g id="node9" class="node">
<title>INTERVAL</title>
<polygon fill="none" stroke="black" points="339,-740 253,-740 253,-704 339,-704 339,-740"/>
<text text-anchor="middle" x="296" y="-718.3" font-family="Times New Roman,serif" font-size="14.00">INTERVAL</text>
</g>
<!-- INTERVAL&#45;&gt;FLASH -->
<g id="edge6" class="edge">
<title>INTERVAL&#45;&gt;FLASH</title>
<path fill="none" stroke="black" d="M339.06,-722C347.61,-722 354,-722 354,-722 354,-722 354,-309 354,-309 354,-309 336.7,-309 336.7,-309"/>
<polygon fill="black" stroke="black" points="336.7,-305.5 326.7,-309 336.7,-312.5 336.7,-305.5"/>
</g>
<!-- TIME -->
<g id="node10" class="node">
<title>TIME</title>
<polygon fill="none" stroke="black" points="194,-532 140,-532 140,-496 194,-496 194,-532"/>
<text text-anchor="middle" x="167" y="-510.3" font-family="Times New Roman,serif" font-size="14.00">TIME</text>
</g>
<!-- TIME&#45;&gt;GPIO -->
<g id="edge7" class="edge">
<title>TIME&#45;&gt;GPIO</title>
<path fill="none" stroke="black" d="M194.11,-511C203.17,-511 211,-511 211,-511 211,-511 211,-359.5 211,-359.5 211,-359.5 258.64,-359.5 258.64,-359.5"/>
<polygon fill="black" stroke="black" points="258.64,-363 268.64,-359.5 258.64,-356 258.64,-363"/>
</g>
<!-- LOG -->
<g id="node14" class="node">
<title>LOG</title>
<polygon fill="none" stroke="black" points="323,-144 269,-144 269,-108 323,-108 323,-144"/>
<text text-anchor="middle" x="296" y="-122.3" font-family="Times New Roman,serif" font-size="14.00">LOG</text>
</g>
<!-- TIME&#45;&gt;LOG -->
<g id="edge11" class="edge">
<title>TIME&#45;&gt;LOG</title>
<path fill="none" stroke="black" d="M194.34,-503.5C201.38,-503.5 207,-503.5 207,-503.5 207,-503.5 207,-132 207,-132 207,-132 258.81,-132 258.81,-132"/>
<polygon fill="black" stroke="black" points="258.81,-135.5 268.81,-132 258.81,-128.5 258.81,-135.5"/>
</g>
<!-- TIME&#45;&gt;TASK -->
<g id="edge24" class="edge">
<title>TIME&#45;&gt;TASK</title>
<path fill="none" stroke="red" d="M176,-495.51C176,-483.86 176,-471 176,-471 176,-471 375.28,-471 375.28,-471"/>
<polygon fill="red" stroke="red" points="375.28,-474.5 385.28,-471 375.28,-467.5 375.28,-474.5"/>
</g>
<!-- TIME&#45;&gt;LED_MONO -->
<g id="edge20" class="edge">
<title>TIME&#45;&gt;LED_MONO</title>
<path fill="none" stroke="black" d="M194.15,-518.5C251.14,-518.5 378,-518.5 378,-518.5 378,-518.5 378,-519.22 378,-519.22"/>
<polygon fill="black" stroke="black" points="374.5,-515.74 378,-525.74 381.5,-515.74 374.5,-515.74"/>
</g>
<!-- TIME&#45;&gt;LIMITER -->
<g id="edge28" class="edge">
<title>TIME&#45;&gt;LIMITER</title>
<path fill="none" stroke="black" d="M167,-532.18C167,-545.04 167,-560 167,-560 167,-560 249.38,-560 249.38,-560"/>
<polygon fill="black" stroke="black" points="249.38,-563.5 259.38,-560 249.38,-556.5 249.38,-563.5"/>
</g>
<!-- MCU -->
<g id="node11" class="node">
<title>MCU</title>
<polygon fill="none" stroke="black" points="194,-403 140,-403 140,-367 194,-367 194,-403"/>
<text text-anchor="middle" x="167" y="-381.3" font-family="Times New Roman,serif" font-size="14.00">MCU</text>
</g>
<!-- MCU&#45;&gt;GPIO -->
<g id="edge9" class="edge">
<title>MCU&#45;&gt;GPIO</title>
<path fill="none" stroke="black" d="M167,-366.96C167,-359.25 167,-352 167,-352 167,-352 258.96,-352 258.96,-352"/>
<polygon fill="black" stroke="black" points="258.96,-355.5 268.96,-352 258.96,-348.5 258.96,-355.5"/>
</g>
<!-- RAM -->
<g id="node12" class="node">
<title>RAM</title>
<polygon fill="none" stroke="black" points="70,-519 16,-519 16,-483 70,-483 70,-519"/>
<text text-anchor="middle" x="43" y="-497.3" font-family="Times New Roman,serif" font-size="14.00">RAM</text>
</g>
<!-- RAM&#45;&gt;ARRAY -->
<g id="edge10" class="edge">
<title>RAM&#45;&gt;ARRAY</title>
<path fill="none" stroke="blue" d="M70.25,-490C104.26,-490 158,-490 158,-490 158,-490 158,-467.12 158,-467.12"/>
<polygon fill="blue" stroke="blue" points="161.5,-467.12 158,-457.12 154.5,-467.12 161.5,-467.12"/>
</g>
<!-- RAM&#45;&gt;INTERVAL -->
<g id="edge30" class="edge">
<title>RAM&#45;&gt;INTERVAL</title>
<path fill="none" stroke="black" d="M52,-519.09C52,-571.87 52,-722 52,-722 52,-722 242.94,-722 242.94,-722"/>
<polygon fill="black" stroke="black" points="242.94,-725.5 252.94,-722 242.94,-718.5 242.94,-725.5"/>
</g>
<!-- CRC8 -->
<g id="node27" class="node">
<title>CRC8</title>
<polygon fill="none" stroke="black" points="323,-632 269,-632 269,-596 323,-596 323,-632"/>
<text text-anchor="middle" x="296" y="-610.3" font-family="Times New Roman,serif" font-size="14.00">CRC8</text>
</g>
<!-- RAM&#45;&gt;CRC8 -->
<g id="edge26" class="edge">
<title>RAM&#45;&gt;CRC8</title>
<path fill="none" stroke="black" d="M70.25,-493C118.75,-493 215,-493 215,-493 215,-493 215,-609.33 215,-609.33 215,-609.33 258.58,-609.33 258.58,-609.33"/>
<polygon fill="black" stroke="black" points="258.58,-612.83 268.58,-609.33 258.58,-605.83 258.58,-612.83"/>
</g>
<!-- CRC16 -->
<g id="node28" class="node">
<title>CRC16</title>
<polygon fill="none" stroke="black" points="325.5,-794 266.5,-794 266.5,-758 325.5,-758 325.5,-794"/>
<text text-anchor="middle" x="296" y="-772.3" font-family="Times New Roman,serif" font-size="14.00">CRC16</text>
</g>
<!-- RAM&#45;&gt;CRC16 -->
<g id="edge27" class="edge">
<title>RAM&#45;&gt;CRC16</title>
<path fill="none" stroke="black" d="M34,-519.04C34,-580.22 34,-776 34,-776 34,-776 256.45,-776 256.45,-776"/>
<polygon fill="black" stroke="black" points="256.45,-779.5 266.45,-776 256.45,-772.5 256.45,-779.5"/>
</g>
<!-- STREAM -->
<g id="node13" class="node">
<title>STREAM</title>
<polygon fill="none" stroke="black" points="204,-144 130,-144 130,-108 204,-108 204,-144"/>
<text text-anchor="middle" x="167" y="-122.3" font-family="Times New Roman,serif" font-size="14.00">STREAM</text>
</g>
<!-- STREAM&#45;&gt;LOG -->
<g id="edge12" class="edge">
<title>STREAM&#45;&gt;LOG</title>
<path fill="none" stroke="black" d="M204.31,-120C204.31,-120 258.61,-120 258.61,-120"/>
<polygon fill="black" stroke="black" points="258.61,-123.5 268.61,-120 258.61,-116.5 258.61,-123.5"/>
</g>
<!-- FIFO -->
<g id="node15" class="node">
<title>FIFO</title>
<polygon fill="none" stroke="black" points="194,-273 140,-273 140,-237 194,-237 194,-273"/>
<text text-anchor="middle" x="167" y="-251.3" font-family="Times New Roman,serif" font-size="14.00">FIFO</text>
</g>
<!-- FIFO&#45;&gt;LOG -->
<g id="edge13" class="edge">
<title>FIFO&#45;&gt;LOG</title>
<path fill="none" stroke="black" d="M194.26,-254C234.48,-254 305,-254 305,-254 305,-254 305,-154.07 305,-154.07"/>
<polygon fill="black" stroke="black" points="308.5,-154.07 305,-144.07 301.5,-154.07 308.5,-154.07"/>
</g>
<!-- UART -->
<g id="node16" class="node">
<title>UART</title>
<polygon fill="none" stroke="black" points="194.5,-219 139.5,-219 139.5,-183 194.5,-183 194.5,-219"/>
<text text-anchor="middle" x="167" y="-197.3" font-family="Times New Roman,serif" font-size="14.00">UART</text>
</g>
<!-- UART&#45;&gt;LOG -->
<g id="edge14" class="edge">
<title>UART&#45;&gt;LOG</title>
<path fill="none" stroke="black" d="M194.53,-201C229.96,-201 287,-201 287,-201 287,-201 287,-154.16 287,-154.16"/>
<polygon fill="black" stroke="black" points="290.5,-154.16 287,-144.16 283.5,-154.16 290.5,-154.16"/>
</g>
<!-- SUPER_CYCLE -->
<g id="node20" class="node">
<title>SUPER_CYCLE</title>
<polygon fill="none" stroke="black" points="618,-487 504,-487 504,-451 618,-451 618,-487"/>
<text text-anchor="middle" x="561" y="-465.3" font-family="Times New Roman,serif" font-size="14.00">SUPER_CYCLE</text>
</g>
<!-- SYSTEM -->
<g id="node21" class="node">
<title>SYSTEM</title>
<polygon fill="none" stroke="black" points="457.5,-325 385.5,-325 385.5,-289 457.5,-289 457.5,-325"/>
<text text-anchor="middle" x="421.5" y="-303.3" font-family="Times New Roman,serif" font-size="14.00">SYSTEM</text>
</g>
<!-- TASK&#45;&gt;SUPER_CYCLE -->
<g id="edge22" class="edge">
<title>TASK&#45;&gt;SUPER_CYCLE</title>
<path fill="none" stroke="black" d="M457.79,-469C457.79,-469 493.81,-469 493.81,-469"/>
<polygon fill="black" stroke="black" points="493.81,-472.5 503.81,-469 493.81,-465.5 493.81,-472.5"/>
</g>
<!-- PARAM -->
<g id="node23" class="node">
<title>PARAM</title>
<polygon fill="none" stroke="black" points="329,-448 263,-448 263,-412 329,-412 329,-448"/>
<text text-anchor="middle" x="296" y="-426.3" font-family="Times New Roman,serif" font-size="14.00">PARAM</text>
</g>
<!-- PARAM&#45;&gt;BOOT -->
<g id="edge15" class="edge">
<title>PARAM&#45;&gt;BOOT</title>
<path fill="none" stroke="black" d="M329.3,-422.5C329.3,-422.5 383.15,-422.5 383.15,-422.5"/>
<polygon fill="black" stroke="black" points="383.15,-426 393.15,-422.5 383.15,-419 383.15,-426"/>
</g>
<!-- MATH -->
<g id="node25" class="node">
<title>MATH</title>
<polygon fill="none" stroke="black" points="324.5,-686 267.5,-686 267.5,-650 324.5,-650 324.5,-686"/>
<text text-anchor="middle" x="296" y="-664.3" font-family="Times New Roman,serif" font-size="14.00">MATH</text>
</g>
<!-- MATH&#45;&gt;LED_MONO -->
<g id="edge21" class="edge">
<title>MATH&#45;&gt;LED_MONO</title>
<path fill="none" stroke="black" d="M324.59,-668C361.77,-668 422,-668 422,-668 422,-668 422,-572.03 422,-572.03"/>
<polygon fill="black" stroke="black" points="425.5,-572.03 422,-562.03 418.5,-572.03 425.5,-572.03"/>
</g>
<!-- LIMITER&#45;&gt;TASK -->
<g id="edge23" class="edge">
<title>LIMITER&#45;&gt;TASK</title>
<path fill="none" stroke="green" d="M296,-541.99C296,-517.58 296,-477 296,-477 296,-477 375.2,-477 375.2,-477"/>
<polygon fill="green" stroke="green" points="375.2,-480.5 385.2,-477 375.2,-473.5 375.2,-480.5"/>
</g>
<!-- ASM -->
<g id="node29" class="node">
<title>ASM</title>
<polygon fill="none" stroke="black" points="194,-688 140,-688 140,-652 194,-652 194,-688"/>
<text text-anchor="middle" x="167" y="-666.3" font-family="Times New Roman,serif" font-size="14.00">ASM</text>
</g>
<!-- ASM&#45;&gt;MATH -->
<g id="edge31" class="edge">
<title>ASM&#45;&gt;MATH</title>
<path fill="none" stroke="black" d="M194.04,-674.67C194.04,-674.67 257.2,-674.67 257.2,-674.67"/>
<polygon fill="black" stroke="black" points="257.2,-678.17 267.2,-674.67 257.2,-671.17 257.2,-678.17"/>
</g>
<!-- FLOAT -->
<g id="node30" class="node">
<title>FLOAT</title>
<polygon fill="none" stroke="black" points="198,-634 136,-634 136,-598 198,-598 198,-634"/>
<text text-anchor="middle" x="167" y="-612.3" font-family="Times New Roman,serif" font-size="14.00">FLOAT</text>
</g>
<!-- FLOAT&#45;&gt;MATH -->
<g id="edge32" class="edge">
<title>FLOAT&#45;&gt;MATH</title>
<path fill="none" stroke="black" d="M198.19,-620.67C206.4,-620.67 213,-620.67 213,-620.67 213,-620.67 213,-663.33 213,-663.33 213,-663.33 257.44,-663.33 257.44,-663.33"/>
<polygon fill="black" stroke="black" points="257.44,-666.83 267.44,-663.33 257.44,-659.83 257.44,-666.83"/>
</g>
</g>
</svg>
