<?xml version="1.0" encoding="UTF-8" standalone="no"?>
<!DOCTYPE svg PUBLIC "-//W3C//DTD SVG 1.1//EN"
 "http://www.w3.org/Graphics/SVG/1.1/DTD/svg11.dtd">
<!-- Generated by graphviz version 8.0.5 (20230508.1809)
 -->
<!-- Title: graphname Pages: 1 -->
<svg width="615pt" height="902pt"
 viewBox="0.00 0.00 615.00 902.00" xmlns="http://www.w3.org/2000/svg" xmlns:xlink="http://www.w3.org/1999/xlink">
<g id="graph0" class="graph" transform="scale(1 1) rotate(0) translate(4 898)">
<title>graphname</title>
<polygon fill="white" stroke="none" points="-4,4 -4,-898 611,-898 611,4 -4,4"/>
<g id="clust1" class="cluster">
<title>cluster_adc</title>
<polygon fill="oldlace" stroke="oldlace" points="114.62,-384 114.62,-515 193.12,-515 193.12,-384 114.62,-384"/>
<text text-anchor="middle" x="153.88" y="-497.7" font-family="Times,serif" font-size="14.00">ADT</text>
</g>
<g id="clust3" class="cluster">
<title>cluster_storage</title>
<polygon fill="oldlace" stroke="oldlace" points="8,-476 8,-607 78,-607 78,-476 8,-476"/>
<text text-anchor="middle" x="43" y="-589.7" font-family="Times,serif" font-size="14.00">Storage</text>
</g>
<!-- ARRAY -->
<g id="node1" class="node">
<title>ARRAY</title>
<polygon fill="aqua" stroke="black" points="179.12,-428 122.62,-428 122.62,-392 185.12,-392 185.12,-422 179.12,-428"/>
<polyline fill="none" stroke="black" points="179.12,-428 179.12,-422"/>
<polyline fill="none" stroke="black" points="185.12,-422 179.12,-422"/>
<text text-anchor="middle" x="153.88" y="-404.95" font-family="Times,serif" font-size="14.00">ARRAY</text>
</g>
<!-- FIFO -->
<g id="node2" class="node">
<title>FIFO</title>
<polygon fill="aqua" stroke="black" points="174.88,-482 126.88,-482 126.88,-446 180.88,-446 180.88,-476 174.88,-482"/>
<polyline fill="none" stroke="black" points="174.88,-482 174.88,-476"/>
<polyline fill="none" stroke="black" points="180.88,-476 174.88,-476"/>
<text text-anchor="middle" x="153.88" y="-458.95" font-family="Times,serif" font-size="14.00">FIFO</text>
</g>
<!-- STRING_READER -->
<g id="node4" class="node">
<title>STRING_READER</title>
<polygon fill="none" stroke="black" points="356,-482 230.5,-482 230.5,-446 356,-446 356,-482"/>
<text text-anchor="middle" x="293.25" y="-458.95" font-family="Times,serif" font-size="14.00">STRING_READER</text>
</g>
<!-- FIFO&#45;&gt;STRING_READER -->
<g id="edge3" class="edge">
<title>FIFO&#45;&gt;STRING_READER</title>
<path fill="none" stroke="aqua" d="M181.08,-470C181.08,-470 219.04,-470 219.04,-470"/>
<polygon fill="aqua" stroke="aqua" points="219.04,-473.5 229.04,-470 219.04,-466.5 219.04,-473.5"/>
</g>
<!-- LOG -->
<g id="node8" class="node">
<title>LOG</title>
<polygon fill="none" stroke="black" points="320.25,-297 266.25,-297 266.25,-261 320.25,-261 320.25,-297"/>
<text text-anchor="middle" x="293.25" y="-273.95" font-family="Times,serif" font-size="14.00">LOG</text>
</g>
<!-- FIFO&#45;&gt;LOG -->
<g id="edge13" class="edge">
<title>FIFO&#45;&gt;LOG</title>
<path fill="none" stroke="black" d="M181.37,-458C194.33,-458 207,-458 207,-458 207,-458 207,-292.67 207,-292.67 207,-292.67 254.96,-292.67 254.96,-292.67"/>
<polygon fill="black" stroke="black" points="254.96,-296.17 264.96,-292.67 254.96,-289.17 254.96,-296.17"/>
</g>
<!-- RAM -->
<g id="node3" class="node">
<title>RAM</title>
<polygon fill="none" stroke="black" points="70,-574 16,-574 16,-538 70,-538 70,-574"/>
<text text-anchor="middle" x="43" y="-550.95" font-family="Times,serif" font-size="14.00">RAM</text>
</g>
<!-- RAM&#45;&gt;ARRAY -->
<g id="edge1" class="edge">
<title>RAM&#45;&gt;ARRAY</title>
<path fill="none" stroke="blue" d="M70.43,-543.2C85.83,-543.2 102,-543.2 102,-543.2 102,-543.2 102,-410 102,-410 102,-410 111.2,-410 111.2,-410"/>
<polygon fill="blue" stroke="blue" points="111.2,-413.5 121.2,-410 111.2,-406.5 111.2,-413.5"/>
</g>
<!-- RAM&#45;&gt;FIFO -->
<g id="edge2" class="edge">
<title>RAM&#45;&gt;FIFO</title>
<path fill="none" stroke="black" d="M70.44,-545.8C103.31,-545.8 154,-545.8 154,-545.8 154,-545.8 154,-493.15 154,-493.15"/>
<polygon fill="black" stroke="black" points="157.5,-493.15 154,-483.15 150.5,-493.15 157.5,-493.15"/>
</g>
<!-- CSV -->
<g id="node9" class="node">
<title>CSV</title>
<polygon fill="none" stroke="black" points="320.25,-551 266.25,-551 266.25,-515 320.25,-515 320.25,-551"/>
<text text-anchor="middle" x="293.25" y="-527.95" font-family="Times,serif" font-size="14.00">CSV</text>
</g>
<!-- RAM&#45;&gt;CSV -->
<g id="edge9" class="edge">
<title>RAM&#45;&gt;CSV</title>
<path fill="none" stroke="black" d="M70.26,-548.4C70.26,-548.4 255.03,-548.4 255.03,-548.4"/>
<polygon fill="black" stroke="black" points="255.03,-551.9 265.03,-548.4 255.03,-544.9 255.03,-551.9"/>
</g>
<!-- CRC8 -->
<g id="node19" class="node">
<title>CRC8</title>
<polygon fill="none" stroke="black" points="180.88,-374 126.88,-374 126.88,-338 180.88,-338 180.88,-374"/>
<text text-anchor="middle" x="153.88" y="-350.95" font-family="Times,serif" font-size="14.00">CRC8</text>
</g>
<!-- RAM&#45;&gt;CRC8 -->
<g id="edge23" class="edge">
<title>RAM&#45;&gt;CRC8</title>
<path fill="none" stroke="black" d="M70.34,-540.6C80.68,-540.6 90,-540.6 90,-540.6 90,-540.6 90,-356 90,-356 90,-356 115.42,-356 115.42,-356"/>
<polygon fill="black" stroke="black" points="115.42,-359.5 125.42,-356 115.42,-352.5 115.42,-359.5"/>
</g>
<!-- CRC16 -->
<g id="node20" class="node">
<title>CRC16</title>
<polygon fill="none" stroke="black" points="182.12,-759 125.62,-759 125.62,-723 182.12,-723 182.12,-759"/>
<text text-anchor="middle" x="153.88" y="-735.95" font-family="Times,serif" font-size="14.00">CRC16</text>
</g>
<!-- RAM&#45;&gt;CRC16 -->
<g id="edge24" class="edge">
<title>RAM&#45;&gt;CRC16</title>
<path fill="none" stroke="black" d="M30,-574.41C30,-621.21 30,-741 30,-741 30,-741 114.14,-741 114.14,-741"/>
<polygon fill="black" stroke="black" points="114.14,-744.5 124.14,-741 114.14,-737.5 114.14,-744.5"/>
</g>
<!-- CRC24 -->
<g id="node21" class="node">
<title>CRC24</title>
<polygon fill="none" stroke="black" points="182.12,-705 125.62,-705 125.62,-669 182.12,-669 182.12,-705"/>
<text text-anchor="middle" x="153.88" y="-681.95" font-family="Times,serif" font-size="14.00">CRC24</text>
</g>
<!-- RAM&#45;&gt;CRC24 -->
<g id="edge25" class="edge">
<title>RAM&#45;&gt;CRC24</title>
<path fill="none" stroke="black" d="M43,-574.49C43,-610.6 43,-687 43,-687 43,-687 114.32,-687 114.32,-687"/>
<polygon fill="black" stroke="black" points="114.32,-690.5 124.32,-687 114.32,-683.5 114.32,-690.5"/>
</g>
<!-- CRC32 -->
<g id="node22" class="node">
<title>CRC32</title>
<polygon fill="none" stroke="black" points="182.12,-651 125.62,-651 125.62,-615 182.12,-615 182.12,-651"/>
<text text-anchor="middle" x="153.88" y="-627.95" font-family="Times,serif" font-size="14.00">CRC32</text>
</g>
<!-- RAM&#45;&gt;CRC32 -->
<g id="edge26" class="edge">
<title>RAM&#45;&gt;CRC32</title>
<path fill="none" stroke="black" d="M57,-574.25C57,-597.02 57,-633 57,-633 57,-633 114.33,-633 114.33,-633"/>
<polygon fill="black" stroke="black" points="114.33,-636.5 124.33,-633 114.33,-629.5 114.33,-636.5"/>
</g>
<!-- INTERVAL -->
<g id="node23" class="node">
<title>INTERVAL</title>
<polygon fill="none" stroke="black" points="194.5,-597 113.25,-597 113.25,-561 194.5,-561 194.5,-597"/>
<text text-anchor="middle" x="153.88" y="-573.95" font-family="Times,serif" font-size="14.00">INTERVAL</text>
</g>
<!-- RAM&#45;&gt;INTERVAL -->
<g id="edge29" class="edge">
<title>RAM&#45;&gt;INTERVAL</title>
<path fill="none" stroke="black" d="M70.41,-567.5C70.41,-567.5 101.95,-567.5 101.95,-567.5"/>
<polygon fill="black" stroke="black" points="101.95,-571 111.95,-567.5 101.95,-564 101.95,-571"/>
</g>
<!-- CLI -->
<g id="node6" class="node">
<title>CLI</title>
<polygon fill="none" stroke="black" points="454,-482 400,-482 400,-446 454,-446 454,-482"/>
<text text-anchor="middle" x="427" y="-458.95" font-family="Times,serif" font-size="14.00">CLI</text>
</g>
<!-- STRING_READER&#45;&gt;CLI -->
<g id="edge5" class="edge">
<title>STRING_READER&#45;&gt;CLI</title>
<path fill="none" stroke="aqua" d="M356.21,-464C356.21,-464 388.74,-464 388.74,-464"/>
<polygon fill="aqua" stroke="aqua" points="388.74,-467.5 398.74,-464 388.74,-460.5 388.74,-467.5"/>
</g>
<!-- STRING -->
<g id="node5" class="node">
<title>STRING</title>
<polygon fill="none" stroke="black" points="186.25,-813 121.5,-813 121.5,-777 186.25,-777 186.25,-813"/>
<text text-anchor="middle" x="153.88" y="-789.95" font-family="Times,serif" font-size="14.00">STRING</text>
</g>
<!-- STRING&#45;&gt;CLI -->
<g id="edge4" class="edge">
<title>STRING&#45;&gt;CLI</title>
<path fill="none" stroke="aqua" d="M186.51,-801C260.78,-801 436,-801 436,-801 436,-801 436,-493.12 436,-493.12"/>
<polygon fill="aqua" stroke="aqua" points="439.5,-493.12 436,-483.12 432.5,-493.12 439.5,-493.12"/>
</g>
<!-- STRING&#45;&gt;CSV -->
<g id="edge10" class="edge">
<title>STRING&#45;&gt;CSV</title>
<path fill="none" stroke="black" d="M186.73,-789C228.14,-789 294,-789 294,-789 294,-789 294,-562.41 294,-562.41"/>
<polygon fill="black" stroke="black" points="297.5,-562.41 294,-552.41 290.5,-562.41 297.5,-562.41"/>
</g>
<!-- STREAM -->
<g id="node7" class="node">
<title>STREAM</title>
<polygon fill="none" stroke="black" points="189.62,-320 118.12,-320 118.12,-284 189.62,-284 189.62,-320"/>
<text text-anchor="middle" x="153.88" y="-296.95" font-family="Times,serif" font-size="14.00">STREAM</text>
</g>
<!-- STREAM&#45;&gt;CLI -->
<g id="edge6" class="edge">
<title>STREAM&#45;&gt;CLI</title>
<path fill="none" stroke="aqua" d="M190.05,-308.5C262.38,-308.5 418,-308.5 418,-308.5 418,-308.5 418,-434.55 418,-434.55"/>
<polygon fill="aqua" stroke="aqua" points="414.5,-434.55 418,-444.55 421.5,-434.55 414.5,-434.55"/>
</g>
<!-- STREAM&#45;&gt;LOG -->
<g id="edge12" class="edge">
<title>STREAM&#45;&gt;LOG</title>
<path fill="none" stroke="black" d="M189.77,-288.33C189.77,-288.33 254.84,-288.33 254.84,-288.33"/>
<polygon fill="black" stroke="black" points="254.84,-291.83 264.84,-288.33 254.84,-284.83 254.84,-291.83"/>
</g>
<!-- LOG&#45;&gt;CLI -->
<g id="edge7" class="edge">
<title>LOG&#45;&gt;CLI</title>
<path fill="none" stroke="aqua" d="M320.44,-279C361.85,-279 436,-279 436,-279 436,-279 436,-434.59 436,-434.59"/>
<polygon fill="aqua" stroke="aqua" points="432.5,-434.59 436,-444.59 439.5,-434.59 432.5,-434.59"/>
</g>
<!-- CSV&#45;&gt;CLI -->
<g id="edge8" class="edge">
<title>CSV&#45;&gt;CLI</title>
<path fill="none" stroke="aqua" d="M320.63,-533C357.35,-533 418,-533 418,-533 418,-533 418,-493.49 418,-493.49"/>
<polygon fill="aqua" stroke="aqua" points="421.5,-493.49 418,-483.49 414.5,-493.49 421.5,-493.49"/>
</g>
<!-- TIME -->
<g id="node10" class="node">
<title>TIME</title>
<polygon fill="none" stroke="black" points="180.88,-174 126.88,-174 126.88,-138 180.88,-138 180.88,-174"/>
<text text-anchor="middle" x="153.88" y="-150.95" font-family="Times,serif" font-size="14.00">TIME</text>
</g>
<!-- TIME&#45;&gt;LOG -->
<g id="edge11" class="edge">
<title>TIME&#45;&gt;LOG</title>
<path fill="none" stroke="black" d="M181.12,-165C198.96,-165 219,-165 219,-165 219,-165 219,-273.5 219,-273.5 219,-273.5 255.02,-273.5 255.02,-273.5"/>
<polygon fill="black" stroke="black" points="255.02,-277 265.02,-273.5 255.02,-270 255.02,-277"/>
</g>
<!-- SCHEDULER -->
<g id="node15" class="node">
<title>SCHEDULER</title>
<polygon fill="none" stroke="black" points="462,-128 392,-128 392,-92 462,-92 462,-128"/>
<text text-anchor="middle" x="427" y="-104.95" font-family="Times,serif" font-size="14.00">Scheduler</text>
</g>
<!-- TIME&#45;&gt;SCHEDULER -->
<g id="edge20" class="edge">
<title>TIME&#45;&gt;SCHEDULER</title>
<path fill="none" stroke="red" d="M181.18,-147C244.5,-147 396,-147 396,-147 396,-147 396,-139.5 396,-139.5"/>
<polygon fill="red" stroke="red" points="399.5,-139.5 396,-129.5 392.5,-139.5 399.5,-139.5"/>
</g>
<!-- LIMITER -->
<g id="node17" class="node">
<title>LIMITER</title>
<polygon fill="none" stroke="black" points="329,-128 257.5,-128 257.5,-92 329,-92 329,-128"/>
<text text-anchor="middle" x="293.25" y="-104.95" font-family="Times,serif" font-size="14.00">LIMITER</text>
</g>
<!-- TIME&#45;&gt;LIMITER -->
<g id="edge27" class="edge">
<title>TIME&#45;&gt;LIMITER</title>
<path fill="none" stroke="black" d="M163,-137.87C163,-127.29 163,-116 163,-116 163,-116 246.31,-116 246.31,-116"/>
<polygon fill="black" stroke="black" points="246.31,-119.5 256.31,-116 246.31,-112.5 246.31,-119.5"/>
</g>
<!-- CALENDAR -->
<g id="node18" class="node">
<title>CALENDAR</title>
<polygon fill="none" stroke="black" points="338,-220 248.5,-220 248.5,-184 338,-184 338,-220"/>
<text text-anchor="middle" x="293.25" y="-196.95" font-family="Times,serif" font-size="14.00">CALENDAR</text>
</g>
<!-- TIME&#45;&gt;CALENDAR -->
<g id="edge22" class="edge">
<title>TIME&#45;&gt;CALENDAR</title>
<path fill="none" stroke="black" d="M181.24,-156C211.19,-156 255,-156 255,-156 255,-156 255,-172.56 255,-172.56"/>
<polygon fill="black" stroke="black" points="251.5,-172.56 255,-182.56 258.5,-172.56 251.5,-172.56"/>
</g>
<!-- UART -->
<g id="node11" class="node">
<title>UART</title>
<polygon fill="none" stroke="black" points="180.88,-266 126.88,-266 126.88,-230 180.88,-230 180.88,-266"/>
<text text-anchor="middle" x="153.88" y="-242.95" font-family="Times,serif" font-size="14.00">UART</text>
</g>
<!-- UART&#45;&gt;LOG -->
<g id="edge14" class="edge">
<title>UART&#45;&gt;LOG</title>
<path fill="none" stroke="black" d="M154,-266.2C154,-272.03 154,-277 154,-277 154,-277 255.07,-277 255.07,-277"/>
<polygon fill="black" stroke="black" points="255.07,-280.5 265.07,-277 255.07,-273.5 255.07,-280.5"/>
</g>
<!-- WRITER -->
<g id="node12" class="node">
<title>WRITER</title>
<polygon fill="none" stroke="black" points="77.25,-270 8.75,-270 8.75,-234 77.25,-234 77.25,-270"/>
<text text-anchor="middle" x="43" y="-246.95" font-family="Times,serif" font-size="14.00">WRITER</text>
</g>
<!-- WRITER&#45;&gt;STREAM -->
<g id="edge16" class="edge">
<title>WRITER&#45;&gt;STREAM</title>
<path fill="none" stroke="black" d="M52,-270.33C52,-284.6 52,-302 52,-302 52,-302 106.67,-302 106.67,-302"/>
<polygon fill="black" stroke="black" points="106.67,-305.5 116.67,-302 106.67,-298.5 106.67,-305.5"/>
</g>
<!-- WRITER&#45;&gt;LOG -->
<g id="edge15" class="edge">
<title>WRITER&#45;&gt;LOG</title>
<path fill="none" stroke="black" d="M34,-270.21C34,-275.8 34,-280.5 34,-280.5 34,-280.5 255,-280.5 255,-280.5"/>
<polygon fill="black" stroke="black" points="255,-284 265,-280.5 255,-277 255,-284"/>
</g>
<!-- FLASH -->
<g id="node13" class="node">
<title>FLASH</title>
<polygon fill="none" stroke="black" points="183.25,-82 124.5,-82 124.5,-46 183.25,-46 183.25,-82"/>
<text text-anchor="middle" x="153.88" y="-58.95" font-family="Times,serif" font-size="14.00">FLASH</text>
</g>
<!-- DEBUGGER -->
<g id="node14" class="node">
<title>DEBUGGER</title>
<polygon fill="none" stroke="black" points="338,-36 248.5,-36 248.5,0 338,0 338,-36"/>
<text text-anchor="middle" x="293.25" y="-12.95" font-family="Times,serif" font-size="14.00">DEBUGGER</text>
</g>
<!-- FLASH&#45;&gt;DEBUGGER -->
<g id="edge17" class="edge">
<title>FLASH&#45;&gt;DEBUGGER</title>
<path fill="none" stroke="black" d="M183.58,-58C212.46,-58 252,-58 252,-58 252,-58 252,-47.13 252,-47.13"/>
<polygon fill="black" stroke="black" points="255.5,-47.13 252,-37.13 248.5,-47.13 255.5,-47.13"/>
</g>
<!-- FLASH&#45;&gt;SCHEDULER -->
<g id="edge21" class="edge">
<title>FLASH&#45;&gt;SCHEDULER</title>
<path fill="none" stroke="blue" d="M183.62,-70C254.41,-70 427,-70 427,-70 427,-70 427,-80.87 427,-80.87"/>
<polygon fill="blue" stroke="blue" points="423.5,-80.87 427,-90.87 430.5,-80.87 423.5,-80.87"/>
</g>
<!-- FLASH&#45;&gt;LIMITER -->
<g id="edge28" class="edge">
<title>FLASH&#45;&gt;LIMITER</title>
<path fill="none" stroke="black" d="M145,-82.13C145,-92.71 145,-104 145,-104 145,-104 246.36,-104 246.36,-104"/>
<polygon fill="black" stroke="black" points="246.36,-107.5 256.36,-104 246.36,-100.5 246.36,-107.5"/>
</g>
<!-- SUPER_CYCLE -->
<g id="node16" class="node">
<title>SUPER_CYCLE</title>
<polygon fill="none" stroke="black" points="607,-128 498,-128 498,-92 607,-92 607,-128"/>
<text text-anchor="middle" x="552.5" y="-104.95" font-family="Times,serif" font-size="14.00">SUPER_CYCLE</text>
</g>
<!-- SCHEDULER&#45;&gt;SUPER_CYCLE -->
<g id="edge18" class="edge">
<title>SCHEDULER&#45;&gt;SUPER_CYCLE</title>
<path fill="none" stroke="black" d="M462.29,-110C462.29,-110 486.77,-110 486.77,-110"/>
<polygon fill="black" stroke="black" points="486.77,-113.5 496.77,-110 486.77,-106.5 486.77,-113.5"/>
</g>
<!-- LIMITER&#45;&gt;SCHEDULER -->
<g id="edge19" class="edge">
<title>LIMITER&#45;&gt;SCHEDULER</title>
<path fill="none" stroke="green" d="M329.44,-110C329.44,-110 380.7,-110 380.7,-110"/>
<polygon fill="green" stroke="green" points="380.7,-113.5 390.7,-110 380.7,-106.5 380.7,-113.5"/>
</g>
<!-- ASM -->
<g id="node24" class="node">
<title>ASM</title>
<polygon fill="none" stroke="black" points="70,-894 16,-894 16,-858 70,-858 70,-894"/>
<text text-anchor="middle" x="43" y="-870.95" font-family="Times,serif" font-size="14.00">ASM</text>
</g>
<!-- MATH -->
<g id="node25" class="node">
<title>MATH</title>
<polygon fill="none" stroke="black" points="181.38,-867 126.38,-867 126.38,-831 181.38,-831 181.38,-867"/>
<text text-anchor="middle" x="153.88" y="-843.95" font-family="Times,serif" font-size="14.00">MATH</text>
</g>
<!-- ASM&#45;&gt;MATH -->
<g id="edge30" class="edge">
<title>ASM&#45;&gt;MATH</title>
<path fill="none" stroke="black" d="M70.41,-862.5C70.41,-862.5 115.01,-862.5 115.01,-862.5"/>
<polygon fill="black" stroke="black" points="115.01,-866 125.01,-862.5 115.01,-859 115.01,-866"/>
</g>
<!-- FLOAT -->
<g id="node26" class="node">
<title>FLOAT</title>
<polygon fill="none" stroke="black" points="72,-840 14,-840 14,-804 72,-804 72,-840"/>
<text text-anchor="middle" x="43" y="-816.95" font-family="Times,serif" font-size="14.00">FLOAT</text>
</g>
<!-- FLOAT&#45;&gt;MATH -->
<g id="edge31" class="edge">
<title>FLOAT&#45;&gt;MATH</title>
<path fill="none" stroke="black" d="M72.42,-835.5C72.42,-835.5 115.22,-835.5 115.22,-835.5"/>
<polygon fill="black" stroke="black" points="115.22,-839 125.22,-835.5 115.22,-832 115.22,-839"/>
</g>
<!-- REG -->
<g id="node27" class="node">
<title>REG</title>
<polygon fill="none" stroke="black" points="70,-520 16,-520 16,-484 70,-484 70,-520"/>
<text text-anchor="middle" x="43" y="-496.95" font-family="Times,serif" font-size="14.00">REG</text>
</g>
</g>
</svg>
