<?xml version="1.0" encoding="UTF-8" standalone="no"?>
<!DOCTYPE svg PUBLIC "-//W3C//DTD SVG 1.1//EN"
 "http://www.w3.org/Graphics/SVG/1.1/DTD/svg11.dtd">
<!-- Generated by graphviz version 8.0.5 (20230508.1809)
 -->
<!-- Title: graphname Pages: 1 -->
<svg width="1212pt" height="1147pt"
 viewBox="0.00 0.00 1212.25 1147.00" xmlns="http://www.w3.org/2000/svg" xmlns:xlink="http://www.w3.org/1999/xlink">
<g id="graph0" class="graph" transform="scale(1 1) rotate(0) translate(4 1143)">
<title>graphname</title>
<polygon fill="white" stroke="none" points="-4,4 -4,-1143 1208.25,-1143 1208.25,4 -4,4"/>
<g id="clust1" class="cluster">
<title>cluster_Interfaces</title>
<polygon fill="none" stroke="red" points="134.12,-890 134.12,-1041 481.75,-1041 481.75,-890 134.12,-890"/>
<text text-anchor="middle" x="307.94" y="-1023.7" font-family="Times,serif" font-size="14.00">Interfaces</text>
</g>
<!-- CAN -->
<g id="node1" class="node">
<title>CAN</title>
<polygon fill="none" stroke="black" points="473.75,-962 419.75,-962 419.75,-926 473.75,-926 473.75,-962"/>
<text text-anchor="middle" x="446.75" y="-938.95" font-family="Times,serif" font-size="14.00">CAN</text>
</g>
<!-- CAN_TX_PLANNER -->
<g id="node2" class="node">
<title>CAN_TX_PLANNER</title>
<polygon fill="none" stroke="black" points="668.75,-817 530.5,-817 530.5,-781 668.75,-781 668.75,-817"/>
<text text-anchor="middle" x="599.62" y="-793.95" font-family="Times,serif" font-size="14.00">CAN_TX_PLANNER</text>
</g>
<!-- CAN&#45;&gt;CAN_TX_PLANNER -->
<g id="edge1" class="edge">
<title>CAN&#45;&gt;CAN_TX_PLANNER</title>
<path fill="none" stroke="black" d="M474,-934.5C501.29,-934.5 539.25,-934.5 539.25,-934.5 539.25,-934.5 539.25,-828.27 539.25,-828.27"/>
<polygon fill="black" stroke="black" points="542.75,-828.27 539.25,-818.27 535.75,-828.27 542.75,-828.27"/>
</g>
<!-- CAN_RX_HIST -->
<g id="node5" class="node">
<title>CAN_RX_HIST</title>
<polygon fill="none" stroke="black" points="653,-925 546.25,-925 546.25,-889 653,-889 653,-925"/>
<text text-anchor="middle" x="599.62" y="-901.95" font-family="Times,serif" font-size="14.00">CAN_RX_HIST</text>
</g>
<!-- CAN&#45;&gt;CAN_RX_HIST -->
<g id="edge4" class="edge">
<title>CAN&#45;&gt;CAN_RX_HIST</title>
<path fill="none" stroke="black" d="M474.23,-938.75C507.82,-938.75 560.25,-938.75 560.25,-938.75 560.25,-938.75 560.25,-936.47 560.25,-936.47"/>
<polygon fill="black" stroke="black" points="563.75,-936.47 560.25,-926.47 556.75,-936.47 563.75,-936.47"/>
</g>
<!-- ISO_TP -->
<g id="node32" class="node">
<title>ISO_TP</title>
<polygon fill="none" stroke="black" points="629.75,-871 569.5,-871 569.5,-835 629.75,-835 629.75,-871"/>
<text text-anchor="middle" x="599.62" y="-847.95" font-family="Times,serif" font-size="14.00">ISO_TP</text>
</g>
<!-- CAN&#45;&gt;ISO_TP -->
<g id="edge54" class="edge">
<title>CAN&#45;&gt;ISO_TP</title>
<path fill="none" stroke="black" d="M474,-930.25C479.82,-930.25 484.25,-930.25 484.25,-930.25 484.25,-930.25 484.25,-858.33 484.25,-858.33 484.25,-858.33 558.01,-858.33 558.01,-858.33"/>
<polygon fill="black" stroke="black" points="558.01,-861.83 568.01,-858.33 558.01,-854.83 558.01,-861.83"/>
</g>
<!-- APPLICATION -->
<g id="node4" class="node">
<title>APPLICATION</title>
<polygon fill="none" stroke="black" points="807.75,-817 704.75,-817 704.75,-781 807.75,-781 807.75,-817"/>
<text text-anchor="middle" x="756.25" y="-793.95" font-family="Times,serif" font-size="14.00">APPLICATION</text>
</g>
<!-- CAN_TX_PLANNER&#45;&gt;APPLICATION -->
<g id="edge3" class="edge">
<title>CAN_TX_PLANNER&#45;&gt;APPLICATION</title>
<path fill="none" stroke="black" d="M669.24,-793C669.24,-793 693.71,-793 693.71,-793"/>
<polygon fill="black" stroke="black" points="693.71,-796.5 703.71,-793 693.71,-789.5 693.71,-796.5"/>
</g>
<!-- TIME -->
<g id="node3" class="node">
<title>TIME</title>
<polygon fill="none" stroke="black" points="473.75,-718 419.75,-718 419.75,-682 473.75,-682 473.75,-718"/>
<text text-anchor="middle" x="446.75" y="-694.95" font-family="Times,serif" font-size="14.00">TIME</text>
</g>
<!-- TIME&#45;&gt;CAN_TX_PLANNER -->
<g id="edge2" class="edge">
<title>TIME&#45;&gt;CAN_TX_PLANNER</title>
<path fill="none" stroke="black" d="M474.14,-709C502.67,-709 543.25,-709 543.25,-709 543.25,-709 543.25,-769.79 543.25,-769.79"/>
<polygon fill="black" stroke="black" points="539.75,-769.79 543.25,-779.79 546.75,-769.79 539.75,-769.79"/>
</g>
<!-- GPIO -->
<g id="node23" class="node">
<title>GPIO</title>
<polygon fill="none" stroke="black" points="348.62,-1008 294.62,-1008 294.62,-972 348.62,-972 348.62,-1008"/>
<text text-anchor="middle" x="321.62" y="-984.95" font-family="Times,serif" font-size="14.00">GPIO</text>
</g>
<!-- TIME&#45;&gt;GPIO -->
<g id="edge34" class="edge">
<title>TIME&#45;&gt;GPIO</title>
<path fill="none" stroke="black" d="M419.5,-702C405.88,-702 392.25,-702 392.25,-702 392.25,-702 392.25,-973.4 392.25,-973.4 392.25,-973.4 359.73,-973.4 359.73,-973.4"/>
<polygon fill="black" stroke="black" points="359.73,-969.9 349.73,-973.4 359.73,-976.9 359.73,-969.9"/>
</g>
<!-- UART -->
<g id="node27" class="node">
<title>UART</title>
<polygon fill="none" stroke="black" points="626.62,-611 572.62,-611 572.62,-575 626.62,-575 626.62,-611"/>
<text text-anchor="middle" x="599.62" y="-587.95" font-family="Times,serif" font-size="14.00">UART</text>
</g>
<!-- TIME&#45;&gt;UART -->
<g id="edge43" class="edge">
<title>TIME&#45;&gt;UART</title>
<path fill="none" stroke="black" d="M465.25,-681.86C465.25,-655.11 465.25,-608.2 465.25,-608.2 465.25,-608.2 561.43,-608.2 561.43,-608.2"/>
<polygon fill="black" stroke="black" points="561.43,-611.7 571.43,-608.2 561.43,-604.7 561.43,-611.7"/>
</g>
<!-- TIME&#45;&gt;ISO_TP -->
<g id="edge55" class="edge">
<title>TIME&#45;&gt;ISO_TP</title>
<path fill="none" stroke="black" d="M474.01,-711C495.63,-711 522.25,-711 522.25,-711 522.25,-711 522.25,-846.67 522.25,-846.67 522.25,-846.67 558.04,-846.67 558.04,-846.67"/>
<polygon fill="black" stroke="black" points="558.04,-850.17 568.04,-846.67 558.04,-843.17 558.04,-850.17"/>
</g>
<!-- LOG -->
<g id="node38" class="node">
<title>LOG</title>
<polygon fill="none" stroke="black" points="1078.5,-559 1024.5,-559 1024.5,-523 1078.5,-523 1078.5,-559"/>
<text text-anchor="middle" x="1051.5" y="-535.95" font-family="Times,serif" font-size="14.00">LOG</text>
</g>
<!-- TIME&#45;&gt;LOG -->
<g id="edge69" class="edge">
<title>TIME&#45;&gt;LOG</title>
<path fill="none" stroke="black" d="M447.25,-681.73C447.25,-641.94 447.25,-551 447.25,-551 447.25,-551 1013.36,-551 1013.36,-551"/>
<polygon fill="black" stroke="black" points="1013.36,-554.5 1023.36,-551 1013.36,-547.5 1013.36,-554.5"/>
</g>
<!-- LED -->
<g id="node42" class="node">
<title>LED</title>
<polygon fill="none" stroke="black" points="626.62,-979 572.62,-979 572.62,-943 626.62,-943 626.62,-979"/>
<text text-anchor="middle" x="599.62" y="-955.95" font-family="Times,serif" font-size="14.00">LED</text>
</g>
<!-- TIME&#45;&gt;LED -->
<g id="edge80" class="edge">
<title>TIME&#45;&gt;LED</title>
<path fill="none" stroke="black" d="M474.18,-713C492.5,-713 513.25,-713 513.25,-713 513.25,-713 513.25,-952.5 513.25,-952.5 513.25,-952.5 561.3,-952.5 561.3,-952.5"/>
<polygon fill="black" stroke="black" points="561.3,-956 571.3,-952.5 561.3,-949 561.3,-956"/>
</g>
<!-- LED_MONO -->
<g id="node43" class="node">
<title>LED_MONO</title>
<polygon fill="none" stroke="black" points="801.75,-925 710.75,-925 710.75,-889 801.75,-889 801.75,-925"/>
<text text-anchor="middle" x="756.25" y="-901.95" font-family="Times,serif" font-size="14.00">LED_MONO</text>
</g>
<!-- TIME&#45;&gt;LED_MONO -->
<g id="edge82" class="edge">
<title>TIME&#45;&gt;LED_MONO</title>
<path fill="none" stroke="black" d="M474.22,-707C535.54,-707 678.25,-707 678.25,-707 678.25,-707 678.25,-907 678.25,-907 678.25,-907 699.43,-907 699.43,-907"/>
<polygon fill="black" stroke="black" points="699.43,-910.5 709.43,-907 699.43,-903.5 699.43,-910.5"/>
</g>
<!-- SCHEDULER -->
<g id="node44" class="node">
<title>SCHEDULER</title>
<polygon fill="none" stroke="black" points="791.25,-462 721.25,-462 721.25,-426 791.25,-426 791.25,-462"/>
<text text-anchor="middle" x="756.25" y="-438.95" font-family="Times,serif" font-size="14.00">Scheduler</text>
</g>
<!-- TIME&#45;&gt;SCHEDULER -->
<g id="edge87" class="edge">
<title>TIME&#45;&gt;SCHEDULER</title>
<path fill="none" stroke="red" d="M473.92,-693.5C531.64,-693.5 661.25,-693.5 661.25,-693.5 661.25,-693.5 661.25,-456.33 661.25,-456.33 661.25,-456.33 709.88,-456.33 709.88,-456.33"/>
<polygon fill="red" stroke="red" points="709.88,-459.83 719.88,-456.33 709.88,-452.83 709.88,-459.83"/>
</g>
<!-- LIMITER -->
<g id="node46" class="node">
<title>LIMITER</title>
<polygon fill="none" stroke="black" points="635.38,-481 563.88,-481 563.88,-445 635.38,-445 635.38,-481"/>
<text text-anchor="middle" x="599.62" y="-457.95" font-family="Times,serif" font-size="14.00">LIMITER</text>
</g>
<!-- TIME&#45;&gt;LIMITER -->
<g id="edge94" class="edge">
<title>TIME&#45;&gt;LIMITER</title>
<path fill="none" stroke="black" d="M474.02,-687.75C509.84,-687.75 568.25,-687.75 568.25,-687.75 568.25,-687.75 568.25,-492.39 568.25,-492.39"/>
<polygon fill="black" stroke="black" points="571.75,-492.39 568.25,-482.39 564.75,-492.39 571.75,-492.39"/>
</g>
<!-- CAN_RX_HIST&#45;&gt;APPLICATION -->
<g id="edge5" class="edge">
<title>CAN_RX_HIST&#45;&gt;APPLICATION</title>
<path fill="none" stroke="black" d="M653.31,-916C675.55,-916 696.25,-916 696.25,-916 696.25,-916 696.25,-805 696.25,-805 696.25,-805 697.08,-805 697.08,-805"/>
<polygon fill="black" stroke="black" points="693.59,-808.5 703.59,-805 693.59,-801.5 693.59,-808.5"/>
</g>
<!-- DEBUGGER -->
<g id="node6" class="node">
<title>DEBUGGER</title>
<polygon fill="none" stroke="black" points="644.38,-313 554.88,-313 554.88,-277 644.38,-277 644.38,-313"/>
<text text-anchor="middle" x="599.62" y="-289.95" font-family="Times,serif" font-size="14.00">DEBUGGER</text>
</g>
<!-- CORE -->
<g id="node7" class="node">
<title>CORE</title>
<polygon fill="none" stroke="black" points="783.25,-290 729.25,-290 729.25,-254 783.25,-254 783.25,-290"/>
<text text-anchor="middle" x="756.25" y="-266.95" font-family="Times,serif" font-size="14.00">CORE</text>
</g>
<!-- DEBUGGER&#45;&gt;CORE -->
<g id="edge6" class="edge">
<title>DEBUGGER&#45;&gt;CORE</title>
<path fill="none" stroke="black" d="M644.51,-281.33C644.51,-281.33 718.05,-281.33 718.05,-281.33"/>
<polygon fill="black" stroke="black" points="718.05,-284.83 728.05,-281.33 718.05,-277.83 718.05,-284.83"/>
</g>
<!-- FLASH -->
<g id="node20" class="node">
<title>FLASH</title>
<polygon fill="none" stroke="black" points="476.12,-427 417.38,-427 417.38,-391 476.12,-391 476.12,-427"/>
<text text-anchor="middle" x="446.75" y="-403.95" font-family="Times,serif" font-size="14.00">FLASH</text>
</g>
<!-- DEBUGGER&#45;&gt;FLASH -->
<g id="edge29" class="edge">
<title>DEBUGGER&#45;&gt;FLASH</title>
<path fill="none" stroke="black" d="M562.25,-313.46C562.25,-345.58 562.25,-408.33 562.25,-408.33 562.25,-408.33 487.49,-408.33 487.49,-408.33"/>
<polygon fill="black" stroke="black" points="487.49,-404.83 477.49,-408.33 487.49,-411.83 487.49,-404.83"/>
</g>
<!-- BOOT -->
<g id="node41" class="node">
<title>BOOT</title>
<polygon fill="none" stroke="black" points="925.25,-290 871.25,-290 871.25,-254 925.25,-254 925.25,-290"/>
<text text-anchor="middle" x="898.25" y="-266.95" font-family="Times,serif" font-size="14.00">BOOT</text>
</g>
<!-- CORE&#45;&gt;BOOT -->
<g id="edge77" class="edge">
<title>CORE&#45;&gt;BOOT</title>
<path fill="none" stroke="black" d="M783.63,-272C783.63,-272 859.96,-272 859.96,-272"/>
<polygon fill="black" stroke="black" points="859.96,-275.5 869.96,-272 859.95,-268.5 859.96,-275.5"/>
</g>
<!-- CLOCK -->
<g id="node8" class="node">
<title>CLOCK</title>
<polygon fill="none" stroke="black" points="200,-658 138.25,-658 138.25,-622 200,-622 200,-658"/>
<text text-anchor="middle" x="169.12" y="-634.95" font-family="Times,serif" font-size="14.00">CLOCK</text>
</g>
<!-- CLOCK&#45;&gt;CORE -->
<g id="edge7" class="edge">
<title>CLOCK&#45;&gt;CORE</title>
<path fill="none" stroke="black" d="M169.25,-621.57C169.25,-618.34 169.25,-616 169.25,-616 169.25,-616 653.25,-616 653.25,-616 653.25,-616 653.25,-285.67 653.25,-285.67 653.25,-285.67 717.92,-285.67 717.92,-285.67"/>
<polygon fill="black" stroke="black" points="717.92,-289.17 727.92,-285.67 717.92,-282.17 717.92,-289.17"/>
</g>
<!-- SYSTICK -->
<g id="node15" class="node">
<title>SYSTICK</title>
<polygon fill="none" stroke="black" points="357.75,-712 285.5,-712 285.5,-676 357.75,-676 357.75,-712"/>
<text text-anchor="middle" x="321.62" y="-688.95" font-family="Times,serif" font-size="14.00">SYSTICK</text>
</g>
<!-- CLOCK&#45;&gt;SYSTICK -->
<g id="edge15" class="edge">
<title>CLOCK&#45;&gt;SYSTICK</title>
<path fill="none" stroke="black" d="M200.24,-646C214.92,-646 229.25,-646 229.25,-646 229.25,-646 229.25,-683.2 229.25,-683.2 229.25,-683.2 274.12,-683.2 274.12,-683.2"/>
<polygon fill="black" stroke="black" points="274.12,-686.7 284.12,-683.2 274.12,-679.7 274.12,-686.7"/>
</g>
<!-- TIMER -->
<g id="node25" class="node">
<title>TIMER</title>
<polygon fill="none" stroke="black" points="351,-566 292.25,-566 292.25,-530 351,-530 351,-566"/>
<text text-anchor="middle" x="321.62" y="-542.95" font-family="Times,serif" font-size="14.00">TIMER</text>
</g>
<!-- CLOCK&#45;&gt;TIMER -->
<g id="edge36" class="edge">
<title>CLOCK&#45;&gt;TIMER</title>
<path fill="none" stroke="black" d="M200.23,-634C203.27,-634 205.25,-634 205.25,-634 205.25,-634 205.25,-554 205.25,-554 205.25,-554 280.96,-554 280.96,-554"/>
<polygon fill="black" stroke="black" points="280.96,-557.5 290.96,-554 280.96,-550.5 280.96,-557.5"/>
</g>
<!-- REG -->
<g id="node9" class="node">
<title>REG</title>
<polygon fill="none" stroke="black" points="196.12,-934 142.12,-934 142.12,-898 196.12,-898 196.12,-934"/>
<text text-anchor="middle" x="169.12" y="-910.95" font-family="Times,serif" font-size="14.00">REG</text>
</g>
<!-- REG&#45;&gt;CAN -->
<g id="edge52" class="edge">
<title>REG&#45;&gt;CAN</title>
<path fill="none" stroke="black" d="M160.25,-934.24C160.25,-941.43 160.25,-948 160.25,-948 160.25,-948 408.28,-948 408.28,-948"/>
<polygon fill="black" stroke="black" points="408.28,-951.5 418.28,-948 408.28,-944.5 408.28,-951.5"/>
</g>
<!-- REG&#45;&gt;CLOCK -->
<g id="edge35" class="edge">
<title>REG&#45;&gt;CLOCK</title>
<path fill="none" stroke="black" d="M141.76,-916C114.37,-916 76.25,-916 76.25,-916 76.25,-916 76.25,-640 76.25,-640 76.25,-640 126.94,-640 126.94,-640"/>
<polygon fill="black" stroke="black" points="126.94,-643.5 136.94,-640 126.94,-636.5 126.94,-643.5"/>
</g>
<!-- NVIC -->
<g id="node10" class="node">
<title>NVIC</title>
<polygon fill="none" stroke="black" points="348.62,-934 294.62,-934 294.62,-898 348.62,-898 348.62,-934"/>
<text text-anchor="middle" x="321.62" y="-910.95" font-family="Times,serif" font-size="14.00">NVIC</text>
</g>
<!-- REG&#45;&gt;NVIC -->
<g id="edge8" class="edge">
<title>REG&#45;&gt;NVIC</title>
<path fill="none" stroke="black" d="M196.39,-926.8C196.39,-926.8 283.34,-926.8 283.34,-926.8"/>
<polygon fill="black" stroke="black" points="283.34,-930.3 293.34,-926.8 283.34,-923.3 283.34,-930.3"/>
</g>
<!-- REG&#45;&gt;SYSTICK -->
<g id="edge13" class="edge">
<title>REG&#45;&gt;SYSTICK</title>
<path fill="none" stroke="black" d="M196.61,-923.2C232.35,-923.2 290.25,-923.2 290.25,-923.2 290.25,-923.2 290.25,-723.37 290.25,-723.37"/>
<polygon fill="black" stroke="black" points="293.75,-723.37 290.25,-713.37 286.75,-723.37 293.75,-723.37"/>
</g>
<!-- CORTEX_M4 -->
<g id="node16" class="node">
<title>CORTEX_M4</title>
<polygon fill="none" stroke="black" points="494.5,-778 399,-778 399,-742 494.5,-742 494.5,-778"/>
<text text-anchor="middle" x="446.75" y="-754.95" font-family="Times,serif" font-size="14.00">CORTEX_M4</text>
</g>
<!-- REG&#45;&gt;CORTEX_M4 -->
<g id="edge23" class="edge">
<title>REG&#45;&gt;CORTEX_M4</title>
<path fill="none" stroke="black" d="M169.25,-897.84C169.25,-895.28 169.25,-893.5 169.25,-893.5 169.25,-893.5 404.25,-893.5 404.25,-893.5 404.25,-893.5 404.25,-789.28 404.25,-789.28"/>
<polygon fill="black" stroke="black" points="407.75,-789.28 404.25,-779.28 400.75,-789.28 407.75,-789.28"/>
</g>
<!-- FPU -->
<g id="node17" class="node">
<title>FPU</title>
<polygon fill="none" stroke="black" points="348.62,-804 294.62,-804 294.62,-768 348.62,-768 348.62,-804"/>
<text text-anchor="middle" x="321.62" y="-780.95" font-family="Times,serif" font-size="14.00">FPU</text>
</g>
<!-- REG&#45;&gt;FPU -->
<g id="edge20" class="edge">
<title>REG&#45;&gt;FPU</title>
<path fill="none" stroke="black" d="M196.45,-919.6C227.9,-919.6 275.25,-919.6 275.25,-919.6 275.25,-919.6 275.25,-798.33 275.25,-798.33 275.25,-798.33 283.38,-798.33 283.38,-798.33"/>
<polygon fill="black" stroke="black" points="283.38,-801.83 293.38,-798.33 283.38,-794.83 283.38,-801.83"/>
</g>
<!-- REG&#45;&gt;FLASH -->
<g id="edge27" class="edge">
<title>REG&#45;&gt;FLASH</title>
<path fill="none" stroke="black" d="M196.59,-901.6C220.13,-901.6 250.25,-901.6 250.25,-901.6 250.25,-901.6 250.25,-419.67 250.25,-419.67 250.25,-419.67 405.91,-419.67 405.91,-419.67"/>
<polygon fill="black" stroke="black" points="405.91,-423.17 415.91,-419.67 405.91,-416.17 405.91,-423.17"/>
</g>
<!-- REG&#45;&gt;GPIO -->
<g id="edge32" class="edge">
<title>REG&#45;&gt;GPIO</title>
<path fill="none" stroke="black" d="M178.25,-934.29C178.25,-956.21 178.25,-990 178.25,-990 178.25,-990 283.32,-990 283.32,-990"/>
<polygon fill="black" stroke="black" points="283.32,-993.5 293.32,-990 283.32,-986.5 283.32,-993.5"/>
</g>
<!-- REG&#45;&gt;TIMER -->
<g id="edge38" class="edge">
<title>REG&#45;&gt;TIMER</title>
<path fill="none" stroke="black" d="M196.38,-905.2C221.61,-905.2 255.25,-905.2 255.25,-905.2 255.25,-905.2 255.25,-562 255.25,-562 255.25,-562 280.93,-562 280.93,-562"/>
<polygon fill="black" stroke="black" points="280.93,-565.5 290.93,-562 280.93,-558.5 280.93,-565.5"/>
</g>
<!-- REG&#45;&gt;UART -->
<g id="edge47" class="edge">
<title>REG&#45;&gt;UART</title>
<path fill="none" stroke="darkorange" d="M196.47,-908.8C223.31,-908.8 260.25,-908.8 260.25,-908.8 260.25,-908.8 260.25,-606.8 260.25,-606.8 260.25,-606.8 561.14,-606.8 561.14,-606.8"/>
<polygon fill="darkorange" stroke="darkorange" points="561.14,-610.3 571.14,-606.8 561.14,-603.3 561.14,-610.3"/>
</g>
<!-- NVIC&#45;&gt;CAN -->
<g id="edge53" class="edge">
<title>NVIC&#45;&gt;CAN</title>
<path fill="none" stroke="black" d="M349.08,-930C349.08,-930 408.35,-930 408.35,-930"/>
<polygon fill="black" stroke="black" points="408.35,-933.5 418.35,-930 408.35,-926.5 408.35,-933.5"/>
</g>
<!-- ARM -->
<g id="node11" class="node">
<title>ARM</title>
<polygon fill="none" stroke="black" points="473.75,-870 419.75,-870 419.75,-834 473.75,-834 473.75,-870"/>
<text text-anchor="middle" x="446.75" y="-846.95" font-family="Times,serif" font-size="14.00">ARM</text>
</g>
<!-- NVIC&#45;&gt;ARM -->
<g id="edge9" class="edge">
<title>NVIC&#45;&gt;ARM</title>
<path fill="none" stroke="black" d="M348.88,-921.14C385.83,-921.14 447.25,-921.14 447.25,-921.14 447.25,-921.14 447.25,-881.17 447.25,-881.17"/>
<polygon fill="black" stroke="black" points="450.75,-881.17 447.25,-871.17 443.75,-881.17 450.75,-881.17"/>
</g>
<!-- INTERRUPT -->
<g id="node13" class="node">
<title>INTERRUPT</title>
<polygon fill="none" stroke="black" points="214.25,-712 124,-712 124,-676 214.25,-676 214.25,-712"/>
<text text-anchor="middle" x="169.12" y="-688.95" font-family="Times,serif" font-size="14.00">INTERRUPT</text>
</g>
<!-- NVIC&#45;&gt;INTERRUPT -->
<g id="edge41" class="edge">
<title>NVIC&#45;&gt;INTERRUPT</title>
<path fill="none" stroke="black" d="M294.13,-912.4C281.92,-912.4 270.25,-912.4 270.25,-912.4 270.25,-912.4 270.25,-697.6 270.25,-697.6 270.25,-697.6 225.66,-697.6 225.66,-697.6"/>
<polygon fill="black" stroke="black" points="225.66,-694.1 215.66,-697.6 225.66,-701.1 225.66,-694.1"/>
</g>
<!-- NVIC&#45;&gt;SYSTICK -->
<g id="edge14" class="edge">
<title>NVIC&#45;&gt;SYSTICK</title>
<path fill="none" stroke="black" d="M348.97,-901.86C350.99,-901.86 352.25,-901.86 352.25,-901.86 352.25,-901.86 352.25,-723.45 352.25,-723.45"/>
<polygon fill="black" stroke="black" points="355.75,-723.45 352.25,-713.45 348.75,-723.45 355.75,-723.45"/>
</g>
<!-- NVIC&#45;&gt;CORTEX_M4 -->
<g id="edge24" class="edge">
<title>NVIC&#45;&gt;CORTEX_M4</title>
<path fill="none" stroke="black" d="M348.96,-917.29C376.59,-917.29 415.25,-917.29 415.25,-917.29 415.25,-917.29 415.25,-789.35 415.25,-789.35"/>
<polygon fill="black" stroke="black" points="418.75,-789.35 415.25,-779.35 411.75,-789.35 418.75,-789.35"/>
</g>
<!-- NVIC&#45;&gt;FLASH -->
<g id="edge31" class="edge">
<title>NVIC&#45;&gt;FLASH</title>
<path fill="none" stroke="black" d="M348.98,-909.57C366.22,-909.57 385.25,-909.57 385.25,-909.57 385.25,-909.57 385.25,-423.33 385.25,-423.33 385.25,-423.33 406.08,-423.33 406.08,-423.33"/>
<polygon fill="black" stroke="black" points="406.08,-426.83 416.08,-423.33 406.08,-419.83 406.08,-426.83"/>
</g>
<!-- NVIC&#45;&gt;TIMER -->
<g id="edge37" class="edge">
<title>NVIC&#45;&gt;TIMER</title>
<path fill="none" stroke="black" d="M349.06,-905.71C360.09,-905.71 370.25,-905.71 370.25,-905.71 370.25,-905.71 370.25,-563.67 370.25,-563.67 370.25,-563.67 362.31,-563.67 362.31,-563.67"/>
<polygon fill="black" stroke="black" points="362.31,-560.17 352.31,-563.67 362.31,-567.17 362.31,-560.17"/>
</g>
<!-- MICROCONTROLLER -->
<g id="node12" class="node">
<title>MICROCONTROLLER</title>
<polygon fill="none" stroke="black" points="244.25,-823 94,-823 94,-787 244.25,-787 244.25,-823"/>
<text text-anchor="middle" x="169.12" y="-799.95" font-family="Times,serif" font-size="14.00">MICROCONTROLLER</text>
</g>
<!-- MICROCONTROLLER&#45;&gt;NVIC -->
<g id="edge10" class="edge">
<title>MICROCONTROLLER&#45;&gt;NVIC</title>
<path fill="none" stroke="black" d="M244.34,-810.5C283.07,-810.5 322.25,-810.5 322.25,-810.5 322.25,-810.5 322.25,-886.62 322.25,-886.62"/>
<polygon fill="black" stroke="black" points="318.75,-886.62 322.25,-896.62 325.75,-886.62 318.75,-886.62"/>
</g>
<!-- MICROCONTROLLER&#45;&gt;SYSTICK -->
<g id="edge17" class="edge">
<title>MICROCONTROLLER&#45;&gt;SYSTICK</title>
<path fill="none" stroke="black" d="M244.57,-792.67C268.21,-792.67 288.25,-792.67 288.25,-792.67 288.25,-792.67 288.25,-723.1 288.25,-723.1"/>
<polygon fill="black" stroke="black" points="291.75,-723.1 288.25,-713.1 284.75,-723.1 291.75,-723.1"/>
</g>
<!-- INTERRUPT&#45;&gt;NVIC -->
<g id="edge11" class="edge">
<title>INTERRUPT&#45;&gt;NVIC</title>
<path fill="none" stroke="black" d="M214.65,-704.8C239.5,-704.8 265.25,-704.8 265.25,-704.8 265.25,-704.8 265.25,-916 265.25,-916 265.25,-916 283.43,-916 283.43,-916"/>
<polygon fill="black" stroke="black" points="283.43,-919.5 293.43,-916 283.43,-912.5 283.43,-919.5"/>
</g>
<!-- INTERRUPT&#45;&gt;SYSTICK -->
<g id="edge16" class="edge">
<title>INTERRUPT&#45;&gt;SYSTICK</title>
<path fill="none" stroke="black" d="M214.47,-690.4C214.47,-690.4 274.4,-690.4 274.4,-690.4"/>
<polygon fill="black" stroke="black" points="274.4,-693.9 284.4,-690.4 274.4,-686.9 274.4,-693.9"/>
</g>
<!-- INTERRUPT&#45;&gt;TIMER -->
<g id="edge42" class="edge">
<title>INTERRUPT&#45;&gt;TIMER</title>
<path fill="none" stroke="blue" d="M208.25,-675.66C208.25,-638.54 208.25,-558 208.25,-558 208.25,-558 280.84,-558 280.84,-558"/>
<polygon fill="blue" stroke="blue" points="280.84,-561.5 290.84,-558 280.84,-554.5 280.84,-561.5"/>
</g>
<!-- INTERRUPT&#45;&gt;UART -->
<g id="edge48" class="edge">
<title>INTERRUPT&#45;&gt;UART</title>
<path fill="none" stroke="blue" d="M211.25,-675.64C211.25,-649.69 211.25,-605.4 211.25,-605.4 211.25,-605.4 561.32,-605.4 561.32,-605.4"/>
<polygon fill="blue" stroke="blue" points="561.32,-608.9 571.32,-605.4 561.32,-601.9 561.32,-608.9"/>
</g>
<!-- CMSIS -->
<g id="node14" class="node">
<title>CMSIS</title>
<polygon fill="none" stroke="black" points="197.75,-1085 140.5,-1085 140.5,-1049 197.75,-1049 197.75,-1085"/>
<text text-anchor="middle" x="169.12" y="-1061.95" font-family="Times,serif" font-size="14.00">CMSIS</text>
</g>
<!-- CMSIS&#45;&gt;NVIC -->
<g id="edge12" class="edge">
<title>CMSIS&#45;&gt;NVIC</title>
<path fill="none" stroke="black" d="M198.23,-1067C234.91,-1067 293.25,-1067 293.25,-1067 293.25,-1067 293.25,-930.4 293.25,-930.4 293.25,-930.4 293.37,-930.4 293.37,-930.4"/>
<polygon fill="black" stroke="black" points="283.47,-933.9 293.47,-930.4 283.47,-926.9 283.47,-933.9"/>
</g>
<!-- SYSTICK&#45;&gt;TIME -->
<g id="edge18" class="edge">
<title>SYSTICK&#45;&gt;TIME</title>
<path fill="none" stroke="black" d="M358.15,-692C358.15,-692 408.53,-692 408.53,-692"/>
<polygon fill="black" stroke="black" points="408.53,-695.5 418.53,-692 408.53,-688.5 408.53,-695.5"/>
</g>
<!-- SYSTICK&#45;&gt;CORTEX_M4 -->
<g id="edge25" class="edge">
<title>SYSTICK&#45;&gt;CORTEX_M4</title>
<path fill="none" stroke="black" d="M355.25,-712.3C355.25,-730.27 355.25,-755 355.25,-755 355.25,-755 387.59,-755 387.59,-755"/>
<polygon fill="black" stroke="black" points="387.59,-758.5 397.59,-755 387.59,-751.5 387.59,-758.5"/>
</g>
<!-- CORTEX_M4&#45;&gt;NVIC -->
<g id="edge19" class="edge">
<title>CORTEX_M4&#45;&gt;NVIC</title>
<path fill="none" stroke="black" d="M410.25,-778.2C410.25,-818.84 410.25,-913.43 410.25,-913.43 410.25,-913.43 359.7,-913.43 359.7,-913.43"/>
<polygon fill="black" stroke="black" points="359.7,-909.93 349.7,-913.43 359.7,-916.93 359.7,-909.93"/>
</g>
<!-- FPU&#45;&gt;CORTEX_M4 -->
<g id="edge21" class="edge">
<title>FPU&#45;&gt;CORTEX_M4</title>
<path fill="none" stroke="black" d="M349.08,-773C349.08,-773 387.68,-773 387.68,-773"/>
<polygon fill="black" stroke="black" points="387.68,-776.5 397.68,-773 387.68,-769.5 387.68,-776.5"/>
</g>
<!-- THUMB -->
<g id="node18" class="node">
<title>THUMB</title>
<polygon fill="none" stroke="black" points="354.38,-236 288.88,-236 288.88,-200 354.38,-200 354.38,-236"/>
<text text-anchor="middle" x="321.62" y="-212.95" font-family="Times,serif" font-size="14.00">THUMB</text>
</g>
<!-- THUMB&#45;&gt;CORTEX_M4 -->
<g id="edge22" class="edge">
<title>THUMB&#45;&gt;CORTEX_M4</title>
<path fill="none" stroke="black" d="M354.87,-218C379.3,-218 408.25,-218 408.25,-218 408.25,-218 408.25,-730.66 408.25,-730.66"/>
<polygon fill="black" stroke="black" points="404.75,-730.66 408.25,-740.66 411.75,-730.66 404.75,-730.66"/>
</g>
<!-- ARRAY -->
<g id="node19" class="node">
<title>ARRAY</title>
<polygon fill="none" stroke="black" points="352.88,-474 290.38,-474 290.38,-438 352.88,-438 352.88,-474"/>
<text text-anchor="middle" x="321.62" y="-450.95" font-family="Times,serif" font-size="14.00">ARRAY</text>
</g>
<!-- ARRAY&#45;&gt;FLASH -->
<g id="edge26" class="edge">
<title>ARRAY&#45;&gt;FLASH</title>
<path fill="none" stroke="black" d="M353.33,-441.5C390.54,-441.5 447.25,-441.5 447.25,-441.5 447.25,-441.5 447.25,-438.15 447.25,-438.15"/>
<polygon fill="black" stroke="black" points="450.75,-438.15 447.25,-428.15 443.75,-438.15 450.75,-438.15"/>
</g>
<!-- FLASH&#45;&gt;DEBUGGER -->
<g id="edge78" class="edge">
<title>FLASH&#45;&gt;DEBUGGER</title>
<path fill="none" stroke="black" d="M476.53,-399.67C510.46,-399.67 561.25,-399.67 561.25,-399.67 561.25,-399.67 561.25,-324.23 561.25,-324.23"/>
<polygon fill="black" stroke="black" points="564.75,-324.23 561.25,-314.23 557.75,-324.23 564.75,-324.23"/>
</g>
<!-- FLASH&#45;&gt;SCHEDULER -->
<g id="edge88" class="edge">
<title>FLASH&#45;&gt;SCHEDULER</title>
<path fill="none" stroke="blue" d="M476.55,-420C548.4,-420 725.25,-420 725.25,-420 725.25,-420 725.25,-420.56 725.25,-420.56"/>
<polygon fill="blue" stroke="blue" points="721.75,-414.57 725.25,-424.57 728.75,-414.57 721.75,-414.57"/>
</g>
<!-- FLASH&#45;&gt;LIMITER -->
<g id="edge95" class="edge">
<title>FLASH&#45;&gt;LIMITER</title>
<path fill="none" stroke="black" d="M476.35,-423C520.95,-423 600.25,-423 600.25,-423 600.25,-423 600.25,-433.87 600.25,-433.87"/>
<polygon fill="black" stroke="black" points="596.75,-433.87 600.25,-443.87 603.75,-433.87 596.75,-433.87"/>
</g>
<!-- INTERVAL -->
<g id="node21" class="node">
<title>INTERVAL</title>
<polygon fill="none" stroke="black" points="362.25,-128 281,-128 281,-92 362.25,-92 362.25,-128"/>
<text text-anchor="middle" x="321.62" y="-104.95" font-family="Times,serif" font-size="14.00">INTERVAL</text>
</g>
<!-- INTERVAL&#45;&gt;FLASH -->
<g id="edge28" class="edge">
<title>INTERVAL&#45;&gt;FLASH</title>
<path fill="none" stroke="black" d="M362.41,-110C399.09,-110 447.25,-110 447.25,-110 447.25,-110 447.25,-379.75 447.25,-379.75"/>
<polygon fill="black" stroke="black" points="443.75,-379.75 447.25,-389.75 450.75,-379.75 443.75,-379.75"/>
</g>
<!-- FLOAT -->
<g id="node22" class="node">
<title>FLOAT</title>
<polygon fill="none" stroke="black" points="58,-416 0,-416 0,-380 58,-380 58,-416"/>
<text text-anchor="middle" x="29" y="-392.95" font-family="Times,serif" font-size="14.00">FLOAT</text>
</g>
<!-- FLOAT&#45;&gt;FLASH -->
<g id="edge30" class="edge">
<title>FLOAT&#45;&gt;FLASH</title>
<path fill="none" stroke="black" d="M58.38,-399.33C58.38,-399.33 406.13,-399.33 406.13,-399.33"/>
<polygon fill="black" stroke="black" points="406.13,-402.83 416.13,-399.33 406.13,-395.83 406.13,-402.83"/>
</g>
<!-- MATH -->
<g id="node26" class="node">
<title>MATH</title>
<polygon fill="none" stroke="black" points="196.62,-496 141.62,-496 141.62,-460 196.62,-460 196.62,-496"/>
<text text-anchor="middle" x="169.12" y="-472.95" font-family="Times,serif" font-size="14.00">MATH</text>
</g>
<!-- FLOAT&#45;&gt;MATH -->
<g id="edge98" class="edge">
<title>FLOAT&#45;&gt;MATH</title>
<path fill="none" stroke="black" d="M58.38,-407.67C103.13,-407.67 183.25,-407.67 183.25,-407.67 183.25,-407.67 183.25,-448.52 183.25,-448.52"/>
<polygon fill="black" stroke="black" points="179.75,-448.52 183.25,-458.52 186.75,-448.52 179.75,-448.52"/>
</g>
<!-- GPIO&#45;&gt;CAN -->
<g id="edge51" class="edge">
<title>GPIO&#45;&gt;CAN</title>
<path fill="none" stroke="black" d="M348.88,-974.8C385.83,-974.8 447.25,-974.8 447.25,-974.8 447.25,-974.8 447.25,-973.27 447.25,-973.27"/>
<polygon fill="black" stroke="black" points="450.75,-973.27 447.25,-963.27 443.75,-973.27 450.75,-973.27"/>
</g>
<!-- GPIO&#45;&gt;UART -->
<g id="edge46" class="edge">
<title>GPIO&#45;&gt;UART</title>
<path fill="none" stroke="fuchsia" d="M348.97,-976.2C399.91,-976.2 504.25,-976.2 504.25,-976.2 504.25,-976.2 504.25,-609.6 504.25,-609.6 504.25,-609.6 561.29,-609.6 561.29,-609.6"/>
<polygon fill="fuchsia" stroke="fuchsia" points="561.29,-613.1 571.29,-609.6 561.29,-606.1 561.29,-613.1"/>
</g>
<!-- GPIO&#45;&gt;LED -->
<g id="edge79" class="edge">
<title>GPIO&#45;&gt;LED</title>
<path fill="none" stroke="black" d="M349.04,-977.6C349.04,-977.6 561.41,-977.6 561.41,-977.6"/>
<polygon fill="black" stroke="black" points="561.41,-981.1 571.41,-977.6 561.41,-974.1 561.41,-981.1"/>
</g>
<!-- GPIO&#45;&gt;LED_MONO -->
<g id="edge81" class="edge">
<title>GPIO&#45;&gt;LED_MONO</title>
<path fill="none" stroke="black" d="M348.8,-993.5C446.22,-993.5 772.25,-993.5 772.25,-993.5 772.25,-993.5 772.25,-936.34 772.25,-936.34"/>
<polygon fill="black" stroke="black" points="775.75,-936.34 772.25,-926.34 768.75,-936.34 775.75,-936.34"/>
</g>
<!-- MCU -->
<g id="node24" class="node">
<title>MCU</title>
<polygon fill="none" stroke="black" points="196.12,-1139 142.12,-1139 142.12,-1103 196.12,-1103 196.12,-1139"/>
<text text-anchor="middle" x="169.12" y="-1115.95" font-family="Times,serif" font-size="14.00">MCU</text>
</g>
<!-- MCU&#45;&gt;GPIO -->
<g id="edge33" class="edge">
<title>MCU&#45;&gt;GPIO</title>
<path fill="none" stroke="black" d="M196.5,-1121C240.54,-1121 322.25,-1121 322.25,-1121 322.25,-1121 322.25,-1019.49 322.25,-1019.49"/>
<polygon fill="black" stroke="black" points="325.75,-1019.49 322.25,-1009.49 318.75,-1019.49 325.75,-1019.49"/>
</g>
<!-- TIMER&#45;&gt;TIME -->
<g id="edge40" class="edge">
<title>TIMER&#45;&gt;TIME</title>
<path fill="none" stroke="black" d="M351.36,-561.33C385.91,-561.33 438.25,-561.33 438.25,-561.33 438.25,-561.33 438.25,-670.59 438.25,-670.59"/>
<polygon fill="black" stroke="black" points="434.75,-670.59 438.25,-680.59 441.75,-670.59 434.75,-670.59"/>
</g>
<!-- MATH&#45;&gt;TIMER -->
<g id="edge39" class="edge">
<title>MATH&#45;&gt;TIMER</title>
<path fill="none" stroke="black" d="M196.85,-491C240.98,-491 322.25,-491 322.25,-491 322.25,-491 322.25,-518.65 322.25,-518.65"/>
<polygon fill="black" stroke="black" points="318.75,-518.65 322.25,-528.65 325.75,-518.65 318.75,-518.65"/>
</g>
<!-- MATH&#45;&gt;LED_MONO -->
<g id="edge83" class="edge">
<title>MATH&#45;&gt;LED_MONO</title>
<path fill="none" stroke="black" d="M196.98,-486C304.6,-486 687.25,-486 687.25,-486 687.25,-486 687.25,-898 687.25,-898 687.25,-898 699.61,-898 699.61,-898"/>
<polygon fill="black" stroke="black" points="699.61,-901.5 709.61,-898 699.61,-894.5 699.61,-901.5"/>
</g>
<!-- STRING_READER -->
<g id="node34" class="node">
<title>STRING_READER</title>
<polygon fill="none" stroke="black" points="1114.25,-705 988.75,-705 988.75,-669 1114.25,-669 1114.25,-705"/>
<text text-anchor="middle" x="1051.5" y="-681.95" font-family="Times,serif" font-size="14.00">STRING_READER</text>
</g>
<!-- UART&#45;&gt;STRING_READER -->
<g id="edge59" class="edge">
<title>UART&#45;&gt;STRING_READER</title>
<path fill="none" stroke="chartreuse" d="M600.25,-611.17C600.25,-634.31 600.25,-671.33 600.25,-671.33 600.25,-671.33 977.28,-671.33 977.28,-671.33"/>
<polygon fill="chartreuse" stroke="chartreuse" points="977.28,-674.83 987.28,-671.33 977.28,-667.83 977.28,-674.83"/>
</g>
<!-- STREAM -->
<g id="node35" class="node">
<title>STREAM</title>
<polygon fill="none" stroke="black" points="934,-621 862.5,-621 862.5,-585 934,-585 934,-621"/>
<text text-anchor="middle" x="898.25" y="-597.95" font-family="Times,serif" font-size="14.00">STREAM</text>
</g>
<!-- UART&#45;&gt;STREAM -->
<g id="edge58" class="edge">
<title>UART&#45;&gt;STREAM</title>
<path fill="none" stroke="chartreuse" d="M626.92,-598C626.92,-598 851.45,-598 851.45,-598"/>
<polygon fill="chartreuse" stroke="chartreuse" points="851.45,-601.5 861.45,-598 851.45,-594.5 851.45,-601.5"/>
</g>
<!-- WRITER -->
<g id="node36" class="node">
<title>WRITER</title>
<polygon fill="none" stroke="black" points="790.5,-533 722,-533 722,-497 790.5,-497 790.5,-533"/>
<text text-anchor="middle" x="756.25" y="-509.95" font-family="Times,serif" font-size="14.00">WRITER</text>
</g>
<!-- UART&#45;&gt;WRITER -->
<g id="edge76" class="edge">
<title>UART&#45;&gt;WRITER</title>
<path fill="none" stroke="black" d="M626.91,-578.33C671.78,-578.33 756.25,-578.33 756.25,-578.33 756.25,-578.33 756.25,-544.32 756.25,-544.32"/>
<polygon fill="black" stroke="black" points="759.75,-544.32 756.25,-534.32 752.75,-544.32 759.75,-544.32"/>
</g>
<!-- UART&#45;&gt;LOG -->
<g id="edge72" class="edge">
<title>UART&#45;&gt;LOG</title>
<path fill="none" stroke="black" d="M627.06,-581.67C723.09,-581.67 1038.25,-581.67 1038.25,-581.67 1038.25,-581.67 1038.25,-570.43 1038.25,-570.43"/>
<polygon fill="black" stroke="black" points="1041.75,-570.43 1038.25,-560.43 1034.75,-570.43 1041.75,-570.43"/>
</g>
<!-- FIFO -->
<g id="node28" class="node">
<title>FIFO</title>
<polygon fill="none" stroke="black" points="473.75,-481 419.75,-481 419.75,-445 473.75,-445 473.75,-481"/>
<text text-anchor="middle" x="446.75" y="-457.95" font-family="Times,serif" font-size="14.00">FIFO</text>
</g>
<!-- FIFO&#45;&gt;UART -->
<g id="edge44" class="edge">
<title>FIFO&#45;&gt;UART</title>
<path fill="none" stroke="black" d="M473.91,-466.6C482.24,-466.6 489.25,-466.6 489.25,-466.6 489.25,-466.6 489.25,-584.67 489.25,-584.67 489.25,-584.67 561.34,-584.67 561.34,-584.67"/>
<polygon fill="black" stroke="black" points="561.34,-588.17 571.34,-584.67 561.34,-581.17 561.34,-588.17"/>
</g>
<!-- FIFO&#45;&gt;STRING_READER -->
<g id="edge60" class="edge">
<title>FIFO&#45;&gt;STRING_READER</title>
<path fill="none" stroke="aqua" d="M474.02,-473.8C478.78,-473.8 482.25,-473.8 482.25,-473.8 482.25,-473.8 482.25,-673.67 482.25,-673.67 482.25,-673.67 977.41,-673.67 977.41,-673.67"/>
<polygon fill="aqua" stroke="aqua" points="977.41,-677.17 987.41,-673.67 977.41,-670.17 977.41,-677.17"/>
</g>
<!-- FIFO&#45;&gt;WRITER -->
<g id="edge75" class="edge">
<title>FIFO&#45;&gt;WRITER</title>
<path fill="none" stroke="black" d="M473.98,-452.2C507.28,-452.2 559.25,-452.2 559.25,-452.2 559.25,-452.2 559.25,-516 559.25,-516 559.25,-516 710.94,-516 710.94,-516"/>
<polygon fill="black" stroke="black" points="710.94,-519.5 720.94,-516 710.94,-512.5 710.94,-519.5"/>
</g>
<!-- FIFO&#45;&gt;LOG -->
<g id="edge71" class="edge">
<title>FIFO&#45;&gt;LOG</title>
<path fill="none" stroke="black" d="M474.06,-459.4C506.79,-459.4 557.25,-459.4 557.25,-459.4 557.25,-459.4 557.25,-543 557.25,-543 557.25,-543 1013.22,-543 1013.22,-543"/>
<polygon fill="black" stroke="black" points="1013.22,-546.5 1023.22,-543 1013.22,-539.5 1013.22,-546.5"/>
</g>
<!-- DMA -->
<g id="node29" class="node">
<title>DMA</title>
<polygon fill="none" stroke="black" points="473.75,-535 419.75,-535 419.75,-499 473.75,-499 473.75,-535"/>
<text text-anchor="middle" x="446.75" y="-511.95" font-family="Times,serif" font-size="14.00">DMA</text>
</g>
<!-- DMA&#45;&gt;UART -->
<g id="edge45" class="edge">
<title>DMA&#45;&gt;UART</title>
<path fill="none" stroke="green" d="M456.25,-535.33C456.25,-558.2 456.25,-594.33 456.25,-594.33 456.25,-594.33 561.32,-594.33 561.32,-594.33"/>
<polygon fill="green" stroke="green" points="561.32,-597.83 571.32,-594.33 561.32,-590.83 561.32,-597.83"/>
</g>
<!-- TIMER5 -->
<g id="node30" class="node">
<title>TIMER5</title>
<polygon fill="none" stroke="black" points="201.88,-550 136.38,-550 136.38,-514 201.88,-514 201.88,-550"/>
<text text-anchor="middle" x="169.12" y="-526.95" font-family="Times,serif" font-size="14.00">TIMER5</text>
</g>
<!-- TIMER5&#45;&gt;TIMER -->
<g id="edge49" class="edge">
<title>TIMER5&#45;&gt;TIMER</title>
<path fill="none" stroke="black" d="M202.22,-540C202.22,-540 280.95,-540 280.95,-540"/>
<polygon fill="black" stroke="black" points="280.95,-543.5 290.95,-540 280.95,-536.5 280.95,-543.5"/>
</g>
<!-- TIMER2 -->
<g id="node31" class="node">
<title>TIMER2</title>
<polygon fill="none" stroke="black" points="201.88,-604 136.38,-604 136.38,-568 201.88,-568 201.88,-604"/>
<text text-anchor="middle" x="169.12" y="-580.95" font-family="Times,serif" font-size="14.00">TIMER2</text>
</g>
<!-- TIMER2&#45;&gt;TIMER -->
<g id="edge50" class="edge">
<title>TIMER2&#45;&gt;TIMER</title>
<path fill="none" stroke="black" d="M202.35,-571.5C247.39,-571.5 322.25,-571.5 322.25,-571.5 322.25,-571.5 322.25,-570.95 322.25,-570.95"/>
<polygon fill="black" stroke="black" points="325.75,-577.05 322.25,-567.05 318.75,-577.05 325.75,-577.05"/>
</g>
<!-- STRING -->
<g id="node33" class="node">
<title>STRING</title>
<polygon fill="none" stroke="black" points="930.62,-751 865.88,-751 865.88,-715 930.62,-715 930.62,-751"/>
<text text-anchor="middle" x="898.25" y="-727.95" font-family="Times,serif" font-size="14.00">STRING</text>
</g>
<!-- STRING&#45;&gt;STRING_READER -->
<g id="edge56" class="edge">
<title>STRING&#45;&gt;STRING_READER</title>
<path fill="none" stroke="aqua" d="M909.25,-714.55C909.25,-706.67 909.25,-699.25 909.25,-699.25 909.25,-699.25 977.28,-699.25 977.28,-699.25"/>
<polygon fill="aqua" stroke="aqua" points="977.28,-702.75 987.28,-699.25 977.28,-695.75 977.28,-702.75"/>
</g>
<!-- CLI -->
<g id="node37" class="node">
<title>CLI</title>
<polygon fill="none" stroke="black" points="1204.25,-628 1150.25,-628 1150.25,-592 1204.25,-592 1204.25,-628"/>
<text text-anchor="middle" x="1177.25" y="-604.95" font-family="Times,serif" font-size="14.00">CLI</text>
</g>
<!-- STRING&#45;&gt;CLI -->
<g id="edge62" class="edge">
<title>STRING&#45;&gt;CLI</title>
<path fill="none" stroke="aqua" d="M931.08,-733C1004.83,-733 1177.25,-733 1177.25,-733 1177.25,-733 1177.25,-639.41 1177.25,-639.41"/>
<polygon fill="aqua" stroke="aqua" points="1180.75,-639.41 1177.25,-629.41 1173.75,-639.41 1180.75,-639.41"/>
</g>
<!-- CSV -->
<g id="node39" class="node">
<title>CSV</title>
<polygon fill="none" stroke="black" points="1078.5,-651 1024.5,-651 1024.5,-615 1078.5,-615 1078.5,-651"/>
<text text-anchor="middle" x="1051.5" y="-627.95" font-family="Times,serif" font-size="14.00">CSV</text>
</g>
<!-- STRING&#45;&gt;CSV -->
<g id="edge68" class="edge">
<title>STRING&#45;&gt;CSV</title>
<path fill="none" stroke="black" d="M888.25,-714.89C888.25,-688.18 888.25,-641.33 888.25,-641.33 888.25,-641.33 1013.18,-641.33 1013.18,-641.33"/>
<polygon fill="black" stroke="black" points="1013.18,-644.83 1023.18,-641.33 1013.18,-637.83 1013.18,-644.83"/>
</g>
<!-- STRING_READER&#45;&gt;CLI -->
<g id="edge63" class="edge">
<title>STRING_READER&#45;&gt;CLI</title>
<path fill="none" stroke="aqua" d="M1097.25,-668.68C1097.25,-649.98 1097.25,-623.67 1097.25,-623.67 1097.25,-623.67 1139.17,-623.67 1139.17,-623.67"/>
<polygon fill="aqua" stroke="aqua" points="1139.17,-627.17 1149.17,-623.67 1139.17,-620.17 1139.17,-627.17"/>
</g>
<!-- STREAM&#45;&gt;STRING_READER -->
<g id="edge57" class="edge">
<title>STREAM&#45;&gt;STRING_READER</title>
<path fill="none" stroke="black" d="M934.24,-609.25C965.99,-609.25 1007.25,-609.25 1007.25,-609.25 1007.25,-609.25 1007.25,-657.57 1007.25,-657.57"/>
<polygon fill="black" stroke="black" points="1003.75,-657.57 1007.25,-667.57 1010.75,-657.57 1003.75,-657.57"/>
</g>
<!-- STREAM&#45;&gt;CLI -->
<g id="edge64" class="edge">
<title>STREAM&#45;&gt;CLI</title>
<path fill="none" stroke="aqua" d="M934.44,-603.5C934.44,-603.5 1138.93,-603.5 1138.93,-603.5"/>
<polygon fill="aqua" stroke="aqua" points="1138.93,-607 1148.93,-603.5 1138.93,-600 1138.93,-607"/>
</g>
<!-- STREAM&#45;&gt;LOG -->
<g id="edge70" class="edge">
<title>STREAM&#45;&gt;LOG</title>
<path fill="none" stroke="black" d="M934.36,-588.5C979.87,-588.5 1052.25,-588.5 1052.25,-588.5 1052.25,-588.5 1052.25,-570.23 1052.25,-570.23"/>
<polygon fill="black" stroke="black" points="1055.75,-570.23 1052.25,-560.23 1048.75,-570.23 1055.75,-570.23"/>
</g>
<!-- WRITER&#45;&gt;STREAM -->
<g id="edge74" class="edge">
<title>WRITER&#45;&gt;STREAM</title>
<path fill="none" stroke="black" d="M790.99,-529.67C833.03,-529.67 898.25,-529.67 898.25,-529.67 898.25,-529.67 898.25,-573.87 898.25,-573.87"/>
<polygon fill="black" stroke="black" points="894.75,-573.87 898.25,-583.87 901.75,-573.87 894.75,-573.87"/>
</g>
<!-- WRITER&#45;&gt;CLI -->
<g id="edge61" class="edge">
<title>WRITER&#45;&gt;CLI</title>
<path fill="none" stroke="aqua" d="M790.7,-510C891.25,-510 1177.25,-510 1177.25,-510 1177.25,-510 1177.25,-580.66 1177.25,-580.66"/>
<polygon fill="aqua" stroke="aqua" points="1173.75,-580.66 1177.25,-590.66 1180.75,-580.66 1173.75,-580.66"/>
</g>
<!-- WRITER&#45;&gt;LOG -->
<g id="edge73" class="edge">
<title>WRITER&#45;&gt;LOG</title>
<path fill="none" stroke="black" d="M790.99,-526.33C790.99,-526.33 1013.3,-526.33 1013.3,-526.33"/>
<polygon fill="black" stroke="black" points="1013.3,-529.83 1023.3,-526.33 1013.3,-522.83 1013.3,-529.83"/>
</g>
<!-- LOG&#45;&gt;CLI -->
<g id="edge65" class="edge">
<title>LOG&#45;&gt;CLI</title>
<path fill="none" stroke="aqua" d="M1065.25,-559.27C1065.25,-575.86 1065.25,-597.75 1065.25,-597.75 1065.25,-597.75 1138.85,-597.75 1138.85,-597.75"/>
<polygon fill="aqua" stroke="aqua" points="1138.85,-601.25 1148.85,-597.75 1138.85,-594.25 1138.85,-601.25"/>
</g>
<!-- CSV&#45;&gt;CLI -->
<g id="edge66" class="edge">
<title>CSV&#45;&gt;CLI</title>
<path fill="none" stroke="aqua" d="M1078.79,-619.33C1078.79,-619.33 1139.02,-619.33 1139.02,-619.33"/>
<polygon fill="aqua" stroke="aqua" points="1139.02,-622.83 1149.02,-619.33 1139.02,-615.83 1139.02,-622.83"/>
</g>
<!-- RAM -->
<g id="node40" class="node">
<title>RAM</title>
<polygon fill="none" stroke="black" points="196.12,-155 142.12,-155 142.12,-119 196.12,-119 196.12,-155"/>
<text text-anchor="middle" x="169.12" y="-131.95" font-family="Times,serif" font-size="14.00">RAM</text>
</g>
<!-- RAM&#45;&gt;INTERVAL -->
<g id="edge96" class="edge">
<title>RAM&#45;&gt;INTERVAL</title>
<path fill="none" stroke="black" d="M196.39,-123.5C196.39,-123.5 269.52,-123.5 269.52,-123.5"/>
<polygon fill="black" stroke="black" points="269.52,-127 279.52,-123.5 269.52,-120 269.52,-127"/>
</g>
<!-- RAM&#45;&gt;CSV -->
<g id="edge67" class="edge">
<title>RAM&#45;&gt;CSV</title>
<path fill="none" stroke="black" d="M196.46,-137C253.15,-137 378.25,-137 378.25,-137 378.25,-137 378.25,-631.67 378.25,-631.67 378.25,-631.67 1013.27,-631.67 1013.27,-631.67"/>
<polygon fill="black" stroke="black" points="1013.27,-635.17 1023.27,-631.67 1013.27,-628.17 1013.27,-635.17"/>
</g>
<!-- CRC8 -->
<g id="node47" class="node">
<title>CRC8</title>
<polygon fill="none" stroke="black" points="348.62,-344 294.62,-344 294.62,-308 348.62,-308 348.62,-344"/>
<text text-anchor="middle" x="321.62" y="-320.95" font-family="Times,serif" font-size="14.00">CRC8</text>
</g>
<!-- RAM&#45;&gt;CRC8 -->
<g id="edge89" class="edge">
<title>RAM&#45;&gt;CRC8</title>
<path fill="none" stroke="black" d="M156.25,-155.47C156.25,-203.02 156.25,-326 156.25,-326 156.25,-326 283.32,-326 283.32,-326"/>
<polygon fill="black" stroke="black" points="283.32,-329.5 293.32,-326 283.32,-322.5 283.32,-329.5"/>
</g>
<!-- CRC16 -->
<g id="node48" class="node">
<title>CRC16</title>
<polygon fill="none" stroke="black" points="349.88,-290 293.38,-290 293.38,-254 349.88,-254 349.88,-290"/>
<text text-anchor="middle" x="321.62" y="-266.95" font-family="Times,serif" font-size="14.00">CRC16</text>
</g>
<!-- RAM&#45;&gt;CRC16 -->
<g id="edge90" class="edge">
<title>RAM&#45;&gt;CRC16</title>
<path fill="none" stroke="black" d="M169.25,-155.49C169.25,-192.46 169.25,-272 169.25,-272 169.25,-272 281.96,-272 281.96,-272"/>
<polygon fill="black" stroke="black" points="281.96,-275.5 291.96,-272 281.96,-268.5 281.96,-275.5"/>
</g>
<!-- CRC32 -->
<g id="node49" class="node">
<title>CRC32</title>
<polygon fill="none" stroke="black" points="349.88,-36 293.38,-36 293.38,0 349.88,0 349.88,-36"/>
<text text-anchor="middle" x="321.62" y="-12.95" font-family="Times,serif" font-size="14.00">CRC32</text>
</g>
<!-- RAM&#45;&gt;CRC32 -->
<g id="edge91" class="edge">
<title>RAM&#45;&gt;CRC32</title>
<path fill="none" stroke="black" d="M169.25,-118.67C169.25,-85.29 169.25,-18 169.25,-18 169.25,-18 281.96,-18 281.96,-18"/>
<polygon fill="black" stroke="black" points="281.96,-21.5 291.96,-18 281.96,-14.5 281.96,-21.5"/>
</g>
<!-- PLL_CALC -->
<g id="node50" class="node">
<title>PLL_CALC</title>
<polygon fill="none" stroke="black" points="363,-182 280.25,-182 280.25,-146 363,-146 363,-182"/>
<text text-anchor="middle" x="321.62" y="-158.95" font-family="Times,serif" font-size="14.00">PLL_CALC</text>
</g>
<!-- RAM&#45;&gt;PLL_CALC -->
<g id="edge92" class="edge">
<title>RAM&#45;&gt;PLL_CALC</title>
<path fill="none" stroke="black" d="M196.39,-150.5C196.39,-150.5 268.94,-150.5 268.94,-150.5"/>
<polygon fill="black" stroke="black" points="268.94,-154 278.94,-150.5 268.94,-147 268.94,-154"/>
</g>
<!-- LED&#45;&gt;LED_MONO -->
<g id="edge84" class="edge">
<title>LED&#45;&gt;LED_MONO</title>
<path fill="none" stroke="black" d="M626.93,-961C668.09,-961 741.25,-961 741.25,-961 741.25,-961 741.25,-936.28 741.25,-936.28"/>
<polygon fill="black" stroke="black" points="744.75,-936.28 741.25,-926.28 737.75,-936.28 744.75,-936.28"/>
</g>
<!-- SUPER_CYCLE -->
<g id="node45" class="node">
<title>SUPER_CYCLE</title>
<polygon fill="none" stroke="black" points="952.75,-453 843.75,-453 843.75,-417 952.75,-417 952.75,-453"/>
<text text-anchor="middle" x="898.25" y="-429.95" font-family="Times,serif" font-size="14.00">SUPER_CYCLE</text>
</g>
<!-- SCHEDULER&#45;&gt;SUPER_CYCLE -->
<g id="edge85" class="edge">
<title>SCHEDULER&#45;&gt;SUPER_CYCLE</title>
<path fill="none" stroke="black" d="M791.72,-439.5C791.72,-439.5 832.36,-439.5 832.36,-439.5"/>
<polygon fill="black" stroke="black" points="832.36,-443 842.36,-439.5 832.36,-436 832.36,-443"/>
</g>
<!-- LIMITER&#45;&gt;SCHEDULER -->
<g id="edge86" class="edge">
<title>LIMITER&#45;&gt;SCHEDULER</title>
<path fill="none" stroke="green" d="M635.56,-450.67C635.56,-450.67 709.75,-450.67 709.75,-450.67"/>
<polygon fill="green" stroke="green" points="709.75,-454.17 719.75,-450.67 709.75,-447.17 709.75,-454.17"/>
</g>
<!-- PLL_CALC&#45;&gt;APPLICATION -->
<g id="edge93" class="edge">
<title>PLL_CALC&#45;&gt;APPLICATION</title>
<path fill="none" stroke="black" d="M363.16,-164C463.95,-164 713.25,-164 713.25,-164 713.25,-164 713.25,-769.68 713.25,-769.68"/>
<polygon fill="black" stroke="black" points="709.75,-769.68 713.25,-779.68 716.75,-769.68 709.75,-769.68"/>
</g>
<!-- ASM -->
<g id="node51" class="node">
<title>ASM</title>
<polygon fill="none" stroke="black" points="56,-496 2,-496 2,-460 56,-460 56,-496"/>
<text text-anchor="middle" x="29" y="-472.95" font-family="Times,serif" font-size="14.00">ASM</text>
</g>
<!-- ASM&#45;&gt;MATH -->
<g id="edge97" class="edge">
<title>ASM&#45;&gt;MATH</title>
<path fill="none" stroke="black" d="M56.35,-478C56.35,-478 130.36,-478 130.36,-478"/>
<polygon fill="black" stroke="black" points="130.36,-481.5 140.36,-478 130.36,-474.5 130.36,-481.5"/>
</g>
<!-- DWT -->
<g id="node52" class="node">
<title>DWT</title>
<polygon fill="none" stroke="black" points="348.62,-658 294.62,-658 294.62,-622 348.62,-622 348.62,-658"/>
<text text-anchor="middle" x="321.62" y="-634.95" font-family="Times,serif" font-size="14.00">DWT</text>
</g>
<!-- DWT&#45;&gt;TIME -->
<g id="edge99" class="edge">
<title>DWT&#45;&gt;TIME</title>
<path fill="none" stroke="black" d="M349.06,-654.5C380.95,-654.5 429.25,-654.5 429.25,-654.5 429.25,-654.5 429.25,-670.76 429.25,-670.76"/>
<polygon fill="black" stroke="black" points="425.75,-670.76 429.25,-680.76 432.75,-670.76 425.75,-670.76"/>
</g>
</g>
</svg>
