<?xml version="1.0" encoding="UTF-8" standalone="no"?>
<!DOCTYPE svg PUBLIC "-//W3C//DTD SVG 1.1//EN"
 "http://www.w3.org/Graphics/SVG/1.1/DTD/svg11.dtd">
<!-- Generated by graphviz version 8.0.5 (20230508.1809)
 -->
<!-- Title: graphname Pages: 1 -->
<svg width="1771pt" height="980pt"
 viewBox="0.00 0.00 1770.50 980.00" xmlns="http://www.w3.org/2000/svg" xmlns:xlink="http://www.w3.org/1999/xlink">
<g id="graph0" class="graph" transform="scale(1 1) rotate(0) translate(4 976)">
<title>graphname</title>
<polygon fill="white" stroke="none" points="-4,4 -4,-976 1766.5,-976 1766.5,4 -4,4"/>
<!-- DEBUGGER -->
<g id="node1" class="node">
<title>DEBUGGER</title>
<polygon fill="none" stroke="black" points="733.25,-788 643.75,-788 643.75,-752 733.25,-752 733.25,-788"/>
<text text-anchor="middle" x="688.5" y="-764.95" font-family="Times,serif" font-size="14.00">DEBUGGER</text>
</g>
<!-- CORE -->
<g id="node2" class="node">
<title>CORE</title>
<polygon fill="none" stroke="black" points="841.38,-809 787.38,-809 787.38,-773 841.38,-773 841.38,-809"/>
<text text-anchor="middle" x="814.38" y="-785.95" font-family="Times,serif" font-size="14.00">CORE</text>
</g>
<!-- DEBUGGER&#45;&gt;CORE -->
<g id="edge1" class="edge">
<title>DEBUGGER&#45;&gt;CORE</title>
<path fill="none" stroke="black" d="M733.59,-783C733.59,-783 776.16,-783 776.16,-783"/>
<polygon fill="black" stroke="black" points="776.16,-786.5 786.16,-783 776.16,-779.5 776.16,-786.5"/>
</g>
<!-- FLASH -->
<g id="node16" class="node">
<title>FLASH</title>
<polygon fill="none" stroke="black" points="843.75,-698 785,-698 785,-662 843.75,-662 843.75,-698"/>
<text text-anchor="middle" x="814.38" y="-674.95" font-family="Times,serif" font-size="14.00">FLASH</text>
</g>
<!-- DEBUGGER&#45;&gt;FLASH -->
<g id="edge24" class="edge">
<title>DEBUGGER&#45;&gt;FLASH</title>
<path fill="none" stroke="black" d="M730.5,-751.67C730.5,-727.83 730.5,-689.2 730.5,-689.2 730.5,-689.2 773.57,-689.2 773.57,-689.2"/>
<polygon fill="black" stroke="black" points="773.57,-692.7 783.57,-689.2 773.57,-685.7 773.57,-692.7"/>
</g>
<!-- BOOT -->
<g id="node43" class="node">
<title>BOOT</title>
<polygon fill="none" stroke="black" points="951.88,-809 897.88,-809 897.88,-773 951.88,-773 951.88,-809"/>
<text text-anchor="middle" x="924.88" y="-785.95" font-family="Times,serif" font-size="14.00">BOOT</text>
</g>
<!-- CORE&#45;&gt;BOOT -->
<g id="edge76" class="edge">
<title>CORE&#45;&gt;BOOT</title>
<path fill="none" stroke="black" d="M841.69,-791C841.69,-791 886.49,-791 886.49,-791"/>
<polygon fill="black" stroke="black" points="886.49,-794.5 896.49,-791 886.49,-787.5 886.49,-794.5"/>
</g>
<!-- CLOCK -->
<g id="node3" class="node">
<title>CLOCK</title>
<polygon fill="none" stroke="black" points="314.75,-684 253,-684 253,-648 314.75,-648 314.75,-684"/>
<text text-anchor="middle" x="283.88" y="-660.95" font-family="Times,serif" font-size="14.00">CLOCK</text>
</g>
<!-- CLOCK&#45;&gt;CORE -->
<g id="edge2" class="edge">
<title>CLOCK&#45;&gt;CORE</title>
<path fill="none" stroke="black" d="M314.92,-655.2C419.36,-655.2 751.5,-655.2 751.5,-655.2 751.5,-655.2 751.5,-778 751.5,-778 751.5,-778 775.98,-778 775.98,-778"/>
<polygon fill="black" stroke="black" points="775.98,-781.5 785.98,-778 775.98,-774.5 775.98,-781.5"/>
</g>
<!-- SYSTICK -->
<g id="node10" class="node">
<title>SYSTICK</title>
<polygon fill="none" stroke="black" points="471.75,-262 399.5,-262 399.5,-226 471.75,-226 471.75,-262"/>
<text text-anchor="middle" x="435.62" y="-238.95" font-family="Times,serif" font-size="14.00">SYSTICK</text>
</g>
<!-- CLOCK&#45;&gt;SYSTICK -->
<g id="edge10" class="edge">
<title>CLOCK&#45;&gt;SYSTICK</title>
<path fill="none" stroke="black" d="M315.13,-650.4C359.78,-650.4 436.5,-650.4 436.5,-650.4 436.5,-650.4 436.5,-273.25 436.5,-273.25"/>
<polygon fill="black" stroke="black" points="440,-273.25 436.5,-263.25 433,-273.25 440,-273.25"/>
</g>
<!-- TIMER -->
<g id="node21" class="node">
<title>TIMER</title>
<polygon fill="none" stroke="black" points="954.25,-367 895.5,-367 895.5,-331 954.25,-331 954.25,-367"/>
<text text-anchor="middle" x="924.88" y="-343.95" font-family="Times,serif" font-size="14.00">TIMER</text>
</g>
<!-- CLOCK&#45;&gt;TIMER -->
<g id="edge33" class="edge">
<title>CLOCK&#45;&gt;TIMER</title>
<path fill="none" stroke="black" d="M294.5,-647.94C294.5,-581.56 294.5,-355 294.5,-355 294.5,-355 884.32,-355 884.32,-355"/>
<polygon fill="black" stroke="black" points="884.32,-358.5 894.32,-355 884.32,-351.5 884.32,-358.5"/>
</g>
<!-- REG -->
<g id="node4" class="node">
<title>REG</title>
<polygon fill="none" stroke="black" points="158.38,-262 104.38,-262 104.38,-226 158.38,-226 158.38,-262"/>
<text text-anchor="middle" x="131.38" y="-238.95" font-family="Times,serif" font-size="14.00">REG</text>
</g>
<!-- REG&#45;&gt;CLOCK -->
<g id="edge32" class="edge">
<title>REG&#45;&gt;CLOCK</title>
<path fill="none" stroke="black" d="M158.63,-253C200.16,-253 274.5,-253 274.5,-253 274.5,-253 274.5,-636.72 274.5,-636.72"/>
<polygon fill="black" stroke="black" points="271,-636.72 274.5,-646.72 278,-636.72 271,-636.72"/>
</g>
<!-- NVIC -->
<g id="node5" class="node">
<title>NVIC</title>
<polygon fill="none" stroke="black" points="715.5,-122 661.5,-122 661.5,-86 715.5,-86 715.5,-122"/>
<text text-anchor="middle" x="688.5" y="-98.95" font-family="Times,serif" font-size="14.00">NVIC</text>
</g>
<!-- REG&#45;&gt;NVIC -->
<g id="edge3" class="edge">
<title>REG&#45;&gt;NVIC</title>
<path fill="none" stroke="black" d="M137.5,-225.82C137.5,-199.01 137.5,-152 137.5,-152 137.5,-152 679.5,-152 679.5,-152 679.5,-152 679.5,-133.42 679.5,-133.42"/>
<polygon fill="black" stroke="black" points="683,-133.42 679.5,-123.42 676,-133.42 683,-133.42"/>
</g>
<!-- REG&#45;&gt;SYSTICK -->
<g id="edge8" class="edge">
<title>REG&#45;&gt;SYSTICK</title>
<path fill="none" stroke="black" d="M158.64,-244C158.64,-244 388.48,-244 388.48,-244"/>
<polygon fill="black" stroke="black" points="388.48,-247.5 398.48,-244 388.48,-240.5 388.48,-247.5"/>
</g>
<!-- CORTEX_M4 -->
<g id="node12" class="node">
<title>CORTEX_M4</title>
<polygon fill="none" stroke="black" points="607.75,-122 512.25,-122 512.25,-86 607.75,-86 607.75,-122"/>
<text text-anchor="middle" x="560" y="-98.95" font-family="Times,serif" font-size="14.00">CORTEX_M4</text>
</g>
<!-- REG&#45;&gt;CORTEX_M4 -->
<g id="edge18" class="edge">
<title>REG&#45;&gt;CORTEX_M4</title>
<path fill="none" stroke="black" d="M126.5,-225.88C126.5,-196.09 126.5,-140 126.5,-140 126.5,-140 517.5,-140 517.5,-140 517.5,-140 517.5,-133.42 517.5,-133.42"/>
<polygon fill="black" stroke="black" points="521,-133.42 517.5,-123.42 514,-133.42 521,-133.42"/>
</g>
<!-- FPU -->
<g id="node13" class="node">
<title>FPU</title>
<polygon fill="none" stroke="black" points="462.62,-71 408.62,-71 408.62,-35 462.62,-35 462.62,-71"/>
<text text-anchor="middle" x="435.62" y="-47.95" font-family="Times,serif" font-size="14.00">FPU</text>
</g>
<!-- REG&#45;&gt;FPU -->
<g id="edge15" class="edge">
<title>REG&#45;&gt;FPU</title>
<path fill="none" stroke="black" d="M115.5,-225.69C115.5,-177.88 115.5,-53 115.5,-53 115.5,-53 397.33,-53 397.33,-53"/>
<polygon fill="black" stroke="black" points="397.33,-56.5 407.33,-53 397.33,-49.5 397.33,-56.5"/>
</g>
<!-- REG&#45;&gt;FLASH -->
<g id="edge22" class="edge">
<title>REG&#45;&gt;FLASH</title>
<path fill="none" stroke="black" d="M118.5,-262.49C118.5,-338.38 118.5,-622 118.5,-622 118.5,-622 801.5,-622 801.5,-622 801.5,-622 801.5,-650.65 801.5,-650.65"/>
<polygon fill="black" stroke="black" points="798,-650.65 801.5,-660.65 805,-650.65 798,-650.65"/>
</g>
<!-- GPIO -->
<g id="node19" class="node">
<title>GPIO</title>
<polygon fill="none" stroke="black" points="1143,-418 1089,-418 1089,-382 1143,-382 1143,-418"/>
<text text-anchor="middle" x="1116" y="-394.95" font-family="Times,serif" font-size="14.00">GPIO</text>
</g>
<!-- REG&#45;&gt;GPIO -->
<g id="edge27" class="edge">
<title>REG&#45;&gt;GPIO</title>
<path fill="none" stroke="black" d="M131.5,-262.45C131.5,-298.9 131.5,-376.67 131.5,-376.67 131.5,-376.67 1107.5,-376.67 1107.5,-376.67 1107.5,-376.67 1107.5,-377.16 1107.5,-377.16"/>
<polygon fill="black" stroke="black" points="1104,-370.61 1107.5,-380.62 1111,-370.62 1104,-370.61"/>
</g>
<!-- REG&#45;&gt;TIMER -->
<g id="edge35" class="edge">
<title>REG&#45;&gt;TIMER</title>
<path fill="none" stroke="black" d="M145.5,-262.29C145.5,-292.37 145.5,-349 145.5,-349 145.5,-349 884.27,-349 884.27,-349"/>
<polygon fill="black" stroke="black" points="884.27,-352.5 894.27,-349 884.27,-345.5 884.27,-352.5"/>
</g>
<!-- UART -->
<g id="node24" class="node">
<title>UART</title>
<polygon fill="none" stroke="black" points="1250.12,-132 1196.12,-132 1196.12,-96 1250.12,-96 1250.12,-132"/>
<text text-anchor="middle" x="1223.12" y="-108.95" font-family="Times,serif" font-size="14.00">UART</text>
</g>
<!-- REG&#45;&gt;UART -->
<g id="edge44" class="edge">
<title>REG&#45;&gt;UART</title>
<path fill="none" stroke="darkorange" d="M148.5,-225.76C148.5,-200.52 148.5,-158 148.5,-158 148.5,-158 1210.5,-158 1210.5,-158 1210.5,-158 1210.5,-143.41 1210.5,-143.41"/>
<polygon fill="darkorange" stroke="darkorange" points="1214,-143.4 1210.5,-133.41 1207,-143.41 1214,-143.4"/>
</g>
<!-- ARM -->
<g id="node6" class="node">
<title>ARM</title>
<polygon fill="none" stroke="black" points="841.38,-36 787.38,-36 787.38,0 841.38,0 841.38,-36"/>
<text text-anchor="middle" x="814.38" y="-12.95" font-family="Times,serif" font-size="14.00">ARM</text>
</g>
<!-- NVIC&#45;&gt;ARM -->
<g id="edge4" class="edge">
<title>NVIC&#45;&gt;ARM</title>
<path fill="none" stroke="black" d="M688.5,-85.66C688.5,-60.26 688.5,-17.5 688.5,-17.5 688.5,-17.5 776.06,-17.5 776.06,-17.5"/>
<polygon fill="black" stroke="black" points="776.06,-21 786.06,-17.5 776.06,-14 776.06,-21"/>
</g>
<!-- INTERRUPT -->
<g id="node8" class="node">
<title>INTERRUPT</title>
<polygon fill="none" stroke="black" points="859.5,-128 769.25,-128 769.25,-92 859.5,-92 859.5,-128"/>
<text text-anchor="middle" x="814.38" y="-104.95" font-family="Times,serif" font-size="14.00">INTERRUPT</text>
</g>
<!-- NVIC&#45;&gt;INTERRUPT -->
<g id="edge38" class="edge">
<title>NVIC&#45;&gt;INTERRUPT</title>
<path fill="none" stroke="black" d="M715.81,-107C715.81,-107 757.8,-107 757.8,-107"/>
<polygon fill="black" stroke="black" points="757.8,-110.5 767.8,-107 757.8,-103.5 757.8,-110.5"/>
</g>
<!-- NVIC&#45;&gt;SYSTICK -->
<g id="edge9" class="edge">
<title>NVIC&#45;&gt;SYSTICK</title>
<path fill="none" stroke="black" d="M697.5,-122.44C697.5,-157.61 697.5,-230.8 697.5,-230.8 697.5,-230.8 483.04,-230.8 483.04,-230.8"/>
<polygon fill="black" stroke="black" points="483.04,-227.3 473.04,-230.8 483.04,-234.3 483.04,-227.3"/>
</g>
<!-- NVIC&#45;&gt;CORTEX_M4 -->
<g id="edge19" class="edge">
<title>NVIC&#45;&gt;CORTEX_M4</title>
<path fill="none" stroke="black" d="M661.25,-110C661.25,-110 619.23,-110 619.23,-110"/>
<polygon fill="black" stroke="black" points="619.23,-106.5 609.23,-110 619.23,-113.5 619.23,-106.5"/>
</g>
<!-- NVIC&#45;&gt;FLASH -->
<g id="edge26" class="edge">
<title>NVIC&#45;&gt;FLASH</title>
<path fill="none" stroke="black" d="M715.73,-114.5C720.25,-114.5 723.5,-114.5 723.5,-114.5 723.5,-114.5 723.5,-668.8 723.5,-668.8 723.5,-668.8 773.62,-668.8 773.62,-668.8"/>
<polygon fill="black" stroke="black" points="773.62,-672.3 783.62,-668.8 773.62,-665.3 773.62,-672.3"/>
</g>
<!-- NVIC&#45;&gt;TIMER -->
<g id="edge34" class="edge">
<title>NVIC&#45;&gt;TIMER</title>
<path fill="none" stroke="black" d="M706.5,-122.36C706.5,-178.32 706.5,-343 706.5,-343 706.5,-343 884.42,-343 884.42,-343"/>
<polygon fill="black" stroke="black" points="884.42,-346.5 894.42,-343 884.42,-339.5 884.42,-346.5"/>
</g>
<!-- MICROCONTROLLER -->
<g id="node7" class="node">
<title>MICROCONTROLLER</title>
<polygon fill="none" stroke="black" points="359,-117 208.75,-117 208.75,-81 359,-81 359,-117"/>
<text text-anchor="middle" x="283.88" y="-93.95" font-family="Times,serif" font-size="14.00">MICROCONTROLLER</text>
</g>
<!-- MICROCONTROLLER&#45;&gt;NVIC -->
<g id="edge5" class="edge">
<title>MICROCONTROLLER&#45;&gt;NVIC</title>
<path fill="none" stroke="black" d="M351.5,-117.31C351.5,-130.5 351.5,-146 351.5,-146 351.5,-146 670.5,-146 670.5,-146 670.5,-146 670.5,-133.06 670.5,-133.06"/>
<polygon fill="black" stroke="black" points="674,-133.06 670.5,-123.06 667,-133.06 674,-133.06"/>
</g>
<!-- MICROCONTROLLER&#45;&gt;SYSTICK -->
<g id="edge12" class="edge">
<title>MICROCONTROLLER&#45;&gt;SYSTICK</title>
<path fill="none" stroke="black" d="M343.5,-117.34C343.5,-154.46 343.5,-235 343.5,-235 343.5,-235 388.21,-235 388.21,-235"/>
<polygon fill="black" stroke="black" points="388.21,-238.5 398.21,-235 388.21,-231.5 388.21,-238.5"/>
</g>
<!-- INTERRUPT&#45;&gt;CLOCK -->
<g id="edge48" class="edge">
<title>INTERRUPT&#45;&gt;CLOCK</title>
<path fill="none" stroke="black" d="M777.5,-128.37C777.5,-223.19 777.5,-652.8 777.5,-652.8 777.5,-652.8 326.13,-652.8 326.13,-652.8"/>
<polygon fill="black" stroke="black" points="326.13,-649.3 316.13,-652.8 326.13,-656.3 326.13,-649.3"/>
</g>
<!-- INTERRUPT&#45;&gt;NVIC -->
<g id="edge6" class="edge">
<title>INTERRUPT&#45;&gt;NVIC</title>
<path fill="none" stroke="black" d="M768.93,-99.5C768.93,-99.5 726.93,-99.5 726.93,-99.5"/>
<polygon fill="black" stroke="black" points="726.93,-96 716.93,-99.5 726.93,-103 726.93,-96"/>
</g>
<!-- INTERRUPT&#45;&gt;SYSTICK -->
<g id="edge11" class="edge">
<title>INTERRUPT&#45;&gt;SYSTICK</title>
<path fill="none" stroke="black" d="M773.5,-128.44C773.5,-162.81 773.5,-233.2 773.5,-233.2 773.5,-233.2 483.1,-233.2 483.1,-233.2"/>
<polygon fill="black" stroke="black" points="483.1,-229.7 473.1,-233.2 483.1,-236.7 483.1,-229.7"/>
</g>
<!-- INTERRUPT&#45;&gt;TIMER -->
<g id="edge39" class="edge">
<title>INTERRUPT&#45;&gt;TIMER</title>
<path fill="none" stroke="blue" d="M850.5,-128.19C850.5,-182.06 850.5,-337 850.5,-337 850.5,-337 884.05,-337 884.05,-337"/>
<polygon fill="blue" stroke="blue" points="884.05,-340.5 894.05,-337 884.05,-333.5 884.05,-340.5"/>
</g>
<!-- INTERRUPT&#45;&gt;UART -->
<g id="edge45" class="edge">
<title>INTERRUPT&#45;&gt;UART</title>
<path fill="none" stroke="blue" d="M859.68,-108.8C859.68,-108.8 1184.75,-108.8 1184.75,-108.8"/>
<polygon fill="blue" stroke="blue" points="1184.75,-112.3 1194.75,-108.8 1184.75,-105.3 1184.75,-112.3"/>
</g>
<!-- CMSIS -->
<g id="node9" class="node">
<title>CMSIS</title>
<polygon fill="none" stroke="black" points="588.62,-214 531.38,-214 531.38,-178 588.62,-178 588.62,-214"/>
<text text-anchor="middle" x="560" y="-190.95" font-family="Times,serif" font-size="14.00">CMSIS</text>
</g>
<!-- CMSIS&#45;&gt;NVIC -->
<g id="edge7" class="edge">
<title>CMSIS&#45;&gt;NVIC</title>
<path fill="none" stroke="black" d="M588.84,-199C626.72,-199 688.5,-199 688.5,-199 688.5,-199 688.5,-133.32 688.5,-133.32"/>
<polygon fill="black" stroke="black" points="692,-133.32 688.5,-123.32 685,-133.32 692,-133.32"/>
</g>
<!-- TIME -->
<g id="node11" class="node">
<title>TIME</title>
<polygon fill="none" stroke="black" points="1044.25,-509 990.25,-509 990.25,-473 1044.25,-473 1044.25,-509"/>
<text text-anchor="middle" x="1017.25" y="-485.95" font-family="Times,serif" font-size="14.00">TIME</text>
</g>
<!-- SYSTICK&#45;&gt;TIME -->
<g id="edge13" class="edge">
<title>SYSTICK&#45;&gt;TIME</title>
<path fill="none" stroke="black" d="M472.09,-235.6C593.81,-235.6 978.5,-235.6 978.5,-235.6 978.5,-235.6 978.5,-482 978.5,-482 978.5,-482 979.64,-482 979.64,-482"/>
<polygon fill="black" stroke="black" points="978.92,-485.5 988.92,-482 978.92,-478.5 978.92,-485.5"/>
</g>
<!-- SYSTICK&#45;&gt;CORTEX_M4 -->
<g id="edge20" class="edge">
<title>SYSTICK&#45;&gt;CORTEX_M4</title>
<path fill="none" stroke="black" d="M472.2,-228.4C497.82,-228.4 527.5,-228.4 527.5,-228.4 527.5,-228.4 527.5,-133.36 527.5,-133.36"/>
<polygon fill="black" stroke="black" points="531,-133.36 527.5,-123.36 524,-133.36 531,-133.36"/>
</g>
<!-- TIME&#45;&gt;GPIO -->
<g id="edge29" class="edge">
<title>TIME&#45;&gt;GPIO</title>
<path fill="none" stroke="black" d="M1044.63,-476.6C1074.01,-476.6 1116.5,-476.6 1116.5,-476.6 1116.5,-476.6 1116.5,-429.15 1116.5,-429.15"/>
<polygon fill="black" stroke="black" points="1120,-429.15 1116.5,-419.15 1113,-429.15 1120,-429.15"/>
</g>
<!-- TIME&#45;&gt;UART -->
<g id="edge40" class="edge">
<title>TIME&#45;&gt;UART</title>
<path fill="none" stroke="black" d="M1044.62,-474.8C1054.15,-474.8 1062.5,-474.8 1062.5,-474.8 1062.5,-474.8 1062.5,-115.2 1062.5,-115.2 1062.5,-115.2 1184.88,-115.2 1184.88,-115.2"/>
<polygon fill="black" stroke="black" points="1184.88,-118.7 1194.88,-115.2 1184.88,-111.7 1184.88,-118.7"/>
</g>
<!-- LOG -->
<g id="node40" class="node">
<title>LOG</title>
<polygon fill="none" stroke="black" points="1636.75,-135 1582.75,-135 1582.75,-99 1636.75,-99 1636.75,-135"/>
<text text-anchor="middle" x="1609.75" y="-111.95" font-family="Times,serif" font-size="14.00">LOG</text>
</g>
<!-- TIME&#45;&gt;LOG -->
<g id="edge68" class="edge">
<title>TIME&#45;&gt;LOG</title>
<path fill="none" stroke="black" d="M1044.5,-487.4C1111.07,-487.4 1276.5,-487.4 1276.5,-487.4 1276.5,-487.4 1276.5,-118.8 1276.5,-118.8 1276.5,-118.8 1571.48,-118.8 1571.48,-118.8"/>
<polygon fill="black" stroke="black" points="1571.48,-122.3 1581.48,-118.8 1571.48,-115.3 1571.48,-122.3"/>
</g>
<!-- LED -->
<g id="node44" class="node">
<title>LED</title>
<polygon fill="none" stroke="black" points="1250.12,-459 1196.12,-459 1196.12,-423 1250.12,-423 1250.12,-459"/>
<text text-anchor="middle" x="1223.12" y="-435.95" font-family="Times,serif" font-size="14.00">LED</text>
</g>
<!-- TIME&#45;&gt;LED -->
<g id="edge79" class="edge">
<title>TIME&#45;&gt;LED</title>
<path fill="none" stroke="black" d="M1044.64,-478.4C1100.74,-478.4 1223.5,-478.4 1223.5,-478.4 1223.5,-478.4 1223.5,-470.26 1223.5,-470.26"/>
<polygon fill="black" stroke="black" points="1227,-470.26 1223.5,-460.26 1220,-470.26 1227,-470.26"/>
</g>
<!-- LED_MONO -->
<g id="node45" class="node">
<title>LED_MONO</title>
<polygon fill="none" stroke="black" points="1394.5,-482 1303.5,-482 1303.5,-446 1394.5,-446 1394.5,-482"/>
<text text-anchor="middle" x="1349" y="-458.95" font-family="Times,serif" font-size="14.00">LED_MONO</text>
</g>
<!-- TIME&#45;&gt;LED_MONO -->
<g id="edge81" class="edge">
<title>TIME&#45;&gt;LED_MONO</title>
<path fill="none" stroke="black" d="M1044.68,-480.2C1044.68,-480.2 1292.02,-480.2 1292.02,-480.2"/>
<polygon fill="black" stroke="black" points="1292.02,-483.7 1302.02,-480.2 1292.02,-476.7 1292.02,-483.7"/>
</g>
<!-- SCHEDULER -->
<g id="node46" class="node">
<title>SCHEDULER</title>
<polygon fill="none" stroke="black" points="1258.12,-703 1188.12,-703 1188.12,-667 1258.12,-667 1258.12,-703"/>
<text text-anchor="middle" x="1223.12" y="-679.95" font-family="Times,serif" font-size="14.00">Scheduler</text>
</g>
<!-- TIME&#45;&gt;SCHEDULER -->
<g id="edge86" class="edge">
<title>TIME&#45;&gt;SCHEDULER</title>
<path fill="none" stroke="red" d="M1044.63,-498.2C1090.16,-498.2 1176.5,-498.2 1176.5,-498.2 1176.5,-498.2 1176.5,-679 1176.5,-679 1176.5,-679 1177.63,-679 1177.63,-679"/>
<polygon fill="red" stroke="red" points="1176.79,-682.5 1186.79,-679 1176.79,-675.5 1176.79,-682.5"/>
</g>
<!-- LIMITER -->
<g id="node48" class="node">
<title>LIMITER</title>
<polygon fill="none" stroke="black" points="1151.75,-703 1080.25,-703 1080.25,-667 1151.75,-667 1151.75,-703"/>
<text text-anchor="middle" x="1116" y="-679.95" font-family="Times,serif" font-size="14.00">LIMITER</text>
</g>
<!-- TIME&#45;&gt;LIMITER -->
<g id="edge93" class="edge">
<title>TIME&#45;&gt;LIMITER</title>
<path fill="none" stroke="black" d="M1044.62,-503.6C1063.6,-503.6 1085.5,-503.6 1085.5,-503.6 1085.5,-503.6 1085.5,-655.61 1085.5,-655.61"/>
<polygon fill="black" stroke="black" points="1082,-655.61 1085.5,-665.61 1089,-655.61 1082,-655.61"/>
</g>
<!-- BUTTON -->
<g id="node54" class="node">
<title>BUTTON</title>
<polygon fill="none" stroke="black" points="1258.5,-551 1187.75,-551 1187.75,-515 1258.5,-515 1258.5,-551"/>
<text text-anchor="middle" x="1223.12" y="-527.95" font-family="Times,serif" font-size="14.00">BUTTON</text>
</g>
<!-- TIME&#45;&gt;BUTTON -->
<g id="edge100" class="edge">
<title>TIME&#45;&gt;BUTTON</title>
<path fill="none" stroke="red" d="M1044.48,-492.8C1093.48,-492.8 1191.5,-492.8 1191.5,-492.8 1191.5,-492.8 1191.5,-503.78 1191.5,-503.78"/>
<polygon fill="red" stroke="red" points="1188,-503.78 1191.5,-513.78 1195,-503.78 1188,-503.78"/>
</g>
<!-- CORTEX_M4&#45;&gt;NVIC -->
<g id="edge14" class="edge">
<title>CORTEX_M4&#45;&gt;NVIC</title>
<path fill="none" stroke="black" d="M608.21,-98C608.21,-98 650.3,-98 650.3,-98"/>
<polygon fill="black" stroke="black" points="650.3,-101.5 660.3,-98 650.3,-94.5 650.3,-101.5"/>
</g>
<!-- FPU&#45;&gt;CORTEX_M4 -->
<g id="edge16" class="edge">
<title>FPU&#45;&gt;CORTEX_M4</title>
<path fill="none" stroke="black" d="M436.5,-71.34C436.5,-85.07 436.5,-101.5 436.5,-101.5 436.5,-101.5 500.9,-101.5 500.9,-101.5"/>
<polygon fill="black" stroke="black" points="500.9,-105 510.9,-101.5 500.9,-98 500.9,-105"/>
</g>
<!-- THUMB -->
<g id="node14" class="node">
<title>THUMB</title>
<polygon fill="none" stroke="black" points="468.38,-208 402.88,-208 402.88,-172 468.38,-172 468.38,-208"/>
<text text-anchor="middle" x="435.62" y="-184.95" font-family="Times,serif" font-size="14.00">THUMB</text>
</g>
<!-- THUMB&#45;&gt;CORTEX_M4 -->
<g id="edge17" class="edge">
<title>THUMB&#45;&gt;CORTEX_M4</title>
<path fill="none" stroke="black" d="M468.47,-193C493.07,-193 522.5,-193 522.5,-193 522.5,-193 522.5,-133.44 522.5,-133.44"/>
<polygon fill="black" stroke="black" points="526,-133.44 522.5,-123.44 519,-133.44 526,-133.44"/>
</g>
<!-- ARRAY -->
<g id="node15" class="node">
<title>ARRAY</title>
<polygon fill="none" stroke="black" points="719.75,-696 657.25,-696 657.25,-660 719.75,-660 719.75,-696"/>
<text text-anchor="middle" x="688.5" y="-672.95" font-family="Times,serif" font-size="14.00">ARRAY</text>
</g>
<!-- ARRAY&#45;&gt;FLASH -->
<g id="edge21" class="edge">
<title>ARRAY&#45;&gt;FLASH</title>
<path fill="none" stroke="black" d="M719.94,-675.6C719.94,-675.6 773.63,-675.6 773.63,-675.6"/>
<polygon fill="black" stroke="black" points="773.63,-679.1 783.63,-675.6 773.63,-672.1 773.63,-679.1"/>
</g>
<!-- FLASH&#45;&gt;DEBUGGER -->
<g id="edge77" class="edge">
<title>FLASH&#45;&gt;DEBUGGER</title>
<path fill="none" stroke="black" d="M784.62,-682.4C759.13,-682.4 726.5,-682.4 726.5,-682.4 726.5,-682.4 726.5,-740.85 726.5,-740.85"/>
<polygon fill="black" stroke="black" points="723,-740.85 726.5,-750.85 730,-740.85 723,-740.85"/>
</g>
<!-- FLASH&#45;&gt;SCHEDULER -->
<g id="edge87" class="edge">
<title>FLASH&#45;&gt;SCHEDULER</title>
<path fill="none" stroke="blue" d="M828.5,-661.5C828.5,-659.18 828.5,-657.6 828.5,-657.6 828.5,-657.6 1223.5,-657.6 1223.5,-657.6 1223.5,-657.6 1223.5,-658.5 1223.5,-658.5"/>
<polygon fill="blue" stroke="blue" points="1220,-655.57 1223.5,-665.57 1227,-655.57 1220,-655.57"/>
</g>
<!-- FLASH&#45;&gt;LIMITER -->
<g id="edge94" class="edge">
<title>FLASH&#45;&gt;LIMITER</title>
<path fill="none" stroke="black" d="M844.12,-687.67C844.12,-687.67 1068.99,-687.67 1068.99,-687.67"/>
<polygon fill="black" stroke="black" points="1068.99,-691.17 1078.99,-687.67 1068.99,-684.17 1068.99,-691.17"/>
</g>
<!-- FLASH&#45;&gt;BUTTON -->
<g id="edge99" class="edge">
<title>FLASH&#45;&gt;BUTTON</title>
<path fill="none" stroke="green" d="M844.09,-677.33C851.06,-677.33 856.5,-677.33 856.5,-677.33 856.5,-677.33 856.5,-543.67 856.5,-543.67 856.5,-543.67 1176.3,-543.67 1176.3,-543.67"/>
<polygon fill="green" stroke="green" points="1176.3,-547.17 1186.3,-543.67 1176.3,-540.17 1176.3,-547.17"/>
</g>
<!-- INTERVAL -->
<g id="node17" class="node">
<title>INTERVAL</title>
<polygon fill="none" stroke="black" points="476.25,-765 395,-765 395,-729 476.25,-729 476.25,-765"/>
<text text-anchor="middle" x="435.62" y="-741.95" font-family="Times,serif" font-size="14.00">INTERVAL</text>
</g>
<!-- INTERVAL&#45;&gt;FLASH -->
<g id="edge23" class="edge">
<title>INTERVAL&#45;&gt;FLASH</title>
<path fill="none" stroke="black" d="M476.53,-740.5C574.5,-740.5 814.5,-740.5 814.5,-740.5 814.5,-740.5 814.5,-709.48 814.5,-709.48"/>
<polygon fill="black" stroke="black" points="818,-709.48 814.5,-699.48 811,-709.48 818,-709.48"/>
</g>
<!-- FLOAT -->
<g id="node18" class="node">
<title>FLOAT</title>
<polygon fill="none" stroke="black" points="717.5,-604 659.5,-604 659.5,-568 717.5,-568 717.5,-604"/>
<text text-anchor="middle" x="688.5" y="-580.95" font-family="Times,serif" font-size="14.00">FLOAT</text>
</g>
<!-- FLOAT&#45;&gt;FLASH -->
<g id="edge25" class="edge">
<title>FLOAT&#45;&gt;FLASH</title>
<path fill="none" stroke="black" d="M717.72,-586C754.95,-586 814.5,-586 814.5,-586 814.5,-586 814.5,-650.88 814.5,-650.88"/>
<polygon fill="black" stroke="black" points="811,-650.88 814.5,-660.88 818,-650.88 811,-650.88"/>
</g>
<!-- MATH -->
<g id="node23" class="node">
<title>MATH</title>
<polygon fill="none" stroke="black" points="841.88,-565 786.88,-565 786.88,-529 841.88,-529 841.88,-565"/>
<text text-anchor="middle" x="814.38" y="-541.95" font-family="Times,serif" font-size="14.00">MATH</text>
</g>
<!-- FLOAT&#45;&gt;MATH -->
<g id="edge97" class="edge">
<title>FLOAT&#45;&gt;MATH</title>
<path fill="none" stroke="black" d="M688.5,-567.79C688.5,-562.2 688.5,-557.5 688.5,-557.5 688.5,-557.5 775.44,-557.5 775.44,-557.5"/>
<polygon fill="black" stroke="black" points="775.44,-561 785.44,-557.5 775.44,-554 775.44,-561"/>
</g>
<!-- PWM -->
<g id="node22" class="node">
<title>PWM</title>
<polygon fill="none" stroke="black" points="1250.12,-367 1196.12,-367 1196.12,-331 1250.12,-331 1250.12,-367"/>
<text text-anchor="middle" x="1223.12" y="-343.95" font-family="Times,serif" font-size="14.00">PWM</text>
</g>
<!-- GPIO&#45;&gt;PWM -->
<g id="edge31" class="edge">
<title>GPIO&#45;&gt;PWM</title>
<path fill="none" stroke="black" d="M1125.5,-381.94C1125.5,-370.56 1125.5,-358 1125.5,-358 1125.5,-358 1184.67,-358 1184.67,-358"/>
<polygon fill="black" stroke="black" points="1184.67,-361.5 1194.67,-358 1184.67,-354.5 1184.67,-361.5"/>
</g>
<!-- GPIO&#45;&gt;UART -->
<g id="edge43" class="edge">
<title>GPIO&#45;&gt;UART</title>
<path fill="none" stroke="fuchsia" d="M1143.37,-390.8C1154.37,-390.8 1164.5,-390.8 1164.5,-390.8 1164.5,-390.8 1164.5,-121.6 1164.5,-121.6 1164.5,-121.6 1184.87,-121.6 1184.87,-121.6"/>
<polygon fill="fuchsia" stroke="fuchsia" points="1184.87,-125.1 1194.87,-121.6 1184.87,-118.1 1184.87,-125.1"/>
</g>
<!-- GPIO&#45;&gt;LED -->
<g id="edge78" class="edge">
<title>GPIO&#45;&gt;LED</title>
<path fill="none" stroke="black" d="M1143.4,-404.4C1175.25,-404.4 1223.5,-404.4 1223.5,-404.4 1223.5,-404.4 1223.5,-411.7 1223.5,-411.7"/>
<polygon fill="black" stroke="black" points="1220,-411.7 1223.5,-421.7 1227,-411.7 1220,-411.7"/>
</g>
<!-- GPIO&#45;&gt;LED_MONO -->
<g id="edge80" class="edge">
<title>GPIO&#45;&gt;LED_MONO</title>
<path fill="none" stroke="black" d="M1143.31,-397.6C1196.65,-397.6 1309.5,-397.6 1309.5,-397.6 1309.5,-397.6 1309.5,-434.5 1309.5,-434.5"/>
<polygon fill="black" stroke="black" points="1306,-434.5 1309.5,-444.5 1313,-434.5 1306,-434.5"/>
</g>
<!-- GPIO&#45;&gt;BUTTON -->
<g id="edge98" class="edge">
<title>GPIO&#45;&gt;BUTTON</title>
<path fill="none" stroke="blue" d="M1143.11,-411.2C1165.45,-411.2 1193.5,-411.2 1193.5,-411.2 1193.5,-411.2 1193.5,-503.5 1193.5,-503.5"/>
<polygon fill="blue" stroke="blue" points="1190,-503.5 1193.5,-513.5 1197,-503.5 1190,-503.5"/>
</g>
<!-- MCU -->
<g id="node20" class="node">
<title>MCU</title>
<polygon fill="none" stroke="black" points="1044.25,-417 990.25,-417 990.25,-381 1044.25,-381 1044.25,-417"/>
<text text-anchor="middle" x="1017.25" y="-393.95" font-family="Times,serif" font-size="14.00">MCU</text>
</g>
<!-- MCU&#45;&gt;GPIO -->
<g id="edge28" class="edge">
<title>MCU&#45;&gt;GPIO</title>
<path fill="none" stroke="black" d="M1044.5,-399.5C1044.5,-399.5 1077.5,-399.5 1077.5,-399.5"/>
<polygon fill="black" stroke="black" points="1077.5,-403 1087.5,-399.5 1077.5,-396 1077.5,-403"/>
</g>
<!-- TIMER&#45;&gt;TIME -->
<g id="edge37" class="edge">
<title>TIMER&#45;&gt;TIME</title>
<path fill="none" stroke="black" d="M954.68,-349C961.36,-349 966.5,-349 966.5,-349 966.5,-349 966.5,-491 966.5,-491 966.5,-491 978.8,-491 978.8,-491"/>
<polygon fill="black" stroke="black" points="978.8,-494.5 988.8,-491 978.8,-487.5 978.8,-494.5"/>
</g>
<!-- TIMER&#45;&gt;PWM -->
<g id="edge30" class="edge">
<title>TIMER&#45;&gt;PWM</title>
<path fill="none" stroke="black" d="M954.56,-340C954.56,-340 1184.73,-340 1184.73,-340"/>
<polygon fill="black" stroke="black" points="1184.73,-343.5 1194.73,-340 1184.73,-336.5 1184.73,-343.5"/>
</g>
<!-- MATH&#45;&gt;TIMER -->
<g id="edge36" class="edge">
<title>MATH&#45;&gt;TIMER</title>
<path fill="none" stroke="black" d="M841.97,-536.33C848.45,-536.33 853.5,-536.33 853.5,-536.33 853.5,-536.33 853.5,-361 853.5,-361 853.5,-361 884.02,-361 884.02,-361"/>
<polygon fill="black" stroke="black" points="884.02,-364.5 894.02,-361 884.02,-357.5 884.02,-364.5"/>
</g>
<!-- MATH&#45;&gt;LED_MONO -->
<g id="edge82" class="edge">
<title>MATH&#45;&gt;LED_MONO</title>
<path fill="none" stroke="black" d="M814.5,-528.62C814.5,-504.72 814.5,-466 814.5,-466 814.5,-466 1292.43,-466 1292.43,-466"/>
<polygon fill="black" stroke="black" points="1292.43,-469.5 1302.43,-466 1292.43,-462.5 1292.43,-469.5"/>
</g>
<!-- STRING_READER -->
<g id="node37" class="node">
<title>STRING_READER</title>
<polygon fill="none" stroke="black" points="1672.5,-292 1547,-292 1547,-256 1672.5,-256 1672.5,-292"/>
<text text-anchor="middle" x="1609.75" y="-268.95" font-family="Times,serif" font-size="14.00">STRING_READER</text>
</g>
<!-- UART&#45;&gt;STRING_READER -->
<g id="edge58" class="edge">
<title>UART&#45;&gt;STRING_READER</title>
<path fill="none" stroke="chartreuse" d="M1250.4,-112.2C1332.96,-112.2 1574.5,-112.2 1574.5,-112.2 1574.5,-112.2 1574.5,-244.75 1574.5,-244.75"/>
<polygon fill="chartreuse" stroke="chartreuse" points="1571,-244.75 1574.5,-254.75 1578,-244.75 1571,-244.75"/>
</g>
<!-- STREAM -->
<g id="node38" class="node">
<title>STREAM</title>
<polygon fill="none" stroke="black" points="1511,-200 1439.5,-200 1439.5,-164 1511,-164 1511,-200"/>
<text text-anchor="middle" x="1475.25" y="-176.95" font-family="Times,serif" font-size="14.00">STREAM</text>
</g>
<!-- UART&#45;&gt;STREAM -->
<g id="edge57" class="edge">
<title>UART&#45;&gt;STREAM</title>
<path fill="none" stroke="chartreuse" d="M1250.23,-125.4C1313.1,-125.4 1463.5,-125.4 1463.5,-125.4 1463.5,-125.4 1463.5,-152.78 1463.5,-152.78"/>
<polygon fill="chartreuse" stroke="chartreuse" points="1460,-152.78 1463.5,-162.78 1467,-152.78 1460,-152.78"/>
</g>
<!-- WRITER -->
<g id="node39" class="node">
<title>WRITER</title>
<polygon fill="none" stroke="black" points="1383.25,-170 1314.75,-170 1314.75,-134 1383.25,-134 1383.25,-170"/>
<text text-anchor="middle" x="1349" y="-146.95" font-family="Times,serif" font-size="14.00">WRITER</text>
</g>
<!-- UART&#45;&gt;WRITER -->
<g id="edge75" class="edge">
<title>UART&#45;&gt;WRITER</title>
<path fill="none" stroke="black" d="M1237.5,-132.33C1237.5,-146.6 1237.5,-164 1237.5,-164 1237.5,-164 1303.33,-164 1303.33,-164"/>
<polygon fill="black" stroke="black" points="1303.33,-167.5 1313.33,-164 1303.33,-160.5 1303.33,-167.5"/>
</g>
<!-- UART&#45;&gt;LOG -->
<g id="edge71" class="edge">
<title>UART&#45;&gt;LOG</title>
<path fill="none" stroke="black" d="M1250.62,-105.6C1250.62,-105.6 1571.4,-105.6 1571.4,-105.6"/>
<polygon fill="black" stroke="black" points="1571.4,-109.1 1581.4,-105.6 1571.4,-102.1 1571.4,-109.1"/>
</g>
<!-- FIFO -->
<g id="node25" class="node">
<title>FIFO</title>
<polygon fill="none" stroke="black" points="1143,-216 1089,-216 1089,-180 1143,-180 1143,-216"/>
<text text-anchor="middle" x="1116" y="-192.95" font-family="Times,serif" font-size="14.00">FIFO</text>
</g>
<!-- FIFO&#45;&gt;UART -->
<g id="edge41" class="edge">
<title>FIFO&#45;&gt;UART</title>
<path fill="none" stroke="black" d="M1143.4,-186.67C1175.25,-186.67 1223.5,-186.67 1223.5,-186.67 1223.5,-186.67 1223.5,-143.34 1223.5,-143.34"/>
<polygon fill="black" stroke="black" points="1227,-143.34 1223.5,-133.34 1220,-143.34 1227,-143.34"/>
</g>
<!-- FIFO&#45;&gt;STRING_READER -->
<g id="edge59" class="edge">
<title>FIFO&#45;&gt;STRING_READER</title>
<path fill="none" stroke="aqua" d="M1143.22,-210.67C1239.26,-210.67 1556.5,-210.67 1556.5,-210.67 1556.5,-210.67 1556.5,-244.68 1556.5,-244.68"/>
<polygon fill="aqua" stroke="aqua" points="1553,-244.68 1556.5,-254.68 1560,-244.68 1553,-244.68"/>
</g>
<!-- FIFO&#45;&gt;WRITER -->
<g id="edge74" class="edge">
<title>FIFO&#45;&gt;WRITER</title>
<path fill="none" stroke="black" d="M1143.24,-193.33C1204.84,-193.33 1349.5,-193.33 1349.5,-193.33 1349.5,-193.33 1349.5,-181.25 1349.5,-181.25"/>
<polygon fill="black" stroke="black" points="1353,-181.25 1349.5,-171.25 1346,-181.25 1353,-181.25"/>
</g>
<!-- FIFO&#45;&gt;LOG -->
<g id="edge70" class="edge">
<title>FIFO&#45;&gt;LOG</title>
<path fill="none" stroke="black" d="M1143.29,-205.33C1248.7,-205.33 1623.5,-205.33 1623.5,-205.33 1623.5,-205.33 1623.5,-146.3 1623.5,-146.3"/>
<polygon fill="black" stroke="black" points="1627,-146.3 1623.5,-136.3 1620,-146.3 1627,-146.3"/>
</g>
<!-- DMA -->
<g id="node26" class="node">
<title>DMA</title>
<polygon fill="none" stroke="black" points="1143,-86 1089,-86 1089,-50 1143,-50 1143,-86"/>
<text text-anchor="middle" x="1116" y="-62.95" font-family="Times,serif" font-size="14.00">DMA</text>
</g>
<!-- DMA&#45;&gt;UART -->
<g id="edge42" class="edge">
<title>DMA&#45;&gt;UART</title>
<path fill="none" stroke="green" d="M1116.5,-86.41C1116.5,-94.59 1116.5,-102.4 1116.5,-102.4 1116.5,-102.4 1184.67,-102.4 1184.67,-102.4"/>
<polygon fill="green" stroke="green" points="1184.67,-105.9 1194.67,-102.4 1184.67,-98.9 1184.67,-105.9"/>
</g>
<!-- PLL_CALC -->
<g id="node27" class="node">
<title>PLL_CALC</title>
<polygon fill="none" stroke="black" points="172.75,-788 90,-788 90,-752 172.75,-752 172.75,-788"/>
<text text-anchor="middle" x="131.38" y="-764.95" font-family="Times,serif" font-size="14.00">PLL_CALC</text>
</g>
<!-- PLL_CALC&#45;&gt;CLOCK -->
<g id="edge46" class="edge">
<title>PLL_CALC&#45;&gt;CLOCK</title>
<path fill="none" stroke="black" d="M169.5,-751.54C169.5,-722.47 169.5,-669.33 169.5,-669.33 169.5,-669.33 241.62,-669.33 241.62,-669.33"/>
<polygon fill="black" stroke="black" points="241.62,-672.83 251.62,-669.33 241.62,-665.83 241.62,-672.83"/>
</g>
<!-- APPLICATION -->
<g id="node52" class="node">
<title>APPLICATION</title>
<polygon fill="none" stroke="black" points="335.38,-788 232.38,-788 232.38,-752 335.38,-752 335.38,-788"/>
<text text-anchor="middle" x="283.88" y="-764.95" font-family="Times,serif" font-size="14.00">APPLICATION</text>
</g>
<!-- PLL_CALC&#45;&gt;APPLICATION -->
<g id="edge92" class="edge">
<title>PLL_CALC&#45;&gt;APPLICATION</title>
<path fill="none" stroke="black" d="M173.05,-770C173.05,-770 220.9,-770 220.9,-770"/>
<polygon fill="black" stroke="black" points="220.9,-773.5 230.9,-770 220.9,-766.5 220.9,-773.5"/>
</g>
<!-- NVRAM -->
<g id="node28" class="node">
<title>NVRAM</title>
<polygon fill="none" stroke="black" points="164.88,-680 97.88,-680 97.88,-644 164.88,-644 164.88,-680"/>
<text text-anchor="middle" x="131.38" y="-656.95" font-family="Times,serif" font-size="14.00">NVRAM</text>
</g>
<!-- NVRAM&#45;&gt;CLOCK -->
<g id="edge47" class="edge">
<title>NVRAM&#45;&gt;CLOCK</title>
<path fill="none" stroke="black" d="M165.22,-658.67C165.22,-658.67 241.72,-658.67 241.72,-658.67"/>
<polygon fill="black" stroke="black" points="241.72,-662.17 251.72,-658.67 241.72,-655.17 241.72,-662.17"/>
</g>
<!-- TIMER5 -->
<g id="node29" class="node">
<title>TIMER5</title>
<polygon fill="none" stroke="black" points="847.12,-274 781.62,-274 781.62,-238 847.12,-238 847.12,-274"/>
<text text-anchor="middle" x="814.38" y="-250.95" font-family="Times,serif" font-size="14.00">TIMER5</text>
</g>
<!-- TIMER5&#45;&gt;TIMER -->
<g id="edge49" class="edge">
<title>TIMER5&#45;&gt;TIMER</title>
<path fill="none" stroke="black" d="M847.42,-265C880.17,-265 925.5,-265 925.5,-265 925.5,-265 925.5,-319.77 925.5,-319.77"/>
<polygon fill="black" stroke="black" points="922,-319.77 925.5,-329.77 929,-319.77 922,-319.77"/>
</g>
<!-- TIMER2 -->
<g id="node30" class="node">
<title>TIMER2</title>
<polygon fill="none" stroke="black" points="847.12,-220 781.62,-220 781.62,-184 847.12,-184 847.12,-220"/>
<text text-anchor="middle" x="814.38" y="-196.95" font-family="Times,serif" font-size="14.00">TIMER2</text>
</g>
<!-- TIMER2&#45;&gt;TIMER -->
<g id="edge50" class="edge">
<title>TIMER2&#45;&gt;TIMER</title>
<path fill="none" stroke="black" d="M847.51,-200C884.88,-200 940.5,-200 940.5,-200 940.5,-200 940.5,-319.73 940.5,-319.73"/>
<polygon fill="black" stroke="black" points="937,-319.73 940.5,-329.73 944,-319.73 937,-319.73"/>
</g>
<!-- TIMER3 -->
<g id="node31" class="node">
<title>TIMER3</title>
<polygon fill="none" stroke="black" points="847.12,-420 781.62,-420 781.62,-384 847.12,-384 847.12,-420"/>
<text text-anchor="middle" x="814.38" y="-396.95" font-family="Times,serif" font-size="14.00">TIMER3</text>
</g>
<!-- TIMER3&#45;&gt;TIMER -->
<g id="edge51" class="edge">
<title>TIMER3&#45;&gt;TIMER</title>
<path fill="none" stroke="black" d="M847.42,-400.5C880.17,-400.5 925.5,-400.5 925.5,-400.5 925.5,-400.5 925.5,-378.3 925.5,-378.3"/>
<polygon fill="black" stroke="black" points="929,-378.3 925.5,-368.3 922,-378.3 929,-378.3"/>
</g>
<!-- TIMER9 -->
<g id="node32" class="node">
<title>TIMER9</title>
<polygon fill="none" stroke="black" points="847.12,-328 781.62,-328 781.62,-292 847.12,-292 847.12,-328"/>
<text text-anchor="middle" x="814.38" y="-304.95" font-family="Times,serif" font-size="14.00">TIMER9</text>
</g>
<!-- TIMER9&#45;&gt;TIMER -->
<g id="edge52" class="edge">
<title>TIMER9&#45;&gt;TIMER</title>
<path fill="none" stroke="black" d="M847.46,-310C875.26,-310 910.5,-310 910.5,-310 910.5,-310 910.5,-319.87 910.5,-319.87"/>
<polygon fill="black" stroke="black" points="907,-319.87 910.5,-329.87 914,-319.87 907,-319.87"/>
</g>
<!-- SWD -->
<g id="node33" class="node">
<title>SWD</title>
<polygon fill="none" stroke="black" points="1502.25,-918 1448.25,-918 1448.25,-882 1502.25,-882 1502.25,-918"/>
<text text-anchor="middle" x="1475.25" y="-894.95" font-family="Times,serif" font-size="14.00">SWD</text>
</g>
<!-- SEGGER_RTT -->
<g id="node34" class="node">
<title>SEGGER_RTT</title>
<polygon fill="none" stroke="black" points="1659.75,-676 1559.75,-676 1559.75,-640 1659.75,-640 1659.75,-676"/>
<text text-anchor="middle" x="1609.75" y="-652.95" font-family="Times,serif" font-size="14.00">SEGGER_RTT</text>
</g>
<!-- SWD&#45;&gt;SEGGER_RTT -->
<g id="edge53" class="edge">
<title>SWD&#45;&gt;SEGGER_RTT</title>
<path fill="none" stroke="black" d="M1475.5,-881.69C1475.5,-827.46 1475.5,-671.5 1475.5,-671.5 1475.5,-671.5 1548.38,-671.5 1548.38,-671.5"/>
<polygon fill="black" stroke="black" points="1548.38,-675 1558.38,-671.5 1548.38,-668 1548.38,-675"/>
</g>
<!-- CLI -->
<g id="node35" class="node">
<title>CLI</title>
<polygon fill="none" stroke="black" points="1762.5,-292 1708.5,-292 1708.5,-256 1762.5,-256 1762.5,-292"/>
<text text-anchor="middle" x="1735.5" y="-268.95" font-family="Times,serif" font-size="14.00">CLI</text>
</g>
<!-- SEGGER_RTT&#45;&gt;CLI -->
<g id="edge54" class="edge">
<title>SEGGER_RTT&#45;&gt;CLI</title>
<path fill="none" stroke="black" d="M1660.2,-658C1700.23,-658 1749.5,-658 1749.5,-658 1749.5,-658 1749.5,-303.26 1749.5,-303.26"/>
<polygon fill="black" stroke="black" points="1753,-303.26 1749.5,-293.26 1746,-303.26 1753,-303.26"/>
</g>
<!-- STRING -->
<g id="node36" class="node">
<title>STRING</title>
<polygon fill="none" stroke="black" points="1507.62,-368 1442.88,-368 1442.88,-332 1507.62,-332 1507.62,-368"/>
<text text-anchor="middle" x="1475.25" y="-344.95" font-family="Times,serif" font-size="14.00">STRING</text>
</g>
<!-- STRING&#45;&gt;CLI -->
<g id="edge61" class="edge">
<title>STRING&#45;&gt;CLI</title>
<path fill="none" stroke="aqua" d="M1508.08,-342.67C1575.34,-342.67 1722.5,-342.67 1722.5,-342.67 1722.5,-342.67 1722.5,-303.4 1722.5,-303.4"/>
<polygon fill="aqua" stroke="aqua" points="1726,-303.4 1722.5,-293.4 1719,-303.4 1726,-303.4"/>
</g>
<!-- STRING&#45;&gt;STRING_READER -->
<g id="edge55" class="edge">
<title>STRING&#45;&gt;STRING_READER</title>
<path fill="none" stroke="aqua" d="M1507.98,-337.33C1529.42,-337.33 1553.5,-337.33 1553.5,-337.33 1553.5,-337.33 1553.5,-303.32 1553.5,-303.32"/>
<polygon fill="aqua" stroke="aqua" points="1557,-303.32 1553.5,-293.32 1550,-303.32 1557,-303.32"/>
</g>
<!-- CSV -->
<g id="node41" class="node">
<title>CSV</title>
<polygon fill="none" stroke="black" points="1636.75,-384 1582.75,-384 1582.75,-348 1636.75,-348 1636.75,-384"/>
<text text-anchor="middle" x="1609.75" y="-360.95" font-family="Times,serif" font-size="14.00">CSV</text>
</g>
<!-- STRING&#45;&gt;CSV -->
<g id="edge67" class="edge">
<title>STRING&#45;&gt;CSV</title>
<path fill="none" stroke="black" d="M1507.81,-358C1507.81,-358 1571.48,-358 1571.48,-358"/>
<polygon fill="black" stroke="black" points="1571.48,-361.5 1581.48,-358 1571.48,-354.5 1571.48,-361.5"/>
</g>
<!-- STRING_READER&#45;&gt;CLI -->
<g id="edge62" class="edge">
<title>STRING_READER&#45;&gt;CLI</title>
<path fill="none" stroke="aqua" d="M1672.99,-274C1672.99,-274 1697.09,-274 1697.09,-274"/>
<polygon fill="aqua" stroke="aqua" points="1697.09,-277.5 1707.09,-274 1697.09,-270.5 1697.09,-277.5"/>
</g>
<!-- STREAM&#45;&gt;CLI -->
<g id="edge63" class="edge">
<title>STREAM&#45;&gt;CLI</title>
<path fill="none" stroke="aqua" d="M1511.47,-182C1580.14,-182 1722.5,-182 1722.5,-182 1722.5,-182 1722.5,-244.82 1722.5,-244.82"/>
<polygon fill="aqua" stroke="aqua" points="1719,-244.82 1722.5,-254.82 1726,-244.82 1719,-244.82"/>
</g>
<!-- STREAM&#45;&gt;STRING_READER -->
<g id="edge56" class="edge">
<title>STREAM&#45;&gt;STRING_READER</title>
<path fill="none" stroke="black" d="M1511.44,-191C1536.55,-191 1565.5,-191 1565.5,-191 1565.5,-191 1565.5,-244.58 1565.5,-244.58"/>
<polygon fill="black" stroke="black" points="1562,-244.58 1565.5,-254.58 1569,-244.58 1562,-244.58"/>
</g>
<!-- STREAM&#45;&gt;LOG -->
<g id="edge69" class="edge">
<title>STREAM&#45;&gt;LOG</title>
<path fill="none" stroke="black" d="M1511.49,-173C1551.56,-173 1610.5,-173 1610.5,-173 1610.5,-173 1610.5,-146.34 1610.5,-146.34"/>
<polygon fill="black" stroke="black" points="1614,-146.34 1610.5,-136.34 1607,-146.34 1614,-146.34"/>
</g>
<!-- WRITER&#45;&gt;CLI -->
<g id="edge60" class="edge">
<title>WRITER&#45;&gt;CLI</title>
<path fill="none" stroke="aqua" d="M1383.64,-149.5C1478.51,-149.5 1735.5,-149.5 1735.5,-149.5 1735.5,-149.5 1735.5,-244.63 1735.5,-244.63"/>
<polygon fill="aqua" stroke="aqua" points="1732,-244.63 1735.5,-254.63 1739,-244.63 1732,-244.63"/>
</g>
<!-- WRITER&#45;&gt;STREAM -->
<g id="edge73" class="edge">
<title>WRITER&#45;&gt;STREAM</title>
<path fill="none" stroke="black" d="M1383.59,-156.75C1424.61,-156.75 1487.5,-156.75 1487.5,-156.75 1487.5,-156.75 1487.5,-157.44 1487.5,-157.44"/>
<polygon fill="black" stroke="black" points="1484,-152.65 1487.5,-162.65 1491,-152.65 1484,-152.65"/>
</g>
<!-- WRITER&#45;&gt;LOG -->
<g id="edge72" class="edge">
<title>WRITER&#45;&gt;LOG</title>
<path fill="none" stroke="black" d="M1383.67,-142.25C1451.79,-142.25 1596.5,-142.25 1596.5,-142.25 1596.5,-142.25 1596.5,-141.56 1596.5,-141.56"/>
<polygon fill="black" stroke="black" points="1600,-146.35 1596.5,-136.35 1593,-146.35 1600,-146.35"/>
</g>
<!-- LOG&#45;&gt;CLI -->
<g id="edge64" class="edge">
<title>LOG&#45;&gt;CLI</title>
<path fill="none" stroke="aqua" d="M1637.03,-117C1677.7,-117 1749.5,-117 1749.5,-117 1749.5,-117 1749.5,-244.68 1749.5,-244.68"/>
<polygon fill="aqua" stroke="aqua" points="1746,-244.68 1749.5,-254.68 1753,-244.68 1746,-244.68"/>
</g>
<!-- CSV&#45;&gt;CLI -->
<g id="edge65" class="edge">
<title>CSV&#45;&gt;CLI</title>
<path fill="none" stroke="aqua" d="M1637.04,-366C1674.02,-366 1735.5,-366 1735.5,-366 1735.5,-366 1735.5,-303.18 1735.5,-303.18"/>
<polygon fill="aqua" stroke="aqua" points="1739,-303.18 1735.5,-293.18 1732,-303.18 1739,-303.18"/>
</g>
<!-- RAM -->
<g id="node42" class="node">
<title>RAM</title>
<polygon fill="none" stroke="black" points="54,-853 0,-853 0,-817 54,-817 54,-853"/>
<text text-anchor="middle" x="27" y="-829.95" font-family="Times,serif" font-size="14.00">RAM</text>
</g>
<!-- RAM&#45;&gt;INTERVAL -->
<g id="edge95" class="edge">
<title>RAM&#45;&gt;INTERVAL</title>
<path fill="none" stroke="black" d="M40.5,-816.82C40.5,-790.01 40.5,-743 40.5,-743 40.5,-743 383.83,-743 383.83,-743"/>
<polygon fill="black" stroke="black" points="383.83,-746.5 393.83,-743 383.83,-739.5 383.83,-746.5"/>
</g>
<!-- RAM&#45;&gt;PLL_CALC -->
<g id="edge91" class="edge">
<title>RAM&#45;&gt;PLL_CALC</title>
<path fill="none" stroke="black" d="M54.46,-835C74.25,-835 97.5,-835 97.5,-835 97.5,-835 97.5,-799.45 97.5,-799.45"/>
<polygon fill="black" stroke="black" points="101,-799.45 97.5,-789.45 94,-799.45 101,-799.45"/>
</g>
<!-- RAM&#45;&gt;CSV -->
<g id="edge66" class="edge">
<title>RAM&#45;&gt;CSV</title>
<path fill="none" stroke="black" d="M13.5,-816.58C13.5,-730.53 13.5,-372.33 13.5,-372.33 13.5,-372.33 1571.38,-372.33 1571.38,-372.33"/>
<polygon fill="black" stroke="black" points="1571.38,-375.83 1581.38,-372.33 1571.38,-368.83 1571.38,-375.83"/>
</g>
<!-- CRC8 -->
<g id="node49" class="node">
<title>CRC8</title>
<polygon fill="none" stroke="black" points="158.38,-734 104.38,-734 104.38,-698 158.38,-698 158.38,-734"/>
<text text-anchor="middle" x="131.38" y="-710.95" font-family="Times,serif" font-size="14.00">CRC8</text>
</g>
<!-- RAM&#45;&gt;CRC8 -->
<g id="edge88" class="edge">
<title>RAM&#45;&gt;CRC8</title>
<path fill="none" stroke="black" d="M27.5,-816.67C27.5,-783.29 27.5,-716 27.5,-716 27.5,-716 93.08,-716 93.08,-716"/>
<polygon fill="black" stroke="black" points="93.08,-719.5 103.08,-716 93.08,-712.5 93.08,-719.5"/>
</g>
<!-- CRC16 -->
<g id="node50" class="node">
<title>CRC16</title>
<polygon fill="none" stroke="black" points="159.62,-972 103.12,-972 103.12,-936 159.62,-936 159.62,-972"/>
<text text-anchor="middle" x="131.38" y="-948.95" font-family="Times,serif" font-size="14.00">CRC16</text>
</g>
<!-- RAM&#45;&gt;CRC16 -->
<g id="edge89" class="edge">
<title>RAM&#45;&gt;CRC16</title>
<path fill="none" stroke="black" d="M18.5,-853.33C18.5,-886.71 18.5,-954 18.5,-954 18.5,-954 91.89,-954 91.89,-954"/>
<polygon fill="black" stroke="black" points="91.89,-957.5 101.89,-954 91.89,-950.5 91.89,-957.5"/>
</g>
<!-- CRC32 -->
<g id="node51" class="node">
<title>CRC32</title>
<polygon fill="none" stroke="black" points="159.62,-918 103.12,-918 103.12,-882 159.62,-882 159.62,-918"/>
<text text-anchor="middle" x="131.38" y="-894.95" font-family="Times,serif" font-size="14.00">CRC32</text>
</g>
<!-- RAM&#45;&gt;CRC32 -->
<g id="edge90" class="edge">
<title>RAM&#45;&gt;CRC32</title>
<path fill="none" stroke="black" d="M36.5,-853.45C36.5,-872.67 36.5,-900 36.5,-900 36.5,-900 91.65,-900 91.65,-900"/>
<polygon fill="black" stroke="black" points="91.65,-903.5 101.65,-900 91.65,-896.5 91.65,-903.5"/>
</g>
<!-- LED&#45;&gt;LED_MONO -->
<g id="edge83" class="edge">
<title>LED&#45;&gt;LED_MONO</title>
<path fill="none" stroke="black" d="M1250.44,-452.5C1250.44,-452.5 1292.43,-452.5 1292.43,-452.5"/>
<polygon fill="black" stroke="black" points="1292.43,-456 1302.43,-452.5 1292.43,-449 1292.43,-456"/>
</g>
<!-- SUPER_CYCLE -->
<g id="node47" class="node">
<title>SUPER_CYCLE</title>
<polygon fill="none" stroke="black" points="1403.5,-703 1294.5,-703 1294.5,-667 1403.5,-667 1403.5,-703"/>
<text text-anchor="middle" x="1349" y="-679.95" font-family="Times,serif" font-size="14.00">SUPER_CYCLE</text>
</g>
<!-- SCHEDULER&#45;&gt;SUPER_CYCLE -->
<g id="edge84" class="edge">
<title>SCHEDULER&#45;&gt;SUPER_CYCLE</title>
<path fill="none" stroke="black" d="M1258.52,-685C1258.52,-685 1283.1,-685 1283.1,-685"/>
<polygon fill="black" stroke="black" points="1283.1,-688.5 1293.1,-685 1283.1,-681.5 1283.1,-688.5"/>
</g>
<!-- LIMITER&#45;&gt;SCHEDULER -->
<g id="edge85" class="edge">
<title>LIMITER&#45;&gt;SCHEDULER</title>
<path fill="none" stroke="green" d="M1151.97,-691C1151.97,-691 1176.8,-691 1176.8,-691"/>
<polygon fill="green" stroke="green" points="1176.8,-694.5 1186.8,-691 1176.8,-687.5 1176.8,-694.5"/>
</g>
<!-- ASM -->
<g id="node53" class="node">
<title>ASM</title>
<polygon fill="none" stroke="black" points="715.5,-550 661.5,-550 661.5,-514 715.5,-514 715.5,-550"/>
<text text-anchor="middle" x="688.5" y="-526.95" font-family="Times,serif" font-size="14.00">ASM</text>
</g>
<!-- ASM&#45;&gt;MATH -->
<g id="edge96" class="edge">
<title>ASM&#45;&gt;MATH</title>
<path fill="none" stroke="black" d="M715.81,-539.5C715.81,-539.5 775.68,-539.5 775.68,-539.5"/>
<polygon fill="black" stroke="black" points="775.68,-543 785.68,-539.5 775.68,-536 775.68,-543"/>
</g>
<!-- DWT -->
<g id="node55" class="node">
<title>DWT</title>
<polygon fill="none" stroke="black" points="951.88,-509 897.88,-509 897.88,-473 951.88,-473 951.88,-509"/>
<text text-anchor="middle" x="924.88" y="-485.95" font-family="Times,serif" font-size="14.00">DWT</text>
</g>
<!-- DWT&#45;&gt;TIME -->
<g id="edge101" class="edge">
<title>DWT&#45;&gt;TIME</title>
<path fill="none" stroke="black" d="M952.34,-500C952.34,-500 979.05,-500 979.05,-500"/>
<polygon fill="black" stroke="black" points="979.05,-503.5 989.05,-500 979.05,-496.5 979.05,-503.5"/>
</g>
</g>
</svg>
