<?xml version="1.0" encoding="UTF-8" standalone="no"?>
<!DOCTYPE svg PUBLIC "-//W3C//DTD SVG 1.1//EN"
 "http://www.w3.org/Graphics/SVG/1.1/DTD/svg11.dtd">
<!-- Generated by graphviz version 8.0.5 (20230508.1809)
 -->
<!-- Title: graphname Pages: 1 -->
<svg width="1642pt" height="998pt"
 viewBox="0.00 0.00 1642.00 998.00" xmlns="http://www.w3.org/2000/svg" xmlns:xlink="http://www.w3.org/1999/xlink">
<g id="graph0" class="graph" transform="scale(1 1) rotate(0) translate(4 994)">
<title>graphname</title>
<polygon fill="white" stroke="none" points="-4,4 -4,-994 1638,-994 1638,4 -4,4"/>
<!-- XXX -->
<g id="node1" class="node">
<title>XXX</title>
<polygon fill="none" stroke="black" points="102.12,-132 48.12,-132 48.12,-96 102.12,-96 102.12,-132"/>
<text text-anchor="middle" x="75.12" y="-108.95" font-family="Times,serif" font-size="14.00">XXX</text>
</g>
<!-- LOOPBACK_AUDIO -->
<g id="node2" class="node">
<title>LOOPBACK_AUDIO</title>
<polygon fill="none" stroke="black" points="325.25,-132 186.25,-132 186.25,-96 325.25,-96 325.25,-132"/>
<text text-anchor="middle" x="255.75" y="-108.95" font-family="Times,serif" font-size="14.00">LOOPBACK_AUDIO</text>
</g>
<!-- XXX&#45;&gt;LOOPBACK_AUDIO -->
<g id="edge1" class="edge">
<title>XXX&#45;&gt;LOOPBACK_AUDIO</title>
<path fill="none" stroke="black" d="M102.56,-114C102.56,-114 174.85,-114 174.85,-114"/>
<polygon fill="black" stroke="black" points="174.85,-117.5 184.85,-114 174.85,-110.5 174.85,-117.5"/>
</g>
<!-- LED -->
<g id="node3" class="node">
<title>LED</title>
<polygon fill="none" stroke="black" points="943.25,-331 889.25,-331 889.25,-295 943.25,-295 943.25,-331"/>
<text text-anchor="middle" x="916.25" y="-307.95" font-family="Times,serif" font-size="14.00">LED</text>
</g>
<!-- SOUND_RECORDER -->
<g id="node4" class="node">
<title>SOUND_RECORDER</title>
<polygon fill="none" stroke="black" points="1634,-778 1492.75,-778 1492.75,-742 1634,-742 1634,-778"/>
<text text-anchor="middle" x="1563.38" y="-754.95" font-family="Times,serif" font-size="14.00">SOUND_RECORDER</text>
</g>
<!-- LED&#45;&gt;SOUND_RECORDER -->
<g id="edge2" class="edge">
<title>LED&#45;&gt;SOUND_RECORDER</title>
<path fill="none" stroke="black" d="M943.47,-319C1059.26,-319 1505,-319 1505,-319 1505,-319 1505,-730.61 1505,-730.61"/>
<polygon fill="black" stroke="black" points="1501.5,-730.61 1505,-740.61 1508.5,-730.61 1501.5,-730.61"/>
</g>
<!-- WAV_PLAYER -->
<g id="node14" class="node">
<title>WAV_PLAYER</title>
<polygon fill="none" stroke="black" points="1615.62,-692 1511.12,-692 1511.12,-656 1615.62,-656 1615.62,-692"/>
<text text-anchor="middle" x="1563.38" y="-668.95" font-family="Times,serif" font-size="14.00">WAV_PLAYER</text>
</g>
<!-- LED&#45;&gt;WAV_PLAYER -->
<g id="edge15" class="edge">
<title>LED&#45;&gt;WAV_PLAYER</title>
<path fill="none" stroke="black" d="M943.67,-307C1066.96,-307 1564,-307 1564,-307 1564,-307 1564,-644.55 1564,-644.55"/>
<polygon fill="black" stroke="black" points="1560.5,-644.55 1564,-654.55 1567.5,-644.55 1560.5,-644.55"/>
</g>
<!-- LED_MONO -->
<g id="node47" class="node">
<title>LED_MONO</title>
<polygon fill="none" stroke="black" points="1097.75,-245 1006.75,-245 1006.75,-209 1097.75,-209 1097.75,-245"/>
<text text-anchor="middle" x="1052.25" y="-221.95" font-family="Times,serif" font-size="14.00">LED_MONO</text>
</g>
<!-- LED&#45;&gt;LED_MONO -->
<g id="edge93" class="edge">
<title>LED&#45;&gt;LED_MONO</title>
<path fill="none" stroke="black" d="M926,-294.64C926,-273.09 926,-240.25 926,-240.25 926,-240.25 995.31,-240.25 995.31,-240.25"/>
<polygon fill="black" stroke="black" points="995.31,-243.75 1005.31,-240.25 995.31,-236.75 995.31,-243.75"/>
</g>
<!-- WM8731 -->
<g id="node5" class="node">
<title>WM8731</title>
<polygon fill="none" stroke="black" points="1086.88,-783 1017.62,-783 1017.62,-747 1086.88,-747 1086.88,-783"/>
<text text-anchor="middle" x="1052.25" y="-759.95" font-family="Times,serif" font-size="14.00">WM8731</text>
</g>
<!-- WM8731&#45;&gt;SOUND_RECORDER -->
<g id="edge3" class="edge">
<title>WM8731&#45;&gt;SOUND_RECORDER</title>
<path fill="none" stroke="black" d="M1086.98,-755C1086.98,-755 1481.5,-755 1481.5,-755"/>
<polygon fill="black" stroke="black" points="1481.5,-758.5 1491.5,-755 1481.5,-751.5 1481.5,-758.5"/>
</g>
<!-- DDS -->
<g id="node13" class="node">
<title>DDS</title>
<polygon fill="none" stroke="black" points="1196.5,-863 1142.5,-863 1142.5,-827 1196.5,-827 1196.5,-863"/>
<text text-anchor="middle" x="1169.5" y="-839.95" font-family="Times,serif" font-size="14.00">DDS</text>
</g>
<!-- WM8731&#45;&gt;DDS -->
<g id="edge11" class="edge">
<title>WM8731&#45;&gt;DDS</title>
<path fill="none" stroke="black" d="M1087.26,-771C1121.97,-771 1170,-771 1170,-771 1170,-771 1170,-815.71 1170,-815.71"/>
<polygon fill="black" stroke="black" points="1166.5,-815.71 1170,-825.71 1173.5,-815.71 1166.5,-815.71"/>
</g>
<!-- WM8731&#45;&gt;WAV_PLAYER -->
<g id="edge13" class="edge">
<title>WM8731&#45;&gt;WAV_PLAYER</title>
<path fill="none" stroke="black" d="M1087.11,-751C1165.91,-751 1351,-751 1351,-751 1351,-751 1351,-675.33 1351,-675.33 1351,-675.33 1499.88,-675.33 1499.88,-675.33"/>
<polygon fill="black" stroke="black" points="1499.88,-678.83 1509.88,-675.33 1499.88,-671.83 1499.88,-678.83"/>
</g>
<!-- WAV -->
<g id="node6" class="node">
<title>WAV</title>
<polygon fill="none" stroke="black" points="1456.75,-795 1402.75,-795 1402.75,-759 1456.75,-759 1456.75,-795"/>
<text text-anchor="middle" x="1429.75" y="-771.95" font-family="Times,serif" font-size="14.00">WAV</text>
</g>
<!-- WAV&#45;&gt;SOUND_RECORDER -->
<g id="edge4" class="edge">
<title>WAV&#45;&gt;SOUND_RECORDER</title>
<path fill="none" stroke="black" d="M1457.11,-768.5C1457.11,-768.5 1481.42,-768.5 1481.42,-768.5"/>
<polygon fill="black" stroke="black" points="1481.42,-772 1491.42,-768.5 1481.42,-765 1481.42,-772"/>
</g>
<!-- WAV&#45;&gt;WAV_PLAYER -->
<g id="edge12" class="edge">
<title>WAV&#45;&gt;WAV_PLAYER</title>
<path fill="none" stroke="black" d="M1430,-758.56C1430,-731.36 1430,-683.67 1430,-683.67 1430,-683.67 1499.66,-683.67 1499.66,-683.67"/>
<polygon fill="black" stroke="black" points="1499.66,-687.17 1509.66,-683.67 1499.66,-680.17 1499.66,-687.17"/>
</g>
<!-- FAT_FS -->
<g id="node7" class="node">
<title>FAT_FS</title>
<polygon fill="none" stroke="black" points="1334.5,-795 1273.5,-795 1273.5,-759 1334.5,-759 1334.5,-795"/>
<text text-anchor="middle" x="1304" y="-771.95" font-family="Times,serif" font-size="14.00">FAT_FS</text>
</g>
<!-- FAT_FS&#45;&gt;WAV -->
<g id="edge5" class="edge">
<title>FAT_FS&#45;&gt;WAV</title>
<path fill="none" stroke="black" d="M1334.76,-777C1334.76,-777 1391.3,-777 1391.3,-777"/>
<polygon fill="black" stroke="black" points="1391.3,-780.5 1401.3,-777 1391.3,-773.5 1391.3,-780.5"/>
</g>
<!-- CLI -->
<g id="node8" class="node">
<title>CLI</title>
<polygon fill="none" stroke="black" points="1456.75,-627 1402.75,-627 1402.75,-591 1456.75,-591 1456.75,-627"/>
<text text-anchor="middle" x="1429.75" y="-603.95" font-family="Times,serif" font-size="14.00">CLI</text>
</g>
<!-- CLI&#45;&gt;SOUND_RECORDER -->
<g id="edge6" class="edge">
<title>CLI&#45;&gt;SOUND_RECORDER</title>
<path fill="none" stroke="black" d="M1457.12,-609C1476.48,-609 1499,-609 1499,-609 1499,-609 1499,-730.79 1499,-730.79"/>
<polygon fill="black" stroke="black" points="1495.5,-730.79 1499,-740.79 1502.5,-730.79 1495.5,-730.79"/>
</g>
<!-- CLI&#45;&gt;WAV_PLAYER -->
<g id="edge14" class="edge">
<title>CLI&#45;&gt;WAV_PLAYER</title>
<path fill="none" stroke="black" d="M1444,-627.34C1444,-643.67 1444,-665 1444,-665 1444,-665 1499.67,-665 1499.67,-665"/>
<polygon fill="black" stroke="black" points="1499.67,-668.5 1509.67,-665 1499.67,-661.5 1499.67,-668.5"/>
</g>
<!-- DISK -->
<g id="node9" class="node">
<title>DISK</title>
<polygon fill="none" stroke="black" points="1196.5,-917 1142.5,-917 1142.5,-881 1196.5,-881 1196.5,-917"/>
<text text-anchor="middle" x="1169.5" y="-893.95" font-family="Times,serif" font-size="14.00">DISK</text>
</g>
<!-- DISK&#45;&gt;FAT_FS -->
<g id="edge7" class="edge">
<title>DISK&#45;&gt;FAT_FS</title>
<path fill="none" stroke="black" d="M1196.72,-899C1236.02,-899 1304,-899 1304,-899 1304,-899 1304,-806.26 1304,-806.26"/>
<polygon fill="black" stroke="black" points="1307.5,-806.26 1304,-796.26 1300.5,-806.26 1307.5,-806.26"/>
</g>
<!-- SDIO -->
<g id="node10" class="node">
<title>SDIO</title>
<polygon fill="none" stroke="black" points="943.25,-900 889.25,-900 889.25,-864 943.25,-864 943.25,-900"/>
<text text-anchor="middle" x="916.25" y="-876.95" font-family="Times,serif" font-size="14.00">SDIO</text>
</g>
<!-- SDIO&#45;&gt;DISK -->
<g id="edge8" class="edge">
<title>SDIO&#45;&gt;DISK</title>
<path fill="none" stroke="black" d="M943.35,-890.5C943.35,-890.5 1131.21,-890.5 1131.21,-890.5"/>
<polygon fill="black" stroke="black" points="1131.21,-894 1141.21,-890.5 1131.21,-887 1131.21,-894"/>
</g>
<!-- SD_CARD -->
<g id="node52" class="node">
<title>SD_CARD</title>
<polygon fill="none" stroke="black" points="1091,-946 1013.5,-946 1013.5,-910 1091,-910 1091,-946"/>
<text text-anchor="middle" x="1052.25" y="-922.95" font-family="Times,serif" font-size="14.00">SD_CARD</text>
</g>
<!-- SDIO&#45;&gt;SD_CARD -->
<g id="edge98" class="edge">
<title>SDIO&#45;&gt;SD_CARD</title>
<path fill="none" stroke="black" d="M917,-900.23C917,-913.62 917,-929.5 917,-929.5 917,-929.5 1002.13,-929.5 1002.13,-929.5"/>
<polygon fill="black" stroke="black" points="1002.13,-933 1012.13,-929.5 1002.13,-926 1002.13,-933"/>
</g>
<!-- DMA -->
<g id="node11" class="node">
<title>DMA</title>
<polygon fill="none" stroke="black" points="808,-728 754,-728 754,-692 808,-692 808,-728"/>
<text text-anchor="middle" x="781" y="-704.95" font-family="Times,serif" font-size="14.00">DMA</text>
</g>
<!-- DMA&#45;&gt;SDIO -->
<g id="edge9" class="edge">
<title>DMA&#45;&gt;SDIO</title>
<path fill="none" stroke="black" d="M781,-728.35C781,-769.83 781,-867.25 781,-867.25 781,-867.25 877.88,-867.25 877.88,-867.25"/>
<polygon fill="black" stroke="black" points="877.88,-870.75 887.88,-867.25 877.88,-863.75 877.88,-870.75"/>
</g>
<!-- I2S -->
<g id="node12" class="node">
<title>I2S</title>
<polygon fill="none" stroke="black" points="943.25,-783 889.25,-783 889.25,-747 943.25,-747 943.25,-783"/>
<text text-anchor="middle" x="916.25" y="-759.95" font-family="Times,serif" font-size="14.00">I2S</text>
</g>
<!-- DMA&#45;&gt;I2S -->
<g id="edge10" class="edge">
<title>DMA&#45;&gt;I2S</title>
<path fill="none" stroke="black" d="M808.19,-720C847.88,-720 917,-720 917,-720 917,-720 917,-735.7 917,-735.7"/>
<polygon fill="black" stroke="black" points="913.5,-735.7 917,-745.7 920.5,-735.7 913.5,-735.7"/>
</g>
<!-- UART -->
<g id="node36" class="node">
<title>UART</title>
<polygon fill="none" stroke="black" points="943.25,-570 889.25,-570 889.25,-534 943.25,-534 943.25,-570"/>
<text text-anchor="middle" x="916.25" y="-546.95" font-family="Times,serif" font-size="14.00">UART</text>
</g>
<!-- DMA&#45;&gt;UART -->
<g id="edge57" class="edge">
<title>DMA&#45;&gt;UART</title>
<path fill="none" stroke="green" d="M781,-691.55C781,-651.88 781,-562 781,-562 781,-562 877.88,-562 877.88,-562"/>
<polygon fill="green" stroke="green" points="877.88,-565.5 887.88,-562 877.88,-558.5 877.88,-565.5"/>
</g>
<!-- I2S&#45;&gt;WM8731 -->
<g id="edge100" class="edge">
<title>I2S&#45;&gt;WM8731</title>
<path fill="none" stroke="black" d="M943.44,-765C943.44,-765 1006.34,-765 1006.34,-765"/>
<polygon fill="black" stroke="black" points="1006.34,-768.5 1016.34,-765 1006.34,-761.5 1006.34,-768.5"/>
</g>
<!-- I2S&#45;&gt;DDS -->
<g id="edge51" class="edge">
<title>I2S&#45;&gt;DDS</title>
<path fill="none" stroke="black" d="M917,-783.25C917,-804.68 917,-837.33 917,-837.33 917,-837.33 1131.48,-837.33 1131.48,-837.33"/>
<polygon fill="black" stroke="black" points="1131.48,-840.83 1141.48,-837.33 1131.48,-833.83 1131.48,-840.83"/>
</g>
<!-- DEBUGGER -->
<g id="node15" class="node">
<title>DEBUGGER</title>
<polygon fill="none" stroke="black" points="825.75,-78 736.25,-78 736.25,-42 825.75,-42 825.75,-78"/>
<text text-anchor="middle" x="781" y="-54.95" font-family="Times,serif" font-size="14.00">DEBUGGER</text>
</g>
<!-- CORE -->
<g id="node16" class="node">
<title>CORE</title>
<polygon fill="none" stroke="black" points="943.25,-36 889.25,-36 889.25,0 943.25,0 943.25,-36"/>
<text text-anchor="middle" x="916.25" y="-12.95" font-family="Times,serif" font-size="14.00">CORE</text>
</g>
<!-- DEBUGGER&#45;&gt;CORE -->
<g id="edge16" class="edge">
<title>DEBUGGER&#45;&gt;CORE</title>
<path fill="none" stroke="black" d="M825.91,-49.5C865.52,-49.5 917,-49.5 917,-49.5 917,-49.5 917,-47.32 917,-47.32"/>
<polygon fill="black" stroke="black" points="920.5,-47.32 917,-37.32 913.5,-47.32 920.5,-47.32"/>
</g>
<!-- FLASH -->
<g id="node30" class="node">
<title>FLASH</title>
<polygon fill="none" stroke="black" points="681.88,-135 623.12,-135 623.12,-99 681.88,-99 681.88,-135"/>
<text text-anchor="middle" x="652.5" y="-111.95" font-family="Times,serif" font-size="14.00">FLASH</text>
</g>
<!-- DEBUGGER&#45;&gt;FLASH -->
<g id="edge42" class="edge">
<title>DEBUGGER&#45;&gt;FLASH</title>
<path fill="none" stroke="black" d="M740,-78.49C740,-90.14 740,-103 740,-103 740,-103 693.12,-103 693.12,-103"/>
<polygon fill="black" stroke="black" points="693.12,-99.5 683.12,-103 693.12,-106.5 693.12,-99.5"/>
</g>
<!-- BOOT -->
<g id="node46" class="node">
<title>BOOT</title>
<polygon fill="none" stroke="black" points="1079.25,-36 1025.25,-36 1025.25,0 1079.25,0 1079.25,-36"/>
<text text-anchor="middle" x="1052.25" y="-12.95" font-family="Times,serif" font-size="14.00">BOOT</text>
</g>
<!-- CORE&#45;&gt;BOOT -->
<g id="edge86" class="edge">
<title>CORE&#45;&gt;BOOT</title>
<path fill="none" stroke="black" d="M943.44,-18C943.44,-18 1014.1,-18 1014.1,-18"/>
<polygon fill="black" stroke="black" points="1014.1,-21.5 1024.1,-18 1014.1,-14.5 1014.1,-21.5"/>
</g>
<!-- CLOCK -->
<g id="node17" class="node">
<title>CLOCK</title>
<polygon fill="none" stroke="black" points="437.25,-180 375.5,-180 375.5,-144 437.25,-144 437.25,-180"/>
<text text-anchor="middle" x="406.38" y="-156.95" font-family="Times,serif" font-size="14.00">CLOCK</text>
</g>
<!-- CLOCK&#45;&gt;CORE -->
<g id="edge17" class="edge">
<title>CLOCK&#45;&gt;CORE</title>
<path fill="none" stroke="black" d="M407,-143.76C407,-105.01 407,-18 407,-18 407,-18 877.87,-18 877.87,-18"/>
<polygon fill="black" stroke="black" points="877.87,-21.5 887.87,-18 877.87,-14.5 877.87,-21.5"/>
</g>
<!-- SYSTICK -->
<g id="node24" class="node">
<title>SYSTICK</title>
<polygon fill="none" stroke="black" points="564.25,-538 492,-538 492,-502 564.25,-502 564.25,-538"/>
<text text-anchor="middle" x="528.12" y="-514.95" font-family="Times,serif" font-size="14.00">SYSTICK</text>
</g>
<!-- CLOCK&#45;&gt;SYSTICK -->
<g id="edge25" class="edge">
<title>CLOCK&#45;&gt;SYSTICK</title>
<path fill="none" stroke="black" d="M437.6,-166.5C440.85,-166.5 443,-166.5 443,-166.5 443,-166.5 443,-508 443,-508 443,-508 480.53,-508 480.53,-508"/>
<polygon fill="black" stroke="black" points="480.53,-511.5 490.53,-508 480.53,-504.5 480.53,-511.5"/>
</g>
<!-- REG -->
<g id="node18" class="node">
<title>REG</title>
<polygon fill="none" stroke="black" points="102.12,-667 48.12,-667 48.12,-631 102.12,-631 102.12,-667"/>
<text text-anchor="middle" x="75.12" y="-643.95" font-family="Times,serif" font-size="14.00">REG</text>
</g>
<!-- REG&#45;&gt;SDIO -->
<g id="edge52" class="edge">
<title>REG&#45;&gt;SDIO</title>
<path fill="none" stroke="black" d="M102.58,-651.83C192.13,-651.83 470,-651.83 470,-651.83 470,-651.83 470,-870.5 470,-870.5 470,-870.5 878.01,-870.5 878.01,-870.5"/>
<polygon fill="black" stroke="black" points="878.01,-874 888.01,-870.5 878.01,-867 878.01,-874"/>
</g>
<!-- REG&#45;&gt;DMA -->
<g id="edge36" class="edge">
<title>REG&#45;&gt;DMA</title>
<path fill="none" stroke="black" d="M67,-667.27C67,-680.96 67,-697.33 67,-697.33 67,-697.33 742.88,-697.33 742.88,-697.33"/>
<polygon fill="black" stroke="black" points="742.88,-700.83 752.88,-697.33 742.88,-693.83 742.88,-700.83"/>
</g>
<!-- NVIC -->
<g id="node19" class="node">
<title>NVIC</title>
<polygon fill="none" stroke="black" points="282.75,-736 228.75,-736 228.75,-700 282.75,-700 282.75,-736"/>
<text text-anchor="middle" x="255.75" y="-712.95" font-family="Times,serif" font-size="14.00">NVIC</text>
</g>
<!-- REG&#45;&gt;NVIC -->
<g id="edge18" class="edge">
<title>REG&#45;&gt;NVIC</title>
<path fill="none" stroke="black" d="M102.35,-663C149.18,-663 240,-663 240,-663 240,-663 240,-688.69 240,-688.69"/>
<polygon fill="black" stroke="black" points="236.5,-688.69 240,-698.69 243.5,-688.69 236.5,-688.69"/>
</g>
<!-- REG&#45;&gt;SYSTICK -->
<g id="edge23" class="edge">
<title>REG&#45;&gt;SYSTICK</title>
<path fill="none" stroke="black" d="M76,-630.52C76,-594.85 76,-520 76,-520 76,-520 480.51,-520 480.51,-520"/>
<polygon fill="black" stroke="black" points="480.51,-523.5 490.51,-520 480.51,-516.5 480.51,-523.5"/>
</g>
<!-- CORTEX_M4 -->
<g id="node26" class="node">
<title>CORTEX_M4</title>
<polygon fill="none" stroke="black" points="700.25,-913 604.75,-913 604.75,-877 700.25,-877 700.25,-913"/>
<text text-anchor="middle" x="652.5" y="-889.95" font-family="Times,serif" font-size="14.00">CORTEX_M4</text>
</g>
<!-- REG&#45;&gt;CORTEX_M4 -->
<g id="edge33" class="edge">
<title>REG&#45;&gt;CORTEX_M4</title>
<path fill="none" stroke="black" d="M102.44,-661C211.64,-661 611,-661 611,-661 611,-661 611,-865.64 611,-865.64"/>
<polygon fill="black" stroke="black" points="607.5,-865.64 611,-875.64 614.5,-865.64 607.5,-865.64"/>
</g>
<!-- FPU -->
<g id="node27" class="node">
<title>FPU</title>
<polygon fill="none" stroke="black" points="282.75,-990 228.75,-990 228.75,-954 282.75,-954 282.75,-990"/>
<text text-anchor="middle" x="255.75" y="-966.95" font-family="Times,serif" font-size="14.00">FPU</text>
</g>
<!-- REG&#45;&gt;FPU -->
<g id="edge30" class="edge">
<title>REG&#45;&gt;FPU</title>
<path fill="none" stroke="black" d="M102.62,-665C110.01,-665 116,-665 116,-665 116,-665 116,-972 116,-972 116,-972 217.47,-972 217.47,-972"/>
<polygon fill="black" stroke="black" points="217.47,-975.5 227.47,-972 217.47,-968.5 217.47,-975.5"/>
</g>
<!-- REG&#45;&gt;FLASH -->
<g id="edge40" class="edge">
<title>REG&#45;&gt;FLASH</title>
<path fill="none" stroke="black" d="M102.6,-643.5C209.67,-643.5 593,-643.5 593,-643.5 593,-643.5 593,-127.8 593,-127.8 593,-127.8 611.75,-127.8 611.75,-127.8"/>
<polygon fill="black" stroke="black" points="611.75,-131.3 621.75,-127.8 611.75,-124.3 611.75,-131.3"/>
</g>
<!-- GPIO -->
<g id="node33" class="node">
<title>GPIO</title>
<polygon fill="none" stroke="black" points="808,-262 754,-262 754,-226 808,-226 808,-262"/>
<text text-anchor="middle" x="781" y="-238.95" font-family="Times,serif" font-size="14.00">GPIO</text>
</g>
<!-- REG&#45;&gt;GPIO -->
<g id="edge45" class="edge">
<title>REG&#45;&gt;GPIO</title>
<path fill="none" stroke="black" d="M102.53,-639.33C130.24,-639.33 169,-639.33 169,-639.33 169,-639.33 169,-244 169,-244 169,-244 742.51,-244 742.51,-244"/>
<polygon fill="black" stroke="black" points="742.51,-247.5 752.51,-244 742.51,-240.5 742.51,-247.5"/>
</g>
<!-- I2C -->
<g id="node35" class="node">
<title>I2C</title>
<polygon fill="none" stroke="black" points="943.25,-712 889.25,-712 889.25,-676 943.25,-676 943.25,-712"/>
<text text-anchor="middle" x="916.25" y="-688.95" font-family="Times,serif" font-size="14.00">I2C</text>
</g>
<!-- REG&#45;&gt;I2C -->
<g id="edge48" class="edge">
<title>REG&#45;&gt;I2C</title>
<path fill="none" stroke="black" d="M85,-667.32C85,-675.79 85,-684 85,-684 85,-684 878.07,-684 878.07,-684"/>
<polygon fill="black" stroke="black" points="878.07,-687.5 888.07,-684 878.07,-680.5 878.07,-687.5"/>
</g>
<!-- REG&#45;&gt;UART -->
<g id="edge59" class="edge">
<title>REG&#45;&gt;UART</title>
<path fill="none" stroke="darkorange" d="M102.36,-647.67C245.9,-647.67 908,-647.67 908,-647.67 908,-647.67 908,-581.45 908,-581.45"/>
<polygon fill="darkorange" stroke="darkorange" points="911.5,-581.45 908,-571.45 904.5,-581.45 911.5,-581.45"/>
</g>
<!-- ARM -->
<g id="node20" class="node">
<title>ARM</title>
<polygon fill="none" stroke="black" points="433.38,-858 379.38,-858 379.38,-822 433.38,-822 433.38,-858"/>
<text text-anchor="middle" x="406.38" y="-834.95" font-family="Times,serif" font-size="14.00">ARM</text>
</g>
<!-- NVIC&#45;&gt;ARM -->
<g id="edge19" class="edge">
<title>NVIC&#45;&gt;ARM</title>
<path fill="none" stroke="black" d="M272,-736.26C272,-770.3 272,-840 272,-840 272,-840 368.18,-840 368.18,-840"/>
<polygon fill="black" stroke="black" points="368.18,-843.5 378.18,-840 368.18,-836.5 368.18,-843.5"/>
</g>
<!-- INTERRUPT -->
<g id="node22" class="node">
<title>INTERRUPT</title>
<polygon fill="none" stroke="black" points="451.5,-736 361.25,-736 361.25,-700 451.5,-700 451.5,-736"/>
<text text-anchor="middle" x="406.38" y="-712.95" font-family="Times,serif" font-size="14.00">INTERRUPT</text>
</g>
<!-- NVIC&#45;&gt;INTERRUPT -->
<g id="edge54" class="edge">
<title>NVIC&#45;&gt;INTERRUPT</title>
<path fill="none" stroke="black" d="M283.03,-724C283.03,-724 349.98,-724 349.98,-724"/>
<polygon fill="black" stroke="black" points="349.98,-727.5 359.98,-724 349.98,-720.5 349.98,-727.5"/>
</g>
<!-- NVIC&#45;&gt;SYSTICK -->
<g id="edge24" class="edge">
<title>NVIC&#45;&gt;SYSTICK</title>
<path fill="none" stroke="black" d="M262,-699.59C262,-651.53 262,-526 262,-526 262,-526 480.68,-526 480.68,-526"/>
<polygon fill="black" stroke="black" points="480.68,-529.5 490.68,-526 480.68,-522.5 480.68,-529.5"/>
</g>
<!-- NVIC&#45;&gt;CORTEX_M4 -->
<g id="edge34" class="edge">
<title>NVIC&#45;&gt;CORTEX_M4</title>
<path fill="none" stroke="black" d="M251,-736.3C251,-779.84 251,-886 251,-886 251,-886 593.47,-886 593.47,-886"/>
<polygon fill="black" stroke="black" points="593.47,-889.5 603.47,-886 593.47,-882.5 593.47,-889.5"/>
</g>
<!-- NVIC&#45;&gt;FLASH -->
<g id="edge44" class="edge">
<title>NVIC&#45;&gt;FLASH</title>
<path fill="none" stroke="black" d="M251,-699.68C251,-601.1 251,-138 251,-138 251,-138 643,-138 643,-138 643,-138 643,-137.74 643,-137.74"/>
<polygon fill="black" stroke="black" points="646.5,-146.42 643,-136.42 639.5,-146.43 646.5,-146.42"/>
</g>
<!-- NVIC&#45;&gt;I2C -->
<g id="edge50" class="edge">
<title>NVIC&#45;&gt;I2C</title>
<path fill="none" stroke="black" d="M272,-699.51C272,-693.34 272,-688 272,-688 272,-688 877.98,-688 877.98,-688"/>
<polygon fill="black" stroke="black" points="877.98,-691.5 887.98,-688 877.98,-684.5 877.98,-691.5"/>
</g>
<!-- MICROCONTROLLER -->
<g id="node21" class="node">
<title>MICROCONTROLLER</title>
<polygon fill="none" stroke="black" points="150.25,-392 0,-392 0,-356 150.25,-356 150.25,-392"/>
<text text-anchor="middle" x="75.12" y="-368.95" font-family="Times,serif" font-size="14.00">MICROCONTROLLER</text>
</g>
<!-- MICROCONTROLLER&#45;&gt;NVIC -->
<g id="edge20" class="edge">
<title>MICROCONTROLLER&#45;&gt;NVIC</title>
<path fill="none" stroke="black" d="M127,-392.17C127,-462.38 127,-712 127,-712 127,-712 217.45,-712 217.45,-712"/>
<polygon fill="black" stroke="black" points="217.45,-715.5 227.45,-712 217.45,-708.5 217.45,-715.5"/>
</g>
<!-- MICROCONTROLLER&#45;&gt;SYSTICK -->
<g id="edge27" class="edge">
<title>MICROCONTROLLER&#45;&gt;SYSTICK</title>
<path fill="none" stroke="black" d="M139,-392.3C139,-430.25 139,-514 139,-514 139,-514 480.52,-514 480.52,-514"/>
<polygon fill="black" stroke="black" points="480.52,-517.5 490.52,-514 480.52,-510.5 480.52,-517.5"/>
</g>
<!-- INTERRUPT&#45;&gt;SDIO -->
<g id="edge53" class="edge">
<title>INTERRUPT&#45;&gt;SDIO</title>
<path fill="none" stroke="black" d="M443,-736.48C443,-777.73 443,-873.75 443,-873.75 443,-873.75 877.76,-873.75 877.76,-873.75"/>
<polygon fill="black" stroke="black" points="877.76,-877.25 887.76,-873.75 877.76,-870.25 877.76,-877.25"/>
</g>
<!-- INTERRUPT&#45;&gt;DMA -->
<g id="edge38" class="edge">
<title>INTERRUPT&#45;&gt;DMA</title>
<path fill="none" stroke="blue" d="M451.94,-714C451.94,-714 742.77,-714 742.77,-714"/>
<polygon fill="blue" stroke="blue" points="742.77,-717.5 752.77,-714 742.77,-710.5 742.77,-717.5"/>
</g>
<!-- INTERRUPT&#45;&gt;NVIC -->
<g id="edge21" class="edge">
<title>INTERRUPT&#45;&gt;NVIC</title>
<path fill="none" stroke="black" d="M360.77,-712C360.77,-712 293.81,-712 293.81,-712"/>
<polygon fill="black" stroke="black" points="293.81,-708.5 283.81,-712 293.81,-715.5 293.81,-708.5"/>
</g>
<!-- INTERRUPT&#45;&gt;SYSTICK -->
<g id="edge26" class="edge">
<title>INTERRUPT&#45;&gt;SYSTICK</title>
<path fill="none" stroke="black" d="M446,-699.83C446,-653.02 446,-532 446,-532 446,-532 480.86,-532 480.86,-532"/>
<polygon fill="black" stroke="black" points="480.86,-535.5 490.86,-532 480.86,-528.5 480.86,-535.5"/>
</g>
<!-- INTERRUPT&#45;&gt;UART -->
<g id="edge60" class="edge">
<title>INTERRUPT&#45;&gt;UART</title>
<path fill="none" stroke="blue" d="M449,-699.51C449,-656.62 449,-554 449,-554 449,-554 877.77,-554 877.77,-554"/>
<polygon fill="blue" stroke="blue" points="877.77,-557.5 887.77,-554 877.77,-550.5 877.77,-557.5"/>
</g>
<!-- FIFO -->
<g id="node37" class="node">
<title>FIFO</title>
<polygon fill="none" stroke="black" points="808,-430 754,-430 754,-394 808,-394 808,-430"/>
<text text-anchor="middle" x="781" y="-406.95" font-family="Times,serif" font-size="14.00">FIFO</text>
</g>
<!-- INTERRUPT&#45;&gt;FIFO -->
<g id="edge64" class="edge">
<title>INTERRUPT&#45;&gt;FIFO</title>
<path fill="none" stroke="black" d="M441,-699.69C441,-634.55 441,-418 441,-418 441,-418 742.75,-418 742.75,-418"/>
<polygon fill="black" stroke="black" points="742.75,-421.5 752.75,-418 742.75,-414.5 742.75,-421.5"/>
</g>
<!-- CMSIS -->
<g id="node23" class="node">
<title>CMSIS</title>
<polygon fill="none" stroke="black" points="103.75,-736 46.5,-736 46.5,-700 103.75,-700 103.75,-736"/>
<text text-anchor="middle" x="75.12" y="-712.95" font-family="Times,serif" font-size="14.00">CMSIS</text>
</g>
<!-- CMSIS&#45;&gt;NVIC -->
<g id="edge22" class="edge">
<title>CMSIS&#45;&gt;NVIC</title>
<path fill="none" stroke="black" d="M104.15,-724C104.15,-724 217.28,-724 217.28,-724"/>
<polygon fill="black" stroke="black" points="217.28,-727.5 227.28,-724 217.28,-720.5 217.28,-727.5"/>
</g>
<!-- TIME -->
<g id="node25" class="node">
<title>TIME</title>
<polygon fill="none" stroke="black" points="679.5,-354 625.5,-354 625.5,-318 679.5,-318 679.5,-354"/>
<text text-anchor="middle" x="652.5" y="-330.95" font-family="Times,serif" font-size="14.00">TIME</text>
</g>
<!-- SYSTICK&#45;&gt;TIME -->
<g id="edge28" class="edge">
<title>SYSTICK&#45;&gt;TIME</title>
<path fill="none" stroke="black" d="M564.47,-512C598.45,-512 644,-512 644,-512 644,-512 644,-365.17 644,-365.17"/>
<polygon fill="black" stroke="black" points="647.5,-365.17 644,-355.17 640.5,-365.17 647.5,-365.17"/>
</g>
<!-- SYSTICK&#45;&gt;CORTEX_M4 -->
<g id="edge35" class="edge">
<title>SYSTICK&#45;&gt;CORTEX_M4</title>
<path fill="none" stroke="black" d="M564.54,-525.5C587.95,-525.5 614,-525.5 614,-525.5 614,-525.5 614,-865.68 614,-865.68"/>
<polygon fill="black" stroke="black" points="610.5,-865.68 614,-875.68 617.5,-865.68 610.5,-865.68"/>
</g>
<!-- TIME&#45;&gt;LED -->
<g id="edge89" class="edge">
<title>TIME&#45;&gt;LED</title>
<path fill="none" stroke="black" d="M679.73,-328.4C679.73,-328.4 877.77,-328.4 877.77,-328.4"/>
<polygon fill="black" stroke="black" points="877.77,-331.9 887.77,-328.4 877.77,-324.9 877.77,-331.9"/>
</g>
<!-- TIME&#45;&gt;DMA -->
<g id="edge37" class="edge">
<title>TIME&#45;&gt;DMA</title>
<path fill="none" stroke="black" d="M662,-354.28C662,-427.37 662,-694.67 662,-694.67 662,-694.67 742.7,-694.67 742.7,-694.67"/>
<polygon fill="black" stroke="black" points="742.7,-698.17 752.7,-694.67 742.7,-691.17 742.7,-698.17"/>
</g>
<!-- TIME&#45;&gt;GPIO -->
<g id="edge47" class="edge">
<title>TIME&#45;&gt;GPIO</title>
<path fill="none" stroke="black" d="M679.99,-323.2C720.12,-323.2 790,-323.2 790,-323.2 790,-323.2 790,-273.37 790,-273.37"/>
<polygon fill="black" stroke="black" points="793.5,-273.37 790,-263.37 786.5,-273.37 793.5,-273.37"/>
</g>
<!-- TIME&#45;&gt;UART -->
<g id="edge55" class="edge">
<title>TIME&#45;&gt;UART</title>
<path fill="none" stroke="black" d="M679.81,-348.25C747.39,-348.25 917,-348.25 917,-348.25 917,-348.25 917,-522.56 917,-522.56"/>
<polygon fill="black" stroke="black" points="913.5,-522.56 917,-532.56 920.5,-522.56 913.5,-522.56"/>
</g>
<!-- LOG -->
<g id="node44" class="node">
<title>LOG</title>
<polygon fill="none" stroke="black" points="1331,-458 1277,-458 1277,-422 1331,-422 1331,-458"/>
<text text-anchor="middle" x="1304" y="-434.95" font-family="Times,serif" font-size="14.00">LOG</text>
</g>
<!-- TIME&#45;&gt;LOG -->
<g id="edge78" class="edge">
<title>TIME&#45;&gt;LOG</title>
<path fill="none" stroke="black" d="M679.66,-342.5C802.97,-342.5 1304,-342.5 1304,-342.5 1304,-342.5 1304,-410.66 1304,-410.66"/>
<polygon fill="black" stroke="black" points="1300.5,-410.66 1304,-420.66 1307.5,-410.66 1300.5,-410.66"/>
</g>
<!-- TIME&#45;&gt;LED_MONO -->
<g id="edge91" class="edge">
<title>TIME&#45;&gt;LED_MONO</title>
<path fill="none" stroke="black" d="M679.82,-336.75C768.25,-336.75 1041,-336.75 1041,-336.75 1041,-336.75 1041,-256.12 1041,-256.12"/>
<polygon fill="black" stroke="black" points="1044.5,-256.12 1041,-246.12 1037.5,-256.12 1044.5,-256.12"/>
</g>
<!-- SCHEDULER -->
<g id="node49" class="node">
<title>SCHEDULER</title>
<polygon fill="none" stroke="black" points="816,-170 746,-170 746,-134 816,-134 816,-170"/>
<text text-anchor="middle" x="781" y="-146.95" font-family="Times,serif" font-size="14.00">Scheduler</text>
</g>
<!-- TIME&#45;&gt;SCHEDULER -->
<g id="edge96" class="edge">
<title>TIME&#45;&gt;SCHEDULER</title>
<path fill="none" stroke="red" d="M679.66,-320.6C687.99,-320.6 695,-320.6 695,-320.6 695,-320.6 695,-164.33 695,-164.33 695,-164.33 734.52,-164.33 734.52,-164.33"/>
<polygon fill="red" stroke="red" points="734.52,-167.83 744.52,-164.33 734.52,-160.83 734.52,-167.83"/>
</g>
<!-- BUTTON -->
<g id="node53" class="node">
<title>BUTTON</title>
<polygon fill="none" stroke="black" points="951.62,-201 880.88,-201 880.88,-165 951.62,-165 951.62,-201"/>
<text text-anchor="middle" x="916.25" y="-177.95" font-family="Times,serif" font-size="14.00">BUTTON</text>
</g>
<!-- TIME&#45;&gt;BUTTON -->
<g id="edge103" class="edge">
<title>TIME&#45;&gt;BUTTON</title>
<path fill="none" stroke="red" d="M679.86,-325.8C741.72,-325.8 887,-325.8 887,-325.8 887,-325.8 887,-212.38 887,-212.38"/>
<polygon fill="red" stroke="red" points="890.5,-212.38 887,-202.38 883.5,-212.38 890.5,-212.38"/>
</g>
<!-- CORTEX_M4&#45;&gt;NVIC -->
<g id="edge29" class="edge">
<title>CORTEX_M4&#45;&gt;NVIC</title>
<path fill="none" stroke="black" d="M604.37,-895C495.56,-895 240,-895 240,-895 240,-895 240,-747.28 240,-747.28"/>
<polygon fill="black" stroke="black" points="243.5,-747.28 240,-737.28 236.5,-747.28 243.5,-747.28"/>
</g>
<!-- FPU&#45;&gt;CORTEX_M4 -->
<g id="edge31" class="edge">
<title>FPU&#45;&gt;CORTEX_M4</title>
<path fill="none" stroke="black" d="M262,-953.78C262,-933.63 262,-904 262,-904 262,-904 593.62,-904 593.62,-904"/>
<polygon fill="black" stroke="black" points="593.62,-907.5 603.62,-904 593.62,-900.5 593.62,-907.5"/>
</g>
<!-- THUMB -->
<g id="node28" class="node">
<title>THUMB</title>
<polygon fill="none" stroke="black" points="560.88,-858 495.38,-858 495.38,-822 560.88,-822 560.88,-858"/>
<text text-anchor="middle" x="528.12" y="-834.95" font-family="Times,serif" font-size="14.00">THUMB</text>
</g>
<!-- THUMB&#45;&gt;CORTEX_M4 -->
<g id="edge32" class="edge">
<title>THUMB&#45;&gt;CORTEX_M4</title>
<path fill="none" stroke="black" d="M561.07,-847.67C583.08,-847.67 608,-847.67 608,-847.67 608,-847.67 608,-865.56 608,-865.56"/>
<polygon fill="black" stroke="black" points="604.5,-865.56 608,-875.56 611.5,-865.56 604.5,-865.56"/>
</g>
<!-- ARRAY -->
<g id="node29" class="node">
<title>ARRAY</title>
<polygon fill="none" stroke="black" points="559.38,-300 496.88,-300 496.88,-264 559.38,-264 559.38,-300"/>
<text text-anchor="middle" x="528.12" y="-276.95" font-family="Times,serif" font-size="14.00">ARRAY</text>
</g>
<!-- ARRAY&#45;&gt;FLASH -->
<g id="edge39" class="edge">
<title>ARRAY&#45;&gt;FLASH</title>
<path fill="none" stroke="black" d="M559.8,-282C571.06,-282 581,-282 581,-282 581,-282 581,-120.6 581,-120.6 581,-120.6 612.01,-120.6 612.01,-120.6"/>
<polygon fill="black" stroke="black" points="612.01,-124.1 622.01,-120.6 612.01,-117.1 612.01,-124.1"/>
</g>
<!-- FLASH&#45;&gt;DEBUGGER -->
<g id="edge87" class="edge">
<title>FLASH&#45;&gt;DEBUGGER</title>
<path fill="none" stroke="black" d="M682.13,-107C708.53,-107 743,-107 743,-107 743,-107 743,-89.31 743,-89.31"/>
<polygon fill="black" stroke="black" points="746.5,-89.31 743,-79.31 739.5,-89.31 746.5,-89.31"/>
</g>
<!-- FLASH&#45;&gt;SCHEDULER -->
<g id="edge97" class="edge">
<title>FLASH&#45;&gt;SCHEDULER</title>
<path fill="none" stroke="blue" d="M663,-135.43C663,-138.66 663,-141 663,-141 663,-141 734.6,-141 734.6,-141"/>
<polygon fill="blue" stroke="blue" points="734.6,-144.5 744.6,-141 734.6,-137.5 734.6,-144.5"/>
</g>
<!-- FLASH&#45;&gt;BUTTON -->
<g id="edge102" class="edge">
<title>FLASH&#45;&gt;BUTTON</title>
<path fill="none" stroke="green" d="M681.95,-122.5C744.51,-122.5 885,-122.5 885,-122.5 885,-122.5 885,-153.52 885,-153.52"/>
<polygon fill="green" stroke="green" points="881.5,-153.52 885,-163.52 888.5,-153.52 881.5,-153.52"/>
</g>
<!-- INTERVAL -->
<g id="node31" class="node">
<title>INTERVAL</title>
<polygon fill="none" stroke="black" points="568.75,-189 487.5,-189 487.5,-153 568.75,-153 568.75,-189"/>
<text text-anchor="middle" x="528.12" y="-165.95" font-family="Times,serif" font-size="14.00">INTERVAL</text>
</g>
<!-- INTERVAL&#45;&gt;FLASH -->
<g id="edge41" class="edge">
<title>INTERVAL&#45;&gt;FLASH</title>
<path fill="none" stroke="black" d="M563,-152.78C563,-135.9 563,-113.4 563,-113.4 563,-113.4 611.7,-113.4 611.7,-113.4"/>
<polygon fill="black" stroke="black" points="611.7,-116.9 621.7,-113.4 611.7,-109.9 611.7,-116.9"/>
</g>
<!-- FLOAT -->
<g id="node32" class="node">
<title>FLOAT</title>
<polygon fill="none" stroke="black" points="557.12,-135 499.12,-135 499.12,-99 557.12,-99 557.12,-135"/>
<text text-anchor="middle" x="528.12" y="-111.95" font-family="Times,serif" font-size="14.00">FLOAT</text>
</g>
<!-- FLOAT&#45;&gt;FLASH -->
<g id="edge43" class="edge">
<title>FLOAT&#45;&gt;FLASH</title>
<path fill="none" stroke="black" d="M557.6,-106.2C557.6,-106.2 611.81,-106.2 611.81,-106.2"/>
<polygon fill="black" stroke="black" points="611.81,-109.7 621.81,-106.2 611.81,-102.7 611.81,-109.7"/>
</g>
<!-- GPIO&#45;&gt;LED -->
<g id="edge88" class="edge">
<title>GPIO&#45;&gt;LED</title>
<path fill="none" stroke="black" d="M808.24,-249.25C845.56,-249.25 908,-249.25 908,-249.25 908,-249.25 908,-283.56 908,-283.56"/>
<polygon fill="black" stroke="black" points="904.5,-283.56 908,-293.56 911.5,-283.56 904.5,-283.56"/>
</g>
<!-- GPIO&#45;&gt;I2C -->
<g id="edge49" class="edge">
<title>GPIO&#45;&gt;I2C</title>
<path fill="none" stroke="black" d="M808.09,-257.75C814.74,-257.75 820,-257.75 820,-257.75 820,-257.75 820,-680 820,-680 820,-680 877.93,-680 877.93,-680"/>
<polygon fill="black" stroke="black" points="877.93,-683.5 887.93,-680 877.93,-676.5 877.93,-683.5"/>
</g>
<!-- GPIO&#45;&gt;UART -->
<g id="edge58" class="edge">
<title>GPIO&#45;&gt;UART</title>
<path fill="none" stroke="fuchsia" d="M808.31,-253.5C816.33,-253.5 823,-253.5 823,-253.5 823,-253.5 823,-546 823,-546 823,-546 877.78,-546 877.78,-546"/>
<polygon fill="fuchsia" stroke="fuchsia" points="877.78,-549.5 887.78,-546 877.78,-542.5 877.78,-549.5"/>
</g>
<!-- GPIO&#45;&gt;LED_MONO -->
<g id="edge90" class="edge">
<title>GPIO&#45;&gt;LED_MONO</title>
<path fill="none" stroke="black" d="M808.25,-235.5C808.25,-235.5 995.59,-235.5 995.59,-235.5"/>
<polygon fill="black" stroke="black" points="995.59,-239 1005.59,-235.5 995.59,-232 995.59,-239"/>
</g>
<!-- GPIO&#45;&gt;BUTTON -->
<g id="edge101" class="edge">
<title>GPIO&#45;&gt;BUTTON</title>
<path fill="none" stroke="blue" d="M808.33,-230.75C838.85,-230.75 884,-230.75 884,-230.75 884,-230.75 884,-212.32 884,-212.32"/>
<polygon fill="blue" stroke="blue" points="887.5,-212.32 884,-202.32 880.5,-212.32 887.5,-212.32"/>
</g>
<!-- MCU -->
<g id="node34" class="node">
<title>MCU</title>
<polygon fill="none" stroke="black" points="679.5,-300 625.5,-300 625.5,-264 679.5,-264 679.5,-300"/>
<text text-anchor="middle" x="652.5" y="-276.95" font-family="Times,serif" font-size="14.00">MCU</text>
</g>
<!-- MCU&#45;&gt;GPIO -->
<g id="edge46" class="edge">
<title>MCU&#45;&gt;GPIO</title>
<path fill="none" stroke="black" d="M679.92,-279.5C715.2,-279.5 772,-279.5 772,-279.5 772,-279.5 772,-273.17 772,-273.17"/>
<polygon fill="black" stroke="black" points="775.5,-273.17 772,-263.17 768.5,-273.17 775.5,-273.17"/>
</g>
<!-- I2C&#45;&gt;WM8731 -->
<g id="edge99" class="edge">
<title>I2C&#45;&gt;WM8731</title>
<path fill="none" stroke="black" d="M943.59,-707.5C983.5,-707.5 1053,-707.5 1053,-707.5 1053,-707.5 1053,-735.81 1053,-735.81"/>
<polygon fill="black" stroke="black" points="1049.5,-735.81 1053,-745.81 1056.5,-735.81 1049.5,-735.81"/>
</g>
<!-- STRING_READER -->
<g id="node41" class="node">
<title>STRING_READER</title>
<polygon fill="none" stroke="black" points="1366.75,-611 1241.25,-611 1241.25,-575 1366.75,-575 1366.75,-611"/>
<text text-anchor="middle" x="1304" y="-587.95" font-family="Times,serif" font-size="14.00">STRING_READER</text>
</g>
<!-- UART&#45;&gt;STRING_READER -->
<g id="edge68" class="edge">
<title>UART&#45;&gt;STRING_READER</title>
<path fill="none" stroke="chartreuse" d="M926,-570.1C926,-581.09 926,-593 926,-593 926,-593 1230.16,-593 1230.16,-593"/>
<polygon fill="chartreuse" stroke="chartreuse" points="1230.16,-596.5 1240.16,-593 1230.16,-589.5 1230.16,-596.5"/>
</g>
<!-- STREAM -->
<g id="node42" class="node">
<title>STREAM</title>
<polygon fill="none" stroke="black" points="1205.25,-565 1133.75,-565 1133.75,-529 1205.25,-529 1205.25,-565"/>
<text text-anchor="middle" x="1169.5" y="-541.95" font-family="Times,serif" font-size="14.00">STREAM</text>
</g>
<!-- UART&#45;&gt;STREAM -->
<g id="edge67" class="edge">
<title>UART&#45;&gt;STREAM</title>
<path fill="none" stroke="chartreuse" d="M943.35,-549.5C943.35,-549.5 1122.26,-549.5 1122.26,-549.5"/>
<polygon fill="chartreuse" stroke="chartreuse" points="1122.26,-553 1132.26,-549.5 1122.26,-546 1122.26,-553"/>
</g>
<!-- WRITER -->
<g id="node43" class="node">
<title>WRITER</title>
<polygon fill="none" stroke="black" points="1086.5,-489 1018,-489 1018,-453 1086.5,-453 1086.5,-489"/>
<text text-anchor="middle" x="1052.25" y="-465.95" font-family="Times,serif" font-size="14.00">WRITER</text>
</g>
<!-- UART&#45;&gt;WRITER -->
<g id="edge85" class="edge">
<title>UART&#45;&gt;WRITER</title>
<path fill="none" stroke="black" d="M935,-533.69C935,-509.39 935,-469.5 935,-469.5 935,-469.5 1006.71,-469.5 1006.71,-469.5"/>
<polygon fill="black" stroke="black" points="1006.71,-473 1016.71,-469.5 1006.71,-466 1006.71,-473"/>
</g>
<!-- UART&#45;&gt;LOG -->
<g id="edge81" class="edge">
<title>UART&#45;&gt;LOG</title>
<path fill="none" stroke="black" d="M926,-533.75C926,-502.37 926,-441.5 926,-441.5 926,-441.5 1265.51,-441.5 1265.51,-441.5"/>
<polygon fill="black" stroke="black" points="1265.51,-445 1275.51,-441.5 1265.51,-438 1265.51,-445"/>
</g>
<!-- FIFO&#45;&gt;UART -->
<g id="edge56" class="edge">
<title>FIFO&#45;&gt;UART</title>
<path fill="none" stroke="black" d="M808.24,-428C845.56,-428 908,-428 908,-428 908,-428 908,-522.7 908,-522.7"/>
<polygon fill="black" stroke="black" points="904.5,-522.7 908,-532.7 911.5,-522.7 904.5,-522.7"/>
</g>
<!-- FIFO&#45;&gt;STRING_READER -->
<g id="edge69" class="edge">
<title>FIFO&#45;&gt;STRING_READER</title>
<path fill="none" stroke="aqua" d="M808.47,-408C911.06,-408 1266,-408 1266,-408 1266,-408 1266,-563.59 1266,-563.59"/>
<polygon fill="aqua" stroke="aqua" points="1262.5,-563.59 1266,-573.59 1269.5,-563.59 1262.5,-563.59"/>
</g>
<!-- FIFO&#45;&gt;WRITER -->
<g id="edge84" class="edge">
<title>FIFO&#45;&gt;WRITER</title>
<path fill="none" stroke="black" d="M808.39,-426C879.41,-426 1064,-426 1064,-426 1064,-426 1064,-441.7 1064,-441.7"/>
<polygon fill="black" stroke="black" points="1060.5,-441.7 1064,-451.7 1067.5,-441.7 1060.5,-441.7"/>
</g>
<!-- FIFO&#45;&gt;LOG -->
<g id="edge80" class="edge">
<title>FIFO&#45;&gt;LOG</title>
<path fill="none" stroke="black" d="M808.38,-424C808.38,-424 1265.57,-424 1265.57,-424"/>
<polygon fill="black" stroke="black" points="1265.57,-427.5 1275.57,-424 1265.57,-420.5 1265.57,-427.5"/>
</g>
<!-- UART2 -->
<g id="node38" class="node">
<title>UART2</title>
<polygon fill="none" stroke="black" points="810.38,-522 751.62,-522 751.62,-486 810.38,-486 810.38,-522"/>
<text text-anchor="middle" x="781" y="-498.95" font-family="Times,serif" font-size="14.00">UART2</text>
</g>
<!-- UART2&#45;&gt;UART -->
<g id="edge61" class="edge">
<title>UART2&#45;&gt;UART</title>
<path fill="none" stroke="black" d="M810.78,-505.5C845.73,-505.5 899,-505.5 899,-505.5 899,-505.5 899,-522.62 899,-522.62"/>
<polygon fill="black" stroke="black" points="895.5,-522.62 899,-532.62 902.5,-522.62 895.5,-522.62"/>
</g>
<!-- RAM -->
<g id="node39" class="node">
<title>RAM</title>
<polygon fill="none" stroke="black" points="433.38,-300 379.38,-300 379.38,-264 433.38,-264 433.38,-300"/>
<text text-anchor="middle" x="406.38" y="-276.95" font-family="Times,serif" font-size="14.00">RAM</text>
</g>
<!-- RAM&#45;&gt;ARRAY -->
<g id="edge62" class="edge">
<title>RAM&#45;&gt;ARRAY</title>
<path fill="none" stroke="blue" d="M433.7,-282C433.7,-282 485.59,-282 485.59,-282"/>
<polygon fill="blue" stroke="blue" points="485.59,-285.5 495.59,-282 485.59,-278.5 485.59,-285.5"/>
</g>
<!-- RAM&#45;&gt;FIFO -->
<g id="edge63" class="edge">
<title>RAM&#45;&gt;FIFO</title>
<path fill="none" stroke="black" d="M416,-300.3C416,-334.79 416,-406 416,-406 416,-406 742.57,-406 742.57,-406"/>
<polygon fill="black" stroke="black" points="742.57,-409.5 752.57,-406 742.57,-402.5 742.57,-409.5"/>
</g>
<!-- CSV -->
<g id="node45" class="node">
<title>CSV</title>
<polygon fill="none" stroke="black" points="1331,-703 1277,-703 1277,-667 1331,-667 1331,-703"/>
<text text-anchor="middle" x="1304" y="-679.95" font-family="Times,serif" font-size="14.00">CSV</text>
</g>
<!-- RAM&#45;&gt;CSV -->
<g id="edge76" class="edge">
<title>RAM&#45;&gt;CSV</title>
<path fill="none" stroke="black" d="M398,-300.49C398,-373.16 398,-635.17 398,-635.17 398,-635.17 1295,-635.17 1295,-635.17 1295,-635.17 1295,-655.73 1295,-655.73"/>
<polygon fill="black" stroke="black" points="1291.5,-655.73 1295,-665.73 1298.5,-655.73 1291.5,-655.73"/>
</g>
<!-- STRING -->
<g id="node40" class="node">
<title>STRING</title>
<polygon fill="none" stroke="black" points="1201.88,-695 1137.12,-695 1137.12,-659 1201.88,-659 1201.88,-695"/>
<text text-anchor="middle" x="1169.5" y="-671.95" font-family="Times,serif" font-size="14.00">STRING</text>
</g>
<!-- STRING&#45;&gt;CLI -->
<g id="edge71" class="edge">
<title>STRING&#45;&gt;CLI</title>
<path fill="none" stroke="aqua" d="M1202.37,-663C1269.69,-663 1417,-663 1417,-663 1417,-663 1417,-638.28 1417,-638.28"/>
<polygon fill="aqua" stroke="aqua" points="1420.5,-638.28 1417,-628.28 1413.5,-638.28 1420.5,-638.28"/>
</g>
<!-- STRING&#45;&gt;STRING_READER -->
<g id="edge65" class="edge">
<title>STRING&#45;&gt;STRING_READER</title>
<path fill="none" stroke="aqua" d="M1202.2,-661C1227.41,-661 1258,-661 1258,-661 1258,-661 1258,-622.22 1258,-622.22"/>
<polygon fill="aqua" stroke="aqua" points="1261.5,-622.22 1258,-612.22 1254.5,-622.22 1261.5,-622.22"/>
</g>
<!-- STRING&#45;&gt;CSV -->
<g id="edge77" class="edge">
<title>STRING&#45;&gt;CSV</title>
<path fill="none" stroke="black" d="M1202.06,-681C1202.06,-681 1265.73,-681 1265.73,-681"/>
<polygon fill="black" stroke="black" points="1265.73,-684.5 1275.73,-681 1265.73,-677.5 1265.73,-684.5"/>
</g>
<!-- STRING_READER&#45;&gt;CLI -->
<g id="edge72" class="edge">
<title>STRING_READER&#45;&gt;CLI</title>
<path fill="none" stroke="aqua" d="M1367.24,-601C1367.24,-601 1391.34,-601 1391.34,-601"/>
<polygon fill="aqua" stroke="aqua" points="1391.34,-604.5 1401.34,-601 1391.34,-597.5 1391.34,-604.5"/>
</g>
<!-- STREAM&#45;&gt;CLI -->
<g id="edge73" class="edge">
<title>STREAM&#45;&gt;CLI</title>
<path fill="none" stroke="aqua" d="M1205.49,-547C1274.13,-547 1417,-547 1417,-547 1417,-547 1417,-579.73 1417,-579.73"/>
<polygon fill="aqua" stroke="aqua" points="1413.5,-579.73 1417,-589.73 1420.5,-579.73 1413.5,-579.73"/>
</g>
<!-- STREAM&#45;&gt;STRING_READER -->
<g id="edge66" class="edge">
<title>STREAM&#45;&gt;STRING_READER</title>
<path fill="none" stroke="black" d="M1205.34,-556C1228.37,-556 1254,-556 1254,-556 1254,-556 1254,-563.5 1254,-563.5"/>
<polygon fill="black" stroke="black" points="1250.5,-563.5 1254,-573.5 1257.5,-563.5 1250.5,-563.5"/>
</g>
<!-- STREAM&#45;&gt;LOG -->
<g id="edge79" class="edge">
<title>STREAM&#45;&gt;LOG</title>
<path fill="none" stroke="black" d="M1205.71,-538C1248.22,-538 1313,-538 1313,-538 1313,-538 1313,-469.43 1313,-469.43"/>
<polygon fill="black" stroke="black" points="1316.5,-469.43 1313,-459.43 1309.5,-469.43 1316.5,-469.43"/>
</g>
<!-- WRITER&#45;&gt;CLI -->
<g id="edge70" class="edge">
<title>WRITER&#45;&gt;CLI</title>
<path fill="none" stroke="aqua" d="M1086.77,-473.5C1180.03,-473.5 1430,-473.5 1430,-473.5 1430,-473.5 1430,-579.73 1430,-579.73"/>
<polygon fill="aqua" stroke="aqua" points="1426.5,-579.73 1430,-589.73 1433.5,-579.73 1426.5,-579.73"/>
</g>
<!-- WRITER&#45;&gt;STREAM -->
<g id="edge83" class="edge">
<title>WRITER&#45;&gt;STREAM</title>
<path fill="none" stroke="black" d="M1086.94,-481.25C1121.68,-481.25 1170,-481.25 1170,-481.25 1170,-481.25 1170,-517.68 1170,-517.68"/>
<polygon fill="black" stroke="black" points="1166.5,-517.68 1170,-527.68 1173.5,-517.68 1166.5,-517.68"/>
</g>
<!-- WRITER&#45;&gt;LOG -->
<g id="edge82" class="edge">
<title>WRITER&#45;&gt;LOG</title>
<path fill="none" stroke="black" d="M1086.77,-465.75C1153.79,-465.75 1295,-465.75 1295,-465.75 1295,-465.75 1295,-465.02 1295,-465.02"/>
<polygon fill="black" stroke="black" points="1298.5,-469.44 1295,-459.44 1291.5,-469.44 1298.5,-469.44"/>
</g>
<!-- LOG&#45;&gt;CLI -->
<g id="edge74" class="edge">
<title>LOG&#45;&gt;CLI</title>
<path fill="none" stroke="aqua" d="M1331.33,-440C1372.07,-440 1444,-440 1444,-440 1444,-440 1444,-579.59 1444,-579.59"/>
<polygon fill="aqua" stroke="aqua" points="1440.5,-579.59 1444,-589.59 1447.5,-579.59 1440.5,-579.59"/>
</g>
<!-- CSV&#45;&gt;CLI -->
<g id="edge75" class="edge">
<title>CSV&#45;&gt;CLI</title>
<path fill="none" stroke="aqua" d="M1313,-666.62C1313,-647.09 1313,-619 1313,-619 1313,-619 1391.38,-619 1391.38,-619"/>
<polygon fill="aqua" stroke="aqua" points="1391.38,-622.5 1401.38,-619 1391.38,-615.5 1391.38,-622.5"/>
</g>
<!-- MATH -->
<g id="node48" class="node">
<title>MATH</title>
<polygon fill="none" stroke="black" points="943.75,-147 888.75,-147 888.75,-111 943.75,-111 943.75,-147"/>
<text text-anchor="middle" x="916.25" y="-123.95" font-family="Times,serif" font-size="14.00">MATH</text>
</g>
<!-- MATH&#45;&gt;LED_MONO -->
<g id="edge92" class="edge">
<title>MATH&#45;&gt;LED_MONO</title>
<path fill="none" stroke="black" d="M944.04,-129C973.55,-129 1016,-129 1016,-129 1016,-129 1016,-197.57 1016,-197.57"/>
<polygon fill="black" stroke="black" points="1012.5,-197.57 1016,-207.57 1019.5,-197.57 1012.5,-197.57"/>
</g>
<!-- SUPER_CYCLE -->
<g id="node50" class="node">
<title>SUPER_CYCLE</title>
<polygon fill="none" stroke="black" points="970.75,-93 861.75,-93 861.75,-57 970.75,-57 970.75,-93"/>
<text text-anchor="middle" x="916.25" y="-69.95" font-family="Times,serif" font-size="14.00">SUPER_CYCLE</text>
</g>
<!-- SCHEDULER&#45;&gt;SUPER_CYCLE -->
<g id="edge94" class="edge">
<title>SCHEDULER&#45;&gt;SUPER_CYCLE</title>
<path fill="none" stroke="black" d="M816.44,-140.5C841.99,-140.5 872,-140.5 872,-140.5 872,-140.5 872,-104.25 872,-104.25"/>
<polygon fill="black" stroke="black" points="875.5,-104.25 872,-94.25 868.5,-104.25 875.5,-104.25"/>
</g>
<!-- LIMITER -->
<g id="node51" class="node">
<title>LIMITER</title>
<polygon fill="none" stroke="black" points="688.25,-189 616.75,-189 616.75,-153 688.25,-153 688.25,-189"/>
<text text-anchor="middle" x="652.5" y="-165.95" font-family="Times,serif" font-size="14.00">LIMITER</text>
</g>
<!-- LIMITER&#45;&gt;SCHEDULER -->
<g id="edge95" class="edge">
<title>LIMITER&#45;&gt;SCHEDULER</title>
<path fill="none" stroke="green" d="M688.64,-158.67C688.64,-158.67 734.58,-158.67 734.58,-158.67"/>
<polygon fill="green" stroke="green" points="734.58,-162.17 744.58,-158.67 734.58,-155.17 734.58,-162.17"/>
</g>
<!-- DWT -->
<g id="node54" class="node">
<title>DWT</title>
<polygon fill="none" stroke="black" points="555.12,-354 501.12,-354 501.12,-318 555.12,-318 555.12,-354"/>
<text text-anchor="middle" x="528.12" y="-330.95" font-family="Times,serif" font-size="14.00">DWT</text>
</g>
<!-- DWT&#45;&gt;TIME -->
<g id="edge104" class="edge">
<title>DWT&#45;&gt;TIME</title>
<path fill="none" stroke="black" d="M555.42,-336C555.42,-336 614.27,-336 614.27,-336"/>
<polygon fill="black" stroke="black" points="614.27,-339.5 624.27,-336 614.27,-332.5 614.27,-339.5"/>
</g>
</g>
</svg>
