<?xml version="1.0" encoding="UTF-8" standalone="no"?>
<!DOCTYPE svg PUBLIC "-//W3C//DTD SVG 1.1//EN"
 "http://www.w3.org/Graphics/SVG/1.1/DTD/svg11.dtd">
<!-- Generated by graphviz version 5.0.0 (20220707.1540)
 -->
<!-- Title: graphname Pages: 1 -->
<svg width="1114pt" height="1834pt"
 viewBox="0.00 0.00 1114.00 1834.00" xmlns="http://www.w3.org/2000/svg" xmlns:xlink="http://www.w3.org/1999/xlink">
<g id="graph0" class="graph" transform="scale(1 1) rotate(0) translate(4 1830)">
<title>graphname</title>
<polygon fill="white" stroke="transparent" points="-4,4 -4,-1830 1110,-1830 1110,4 -4,4"/>
<g id="clust3" class="cluster">
<title>cluster_Connectivity</title>
<polygon fill="oldlace" stroke="oldlace" points="404.5,-8 404.5,-265 1099,-265 1099,-8 404.5,-8"/>
<text text-anchor="middle" x="751.75" y="-249.8" font-family="Times New Roman,serif" font-size="14.00">Connectivity</text>
</g>
<g id="clust5" class="cluster">
<title>cluster_protocols</title>
<polygon fill="oldlace" stroke="oldlace" points="1020,-99 1020,-174 1091,-174 1091,-99 1020,-99"/>
<text text-anchor="middle" x="1055.5" y="-158.8" font-family="Times New Roman,serif" font-size="14.00">Protocols</text>
</g>
<g id="clust2" class="cluster">
<title>cluster_adc</title>
<polygon fill="oldlace" stroke="oldlace" points="259,-748 259,-931 355,-931 355,-748 259,-748"/>
<text text-anchor="middle" x="307" y="-915.8" font-family="Times New Roman,serif" font-size="14.00">ADT</text>
</g>
<g id="clust1" class="cluster">
<title>cluster_mcal</title>
<polygon fill="oldlace" stroke="oldlace" points="401,-907 401,-1252 478,-1252 478,-907 401,-907"/>
<text text-anchor="middle" x="439.5" y="-1236.8" font-family="Times New Roman,serif" font-size="14.00">MCAL</text>
</g>
<g id="clust8" class="cluster">
<title>cluster_storage</title>
<polygon fill="oldlace" stroke="oldlace" points="129.5,-273 129.5,-564 480.5,-564 480.5,-273 129.5,-273"/>
<text text-anchor="middle" x="305" y="-548.8" font-family="Times New Roman,serif" font-size="14.00">Storage</text>
</g>
<g id="clust6" class="cluster">
<title>cluster_control</title>
<polygon fill="oldlace" stroke="oldlace" points="537.5,-1169 537.5,-1568 974.5,-1568 974.5,-1169 537.5,-1169"/>
<text text-anchor="middle" x="756" y="-1552.8" font-family="Times New Roman,serif" font-size="14.00">Control</text>
</g>
<g id="clust9" class="cluster">
<title>cluster_asics</title>
<polygon fill="oldlace" stroke="oldlace" points="8,-956 8,-1031 94,-1031 94,-956 8,-956"/>
<text text-anchor="middle" x="51" y="-1015.8" font-family="Times New Roman,serif" font-size="14.00">ASICS</text>
</g>
<g id="clust7" class="cluster">
<title>cluster_Computing</title>
<polygon fill="oldlace" stroke="oldlace" points="256,-1099 256,-1606 358,-1606 358,-1099 256,-1099"/>
<text text-anchor="middle" x="307" y="-1590.8" font-family="Times New Roman,serif" font-size="14.00">Computing</text>
</g>
<!-- FPU -->
<g id="node1" class="node">
<title>FPU</title>
<polygon fill="none" stroke="black" points="198.5,-1772 144.5,-1772 144.5,-1736 198.5,-1736 198.5,-1772"/>
<text text-anchor="middle" x="171.5" y="-1750.3" font-family="Times New Roman,serif" font-size="14.00">FPU</text>
</g>
<!-- CORTEX_M4 -->
<g id="node2" class="node">
<title>CORTEX_M4</title>
<polygon fill="none" stroke="black" points="357,-1780 257,-1780 257,-1744 357,-1744 357,-1780"/>
<text text-anchor="middle" x="307" y="-1758.3" font-family="Times New Roman,serif" font-size="14.00">CORTEX_M4</text>
</g>
<!-- FPU&#45;&gt;CORTEX_M4 -->
<g id="edge1" class="edge">
<title>FPU&#45;&gt;CORTEX_M4</title>
<path fill="none" stroke="black" d="M198.59,-1758C198.59,-1758 246.92,-1758 246.92,-1758"/>
<polygon fill="black" stroke="black" points="246.92,-1761.5 256.92,-1758 246.92,-1754.5 246.92,-1761.5"/>
</g>
<!-- THUMB -->
<g id="node3" class="node">
<title>THUMB</title>
<polygon fill="none" stroke="black" points="204.5,-1826 138.5,-1826 138.5,-1790 204.5,-1790 204.5,-1826"/>
<text text-anchor="middle" x="171.5" y="-1804.3" font-family="Times New Roman,serif" font-size="14.00">THUMB</text>
</g>
<!-- THUMB&#45;&gt;CORTEX_M4 -->
<g id="edge2" class="edge">
<title>THUMB&#45;&gt;CORTEX_M4</title>
<path fill="none" stroke="black" d="M172,-1789.76C172,-1782.57 172,-1776 172,-1776 172,-1776 246.73,-1776 246.73,-1776"/>
<polygon fill="black" stroke="black" points="246.73,-1779.5 256.73,-1776 246.73,-1772.5 246.73,-1779.5"/>
</g>
<!-- SYSTICK -->
<g id="node4" class="node">
<title>SYSTICK</title>
<polygon fill="none" stroke="black" points="209.5,-1703 133.5,-1703 133.5,-1667 209.5,-1667 209.5,-1703"/>
<text text-anchor="middle" x="171.5" y="-1681.3" font-family="Times New Roman,serif" font-size="14.00">SYSTICK</text>
</g>
<!-- SYSTICK&#45;&gt;CORTEX_M4 -->
<g id="edge3" class="edge">
<title>SYSTICK&#45;&gt;CORTEX_M4</title>
<path fill="none" stroke="black" d="M209.51,-1691C234.65,-1691 263,-1691 263,-1691 263,-1691 263,-1733.72 263,-1733.72"/>
<polygon fill="black" stroke="black" points="259.5,-1733.72 263,-1743.72 266.5,-1733.72 259.5,-1733.72"/>
</g>
<!-- TIME -->
<g id="node13" class="node">
<title>TIME</title>
<polygon fill="none" stroke="black" points="334,-1650 280,-1650 280,-1614 334,-1614 334,-1650"/>
<text text-anchor="middle" x="307" y="-1628.3" font-family="Times New Roman,serif" font-size="14.00">TIME</text>
</g>
<!-- SYSTICK&#45;&gt;TIME -->
<g id="edge62" class="edge">
<title>SYSTICK&#45;&gt;TIME</title>
<path fill="none" stroke="black" d="M208,-1666.76C208,-1651.43 208,-1632 208,-1632 208,-1632 269.95,-1632 269.95,-1632"/>
<polygon fill="black" stroke="black" points="269.95,-1635.5 279.95,-1632 269.95,-1628.5 269.95,-1635.5"/>
</g>
<!-- FREE_RTOS -->
<g id="node37" class="node">
<title>FREE_RTOS</title>
<polygon fill="none" stroke="black" points="966.5,-1510 870.5,-1510 870.5,-1474 966.5,-1474 966.5,-1510"/>
<text text-anchor="middle" x="918.5" y="-1488.3" font-family="Times New Roman,serif" font-size="14.00">FREE_RTOS</text>
</g>
<!-- SYSTICK&#45;&gt;FREE_RTOS -->
<g id="edge48" class="edge">
<title>SYSTICK&#45;&gt;FREE_RTOS</title>
<path fill="none" stroke="black" d="M209.6,-1679C361.92,-1679 919,-1679 919,-1679 919,-1679 919,-1520.27 919,-1520.27"/>
<polygon fill="black" stroke="black" points="922.5,-1520.27 919,-1510.27 915.5,-1520.27 922.5,-1520.27"/>
</g>
<!-- RTOS -->
<g id="node40" class="node">
<title>RTOS</title>
<polygon fill="none" stroke="black" points="621.5,-1537 567.5,-1537 567.5,-1501 621.5,-1501 621.5,-1537"/>
<text text-anchor="middle" x="594.5" y="-1515.3" font-family="Times New Roman,serif" font-size="14.00">RTOS</text>
</g>
<!-- SYSTICK&#45;&gt;RTOS -->
<g id="edge55" class="edge">
<title>SYSTICK&#45;&gt;RTOS</title>
<path fill="none" stroke="black" d="M206,-1666.8C206,-1625.65 206,-1529 206,-1529 206,-1529 557.49,-1529 557.49,-1529"/>
<polygon fill="black" stroke="black" points="557.49,-1532.5 567.49,-1529 557.49,-1525.5 557.49,-1532.5"/>
</g>
<!-- DMA -->
<g id="node5" class="node">
<title>DMA</title>
<polygon fill="aquamarine" stroke="black" points="460.5,-1059 412.5,-1059 412.5,-1023 466.5,-1023 466.5,-1053 460.5,-1059"/>
<polyline fill="none" stroke="black" points="460.5,-1059 460.5,-1053 "/>
<polyline fill="none" stroke="black" points="466.5,-1053 460.5,-1053 "/>
<text text-anchor="middle" x="439.5" y="-1037.3" font-family="Times New Roman,serif" font-size="14.00">DMA</text>
</g>
<!-- FLASH -->
<g id="node6" class="node">
<title>FLASH</title>
<polygon fill="aquamarine" stroke="black" points="464,-1221 409,-1221 409,-1185 470,-1185 470,-1215 464,-1221"/>
<polyline fill="none" stroke="black" points="464,-1221 464,-1215 "/>
<polyline fill="none" stroke="black" points="470,-1215 464,-1215 "/>
<text text-anchor="middle" x="439.5" y="-1199.3" font-family="Times New Roman,serif" font-size="14.00">FLASH</text>
</g>
<!-- NVS -->
<g id="node18" class="node">
<title>NVS</title>
<polygon fill="none" stroke="black" points="198.5,-371 144.5,-371 144.5,-335 198.5,-335 198.5,-371"/>
<text text-anchor="middle" x="171.5" y="-349.3" font-family="Times New Roman,serif" font-size="14.00">NVS</text>
</g>
<!-- FLASH&#45;&gt;NVS -->
<g id="edge13" class="edge">
<title>FLASH&#45;&gt;NVS</title>
<path fill="none" stroke="black" d="M408.88,-1187.4C404.8,-1187.4 402,-1187.4 402,-1187.4 402,-1187.4 402,-344 402,-344 402,-344 208.85,-344 208.85,-344"/>
<polygon fill="black" stroke="black" points="208.85,-340.5 198.85,-344 208.85,-347.5 208.85,-340.5"/>
</g>
<!-- BOOT -->
<g id="node35" class="node">
<title>BOOT</title>
<polygon fill="none" stroke="black" points="622.5,-1213 566.5,-1213 566.5,-1177 622.5,-1177 622.5,-1213"/>
<text text-anchor="middle" x="594.5" y="-1191.3" font-family="Times New Roman,serif" font-size="14.00">BOOT</text>
</g>
<!-- FLASH&#45;&gt;BOOT -->
<g id="edge46" class="edge">
<title>FLASH&#45;&gt;BOOT</title>
<path fill="none" stroke="black" d="M470.12,-1199C470.12,-1199 556.29,-1199 556.29,-1199"/>
<polygon fill="black" stroke="black" points="556.29,-1202.5 566.29,-1199 556.29,-1195.5 556.29,-1202.5"/>
</g>
<!-- DEBUGGER -->
<g id="node36" class="node">
<title>DEBUGGER</title>
<polygon fill="none" stroke="black" points="640.5,-1375 548.5,-1375 548.5,-1339 640.5,-1339 640.5,-1375"/>
<text text-anchor="middle" x="594.5" y="-1353.3" font-family="Times New Roman,serif" font-size="14.00">DEBUGGER</text>
</g>
<!-- FLASH&#45;&gt;DEBUGGER -->
<g id="edge47" class="edge">
<title>FLASH&#45;&gt;DEBUGGER</title>
<path fill="none" stroke="black" d="M450,-1221.2C450,-1260.33 450,-1349 450,-1349 450,-1349 538.38,-1349 538.38,-1349"/>
<polygon fill="black" stroke="black" points="538.38,-1352.5 548.38,-1349 538.38,-1345.5 538.38,-1352.5"/>
</g>
<!-- TASK -->
<g id="node43" class="node">
<title>TASK</title>
<polygon fill="none" stroke="black" points="630.5,-1429 558.5,-1429 558.5,-1393 630.5,-1393 630.5,-1429"/>
<text text-anchor="middle" x="594.5" y="-1407.3" font-family="Times New Roman,serif" font-size="14.00">Scheduler</text>
</g>
<!-- FLASH&#45;&gt;TASK -->
<g id="edge59" class="edge">
<title>FLASH&#45;&gt;TASK</title>
<path fill="none" stroke="blue" d="M430,-1221.1C430,-1270.33 430,-1403 430,-1403 430,-1403 548.4,-1403 548.4,-1403"/>
<polygon fill="blue" stroke="blue" points="548.4,-1406.5 558.4,-1403 548.4,-1399.5 548.4,-1406.5"/>
</g>
<!-- LIMITER -->
<g id="node46" class="node">
<title>LIMITER</title>
<polygon fill="none" stroke="black" points="343.5,-1575 270.5,-1575 270.5,-1539 343.5,-1539 343.5,-1575"/>
<text text-anchor="middle" x="307" y="-1553.3" font-family="Times New Roman,serif" font-size="14.00">LIMITER</text>
</g>
<!-- FLASH&#45;&gt;LIMITER -->
<g id="edge67" class="edge">
<title>FLASH&#45;&gt;LIMITER</title>
<path fill="none" stroke="black" d="M408.76,-1206C383.9,-1206 353,-1206 353,-1206 353,-1206 353,-1551 353,-1551 353,-1551 352.07,-1551 352.07,-1551"/>
<polygon fill="black" stroke="black" points="353.69,-1547.5 343.69,-1551 353.69,-1554.5 353.69,-1547.5"/>
</g>
<!-- SOFTWARE_TIMER -->
<g id="node47" class="node">
<title>SOFTWARE_TIMER</title>
<polygon fill="none" stroke="black" points="667,-1612 522,-1612 522,-1576 667,-1576 667,-1612"/>
<text text-anchor="middle" x="594.5" y="-1590.3" font-family="Times New Roman,serif" font-size="14.00">SOFTWARE_TIMER</text>
</g>
<!-- FLASH&#45;&gt;SOFTWARE_TIMER -->
<g id="edge61" class="edge">
<title>FLASH&#45;&gt;SOFTWARE_TIMER</title>
<path fill="none" stroke="black" d="M470.12,-1217C497.38,-1217 533,-1217 533,-1217 533,-1217 533,-1565.82 533,-1565.82"/>
<polygon fill="black" stroke="black" points="529.5,-1565.82 533,-1575.82 536.5,-1565.82 529.5,-1565.82"/>
</g>
<!-- GPIO -->
<g id="node7" class="node">
<title>GPIO</title>
<polygon fill="aquamarine" stroke="black" points="460.5,-951 412.5,-951 412.5,-915 466.5,-915 466.5,-945 460.5,-951"/>
<polyline fill="none" stroke="black" points="460.5,-951 460.5,-945 "/>
<polyline fill="none" stroke="black" points="466.5,-945 460.5,-945 "/>
<text text-anchor="middle" x="439.5" y="-929.3" font-family="Times New Roman,serif" font-size="14.00">GPIO</text>
</g>
<!-- UART -->
<g id="node10" class="node">
<title>UART</title>
<polygon fill="aquamarine" stroke="black" points="616,-177 567,-177 567,-141 622,-141 622,-171 616,-177"/>
<polyline fill="none" stroke="black" points="616,-177 616,-171 "/>
<polyline fill="none" stroke="black" points="622,-171 616,-171 "/>
<text text-anchor="middle" x="594.5" y="-155.3" font-family="Times New Roman,serif" font-size="14.00">UART</text>
</g>
<!-- GPIO&#45;&gt;UART -->
<g id="edge22" class="edge">
<title>GPIO&#45;&gt;UART</title>
<path fill="none" stroke="black" d="M466.74,-924C474.06,-924 480,-924 480,-924 480,-924 480,-170 480,-170 480,-170 556.78,-170 556.78,-170"/>
<polygon fill="black" stroke="black" points="556.78,-173.5 566.78,-170 556.78,-166.5 556.78,-173.5"/>
</g>
<!-- LED -->
<g id="node39" class="node">
<title>LED</title>
<polygon fill="none" stroke="black" points="621.5,-1321 567.5,-1321 567.5,-1285 621.5,-1285 621.5,-1321"/>
<text text-anchor="middle" x="594.5" y="-1299.3" font-family="Times New Roman,serif" font-size="14.00">LED</text>
</g>
<!-- GPIO&#45;&gt;LED -->
<g id="edge51" class="edge">
<title>GPIO&#45;&gt;LED</title>
<path fill="none" stroke="black" d="M466.66,-933C474.99,-933 482,-933 482,-933 482,-933 482,-1295 482,-1295 482,-1295 557.27,-1295 557.27,-1295"/>
<polygon fill="black" stroke="black" points="557.27,-1298.5 567.27,-1295 557.27,-1291.5 557.27,-1298.5"/>
</g>
<!-- LED_MONO -->
<g id="node45" class="node">
<title>LED_MONO</title>
<polygon fill="none" stroke="black" points="486,-1487 393,-1487 393,-1451 486,-1451 486,-1487"/>
<text text-anchor="middle" x="439.5" y="-1465.3" font-family="Times New Roman,serif" font-size="14.00">LED_MONO</text>
</g>
<!-- GPIO&#45;&gt;LED_MONO -->
<g id="edge52" class="edge">
<title>GPIO&#45;&gt;LED_MONO</title>
<path fill="none" stroke="black" d="M466.77,-942C471.53,-942 475,-942 475,-942 475,-942 475,-1440.86 475,-1440.86"/>
<polygon fill="black" stroke="black" points="471.5,-1440.86 475,-1450.86 478.5,-1440.86 471.5,-1440.86"/>
</g>
<!-- SDIO -->
<g id="node8" class="node">
<title>SDIO</title>
<polygon fill="aquamarine" stroke="black" points="460.5,-1167 412.5,-1167 412.5,-1131 466.5,-1131 466.5,-1161 460.5,-1167"/>
<polyline fill="none" stroke="black" points="460.5,-1167 460.5,-1161 "/>
<polyline fill="none" stroke="black" points="466.5,-1161 460.5,-1161 "/>
<text text-anchor="middle" x="439.5" y="-1145.3" font-family="Times New Roman,serif" font-size="14.00">SDIO</text>
</g>
<!-- SD_CARD -->
<g id="node60" class="node">
<title>SD_CARD</title>
<polygon fill="none" stroke="black" points="635,-1159 554,-1159 554,-1123 635,-1123 635,-1159"/>
<text text-anchor="middle" x="594.5" y="-1137.3" font-family="Times New Roman,serif" font-size="14.00">SD_CARD</text>
</g>
<!-- SDIO&#45;&gt;SD_CARD -->
<g id="edge75" class="edge">
<title>SDIO&#45;&gt;SD_CARD</title>
<path fill="none" stroke="black" d="M466.85,-1145C466.85,-1145 543.73,-1145 543.73,-1145"/>
<polygon fill="black" stroke="black" points="543.73,-1148.5 553.73,-1145 543.73,-1141.5 543.73,-1148.5"/>
</g>
<!-- TIMER -->
<g id="node9" class="node">
<title>TIMER</title>
<polygon fill="aquamarine" stroke="black" points="463.5,-1005 409.5,-1005 409.5,-969 469.5,-969 469.5,-999 463.5,-1005"/>
<polyline fill="none" stroke="black" points="463.5,-1005 463.5,-999 "/>
<polyline fill="none" stroke="black" points="469.5,-999 463.5,-999 "/>
<text text-anchor="middle" x="439.5" y="-983.3" font-family="Times New Roman,serif" font-size="14.00">TIMER</text>
</g>
<!-- TIMER&#45;&gt;TIME -->
<g id="edge20" class="edge">
<title>TIMER&#45;&gt;TIME</title>
<path fill="none" stroke="black" d="M409.26,-993.8C397.59,-993.8 387,-993.8 387,-993.8 387,-993.8 387,-1641 387,-1641 387,-1641 344.08,-1641 344.08,-1641"/>
<polygon fill="black" stroke="black" points="344.08,-1637.5 334.08,-1641 344.08,-1644.5 344.08,-1637.5"/>
</g>
<!-- STREAM -->
<g id="node24" class="node">
<title>STREAM</title>
<polygon fill="none" stroke="black" points="797,-177 723,-177 723,-141 797,-141 797,-177"/>
<text text-anchor="middle" x="760" y="-155.3" font-family="Times New Roman,serif" font-size="14.00">STREAM</text>
</g>
<!-- UART&#45;&gt;STREAM -->
<g id="edge33" class="edge">
<title>UART&#45;&gt;STREAM</title>
<path fill="none" stroke="chartreuse" d="M622.2,-153C622.2,-153 712.89,-153 712.89,-153"/>
<polygon fill="chartreuse" stroke="chartreuse" points="712.89,-156.5 722.89,-153 712.89,-149.5 712.89,-156.5"/>
</g>
<!-- LOG -->
<g id="node29" class="node">
<title>LOG</title>
<polygon fill="none" stroke="black" points="945.5,-106 891.5,-106 891.5,-70 945.5,-70 945.5,-106"/>
<text text-anchor="middle" x="918.5" y="-84.3" font-family="Times New Roman,serif" font-size="14.00">LOG</text>
</g>
<!-- UART&#45;&gt;LOG -->
<g id="edge44" class="edge">
<title>UART&#45;&gt;LOG</title>
<path fill="none" stroke="black" d="M595,-140.94C595,-120.97 595,-91.6 595,-91.6 595,-91.6 881.47,-91.6 881.47,-91.6"/>
<polygon fill="black" stroke="black" points="881.48,-95.1 891.47,-91.6 881.47,-88.1 881.48,-95.1"/>
</g>
<!-- USB -->
<g id="node11" class="node">
<title>USB</title>
<polygon fill="aquamarine" stroke="black" points="460.5,-1113 412.5,-1113 412.5,-1077 466.5,-1077 466.5,-1107 460.5,-1113"/>
<polyline fill="none" stroke="black" points="460.5,-1113 460.5,-1107 "/>
<polyline fill="none" stroke="black" points="466.5,-1107 460.5,-1107 "/>
<text text-anchor="middle" x="439.5" y="-1091.3" font-family="Times New Roman,serif" font-size="14.00">USB</text>
</g>
<!-- HID -->
<g id="node23" class="node">
<title>HID</title>
<polygon fill="none" stroke="black" points="621.5,-1105 567.5,-1105 567.5,-1069 621.5,-1069 621.5,-1105"/>
<text text-anchor="middle" x="594.5" y="-1083.3" font-family="Times New Roman,serif" font-size="14.00">HID</text>
</g>
<!-- USB&#45;&gt;HID -->
<g id="edge25" class="edge">
<title>USB&#45;&gt;HID</title>
<path fill="none" stroke="black" d="M466.85,-1091C466.85,-1091 557.42,-1091 557.42,-1091"/>
<polygon fill="black" stroke="black" points="557.42,-1094.5 567.42,-1091 557.42,-1087.5 557.42,-1094.5"/>
</g>
<!-- USB&#45;&gt;STREAM -->
<g id="edge26" class="edge">
<title>USB&#45;&gt;STREAM</title>
<path fill="none" stroke="black" d="M466.55,-1109C543.82,-1109 760,-1109 760,-1109 760,-1109 760,-187.13 760,-187.13"/>
<polygon fill="black" stroke="black" points="763.5,-187.13 760,-177.13 756.5,-187.13 763.5,-187.13"/>
</g>
<!-- REG -->
<g id="node12" class="node">
<title>REG</title>
<polygon fill="none" stroke="black" points="198.5,-479 144.5,-479 144.5,-443 198.5,-443 198.5,-479"/>
<text text-anchor="middle" x="171.5" y="-457.3" font-family="Times New Roman,serif" font-size="14.00">REG</text>
</g>
<!-- REG&#45;&gt;DMA -->
<g id="edge4" class="edge">
<title>REG&#45;&gt;DMA</title>
<path fill="none" stroke="black" d="M198.72,-455C250.05,-455 356,-455 356,-455 356,-455 356,-1037 356,-1037 356,-1037 402.16,-1037 402.16,-1037"/>
<polygon fill="black" stroke="black" points="402.16,-1040.5 412.16,-1037 402.16,-1033.5 402.16,-1040.5"/>
</g>
<!-- REG&#45;&gt;FLASH -->
<g id="edge7" class="edge">
<title>REG&#45;&gt;FLASH</title>
<path fill="none" stroke="black" d="M198.82,-449C259.06,-449 398,-449 398,-449 398,-449 398,-1189.8 398,-1189.8 398,-1189.8 399.09,-1189.8 399.09,-1189.8"/>
<polygon fill="black" stroke="black" points="398.9,-1193.3 408.9,-1189.8 398.9,-1186.3 398.9,-1193.3"/>
</g>
<!-- REG&#45;&gt;GPIO -->
<g id="edge10" class="edge">
<title>REG&#45;&gt;GPIO</title>
<path fill="none" stroke="black" d="M198.63,-461C201.84,-461 204,-461 204,-461 204,-461 204,-927 204,-927 204,-927 402.49,-927 402.49,-927"/>
<polygon fill="black" stroke="black" points="402.49,-930.5 412.49,-927 402.49,-923.5 402.49,-930.5"/>
</g>
<!-- REG&#45;&gt;TIMER -->
<g id="edge18" class="edge">
<title>REG&#45;&gt;TIMER</title>
<path fill="none" stroke="black" d="M198.74,-467C200.74,-467 202,-467 202,-467 202,-467 202,-981.4 202,-981.4 202,-981.4 399.42,-981.4 399.42,-981.4"/>
<polygon fill="black" stroke="black" points="399.42,-984.9 409.42,-981.4 399.42,-977.9 399.42,-984.9"/>
</g>
<!-- CLOCK -->
<g id="node19" class="node">
<title>CLOCK</title>
<polygon fill="none" stroke="black" points="339.5,-1051 274.5,-1051 274.5,-1015 339.5,-1015 339.5,-1051"/>
<text text-anchor="middle" x="307" y="-1029.3" font-family="Times New Roman,serif" font-size="14.00">CLOCK</text>
</g>
<!-- REG&#45;&gt;CLOCK -->
<g id="edge15" class="edge">
<title>REG&#45;&gt;CLOCK</title>
<path fill="none" stroke="black" d="M198.69,-473C200.13,-473 201,-473 201,-473 201,-473 201,-1033 201,-1033 201,-1033 264.33,-1033 264.33,-1033"/>
<polygon fill="black" stroke="black" points="264.33,-1036.5 274.33,-1033 264.33,-1029.5 264.33,-1036.5"/>
</g>
<!-- TIME&#45;&gt;DMA -->
<g id="edge5" class="edge">
<title>TIME&#45;&gt;DMA</title>
<path fill="none" stroke="black" d="M334.21,-1618.5C343.69,-1618.5 352,-1618.5 352,-1618.5 352,-1618.5 352,-1055 352,-1055 352,-1055 402.29,-1055 402.29,-1055"/>
<polygon fill="black" stroke="black" points="402.29,-1058.5 412.29,-1055 402.29,-1051.5 402.29,-1058.5"/>
</g>
<!-- TIME&#45;&gt;GPIO -->
<g id="edge9" class="edge">
<title>TIME&#45;&gt;GPIO</title>
<path fill="none" stroke="black" d="M334.27,-1636.5C353.18,-1636.5 375,-1636.5 375,-1636.5 375,-1636.5 375,-939 375,-939 375,-939 402.15,-939 402.15,-939"/>
<polygon fill="black" stroke="black" points="402.15,-942.5 412.15,-939 402.15,-935.5 402.15,-942.5"/>
</g>
<!-- TIME&#45;&gt;UART -->
<g id="edge21" class="edge">
<title>TIME&#45;&gt;UART</title>
<path fill="none" stroke="black" d="M334.01,-1632C350.72,-1632 369,-1632 369,-1632 369,-1632 369,-156 369,-156 369,-156 556.85,-156 556.85,-156"/>
<polygon fill="black" stroke="black" points="556.85,-159.5 566.85,-156 556.85,-152.5 556.85,-159.5"/>
</g>
<!-- TIME&#45;&gt;LOG -->
<g id="edge41" class="edge">
<title>TIME&#45;&gt;LOG</title>
<path fill="none" stroke="black" d="M334.02,-1627.5C348.34,-1627.5 363,-1627.5 363,-1627.5 363,-1627.5 363,-77.2 363,-77.2 363,-77.2 881.33,-77.2 881.33,-77.2"/>
<polygon fill="black" stroke="black" points="881.33,-80.7 891.33,-77.2 881.33,-73.7 881.33,-80.7"/>
</g>
<!-- TIME&#45;&gt;TASK -->
<g id="edge58" class="edge">
<title>TIME&#45;&gt;TASK</title>
<path fill="none" stroke="red" d="M334.07,-1623C344.52,-1623 354,-1623 354,-1623 354,-1623 354,-1423.67 354,-1423.67 354,-1423.67 548.49,-1423.67 548.49,-1423.67"/>
<polygon fill="red" stroke="red" points="548.49,-1427.17 558.49,-1423.67 548.49,-1420.17 548.49,-1427.17"/>
</g>
<!-- TIME&#45;&gt;LED_MONO -->
<g id="edge53" class="edge">
<title>TIME&#45;&gt;LED_MONO</title>
<path fill="none" stroke="black" d="M334.24,-1645.5C373.15,-1645.5 440,-1645.5 440,-1645.5 440,-1645.5 440,-1497.22 440,-1497.22"/>
<polygon fill="black" stroke="black" points="443.5,-1497.22 440,-1487.22 436.5,-1497.22 443.5,-1497.22"/>
</g>
<!-- TIME&#45;&gt;LIMITER -->
<g id="edge66" class="edge">
<title>TIME&#45;&gt;LIMITER</title>
<path fill="none" stroke="black" d="M298,-1613.84C298,-1613.84 298,-1585.25 298,-1585.25"/>
<polygon fill="black" stroke="black" points="301.5,-1585.25 298,-1575.25 294.5,-1585.25 301.5,-1585.25"/>
</g>
<!-- TIME&#45;&gt;SOFTWARE_TIMER -->
<g id="edge60" class="edge">
<title>TIME&#45;&gt;SOFTWARE_TIMER</title>
<path fill="none" stroke="black" d="M316,-1613.89C316,-1604.1 316,-1594 316,-1594 316,-1594 511.69,-1594 511.69,-1594"/>
<polygon fill="black" stroke="black" points="511.69,-1597.5 521.69,-1594 511.69,-1590.5 511.69,-1597.5"/>
</g>
<!-- ARRAY -->
<g id="node14" class="node">
<title>ARRAY</title>
<polygon fill="aqua" stroke="black" points="333.5,-900 274.5,-900 274.5,-864 339.5,-864 339.5,-894 333.5,-900"/>
<polyline fill="none" stroke="black" points="333.5,-900 333.5,-894 "/>
<polyline fill="none" stroke="black" points="339.5,-894 333.5,-894 "/>
<text text-anchor="middle" x="307" y="-878.3" font-family="Times New Roman,serif" font-size="14.00">ARRAY</text>
</g>
<!-- ARRAY&#45;&gt;FLASH -->
<g id="edge6" class="edge">
<title>ARRAY&#45;&gt;FLASH</title>
<path fill="none" stroke="black" d="M339.68,-882C348.67,-882 356,-882 356,-882 356,-882 356,-1192.2 356,-1192.2 356,-1192.2 398.88,-1192.2 398.88,-1192.2"/>
<polygon fill="black" stroke="black" points="398.88,-1195.7 408.88,-1192.2 398.88,-1188.7 398.88,-1195.7"/>
</g>
<!-- INTERVAL -->
<g id="node15" class="node">
<title>INTERVAL</title>
<polygon fill="none" stroke="black" points="350,-1143 264,-1143 264,-1107 350,-1107 350,-1143"/>
<text text-anchor="middle" x="307" y="-1121.3" font-family="Times New Roman,serif" font-size="14.00">INTERVAL</text>
</g>
<!-- INTERVAL&#45;&gt;FLASH -->
<g id="edge8" class="edge">
<title>INTERVAL&#45;&gt;FLASH</title>
<path fill="none" stroke="black" d="M350.22,-1137C353.17,-1137 355,-1137 355,-1137 355,-1137 355,-1194.6 355,-1194.6 355,-1194.6 398.99,-1194.6 398.99,-1194.6"/>
<polygon fill="black" stroke="black" points="398.99,-1198.1 408.99,-1194.6 398.99,-1191.1 398.99,-1198.1"/>
</g>
<!-- INTERVAL&#45;&gt;NVS -->
<g id="edge14" class="edge">
<title>INTERVAL&#45;&gt;NVS</title>
<path fill="none" stroke="black" d="M263.78,-1131C260.83,-1131 259,-1131 259,-1131 259,-1131 259,-362 259,-362 259,-362 208.71,-362 208.71,-362"/>
<polygon fill="black" stroke="black" points="208.71,-358.5 198.71,-362 208.71,-365.5 208.71,-358.5"/>
</g>
<!-- MCU -->
<g id="node16" class="node">
<title>MCU</title>
<polygon fill="none" stroke="black" points="334,-662 280,-662 280,-626 334,-626 334,-662"/>
<text text-anchor="middle" x="307" y="-640.3" font-family="Times New Roman,serif" font-size="14.00">MCU</text>
</g>
<!-- MCU&#45;&gt;GPIO -->
<g id="edge11" class="edge">
<title>MCU&#45;&gt;GPIO</title>
<path fill="none" stroke="black" d="M334.24,-644C373.15,-644 440,-644 440,-644 440,-644 440,-904.92 440,-904.92"/>
<polygon fill="black" stroke="black" points="436.5,-904.92 440,-914.92 443.5,-904.92 436.5,-904.92"/>
</g>
<!-- CRC -->
<g id="node17" class="node">
<title>CRC</title>
<polygon fill="none" stroke="black" points="78,-371 24,-371 24,-335 78,-335 78,-371"/>
<text text-anchor="middle" x="51" y="-349.3" font-family="Times New Roman,serif" font-size="14.00">CRC</text>
</g>
<!-- CRC&#45;&gt;NVS -->
<g id="edge12" class="edge">
<title>CRC&#45;&gt;NVS</title>
<path fill="none" stroke="black" d="M78.04,-353C78.04,-353 134.13,-353 134.13,-353"/>
<polygon fill="black" stroke="black" points="134.13,-356.5 144.13,-353 134.13,-349.5 134.13,-356.5"/>
</g>
<!-- FLASH_FS -->
<g id="node57" class="node">
<title>FLASH_FS</title>
<polygon fill="none" stroke="black" points="349.5,-533 264.5,-533 264.5,-497 349.5,-497 349.5,-533"/>
<text text-anchor="middle" x="307" y="-511.3" font-family="Times New Roman,serif" font-size="14.00">FLASH_FS</text>
</g>
<!-- NVS&#45;&gt;FLASH_FS -->
<g id="edge77" class="edge">
<title>NVS&#45;&gt;FLASH_FS</title>
<path fill="none" stroke="black" d="M198.59,-353C238.14,-353 307,-353 307,-353 307,-353 307,-486.73 307,-486.73"/>
<polygon fill="black" stroke="black" points="303.5,-486.73 307,-496.73 310.5,-486.73 303.5,-486.73"/>
</g>
<!-- CLOCK&#45;&gt;TIMER -->
<g id="edge16" class="edge">
<title>CLOCK&#45;&gt;TIMER</title>
<path fill="none" stroke="black" d="M339.54,-1019C378.91,-1019 440,-1019 440,-1019 440,-1019 440,-1015.24 440,-1015.24"/>
<polygon fill="black" stroke="black" points="443.5,-1015.24 440,-1005.24 436.5,-1015.24 443.5,-1015.24"/>
</g>
<!-- NVIC -->
<g id="node20" class="node">
<title>NVIC</title>
<polygon fill="none" stroke="black" points="334,-608 280,-608 280,-572 334,-572 334,-608"/>
<text text-anchor="middle" x="307" y="-586.3" font-family="Times New Roman,serif" font-size="14.00">NVIC</text>
</g>
<!-- NVIC&#45;&gt;TIMER -->
<g id="edge17" class="edge">
<title>NVIC&#45;&gt;TIMER</title>
<path fill="none" stroke="black" d="M334.05,-596C345.83,-596 357,-596 357,-596 357,-596 357,-975.2 357,-975.2 357,-975.2 399.25,-975.2 399.25,-975.2"/>
<polygon fill="black" stroke="black" points="399.25,-978.7 409.25,-975.2 399.25,-971.7 399.25,-978.7"/>
</g>
<!-- NVIC&#45;&gt;UART -->
<g id="edge23" class="edge">
<title>NVIC&#45;&gt;UART</title>
<path fill="none" stroke="black" d="M334.31,-584C382.37,-584 477,-584 477,-584 477,-584 477,-163 477,-163 477,-163 556.95,-163 556.95,-163"/>
<polygon fill="black" stroke="black" points="556.95,-166.5 566.95,-163 556.95,-159.5 556.95,-166.5"/>
</g>
<!-- MATH -->
<g id="node21" class="node">
<title>MATH</title>
<polygon fill="none" stroke="black" points="335.5,-1521 278.5,-1521 278.5,-1485 335.5,-1485 335.5,-1521"/>
<text text-anchor="middle" x="307" y="-1499.3" font-family="Times New Roman,serif" font-size="14.00">MATH</text>
</g>
<!-- MATH&#45;&gt;TIMER -->
<g id="edge19" class="edge">
<title>MATH&#45;&gt;TIMER</title>
<path fill="none" stroke="black" d="M335.82,-1494C356.6,-1494 381,-1494 381,-1494 381,-1494 381,-987.6 381,-987.6 381,-987.6 399.22,-987.6 399.22,-987.6"/>
<polygon fill="black" stroke="black" points="399.22,-991.1 409.22,-987.6 399.22,-984.1 399.22,-991.1"/>
</g>
<!-- MATH&#45;&gt;LED_MONO -->
<g id="edge54" class="edge">
<title>MATH&#45;&gt;LED_MONO</title>
<path fill="none" stroke="black" d="M307,-1484.84C307,-1479.96 307,-1476 307,-1476 307,-1476 382.79,-1476 382.79,-1476"/>
<polygon fill="black" stroke="black" points="382.79,-1479.5 392.79,-1476 382.79,-1472.5 382.79,-1479.5"/>
</g>
<!-- FIFO -->
<g id="node22" class="node">
<title>FIFO</title>
<polygon fill="aqua" stroke="black" points="460.5,-142 412.5,-142 412.5,-106 466.5,-106 466.5,-136 460.5,-142"/>
<polyline fill="none" stroke="black" points="460.5,-142 460.5,-136 "/>
<polyline fill="none" stroke="black" points="466.5,-136 460.5,-136 "/>
<text text-anchor="middle" x="439.5" y="-120.3" font-family="Times New Roman,serif" font-size="14.00">FIFO</text>
</g>
<!-- FIFO&#45;&gt;UART -->
<g id="edge24" class="edge">
<title>FIFO&#45;&gt;UART</title>
<path fill="none" stroke="black" d="M440,-142.17C440,-146.05 440,-149 440,-149 440,-149 556.88,-149 556.88,-149"/>
<polygon fill="black" stroke="black" points="556.88,-152.5 566.88,-149 556.88,-145.5 556.88,-152.5"/>
</g>
<!-- FIFO&#45;&gt;LOG -->
<g id="edge43" class="edge">
<title>FIFO&#45;&gt;LOG</title>
<path fill="none" stroke="black" d="M440,-105.59C440,-95.25 440,-84.4 440,-84.4 440,-84.4 881.4,-84.4 881.4,-84.4"/>
<polygon fill="black" stroke="black" points="881.4,-87.9 891.4,-84.4 881.4,-80.9 881.4,-87.9"/>
</g>
<!-- STRING_READER -->
<g id="node32" class="node">
<title>STRING_READER</title>
<polygon fill="none" stroke="black" points="984,-52 853,-52 853,-16 984,-16 984,-52"/>
<text text-anchor="middle" x="918.5" y="-30.3" font-family="Times New Roman,serif" font-size="14.00">STRING_READER</text>
</g>
<!-- FIFO&#45;&gt;STRING_READER -->
<g id="edge35" class="edge">
<title>FIFO&#45;&gt;STRING_READER</title>
<path fill="none" stroke="aqua" d="M466.57,-112.67C559.82,-112.67 862,-112.67 862,-112.67 862,-112.67 862,-62.25 862,-62.25"/>
<polygon fill="aqua" stroke="aqua" points="865.5,-62.25 862,-52.25 858.5,-62.25 865.5,-62.25"/>
</g>
<!-- STREAM&#45;&gt;LOG -->
<g id="edge42" class="edge">
<title>STREAM&#45;&gt;LOG</title>
<path fill="none" stroke="black" d="M773,-140.94C773,-123.21 773,-98.8 773,-98.8 773,-98.8 881.47,-98.8 881.47,-98.8"/>
<polygon fill="black" stroke="black" points="881.47,-102.3 891.47,-98.8 881.47,-95.3 881.47,-102.3"/>
</g>
<!-- CLI -->
<g id="node30" class="node">
<title>CLI</title>
<polygon fill="none" stroke="black" points="1082,-143 1028,-143 1028,-107 1082,-107 1082,-143"/>
<text text-anchor="middle" x="1055" y="-121.3" font-family="Times New Roman,serif" font-size="14.00">CLI</text>
</g>
<!-- STREAM&#45;&gt;CLI -->
<g id="edge38" class="edge">
<title>STREAM&#45;&gt;CLI</title>
<path fill="none" stroke="aqua" d="M748,-140.92C748,-134.89 748,-129.67 748,-129.67 748,-129.67 1017.76,-129.67 1017.76,-129.67"/>
<polygon fill="aqua" stroke="aqua" points="1017.76,-133.17 1027.76,-129.67 1017.76,-126.17 1017.76,-133.17"/>
</g>
<!-- HASHSET -->
<g id="node25" class="node">
<title>HASHSET</title>
<polygon fill="aqua" stroke="black" points="341,-846 267,-846 267,-810 347,-810 347,-840 341,-846"/>
<polyline fill="none" stroke="black" points="341,-846 341,-840 "/>
<polyline fill="none" stroke="black" points="347,-840 341,-840 "/>
<text text-anchor="middle" x="307" y="-824.3" font-family="Times New Roman,serif" font-size="14.00">HASHSET</text>
</g>
<!-- XML -->
<g id="node58" class="node">
<title>XML</title>
<polygon fill="none" stroke="black" points="198.5,-425 144.5,-425 144.5,-389 198.5,-389 198.5,-425"/>
<text text-anchor="middle" x="171.5" y="-403.3" font-family="Times New Roman,serif" font-size="14.00">XML</text>
</g>
<!-- HASHSET&#45;&gt;XML -->
<g id="edge80" class="edge">
<title>HASHSET&#45;&gt;XML</title>
<path fill="none" stroke="black" d="M266.94,-822C262.76,-822 260,-822 260,-822 260,-822 260,-413 260,-413 260,-413 208.53,-413 208.53,-413"/>
<polygon fill="black" stroke="black" points="208.53,-409.5 198.53,-413 208.53,-416.5 208.53,-409.5"/>
</g>
<!-- LIFO -->
<g id="node26" class="node">
<title>LIFO</title>
<polygon fill="aqua" stroke="black" points="328,-792 280,-792 280,-756 334,-756 334,-786 328,-792"/>
<polyline fill="none" stroke="black" points="328,-792 328,-786 "/>
<polyline fill="none" stroke="black" points="334,-786 328,-786 "/>
<text text-anchor="middle" x="307" y="-770.3" font-family="Times New Roman,serif" font-size="14.00">LIFO</text>
</g>
<!-- LIFO&#45;&gt;XML -->
<g id="edge79" class="edge">
<title>LIFO&#45;&gt;XML</title>
<path fill="none" stroke="black" d="M279.79,-768C270.31,-768 262,-768 262,-768 262,-768 262,-401 262,-401 262,-401 208.65,-401 208.65,-401"/>
<polygon fill="black" stroke="black" points="208.65,-397.5 198.65,-401 208.65,-404.5 208.65,-397.5"/>
</g>
<!-- RAM -->
<g id="node27" class="node">
<title>RAM</title>
<polygon fill="none" stroke="black" points="198.5,-533 144.5,-533 144.5,-497 198.5,-497 198.5,-533"/>
<text text-anchor="middle" x="171.5" y="-511.3" font-family="Times New Roman,serif" font-size="14.00">RAM</text>
</g>
<!-- RAM&#45;&gt;ARRAY -->
<g id="edge27" class="edge">
<title>RAM&#45;&gt;ARRAY</title>
<path fill="none" stroke="blue" d="M183,-533.2C183,-607.25 183,-882 183,-882 183,-882 264.42,-882 264.42,-882"/>
<polygon fill="blue" stroke="blue" points="264.42,-885.5 274.42,-882 264.42,-878.5 264.42,-885.5"/>
</g>
<!-- RAM&#45;&gt;INTERVAL -->
<g id="edge69" class="edge">
<title>RAM&#45;&gt;INTERVAL</title>
<path fill="none" stroke="black" d="M177,-533.08C177,-633.57 177,-1119 177,-1119 177,-1119 253.71,-1119 253.71,-1119"/>
<polygon fill="black" stroke="black" points="253.71,-1122.5 263.71,-1119 253.71,-1115.5 253.71,-1122.5"/>
</g>
<!-- RAM&#45;&gt;FIFO -->
<g id="edge28" class="edge">
<title>RAM&#45;&gt;FIFO</title>
<path fill="none" stroke="black" d="M198.66,-515C206.99,-515 214,-515 214,-515 214,-515 214,-124 214,-124 214,-124 402.3,-124 402.3,-124"/>
<polygon fill="black" stroke="black" points="402.3,-127.5 412.3,-124 402.3,-120.5 402.3,-127.5"/>
</g>
<!-- RAM&#45;&gt;HASHSET -->
<g id="edge29" class="edge">
<title>RAM&#45;&gt;HASHSET</title>
<path fill="none" stroke="blue" d="M188,-533.06C188,-600.55 188,-834 188,-834 188,-834 256.71,-834 256.71,-834"/>
<polygon fill="blue" stroke="blue" points="256.71,-837.5 266.71,-834 256.71,-830.5 256.71,-837.5"/>
</g>
<!-- RAM&#45;&gt;LIFO -->
<g id="edge32" class="edge">
<title>RAM&#45;&gt;LIFO</title>
<path fill="none" stroke="blue" d="M194,-533.21C194,-593.09 194,-780 194,-780 194,-780 269.93,-780 269.93,-780"/>
<polygon fill="blue" stroke="blue" points="269.93,-783.5 279.93,-780 269.93,-776.5 269.93,-783.5"/>
</g>
<!-- CRC32 -->
<g id="node28" class="node">
<title>CRC32</title>
<polygon fill="none" stroke="black" points="336.5,-1251 277.5,-1251 277.5,-1215 336.5,-1215 336.5,-1251"/>
<text text-anchor="middle" x="307" y="-1229.3" font-family="Times New Roman,serif" font-size="14.00">CRC32</text>
</g>
<!-- RAM&#45;&gt;CRC32 -->
<g id="edge31" class="edge">
<title>RAM&#45;&gt;CRC32</title>
<path fill="none" stroke="blue" d="M167,-533.11C167,-644.58 167,-1233 167,-1233 167,-1233 267.31,-1233 267.31,-1233"/>
<polygon fill="blue" stroke="blue" points="267.31,-1236.5 277.31,-1233 267.31,-1229.5 267.31,-1236.5"/>
</g>
<!-- BASE64 -->
<g id="node48" class="node">
<title>BASE64</title>
<polygon fill="none" stroke="black" points="339.5,-1197 274.5,-1197 274.5,-1161 339.5,-1161 339.5,-1197"/>
<text text-anchor="middle" x="307" y="-1175.3" font-family="Times New Roman,serif" font-size="14.00">BASE64</text>
</g>
<!-- RAM&#45;&gt;BASE64 -->
<g id="edge63" class="edge">
<title>RAM&#45;&gt;BASE64</title>
<path fill="none" stroke="black" d="M172,-533.1C172,-639.52 172,-1179 172,-1179 172,-1179 264.32,-1179 264.32,-1179"/>
<polygon fill="black" stroke="black" points="264.32,-1182.5 274.32,-1179 264.32,-1175.5 264.32,-1182.5"/>
</g>
<!-- CRC8 -->
<g id="node49" class="node">
<title>CRC8</title>
<polygon fill="none" stroke="black" points="334,-1413 280,-1413 280,-1377 334,-1377 334,-1413"/>
<text text-anchor="middle" x="307" y="-1391.3" font-family="Times New Roman,serif" font-size="14.00">CRC8</text>
</g>
<!-- RAM&#45;&gt;CRC8 -->
<g id="edge64" class="edge">
<title>RAM&#45;&gt;CRC8</title>
<path fill="none" stroke="black" d="M150,-533.38C150,-659.75 150,-1395 150,-1395 150,-1395 269.65,-1395 269.65,-1395"/>
<polygon fill="black" stroke="black" points="269.65,-1398.5 279.65,-1395 269.65,-1391.5 269.65,-1398.5"/>
</g>
<!-- CRC16 -->
<g id="node50" class="node">
<title>CRC16</title>
<polygon fill="none" stroke="black" points="336.5,-1359 277.5,-1359 277.5,-1323 336.5,-1323 336.5,-1359"/>
<text text-anchor="middle" x="307" y="-1337.3" font-family="Times New Roman,serif" font-size="14.00">CRC16</text>
</g>
<!-- RAM&#45;&gt;CRC16 -->
<g id="edge65" class="edge">
<title>RAM&#45;&gt;CRC16</title>
<path fill="none" stroke="black" d="M156,-533.02C156,-653.81 156,-1341 156,-1341 156,-1341 267.17,-1341 267.17,-1341"/>
<polygon fill="black" stroke="black" points="267.17,-1344.5 277.17,-1341 267.17,-1337.5 267.17,-1344.5"/>
</g>
<!-- SHA256 -->
<g id="node52" class="node">
<title>SHA256</title>
<polygon fill="none" stroke="black" points="339.5,-1305 274.5,-1305 274.5,-1269 339.5,-1269 339.5,-1305"/>
<text text-anchor="middle" x="307" y="-1283.3" font-family="Times New Roman,serif" font-size="14.00">SHA256</text>
</g>
<!-- RAM&#45;&gt;SHA256 -->
<g id="edge72" class="edge">
<title>RAM&#45;&gt;SHA256</title>
<path fill="none" stroke="black" d="M161,-533.32C161,-650.23 161,-1287 161,-1287 161,-1287 264.23,-1287 264.23,-1287"/>
<polygon fill="black" stroke="black" points="264.23,-1290.5 274.23,-1287 264.23,-1283.5 264.23,-1290.5"/>
</g>
<!-- CRC32&#45;&gt;HASHSET -->
<g id="edge30" class="edge">
<title>CRC32&#45;&gt;HASHSET</title>
<path fill="none" stroke="blue" d="M336.59,-1226C344.55,-1226 351,-1226 351,-1226 351,-1226 351,-828 351,-828 351,-828 350.62,-828 350.62,-828"/>
<polygon fill="blue" stroke="blue" points="357.25,-824.5 347.25,-828 357.25,-831.5 357.25,-824.5"/>
</g>
<!-- LOG&#45;&gt;CLI -->
<g id="edge39" class="edge">
<title>LOG&#45;&gt;CLI</title>
<path fill="none" stroke="aqua" d="M919,-106.42C919,-115.28 919,-124 919,-124 919,-124 1017.81,-124 1017.81,-124"/>
<polygon fill="aqua" stroke="aqua" points="1017.81,-127.5 1027.81,-124 1017.81,-120.5 1017.81,-127.5"/>
</g>
<!-- USB_DEVICE -->
<g id="node31" class="node">
<title>USB_DEVICE</title>
<polygon fill="none" stroke="black" points="645,-231 544,-231 544,-195 645,-195 645,-231"/>
<text text-anchor="middle" x="594.5" y="-209.3" font-family="Times New Roman,serif" font-size="14.00">USB_DEVICE</text>
</g>
<!-- USB_DEVICE&#45;&gt;STREAM -->
<g id="edge34" class="edge">
<title>USB_DEVICE&#45;&gt;STREAM</title>
<path fill="none" stroke="chartreuse" d="M634,-194.85C634,-181.26 634,-165 634,-165 634,-165 712.88,-165 712.88,-165"/>
<polygon fill="chartreuse" stroke="chartreuse" points="712.88,-168.5 722.88,-165 712.88,-161.5 712.88,-168.5"/>
</g>
<!-- STRING_READER&#45;&gt;CLI -->
<g id="edge37" class="edge">
<title>STRING_READER&#45;&gt;CLI</title>
<path fill="none" stroke="aqua" d="M976,-52.3C976,-77.1 976,-118.33 976,-118.33 976,-118.33 1017.81,-118.33 1017.81,-118.33"/>
<polygon fill="aqua" stroke="aqua" points="1017.81,-121.83 1027.81,-118.33 1017.81,-114.83 1017.81,-121.83"/>
</g>
<!-- STRING -->
<g id="node33" class="node">
<title>STRING</title>
<polygon fill="none" stroke="black" points="952.5,-234 884.5,-234 884.5,-198 952.5,-198 952.5,-234"/>
<text text-anchor="middle" x="918.5" y="-212.3" font-family="Times New Roman,serif" font-size="14.00">STRING</text>
</g>
<!-- STRING&#45;&gt;CLI -->
<g id="edge36" class="edge">
<title>STRING&#45;&gt;CLI</title>
<path fill="none" stroke="aqua" d="M949,-197.7C949,-173.9 949,-135.33 949,-135.33 949,-135.33 1017.98,-135.33 1017.98,-135.33"/>
<polygon fill="aqua" stroke="aqua" points="1017.98,-138.83 1027.98,-135.33 1017.98,-131.83 1017.98,-138.83"/>
</g>
<!-- CSV -->
<g id="node34" class="node">
<title>CSV</title>
<polygon fill="none" stroke="black" points="945.5,-180 891.5,-180 891.5,-144 945.5,-144 945.5,-180"/>
<text text-anchor="middle" x="918.5" y="-158.3" font-family="Times New Roman,serif" font-size="14.00">CSV</text>
</g>
<!-- CSV&#45;&gt;CLI -->
<g id="edge40" class="edge">
<title>CSV&#45;&gt;CLI</title>
<path fill="none" stroke="aqua" d="M945.79,-162C985.63,-162 1055,-162 1055,-162 1055,-162 1055,-153.07 1055,-153.07"/>
<polygon fill="aqua" stroke="aqua" points="1058.5,-153.07 1055,-143.07 1051.5,-153.07 1058.5,-153.07"/>
</g>
<!-- INDICATION -->
<g id="node38" class="node">
<title>INDICATION</title>
<polygon fill="none" stroke="black" points="643.5,-1483 545.5,-1483 545.5,-1447 643.5,-1447 643.5,-1483"/>
<text text-anchor="middle" x="594.5" y="-1461.3" font-family="Times New Roman,serif" font-size="14.00">INDICATION</text>
</g>
<!-- SUPER_CYCLE -->
<g id="node41" class="node">
<title>SUPER_CYCLE</title>
<polygon fill="none" stroke="black" points="817,-1456 703,-1456 703,-1420 817,-1420 817,-1456"/>
<text text-anchor="middle" x="760" y="-1434.3" font-family="Times New Roman,serif" font-size="14.00">SUPER_CYCLE</text>
</g>
<!-- SUPER_CYCLE&#45;&gt;FREE_RTOS -->
<g id="edge49" class="edge">
<title>SUPER_CYCLE&#45;&gt;FREE_RTOS</title>
<path fill="none" stroke="black" d="M817.27,-1438C847.34,-1438 878,-1438 878,-1438 878,-1438 878,-1463.72 878,-1463.72"/>
<polygon fill="black" stroke="black" points="874.5,-1463.72 878,-1473.72 881.5,-1463.72 874.5,-1463.72"/>
</g>
<!-- SYSTEM -->
<g id="node42" class="node">
<title>SYSTEM</title>
<polygon fill="none" stroke="black" points="630.5,-1267 558.5,-1267 558.5,-1231 630.5,-1231 630.5,-1267"/>
<text text-anchor="middle" x="594.5" y="-1245.3" font-family="Times New Roman,serif" font-size="14.00">SYSTEM</text>
</g>
<!-- TASK&#45;&gt;SUPER_CYCLE -->
<g id="edge56" class="edge">
<title>TASK&#45;&gt;SUPER_CYCLE</title>
<path fill="none" stroke="black" d="M630.82,-1424.5C630.82,-1424.5 692.95,-1424.5 692.95,-1424.5"/>
<polygon fill="black" stroke="black" points="692.95,-1428 702.95,-1424.5 692.95,-1421 692.95,-1428"/>
</g>
<!-- PARAM -->
<g id="node44" class="node">
<title>PARAM</title>
<polygon fill="none" stroke="black" points="472.5,-533 406.5,-533 406.5,-497 472.5,-497 472.5,-533"/>
<text text-anchor="middle" x="439.5" y="-511.3" font-family="Times New Roman,serif" font-size="14.00">PARAM</text>
</g>
<!-- PARAM&#45;&gt;BOOT -->
<g id="edge45" class="edge">
<title>PARAM&#45;&gt;BOOT</title>
<path fill="none" stroke="black" d="M472.77,-509C479.21,-509 484,-509 484,-509 484,-509 484,-1181 484,-1181 484,-1181 556.33,-1181 556.33,-1181"/>
<polygon fill="black" stroke="black" points="556.33,-1184.5 566.33,-1181 556.33,-1177.5 556.33,-1184.5"/>
</g>
<!-- NVRAM -->
<g id="node59" class="node">
<title>NVRAM</title>
<polygon fill="none" stroke="black" points="628.5,-533 560.5,-533 560.5,-497 628.5,-497 628.5,-533"/>
<text text-anchor="middle" x="594.5" y="-511.3" font-family="Times New Roman,serif" font-size="14.00">NVRAM</text>
</g>
<!-- PARAM&#45;&gt;NVRAM -->
<g id="edge74" class="edge">
<title>PARAM&#45;&gt;NVRAM</title>
<path fill="none" stroke="black" d="M472.75,-521C472.75,-521 550.23,-521 550.23,-521"/>
<polygon fill="black" stroke="black" points="550.23,-524.5 560.23,-521 550.23,-517.5 550.23,-524.5"/>
</g>
<!-- LED_MONO&#45;&gt;INDICATION -->
<g id="edge50" class="edge">
<title>LED_MONO&#45;&gt;INDICATION</title>
<path fill="none" stroke="black" d="M486.01,-1467C486.01,-1467 535.33,-1467 535.33,-1467"/>
<polygon fill="black" stroke="black" points="535.33,-1470.5 545.33,-1467 535.33,-1463.5 535.33,-1470.5"/>
</g>
<!-- LIMITER&#45;&gt;TASK -->
<g id="edge57" class="edge">
<title>LIMITER&#45;&gt;TASK</title>
<path fill="none" stroke="green" d="M343.57,-1563C349.64,-1563 354,-1563 354,-1563 354,-1563 354,-1418.33 354,-1418.33 354,-1418.33 548.49,-1418.33 548.49,-1418.33"/>
<polygon fill="green" stroke="green" points="548.49,-1421.83 558.49,-1418.33 548.49,-1414.83 548.49,-1421.83"/>
</g>
<!-- CRC8&#45;&gt;FLASH_FS -->
<g id="edge78" class="edge">
<title>CRC8&#45;&gt;FLASH_FS</title>
<path fill="none" stroke="black" d="M334.21,-1385C343.69,-1385 352,-1385 352,-1385 352,-1385 352,-521 352,-521 352,-521 351.76,-521 351.76,-521"/>
<polygon fill="black" stroke="black" points="359.58,-517.5 349.58,-521 359.58,-524.5 359.58,-517.5"/>
</g>
<!-- CRYPTO -->
<g id="node51" class="node">
<title>CRYPTO</title>
<polygon fill="none" stroke="black" points="344,-1467 270,-1467 270,-1431 344,-1431 344,-1467"/>
<text text-anchor="middle" x="307" y="-1445.3" font-family="Times New Roman,serif" font-size="14.00">CRYPTO</text>
</g>
<!-- AES256_CBC -->
<g id="node53" class="node">
<title>AES256_CBC</title>
<polygon fill="none" stroke="black" points="221,-1467 122,-1467 122,-1431 221,-1431 221,-1467"/>
<text text-anchor="middle" x="171.5" y="-1445.3" font-family="Times New Roman,serif" font-size="14.00">AES256_CBC</text>
</g>
<!-- AES256_CBC&#45;&gt;CRYPTO -->
<g id="edge68" class="edge">
<title>AES256_CBC&#45;&gt;CRYPTO</title>
<path fill="none" stroke="black" d="M221.19,-1449C221.19,-1449 259.63,-1449 259.63,-1449"/>
<polygon fill="black" stroke="black" points="259.63,-1452.5 269.63,-1449 259.63,-1445.5 259.63,-1452.5"/>
</g>
<!-- ASM -->
<g id="node54" class="node">
<title>ASM</title>
<polygon fill="none" stroke="black" points="198.5,-1521 144.5,-1521 144.5,-1485 198.5,-1485 198.5,-1521"/>
<text text-anchor="middle" x="171.5" y="-1499.3" font-family="Times New Roman,serif" font-size="14.00">ASM</text>
</g>
<!-- ASM&#45;&gt;MATH -->
<g id="edge70" class="edge">
<title>ASM&#45;&gt;MATH</title>
<path fill="none" stroke="black" d="M198.59,-1497C198.59,-1497 268.08,-1497 268.08,-1497"/>
<polygon fill="black" stroke="black" points="268.08,-1500.5 278.08,-1497 268.08,-1493.5 268.08,-1500.5"/>
</g>
<!-- FLOAT -->
<g id="node55" class="node">
<title>FLOAT</title>
<polygon fill="none" stroke="black" points="202.5,-1575 140.5,-1575 140.5,-1539 202.5,-1539 202.5,-1575"/>
<text text-anchor="middle" x="171.5" y="-1553.3" font-family="Times New Roman,serif" font-size="14.00">FLOAT</text>
</g>
<!-- FLOAT&#45;&gt;MATH -->
<g id="edge71" class="edge">
<title>FLOAT&#45;&gt;MATH</title>
<path fill="none" stroke="black" d="M202.8,-1557C204.18,-1557 205,-1557 205,-1557 205,-1557 205,-1509 205,-1509 205,-1509 268.32,-1509 268.32,-1509"/>
<polygon fill="black" stroke="black" points="268.32,-1512.5 278.32,-1509 268.32,-1505.5 268.32,-1512.5"/>
</g>
<!-- FAT_FS -->
<g id="node56" class="node">
<title>FAT_FS</title>
<polygon fill="none" stroke="black" points="205.5,-317 137.5,-317 137.5,-281 205.5,-281 205.5,-317"/>
<text text-anchor="middle" x="171.5" y="-295.3" font-family="Times New Roman,serif" font-size="14.00">FAT_FS</text>
</g>
<!-- FLASH_FS&#45;&gt;PARAM -->
<g id="edge73" class="edge">
<title>FLASH_FS&#45;&gt;PARAM</title>
<path fill="none" stroke="black" d="M349.65,-509C349.65,-509 396.17,-509 396.17,-509"/>
<polygon fill="black" stroke="black" points="396.17,-512.5 406.17,-509 396.17,-505.5 396.17,-512.5"/>
</g>
<!-- DISK -->
<g id="node61" class="node">
<title>DISK</title>
<polygon fill="none" stroke="black" points="78,-317 24,-317 24,-281 78,-281 78,-317"/>
<text text-anchor="middle" x="51" y="-295.3" font-family="Times New Roman,serif" font-size="14.00">DISK</text>
</g>
<!-- DISK&#45;&gt;FAT_FS -->
<g id="edge76" class="edge">
<title>DISK&#45;&gt;FAT_FS</title>
<path fill="none" stroke="black" d="M78.04,-299C78.04,-299 127.2,-299 127.2,-299"/>
<polygon fill="black" stroke="black" points="127.2,-302.5 137.2,-299 127.2,-295.5 127.2,-302.5"/>
</g>
<!-- MIC2026 -->
<g id="node62" class="node">
<title>MIC2026</title>
<polygon fill="none" stroke="black" points="86,-1000 16,-1000 16,-964 86,-964 86,-1000"/>
<text text-anchor="middle" x="51" y="-978.3" font-family="Times New Roman,serif" font-size="14.00">MIC2026</text>
</g>
</g>
</svg>
