<?xml version="1.0" encoding="UTF-8" standalone="no"?>
<!DOCTYPE svg PUBLIC "-//W3C//DTD SVG 1.1//EN"
 "http://www.w3.org/Graphics/SVG/1.1/DTD/svg11.dtd">
<!-- Generated by graphviz version 8.0.5 (20230508.1809)
 -->
<!-- Title: graphname Pages: 1 -->
<svg width="1139pt" height="1161pt"
 viewBox="0.00 0.00 1139.25 1161.00" xmlns="http://www.w3.org/2000/svg" xmlns:xlink="http://www.w3.org/1999/xlink">
<g id="graph0" class="graph" transform="scale(1 1) rotate(0) translate(4 1157)">
<title>graphname</title>
<polygon fill="white" stroke="none" points="-4,4 -4,-1157 1135.25,-1157 1135.25,4 -4,4"/>
<g id="clust1" class="cluster">
<title>cluster_Interfaces</title>
<polygon fill="none" stroke="red" points="134.12,-904 134.12,-1055 480.25,-1055 480.25,-904 134.12,-904"/>
<text text-anchor="middle" x="307.19" y="-1037.7" font-family="Times,serif" font-size="14.00">Interfaces</text>
</g>
<!-- CAN -->
<g id="node1" class="node">
<title>CAN</title>
<polygon fill="none" stroke="black" points="472.25,-1004 418.25,-1004 418.25,-968 472.25,-968 472.25,-1004"/>
<text text-anchor="middle" x="445.25" y="-980.95" font-family="Times,serif" font-size="14.00">CAN</text>
</g>
<!-- CAN_TX_PLANNER -->
<g id="node2" class="node">
<title>CAN_TX_PLANNER</title>
<polygon fill="none" stroke="black" points="667.25,-912 529,-912 529,-876 667.25,-876 667.25,-912"/>
<text text-anchor="middle" x="598.12" y="-888.95" font-family="Times,serif" font-size="14.00">CAN_TX_PLANNER</text>
</g>
<!-- CAN&#45;&gt;CAN_TX_PLANNER -->
<g id="edge1" class="edge">
<title>CAN&#45;&gt;CAN_TX_PLANNER</title>
<path fill="none" stroke="black" d="M472.36,-986C499.49,-986 537.25,-986 537.25,-986 537.25,-986 537.25,-923.18 537.25,-923.18"/>
<polygon fill="black" stroke="black" points="540.75,-923.18 537.25,-913.18 533.75,-923.18 540.75,-923.18"/>
</g>
<!-- CAN_RX_HIST -->
<g id="node5" class="node">
<title>CAN_RX_HIST</title>
<polygon fill="none" stroke="black" points="651.5,-1058 544.75,-1058 544.75,-1022 651.5,-1022 651.5,-1058"/>
<text text-anchor="middle" x="598.12" y="-1034.95" font-family="Times,serif" font-size="14.00">CAN_RX_HIST</text>
</g>
<!-- CAN&#45;&gt;CAN_RX_HIST -->
<g id="edge4" class="edge">
<title>CAN&#45;&gt;CAN_RX_HIST</title>
<path fill="none" stroke="black" d="M472.65,-995C505.81,-995 557.25,-995 557.25,-995 557.25,-995 557.25,-1010.7 557.25,-1010.7"/>
<polygon fill="black" stroke="black" points="553.75,-1010.7 557.25,-1020.7 560.75,-1010.7 553.75,-1010.7"/>
</g>
<!-- TIME -->
<g id="node3" class="node">
<title>TIME</title>
<polygon fill="none" stroke="black" points="472.25,-582 418.25,-582 418.25,-546 472.25,-546 472.25,-582"/>
<text text-anchor="middle" x="445.25" y="-558.95" font-family="Times,serif" font-size="14.00">TIME</text>
</g>
<!-- TIME&#45;&gt;CAN_TX_PLANNER -->
<g id="edge2" class="edge">
<title>TIME&#45;&gt;CAN_TX_PLANNER</title>
<path fill="none" stroke="black" d="M472.3,-578C497.84,-578 532.25,-578 532.25,-578 532.25,-578 532.25,-864.64 532.25,-864.64"/>
<polygon fill="black" stroke="black" points="528.75,-864.64 532.25,-874.64 535.75,-864.64 528.75,-864.64"/>
</g>
<!-- GPIO -->
<g id="node23" class="node">
<title>GPIO</title>
<polygon fill="none" stroke="black" points="347.88,-1002 293.88,-1002 293.88,-966 347.88,-966 347.88,-1002"/>
<text text-anchor="middle" x="320.88" y="-978.95" font-family="Times,serif" font-size="14.00">GPIO</text>
</g>
<!-- TIME&#45;&gt;GPIO -->
<g id="edge33" class="edge">
<title>TIME&#45;&gt;GPIO</title>
<path fill="none" stroke="black" d="M418.03,-573C405.45,-573 393.25,-573 393.25,-573 393.25,-573 393.25,-992.29 393.25,-992.29 393.25,-992.29 359.24,-992.29 359.24,-992.29"/>
<polygon fill="black" stroke="black" points="359.24,-988.79 349.24,-992.29 359.24,-995.79 359.24,-988.79"/>
</g>
<!-- UART -->
<g id="node27" class="node">
<title>UART</title>
<polygon fill="none" stroke="black" points="625.12,-490 571.12,-490 571.12,-454 625.12,-454 625.12,-490"/>
<text text-anchor="middle" x="598.12" y="-466.95" font-family="Times,serif" font-size="14.00">UART</text>
</g>
<!-- TIME&#45;&gt;UART -->
<g id="edge42" class="edge">
<title>TIME&#45;&gt;UART</title>
<path fill="none" stroke="black" d="M445.25,-545.64C445.25,-522.26 445.25,-484.86 445.25,-484.86 445.25,-484.86 559.79,-484.86 559.79,-484.86"/>
<polygon fill="black" stroke="black" points="559.79,-488.36 569.79,-484.86 559.79,-481.36 559.79,-488.36"/>
</g>
<!-- LOG -->
<g id="node36" class="node">
<title>LOG</title>
<polygon fill="none" stroke="black" points="1041.25,-628 987.25,-628 987.25,-592 1041.25,-592 1041.25,-628"/>
<text text-anchor="middle" x="1014.25" y="-604.95" font-family="Times,serif" font-size="14.00">LOG</text>
</g>
<!-- TIME&#45;&gt;LOG -->
<g id="edge62" class="edge">
<title>TIME&#45;&gt;LOG</title>
<path fill="none" stroke="black" d="M445.25,-582.44C445.25,-595.24 445.25,-610 445.25,-610 445.25,-610 975.81,-610 975.81,-610"/>
<polygon fill="black" stroke="black" points="975.81,-613.5 985.81,-610 975.81,-606.5 975.81,-613.5"/>
</g>
<!-- LED -->
<g id="node39" class="node">
<title>LED</title>
<polygon fill="none" stroke="black" points="625.12,-712 571.12,-712 571.12,-676 625.12,-676 625.12,-712"/>
<text text-anchor="middle" x="598.12" y="-688.95" font-family="Times,serif" font-size="14.00">LED</text>
</g>
<!-- TIME&#45;&gt;LED -->
<g id="edge74" class="edge">
<title>TIME&#45;&gt;LED</title>
<path fill="none" stroke="black" d="M472.6,-574C516.61,-574 598.25,-574 598.25,-574 598.25,-574 598.25,-664.51 598.25,-664.51"/>
<polygon fill="black" stroke="black" points="594.75,-664.51 598.25,-674.51 601.75,-664.51 594.75,-664.51"/>
</g>
<!-- LED_MONO -->
<g id="node40" class="node">
<title>LED_MONO</title>
<polygon fill="none" stroke="black" points="800.25,-693 709.25,-693 709.25,-657 800.25,-657 800.25,-693"/>
<text text-anchor="middle" x="754.75" y="-669.95" font-family="Times,serif" font-size="14.00">LED_MONO</text>
</g>
<!-- TIME&#45;&gt;LED_MONO -->
<g id="edge76" class="edge">
<title>TIME&#45;&gt;LED_MONO</title>
<path fill="none" stroke="black" d="M472.42,-570C540.56,-570 713.25,-570 713.25,-570 713.25,-570 713.25,-645.71 713.25,-645.71"/>
<polygon fill="black" stroke="black" points="709.75,-645.71 713.25,-655.71 716.75,-645.71 709.75,-645.71"/>
</g>
<!-- SCHEDULER -->
<g id="node41" class="node">
<title>SCHEDULER</title>
<polygon fill="none" stroke="black" points="789.75,-436 719.75,-436 719.75,-400 789.75,-400 789.75,-436"/>
<text text-anchor="middle" x="754.75" y="-412.95" font-family="Times,serif" font-size="14.00">Scheduler</text>
</g>
<!-- TIME&#45;&gt;SCHEDULER -->
<g id="edge81" class="edge">
<title>TIME&#45;&gt;SCHEDULER</title>
<path fill="none" stroke="red" d="M472.63,-566C526.11,-566 639.25,-566 639.25,-566 639.25,-566 639.25,-424 639.25,-424 639.25,-424 708.47,-424 708.47,-424"/>
<polygon fill="red" stroke="red" points="708.47,-427.5 718.47,-424 708.47,-420.5 708.47,-427.5"/>
</g>
<!-- LIMITER -->
<g id="node43" class="node">
<title>LIMITER</title>
<polygon fill="none" stroke="black" points="633.88,-436 562.38,-436 562.38,-400 633.88,-400 633.88,-436"/>
<text text-anchor="middle" x="598.12" y="-412.95" font-family="Times,serif" font-size="14.00">LIMITER</text>
</g>
<!-- TIME&#45;&gt;LIMITER -->
<g id="edge86" class="edge">
<title>TIME&#45;&gt;LIMITER</title>
<path fill="none" stroke="black" d="M472.69,-558C500.44,-558 539.25,-558 539.25,-558 539.25,-558 539.25,-426 539.25,-426 539.25,-426 551.18,-426 551.18,-426"/>
<polygon fill="black" stroke="black" points="551.18,-429.5 561.18,-426 551.18,-422.5 551.18,-429.5"/>
</g>
<!-- BUTTON -->
<g id="node49" class="node">
<title>BUTTON</title>
<polygon fill="none" stroke="black" points="633.5,-544 562.75,-544 562.75,-508 633.5,-508 633.5,-544"/>
<text text-anchor="middle" x="598.12" y="-520.95" font-family="Times,serif" font-size="14.00">BUTTON</text>
</g>
<!-- TIME&#45;&gt;BUTTON -->
<g id="edge93" class="edge">
<title>TIME&#45;&gt;BUTTON</title>
<path fill="none" stroke="red" d="M472.63,-562C508.6,-562 567.25,-562 567.25,-562 567.25,-562 567.25,-555.42 567.25,-555.42"/>
<polygon fill="red" stroke="red" points="570.75,-555.42 567.25,-545.42 563.75,-555.42 570.75,-555.42"/>
</g>
<!-- APPLICATION -->
<g id="node4" class="node">
<title>APPLICATION</title>
<polygon fill="none" stroke="black" points="806.25,-1058 703.25,-1058 703.25,-1022 806.25,-1022 806.25,-1058"/>
<text text-anchor="middle" x="754.75" y="-1034.95" font-family="Times,serif" font-size="14.00">APPLICATION</text>
</g>
<!-- APPLICATION&#45;&gt;CAN_RX_HIST -->
<g id="edge3" class="edge">
<title>APPLICATION&#45;&gt;CAN_RX_HIST</title>
<path fill="none" stroke="black" d="M703.03,-1034C703.03,-1034 662.94,-1034 662.94,-1034"/>
<polygon fill="black" stroke="black" points="662.94,-1030.5 652.94,-1034 662.94,-1037.5 662.94,-1030.5"/>
</g>
<!-- CAN_RX_HIST&#45;&gt;APPLICATION -->
<g id="edge5" class="edge">
<title>CAN_RX_HIST&#45;&gt;APPLICATION</title>
<path fill="none" stroke="black" d="M651.59,-1046C651.59,-1046 691.85,-1046 691.85,-1046"/>
<polygon fill="black" stroke="black" points="691.85,-1049.5 701.85,-1046 691.85,-1042.5 691.85,-1049.5"/>
</g>
<!-- CLOCK -->
<g id="node6" class="node">
<title>CLOCK</title>
<polygon fill="none" stroke="black" points="200,-591 138.25,-591 138.25,-555 200,-555 200,-591"/>
<text text-anchor="middle" x="169.12" y="-567.95" font-family="Times,serif" font-size="14.00">CLOCK</text>
</g>
<!-- CORE -->
<g id="node7" class="node">
<title>CORE</title>
<polygon fill="none" stroke="black" points="347.88,-452 293.88,-452 293.88,-416 347.88,-416 347.88,-452"/>
<text text-anchor="middle" x="320.88" y="-428.95" font-family="Times,serif" font-size="14.00">CORE</text>
</g>
<!-- CLOCK&#45;&gt;CORE -->
<g id="edge6" class="edge">
<title>CLOCK&#45;&gt;CORE</title>
<path fill="none" stroke="black" d="M183.25,-554.56C183.25,-519.78 183.25,-448 183.25,-448 183.25,-448 282.68,-448 282.68,-448"/>
<polygon fill="black" stroke="black" points="282.68,-451.5 292.68,-448 282.68,-444.5 282.68,-451.5"/>
</g>
<!-- SYSTICK -->
<g id="node14" class="node">
<title>SYSTICK</title>
<polygon fill="none" stroke="black" points="357,-674 284.75,-674 284.75,-638 357,-638 357,-674"/>
<text text-anchor="middle" x="320.88" y="-650.95" font-family="Times,serif" font-size="14.00">SYSTICK</text>
</g>
<!-- CLOCK&#45;&gt;SYSTICK -->
<g id="edge14" class="edge">
<title>CLOCK&#45;&gt;SYSTICK</title>
<path fill="none" stroke="black" d="M200.28,-585C244.78,-585 321.25,-585 321.25,-585 321.25,-585 321.25,-626.72 321.25,-626.72"/>
<polygon fill="black" stroke="black" points="317.75,-626.72 321.25,-636.72 324.75,-626.72 317.75,-626.72"/>
</g>
<!-- TIMER -->
<g id="node25" class="node">
<title>TIMER</title>
<polygon fill="none" stroke="black" points="350.25,-582 291.5,-582 291.5,-546 350.25,-546 350.25,-582"/>
<text text-anchor="middle" x="320.88" y="-558.95" font-family="Times,serif" font-size="14.00">TIMER</text>
</g>
<!-- CLOCK&#45;&gt;TIMER -->
<g id="edge35" class="edge">
<title>CLOCK&#45;&gt;TIMER</title>
<path fill="none" stroke="black" d="M200.2,-560.4C200.2,-560.4 280.13,-560.4 280.13,-560.4"/>
<polygon fill="black" stroke="black" points="280.13,-563.9 290.13,-560.4 280.13,-556.9 280.13,-563.9"/>
</g>
<!-- BOOT -->
<g id="node38" class="node">
<title>BOOT</title>
<polygon fill="none" stroke="black" points="472.25,-452 418.25,-452 418.25,-416 472.25,-416 472.25,-452"/>
<text text-anchor="middle" x="445.25" y="-428.95" font-family="Times,serif" font-size="14.00">BOOT</text>
</g>
<!-- CORE&#45;&gt;BOOT -->
<g id="edge71" class="edge">
<title>CORE&#45;&gt;BOOT</title>
<path fill="none" stroke="black" d="M348.17,-434C348.17,-434 407.02,-434 407.02,-434"/>
<polygon fill="black" stroke="black" points="407.02,-437.5 417.02,-434 407.02,-430.5 407.02,-437.5"/>
</g>
<!-- REG -->
<g id="node8" class="node">
<title>REG</title>
<polygon fill="none" stroke="black" points="196.12,-948 142.12,-948 142.12,-912 196.12,-912 196.12,-948"/>
<text text-anchor="middle" x="169.12" y="-924.95" font-family="Times,serif" font-size="14.00">REG</text>
</g>
<!-- REG&#45;&gt;CAN -->
<g id="edge60" class="edge">
<title>REG&#45;&gt;CAN</title>
<path fill="none" stroke="black" d="M160.25,-948.49C160.25,-954.66 160.25,-960 160.25,-960 160.25,-960 436.25,-960 436.25,-960 436.25,-960 436.25,-960.77 436.25,-960.77"/>
<polygon fill="black" stroke="black" points="432.75,-956.66 436.25,-966.66 439.75,-956.66 432.75,-956.66"/>
</g>
<!-- REG&#45;&gt;CLOCK -->
<g id="edge34" class="edge">
<title>REG&#45;&gt;CLOCK</title>
<path fill="none" stroke="black" d="M196.36,-918C219.24,-918 248.25,-918 248.25,-918 248.25,-918 248.25,-588 248.25,-588 248.25,-588 211.4,-588 211.4,-588"/>
<polygon fill="black" stroke="black" points="211.4,-584.5 201.4,-588 211.4,-591.5 211.4,-584.5"/>
</g>
<!-- NVIC -->
<g id="node9" class="node">
<title>NVIC</title>
<polygon fill="none" stroke="black" points="347.88,-948 293.88,-948 293.88,-912 347.88,-912 347.88,-948"/>
<text text-anchor="middle" x="320.88" y="-924.95" font-family="Times,serif" font-size="14.00">NVIC</text>
</g>
<!-- REG&#45;&gt;NVIC -->
<g id="edge7" class="edge">
<title>REG&#45;&gt;NVIC</title>
<path fill="none" stroke="black" d="M196.61,-942C196.61,-942 282.6,-942 282.6,-942"/>
<polygon fill="black" stroke="black" points="282.6,-945.5 292.6,-942 282.6,-938.5 282.6,-945.5"/>
</g>
<!-- REG&#45;&gt;SYSTICK -->
<g id="edge12" class="edge">
<title>REG&#45;&gt;SYSTICK</title>
<path fill="none" stroke="black" d="M196.45,-936C231.62,-936 288.25,-936 288.25,-936 288.25,-936 288.25,-685.37 288.25,-685.37"/>
<polygon fill="black" stroke="black" points="291.75,-685.37 288.25,-675.37 284.75,-685.37 291.75,-685.37"/>
</g>
<!-- CORTEX_M4 -->
<g id="node15" class="node">
<title>CORTEX_M4</title>
<polygon fill="none" stroke="black" points="493,-674 397.5,-674 397.5,-638 493,-638 493,-674"/>
<text text-anchor="middle" x="445.25" y="-650.95" font-family="Times,serif" font-size="14.00">CORTEX_M4</text>
</g>
<!-- REG&#45;&gt;CORTEX_M4 -->
<g id="edge22" class="edge">
<title>REG&#45;&gt;CORTEX_M4</title>
<path fill="none" stroke="black" d="M178.25,-911.6C178.25,-888.16 178.25,-850.67 178.25,-850.67 178.25,-850.67 406.25,-850.67 406.25,-850.67 406.25,-850.67 406.25,-685.31 406.25,-685.31"/>
<polygon fill="black" stroke="black" points="409.75,-685.31 406.25,-675.31 402.75,-685.31 409.75,-685.31"/>
</g>
<!-- FPU -->
<g id="node16" class="node">
<title>FPU</title>
<polygon fill="none" stroke="black" points="347.88,-847 293.88,-847 293.88,-811 347.88,-811 347.88,-847"/>
<text text-anchor="middle" x="320.88" y="-823.95" font-family="Times,serif" font-size="14.00">FPU</text>
</g>
<!-- REG&#45;&gt;FPU -->
<g id="edge19" class="edge">
<title>REG&#45;&gt;FPU</title>
<path fill="none" stroke="black" d="M160.25,-911.94C160.25,-882.89 160.25,-829 160.25,-829 160.25,-829 282.63,-829 282.63,-829"/>
<polygon fill="black" stroke="black" points="282.63,-832.5 292.63,-829 282.63,-825.5 282.63,-832.5"/>
</g>
<!-- FLASH -->
<g id="node19" class="node">
<title>FLASH</title>
<polygon fill="none" stroke="black" points="474.62,-344 415.88,-344 415.88,-308 474.62,-308 474.62,-344"/>
<text text-anchor="middle" x="445.25" y="-320.95" font-family="Times,serif" font-size="14.00">FLASH</text>
</g>
<!-- REG&#45;&gt;FLASH -->
<g id="edge26" class="edge">
<title>REG&#45;&gt;FLASH</title>
<path fill="none" stroke="black" d="M196.34,-921C220.59,-921 252.25,-921 252.25,-921 252.25,-921 252.25,-359.33 252.25,-359.33 252.25,-359.33 445.25,-359.33 445.25,-359.33 445.25,-359.33 445.25,-355.23 445.25,-355.23"/>
<polygon fill="black" stroke="black" points="448.75,-355.23 445.25,-345.23 441.75,-355.23 448.75,-355.23"/>
</g>
<!-- REG&#45;&gt;GPIO -->
<g id="edge31" class="edge">
<title>REG&#45;&gt;GPIO</title>
<path fill="none" stroke="black" d="M178.25,-948.28C178.25,-963.95 178.25,-984 178.25,-984 178.25,-984 282.38,-984 282.38,-984"/>
<polygon fill="black" stroke="black" points="282.38,-987.5 292.38,-984 282.38,-980.5 282.38,-987.5"/>
</g>
<!-- REG&#45;&gt;TIMER -->
<g id="edge37" class="edge">
<title>REG&#45;&gt;TIMER</title>
<path fill="none" stroke="black" d="M196.47,-927C223.31,-927 260.25,-927 260.25,-927 260.25,-927 260.25,-571.2 260.25,-571.2 260.25,-571.2 280.27,-571.2 280.27,-571.2"/>
<polygon fill="black" stroke="black" points="280.27,-574.7 290.27,-571.2 280.27,-567.7 280.27,-574.7"/>
</g>
<!-- REG&#45;&gt;UART -->
<g id="edge46" class="edge">
<title>REG&#45;&gt;UART</title>
<path fill="none" stroke="darkorange" d="M196.21,-924C221.79,-924 256.25,-924 256.25,-924 256.25,-924 256.25,-474.57 256.25,-474.57 256.25,-474.57 559.73,-474.57 559.73,-474.57"/>
<polygon fill="darkorange" stroke="darkorange" points="559.73,-478.07 569.73,-474.57 559.73,-471.07 559.73,-478.07"/>
</g>
<!-- NVIC&#45;&gt;CAN -->
<g id="edge61" class="edge">
<title>NVIC&#45;&gt;CAN</title>
<path fill="none" stroke="black" d="M348.19,-942.86C387.21,-942.86 454.25,-942.86 454.25,-942.86 454.25,-942.86 454.25,-956.7 454.25,-956.7"/>
<polygon fill="black" stroke="black" points="450.75,-956.7 454.25,-966.7 457.75,-956.7 450.75,-956.7"/>
</g>
<!-- ARM -->
<g id="node10" class="node">
<title>ARM</title>
<polygon fill="none" stroke="black" points="472.25,-728 418.25,-728 418.25,-692 472.25,-692 472.25,-728"/>
<text text-anchor="middle" x="445.25" y="-704.95" font-family="Times,serif" font-size="14.00">ARM</text>
</g>
<!-- NVIC&#45;&gt;ARM -->
<g id="edge8" class="edge">
<title>NVIC&#45;&gt;ARM</title>
<path fill="none" stroke="black" d="M348.13,-922.29C351.75,-922.29 354.25,-922.29 354.25,-922.29 354.25,-922.29 354.25,-710 354.25,-710 354.25,-710 406.95,-710 406.95,-710"/>
<polygon fill="black" stroke="black" points="406.95,-713.5 416.95,-710 406.95,-706.5 406.95,-713.5"/>
</g>
<!-- INTERRUPT -->
<g id="node12" class="node">
<title>INTERRUPT</title>
<polygon fill="none" stroke="black" points="214.25,-664 124,-664 124,-628 214.25,-628 214.25,-664"/>
<text text-anchor="middle" x="169.12" y="-640.95" font-family="Times,serif" font-size="14.00">INTERRUPT</text>
</g>
<!-- NVIC&#45;&gt;INTERRUPT -->
<g id="edge40" class="edge">
<title>NVIC&#45;&gt;INTERRUPT</title>
<path fill="none" stroke="black" d="M293.56,-933C279.08,-933 264.25,-933 264.25,-933 264.25,-933 264.25,-658.8 264.25,-658.8 264.25,-658.8 225.74,-658.8 225.74,-658.8"/>
<polygon fill="black" stroke="black" points="225.74,-655.3 215.74,-658.8 225.74,-662.3 225.74,-655.3"/>
</g>
<!-- NVIC&#45;&gt;SYSTICK -->
<g id="edge13" class="edge">
<title>NVIC&#45;&gt;SYSTICK</title>
<path fill="none" stroke="black" d="M348.32,-917.14C349.53,-917.14 350.25,-917.14 350.25,-917.14 350.25,-917.14 350.25,-685.36 350.25,-685.36"/>
<polygon fill="black" stroke="black" points="353.75,-685.36 350.25,-675.36 346.75,-685.36 353.75,-685.36"/>
</g>
<!-- NVIC&#45;&gt;CORTEX_M4 -->
<g id="edge23" class="edge">
<title>NVIC&#45;&gt;CORTEX_M4</title>
<path fill="none" stroke="black" d="M348.18,-932.57C374.46,-932.57 410.25,-932.57 410.25,-932.57 410.25,-932.57 410.25,-685.15 410.25,-685.15"/>
<polygon fill="black" stroke="black" points="413.75,-685.15 410.25,-675.15 406.75,-685.15 413.75,-685.15"/>
</g>
<!-- NVIC&#45;&gt;FLASH -->
<g id="edge30" class="edge">
<title>NVIC&#45;&gt;FLASH</title>
<path fill="none" stroke="black" d="M348.12,-927.43C358.21,-927.43 367.25,-927.43 367.25,-927.43 367.25,-927.43 367.25,-335 367.25,-335 367.25,-335 404.76,-335 404.76,-335"/>
<polygon fill="black" stroke="black" points="404.76,-338.5 414.76,-335 404.76,-331.5 404.76,-338.5"/>
</g>
<!-- NVIC&#45;&gt;TIMER -->
<g id="edge36" class="edge">
<title>NVIC&#45;&gt;TIMER</title>
<path fill="none" stroke="black" d="M293.44,-915C282.41,-915 272.25,-915 272.25,-915 272.25,-915 272.25,-576.6 272.25,-576.6 272.25,-576.6 280.19,-576.6 280.19,-576.6"/>
<polygon fill="black" stroke="black" points="280.19,-580.1 290.19,-576.6 280.19,-573.1 280.19,-580.1"/>
</g>
<!-- MICROCONTROLLER -->
<g id="node11" class="node">
<title>MICROCONTROLLER</title>
<polygon fill="none" stroke="black" points="244.25,-810 94,-810 94,-774 244.25,-774 244.25,-810"/>
<text text-anchor="middle" x="169.12" y="-786.95" font-family="Times,serif" font-size="14.00">MICROCONTROLLER</text>
</g>
<!-- MICROCONTROLLER&#45;&gt;NVIC -->
<g id="edge9" class="edge">
<title>MICROCONTROLLER&#45;&gt;NVIC</title>
<path fill="none" stroke="black" d="M221.25,-810.32C221.25,-849.73 221.25,-939 221.25,-939 221.25,-939 282.39,-939 282.39,-939"/>
<polygon fill="black" stroke="black" points="282.39,-942.5 292.39,-939 282.39,-935.5 282.39,-942.5"/>
</g>
<!-- MICROCONTROLLER&#45;&gt;SYSTICK -->
<g id="edge16" class="edge">
<title>MICROCONTROLLER&#45;&gt;SYSTICK</title>
<path fill="none" stroke="black" d="M229.25,-773.59C229.25,-739.27 229.25,-669 229.25,-669 229.25,-669 273.4,-669 273.4,-669"/>
<polygon fill="black" stroke="black" points="273.4,-672.5 283.4,-669 273.4,-665.5 273.4,-672.5"/>
</g>
<!-- INTERRUPT&#45;&gt;NVIC -->
<g id="edge10" class="edge">
<title>INTERRUPT&#45;&gt;NVIC</title>
<path fill="none" stroke="black" d="M214.63,-653.6C240.68,-653.6 268.25,-653.6 268.25,-653.6 268.25,-653.6 268.25,-930 268.25,-930 268.25,-930 282.64,-930 282.64,-930"/>
<polygon fill="black" stroke="black" points="282.64,-933.5 292.64,-930 282.64,-926.5 282.64,-933.5"/>
</g>
<!-- INTERRUPT&#45;&gt;SYSTICK -->
<g id="edge15" class="edge">
<title>INTERRUPT&#45;&gt;SYSTICK</title>
<path fill="none" stroke="black" d="M214.66,-643.2C214.66,-643.2 273.53,-643.2 273.53,-643.2"/>
<polygon fill="black" stroke="black" points="273.53,-646.7 283.53,-643.2 273.53,-639.7 273.53,-646.7"/>
</g>
<!-- INTERRUPT&#45;&gt;TIMER -->
<g id="edge41" class="edge">
<title>INTERRUPT&#45;&gt;TIMER</title>
<path fill="none" stroke="blue" d="M210.25,-627.8C210.25,-604.14 210.25,-565.8 210.25,-565.8 210.25,-565.8 280.23,-565.8 280.23,-565.8"/>
<polygon fill="blue" stroke="blue" points="280.23,-569.3 290.23,-565.8 280.23,-562.3 280.23,-569.3"/>
</g>
<!-- INTERRUPT&#45;&gt;UART -->
<g id="edge47" class="edge">
<title>INTERRUPT&#45;&gt;UART</title>
<path fill="none" stroke="blue" d="M205.25,-627.77C205.25,-582.66 205.25,-469.43 205.25,-469.43 205.25,-469.43 559.81,-469.43 559.81,-469.43"/>
<polygon fill="blue" stroke="blue" points="559.81,-472.93 569.81,-469.43 559.81,-465.93 559.81,-472.93"/>
</g>
<!-- USB -->
<g id="node30" class="node">
<title>USB</title>
<polygon fill="none" stroke="black" points="472.25,-896 418.25,-896 418.25,-860 472.25,-860 472.25,-896"/>
<text text-anchor="middle" x="445.25" y="-872.95" font-family="Times,serif" font-size="14.00">USB</text>
</g>
<!-- INTERRUPT&#45;&gt;USB -->
<g id="edge51" class="edge">
<title>INTERRUPT&#45;&gt;USB</title>
<path fill="none" stroke="black" d="M214.56,-648.4C243.75,-648.4 276.25,-648.4 276.25,-648.4 276.25,-648.4 276.25,-872 276.25,-872 276.25,-872 407.1,-872 407.1,-872"/>
<polygon fill="black" stroke="black" points="407.1,-875.5 417.1,-872 407.1,-868.5 407.1,-875.5"/>
</g>
<!-- USB_DEVICE -->
<g id="node33" class="node">
<title>USB_DEVICE</title>
<polygon fill="none" stroke="black" points="647.38,-766 548.88,-766 548.88,-730 647.38,-730 647.38,-766"/>
<text text-anchor="middle" x="598.12" y="-742.95" font-family="Times,serif" font-size="14.00">USB_DEVICE</text>
</g>
<!-- INTERRUPT&#45;&gt;USB_DEVICE -->
<g id="edge53" class="edge">
<title>INTERRUPT&#45;&gt;USB_DEVICE</title>
<path fill="none" stroke="black" d="M214.52,-633C317.17,-633 558.25,-633 558.25,-633 558.25,-633 558.25,-718.52 558.25,-718.52"/>
<polygon fill="black" stroke="black" points="554.75,-718.52 558.25,-728.52 561.75,-718.52 554.75,-718.52"/>
</g>
<!-- CMSIS -->
<g id="node13" class="node">
<title>CMSIS</title>
<polygon fill="none" stroke="black" points="197.75,-1099 140.5,-1099 140.5,-1063 197.75,-1063 197.75,-1099"/>
<text text-anchor="middle" x="169.12" y="-1075.95" font-family="Times,serif" font-size="14.00">CMSIS</text>
</g>
<!-- CMSIS&#45;&gt;NVIC -->
<g id="edge11" class="edge">
<title>CMSIS&#45;&gt;NVIC</title>
<path fill="none" stroke="black" d="M198.07,-1081C234.18,-1081 291.25,-1081 291.25,-1081 291.25,-1081 291.25,-945 291.25,-945 291.25,-945 291.48,-945 291.48,-945"/>
<polygon fill="black" stroke="black" points="282.57,-948.5 292.57,-945 282.57,-941.5 282.57,-948.5"/>
</g>
<!-- SYSTICK&#45;&gt;TIME -->
<g id="edge17" class="edge">
<title>SYSTICK&#45;&gt;TIME</title>
<path fill="none" stroke="black" d="M357.17,-650C372.67,-650 387.25,-650 387.25,-650 387.25,-650 387.25,-564 387.25,-564 387.25,-564 406.95,-564 406.95,-564"/>
<polygon fill="black" stroke="black" points="406.95,-567.5 416.95,-564 406.95,-560.5 406.95,-567.5"/>
</g>
<!-- SYSTICK&#45;&gt;CORTEX_M4 -->
<g id="edge24" class="edge">
<title>SYSTICK&#45;&gt;CORTEX_M4</title>
<path fill="none" stroke="black" d="M357.18,-662C357.18,-662 386.1,-662 386.1,-662"/>
<polygon fill="black" stroke="black" points="386.1,-665.5 396.1,-662 386.1,-658.5 386.1,-665.5"/>
</g>
<!-- CORTEX_M4&#45;&gt;NVIC -->
<g id="edge18" class="edge">
<title>CORTEX_M4&#45;&gt;NVIC</title>
<path fill="none" stroke="black" d="M414.25,-674.48C414.25,-737.16 414.25,-937.71 414.25,-937.71 414.25,-937.71 359.13,-937.71 359.13,-937.71"/>
<polygon fill="black" stroke="black" points="359.13,-934.21 349.13,-937.71 359.13,-941.21 359.13,-934.21"/>
</g>
<!-- FPU&#45;&gt;CORTEX_M4 -->
<g id="edge20" class="edge">
<title>FPU&#45;&gt;CORTEX_M4</title>
<path fill="none" stroke="black" d="M347.97,-834.5C371.64,-834.5 402.25,-834.5 402.25,-834.5 402.25,-834.5 402.25,-685.43 402.25,-685.43"/>
<polygon fill="black" stroke="black" points="405.75,-685.43 402.25,-675.43 398.75,-685.43 405.75,-685.43"/>
</g>
<!-- THUMB -->
<g id="node17" class="node">
<title>THUMB</title>
<polygon fill="none" stroke="black" points="353.62,-90 288.12,-90 288.12,-54 353.62,-54 353.62,-90"/>
<text text-anchor="middle" x="320.88" y="-66.95" font-family="Times,serif" font-size="14.00">THUMB</text>
</g>
<!-- THUMB&#45;&gt;CORTEX_M4 -->
<g id="edge21" class="edge">
<title>THUMB&#45;&gt;CORTEX_M4</title>
<path fill="none" stroke="black" d="M354.02,-72C378.38,-72 407.25,-72 407.25,-72 407.25,-72 407.25,-626.56 407.25,-626.56"/>
<polygon fill="black" stroke="black" points="403.75,-626.56 407.25,-636.56 410.75,-626.56 403.75,-626.56"/>
</g>
<!-- ARRAY -->
<g id="node18" class="node">
<title>ARRAY</title>
<polygon fill="none" stroke="black" points="352.12,-344 289.62,-344 289.62,-308 352.12,-308 352.12,-344"/>
<text text-anchor="middle" x="320.88" y="-320.95" font-family="Times,serif" font-size="14.00">ARRAY</text>
</g>
<!-- ARRAY&#45;&gt;FLASH -->
<g id="edge25" class="edge">
<title>ARRAY&#45;&gt;FLASH</title>
<path fill="none" stroke="black" d="M352.58,-326C352.58,-326 404.74,-326 404.74,-326"/>
<polygon fill="black" stroke="black" points="404.74,-329.5 414.74,-326 404.74,-322.5 404.74,-329.5"/>
</g>
<!-- DEBUGGER -->
<g id="node21" class="node">
<title>DEBUGGER</title>
<polygon fill="none" stroke="black" points="642.88,-344 553.38,-344 553.38,-308 642.88,-308 642.88,-344"/>
<text text-anchor="middle" x="598.12" y="-320.95" font-family="Times,serif" font-size="14.00">DEBUGGER</text>
</g>
<!-- FLASH&#45;&gt;DEBUGGER -->
<g id="edge72" class="edge">
<title>FLASH&#45;&gt;DEBUGGER</title>
<path fill="none" stroke="black" d="M475.09,-322.4C475.09,-322.4 541.99,-322.4 541.99,-322.4"/>
<polygon fill="black" stroke="black" points="541.99,-325.9 551.99,-322.4 541.99,-318.9 541.99,-325.9"/>
</g>
<!-- FLASH&#45;&gt;SCHEDULER -->
<g id="edge82" class="edge">
<title>FLASH&#45;&gt;SCHEDULER</title>
<path fill="none" stroke="blue" d="M459.25,-344.12C459.25,-346.97 459.25,-349 459.25,-349 459.25,-349 755.25,-349 755.25,-349 755.25,-349 755.25,-388.51 755.25,-388.51"/>
<polygon fill="blue" stroke="blue" points="751.75,-388.51 755.25,-398.51 758.75,-388.51 751.75,-388.51"/>
</g>
<!-- FLASH&#45;&gt;LIMITER -->
<g id="edge87" class="edge">
<title>FLASH&#45;&gt;LIMITER</title>
<path fill="none" stroke="black" d="M475.03,-329.6C505.13,-329.6 547.25,-329.6 547.25,-329.6 547.25,-329.6 547.25,-410 547.25,-410 547.25,-410 550.97,-410 550.97,-410"/>
<polygon fill="black" stroke="black" points="550.97,-413.5 560.97,-410 550.97,-406.5 550.97,-413.5"/>
</g>
<!-- FLASH&#45;&gt;BUTTON -->
<g id="edge92" class="edge">
<title>FLASH&#45;&gt;BUTTON</title>
<path fill="none" stroke="green" d="M475.12,-336.8C501.98,-336.8 537.25,-336.8 537.25,-336.8 537.25,-336.8 537.25,-520 537.25,-520 537.25,-520 551.36,-520 551.36,-520"/>
<polygon fill="green" stroke="green" points="551.36,-523.5 561.36,-520 551.36,-516.5 551.36,-523.5"/>
</g>
<!-- INTERVAL -->
<g id="node20" class="node">
<title>INTERVAL</title>
<polygon fill="none" stroke="black" points="361.5,-36 280.25,-36 280.25,0 361.5,0 361.5,-36"/>
<text text-anchor="middle" x="320.88" y="-12.95" font-family="Times,serif" font-size="14.00">INTERVAL</text>
</g>
<!-- INTERVAL&#45;&gt;FLASH -->
<g id="edge27" class="edge">
<title>INTERVAL&#45;&gt;FLASH</title>
<path fill="none" stroke="black" d="M361.81,-18C373.07,-18 382.25,-18 382.25,-18 382.25,-18 382.25,-317 382.25,-317 382.25,-317 404.59,-317 404.59,-317"/>
<polygon fill="black" stroke="black" points="404.59,-320.5 414.59,-317 404.59,-313.5 404.59,-320.5"/>
</g>
<!-- DEBUGGER&#45;&gt;FLASH -->
<g id="edge28" class="edge">
<title>DEBUGGER&#45;&gt;FLASH</title>
<path fill="none" stroke="black" d="M553.08,-315.2C553.08,-315.2 486.01,-315.2 486.01,-315.2"/>
<polygon fill="black" stroke="black" points="486.01,-311.7 476.01,-315.2 486.01,-318.7 486.01,-311.7"/>
</g>
<!-- FLOAT -->
<g id="node22" class="node">
<title>FLOAT</title>
<polygon fill="none" stroke="black" points="58,-390 0,-390 0,-354 58,-354 58,-390"/>
<text text-anchor="middle" x="29" y="-366.95" font-family="Times,serif" font-size="14.00">FLOAT</text>
</g>
<!-- FLOAT&#45;&gt;FLASH -->
<g id="edge29" class="edge">
<title>FLOAT&#45;&gt;FLASH</title>
<path fill="none" stroke="black" d="M58.33,-356.67C151.12,-356.67 432.25,-356.67 432.25,-356.67 432.25,-356.67 432.25,-355.19 432.25,-355.19"/>
<polygon fill="black" stroke="black" points="435.75,-355.19 432.25,-345.19 428.75,-355.19 435.75,-355.19"/>
</g>
<!-- MATH -->
<g id="node26" class="node">
<title>MATH</title>
<polygon fill="none" stroke="black" points="196.62,-440 141.62,-440 141.62,-404 196.62,-404 196.62,-440"/>
<text text-anchor="middle" x="169.12" y="-416.95" font-family="Times,serif" font-size="14.00">MATH</text>
</g>
<!-- FLOAT&#45;&gt;MATH -->
<g id="edge90" class="edge">
<title>FLOAT&#45;&gt;MATH</title>
<path fill="none" stroke="black" d="M58.49,-376C101.98,-376 178.25,-376 178.25,-376 178.25,-376 178.25,-392.56 178.25,-392.56"/>
<polygon fill="black" stroke="black" points="174.75,-392.56 178.25,-402.56 181.75,-392.56 174.75,-392.56"/>
</g>
<!-- GPIO&#45;&gt;CAN -->
<g id="edge59" class="edge">
<title>GPIO&#45;&gt;CAN</title>
<path fill="none" stroke="black" d="M348.17,-997.14C348.17,-997.14 407.02,-997.14 407.02,-997.14"/>
<polygon fill="black" stroke="black" points="407.02,-1000.64 417.02,-997.14 407.02,-993.64 407.02,-1000.64"/>
</g>
<!-- GPIO&#45;&gt;UART -->
<g id="edge45" class="edge">
<title>GPIO&#45;&gt;UART</title>
<path fill="none" stroke="fuchsia" d="M348.37,-982.57C360.58,-982.57 372.25,-982.57 372.25,-982.57 372.25,-982.57 372.25,-479.71 372.25,-479.71 372.25,-479.71 559.88,-479.71 559.88,-479.71"/>
<polygon fill="fuchsia" stroke="fuchsia" points="559.88,-483.21 569.88,-479.71 559.88,-476.21 559.88,-483.21"/>
</g>
<!-- GPIO&#45;&gt;USB -->
<g id="edge50" class="edge">
<title>GPIO&#45;&gt;USB</title>
<path fill="none" stroke="black" d="M348.29,-977.71C352.38,-977.71 355.25,-977.71 355.25,-977.71 355.25,-977.71 355.25,-884 355.25,-884 355.25,-884 406.76,-884 406.76,-884"/>
<polygon fill="black" stroke="black" points="406.76,-887.5 416.76,-884 406.76,-880.5 406.76,-887.5"/>
</g>
<!-- GPIO&#45;&gt;LED -->
<g id="edge73" class="edge">
<title>GPIO&#45;&gt;LED</title>
<path fill="none" stroke="black" d="M348.15,-972.86C350.64,-972.86 352.25,-972.86 352.25,-972.86 352.25,-972.86 352.25,-684 352.25,-684 352.25,-684 559.87,-684 559.87,-684"/>
<polygon fill="black" stroke="black" points="559.87,-687.5 569.87,-684 559.87,-680.5 559.87,-687.5"/>
</g>
<!-- GPIO&#45;&gt;LED_MONO -->
<g id="edge75" class="edge">
<title>GPIO&#45;&gt;LED_MONO</title>
<path fill="none" stroke="black" d="M321.25,-965.51C321.25,-959.34 321.25,-954 321.25,-954 321.25,-954 755.25,-954 755.25,-954 755.25,-954 755.25,-704.31 755.25,-704.31"/>
<polygon fill="black" stroke="black" points="758.75,-704.31 755.25,-694.31 751.75,-704.31 758.75,-704.31"/>
</g>
<!-- GPIO&#45;&gt;BUTTON -->
<g id="edge91" class="edge">
<title>GPIO&#45;&gt;BUTTON</title>
<path fill="none" stroke="blue" d="M348.07,-987.43C362.49,-987.43 377.25,-987.43 377.25,-987.43 377.25,-987.43 377.25,-532 377.25,-532 377.25,-532 551.64,-532 551.64,-532"/>
<polygon fill="blue" stroke="blue" points="551.64,-535.5 561.64,-532 551.64,-528.5 551.64,-535.5"/>
</g>
<!-- MCU -->
<g id="node24" class="node">
<title>MCU</title>
<polygon fill="none" stroke="black" points="196.12,-1153 142.12,-1153 142.12,-1117 196.12,-1117 196.12,-1153"/>
<text text-anchor="middle" x="169.12" y="-1129.95" font-family="Times,serif" font-size="14.00">MCU</text>
</g>
<!-- MCU&#45;&gt;GPIO -->
<g id="edge32" class="edge">
<title>MCU&#45;&gt;GPIO</title>
<path fill="none" stroke="black" d="M196.32,-1135C240.08,-1135 321.25,-1135 321.25,-1135 321.25,-1135 321.25,-1013.21 321.25,-1013.21"/>
<polygon fill="black" stroke="black" points="324.75,-1013.21 321.25,-1003.21 317.75,-1013.21 324.75,-1013.21"/>
</g>
<!-- TIMER&#45;&gt;TIME -->
<g id="edge39" class="edge">
<title>TIMER&#45;&gt;TIME</title>
<path fill="none" stroke="black" d="M350.67,-555C350.67,-555 406.83,-555 406.83,-555"/>
<polygon fill="black" stroke="black" points="406.83,-558.5 416.83,-555 406.83,-551.5 406.83,-558.5"/>
</g>
<!-- MATH&#45;&gt;TIMER -->
<g id="edge38" class="edge">
<title>MATH&#45;&gt;TIMER</title>
<path fill="none" stroke="black" d="M156.25,-440.41C156.25,-475.94 156.25,-550.5 156.25,-550.5 156.25,-550.5 280.06,-550.5 280.06,-550.5"/>
<polygon fill="black" stroke="black" points="280.06,-554 290.06,-550.5 280.06,-547 280.06,-554"/>
</g>
<!-- MATH&#45;&gt;LED_MONO -->
<g id="edge77" class="edge">
<title>MATH&#45;&gt;LED_MONO</title>
<path fill="none" stroke="black" d="M169.25,-440.25C169.25,-463.02 169.25,-499 169.25,-499 169.25,-499 716.25,-499 716.25,-499 716.25,-499 716.25,-645.83 716.25,-645.83"/>
<polygon fill="black" stroke="black" points="712.75,-645.83 716.25,-655.83 719.75,-645.83 712.75,-645.83"/>
</g>
<!-- WRITER -->
<g id="node35" class="node">
<title>WRITER</title>
<polygon fill="none" stroke="black" points="789,-582 720.5,-582 720.5,-546 789,-546 789,-582"/>
<text text-anchor="middle" x="754.75" y="-558.95" font-family="Times,serif" font-size="14.00">WRITER</text>
</g>
<!-- UART&#45;&gt;WRITER -->
<g id="edge70" class="edge">
<title>UART&#45;&gt;WRITER</title>
<path fill="none" stroke="black" d="M625.49,-478C670.51,-478 755.25,-478 755.25,-478 755.25,-478 755.25,-534.76 755.25,-534.76"/>
<polygon fill="black" stroke="black" points="751.75,-534.76 755.25,-544.76 758.75,-534.76 751.75,-534.76"/>
</g>
<!-- UART&#45;&gt;LOG -->
<g id="edge65" class="edge">
<title>UART&#45;&gt;LOG</title>
<path fill="none" stroke="black" d="M625.43,-466C718,-466 1014.25,-466 1014.25,-466 1014.25,-466 1014.25,-580.76 1014.25,-580.76"/>
<polygon fill="black" stroke="black" points="1010.75,-580.76 1014.25,-590.76 1017.75,-580.76 1010.75,-580.76"/>
</g>
<!-- FIFO -->
<g id="node28" class="node">
<title>FIFO</title>
<polygon fill="none" stroke="black" points="472.25,-252 418.25,-252 418.25,-216 472.25,-216 472.25,-252"/>
<text text-anchor="middle" x="445.25" y="-228.95" font-family="Times,serif" font-size="14.00">FIFO</text>
</g>
<!-- FIFO&#45;&gt;UART -->
<g id="edge43" class="edge">
<title>FIFO&#45;&gt;UART</title>
<path fill="none" stroke="black" d="M472.56,-234C501.87,-234 544.25,-234 544.25,-234 544.25,-234 544.25,-459.14 544.25,-459.14 544.25,-459.14 559.87,-459.14 559.87,-459.14"/>
<polygon fill="black" stroke="black" points="559.87,-462.64 569.87,-459.14 559.87,-455.64 559.87,-462.64"/>
</g>
<!-- FIFO&#45;&gt;WRITER -->
<g id="edge69" class="edge">
<title>FIFO&#45;&gt;WRITER</title>
<path fill="none" stroke="black" d="M472.44,-243C498.61,-243 534.25,-243 534.25,-243 534.25,-243 534.25,-550 534.25,-550 534.25,-550 709.3,-550 709.3,-550"/>
<polygon fill="black" stroke="black" points="709.3,-553.5 719.3,-550 709.3,-546.5 709.3,-553.5"/>
</g>
<!-- FIFO&#45;&gt;LOG -->
<g id="edge64" class="edge">
<title>FIFO&#45;&gt;LOG</title>
<path fill="none" stroke="black" d="M472.59,-225C587.85,-225 1028.25,-225 1028.25,-225 1028.25,-225 1028.25,-580.69 1028.25,-580.69"/>
<polygon fill="black" stroke="black" points="1024.75,-580.69 1028.25,-590.69 1031.75,-580.69 1024.75,-580.69"/>
</g>
<!-- DMA -->
<g id="node29" class="node">
<title>DMA</title>
<polygon fill="none" stroke="black" points="472.25,-398 418.25,-398 418.25,-362 472.25,-362 472.25,-398"/>
<text text-anchor="middle" x="445.25" y="-374.95" font-family="Times,serif" font-size="14.00">DMA</text>
</g>
<!-- DMA&#45;&gt;UART -->
<g id="edge44" class="edge">
<title>DMA&#45;&gt;UART</title>
<path fill="none" stroke="green" d="M472.53,-380C501.22,-380 542.25,-380 542.25,-380 542.25,-380 542.25,-464.29 542.25,-464.29 542.25,-464.29 559.84,-464.29 559.84,-464.29"/>
<polygon fill="green" stroke="green" points="559.84,-467.79 569.84,-464.29 559.84,-460.79 559.84,-467.79"/>
</g>
<!-- HID -->
<g id="node31" class="node">
<title>HID</title>
<polygon fill="none" stroke="black" points="625.12,-858 571.12,-858 571.12,-822 625.12,-822 625.12,-858"/>
<text text-anchor="middle" x="598.12" y="-834.95" font-family="Times,serif" font-size="14.00">HID</text>
</g>
<!-- USB&#45;&gt;HID -->
<g id="edge48" class="edge">
<title>USB&#45;&gt;HID</title>
<path fill="none" stroke="black" d="M445.25,-859.82C445.25,-856.64 445.25,-854.33 445.25,-854.33 445.25,-854.33 559.79,-854.33 559.79,-854.33"/>
<polygon fill="black" stroke="black" points="559.79,-857.83 569.79,-854.33 559.79,-850.83 559.79,-857.83"/>
</g>
<!-- STREAM -->
<g id="node32" class="node">
<title>STREAM</title>
<polygon fill="none" stroke="black" points="932.5,-743 861,-743 861,-707 932.5,-707 932.5,-743"/>
<text text-anchor="middle" x="896.75" y="-719.95" font-family="Times,serif" font-size="14.00">STREAM</text>
</g>
<!-- USB&#45;&gt;STREAM -->
<g id="edge49" class="edge">
<title>USB&#45;&gt;STREAM</title>
<path fill="none" stroke="black" d="M472.44,-870.67C568.37,-870.67 885.25,-870.67 885.25,-870.67 885.25,-870.67 885.25,-754.45 885.25,-754.45"/>
<polygon fill="black" stroke="black" points="888.75,-754.45 885.25,-744.45 881.75,-754.45 888.75,-754.45"/>
</g>
<!-- USB&#45;&gt;USB_DEVICE -->
<g id="edge52" class="edge">
<title>USB&#45;&gt;USB_DEVICE</title>
<path fill="none" stroke="black" d="M472.5,-865.33C506.51,-865.33 560.25,-865.33 560.25,-865.33 560.25,-865.33 560.25,-777.33 560.25,-777.33"/>
<polygon fill="black" stroke="black" points="563.75,-777.33 560.25,-767.33 556.75,-777.33 563.75,-777.33"/>
</g>
<!-- VCOM -->
<g id="node34" class="node">
<title>VCOM</title>
<polygon fill="none" stroke="black" points="626.75,-1004 569.5,-1004 569.5,-968 626.75,-968 626.75,-1004"/>
<text text-anchor="middle" x="598.12" y="-980.95" font-family="Times,serif" font-size="14.00">VCOM</text>
</g>
<!-- USB&#45;&gt;VCOM -->
<g id="edge54" class="edge">
<title>USB&#45;&gt;VCOM</title>
<path fill="none" stroke="black" d="M472.46,-886C478.55,-886 483.25,-886 483.25,-886 483.25,-886 483.25,-977 483.25,-977 483.25,-977 558.14,-977 558.14,-977"/>
<polygon fill="black" stroke="black" points="558.14,-980.5 568.14,-977 558.14,-973.5 558.14,-980.5"/>
</g>
<!-- STREAM&#45;&gt;LOG -->
<g id="edge63" class="edge">
<title>STREAM&#45;&gt;LOG</title>
<path fill="none" stroke="black" d="M932.71,-725C962.94,-725 1001.25,-725 1001.25,-725 1001.25,-725 1001.25,-639.48 1001.25,-639.48"/>
<polygon fill="black" stroke="black" points="1004.75,-639.48 1001.25,-629.48 997.75,-639.48 1004.75,-639.48"/>
</g>
<!-- VCOM&#45;&gt;STREAM -->
<g id="edge56" class="edge">
<title>VCOM&#45;&gt;STREAM</title>
<path fill="none" stroke="black" d="M627.12,-982.4C704.35,-982.4 909.25,-982.4 909.25,-982.4 909.25,-982.4 909.25,-754.1 909.25,-754.1"/>
<polygon fill="black" stroke="black" points="912.75,-754.1 909.25,-744.1 905.75,-754.1 912.75,-754.1"/>
</g>
<!-- VCOM&#45;&gt;WRITER -->
<g id="edge55" class="edge">
<title>VCOM&#45;&gt;WRITER</title>
<path fill="none" stroke="black" d="M627.14,-975.2C652.48,-975.2 685.25,-975.2 685.25,-975.2 685.25,-975.2 685.25,-554 685.25,-554 685.25,-554 709,-554 709,-554"/>
<polygon fill="black" stroke="black" points="709,-557.5 719,-554 709,-550.5 709,-557.5"/>
</g>
<!-- VCOM&#45;&gt;LOG -->
<g id="edge57" class="edge">
<title>VCOM&#45;&gt;LOG</title>
<path fill="none" stroke="black" d="M627.06,-989.6C721.42,-989.6 1014.25,-989.6 1014.25,-989.6 1014.25,-989.6 1014.25,-639.31 1014.25,-639.31"/>
<polygon fill="black" stroke="black" points="1017.75,-639.31 1014.25,-629.31 1010.75,-639.31 1017.75,-639.31"/>
</g>
<!-- CLI -->
<g id="node37" class="node">
<title>CLI</title>
<polygon fill="none" stroke="black" points="1131.25,-816 1077.25,-816 1077.25,-780 1131.25,-780 1131.25,-816"/>
<text text-anchor="middle" x="1104.25" y="-792.95" font-family="Times,serif" font-size="14.00">CLI</text>
</g>
<!-- VCOM&#45;&gt;CLI -->
<g id="edge58" class="edge">
<title>VCOM&#45;&gt;CLI</title>
<path fill="none" stroke="black" d="M627.15,-996.8C734.7,-996.8 1104.25,-996.8 1104.25,-996.8 1104.25,-996.8 1104.25,-827.35 1104.25,-827.35"/>
<polygon fill="black" stroke="black" points="1107.75,-827.35 1104.25,-817.35 1100.75,-827.35 1107.75,-827.35"/>
</g>
<!-- WRITER&#45;&gt;STREAM -->
<g id="edge67" class="edge">
<title>WRITER&#45;&gt;STREAM</title>
<path fill="none" stroke="black" d="M789.25,-570C831.42,-570 897.25,-570 897.25,-570 897.25,-570 897.25,-695.61 897.25,-695.61"/>
<polygon fill="black" stroke="black" points="893.75,-695.61 897.25,-705.61 900.75,-695.61 893.75,-695.61"/>
</g>
<!-- WRITER&#45;&gt;LOG -->
<g id="edge66" class="edge">
<title>WRITER&#45;&gt;LOG</title>
<path fill="none" stroke="black" d="M789.28,-558C857.12,-558 1001.25,-558 1001.25,-558 1001.25,-558 1001.25,-580.52 1001.25,-580.52"/>
<polygon fill="black" stroke="black" points="997.75,-580.52 1001.25,-590.52 1004.75,-580.52 997.75,-580.52"/>
</g>
<!-- LOG&#45;&gt;CLI -->
<g id="edge68" class="edge">
<title>LOG&#45;&gt;CLI</title>
<path fill="none" stroke="black" d="M1028.25,-628.41C1028.25,-675.21 1028.25,-795 1028.25,-795 1028.25,-795 1065.81,-795 1065.81,-795"/>
<polygon fill="black" stroke="black" points="1065.81,-798.5 1075.81,-795 1065.81,-791.5 1065.81,-798.5"/>
</g>
<!-- LED&#45;&gt;LED_MONO -->
<g id="edge78" class="edge">
<title>LED&#45;&gt;LED_MONO</title>
<path fill="none" stroke="black" d="M625.41,-684.5C625.41,-684.5 697.78,-684.5 697.78,-684.5"/>
<polygon fill="black" stroke="black" points="697.78,-688 707.78,-684.5 697.78,-681 697.78,-688"/>
</g>
<!-- SUPER_CYCLE -->
<g id="node42" class="node">
<title>SUPER_CYCLE</title>
<polygon fill="none" stroke="black" points="951.25,-436 842.25,-436 842.25,-400 951.25,-400 951.25,-436"/>
<text text-anchor="middle" x="896.75" y="-412.95" font-family="Times,serif" font-size="14.00">SUPER_CYCLE</text>
</g>
<!-- SCHEDULER&#45;&gt;SUPER_CYCLE -->
<g id="edge79" class="edge">
<title>SCHEDULER&#45;&gt;SUPER_CYCLE</title>
<path fill="none" stroke="black" d="M790.22,-418C790.22,-418 830.86,-418 830.86,-418"/>
<polygon fill="black" stroke="black" points="830.86,-421.5 840.86,-418 830.86,-414.5 830.86,-421.5"/>
</g>
<!-- LIMITER&#45;&gt;SCHEDULER -->
<g id="edge80" class="edge">
<title>LIMITER&#45;&gt;SCHEDULER</title>
<path fill="none" stroke="green" d="M634.06,-412C634.06,-412 708.25,-412 708.25,-412"/>
<polygon fill="green" stroke="green" points="708.25,-415.5 718.25,-412 708.25,-408.5 708.25,-415.5"/>
</g>
<!-- RAM -->
<g id="node44" class="node">
<title>RAM</title>
<polygon fill="none" stroke="black" points="196.12,-171 142.12,-171 142.12,-135 196.12,-135 196.12,-171"/>
<text text-anchor="middle" x="169.12" y="-147.95" font-family="Times,serif" font-size="14.00">RAM</text>
</g>
<!-- RAM&#45;&gt;INTERVAL -->
<g id="edge88" class="edge">
<title>RAM&#45;&gt;INTERVAL</title>
<path fill="none" stroke="black" d="M169.25,-134.51C169.25,-97.54 169.25,-18 169.25,-18 169.25,-18 268.84,-18 268.84,-18"/>
<polygon fill="black" stroke="black" points="268.84,-21.5 278.84,-18 268.84,-14.5 268.84,-21.5"/>
</g>
<!-- CRC8 -->
<g id="node45" class="node">
<title>CRC8</title>
<polygon fill="none" stroke="black" points="347.88,-252 293.88,-252 293.88,-216 347.88,-216 347.88,-252"/>
<text text-anchor="middle" x="320.88" y="-228.95" font-family="Times,serif" font-size="14.00">CRC8</text>
</g>
<!-- RAM&#45;&gt;CRC8 -->
<g id="edge83" class="edge">
<title>RAM&#45;&gt;CRC8</title>
<path fill="none" stroke="black" d="M160.25,-171.38C160.25,-195.28 160.25,-234 160.25,-234 160.25,-234 282.63,-234 282.63,-234"/>
<polygon fill="black" stroke="black" points="282.63,-237.5 292.63,-234 282.63,-230.5 282.63,-237.5"/>
</g>
<!-- CRC16 -->
<g id="node46" class="node">
<title>CRC16</title>
<polygon fill="none" stroke="black" points="349.12,-198 292.62,-198 292.62,-162 349.12,-162 349.12,-198"/>
<text text-anchor="middle" x="320.88" y="-174.95" font-family="Times,serif" font-size="14.00">CRC16</text>
</g>
<!-- RAM&#45;&gt;CRC16 -->
<g id="edge84" class="edge">
<title>RAM&#45;&gt;CRC16</title>
<path fill="none" stroke="black" d="M196.61,-166.5C196.61,-166.5 281.31,-166.5 281.31,-166.5"/>
<polygon fill="black" stroke="black" points="281.31,-170 291.31,-166.5 281.31,-163 281.31,-170"/>
</g>
<!-- CRC32 -->
<g id="node47" class="node">
<title>CRC32</title>
<polygon fill="none" stroke="black" points="349.12,-144 292.62,-144 292.62,-108 349.12,-108 349.12,-144"/>
<text text-anchor="middle" x="320.88" y="-120.95" font-family="Times,serif" font-size="14.00">CRC32</text>
</g>
<!-- RAM&#45;&gt;CRC32 -->
<g id="edge85" class="edge">
<title>RAM&#45;&gt;CRC32</title>
<path fill="none" stroke="black" d="M196.61,-139.5C196.61,-139.5 281.31,-139.5 281.31,-139.5"/>
<polygon fill="black" stroke="black" points="281.31,-143 291.31,-139.5 281.31,-136 281.31,-143"/>
</g>
<!-- ASM -->
<g id="node48" class="node">
<title>ASM</title>
<polygon fill="none" stroke="black" points="56,-444 2,-444 2,-408 56,-408 56,-444"/>
<text text-anchor="middle" x="29" y="-420.95" font-family="Times,serif" font-size="14.00">ASM</text>
</g>
<!-- ASM&#45;&gt;MATH -->
<g id="edge89" class="edge">
<title>ASM&#45;&gt;MATH</title>
<path fill="none" stroke="black" d="M56.35,-424C56.35,-424 130.36,-424 130.36,-424"/>
<polygon fill="black" stroke="black" points="130.36,-427.5 140.36,-424 130.36,-420.5 130.36,-427.5"/>
</g>
</g>
</svg>
