<?xml version="1.0" encoding="UTF-8" standalone="no"?>
<!DOCTYPE svg PUBLIC "-//W3C//DTD SVG 1.1//EN"
 "http://www.w3.org/Graphics/SVG/1.1/DTD/svg11.dtd">
<!-- Generated by graphviz version 5.0.0 (20220707.1540)
 -->
<!-- Title: graphname Pages: 1 -->
<svg width="894pt" height="1155pt"
 viewBox="0.00 0.00 894.00 1155.00" xmlns="http://www.w3.org/2000/svg" xmlns:xlink="http://www.w3.org/1999/xlink">
<g id="graph0" class="graph" transform="scale(1 1) rotate(0) translate(4 1151)">
<title>graphname</title>
<polygon fill="white" stroke="transparent" points="-4,4 -4,-1151 890,-1151 890,4 -4,4"/>
<g id="clust3" class="cluster">
<title>cluster_Connectivity</title>
<polygon fill="oldlace" stroke="oldlace" points="256,-44 256,-301 879,-301 879,-44 256,-44"/>
<text text-anchor="middle" x="567.5" y="-285.8" font-family="Times New Roman,serif" font-size="14.00">Connectivity</text>
</g>
<g id="clust5" class="cluster">
<title>cluster_protocols</title>
<polygon fill="oldlace" stroke="oldlace" points="800,-118 800,-193 871,-193 871,-118 800,-118"/>
<text text-anchor="middle" x="835.5" y="-177.8" font-family="Times New Roman,serif" font-size="14.00">Protocols</text>
</g>
<g id="clust1" class="cluster">
<title>cluster_mcal</title>
<polygon fill="oldlace" stroke="oldlace" points="252.5,-315 252.5,-444 329.5,-444 329.5,-315 252.5,-315"/>
<text text-anchor="middle" x="291" y="-428.8" font-family="Times New Roman,serif" font-size="14.00">MCAL</text>
</g>
<g id="clust2" class="cluster">
<title>cluster_adc</title>
<polygon fill="oldlace" stroke="oldlace" points="250.5,-1064 250.5,-1139 331.5,-1139 331.5,-1064 250.5,-1064"/>
<text text-anchor="middle" x="291" y="-1123.8" font-family="Times New Roman,serif" font-size="14.00">ADT</text>
</g>
<g id="clust6" class="cluster">
<title>cluster_control</title>
<polygon fill="oldlace" stroke="oldlace" points="491,-309 491,-654 763.5,-654 763.5,-309 491,-309"/>
<text text-anchor="middle" x="627.25" y="-638.8" font-family="Times New Roman,serif" font-size="14.00">Control</text>
</g>
<g id="clust7" class="cluster">
<title>cluster_Computing</title>
<polygon fill="oldlace" stroke="oldlace" points="240,-520 240,-865 342,-865 342,-520 240,-520"/>
<text text-anchor="middle" x="291" y="-849.8" font-family="Times New Roman,serif" font-size="14.00">Computing</text>
</g>
<g id="clust8" class="cluster">
<title>cluster_storage</title>
<polygon fill="oldlace" stroke="oldlace" points="127,-873 127,-1056 457.5,-1056 457.5,-873 127,-873"/>
<text text-anchor="middle" x="292.25" y="-1040.8" font-family="Times New Roman,serif" font-size="14.00">Storage</text>
</g>
<!-- FPU -->
<g id="node1" class="node">
<title>FPU</title>
<polygon fill="none" stroke="black" points="65,-251 11,-251 11,-215 65,-215 65,-251"/>
<text text-anchor="middle" x="38" y="-229.3" font-family="Times New Roman,serif" font-size="14.00">FPU</text>
</g>
<!-- CORTEX_M4 -->
<g id="node2" class="node">
<title>CORTEX_M4</title>
<polygon fill="none" stroke="black" points="212,-305 112,-305 112,-269 212,-269 212,-305"/>
<text text-anchor="middle" x="162" y="-283.3" font-family="Times New Roman,serif" font-size="14.00">CORTEX_M4</text>
</g>
<!-- FPU&#45;&gt;CORTEX_M4 -->
<g id="edge1" class="edge">
<title>FPU&#45;&gt;CORTEX_M4</title>
<path fill="none" stroke="black" d="M65.21,-242.5C101.71,-242.5 162,-242.5 162,-242.5 162,-242.5 162,-258.9 162,-258.9"/>
<polygon fill="black" stroke="black" points="158.5,-258.9 162,-268.9 165.5,-258.9 158.5,-258.9"/>
</g>
<!-- THUMB -->
<g id="node3" class="node">
<title>THUMB</title>
<polygon fill="none" stroke="black" points="71,-359 5,-359 5,-323 71,-323 71,-359"/>
<text text-anchor="middle" x="38" y="-337.3" font-family="Times New Roman,serif" font-size="14.00">THUMB</text>
</g>
<!-- THUMB&#45;&gt;CORTEX_M4 -->
<g id="edge2" class="edge">
<title>THUMB&#45;&gt;CORTEX_M4</title>
<path fill="none" stroke="black" d="M71.2,-341C94.68,-341 122,-341 122,-341 122,-341 122,-315.28 122,-315.28"/>
<polygon fill="black" stroke="black" points="125.5,-315.28 122,-305.28 118.5,-315.28 125.5,-315.28"/>
</g>
<!-- SYSTICK -->
<g id="node4" class="node">
<title>SYSTICK</title>
<polygon fill="none" stroke="black" points="76,-305 0,-305 0,-269 76,-269 76,-305"/>
<text text-anchor="middle" x="38" y="-283.3" font-family="Times New Roman,serif" font-size="14.00">SYSTICK</text>
</g>
<!-- SYSTICK&#45;&gt;CORTEX_M4 -->
<g id="edge3" class="edge">
<title>SYSTICK&#45;&gt;CORTEX_M4</title>
<path fill="none" stroke="black" d="M76.22,-287C76.22,-287 101.81,-287 101.81,-287"/>
<polygon fill="black" stroke="black" points="101.81,-290.5 111.81,-287 101.81,-283.5 101.81,-290.5"/>
</g>
<!-- FLASH -->
<g id="node5" class="node">
<title>FLASH</title>
<polygon fill="aquamarine" stroke="black" points="315.5,-413 260.5,-413 260.5,-377 321.5,-377 321.5,-407 315.5,-413"/>
<polyline fill="none" stroke="black" points="315.5,-413 315.5,-407 "/>
<polyline fill="none" stroke="black" points="321.5,-407 315.5,-407 "/>
<text text-anchor="middle" x="291" y="-391.3" font-family="Times New Roman,serif" font-size="14.00">FLASH</text>
</g>
<!-- NVS -->
<g id="node14" class="node">
<title>NVS</title>
<polygon fill="none" stroke="black" points="189,-971 135,-971 135,-935 189,-935 189,-971"/>
<text text-anchor="middle" x="162" y="-949.3" font-family="Times New Roman,serif" font-size="14.00">NVS</text>
</g>
<!-- FLASH&#45;&gt;NVS -->
<g id="edge11" class="edge">
<title>FLASH&#45;&gt;NVS</title>
<path fill="none" stroke="black" d="M260.37,-390.6C234.63,-390.6 202,-390.6 202,-390.6 202,-390.6 202,-944 202,-944 202,-944 199.34,-944 199.34,-944"/>
<polygon fill="black" stroke="black" points="199.34,-940.5 189.34,-944 199.34,-947.5 199.34,-940.5"/>
</g>
<!-- BOOT -->
<g id="node24" class="node">
<title>BOOT</title>
<polygon fill="none" stroke="black" points="576,-623 520,-623 520,-587 576,-587 576,-623"/>
<text text-anchor="middle" x="548" y="-601.3" font-family="Times New Roman,serif" font-size="14.00">BOOT</text>
</g>
<!-- FLASH&#45;&gt;BOOT -->
<g id="edge31" class="edge">
<title>FLASH&#45;&gt;BOOT</title>
<path fill="none" stroke="black" d="M321.5,-397C336.75,-397 352,-397 352,-397 352,-397 352,-594.75 352,-594.75 352,-594.75 509.92,-594.75 509.92,-594.75"/>
<polygon fill="black" stroke="black" points="509.92,-598.25 519.92,-594.75 509.92,-591.25 509.92,-598.25"/>
</g>
<!-- DEBUGGER -->
<g id="node25" class="node">
<title>DEBUGGER</title>
<polygon fill="none" stroke="black" points="594,-353 502,-353 502,-317 594,-317 594,-353"/>
<text text-anchor="middle" x="548" y="-331.3" font-family="Times New Roman,serif" font-size="14.00">DEBUGGER</text>
</g>
<!-- FLASH&#45;&gt;DEBUGGER -->
<g id="edge32" class="edge">
<title>FLASH&#45;&gt;DEBUGGER</title>
<path fill="none" stroke="black" d="M321.8,-387C381.25,-387 506,-387 506,-387 506,-387 506,-363.19 506,-363.19"/>
<polygon fill="black" stroke="black" points="509.5,-363.19 506,-353.19 502.5,-363.19 509.5,-363.19"/>
</g>
<!-- TASK -->
<g id="node30" class="node">
<title>TASK</title>
<polygon fill="none" stroke="black" points="584,-515 512,-515 512,-479 584,-479 584,-515"/>
<text text-anchor="middle" x="548" y="-493.3" font-family="Times New Roman,serif" font-size="14.00">Scheduler</text>
</g>
<!-- FLASH&#45;&gt;TASK -->
<g id="edge41" class="edge">
<title>FLASH&#45;&gt;TASK</title>
<path fill="none" stroke="blue" d="M291,-413.35C291,-439.84 291,-485.67 291,-485.67 291,-485.67 501.99,-485.67 501.99,-485.67"/>
<polygon fill="blue" stroke="blue" points="501.99,-489.17 511.99,-485.67 501.99,-482.17 501.99,-489.17"/>
</g>
<!-- LIMITER -->
<g id="node34" class="node">
<title>LIMITER</title>
<polygon fill="none" stroke="black" points="327.5,-564 254.5,-564 254.5,-528 327.5,-528 327.5,-564"/>
<text text-anchor="middle" x="291" y="-542.3" font-family="Times New Roman,serif" font-size="14.00">LIMITER</text>
</g>
<!-- FLASH&#45;&gt;LIMITER -->
<g id="edge46" class="edge">
<title>FLASH&#45;&gt;LIMITER</title>
<path fill="none" stroke="black" d="M276,-413.21C276,-413.21 276,-517.72 276,-517.72"/>
<polygon fill="black" stroke="black" points="272.5,-517.72 276,-527.72 279.5,-517.72 272.5,-517.72"/>
</g>
<!-- GPIO -->
<g id="node6" class="node">
<title>GPIO</title>
<polygon fill="aquamarine" stroke="black" points="312,-359 264,-359 264,-323 318,-323 318,-353 312,-359"/>
<polyline fill="none" stroke="black" points="312,-359 312,-353 "/>
<polyline fill="none" stroke="black" points="318,-353 312,-353 "/>
<text text-anchor="middle" x="291" y="-337.3" font-family="Times New Roman,serif" font-size="14.00">GPIO</text>
</g>
<!-- UART -->
<g id="node7" class="node">
<title>UART</title>
<polygon fill="aquamarine" stroke="black" points="438,-98 389,-98 389,-62 444,-62 444,-92 438,-98"/>
<polyline fill="none" stroke="black" points="438,-98 438,-92 "/>
<polyline fill="none" stroke="black" points="444,-92 438,-92 "/>
<text text-anchor="middle" x="416.5" y="-76.3" font-family="Times New Roman,serif" font-size="14.00">UART</text>
</g>
<!-- GPIO&#45;&gt;UART -->
<g id="edge14" class="edge">
<title>GPIO&#45;&gt;UART</title>
<path fill="none" stroke="black" d="M318.03,-330.5C355.05,-330.5 417,-330.5 417,-330.5 417,-330.5 417,-108.02 417,-108.02"/>
<polygon fill="black" stroke="black" points="420.5,-108.02 417,-98.02 413.5,-108.02 420.5,-108.02"/>
</g>
<!-- LED -->
<g id="node27" class="node">
<title>LED</title>
<polygon fill="none" stroke="black" points="575,-461 521,-461 521,-425 575,-425 575,-461"/>
<text text-anchor="middle" x="548" y="-439.3" font-family="Times New Roman,serif" font-size="14.00">LED</text>
</g>
<!-- GPIO&#45;&gt;LED -->
<g id="edge34" class="edge">
<title>GPIO&#45;&gt;LED</title>
<path fill="none" stroke="black" d="M318.19,-338C345.95,-338 385,-338 385,-338 385,-338 385,-430.5 385,-430.5 385,-430.5 510.72,-430.5 510.72,-430.5"/>
<polygon fill="black" stroke="black" points="510.72,-434 520.72,-430.5 510.72,-427 510.72,-434"/>
</g>
<!-- LED_MONO -->
<g id="node32" class="node">
<title>LED_MONO</title>
<polygon fill="none" stroke="black" points="463,-535 370,-535 370,-499 463,-499 463,-535"/>
<text text-anchor="middle" x="416.5" y="-513.3" font-family="Times New Roman,serif" font-size="14.00">LED_MONO</text>
</g>
<!-- GPIO&#45;&gt;LED_MONO -->
<g id="edge35" class="edge">
<title>GPIO&#45;&gt;LED_MONO</title>
<path fill="none" stroke="black" d="M318.19,-345.5C344.36,-345.5 380,-345.5 380,-345.5 380,-345.5 380,-488.97 380,-488.97"/>
<polygon fill="black" stroke="black" points="376.5,-488.97 380,-498.97 383.5,-488.97 376.5,-488.97"/>
</g>
<!-- STREAM -->
<g id="node18" class="node">
<title>STREAM</title>
<polygon fill="none" stroke="black" points="585,-88 511,-88 511,-52 585,-52 585,-88"/>
<text text-anchor="middle" x="548" y="-66.3" font-family="Times New Roman,serif" font-size="14.00">STREAM</text>
</g>
<!-- UART&#45;&gt;STREAM -->
<g id="edge19" class="edge">
<title>UART&#45;&gt;STREAM</title>
<path fill="none" stroke="chartreuse" d="M444.07,-75C444.07,-75 500.99,-75 500.99,-75"/>
<polygon fill="chartreuse" stroke="chartreuse" points="500.99,-78.5 510.99,-75 500.99,-71.5 500.99,-78.5"/>
</g>
<!-- LOG -->
<g id="node19" class="node">
<title>LOG</title>
<polygon fill="none" stroke="black" points="725.5,-108 671.5,-108 671.5,-72 725.5,-72 725.5,-108"/>
<text text-anchor="middle" x="698.5" y="-86.3" font-family="Times New Roman,serif" font-size="14.00">LOG</text>
</g>
<!-- UART&#45;&gt;LOG -->
<g id="edge29" class="edge">
<title>UART&#45;&gt;LOG</title>
<path fill="none" stroke="black" d="M444.05,-93C444.05,-93 661.25,-93 661.25,-93"/>
<polygon fill="black" stroke="black" points="661.25,-96.5 671.25,-93 661.25,-89.5 661.25,-96.5"/>
</g>
<!-- ARRAY -->
<g id="node8" class="node">
<title>ARRAY</title>
<polygon fill="aqua" stroke="black" points="317.5,-1108 258.5,-1108 258.5,-1072 323.5,-1072 323.5,-1102 317.5,-1108"/>
<polyline fill="none" stroke="black" points="317.5,-1108 317.5,-1102 "/>
<polyline fill="none" stroke="black" points="323.5,-1102 317.5,-1102 "/>
<text text-anchor="middle" x="291" y="-1086.3" font-family="Times New Roman,serif" font-size="14.00">ARRAY</text>
</g>
<!-- ARRAY&#45;&gt;FLASH -->
<g id="edge4" class="edge">
<title>ARRAY&#45;&gt;FLASH</title>
<path fill="none" stroke="black" d="M258.36,-1084C243.85,-1084 230,-1084 230,-1084 230,-1084 230,-397.4 230,-397.4 230,-397.4 250.5,-397.4 250.5,-397.4"/>
<polygon fill="black" stroke="black" points="250.5,-400.9 260.5,-397.4 250.5,-393.9 250.5,-400.9"/>
</g>
<!-- REG -->
<g id="node9" class="node">
<title>REG</title>
<polygon fill="none" stroke="black" points="189,-917 135,-917 135,-881 189,-881 189,-917"/>
<text text-anchor="middle" x="162" y="-895.3" font-family="Times New Roman,serif" font-size="14.00">REG</text>
</g>
<!-- REG&#45;&gt;FLASH -->
<g id="edge5" class="edge">
<title>REG&#45;&gt;FLASH</title>
<path fill="none" stroke="black" d="M189.21,-905C195.3,-905 200,-905 200,-905 200,-905 200,-383.8 200,-383.8 200,-383.8 250.45,-383.8 250.45,-383.8"/>
<polygon fill="black" stroke="black" points="250.45,-387.3 260.45,-383.8 250.45,-380.3 250.45,-387.3"/>
</g>
<!-- REG&#45;&gt;GPIO -->
<g id="edge8" class="edge">
<title>REG&#45;&gt;GPIO</title>
<path fill="none" stroke="black" d="M189.29,-893C194.31,-893 198,-893 198,-893 198,-893 198,-350 198,-350 198,-350 253.6,-350 253.6,-350"/>
<polygon fill="black" stroke="black" points="253.6,-353.5 263.6,-350 253.6,-346.5 253.6,-353.5"/>
</g>
<!-- INTERVAL -->
<g id="node10" class="node">
<title>INTERVAL</title>
<polygon fill="none" stroke="black" points="334,-672 248,-672 248,-636 334,-636 334,-672"/>
<text text-anchor="middle" x="291" y="-650.3" font-family="Times New Roman,serif" font-size="14.00">INTERVAL</text>
</g>
<!-- INTERVAL&#45;&gt;FLASH -->
<g id="edge6" class="edge">
<title>INTERVAL&#45;&gt;FLASH</title>
<path fill="none" stroke="black" d="M247.62,-640.5C244.18,-640.5 242,-640.5 242,-640.5 242,-640.5 242,-404.2 242,-404.2 242,-404.2 250.25,-404.2 250.25,-404.2"/>
<polygon fill="black" stroke="black" points="250.25,-407.7 260.25,-404.2 250.25,-400.7 250.25,-407.7"/>
</g>
<!-- INTERVAL&#45;&gt;NVS -->
<g id="edge12" class="edge">
<title>INTERVAL&#45;&gt;NVS</title>
<path fill="none" stroke="black" d="M247.93,-663C240.98,-663 236,-663 236,-663 236,-663 236,-953 236,-953 236,-953 199.13,-953 199.13,-953"/>
<polygon fill="black" stroke="black" points="199.13,-949.5 189.13,-953 199.13,-956.5 199.13,-949.5"/>
</g>
<!-- TIME -->
<g id="node11" class="node">
<title>TIME</title>
<polygon fill="none" stroke="black" points="189,-447 135,-447 135,-411 189,-411 189,-447"/>
<text text-anchor="middle" x="162" y="-425.3" font-family="Times New Roman,serif" font-size="14.00">TIME</text>
</g>
<!-- TIME&#45;&gt;GPIO -->
<g id="edge7" class="edge">
<title>TIME&#45;&gt;GPIO</title>
<path fill="none" stroke="black" d="M189.12,-416C193.16,-416 196,-416 196,-416 196,-416 196,-341 196,-341 196,-341 253.78,-341 253.78,-341"/>
<polygon fill="black" stroke="black" points="253.78,-344.5 263.78,-341 253.78,-337.5 253.78,-344.5"/>
</g>
<!-- TIME&#45;&gt;UART -->
<g id="edge13" class="edge">
<title>TIME&#45;&gt;UART</title>
<path fill="none" stroke="black" d="M189.02,-422C257.24,-422 431,-422 431,-422 431,-422 431,-108.39 431,-108.39"/>
<polygon fill="black" stroke="black" points="434.5,-108.39 431,-98.39 427.5,-108.39 434.5,-108.39"/>
</g>
<!-- TIME&#45;&gt;LOG -->
<g id="edge26" class="edge">
<title>TIME&#45;&gt;LOG</title>
<path fill="none" stroke="black" d="M189.02,-419C203.34,-419 218,-419 218,-419 218,-419 218,-103 218,-103 218,-103 661.29,-103 661.29,-103"/>
<polygon fill="black" stroke="black" points="661.29,-106.5 671.29,-103 661.29,-99.5 661.29,-106.5"/>
</g>
<!-- TIME&#45;&gt;TASK -->
<g id="edge40" class="edge">
<title>TIME&#45;&gt;TASK</title>
<path fill="none" stroke="red" d="M189.27,-436C272.39,-436 517,-436 517,-436 517,-436 517,-468.7 517,-468.7"/>
<polygon fill="red" stroke="red" points="513.5,-468.7 517,-478.7 520.5,-468.7 513.5,-468.7"/>
</g>
<!-- TIME&#45;&gt;LED_MONO -->
<g id="edge36" class="edge">
<title>TIME&#45;&gt;LED_MONO</title>
<path fill="none" stroke="black" d="M189.41,-441.5C246.94,-441.5 375,-441.5 375,-441.5 375,-441.5 375,-488.72 375,-488.72"/>
<polygon fill="black" stroke="black" points="371.5,-488.72 375,-498.72 378.5,-488.72 371.5,-488.72"/>
</g>
<!-- TIME&#45;&gt;LIMITER -->
<g id="edge45" class="edge">
<title>TIME&#45;&gt;LIMITER</title>
<path fill="none" stroke="black" d="M162,-447.08C162,-478.88 162,-541.5 162,-541.5 162,-541.5 244.38,-541.5 244.38,-541.5"/>
<polygon fill="black" stroke="black" points="244.38,-545 254.38,-541.5 244.38,-538 244.38,-545"/>
</g>
<!-- MCU -->
<g id="node12" class="node">
<title>MCU</title>
<polygon fill="none" stroke="black" points="189,-359 135,-359 135,-323 189,-323 189,-359"/>
<text text-anchor="middle" x="162" y="-337.3" font-family="Times New Roman,serif" font-size="14.00">MCU</text>
</g>
<!-- MCU&#45;&gt;GPIO -->
<g id="edge9" class="edge">
<title>MCU&#45;&gt;GPIO</title>
<path fill="none" stroke="black" d="M189.04,-332C189.04,-332 253.99,-332 253.99,-332"/>
<polygon fill="black" stroke="black" points="253.99,-335.5 263.99,-332 253.99,-328.5 253.99,-335.5"/>
</g>
<!-- CRC -->
<g id="node13" class="node">
<title>CRC</title>
<polygon fill="none" stroke="black" points="65,-971 11,-971 11,-935 65,-935 65,-971"/>
<text text-anchor="middle" x="38" y="-949.3" font-family="Times New Roman,serif" font-size="14.00">CRC</text>
</g>
<!-- CRC&#45;&gt;NVS -->
<g id="edge10" class="edge">
<title>CRC&#45;&gt;NVS</title>
<path fill="none" stroke="black" d="M65.21,-953C65.21,-953 124.85,-953 124.85,-953"/>
<polygon fill="black" stroke="black" points="124.85,-956.5 134.85,-953 124.85,-949.5 124.85,-956.5"/>
</g>
<!-- FLASH_FS -->
<g id="node40" class="node">
<title>FLASH_FS</title>
<polygon fill="none" stroke="black" points="333.5,-917 248.5,-917 248.5,-881 333.5,-881 333.5,-917"/>
<text text-anchor="middle" x="291" y="-895.3" font-family="Times New Roman,serif" font-size="14.00">FLASH_FS</text>
</g>
<!-- NVS&#45;&gt;FLASH_FS -->
<g id="edge52" class="edge">
<title>NVS&#45;&gt;FLASH_FS</title>
<path fill="none" stroke="black" d="M189.11,-962C216.24,-962 254,-962 254,-962 254,-962 254,-927.22 254,-927.22"/>
<polygon fill="black" stroke="black" points="257.5,-927.22 254,-917.22 250.5,-927.22 257.5,-927.22"/>
</g>
<!-- NVIC -->
<g id="node15" class="node">
<title>NVIC</title>
<polygon fill="none" stroke="black" points="318,-36 264,-36 264,0 318,0 318,-36"/>
<text text-anchor="middle" x="291" y="-14.3" font-family="Times New Roman,serif" font-size="14.00">NVIC</text>
</g>
<!-- NVIC&#45;&gt;UART -->
<g id="edge15" class="edge">
<title>NVIC&#45;&gt;UART</title>
<path fill="none" stroke="black" d="M291,-36.27C291,-54.56 291,-80 291,-80 291,-80 378.96,-80 378.96,-80"/>
<polygon fill="black" stroke="black" points="378.96,-83.5 388.96,-80 378.96,-76.5 378.96,-83.5"/>
</g>
<!-- FIFO -->
<g id="node16" class="node">
<title>FIFO</title>
<polygon fill="aqua" stroke="black" points="312,-155 264,-155 264,-119 318,-119 318,-149 312,-155"/>
<polyline fill="none" stroke="black" points="312,-155 312,-149 "/>
<polyline fill="none" stroke="black" points="318,-149 312,-149 "/>
<text text-anchor="middle" x="291" y="-133.3" font-family="Times New Roman,serif" font-size="14.00">FIFO</text>
</g>
<!-- FIFO&#45;&gt;UART -->
<g id="edge16" class="edge">
<title>FIFO&#45;&gt;UART</title>
<path fill="none" stroke="black" d="M318.11,-121.33C351.26,-121.33 403,-121.33 403,-121.33 403,-121.33 403,-108.25 403,-108.25"/>
<polygon fill="black" stroke="black" points="406.5,-108.25 403,-98.25 399.5,-108.25 406.5,-108.25"/>
</g>
<!-- FIFO&#45;&gt;LOG -->
<g id="edge28" class="edge">
<title>FIFO&#45;&gt;LOG</title>
<path fill="none" stroke="black" d="M318.09,-123.67C409.21,-123.67 699,-123.67 699,-123.67 699,-123.67 699,-118.02 699,-118.02"/>
<polygon fill="black" stroke="black" points="702.5,-118.02 699,-108.02 695.5,-118.02 702.5,-118.02"/>
</g>
<!-- STRING_READER -->
<g id="node21" class="node">
<title>STRING_READER</title>
<polygon fill="none" stroke="black" points="764,-162 633,-162 633,-126 764,-126 764,-162"/>
<text text-anchor="middle" x="698.5" y="-140.3" font-family="Times New Roman,serif" font-size="14.00">STRING_READER</text>
</g>
<!-- FIFO&#45;&gt;STRING_READER -->
<g id="edge20" class="edge">
<title>FIFO&#45;&gt;STRING_READER</title>
<path fill="none" stroke="aqua" d="M318.05,-140.5C318.05,-140.5 622.84,-140.5 622.84,-140.5"/>
<polygon fill="aqua" stroke="aqua" points="622.84,-144 632.84,-140.5 622.84,-137 622.84,-144"/>
</g>
<!-- RAM -->
<g id="node17" class="node">
<title>RAM</title>
<polygon fill="none" stroke="black" points="189,-1025 135,-1025 135,-989 189,-989 189,-1025"/>
<text text-anchor="middle" x="162" y="-1003.3" font-family="Times New Roman,serif" font-size="14.00">RAM</text>
</g>
<!-- RAM&#45;&gt;ARRAY -->
<g id="edge17" class="edge">
<title>RAM&#45;&gt;ARRAY</title>
<path fill="none" stroke="blue" d="M162,-1025.01C162,-1051.02 162,-1096 162,-1096 162,-1096 248.45,-1096 248.45,-1096"/>
<polygon fill="blue" stroke="blue" points="248.45,-1099.5 258.45,-1096 248.45,-1092.5 248.45,-1099.5"/>
</g>
<!-- RAM&#45;&gt;INTERVAL -->
<g id="edge47" class="edge">
<title>RAM&#45;&gt;INTERVAL</title>
<path fill="none" stroke="black" d="M189.31,-995C197.33,-995 204,-995 204,-995 204,-995 204,-654 204,-654 204,-654 237.75,-654 237.75,-654"/>
<polygon fill="black" stroke="black" points="237.75,-657.5 247.75,-654 237.75,-650.5 237.75,-657.5"/>
</g>
<!-- RAM&#45;&gt;FIFO -->
<g id="edge18" class="edge">
<title>RAM&#45;&gt;FIFO</title>
<path fill="none" stroke="black" d="M189.01,-1019C205.72,-1019 224,-1019 224,-1019 224,-1019 224,-137 224,-137 224,-137 253.75,-137 253.75,-137"/>
<polygon fill="black" stroke="black" points="253.75,-140.5 263.75,-137 253.75,-133.5 253.75,-140.5"/>
</g>
<!-- CRC32 -->
<g id="node35" class="node">
<title>CRC32</title>
<polygon fill="none" stroke="black" points="320.5,-726 261.5,-726 261.5,-690 320.5,-690 320.5,-726"/>
<text text-anchor="middle" x="291" y="-704.3" font-family="Times New Roman,serif" font-size="14.00">CRC32</text>
</g>
<!-- RAM&#45;&gt;CRC32 -->
<g id="edge44" class="edge">
<title>RAM&#45;&gt;CRC32</title>
<path fill="none" stroke="black" d="M189.11,-1001C198.17,-1001 206,-1001 206,-1001 206,-1001 206,-708 206,-708 206,-708 251.27,-708 251.27,-708"/>
<polygon fill="black" stroke="black" points="251.27,-711.5 261.27,-708 251.27,-704.5 251.27,-711.5"/>
</g>
<!-- CRC8 -->
<g id="node36" class="node">
<title>CRC8</title>
<polygon fill="none" stroke="black" points="318,-834 264,-834 264,-798 318,-798 318,-834"/>
<text text-anchor="middle" x="291" y="-812.3" font-family="Times New Roman,serif" font-size="14.00">CRC8</text>
</g>
<!-- RAM&#45;&gt;CRC8 -->
<g id="edge42" class="edge">
<title>RAM&#45;&gt;CRC8</title>
<path fill="none" stroke="black" d="M189.09,-1013C199.97,-1013 210,-1013 210,-1013 210,-1013 210,-816 210,-816 210,-816 253.58,-816 253.58,-816"/>
<polygon fill="black" stroke="black" points="253.58,-819.5 263.58,-816 253.58,-812.5 253.58,-819.5"/>
</g>
<!-- CRC16 -->
<g id="node37" class="node">
<title>CRC16</title>
<polygon fill="none" stroke="black" points="320.5,-780 261.5,-780 261.5,-744 320.5,-744 320.5,-780"/>
<text text-anchor="middle" x="291" y="-758.3" font-family="Times New Roman,serif" font-size="14.00">CRC16</text>
</g>
<!-- RAM&#45;&gt;CRC16 -->
<g id="edge43" class="edge">
<title>RAM&#45;&gt;CRC16</title>
<path fill="none" stroke="black" d="M189.02,-1007C199.04,-1007 208,-1007 208,-1007 208,-1007 208,-762 208,-762 208,-762 251.04,-762 251.04,-762"/>
<polygon fill="black" stroke="black" points="251.04,-765.5 261.04,-762 251.04,-758.5 251.04,-765.5"/>
</g>
<!-- STREAM&#45;&gt;LOG -->
<g id="edge27" class="edge">
<title>STREAM&#45;&gt;LOG</title>
<path fill="none" stroke="black" d="M585.2,-80C585.2,-80 661.17,-80 661.17,-80"/>
<polygon fill="black" stroke="black" points="661.17,-83.5 671.17,-80 661.17,-76.5 661.17,-83.5"/>
</g>
<!-- CLI -->
<g id="node20" class="node">
<title>CLI</title>
<polygon fill="none" stroke="black" points="862,-162 808,-162 808,-126 862,-126 862,-162"/>
<text text-anchor="middle" x="835" y="-140.3" font-family="Times New Roman,serif" font-size="14.00">CLI</text>
</g>
<!-- STREAM&#45;&gt;CLI -->
<g id="edge23" class="edge">
<title>STREAM&#45;&gt;CLI</title>
<path fill="none" stroke="aqua" d="M585.19,-62C664.69,-62 844,-62 844,-62 844,-62 844,-115.8 844,-115.8"/>
<polygon fill="aqua" stroke="aqua" points="840.5,-115.8 844,-125.8 847.5,-115.8 840.5,-115.8"/>
</g>
<!-- LOG&#45;&gt;CLI -->
<g id="edge24" class="edge">
<title>LOG&#45;&gt;CLI</title>
<path fill="none" stroke="aqua" d="M725.54,-90C762.97,-90 826,-90 826,-90 826,-90 826,-115.72 826,-115.72"/>
<polygon fill="aqua" stroke="aqua" points="822.5,-115.72 826,-125.72 829.5,-115.72 822.5,-115.72"/>
</g>
<!-- STRING_READER&#45;&gt;CLI -->
<g id="edge22" class="edge">
<title>STRING_READER&#45;&gt;CLI</title>
<path fill="none" stroke="aqua" d="M764.35,-144C764.35,-144 797.92,-144 797.92,-144"/>
<polygon fill="aqua" stroke="aqua" points="797.92,-147.5 807.92,-144 797.92,-140.5 797.92,-147.5"/>
</g>
<!-- STRING -->
<g id="node22" class="node">
<title>STRING</title>
<polygon fill="none" stroke="black" points="732.5,-270 664.5,-270 664.5,-234 732.5,-234 732.5,-270"/>
<text text-anchor="middle" x="698.5" y="-248.3" font-family="Times New Roman,serif" font-size="14.00">STRING</text>
</g>
<!-- STRING&#45;&gt;CLI -->
<g id="edge21" class="edge">
<title>STRING&#45;&gt;CLI</title>
<path fill="none" stroke="aqua" d="M732.61,-252C775.62,-252 844,-252 844,-252 844,-252 844,-172.32 844,-172.32"/>
<polygon fill="aqua" stroke="aqua" points="847.5,-172.32 844,-162.32 840.5,-172.32 847.5,-172.32"/>
</g>
<!-- CSV -->
<g id="node23" class="node">
<title>CSV</title>
<polygon fill="none" stroke="black" points="725.5,-216 671.5,-216 671.5,-180 725.5,-180 725.5,-216"/>
<text text-anchor="middle" x="698.5" y="-194.3" font-family="Times New Roman,serif" font-size="14.00">CSV</text>
</g>
<!-- CSV&#45;&gt;CLI -->
<g id="edge25" class="edge">
<title>CSV&#45;&gt;CLI</title>
<path fill="none" stroke="aqua" d="M725.54,-198C762.97,-198 826,-198 826,-198 826,-198 826,-172.28 826,-172.28"/>
<polygon fill="aqua" stroke="aqua" points="829.5,-172.28 826,-162.28 822.5,-172.28 829.5,-172.28"/>
</g>
<!-- INDICATION -->
<g id="node26" class="node">
<title>INDICATION</title>
<polygon fill="none" stroke="black" points="597,-569 499,-569 499,-533 597,-533 597,-569"/>
<text text-anchor="middle" x="548" y="-547.3" font-family="Times New Roman,serif" font-size="14.00">INDICATION</text>
</g>
<!-- SUPER_CYCLE -->
<g id="node28" class="node">
<title>SUPER_CYCLE</title>
<polygon fill="none" stroke="black" points="755.5,-515 641.5,-515 641.5,-479 755.5,-479 755.5,-515"/>
<text text-anchor="middle" x="698.5" y="-493.3" font-family="Times New Roman,serif" font-size="14.00">SUPER_CYCLE</text>
</g>
<!-- SYSTEM -->
<g id="node29" class="node">
<title>SYSTEM</title>
<polygon fill="none" stroke="black" points="584,-407 512,-407 512,-371 584,-371 584,-407"/>
<text text-anchor="middle" x="548" y="-385.3" font-family="Times New Roman,serif" font-size="14.00">SYSTEM</text>
</g>
<!-- TASK&#45;&gt;SUPER_CYCLE -->
<g id="edge38" class="edge">
<title>TASK&#45;&gt;SUPER_CYCLE</title>
<path fill="none" stroke="black" d="M584.05,-497C584.05,-497 631.29,-497 631.29,-497"/>
<polygon fill="black" stroke="black" points="631.29,-500.5 641.29,-497 631.29,-493.5 631.29,-500.5"/>
</g>
<!-- PARAM -->
<g id="node31" class="node">
<title>PARAM</title>
<polygon fill="none" stroke="black" points="449.5,-917 383.5,-917 383.5,-881 449.5,-881 449.5,-917"/>
<text text-anchor="middle" x="416.5" y="-895.3" font-family="Times New Roman,serif" font-size="14.00">PARAM</text>
</g>
<!-- PARAM&#45;&gt;BOOT -->
<g id="edge30" class="edge">
<title>PARAM&#45;&gt;BOOT</title>
<path fill="none" stroke="black" d="M417,-880.9C417,-816.52 417,-602.5 417,-602.5 417,-602.5 509.9,-602.5 509.9,-602.5"/>
<polygon fill="black" stroke="black" points="509.9,-606 519.9,-602.5 509.9,-599 509.9,-606"/>
</g>
<!-- NVRAM -->
<g id="node41" class="node">
<title>NVRAM</title>
<polygon fill="none" stroke="black" points="582,-917 514,-917 514,-881 582,-881 582,-917"/>
<text text-anchor="middle" x="548" y="-895.3" font-family="Times New Roman,serif" font-size="14.00">NVRAM</text>
</g>
<!-- PARAM&#45;&gt;NVRAM -->
<g id="edge51" class="edge">
<title>PARAM&#45;&gt;NVRAM</title>
<path fill="none" stroke="black" d="M449.68,-899C449.68,-899 503.91,-899 503.91,-899"/>
<polygon fill="black" stroke="black" points="503.91,-902.5 513.91,-899 503.91,-895.5 503.91,-902.5"/>
</g>
<!-- LED_MONO&#45;&gt;INDICATION -->
<g id="edge33" class="edge">
<title>LED_MONO&#45;&gt;INDICATION</title>
<path fill="none" stroke="black" d="M463.02,-524C486.06,-524 509,-524 509,-524 509,-524 509,-524.88 509,-524.88"/>
<polygon fill="black" stroke="black" points="505.5,-522.84 509,-532.84 512.5,-522.84 505.5,-522.84"/>
</g>
<!-- MATH -->
<g id="node33" class="node">
<title>MATH</title>
<polygon fill="none" stroke="black" points="319.5,-618 262.5,-618 262.5,-582 319.5,-582 319.5,-618"/>
<text text-anchor="middle" x="291" y="-596.3" font-family="Times New Roman,serif" font-size="14.00">MATH</text>
</g>
<!-- MATH&#45;&gt;LED_MONO -->
<g id="edge37" class="edge">
<title>MATH&#45;&gt;LED_MONO</title>
<path fill="none" stroke="black" d="M319.64,-610.25C344.65,-610.25 377,-610.25 377,-610.25 377,-610.25 377,-545.42 377,-545.42"/>
<polygon fill="black" stroke="black" points="380.5,-545.42 377,-535.42 373.5,-545.42 380.5,-545.42"/>
</g>
<!-- LIMITER&#45;&gt;TASK -->
<g id="edge39" class="edge">
<title>LIMITER&#45;&gt;TASK</title>
<path fill="none" stroke="green" d="M307,-527.83C307,-512.26 307,-492.33 307,-492.33 307,-492.33 501.92,-492.33 501.92,-492.33"/>
<polygon fill="green" stroke="green" points="501.92,-495.83 511.92,-492.33 501.92,-488.83 501.92,-495.83"/>
</g>
<!-- CRC8&#45;&gt;FLASH_FS -->
<g id="edge53" class="edge">
<title>CRC8&#45;&gt;FLASH_FS</title>
<path fill="none" stroke="black" d="M291,-834.01C291,-834.01 291,-870.74 291,-870.74"/>
<polygon fill="black" stroke="black" points="287.5,-870.74 291,-880.74 294.5,-870.74 287.5,-870.74"/>
</g>
<!-- ASM -->
<g id="node38" class="node">
<title>ASM</title>
<polygon fill="none" stroke="black" points="189,-645 135,-645 135,-609 189,-609 189,-645"/>
<text text-anchor="middle" x="162" y="-623.3" font-family="Times New Roman,serif" font-size="14.00">ASM</text>
</g>
<!-- ASM&#45;&gt;MATH -->
<g id="edge48" class="edge">
<title>ASM&#45;&gt;MATH</title>
<path fill="none" stroke="black" d="M189.04,-613.5C189.04,-613.5 252.2,-613.5 252.2,-613.5"/>
<polygon fill="black" stroke="black" points="252.2,-617 262.2,-613.5 252.2,-610 252.2,-617"/>
</g>
<!-- FLOAT -->
<g id="node39" class="node">
<title>FLOAT</title>
<polygon fill="none" stroke="black" points="193,-591 131,-591 131,-555 193,-555 193,-591"/>
<text text-anchor="middle" x="162" y="-569.3" font-family="Times New Roman,serif" font-size="14.00">FLOAT</text>
</g>
<!-- FLOAT&#45;&gt;MATH -->
<g id="edge49" class="edge">
<title>FLOAT&#45;&gt;MATH</title>
<path fill="none" stroke="black" d="M193.23,-586.5C193.23,-586.5 252.27,-586.5 252.27,-586.5"/>
<polygon fill="black" stroke="black" points="252.27,-590 262.27,-586.5 252.27,-583 252.27,-590"/>
</g>
<!-- FLASH_FS&#45;&gt;PARAM -->
<g id="edge50" class="edge">
<title>FLASH_FS&#45;&gt;PARAM</title>
<path fill="none" stroke="black" d="M333.84,-899C333.84,-899 373.36,-899 373.36,-899"/>
<polygon fill="black" stroke="black" points="373.36,-902.5 383.36,-899 373.36,-895.5 373.36,-902.5"/>
</g>
</g>
</svg>
