<?xml version="1.0" encoding="UTF-8" standalone="no"?>
<!DOCTYPE svg PUBLIC "-//W3C//DTD SVG 1.1//EN"
 "http://www.w3.org/Graphics/SVG/1.1/DTD/svg11.dtd">
<!-- Generated by graphviz version 8.0.5 (20230508.1809)
 -->
<!-- Title: graphname Pages: 1 -->
<svg width="1298pt" height="1203pt"
 viewBox="0.00 0.00 1297.50 1203.00" xmlns="http://www.w3.org/2000/svg" xmlns:xlink="http://www.w3.org/1999/xlink">
<g id="graph0" class="graph" transform="scale(1 1) rotate(0) translate(4 1199)">
<title>graphname</title>
<polygon fill="white" stroke="none" points="-4,4 -4,-1199 1293.5,-1199 1293.5,4 -4,4"/>
<g id="clust1" class="cluster">
<title>cluster_adc</title>
<polygon fill="oldlace" stroke="oldlace" points="378.62,-8 378.62,-139 457.12,-139 457.12,-8 378.62,-8"/>
<text text-anchor="middle" x="417.88" y="-121.7" font-family="Times,serif" font-size="14.00">ADT</text>
</g>
<!-- CLOCK -->
<g id="node1" class="node">
<title>CLOCK</title>
<polygon fill="none" stroke="black" points="76,-1099 14.25,-1099 14.25,-1063 76,-1063 76,-1099"/>
<text text-anchor="middle" x="45.12" y="-1075.95" font-family="Times,serif" font-size="14.00">CLOCK</text>
</g>
<!-- CORE -->
<g id="node2" class="node">
<title>CORE</title>
<polygon fill="none" stroke="black" points="189.38,-1195 135.38,-1195 135.38,-1159 189.38,-1159 189.38,-1195"/>
<text text-anchor="middle" x="162.38" y="-1171.95" font-family="Times,serif" font-size="14.00">CORE</text>
</g>
<!-- CLOCK&#45;&gt;CORE -->
<g id="edge1" class="edge">
<title>CLOCK&#45;&gt;CORE</title>
<path fill="none" stroke="black" d="M45.5,-1099.06C45.5,-1126.87 45.5,-1177 45.5,-1177 45.5,-1177 123.97,-1177 123.97,-1177"/>
<polygon fill="black" stroke="black" points="123.97,-1180.5 133.97,-1177 123.97,-1173.5 123.97,-1180.5"/>
</g>
<!-- SYSTICK -->
<g id="node9" class="node">
<title>SYSTICK</title>
<polygon fill="none" stroke="black" points="198.5,-995 126.25,-995 126.25,-959 198.5,-959 198.5,-995"/>
<text text-anchor="middle" x="162.38" y="-971.95" font-family="Times,serif" font-size="14.00">SYSTICK</text>
</g>
<!-- CLOCK&#45;&gt;SYSTICK -->
<g id="edge9" class="edge">
<title>CLOCK&#45;&gt;SYSTICK</title>
<path fill="none" stroke="black" d="M36.5,-1062.68C36.5,-1035.08 36.5,-986 36.5,-986 36.5,-986 114.97,-986 114.97,-986"/>
<polygon fill="black" stroke="black" points="114.97,-989.5 124.97,-986 114.97,-982.5 114.97,-989.5"/>
</g>
<!-- BOOT -->
<g id="node35" class="node">
<title>BOOT</title>
<polygon fill="none" stroke="black" points="309.25,-1195 255.25,-1195 255.25,-1159 309.25,-1159 309.25,-1195"/>
<text text-anchor="middle" x="282.25" y="-1171.95" font-family="Times,serif" font-size="14.00">BOOT</text>
</g>
<!-- CORE&#45;&gt;BOOT -->
<g id="edge59" class="edge">
<title>CORE&#45;&gt;BOOT</title>
<path fill="none" stroke="black" d="M189.58,-1177C189.58,-1177 244.16,-1177 244.16,-1177"/>
<polygon fill="black" stroke="black" points="244.16,-1180.5 254.16,-1177 244.16,-1173.5 244.16,-1180.5"/>
</g>
<!-- REG -->
<g id="node3" class="node">
<title>REG</title>
<polygon fill="none" stroke="black" points="72.12,-949 18.12,-949 18.12,-913 72.12,-913 72.12,-949"/>
<text text-anchor="middle" x="45.12" y="-925.95" font-family="Times,serif" font-size="14.00">REG</text>
</g>
<!-- NVIC -->
<g id="node4" class="node">
<title>NVIC</title>
<polygon fill="none" stroke="black" points="764.5,-1018 710.5,-1018 710.5,-982 764.5,-982 764.5,-1018"/>
<text text-anchor="middle" x="737.5" y="-994.95" font-family="Times,serif" font-size="14.00">NVIC</text>
</g>
<!-- REG&#45;&gt;NVIC -->
<g id="edge2" class="edge">
<title>REG&#45;&gt;NVIC</title>
<path fill="none" stroke="black" d="M72.34,-933.57C199.44,-933.57 728.5,-933.57 728.5,-933.57 728.5,-933.57 728.5,-970.85 728.5,-970.85"/>
<polygon fill="black" stroke="black" points="725,-970.85 728.5,-980.85 732,-970.85 725,-970.85"/>
</g>
<!-- REG&#45;&gt;SYSTICK -->
<g id="edge7" class="edge">
<title>REG&#45;&gt;SYSTICK</title>
<path fill="none" stroke="black" d="M54.5,-949.44C54.5,-962.24 54.5,-977 54.5,-977 54.5,-977 114.85,-977 114.85,-977"/>
<polygon fill="black" stroke="black" points="114.85,-980.5 124.85,-977 114.85,-973.5 114.85,-980.5"/>
</g>
<!-- CORTEX_M4 -->
<g id="node11" class="node">
<title>CORTEX_M4</title>
<polygon fill="none" stroke="black" points="330,-1095 234.5,-1095 234.5,-1059 330,-1059 330,-1095"/>
<text text-anchor="middle" x="282.25" y="-1071.95" font-family="Times,serif" font-size="14.00">CORTEX_M4</text>
</g>
<!-- REG&#45;&gt;CORTEX_M4 -->
<g id="edge17" class="edge">
<title>REG&#45;&gt;CORTEX_M4</title>
<path fill="none" stroke="black" d="M72.4,-938.71C128.26,-938.71 250.5,-938.71 250.5,-938.71 250.5,-938.71 250.5,-1047.64 250.5,-1047.64"/>
<polygon fill="black" stroke="black" points="247,-1047.64 250.5,-1057.64 254,-1047.64 247,-1047.64"/>
</g>
<!-- FPU -->
<g id="node12" class="node">
<title>FPU</title>
<polygon fill="none" stroke="black" points="189.38,-1141 135.38,-1141 135.38,-1105 189.38,-1105 189.38,-1141"/>
<text text-anchor="middle" x="162.38" y="-1117.95" font-family="Times,serif" font-size="14.00">FPU</text>
</g>
<!-- REG&#45;&gt;FPU -->
<g id="edge14" class="edge">
<title>REG&#45;&gt;FPU</title>
<path fill="none" stroke="black" d="M72.3,-943.86C77.05,-943.86 80.5,-943.86 80.5,-943.86 80.5,-943.86 80.5,-1123 80.5,-1123 80.5,-1123 124.11,-1123 124.11,-1123"/>
<polygon fill="black" stroke="black" points="124.11,-1126.5 134.11,-1123 124.11,-1119.5 124.11,-1126.5"/>
</g>
<!-- FLASH -->
<g id="node15" class="node">
<title>FLASH</title>
<polygon fill="aquamarine" stroke="black" points="889.38,-728 836.62,-728 836.62,-692 895.38,-692 895.38,-722 889.38,-728"/>
<polyline fill="none" stroke="black" points="889.38,-728 889.38,-722"/>
<polyline fill="none" stroke="black" points="895.38,-722 889.38,-722"/>
<text text-anchor="middle" x="866" y="-704.95" font-family="Times,serif" font-size="14.00">FLASH</text>
</g>
<!-- REG&#45;&gt;FLASH -->
<g id="edge23" class="edge">
<title>REG&#45;&gt;FLASH</title>
<path fill="none" stroke="black" d="M72.62,-928.43C214.53,-928.43 857.5,-928.43 857.5,-928.43 857.5,-928.43 857.5,-739.25 857.5,-739.25"/>
<polygon fill="black" stroke="black" points="861,-739.25 857.5,-729.25 854,-739.25 861,-739.25"/>
</g>
<!-- GPIO -->
<g id="node16" class="node">
<title>GPIO</title>
<polygon fill="aquamarine" stroke="black" points="438.88,-513 390.88,-513 390.88,-477 444.88,-477 444.88,-507 438.88,-513"/>
<polyline fill="none" stroke="black" points="438.88,-513 438.88,-507"/>
<polyline fill="none" stroke="black" points="444.88,-507 438.88,-507"/>
<text text-anchor="middle" x="417.88" y="-489.95" font-family="Times,serif" font-size="14.00">GPIO</text>
</g>
<!-- REG&#45;&gt;GPIO -->
<g id="edge28" class="edge">
<title>REG&#45;&gt;GPIO</title>
<path fill="none" stroke="black" d="M72.56,-918.14C151.48,-918.14 373.5,-918.14 373.5,-918.14 373.5,-918.14 373.5,-504 373.5,-504 373.5,-504 379.53,-504 379.53,-504"/>
<polygon fill="black" stroke="black" points="379.53,-507.5 389.53,-504 379.53,-500.5 379.53,-507.5"/>
</g>
<!-- UART -->
<g id="node17" class="node">
<title>UART</title>
<polygon fill="aquamarine" stroke="black" points="601.88,-360 553.88,-360 553.88,-324 607.88,-324 607.88,-354 601.88,-360"/>
<polyline fill="none" stroke="black" points="601.88,-360 601.88,-354"/>
<polyline fill="none" stroke="black" points="607.88,-354 601.88,-354"/>
<text text-anchor="middle" x="580.88" y="-336.95" font-family="Times,serif" font-size="14.00">UART</text>
</g>
<!-- REG&#45;&gt;UART -->
<g id="edge35" class="edge">
<title>REG&#45;&gt;UART</title>
<path fill="none" stroke="darkorange" d="M72.32,-923.29C165.25,-923.29 464.5,-923.29 464.5,-923.29 464.5,-923.29 464.5,-356.75 464.5,-356.75 464.5,-356.75 542.59,-356.75 542.59,-356.75"/>
<polygon fill="darkorange" stroke="darkorange" points="542.59,-360.25 552.59,-356.75 542.59,-353.25 542.59,-360.25"/>
</g>
<!-- ARM -->
<g id="node5" class="node">
<title>ARM</title>
<polygon fill="none" stroke="black" points="893,-1018 839,-1018 839,-982 893,-982 893,-1018"/>
<text text-anchor="middle" x="866" y="-994.95" font-family="Times,serif" font-size="14.00">ARM</text>
</g>
<!-- NVIC&#45;&gt;ARM -->
<g id="edge3" class="edge">
<title>NVIC&#45;&gt;ARM</title>
<path fill="none" stroke="black" d="M764.75,-1000C764.75,-1000 827.79,-1000 827.79,-1000"/>
<polygon fill="black" stroke="black" points="827.79,-1003.5 837.79,-1000 827.79,-996.5 827.79,-1003.5"/>
</g>
<!-- NVIC&#45;&gt;SYSTICK -->
<g id="edge8" class="edge">
<title>NVIC&#45;&gt;SYSTICK</title>
<path fill="none" stroke="black" d="M710.15,-998C595.88,-998 162.5,-998 162.5,-998 162.5,-998 162.5,-997.74 162.5,-997.74"/>
<polygon fill="black" stroke="black" points="166,-1006.42 162.5,-996.42 159,-1006.43 166,-1006.42"/>
</g>
<!-- NVIC&#45;&gt;CORTEX_M4 -->
<g id="edge18" class="edge">
<title>NVIC&#45;&gt;CORTEX_M4</title>
<path fill="none" stroke="black" d="M710.14,-1007C617.37,-1007 320.5,-1007 320.5,-1007 320.5,-1007 320.5,-1047.61 320.5,-1047.61"/>
<polygon fill="black" stroke="black" points="317,-1047.61 320.5,-1057.61 324,-1047.61 317,-1047.61"/>
</g>
<!-- NVIC&#45;&gt;FLASH -->
<g id="edge27" class="edge">
<title>NVIC&#45;&gt;FLASH</title>
<path fill="none" stroke="black" d="M746.5,-981.87C746.5,-920.39 746.5,-723.67 746.5,-723.67 746.5,-723.67 825.15,-723.67 825.15,-723.67"/>
<polygon fill="black" stroke="black" points="825.15,-727.17 835.15,-723.67 825.15,-720.17 825.15,-727.17"/>
</g>
<!-- MICROCONTROLLER -->
<g id="node6" class="node">
<title>MICROCONTROLLER</title>
<polygon fill="none" stroke="black" points="656,-1087 505.75,-1087 505.75,-1051 656,-1051 656,-1087"/>
<text text-anchor="middle" x="580.88" y="-1063.95" font-family="Times,serif" font-size="14.00">MICROCONTROLLER</text>
</g>
<!-- MICROCONTROLLER&#45;&gt;NVIC -->
<g id="edge4" class="edge">
<title>MICROCONTROLLER&#45;&gt;NVIC</title>
<path fill="none" stroke="black" d="M650.5,-1050.66C650.5,-1033.34 650.5,-1010 650.5,-1010 650.5,-1010 699.45,-1010 699.45,-1010"/>
<polygon fill="black" stroke="black" points="699.45,-1013.5 709.45,-1010 699.45,-1006.5 699.45,-1013.5"/>
</g>
<!-- MICROCONTROLLER&#45;&gt;SYSTICK -->
<g id="edge11" class="edge">
<title>MICROCONTROLLER&#45;&gt;SYSTICK</title>
<path fill="none" stroke="black" d="M512.5,-1050.82C512.5,-1024.01 512.5,-977 512.5,-977 512.5,-977 209.85,-977 209.85,-977"/>
<polygon fill="black" stroke="black" points="209.85,-973.5 199.85,-977 209.85,-980.5 209.85,-973.5"/>
</g>
<!-- INTERRUPT -->
<g id="node7" class="node">
<title>INTERRUPT</title>
<polygon fill="none" stroke="black" points="90.25,-529 0,-529 0,-493 90.25,-493 90.25,-529"/>
<text text-anchor="middle" x="45.12" y="-505.95" font-family="Times,serif" font-size="14.00">INTERRUPT</text>
</g>
<!-- INTERRUPT&#45;&gt;NVIC -->
<g id="edge5" class="edge">
<title>INTERRUPT&#45;&gt;NVIC</title>
<path fill="none" stroke="black" d="M83.5,-529.31C83.5,-618.27 83.5,-1001 83.5,-1001 83.5,-1001 699.23,-1001 699.23,-1001"/>
<polygon fill="black" stroke="black" points="699.23,-1004.5 709.23,-1001 699.23,-997.5 699.23,-1004.5"/>
</g>
<!-- INTERRUPT&#45;&gt;SYSTICK -->
<g id="edge10" class="edge">
<title>INTERRUPT&#45;&gt;SYSTICK</title>
<path fill="none" stroke="black" d="M87.5,-529.48C87.5,-614.98 87.5,-968 87.5,-968 87.5,-968 114.81,-968 114.81,-968"/>
<polygon fill="black" stroke="black" points="114.81,-971.5 124.81,-968 114.81,-964.5 114.81,-971.5"/>
</g>
<!-- INTERRUPT&#45;&gt;UART -->
<g id="edge36" class="edge">
<title>INTERRUPT&#45;&gt;UART</title>
<path fill="none" stroke="blue" d="M45.5,-492.55C45.5,-447.49 45.5,-335.5 45.5,-335.5 45.5,-335.5 542.59,-335.5 542.59,-335.5"/>
<polygon fill="blue" stroke="blue" points="542.59,-339 552.59,-335.5 542.59,-332 542.59,-339"/>
</g>
<!-- CMSIS -->
<g id="node8" class="node">
<title>CMSIS</title>
<polygon fill="none" stroke="black" points="609.5,-995 552.25,-995 552.25,-959 609.5,-959 609.5,-995"/>
<text text-anchor="middle" x="580.88" y="-971.95" font-family="Times,serif" font-size="14.00">CMSIS</text>
</g>
<!-- CMSIS&#45;&gt;NVIC -->
<g id="edge6" class="edge">
<title>CMSIS&#45;&gt;NVIC</title>
<path fill="none" stroke="black" d="M609.97,-988.5C609.97,-988.5 699.14,-988.5 699.14,-988.5"/>
<polygon fill="black" stroke="black" points="699.14,-992 709.14,-988.5 699.14,-985 699.14,-992"/>
</g>
<!-- TIME -->
<g id="node10" class="node">
<title>TIME</title>
<polygon fill="none" stroke="black" points="309.25,-651 255.25,-651 255.25,-615 309.25,-615 309.25,-651"/>
<text text-anchor="middle" x="282.25" y="-627.95" font-family="Times,serif" font-size="14.00">TIME</text>
</g>
<!-- SYSTICK&#45;&gt;TIME -->
<g id="edge12" class="edge">
<title>SYSTICK&#45;&gt;TIME</title>
<path fill="none" stroke="black" d="M198.94,-968C229.98,-968 269.5,-968 269.5,-968 269.5,-968 269.5,-662.49 269.5,-662.49"/>
<polygon fill="black" stroke="black" points="273,-662.49 269.5,-652.49 266,-662.49 273,-662.49"/>
</g>
<!-- SYSTICK&#45;&gt;CORTEX_M4 -->
<g id="edge19" class="edge">
<title>SYSTICK&#45;&gt;CORTEX_M4</title>
<path fill="none" stroke="black" d="M198.59,-986C220.99,-986 245.5,-986 245.5,-986 245.5,-986 245.5,-1047.58 245.5,-1047.58"/>
<polygon fill="black" stroke="black" points="242,-1047.58 245.5,-1057.58 249,-1047.58 242,-1047.58"/>
</g>
<!-- TIME&#45;&gt;GPIO -->
<g id="edge30" class="edge">
<title>TIME&#45;&gt;GPIO</title>
<path fill="none" stroke="black" d="M309.69,-633.67C335.6,-633.67 370.5,-633.67 370.5,-633.67 370.5,-633.67 370.5,-495 370.5,-495 370.5,-495 379.59,-495 379.59,-495"/>
<polygon fill="black" stroke="black" points="379.59,-498.5 389.59,-495 379.59,-491.5 379.59,-498.5"/>
</g>
<!-- TIME&#45;&gt;UART -->
<g id="edge31" class="edge">
<title>TIME&#45;&gt;UART</title>
<path fill="none" stroke="black" d="M309.4,-624.33C318.08,-624.33 325.5,-624.33 325.5,-624.33 325.5,-624.33 325.5,-341.25 325.5,-341.25 325.5,-341.25 542.55,-341.25 542.55,-341.25"/>
<polygon fill="black" stroke="black" points="542.55,-344.75 552.55,-341.25 542.55,-337.75 542.55,-344.75"/>
</g>
<!-- LOG -->
<g id="node30" class="node">
<title>LOG</title>
<polygon fill="none" stroke="black" points="1020.75,-286 966.75,-286 966.75,-250 1020.75,-250 1020.75,-286"/>
<text text-anchor="middle" x="993.75" y="-262.95" font-family="Times,serif" font-size="14.00">LOG</text>
</g>
<!-- TIME&#45;&gt;LOG -->
<g id="edge48" class="edge">
<title>TIME&#45;&gt;LOG</title>
<path fill="none" stroke="black" d="M309.54,-645.67C358.11,-645.67 454.5,-645.67 454.5,-645.67 454.5,-645.67 454.5,-272.5 454.5,-272.5 454.5,-272.5 955.27,-272.5 955.27,-272.5"/>
<polygon fill="black" stroke="black" points="955.27,-276 965.27,-272.5 955.27,-269 955.27,-276"/>
</g>
<!-- LED_MONO -->
<g id="node36" class="node">
<title>LED_MONO</title>
<polygon fill="none" stroke="black" points="783,-605 692,-605 692,-569 783,-569 783,-605"/>
<text text-anchor="middle" x="737.5" y="-581.95" font-family="Times,serif" font-size="14.00">LED_MONO</text>
</g>
<!-- TIME&#45;&gt;LED_MONO -->
<g id="edge64" class="edge">
<title>TIME&#45;&gt;LED_MONO</title>
<path fill="none" stroke="black" d="M309.63,-648.33C403.2,-648.33 704.5,-648.33 704.5,-648.33 704.5,-648.33 704.5,-616.4 704.5,-616.4"/>
<polygon fill="black" stroke="black" points="708,-616.4 704.5,-606.4 701,-616.4 708,-616.4"/>
</g>
<!-- SCHEDULER -->
<g id="node40" class="node">
<title>SCHEDULER</title>
<polygon fill="none" stroke="black" points="1144.5,-804 1074.5,-804 1074.5,-768 1144.5,-768 1144.5,-804"/>
<text text-anchor="middle" x="1109.5" y="-780.95" font-family="Times,serif" font-size="14.00">Scheduler</text>
</g>
<!-- TIME&#45;&gt;SCHEDULER -->
<g id="edge69" class="edge">
<title>TIME&#45;&gt;SCHEDULER</title>
<path fill="none" stroke="red" d="M296.5,-651.39C296.5,-686.48 296.5,-759.5 296.5,-759.5 296.5,-759.5 1100.5,-759.5 1100.5,-759.5 1100.5,-759.5 1100.5,-760.31 1100.5,-760.31"/>
<polygon fill="red" stroke="red" points="1097,-756.59 1100.5,-766.59 1104,-756.59 1097,-756.59"/>
</g>
<!-- LIMITER -->
<g id="node42" class="node">
<title>LIMITER</title>
<polygon fill="none" stroke="black" points="1029.5,-804 958,-804 958,-768 1029.5,-768 1029.5,-804"/>
<text text-anchor="middle" x="993.75" y="-780.95" font-family="Times,serif" font-size="14.00">LIMITER</text>
</g>
<!-- TIME&#45;&gt;LIMITER -->
<g id="edge74" class="edge">
<title>TIME&#45;&gt;LIMITER</title>
<path fill="none" stroke="black" d="M282.5,-651.24C282.5,-693 282.5,-792 282.5,-792 282.5,-792 946.5,-792 946.5,-792"/>
<polygon fill="black" stroke="black" points="946.5,-795.5 956.5,-792 946.5,-788.5 946.5,-795.5"/>
</g>
<!-- CORTEX_M4&#45;&gt;NVIC -->
<g id="edge13" class="edge">
<title>CORTEX_M4&#45;&gt;NVIC</title>
<path fill="none" stroke="black" d="M314.5,-1058.58C314.5,-1036.95 314.5,-1004 314.5,-1004 314.5,-1004 699.07,-1004 699.07,-1004"/>
<polygon fill="black" stroke="black" points="699.07,-1007.5 709.07,-1004 699.07,-1000.5 699.07,-1007.5"/>
</g>
<!-- STM32F407ZG -->
<g id="node14" class="node">
<title>STM32F407ZG</title>
<polygon fill="none" stroke="black" points="469.75,-1087 366,-1087 366,-1051 469.75,-1051 469.75,-1087"/>
<text text-anchor="middle" x="417.88" y="-1063.95" font-family="Times,serif" font-size="14.00">STM32F407ZG</text>
</g>
<!-- CORTEX_M4&#45;&gt;STM32F407ZG -->
<g id="edge20" class="edge">
<title>CORTEX_M4&#45;&gt;STM32F407ZG</title>
<path fill="none" stroke="black" d="M330.45,-1073C330.45,-1073 354.69,-1073 354.69,-1073"/>
<polygon fill="black" stroke="black" points="354.69,-1076.5 364.69,-1073 354.69,-1069.5 354.69,-1076.5"/>
</g>
<!-- FPU&#45;&gt;CORTEX_M4 -->
<g id="edge15" class="edge">
<title>FPU&#45;&gt;CORTEX_M4</title>
<path fill="none" stroke="black" d="M189.59,-1123C213.84,-1123 245.5,-1123 245.5,-1123 245.5,-1123 245.5,-1106.44 245.5,-1106.44"/>
<polygon fill="black" stroke="black" points="249,-1106.44 245.5,-1096.44 242,-1106.44 249,-1106.44"/>
</g>
<!-- THUMB -->
<g id="node13" class="node">
<title>THUMB</title>
<polygon fill="none" stroke="black" points="195.12,-1049 129.62,-1049 129.62,-1013 195.12,-1013 195.12,-1049"/>
<text text-anchor="middle" x="162.38" y="-1025.95" font-family="Times,serif" font-size="14.00">THUMB</text>
</g>
<!-- THUMB&#45;&gt;CORTEX_M4 -->
<g id="edge16" class="edge">
<title>THUMB&#45;&gt;CORTEX_M4</title>
<path fill="none" stroke="black" d="M195.51,-1033.5C216.8,-1033.5 240.5,-1033.5 240.5,-1033.5 240.5,-1033.5 240.5,-1047.55 240.5,-1047.55"/>
<polygon fill="black" stroke="black" points="237,-1047.55 240.5,-1057.55 244,-1047.55 237,-1047.55"/>
</g>
<!-- STM32F407ZG&#45;&gt;MICROCONTROLLER -->
<g id="edge21" class="edge">
<title>STM32F407ZG&#45;&gt;MICROCONTROLLER</title>
<path fill="none" stroke="black" d="M469.9,-1069C469.9,-1069 494.29,-1069 494.29,-1069"/>
<polygon fill="black" stroke="black" points="494.29,-1072.5 504.29,-1069 494.29,-1065.5 494.29,-1072.5"/>
</g>
<!-- DEBUGGER -->
<g id="node20" class="node">
<title>DEBUGGER</title>
<polygon fill="none" stroke="black" points="1038.5,-674 949,-674 949,-638 1038.5,-638 1038.5,-674"/>
<text text-anchor="middle" x="993.75" y="-650.95" font-family="Times,serif" font-size="14.00">DEBUGGER</text>
</g>
<!-- FLASH&#45;&gt;DEBUGGER -->
<g id="edge60" class="edge">
<title>FLASH&#45;&gt;DEBUGGER</title>
<path fill="none" stroke="black" d="M895.8,-706.4C921.84,-706.4 955.5,-706.4 955.5,-706.4 955.5,-706.4 955.5,-685.48 955.5,-685.48"/>
<polygon fill="black" stroke="black" points="959,-685.48 955.5,-675.48 952,-685.48 959,-685.48"/>
</g>
<!-- BOOTLOADER -->
<g id="node34" class="node">
<title>BOOTLOADER</title>
<polygon fill="none" stroke="black" points="1288.75,-243 1181.25,-243 1181.25,-207 1288.75,-207 1288.75,-243"/>
<text text-anchor="middle" x="1235" y="-219.95" font-family="Times,serif" font-size="14.00">BOOTLOADER</text>
</g>
<!-- FLASH&#45;&gt;BOOTLOADER -->
<g id="edge57" class="edge">
<title>FLASH&#45;&gt;BOOTLOADER</title>
<path fill="none" stroke="black" d="M895.61,-713.6C983.29,-713.6 1235.5,-713.6 1235.5,-713.6 1235.5,-713.6 1235.5,-254.26 1235.5,-254.26"/>
<polygon fill="black" stroke="black" points="1239,-254.26 1235.5,-244.26 1232,-254.26 1239,-254.26"/>
</g>
<!-- FLASH&#45;&gt;SCHEDULER -->
<g id="edge70" class="edge">
<title>FLASH&#45;&gt;SCHEDULER</title>
<path fill="none" stroke="blue" d="M895.46,-720.8C962.07,-720.8 1118.5,-720.8 1118.5,-720.8 1118.5,-720.8 1118.5,-756.84 1118.5,-756.84"/>
<polygon fill="blue" stroke="blue" points="1115,-756.84 1118.5,-766.84 1122,-756.84 1115,-756.84"/>
</g>
<!-- FLASH&#45;&gt;LIMITER -->
<g id="edge75" class="edge">
<title>FLASH&#45;&gt;LIMITER</title>
<path fill="none" stroke="black" d="M875.5,-728.39C875.5,-749.13 875.5,-780 875.5,-780 875.5,-780 946.63,-780 946.63,-780"/>
<polygon fill="black" stroke="black" points="946.63,-783.5 956.63,-780 946.63,-776.5 946.63,-783.5"/>
</g>
<!-- GPIO&#45;&gt;UART -->
<g id="edge34" class="edge">
<title>GPIO&#45;&gt;UART</title>
<path fill="none" stroke="fuchsia" d="M445.12,-489C451.51,-489 456.5,-489 456.5,-489 456.5,-489 456.5,-353.5 456.5,-353.5 456.5,-353.5 542.58,-353.5 542.58,-353.5"/>
<polygon fill="fuchsia" stroke="fuchsia" points="542.58,-357 552.58,-353.5 542.58,-350 542.58,-357"/>
</g>
<!-- GPIO&#45;&gt;LED_MONO -->
<g id="edge63" class="edge">
<title>GPIO&#45;&gt;LED_MONO</title>
<path fill="none" stroke="black" d="M418.5,-513.18C418.5,-539.99 418.5,-587 418.5,-587 418.5,-587 680.8,-587 680.8,-587"/>
<polygon fill="black" stroke="black" points="680.8,-590.5 690.8,-587 680.8,-583.5 680.8,-590.5"/>
</g>
<!-- LED -->
<g id="node38" class="node">
<title>LED</title>
<polygon fill="none" stroke="black" points="607.88,-513 553.88,-513 553.88,-477 607.88,-477 607.88,-513"/>
<text text-anchor="middle" x="580.88" y="-489.95" font-family="Times,serif" font-size="14.00">LED</text>
</g>
<!-- GPIO&#45;&gt;LED -->
<g id="edge62" class="edge">
<title>GPIO&#45;&gt;LED</title>
<path fill="none" stroke="black" d="M445.16,-501C445.16,-501 542.5,-501 542.5,-501"/>
<polygon fill="black" stroke="black" points="542.5,-504.5 552.5,-501 542.5,-497.5 542.5,-504.5"/>
</g>
<!-- STREAM -->
<g id="node26" class="node">
<title>STREAM</title>
<polygon fill="none" stroke="black" points="901.75,-360 830.25,-360 830.25,-324 901.75,-324 901.75,-360"/>
<text text-anchor="middle" x="866" y="-336.95" font-family="Times,serif" font-size="14.00">STREAM</text>
</g>
<!-- UART&#45;&gt;STREAM -->
<g id="edge39" class="edge">
<title>UART&#45;&gt;STREAM</title>
<path fill="none" stroke="chartreuse" d="M608.21,-342C608.21,-342 818.88,-342 818.88,-342"/>
<polygon fill="chartreuse" stroke="chartreuse" points="818.88,-345.5 828.88,-342 818.88,-338.5 818.88,-345.5"/>
</g>
<!-- UART&#45;&gt;LOG -->
<g id="edge51" class="edge">
<title>UART&#45;&gt;LOG</title>
<path fill="none" stroke="black" d="M590.5,-323.55C590.5,-304.33 590.5,-277 590.5,-277 590.5,-277 955.35,-277 955.35,-277"/>
<polygon fill="black" stroke="black" points="955.35,-280.5 965.35,-277 955.35,-273.5 955.35,-280.5"/>
</g>
<!-- WRITER -->
<g id="node32" class="node">
<title>WRITER</title>
<polygon fill="none" stroke="black" points="771.75,-268 703.25,-268 703.25,-232 771.75,-232 771.75,-268"/>
<text text-anchor="middle" x="737.5" y="-244.95" font-family="Times,serif" font-size="14.00">WRITER</text>
</g>
<!-- UART&#45;&gt;WRITER -->
<g id="edge55" class="edge">
<title>UART&#45;&gt;WRITER</title>
<path fill="none" stroke="black" d="M572.5,-323.73C572.5,-299.98 572.5,-261.5 572.5,-261.5 572.5,-261.5 691.91,-261.5 691.91,-261.5"/>
<polygon fill="black" stroke="black" points="691.91,-265 701.91,-261.5 691.91,-258 691.91,-265"/>
</g>
<!-- ARRAY -->
<g id="node18" class="node">
<title>ARRAY</title>
<polygon fill="aqua" stroke="black" points="443.12,-52 386.62,-52 386.62,-16 449.12,-16 449.12,-46 443.12,-52"/>
<polyline fill="none" stroke="black" points="443.12,-52 443.12,-46"/>
<polyline fill="none" stroke="black" points="449.12,-46 443.12,-46"/>
<text text-anchor="middle" x="417.88" y="-28.95" font-family="Times,serif" font-size="14.00">ARRAY</text>
</g>
<!-- ARRAY&#45;&gt;FLASH -->
<g id="edge22" class="edge">
<title>ARRAY&#45;&gt;FLASH</title>
<path fill="none" stroke="black" d="M449.29,-34C450.68,-34 451.5,-34 451.5,-34 451.5,-34 451.5,-703 451.5,-703 451.5,-703 825.19,-703 825.19,-703"/>
<polygon fill="black" stroke="black" points="825.19,-706.5 835.19,-703 825.19,-699.5 825.19,-706.5"/>
</g>
<!-- INTERVAL -->
<g id="node19" class="node">
<title>INTERVAL</title>
<polygon fill="none" stroke="black" points="458.5,-751 377.25,-751 377.25,-715 458.5,-715 458.5,-751"/>
<text text-anchor="middle" x="417.88" y="-727.95" font-family="Times,serif" font-size="14.00">INTERVAL</text>
</g>
<!-- INTERVAL&#45;&gt;FLASH -->
<g id="edge24" class="edge">
<title>INTERVAL&#45;&gt;FLASH</title>
<path fill="none" stroke="black" d="M458.83,-719.33C458.83,-719.33 825.23,-719.33 825.23,-719.33"/>
<polygon fill="black" stroke="black" points="825.23,-722.83 835.23,-719.33 825.23,-715.83 825.23,-722.83"/>
</g>
<!-- DEBUGGER&#45;&gt;FLASH -->
<g id="edge25" class="edge">
<title>DEBUGGER&#45;&gt;FLASH</title>
<path fill="none" stroke="black" d="M952.5,-674.32C952.5,-686.09 952.5,-699.2 952.5,-699.2 952.5,-699.2 906.77,-699.2 906.77,-699.2"/>
<polygon fill="black" stroke="black" points="906.77,-695.7 896.77,-699.2 906.77,-702.7 906.77,-695.7"/>
</g>
<!-- FLOAT -->
<g id="node21" class="node">
<title>FLOAT</title>
<polygon fill="none" stroke="black" points="446.88,-697 388.88,-697 388.88,-661 446.88,-661 446.88,-697"/>
<text text-anchor="middle" x="417.88" y="-673.95" font-family="Times,serif" font-size="14.00">FLOAT</text>
</g>
<!-- FLOAT&#45;&gt;FLASH -->
<g id="edge26" class="edge">
<title>FLOAT&#45;&gt;FLASH</title>
<path fill="none" stroke="black" d="M418.5,-697.49C418.5,-703.66 418.5,-709 418.5,-709 418.5,-709 825.29,-709 825.29,-709"/>
<polygon fill="black" stroke="black" points="825.29,-712.5 835.29,-709 825.29,-705.5 825.29,-712.5"/>
</g>
<!-- MATH -->
<g id="node39" class="node">
<title>MATH</title>
<polygon fill="none" stroke="black" points="608.38,-643 553.38,-643 553.38,-607 608.38,-607 608.38,-643"/>
<text text-anchor="middle" x="580.88" y="-619.95" font-family="Times,serif" font-size="14.00">MATH</text>
</g>
<!-- FLOAT&#45;&gt;MATH -->
<g id="edge78" class="edge">
<title>FLOAT&#45;&gt;MATH</title>
<path fill="none" stroke="black" d="M447.13,-667.5C494.19,-667.5 581.5,-667.5 581.5,-667.5 581.5,-667.5 581.5,-654.27 581.5,-654.27"/>
<polygon fill="black" stroke="black" points="585,-654.27 581.5,-644.27 578,-654.27 585,-654.27"/>
</g>
<!-- MCU -->
<g id="node22" class="node">
<title>MCU</title>
<polygon fill="none" stroke="black" points="309.25,-513 255.25,-513 255.25,-477 309.25,-477 309.25,-513"/>
<text text-anchor="middle" x="282.25" y="-489.95" font-family="Times,serif" font-size="14.00">MCU</text>
</g>
<!-- MCU&#45;&gt;GPIO -->
<g id="edge29" class="edge">
<title>MCU&#45;&gt;GPIO</title>
<path fill="none" stroke="black" d="M309.7,-486C309.7,-486 379.47,-486 379.47,-486"/>
<polygon fill="black" stroke="black" points="379.47,-489.5 389.47,-486 379.47,-482.5 379.47,-489.5"/>
</g>
<!-- FIFO -->
<g id="node23" class="node">
<title>FIFO</title>
<polygon fill="aqua" stroke="black" points="438.88,-106 390.88,-106 390.88,-70 444.88,-70 444.88,-100 438.88,-106"/>
<polyline fill="none" stroke="black" points="438.88,-106 438.88,-100"/>
<polyline fill="none" stroke="black" points="444.88,-100 438.88,-100"/>
<text text-anchor="middle" x="417.88" y="-82.95" font-family="Times,serif" font-size="14.00">FIFO</text>
</g>
<!-- FIFO&#45;&gt;UART -->
<g id="edge32" class="edge">
<title>FIFO&#45;&gt;UART</title>
<path fill="none" stroke="black" d="M444.98,-104.25C464.9,-104.25 488.5,-104.25 488.5,-104.25 488.5,-104.25 488.5,-329.75 488.5,-329.75 488.5,-329.75 542.41,-329.75 542.41,-329.75"/>
<polygon fill="black" stroke="black" points="542.41,-333.25 552.41,-329.75 542.41,-326.25 542.41,-333.25"/>
</g>
<!-- STRING_READER -->
<g id="node27" class="node">
<title>STRING_READER</title>
<polygon fill="none" stroke="black" points="643.62,-208 518.12,-208 518.12,-172 643.62,-172 643.62,-208"/>
<text text-anchor="middle" x="580.88" y="-184.95" font-family="Times,serif" font-size="14.00">STRING_READER</text>
</g>
<!-- FIFO&#45;&gt;STRING_READER -->
<g id="edge40" class="edge">
<title>FIFO&#45;&gt;STRING_READER</title>
<path fill="none" stroke="aqua" d="M445.26,-102.5C491.84,-102.5 581.5,-102.5 581.5,-102.5 581.5,-102.5 581.5,-160.87 581.5,-160.87"/>
<polygon fill="aqua" stroke="aqua" points="578,-160.87 581.5,-170.87 585,-160.87 578,-160.87"/>
</g>
<!-- FIFO&#45;&gt;LOG -->
<g id="edge50" class="edge">
<title>FIFO&#45;&gt;LOG</title>
<path fill="none" stroke="black" d="M445.2,-89.5C529.12,-89.5 777.5,-89.5 777.5,-89.5 777.5,-89.5 777.5,-254.5 777.5,-254.5 777.5,-254.5 955.36,-254.5 955.36,-254.5"/>
<polygon fill="black" stroke="black" points="955.36,-258 965.36,-254.5 955.36,-251 955.36,-258"/>
</g>
<!-- FIFO&#45;&gt;WRITER -->
<g id="edge54" class="edge">
<title>FIFO&#45;&gt;WRITER</title>
<path fill="none" stroke="black" d="M445.13,-100.75C522.42,-100.75 737.5,-100.75 737.5,-100.75 737.5,-100.75 737.5,-220.7 737.5,-220.7"/>
<polygon fill="black" stroke="black" points="734,-220.7 737.5,-230.7 741,-220.7 734,-220.7"/>
</g>
<!-- DMA -->
<g id="node24" class="node">
<title>DMA</title>
<polygon fill="none" stroke="black" points="444.88,-383 390.88,-383 390.88,-347 444.88,-347 444.88,-383"/>
<text text-anchor="middle" x="417.88" y="-359.95" font-family="Times,serif" font-size="14.00">DMA</text>
</g>
<!-- DMA&#45;&gt;UART -->
<g id="edge33" class="edge">
<title>DMA&#45;&gt;UART</title>
<path fill="none" stroke="green" d="M445.16,-350.25C445.16,-350.25 542.5,-350.25 542.5,-350.25"/>
<polygon fill="green" stroke="green" points="542.5,-353.75 552.5,-350.25 542.5,-346.75 542.5,-353.75"/>
</g>
<!-- RAM -->
<g id="node25" class="node">
<title>RAM</title>
<polygon fill="none" stroke="black" points="309.25,-183 255.25,-183 255.25,-147 309.25,-147 309.25,-183"/>
<text text-anchor="middle" x="282.25" y="-159.95" font-family="Times,serif" font-size="14.00">RAM</text>
</g>
<!-- RAM&#45;&gt;ARRAY -->
<g id="edge37" class="edge">
<title>RAM&#45;&gt;ARRAY</title>
<path fill="none" stroke="blue" d="M282.5,-146.51C282.5,-110.4 282.5,-34 282.5,-34 282.5,-34 375.14,-34 375.14,-34"/>
<polygon fill="blue" stroke="blue" points="375.14,-37.5 385.14,-34 375.14,-30.5 375.14,-37.5"/>
</g>
<!-- RAM&#45;&gt;INTERVAL -->
<g id="edge76" class="edge">
<title>RAM&#45;&gt;INTERVAL</title>
<path fill="none" stroke="black" d="M309.64,-171C339.33,-171 382.5,-171 382.5,-171 382.5,-171 382.5,-703.62 382.5,-703.62"/>
<polygon fill="black" stroke="black" points="379,-703.62 382.5,-713.62 386,-703.62 379,-703.62"/>
</g>
<!-- RAM&#45;&gt;FIFO -->
<g id="edge38" class="edge">
<title>RAM&#45;&gt;FIFO</title>
<path fill="none" stroke="black" d="M296.5,-146.75C296.5,-123.98 296.5,-88 296.5,-88 296.5,-88 379.64,-88 379.64,-88"/>
<polygon fill="black" stroke="black" points="379.64,-91.5 389.64,-88 379.64,-84.5 379.64,-91.5"/>
</g>
<!-- CSV -->
<g id="node31" class="node">
<title>CSV</title>
<polygon fill="none" stroke="black" points="1020.75,-116 966.75,-116 966.75,-80 1020.75,-80 1020.75,-116"/>
<text text-anchor="middle" x="993.75" y="-92.95" font-family="Times,serif" font-size="14.00">CSV</text>
</g>
<!-- RAM&#45;&gt;CSV -->
<g id="edge46" class="edge">
<title>RAM&#45;&gt;CSV</title>
<path fill="none" stroke="black" d="M269.5,-146.57C269.5,-143.34 269.5,-141 269.5,-141 269.5,-141 980.5,-141 980.5,-141 980.5,-141 980.5,-127.49 980.5,-127.49"/>
<polygon fill="black" stroke="black" points="984,-127.49 980.5,-117.49 977,-127.49 984,-127.49"/>
</g>
<!-- CRC8 -->
<g id="node43" class="node">
<title>CRC8</title>
<polygon fill="none" stroke="black" points="444.88,-237 390.88,-237 390.88,-201 444.88,-201 444.88,-237"/>
<text text-anchor="middle" x="417.88" y="-213.95" font-family="Times,serif" font-size="14.00">CRC8</text>
</g>
<!-- RAM&#45;&gt;CRC8 -->
<g id="edge71" class="edge">
<title>RAM&#45;&gt;CRC8</title>
<path fill="none" stroke="black" d="M291.5,-183.28C291.5,-198.95 291.5,-219 291.5,-219 291.5,-219 379.45,-219 379.45,-219"/>
<polygon fill="black" stroke="black" points="379.45,-222.5 389.45,-219 379.45,-215.5 379.45,-222.5"/>
</g>
<!-- CRC16 -->
<g id="node44" class="node">
<title>CRC16</title>
<polygon fill="none" stroke="black" points="446.12,-183 389.62,-183 389.62,-147 446.12,-147 446.12,-183"/>
<text text-anchor="middle" x="417.88" y="-159.95" font-family="Times,serif" font-size="14.00">CRC16</text>
</g>
<!-- RAM&#45;&gt;CRC16 -->
<g id="edge72" class="edge">
<title>RAM&#45;&gt;CRC16</title>
<path fill="none" stroke="black" d="M309.7,-159C309.7,-159 378.54,-159 378.54,-159"/>
<polygon fill="black" stroke="black" points="378.54,-162.5 388.54,-159 378.54,-155.5 378.54,-162.5"/>
</g>
<!-- CRC32 -->
<g id="node45" class="node">
<title>CRC32</title>
<polygon fill="none" stroke="black" points="446.12,-291 389.62,-291 389.62,-255 446.12,-255 446.12,-291"/>
<text text-anchor="middle" x="417.88" y="-267.95" font-family="Times,serif" font-size="14.00">CRC32</text>
</g>
<!-- RAM&#45;&gt;CRC32 -->
<g id="edge73" class="edge">
<title>RAM&#45;&gt;CRC32</title>
<path fill="none" stroke="black" d="M273.5,-183.32C273.5,-214.13 273.5,-273 273.5,-273 273.5,-273 378.35,-273 378.35,-273"/>
<polygon fill="black" stroke="black" points="378.35,-276.5 388.35,-273 378.35,-269.5 378.35,-276.5"/>
</g>
<!-- CLI -->
<g id="node29" class="node">
<title>CLI</title>
<polygon fill="none" stroke="black" points="1136.5,-243 1082.5,-243 1082.5,-207 1136.5,-207 1136.5,-243"/>
<text text-anchor="middle" x="1109.5" y="-219.95" font-family="Times,serif" font-size="14.00">CLI</text>
</g>
<!-- STREAM&#45;&gt;CLI -->
<g id="edge43" class="edge">
<title>STREAM&#45;&gt;CLI</title>
<path fill="none" stroke="aqua" d="M872.5,-323.96C872.5,-293.62 872.5,-235.67 872.5,-235.67 872.5,-235.67 1071.31,-235.67 1071.31,-235.67"/>
<polygon fill="aqua" stroke="aqua" points="1071.31,-239.17 1081.31,-235.67 1071.31,-232.17 1071.31,-239.17"/>
</g>
<!-- STREAM&#45;&gt;LOG -->
<g id="edge49" class="edge">
<title>STREAM&#45;&gt;LOG</title>
<path fill="none" stroke="black" d="M885.5,-323.52C885.5,-305.73 885.5,-281.5 885.5,-281.5 885.5,-281.5 955.43,-281.5 955.43,-281.5"/>
<polygon fill="black" stroke="black" points="955.43,-285 965.43,-281.5 955.43,-278 955.43,-285"/>
</g>
<!-- STRING_READER&#45;&gt;CLI -->
<g id="edge42" class="edge">
<title>STRING_READER&#45;&gt;CLI</title>
<path fill="none" stroke="aqua" d="M627.5,-208.42C627.5,-217.28 627.5,-226 627.5,-226 627.5,-226 1071.2,-226 1071.2,-226"/>
<polygon fill="aqua" stroke="aqua" points="1071.2,-229.5 1081.2,-226 1071.2,-222.5 1071.2,-229.5"/>
</g>
<!-- STRING -->
<g id="node28" class="node">
<title>STRING</title>
<polygon fill="none" stroke="black" points="898.38,-135 833.62,-135 833.62,-99 898.38,-99 898.38,-135"/>
<text text-anchor="middle" x="866" y="-111.95" font-family="Times,serif" font-size="14.00">STRING</text>
</g>
<!-- STRING&#45;&gt;CLI -->
<g id="edge41" class="edge">
<title>STRING&#45;&gt;CLI</title>
<path fill="none" stroke="aqua" d="M847.5,-135.41C847.5,-165.04 847.5,-220 847.5,-220 847.5,-220 1071.45,-220 1071.45,-220"/>
<polygon fill="aqua" stroke="aqua" points="1071.45,-223.5 1081.45,-220 1071.45,-216.5 1071.45,-223.5"/>
</g>
<!-- STRING&#45;&gt;CSV -->
<g id="edge47" class="edge">
<title>STRING&#45;&gt;CSV</title>
<path fill="none" stroke="black" d="M898.57,-107.5C898.57,-107.5 955.43,-107.5 955.43,-107.5"/>
<polygon fill="black" stroke="black" points="955.43,-111 965.43,-107.5 955.43,-104 955.43,-111"/>
</g>
<!-- CLI&#45;&gt;BOOTLOADER -->
<g id="edge58" class="edge">
<title>CLI&#45;&gt;BOOTLOADER</title>
<path fill="none" stroke="black" d="M1136.73,-225C1136.73,-225 1170,-225 1170,-225"/>
<polygon fill="black" stroke="black" points="1170,-228.5 1180,-225 1170,-221.5 1170,-228.5"/>
</g>
<!-- LOG&#45;&gt;CLI -->
<g id="edge44" class="edge">
<title>LOG&#45;&gt;CLI</title>
<path fill="none" stroke="aqua" d="M1007.5,-249.68C1007.5,-244.06 1007.5,-239.33 1007.5,-239.33 1007.5,-239.33 1071.17,-239.33 1071.17,-239.33"/>
<polygon fill="aqua" stroke="aqua" points="1071.17,-242.83 1081.17,-239.33 1071.17,-235.83 1071.17,-242.83"/>
</g>
<!-- CSV&#45;&gt;CLI -->
<g id="edge45" class="edge">
<title>CSV&#45;&gt;CLI</title>
<path fill="none" stroke="aqua" d="M994.5,-116.38C994.5,-149.09 994.5,-214 994.5,-214 994.5,-214 1071.25,-214 1071.25,-214"/>
<polygon fill="aqua" stroke="aqua" points="1071.25,-217.5 1081.25,-214 1071.25,-210.5 1071.25,-217.5"/>
</g>
<!-- WRITER&#45;&gt;STREAM -->
<g id="edge53" class="edge">
<title>WRITER&#45;&gt;STREAM</title>
<path fill="none" stroke="black" d="M772.09,-263.5C808.47,-263.5 860.5,-263.5 860.5,-263.5 860.5,-263.5 860.5,-312.79 860.5,-312.79"/>
<polygon fill="black" stroke="black" points="857,-312.79 860.5,-322.79 864,-312.79 857,-312.79"/>
</g>
<!-- WRITER&#45;&gt;LOG -->
<g id="edge52" class="edge">
<title>WRITER&#45;&gt;LOG</title>
<path fill="none" stroke="black" d="M772.06,-259C772.06,-259 955.38,-259 955.38,-259"/>
<polygon fill="black" stroke="black" points="955.38,-262.5 965.38,-259 955.38,-255.5 955.38,-262.5"/>
</g>
<!-- PARAM -->
<g id="node33" class="node">
<title>PARAM</title>
<polygon fill="none" stroke="black" points="1141.5,-189 1077.5,-189 1077.5,-153 1141.5,-153 1141.5,-189"/>
<text text-anchor="middle" x="1109.5" y="-165.95" font-family="Times,serif" font-size="14.00">PARAM</text>
</g>
<!-- PARAM&#45;&gt;BOOTLOADER -->
<g id="edge56" class="edge">
<title>PARAM&#45;&gt;BOOTLOADER</title>
<path fill="none" stroke="black" d="M1141.95,-171C1179.28,-171 1235.5,-171 1235.5,-171 1235.5,-171 1235.5,-195.72 1235.5,-195.72"/>
<polygon fill="black" stroke="black" points="1232,-195.72 1235.5,-205.72 1239,-195.72 1232,-195.72"/>
</g>
<!-- INDICATION -->
<g id="node37" class="node">
<title>INDICATION</title>
<polygon fill="none" stroke="black" points="913,-605 819,-605 819,-569 913,-569 913,-605"/>
<text text-anchor="middle" x="866" y="-581.95" font-family="Times,serif" font-size="14.00">INDICATION</text>
</g>
<!-- LED_MONO&#45;&gt;INDICATION -->
<g id="edge61" class="edge">
<title>LED_MONO&#45;&gt;INDICATION</title>
<path fill="none" stroke="black" d="M783.17,-587C783.17,-587 807.74,-587 807.74,-587"/>
<polygon fill="black" stroke="black" points="807.74,-590.5 817.74,-587 807.74,-583.5 807.74,-590.5"/>
</g>
<!-- LED&#45;&gt;LED_MONO -->
<g id="edge66" class="edge">
<title>LED&#45;&gt;LED_MONO</title>
<path fill="none" stroke="black" d="M608.16,-495C642.9,-495 698.5,-495 698.5,-495 698.5,-495 698.5,-557.82 698.5,-557.82"/>
<polygon fill="black" stroke="black" points="695,-557.82 698.5,-567.82 702,-557.82 695,-557.82"/>
</g>
<!-- MATH&#45;&gt;LED_MONO -->
<g id="edge65" class="edge">
<title>MATH&#45;&gt;LED_MONO</title>
<path fill="none" stroke="black" d="M608.75,-622.5C643.53,-622.5 698.5,-622.5 698.5,-622.5 698.5,-622.5 698.5,-616.17 698.5,-616.17"/>
<polygon fill="black" stroke="black" points="702,-616.17 698.5,-606.17 695,-616.17 702,-616.17"/>
</g>
<!-- SUPER_CYCLE -->
<g id="node41" class="node">
<title>SUPER_CYCLE</title>
<polygon fill="none" stroke="black" points="1289.5,-804 1180.5,-804 1180.5,-768 1289.5,-768 1289.5,-804"/>
<text text-anchor="middle" x="1235" y="-780.95" font-family="Times,serif" font-size="14.00">SUPER_CYCLE</text>
</g>
<!-- SCHEDULER&#45;&gt;SUPER_CYCLE -->
<g id="edge67" class="edge">
<title>SCHEDULER&#45;&gt;SUPER_CYCLE</title>
<path fill="none" stroke="black" d="M1144.79,-786C1144.79,-786 1169.27,-786 1169.27,-786"/>
<polygon fill="black" stroke="black" points="1169.27,-789.5 1179.27,-786 1169.27,-782.5 1169.27,-789.5"/>
</g>
<!-- LIMITER&#45;&gt;SCHEDULER -->
<g id="edge68" class="edge">
<title>LIMITER&#45;&gt;SCHEDULER</title>
<path fill="none" stroke="green" d="M1029.74,-786C1029.74,-786 1063.33,-786 1063.33,-786"/>
<polygon fill="green" stroke="green" points="1063.33,-789.5 1073.33,-786 1063.33,-782.5 1063.33,-789.5"/>
</g>
<!-- ASM -->
<g id="node46" class="node">
<title>ASM</title>
<polygon fill="none" stroke="black" points="444.88,-643 390.88,-643 390.88,-607 444.88,-607 444.88,-643"/>
<text text-anchor="middle" x="417.88" y="-619.95" font-family="Times,serif" font-size="14.00">ASM</text>
</g>
<!-- ASM&#45;&gt;MATH -->
<g id="edge77" class="edge">
<title>ASM&#45;&gt;MATH</title>
<path fill="none" stroke="black" d="M445.16,-625C445.16,-625 541.96,-625 541.96,-625"/>
<polygon fill="black" stroke="black" points="541.96,-628.5 551.96,-625 541.96,-621.5 541.96,-628.5"/>
</g>
</g>
</svg>
